<?xml version="1.0" encoding="utf-8"?>
<!-- Generator: Adobe Illustrator 25.3.1, SVG Export Plug-In . SVG Version: 6.00 Build 0)  -->
<svg version="1.1" id="Calque_1" xmlns="http://www.w3.org/2000/svg" xmlns:xlink="http://www.w3.org/1999/xlink" x="0px" y="0px"
	 viewBox="0 0 520 160" style="enable-background:new 0 0 520 160;" xml:space="preserve">
<style type="text/css">
	.st0{fill:url(#SVGID_1_);}
	.st1{fill:#DADADA;}
	.st2{fill:#F6F6F6;}
	.st3{fill:url(#SVGID_2_);}
	.st4{opacity:0.26;fill:#1D1D1B;enable-background:new    ;}
	.st5{fill:#FFFFFF;}
	.st6{enable-background:new    ;}
	.st7{fill:#00A23D;}
	.st8{fill:#005A5C;}
</style>
<g>
	<g id="Logo_TeaSwap">
		
			<linearGradient id="SVGID_1_" gradientUnits="userSpaceOnUse" x1="7.7772" y1="88.5929" x2="92.3773" y2="88.5929" gradientTransform="matrix(1 0 0 -1 0 159.8898)">
			<stop  offset="0" style="stop-color:#005A5C"/>
			<stop  offset="0.2221" style="stop-color:#005F5A"/>
			<stop  offset="0.4687" style="stop-color:#006C54"/>
			<stop  offset="0.727" style="stop-color:#00824B"/>
			<stop  offset="0.9919" style="stop-color:#00A13D"/>
			<stop  offset="1" style="stop-color:#00A23D"/>
		</linearGradient>
		<circle class="st0" cx="50.1" cy="71.3" r="42.3"/>
		<g>
			<g>
				<path class="st1" d="M76,54.1l1.8-1.8c1-1,1.5-2.3,1.5-3.6c0-1.3-0.5-2.7-1.5-3.6l-1.4-1.4c-1-1-2.3-1.5-3.6-1.5
					c-1.4,0-2.7,0.5-3.6,1.5l-1.8,1.8c-4.9-3.3-10.9-5.2-17.3-5.2c-17.2,0-31.1,14-31.1,31.1s14,31.1,31.1,31.1s31.1-14,31.1-31.1
					C81.2,64.9,79.3,59,76,54.1L76,54.1z"/>
				<circle class="st2" cx="50.1" cy="71.3" r="27.9"/>
				<g>
					
						<linearGradient id="SVGID_2_" gradientUnits="userSpaceOnUse" x1="27.0772" y1="88.5929" x2="73.0772" y2="88.5929" gradientTransform="matrix(1 0 0 -1 0 159.8898)">
						<stop  offset="0" style="stop-color:#005A5C"/>
						<stop  offset="0.2221" style="stop-color:#005F5A"/>
						<stop  offset="0.4687" style="stop-color:#006C54"/>
						<stop  offset="0.727" style="stop-color:#00824B"/>
						<stop  offset="0.9919" style="stop-color:#00A13D"/>
						<stop  offset="1" style="stop-color:#00A23D"/>
					</linearGradient>
					<circle class="st3" cx="50.1" cy="71.3" r="23"/>
				</g>
				<path class="st4" d="M35.8,71.3c0-11.2,8.1-20.6,18.7-22.6c-1.4-0.3-2.9-0.4-4.3-0.4c-12.7,0-23,10.3-23,23s10.3,23,23,23
					c1.5,0,2.9-0.1,4.3-0.4C43.8,91.9,35.8,82.5,35.8,71.3z"/>
			</g>
			<g>
				<path class="st5" d="M48.9,85.6v2.1c0,0.7,0.5,1.2,1.2,1.2c0.7,0,1.2-0.5,1.2-1.2v-2.1c2.6-0.2,5.1-1.3,7.1-3
					c0.5-0.4,0.6-1.2,0.1-1.7c-0.4-0.5-1.2-0.6-1.7-0.1c-1.6,1.3-3.5,2.1-5.5,2.4V63.8c0-0.7-0.5-1.2-1.2-1.2
					c-0.7,0-1.2,0.5-1.2,1.2v19.3c-5.2-0.6-9.2-5-9.2-10.4c0-3.8,5.3-10.6,10.2-15.7c0.1-0.1,0.1-0.1,0.2-0.1s0.1,0,0.2,0.1
					c4.9,5,10.2,11.8,10.2,15.7c0,1.5-0.3,2.9-0.9,4.2c-0.3,0.6,0,1.3,0.6,1.6c0.6,0.3,1.3,0,1.6-0.6c0.7-1.6,1.1-3.4,1.1-5.2
					c0-5.4-6.8-13.2-10.9-17.4c-0.5-0.5-1.2-0.8-1.9-0.8c-0.7,0-1.4,0.3-1.9,0.8c-1.4,1.4-4.1,4.3-6.5,7.5c-2.9,4-4.4,7.3-4.4,9.8
					C37.3,79.4,42.4,84.9,48.9,85.6L48.9,85.6z"/>
				<path class="st5" d="M60.7,58.2c1.9,1.5,3.5,3.5,4.6,5.7c0.2,0.4,0.6,0.7,1.1,0.7c0.2,0,0.4,0,0.5-0.1c0.6-0.3,0.9-1,0.6-1.6
					c-1.2-2.5-3.1-4.8-5.3-6.6c-0.5-0.4-1.3-0.3-1.7,0.2C60.1,57,60.1,57.8,60.7,58.2L60.7,58.2z"/>
				<path class="st5" d="M32.8,79.8c1.2,2.5,3.1,4.8,5.3,6.6c0.2,0.2,0.5,0.3,0.8,0.3c0.4,0,0.7-0.2,0.9-0.5
					c0.4-0.5,0.3-1.3-0.2-1.7C37.7,83,36.1,81,35,78.8c-0.3-0.6-1-0.9-1.6-0.6C32.7,78.5,32.5,79.2,32.8,79.8L32.8,79.8z"/>
			</g>
		</g>
	</g>
	<g class="st6">
		<path class="st7" d="M130.3,56.4h-16.8v-15h53v15h-16.8v42.4h-19.3V56.4z"/>
		<path class="st7" d="M213.9,80.6h-31.1c1.3,3.4,4.4,5.2,9,5.2c4.1,0,6.4-1.1,9.3-3.3l9.7,9.8c-4.3,4.8-10.7,7.2-19.6,7.2
			c-16.5,0-27.1-9.9-27.1-23.3c0-13.6,10.9-23.2,25.4-23.2c13.3,0,24.7,8,24.7,23.2C214.1,77.6,213.9,79.3,213.9,80.6z M182.4,71.7
			h14.4c-0.7-3.8-3.4-6-7.2-6C185.7,65.7,183.1,67.9,182.4,71.7z"/>
		<path class="st7" d="M263,74.6v24.1h-17.2v-5.9c-2.1,4.5-6.4,6.7-12.7,6.7c-11,0-16.6-6.2-16.6-13.9c0-8.7,6.6-13.5,20.5-13.5h7.5
			c-0.6-3.4-3.2-5.2-8.4-5.2c-4,0-8.5,1.3-11.5,3.5l-5.9-12.2c5.2-3.3,13.2-5.1,20.2-5.1C254.2,53.1,263,59.7,263,74.6z M244.5,84.1
			V81h-4.6c-3.9,0-5.7,1.3-5.7,3.8c0,2,1.6,3.6,4.4,3.6C241.2,88.4,243.5,87.1,244.5,84.1z"/>
	</g>
	<g class="st6">
		<path class="st8" d="M273.8,94.1L280,80c5.4,3.2,12.6,5.2,18.9,5.2c5.5,0,7.5-1.1,7.5-3.1c0-7.2-31.7-1.4-31.7-22.8
			c0-10.7,8.9-19.3,26.7-19.3c7.7,0,15.7,1.6,21.6,5l-5.8,14c-5.7-2.9-11-4.3-16-4.3c-5.7,0-7.5,1.6-7.5,3.6
			c0,6.9,31.7,1.1,31.7,22.3c0,10.5-8.9,19.3-26.7,19.3C289.2,100,279.5,97.7,273.8,94.1z"/>
		<path class="st8" d="M406.3,53.9l-15.6,44.8h-18L365.9,78l-7,20.7h-18l-15.6-44.8h17.5l7.7,23.7l8-23.7h15.7l7.8,23.9l8-23.9
			H406.3z"/>
		<path class="st8" d="M452.6,74.6v24.1h-17.2v-5.9c-2.1,4.5-6.4,6.7-12.7,6.7c-11,0-16.6-6.2-16.6-13.9c0-8.7,6.6-13.5,20.5-13.5
			h7.5c-0.6-3.4-3.2-5.2-8.4-5.2c-4,0-8.5,1.3-11.5,3.5l-5.9-12.2c5.2-3.3,13.2-5.1,20.2-5.1C443.8,53.1,452.6,59.7,452.6,74.6z
			 M434.1,84.1V81h-4.6c-3.9,0-5.7,1.3-5.7,3.8c0,2,1.6,3.6,4.4,3.6C430.8,88.4,433.1,87.1,434.1,84.1z"/>
		<path class="st8" d="M512.2,76.4c0,14.4-9.9,23.2-21.6,23.2c-4.9,0-8.7-1.2-11.4-3.9v18.9h-18.5V53.9h17.6v3.7
			c2.7-3,6.7-4.5,12.3-4.5C502.3,53.1,512.2,61.9,512.2,76.4z M493.5,76.4c0-5.8-3.2-8.9-7.3-8.9s-7.3,3-7.3,8.9
			c0,5.8,3.2,8.8,7.3,8.8S493.5,82.2,493.5,76.4z"/>
	</g>
	<g class="st6">
		<path class="st8" d="M132.4,115.1v5.7h9v2.9h-9v7.1H129v-18.6h13.6v2.9H132.4z"/>
		<path class="st8" d="M149.9,112.3c0-1.1,0.9-2,2.1-2s2.1,0.8,2.1,1.9c0,1.2-0.9,2.1-2.1,2.1C150.8,114.3,149.9,113.4,149.9,112.3z
			 M150.3,116.6h3.3v14.2h-3.3V116.6z"/>
		<path class="st8" d="M177,122.7v8.1h-3.3v-7.7c0-2.5-1.3-3.8-3.4-3.8c-2.4,0-4,1.4-4,4.3v7.2H163v-14.2h3.2v1.8
			c1.1-1.3,2.8-2,4.9-2C174.5,116.4,177,118.4,177,122.7z"/>
		<path class="st8" d="M198.1,122.5v8.3H195v-1.7c-0.8,1.2-2.3,1.9-4.5,1.9c-3.2,0-5.3-1.8-5.3-4.3c0-2.4,1.6-4.2,5.9-4.2h3.7v-0.2
			c0-1.9-1.2-3.1-3.5-3.1c-1.6,0-3.2,0.5-4.3,1.4l-1.3-2.4c1.5-1.2,3.7-1.8,6-1.8C195.8,116.4,198.1,118.4,198.1,122.5z
			 M194.8,126.4v-1.7h-3.4c-2.3,0-2.9,0.9-2.9,1.9c0,1.2,1,2,2.7,2C192.8,128.6,194.3,127.8,194.8,126.4z"/>
		<path class="st8" d="M221.4,122.7v8.1h-3.3v-7.7c0-2.5-1.3-3.8-3.4-3.8c-2.4,0-4,1.4-4,4.3v7.2h-3.3v-14.2h3.2v1.8
			c1.1-1.3,2.8-2,4.9-2C218.9,116.4,221.4,118.4,221.4,122.7z"/>
		<path class="st8" d="M229.6,123.7c0-4.3,3.2-7.3,7.7-7.3c2.8,0,5,1.1,6.1,3.3l-2.6,1.5c-0.9-1.4-2.1-2-3.5-2
			c-2.4,0-4.3,1.7-4.3,4.4c0,2.8,1.9,4.4,4.3,4.4c1.4,0,2.7-0.6,3.5-2l2.6,1.5c-1.1,2.1-3.3,3.3-6.1,3.3
			C232.8,131,229.6,128,229.6,123.7z"/>
		<path class="st8" d="M264.3,124.8h-11.2c0.4,2.1,2.1,3.4,4.6,3.4c1.6,0,2.8-0.5,3.9-1.5l1.8,2.1c-1.3,1.5-3.3,2.3-5.7,2.3
			c-4.8,0-7.9-3.1-7.9-7.3s3.1-7.3,7.3-7.3c4.2,0,7.2,2.9,7.2,7.3C264.3,124.1,264.3,124.5,264.3,124.8z M253.1,122.6h8.1
			c-0.3-2.1-1.8-3.5-4-3.5C255,119.1,253.4,120.5,253.1,122.6z"/>
		<path class="st8" d="M293.4,130c-0.8,0.6-2,1-3.2,1c-3.1,0-4.9-1.7-4.9-4.8v-6.8H283v-2.7h2.3v-3.2h3.3v3.2h3.8v2.7h-3.8v6.8
			c0,1.4,0.7,2.1,2,2.1c0.7,0,1.4-0.2,1.9-0.6L293.4,130z"/>
		<path class="st8" d="M299.5,123.7c0-4.3,3.2-7.3,7.6-7.3c4.4,0,7.6,3,7.6,7.3c0,4.3-3.2,7.3-7.6,7.3
			C302.7,131,299.5,128,299.5,123.7z M311.3,123.7c0-2.7-1.8-4.4-4.2-4.4c-2.4,0-4.2,1.7-4.2,4.4s1.8,4.4,4.2,4.4
			C309.4,128.2,311.3,126.4,311.3,123.7z"/>
		<path class="st8" d="M352,112.2v18.6h-3.5v-8h-9.6v8h-3.5v-18.6h3.5v7.7h9.6v-7.7H352z"/>
		<path class="st8" d="M375,124.8h-11.2c0.4,2.1,2.1,3.4,4.6,3.4c1.6,0,2.8-0.5,3.9-1.5l1.8,2.1c-1.3,1.5-3.3,2.3-5.7,2.3
			c-4.8,0-7.9-3.1-7.9-7.3s3.1-7.3,7.3-7.3c4.2,0,7.2,2.9,7.2,7.3C375,124.1,375,124.5,375,124.8z M363.8,122.6h8.1
			c-0.3-2.1-1.8-3.5-4-3.5C365.7,119.1,364.1,120.5,363.8,122.6z"/>
		<path class="st8" d="M394.7,122.5v8.3h-3.1v-1.7c-0.8,1.2-2.3,1.9-4.5,1.9c-3.2,0-5.3-1.8-5.3-4.3c0-2.4,1.6-4.2,5.9-4.2h3.7v-0.2
			c0-1.9-1.2-3.1-3.5-3.1c-1.6,0-3.2,0.5-4.3,1.4l-1.3-2.4c1.5-1.2,3.7-1.8,6-1.8C392.3,116.4,394.7,118.4,394.7,122.5z
			 M391.4,126.4v-1.7H388c-2.3,0-2.9,0.9-2.9,1.9c0,1.2,1,2,2.7,2C389.4,128.6,390.8,127.8,391.4,126.4z"/>
		<path class="st8" d="M412.2,116.4v3.2c-0.3-0.1-0.5-0.1-0.8-0.1c-2.5,0-4.1,1.5-4.1,4.4v6.9H404v-14.2h3.2v2.1
			C408.1,117.2,409.8,116.4,412.2,116.4z"/>
		<path class="st8" d="M429.1,130c-0.8,0.6-2,1-3.2,1c-3.1,0-4.9-1.7-4.9-4.8v-6.8h-2.3v-2.7h2.3v-3.2h3.3v3.2h3.8v2.7h-3.8v6.8
			c0,1.4,0.7,2.1,2,2.1c0.7,0,1.4-0.2,1.9-0.6L429.1,130z"/>
	</g>
</g>
</svg>
