<svg id="Layer_1" enable-background="new 0 0 510 510" height="512" viewBox="0 0 510 510" width="512" xmlns="http://www.w3.org/2000/svg"><g id="XMLID_197_"><g id="XMLID_1335_"><g><path id="XMLID_959_" d="m405 60-7.3 14.6 7.3 15.4h45v60c0 35.001-24.101 64.48-56.578 72.711l-21.755 18.789 3.333 13.5c57.897 0 105-47.104 105-105v-90z" fill="#ff9356"/></g></g><g id="XMLID_1288_"><g><path id="XMLID_610_" d="m116.588 222.714c-32.483-8.23-56.588-37.71-56.588-72.714v-60h45l6.5-13.917-6.5-16.083h-75v90c0 57.896 47.104 105 105 105l.5-24.25z" fill="#ffb900"/></g></g><path id="XMLID_1350_" d="m255 0h-150v30l69 10 81-10 10-15z" fill="#ffb900"/><path id="XMLID_1361_" d="m255 0v30l64 10 86-10v-30z" fill="#ff9356"/><path id="XMLID_1502_" d="m105 30v135c0 59.855 35.752 113.825 90 137.506v57.494l22.8 11.4 37.2-11.4 10-168-10-162z" fill="#ffe100"/><path id="XMLID_1520_" d="m287 374 28-14v-57.494c54.248-23.681 90-77.65 90-137.506v-135h-150v330z" fill="#ffb900"/><path id="XMLID_1344_" d="m195 150c0 33.084 26.916 60 60 60l14.645-50-14.645-70c-33.084 0-60 26.916-60 60z" fill="#ffb900"/><path id="XMLID_1359_" d="m315 150c0-33.084-26.916-60-60-60v120c33.084 0 60-26.916 60-60z" fill="#ff9356"/><path id="XMLID_1506_" d="m165 360v60l43.333 10 46.667-10 10-30-10-30z" fill="#ffb900"/><path id="XMLID_1362_" d="m345 360h-90v60l45 10 45-10z" fill="#ff9356"/><path id="XMLID_1522_" d="m135 480 65 10 55-10 10-30-10-30h-120z" fill="#005d81"/><path id="XMLID_1521_" d="m375 480v-60h-120v60l52 10z" fill="#003b68"/><path id="XMLID_1524_" d="m105 480v30h150l10-15-10-15c-16.9 0-135.055 0-150 0z" fill="#003b68"/><path id="XMLID_1523_" d="m255 510h150v-30c-14.848 0-132.967 0-150 0z" fill="#00233f"/></g></svg>