<?xml version="1.0" encoding="UTF-8"?>
<svg xmlns="http://www.w3.org/2000/svg" xmlns:xlink="http://www.w3.org/1999/xlink" width="500pt" height="500pt" viewBox="0 0 500 500" version="1.1">
<g id="surface1">
<path style=" stroke:none;fill-rule:nonzero;fill:rgb(0%,0%,0%);fill-opacity:1;" d="M 500 33.332031 L 0 33.332031 L 0 433.332031 L 16.667969 433.332031 L 16.667969 466.667969 L 100 466.667969 L 100 433.332031 L 400 433.332031 L 400 466.667969 L 483.332031 466.667969 L 483.332031 433.332031 L 500 433.332031 Z M 83.332031 450 L 33.332031 450 L 33.332031 433.332031 L 83.332031 433.332031 Z M 466.667969 450 L 416.667969 450 L 416.667969 433.332031 L 466.667969 433.332031 Z M 483.332031 416.667969 L 16.667969 416.667969 L 16.667969 50 L 483.332031 50 Z M 483.332031 416.667969 "/>
<path style=" stroke:none;fill-rule:nonzero;fill:rgb(0%,0%,0%);fill-opacity:1;" d="M 50.066406 400 L 449.933594 400 C 459.167969 400 466.667969 392.5 466.667969 383.265625 L 466.667969 358.332031 C 471.273438 358.332031 475 354.609375 475 350 C 475 345.390625 471.273438 341.667969 466.667969 341.667969 L 466.667969 333.332031 C 471.273438 333.332031 475 329.609375 475 325 C 475 320.390625 471.273438 316.667969 466.667969 316.667969 L 466.667969 150 C 471.273438 150 475 146.273438 475 141.667969 C 475 137.058594 471.273438 133.332031 466.667969 133.332031 L 466.667969 125 C 471.273438 125 475 121.273438 475 116.667969 C 475 112.058594 471.273438 108.332031 466.667969 108.332031 L 466.667969 83.398438 C 466.667969 74.167969 459.167969 66.667969 449.933594 66.667969 L 50.066406 66.667969 C 40.832031 66.667969 33.332031 74.167969 33.332031 83.398438 L 33.332031 383.265625 C 33.332031 392.5 40.832031 400 50.066406 400 Z M 50.066406 83.332031 L 450 83.398438 L 450 108.332031 L 441.667969 108.332031 C 437.058594 108.332031 433.332031 112.058594 433.332031 116.667969 C 433.332031 121.273438 437.058594 125 441.667969 125 L 449.992188 125 L 449.992188 133.332031 L 441.667969 133.332031 C 437.058594 133.332031 433.332031 137.058594 433.332031 141.667969 C 433.332031 146.273438 437.058594 150 441.667969 150 L 449.992188 150 L 449.964844 316.667969 L 441.667969 316.667969 C 437.058594 316.667969 433.332031 320.390625 433.332031 325 C 433.332031 329.609375 437.058594 333.332031 441.667969 333.332031 L 449.964844 333.332031 L 449.964844 341.667969 L 441.667969 341.667969 C 437.058594 341.667969 433.332031 345.390625 433.332031 350 C 433.332031 354.609375 437.058594 358.332031 441.667969 358.332031 L 449.964844 358.332031 L 449.964844 383.332031 C 449.964844 383.332031 449.957031 383.332031 449.941406 383.332031 L 50 383.265625 Z M 50.066406 83.332031 "/>
<path style=" stroke:none;fill-rule:nonzero;fill:rgb(0%,0%,0%);fill-opacity:1;" d="M 379.214844 162.875 C 379.140625 162.800781 379.125 162.699219 379.050781 162.617188 C 378.976562 162.535156 378.875 162.515625 378.800781 162.449219 C 360.699219 144.464844 335.800781 133.332031 308.332031 133.332031 C 280.867188 133.332031 255.964844 144.464844 237.875 162.449219 C 237.800781 162.523438 237.699219 162.542969 237.625 162.617188 C 237.550781 162.691406 237.523438 162.792969 237.457031 162.875 C 219.464844 180.964844 208.332031 205.867188 208.332031 233.332031 C 208.332031 260.800781 219.464844 285.699219 237.449219 303.792969 C 237.523438 303.867188 237.542969 303.964844 237.617188 304.050781 C 237.691406 304.132812 237.792969 304.148438 237.867188 304.214844 C 255.964844 322.199219 280.867188 333.332031 308.332031 333.332031 C 335.800781 333.332031 360.699219 322.199219 378.792969 304.214844 C 378.867188 304.140625 378.964844 304.125 379.042969 304.050781 C 379.117188 303.976562 379.140625 303.875 379.207031 303.792969 C 397.199219 285.699219 408.332031 260.800781 408.332031 233.332031 C 408.332031 205.867188 397.199219 180.964844 379.214844 162.875 Z M 383.332031 241.667969 L 391.242188 241.667969 C 389.574219 258.398438 382.925781 273.683594 372.816406 286.035156 L 367.257812 280.476562 C 364 277.214844 358.734375 277.214844 355.476562 280.476562 C 352.214844 283.734375 352.214844 289 355.476562 292.257812 L 361.035156 297.816406 C 348.683594 307.925781 333.398438 314.574219 316.667969 316.242188 L 316.667969 308.332031 C 316.667969 303.726562 312.941406 300 308.332031 300 C 303.726562 300 300 303.726562 300 308.332031 L 300 316.242188 C 283.265625 314.574219 267.984375 307.925781 255.632812 297.816406 L 261.191406 292.257812 C 264.449219 289 264.449219 283.734375 261.191406 280.476562 C 257.933594 277.214844 252.667969 277.214844 249.410156 280.476562 L 243.851562 286.035156 C 233.742188 273.683594 227.089844 258.398438 225.425781 241.667969 L 233.332031 241.667969 C 237.941406 241.667969 241.667969 237.941406 241.667969 233.332031 C 241.667969 228.726562 237.941406 225 233.332031 225 L 225.425781 225 C 227.089844 208.265625 233.742188 192.984375 243.851562 180.632812 L 249.410156 186.191406 C 251.035156 187.816406 253.167969 188.632812 255.300781 188.632812 C 257.433594 188.632812 259.566406 187.816406 261.191406 186.191406 C 264.449219 182.933594 264.449219 177.667969 261.191406 174.410156 L 255.632812 168.851562 C 267.984375 158.742188 283.265625 152.089844 300 150.425781 L 300 158.332031 C 300 162.941406 303.726562 166.667969 308.332031 166.667969 C 312.941406 166.667969 316.667969 162.941406 316.667969 158.332031 L 316.667969 150.425781 C 333.398438 152.089844 348.683594 158.742188 361.035156 168.851562 L 355.476562 174.410156 C 352.214844 177.667969 352.214844 182.933594 355.476562 186.191406 C 357.101562 187.816406 359.234375 188.632812 361.367188 188.632812 C 363.5 188.632812 365.632812 187.816406 367.257812 186.191406 L 372.816406 180.632812 C 382.925781 192.984375 389.574219 208.265625 391.242188 225 L 383.332031 225 C 378.726562 225 375 228.726562 375 233.332031 C 375 237.941406 378.726562 241.667969 383.332031 241.667969 Z M 383.332031 241.667969 "/>
<path style=" stroke:none;fill-rule:nonzero;fill:rgb(0%,0%,0%);fill-opacity:1;" d="M 308.332031 200 C 289.949219 200 275 214.949219 275 233.332031 C 275 251.714844 289.949219 266.667969 308.332031 266.667969 C 326.714844 266.667969 341.667969 251.714844 341.667969 233.332031 C 341.667969 214.949219 326.714844 200 308.332031 200 Z M 308.332031 250 C 299.140625 250 291.667969 242.523438 291.667969 233.332031 C 291.667969 224.140625 299.140625 216.667969 308.332031 216.667969 C 317.523438 216.667969 325 224.140625 325 233.332031 C 325 242.523438 317.523438 250 308.332031 250 Z M 308.332031 250 "/>
<path style=" stroke:none;fill-rule:nonzero;fill:rgb(0%,0%,0%);fill-opacity:1;" d="M 133.332031 150 C 128.726562 150 125 153.726562 125 158.332031 L 125 166.667969 C 120.390625 166.667969 116.667969 170.390625 116.667969 175 C 116.667969 179.609375 120.390625 183.332031 125 183.332031 L 125 300 C 120.390625 300 116.667969 303.726562 116.667969 308.332031 C 116.667969 312.941406 120.390625 316.667969 125 316.667969 L 125 325 C 125 329.609375 128.726562 333.332031 133.332031 333.332031 C 137.941406 333.332031 141.667969 329.609375 141.667969 325 L 141.667969 158.332031 C 141.667969 153.726562 137.941406 150 133.332031 150 Z M 133.332031 150 "/>
<path style=" stroke:none;fill-rule:nonzero;fill:rgb(0%,0%,0%);fill-opacity:1;" d="M 108.332031 175 C 108.332031 170.390625 104.609375 166.667969 100 166.667969 L 100 158.332031 C 100 153.726562 96.273438 150 91.667969 150 C 87.058594 150 83.332031 153.726562 83.332031 158.332031 L 83.332031 325 C 83.332031 329.609375 87.058594 333.332031 91.667969 333.332031 C 96.273438 333.332031 100 329.609375 100 325 L 100 316.667969 C 104.609375 316.667969 108.332031 312.941406 108.332031 308.332031 C 108.332031 303.726562 104.609375 300 100 300 L 100 183.332031 C 104.609375 183.332031 108.332031 179.609375 108.332031 175 Z M 108.332031 175 "/>
</g>
</svg>
