<?xml version="1.0" encoding="utf-8"?>
<!-- Generator: Adobe Illustrator 25.4.1, SVG Export Plug-In . SVG Version: 6.00 Build 0)  -->
<svg version="1.1" id="Calque_1" xmlns="http://www.w3.org/2000/svg" xmlns:xlink="http://www.w3.org/1999/xlink" x="0px" y="0px"
	 viewBox="0 0 648 648" style="enable-background:new 0 0 648 648;" xml:space="preserve">
<style type="text/css">
	.st0{fill:#00A23D;stroke:#013D3D;stroke-width:4.5;stroke-miterlimit:10;}
	.st1{fill:#FFC3AB;}
	.st2{fill:#00A23D;}
	.st3{fill:none;stroke:#013D3D;stroke-width:4.5;stroke-miterlimit:10;}
	.st4{fill:#F5EDF2;}
	.st5{opacity:0.7;}
	.st6{fill:#FFFFFF;}
	.st7{opacity:0.3;}
	.st8{fill:#013D3D;}
	.st9{fill:none;stroke:#000072;stroke-width:7.8335;stroke-linecap:round;stroke-linejoin:round;stroke-miterlimit:10;}
	.st10{opacity:0.29;fill:#FFFFFF;enable-background:new    ;}
	.st11{fill:url(#SVGID_1_);}
	.st12{fill:#DCE6EB;}
</style>
<g id="Calque_5">
</g>
<g id="Calque_3">
</g>
<g>
	<g id="Calque_2_00000124855205564310280240000017668088786747681461_">
		<g>
			<path class="st0" d="M589.4,407.2c0,7.9-3.6,27-36,32.9c-0.6,0.1-1.2,0.1-2,0.1c-4.6,0-9.8-2.4-13.8-4.8
				c-4.1-2.4-6.9-4.8-7.1-5.1c-0.6-0.6-0.9-1.5-0.8-2.2c0.2-0.9,0.9-1.5,1.8-1.7c0.8-0.1,1.3-0.3,2.1-0.3c-0.8-0.6-1.3-1.3-1.8-2.1
				c-9.6,3.6-25.8,6.3-39.9,8.1c-14.7,1.8-27.2,2.7-27.2,2.7l27.2-33l22.3-27c12-13.5,35.2,15.8,36.8,8.2c4.5-10.5,18-6.3,18.2-6.3
				C579.8,379,589.4,393.4,589.4,407.2z"/>
		</g>
		<g>
			<path class="st1" d="M562.4,376.5c4.8-1.2,12,4.5,16.8,9.4c5,4.9,17.7,28.1,2.1,37.9c-0.5-3.8,0.4-7.6,0.4-11.4
				c0.2-7.5-3-15-8.1-20.4c-5.2-5.4-12.5-8.7-20-9.4c-0.4-1.7-2.1-4.8,2.6-4.7"/>
		</g>
		<path class="st2" d="M589.4,407.2c0,7.9-3.6,27-36,32.9c-0.6,0.1-1.2,0.1-2,0.1c-4.6,0-9.8-2.4-13.8-4.8c-4.1-2.4-6.9-4.8-7.1-5.1
			c-0.6-0.6-0.9-1.5-0.8-2.2c0.2-0.9,0.9-1.5,1.8-1.7c0.8-0.1,1.3-0.3,2.1-0.3c-0.8-0.6-1.3-1.3-1.8-2.1c-9.6,3.6-25.8,6.3-39.9,8.1
			V402l22.3-27c12-13.5,35.2,15.8,36.8,8.2c4.5-10.5,18-6.3,18.2-6.3C579.8,379,589.4,393.4,589.4,407.2z"/>
		<path class="st3" d="M531.6,426.6c0.8-0.2,1.3-0.2,2.1-0.3c-0.8-0.6-1.3-1.4-1.8-2.1c-19.5,7.5-67.1,10.8-67.1,10.8l49.5-60
			c12-13.5,35.2,15.8,36.8,8.2c4.5-10.5,18-6.3,18.2-6.3c10.7,1.9,20.2,16.3,20.2,30.1c0,8-3.6,27-36,32.9c-0.6,0.2-1.3,0.2-2,0.2
			l0,0c-9.3,0-20.4-9.3-20.8-9.8c-0.6-0.6-0.9-1.5-0.8-2.2S530.7,426.7,531.6,426.6z"/>
		<g>
			<g>
				<path class="st1" d="M476.7,433c19.4-0.4,38.4-3.8,56.8-9.6c2.7-0.9,1.5-5.2-1.2-4.4c-18,5.9-36.8,9-55.7,9.4
					C473.9,428.7,473.9,433.2,476.7,433L476.7,433z"/>
			</g>
		</g>
		<g>
			<g>
				<path class="st1" d="M483.6,429.1c3.9-6.4,12.4-6.8,19.1-6.8c8.4,0.1,16.6,0.3,25.1,0.4c-0.2-1.5-0.5-3-0.6-4.4
					c-11.7,4.4-24,6.3-36.5,5.7c0.2,1.5,0.4,3,0.6,4.4c7.5-1.4,15-2.7,22.6-2.7c2.8,0,2.8-4.5,0-4.5c-9.6,0-19.3,1.2-28.5,4.2
					c0.6,1.3,1.2,2.7,1.8,4.1c3.4-2.1,7.2-3.2,11.2-3.2c2.9,0,2.9-4.5,0-4.5c-4.8-0.1-9.4,1.2-13.5,3.8c-2.1,1.4-0.8,4.9,1.8,4.1
					c8.9-2.8,18-3.9,27.3-4.1c0-1.5,0-3,0-4.5c-8.1,0-15.9,1.5-23.9,2.9c-2.6,0.4-1.8,4.3,0.6,4.3c12.8,0.6,25.6-1.3,37.6-5.8
					c2.2-0.9,2.1-4.4-0.6-4.4c-9.3-0.1-18.6-0.4-27.9-0.4c-7.7,0.2-15.9,1.9-20.2,8.9C478.1,429.3,482,431.5,483.6,429.1
					L483.6,429.1z"/>
			</g>
		</g>
	</g>
	<g>
		<g>
			<g>
				<g>
					<g>
						<g>
							<g>
								<g>
									<g>
										<g>
											<path class="st2" d="M585.2,219.4c-2.8-93.6-64-110.6-64-110.6c-37.5-48-101.1-19-102.2-18.6l0,0l0,0
												c-44.2-24.2-69.6,19-69.6,19l0,0c-62.1,15.8-78.4,55.1-75.3,80.1c1.5,11.7,7,20.2,14.4,22c0.3,0.2,0.6,0.2,0.9,0.2
												c-6.5,4.7-10.6,17.6-12,22.3c0,0,4.2,8.7,13.5,20.7c11.5,15.2,31,35.6,59.9,51l-0.3-0.2c-2.6-1-18.6-6.9-42.8-8
												c-28.5-1.2-68.4,4.7-111.2,33.5c-6,4-13,6.3-20.2,6.5c-24.3,0.9-78.9-1.2-113.9-33.9c0,0,2.1,67.5,60,114.6
												c25.5,20.7,61.8,37.5,113.5,42.8h1.2c3.3,6.2,8.2,11.7,15.6,15.8c0,0-12.9,47.7,27.3,64.1c-3-13.2,10.4-22.5,10.4-22.5
												c9.1,0.3,15.1,4.2,18.9,9.4c0,0,5.9-16.8,21.2-19.9c3-0.6,6.1,0.2,9.1,2.1c0,0,1.5-2.2,4.2-4.5c1.9-1.8,4.7-3.6,7.8-4.8
												l-0.6-1.8c-4.9-4.5-9.8-5.7-13.9-5.9c-5.5-0.1-9.8,1.5-11.7,0c-3.3-2.6-7.5-11.1-7.5-11.1c3-3,5.9-5.9,8.4-8.7
												c17.4,2.4,33.6,2.4,48.5,0.6c27.4-3.1,50.8-12.3,70.5-24.3c7.1-4.3,13.6-9,19.8-13.9c4.8-3.8,9.1-7.8,13.3-11.7
												c4.4-4.2,8.6-8.6,12.3-12.9c10.1-11.3,18.2-22.7,24.5-32.7c1-1.6,1.9-3.1,2.8-4.8c10.2-16.9,14.8-29.1,14.8-29.1
												S588,313,585.2,219.4z M361.7,266.5c-9.5-15-10.7-30-10.8-32.2c0-0.2,0-0.3,0-0.3c2.1,1.1,4.2,2.1,6.6,3.3
												c0.2,0.2,0.4,0.2,0.6,0.3c0.3,0.2,0.8,0.3,1.1,0.6c1.2,0.6,2.4,1.2,3.8,1.8c0.4,0.3,1.1,0.4,1.5,0.8
												c0.1,0,0.3,0.2,0.4,0.2c1.8,0.9,3.4,1.7,5.2,2.4h0.1c2.9,1.2,5.7,2.4,8.6,3.4C374.1,261,361.7,266.5,361.7,266.5z
												 M390.5,433.5C390.5,433.6,390.5,433.6,390.5,433.5c-0.8,3.2-3,9.6-10.9,12.2c-0.3-0.3-0.8-0.4-1.1-0.8l0,0
												c-7.6-6.6-2.6-18.2-1.6-19.8v-0.2l0,0l0,0l0,0c0.4,0.3,6.4,5.2,10.5,6.8c1.3,0.6,2.6,0.8,3.1,0.3
												C390.6,432,390.6,432.6,390.5,433.5z M425.7,276.3c-11.1-11.7-12.4-21.2-12.4-21.2c0.3,0,0.6,0.2,0.9,0.2
												c10.1,1.3,18.9,1.5,25.5,1.2C437.4,267.1,425.7,276.3,425.7,276.3z"/>
										</g>
									</g>
								</g>
							</g>
							<g>
								<g>
									<g>
										<path class="st2" d="M450.5,477c-2.7,2.4-4.1,5.2-4.6,6.8c-1.2-0.1-1.9-0.1-1.9-0.1c-10.4,6.9-14.1,17.1-14.1,17.1l0,0
											c-13.6,0.9-16.2,17-16.2,17c-38.8-5.4-38.6-44-38.6-44l0,0c27.4-3.1,50.9-12.3,70.5-24.3c0,0-1.3,8.7-5.2,16.5
											C440.3,465.6,449,469,450.5,477z"/>
									</g>
								</g>
							</g>
						</g>
						<g>
							<g>
								<g>
									<g>
										<path class="st4" d="M390.6,432c0,0-0.8,10.4-11.1,13.8c-9.9-7.1-2.7-20.8-2.7-20.8S387.8,433.9,390.6,432z"/>
									</g>
								</g>
							</g>
							<g>
								<g>
									<g>
										<g>
											<g>
												<path class="st4" d="M304.8,565c-7.2-12.3-17.5-6.3-23.7-21.2c-0.4-1-0.8-2.2-1-3.3c-3-13.2,10.4-22.5,10.4-22.5
													c9.1,0.3,15.1,4.2,18.9,9.4c2.1,3,3.5,6.5,4.2,10.2C316.8,553.8,309.2,572.5,304.8,565z"/>
											</g>
										</g>
									</g>
									<g>
										<g>
											<g>
												<path class="st4" d="M350.1,560.7c0,0-9.6-23.7-36.6-22.9c-0.8-3.6-2.1-7.2-4.2-10.2c0,0,5.9-16.8,21.2-19.9
													c3-0.6,6.1,0.2,9.1,2.1c7.2,4.3,14,14.7,15.9,25.9C357.2,544.2,355.8,553.2,350.1,560.7z"/>
											</g>
										</g>
									</g>
									<g>
										<g>
											<g>
												<path class="st4" d="M386,523.9c0,0-21.9-2.1-30.4,11.7c-1.9-11.2-8.7-21.5-15.9-26c0,0,4.7-6.8,12-9.3
													c1.4-0.4,2.9-0.9,4.5-1.1C366.2,498.6,385.2,514.2,386,523.9z"/>
											</g>
										</g>
									</g>
									<g>
										<g>
											<g>
												<path class="st4" d="M490.4,517.5c0,0-15.8-6.5-24.2-4.8c-7.5,1.5-12.9-2.7-13.9-3.6l-0.1,0.1c-3-2.6-6.9-4.9-11.9-6.8
													c-4.1-1.5-7.5-2.1-10.5-1.8l0,0c0,0,3.9-10.1,14.1-17.1c0,0,0.8,0,1.9,0.1c5.6,0.8,21.9,3.6,33.6,15
													C484.2,503.4,488.3,509.5,490.4,517.5z"/>
											</g>
										</g>
									</g>
									<g>
										<g>
											<g>
												<path class="st4" d="M497.7,496.6l-17.6,2.8l-0.8-0.8c-11.7-11.6-28.1-14.4-33.6-15c0.6-1.5,1.9-4.3,4.6-6.8
													c3.2-2.8,8.1-4.9,15.8-3.4C483,477,497.7,496.6,497.7,496.6z"/>
											</g>
										</g>
									</g>
									<g>
										<g>
											<g>
												<path class="st4" d="M462.3,529.5c0,0-12.8-6.9-20.1-7.2c-14.6-0.4-28.7-4.8-28.7-4.8s2.6-16.1,16.2-17
													c3-0.1,6.4,0.3,10.5,1.8c4.9,1.9,8.9,4.2,11.9,6.8C462.8,518.2,462.3,529.5,462.3,529.5z"/>
											</g>
										</g>
									</g>
								</g>
							</g>
						</g>
						<g>
							<g>
								<g>
									<path class="st4" d="M490.4,517.5c0,0-15.8-6.5-24.2-4.8c-7.5,1.5-12.9-2.7-13.9-3.6l-0.1,0.1c-3-2.6-6.9-4.9-11.9-6.8
										c-4.1-1.5-7.5-2.1-10.5-1.8l0,0c0,0,3.9-10.1,14.1-17.1c0,0,0.8,0,1.9,0.1c5.6,0.8,21.9,3.6,33.6,15
										C484.2,503.4,488.3,509.5,490.4,517.5z"/>
								</g>
							</g>
						</g>
						<g>
							<g>
								<g>
									<g>
										<path class="st1" d="M237.2,460.9H236c-51.8-5.2-88.1-22.1-113.6-42.8c20,8.4,58.2,19.7,109.2,11.2
											C231.8,429.6,230.4,447.7,237.2,460.9z"/>
									</g>
								</g>
							</g>
							<g>
								<g>
									<g>
										<path class="st1" d="M518.6,373c-0.9,1.5-1.9,3.1-2.8,4.8c-8.7,13.9-20.9,30.3-36.9,45.6c-4.2,4.1-8.7,7.9-13.3,11.7
											c-6.2,4.9-12.8,9.6-19.8,13.9c-19.7,12-43.1,21.1-70.5,24.3c-15,1.6-31.1,1.6-48.5-0.6c0,0,33-30.9,20.5-70.7
											c0,0,13.8-0.1,21.4-8.8c0,0,11.2,16.4,19.7,20.6c8.1,4.2,2.8,18.6,2.4,19.7l0,0l-3-1.9l-10.5-6.8l0,0l0,0l0,0v0.1
											c-0.8,1.8-5.2,13.2,1.7,19.8l0,0c3,2.9,8.1,4.8,16.6,4.8c30-0.3,48.3-15.3,36.9-56.4c0,0-2.4-27.1-9.9-37.5
											c0,0,44.6-46.3,77.9-29.1C513.5,333.6,518,352.6,518.6,373z"/>
									</g>
								</g>
							</g>
						</g>
						<g>
							<g>
								<g>
									<path class="st1" d="M350.7,303.6l-0.3-0.1c-2.6-1-18.6-6.9-42.8-8c-28.5-1.2-68.4,4.7-111.2,33.5c-6,4-13,6.3-20.2,6.4
										c-24.3,0.9-78.9-1.2-113.9-33.9c0,0,14.1,44.7,115,44.2c11.8,0,23.4-3.4,33.3-9.8c2.4-1.5,5.1-3.1,8.2-4.8
										c1.3-0.8,2.8-0.9,4.3-0.6c6.8,1.3,20.1-0.5,34.8-4.8c16.5-4.9,29.7-11.8,33.2-16.9c1-1.5,2.7-2.4,4.5-2.7
										C312,303.7,330.3,302.7,350.7,303.6z"/>
								</g>
							</g>
						</g>
						<g class="st5">
							<g>
								<g>
									<path class="st1" d="M326.4,374.7c0,0,32.9,48.4-8.4,106.9C318,481.6,385.4,421.2,326.4,374.7z"/>
								</g>
							</g>
						</g>
						<g class="st5">
							<g>
								<g>
									<path class="st6" d="M396.8,449.5c-0.8-1.2-1.6-2.4-2.4-3.8c2.1,0,4.3,0,6.6-0.1l3.6-0.3l3.4-0.4c1.2-0.2,2.2-0.4,3.3-0.8
										s2.1-0.8,3.3-1.1c2.1-0.9,4.1-1.8,5.8-3.2c0.9-0.6,1.7-1.3,2.6-1.9c0.4-0.3,0.8-0.8,1.2-1.2c0.3-0.4,0.8-0.8,1.1-1.2
										c2.7-3.3,4.4-7.5,5.2-12c0.9-4.5,1.1-9.3,0.6-13.9c-0.2-2.4-0.6-4.8-1.1-7.1c-0.3-1.2-0.4-2.4-0.8-3.4
										c-0.3-1.2-0.6-2.4-0.9-3.3c-0.1-0.3-0.1-0.6-0.1-0.9v-0.3c0-1.2-0.2-2.4-0.2-3.6s0-2.4-0.3-3.6l-0.4-3.4
										c-0.1-1.2-0.4-2.2-0.6-3.4c-0.3-2.4-1.1-4.6-1.7-6.9c-0.3-1.2-0.8-2.2-1.1-3.4c-0.1-0.6-0.3-1.2-0.6-1.7l-0.6-1.6
										c-1.6-4.5-3.8-8.9-6.1-13.1c-0.3-0.4-0.6-1.1-0.9-1.5c1.1-0.6,1.9-1.4,3-1.9c13.7,19.5,13.4,43.2,13.4,43.2
										C444.6,443.5,415.5,450.1,396.8,449.5z"/>
								</g>
							</g>
						</g>
						<g>
							<g>
								<g>
									<path class="st1" d="M533.4,343.9c83.6-150.3,5-209.6-18.8-223.2c-3.7-2.2-7.2-5.1-9.9-8.6c-24.3-30.1-84.6-22-85.8-21.9
										l0,0l0,0c1.1-0.5,64.7-29.4,102.2,18.6c0,0,61.2,17.1,64,110.6C588,313,533.4,343.9,533.4,343.9z"/>
								</g>
							</g>
						</g>
						<g>
							<g>
								<g class="st7">
									<g>
										<g>
											<path class="st8" d="M399,469c-7.6,1.9-15.6,3.4-24,4.5l0,0c0,0-0.3,38.7,38.6,44c0,0,2.4-14.7,14.6-16.8
												C408.6,495,401.6,479.5,399,469z"/>
										</g>
									</g>
								</g>
								<g>
									<g class="st7">
										<g>
											<g>
												<path class="st8" d="M339.6,509.8c-3-1.8-6.1-2.7-9.1-2.1c-15.3,3.2-21.2,19.9-21.2,19.9c-3.6-5.4-9.6-9.2-18.9-9.4
													c0,0-13.4,9.3-10.4,22.5c-40.2-16.2-27.3-64.1-27.3-64.1c-7.5-4.1-12.4-9.6-15.6-15.8H236
													c-51.8-5.2-88.1-22.1-113.6-42.8c-57.9-47.1-60-114.6-60-114.6s17.7,99.9,143.9,130.7c5.7,1.4,11.7-1.1,14.7-6.1
													c3.8-6.2,9.2-13.7,14.1-15.6c0,0,1.7,39.9,23.9,55.5c5.2,3.8,8.1,9.9,7.3,16.4c-0.8,6.8-0.5,15.3,3.9,23.2
													c2.2,3.9,7.5,4.8,10.8,1.6c1.5-1.3,3.1-2.8,5-3.9c3-1.9,9.1,1.3,13.6,4.6c3.2,2.3,7.4,1.5,9.6-1.6
													c3.6-4.9,10.3-10.5,20.8-8.4C330.3,500.2,340.4,502.8,339.6,509.8z"/>
											</g>
										</g>
									</g>
									<g class="st7">
										<g>
											<g>
												<path class="st8" d="M491.1,410.5c-3.9,4.4-7.9,8.6-12.3,12.9c-4.2,4.1-8.7,7.9-13.4,11.7c-6.1,4.9-12.8,9.6-19.8,13.9
													c-19.6,12-43.1,21.1-70.5,24.3c-15,1.6-31.1,1.6-48.5-0.6c0,0,52.5-53.1,0-98.2c1,0.4,39.1,16.5,33.5,67.5
													C356.1,477.4,438.6,452.7,491.1,410.5z"/>
											</g>
										</g>
									</g>
									<g class="st7">
										<g>
											<g>
												<path class="st8" d="M369,349.6c0,0-24.9,42.4,5.4,63c0,0,1.1,2.1-1.9,6.6c-2.9,4.5-5.2,24.6,10.1,28.4
													c0,0,18.9-13.8,8.1-31.4c0,0-5.2-6.1-9.9-7.3C376.2,407.7,354,381.9,369,349.6z"/>
											</g>
										</g>
									</g>
									<g class="st7">
										<g>
											<g>
												<path class="st8" d="M399.8,338.4c-30-1.1-64.7-10.3-92-40.8c24.2,0.9,40.2,6.9,42.8,8l0.1,0.1h0.2
													c0,0,28.4,13.5,41.6,16.1l9.3,2.2C410.3,326.1,408.5,338.7,399.8,338.4z"/>
											</g>
										</g>
									</g>
									<g class="st7">
										<g>
											<g>
												<path class="st8" d="M471.5,252.3c-11.7,0.9-21.3,1.2-27.1,1.3c-21.8-3.9-76.2-15.5-101.3-34.8
													c-31.6-24.4-57.3-12.6-57.9-29.2c-0.8-16.8-5.4-52.2,78.4-83.3l-14.2,3.2c-62.1,15.8-78.5,55.1-75.3,80.1
													c1.5,11.7,7,20.2,14.4,22.1l0.9,0.2c-6.5,4.7-10.7,17.5-12,22.3c0,0,4.2,8.7,13.5,20.7c0-9.2,2.1-18.9,10.5-20.7
													c12.9-3,29.5,7.3,35.9,11.7c1.6,1.1,2.8,2.6,3.9,4.2c2.9,5.1,9.8,17.2,15.3,23.4c1.8,2,4.5,2.7,7.1,1.8
													c4.1-1.4,10.3-4.5,15.8-11.1c2.4-3,6.4-4.2,10.2-3.1c4.2,1.2,9.6,2.8,14.2,3.9c2.2,0.6,4.3,2,5.7,3.9
													c2.6,3.8,6.6,11.8,12.6,16.3c1.8,1.4,4.2,1.5,6.2,0.6c3.4-1.8,9.4-5.6,15-12.9c4.1-5.4,9.9-9.1,16.5-10.3
													c4.5-0.9,9-1.8,13.3-3C477,258.4,476,252,471.5,252.3z M289.5,211.6c0.1,0,0.1,0,0.3,0
													C289.7,211.6,289.5,211.6,289.5,211.6z"/>
											</g>
										</g>
									</g>
									<g class="st7">
										<g>
											<g>
												<circle class="st8" cx="306.5" cy="151.3" r="7.5"/>
											</g>
										</g>
									</g>
									<g class="st7">
										<g>
											<g>
												<circle class="st8" cx="390" cy="168.6" r="8.1"/>
											</g>
										</g>
									</g>
									<g class="st7">
										<g>
											<g>
												<path class="st8" d="M445.7,169.8c0,0,34.2-15.2,47.1,10.4c0,0-0.6-27.2-19.2-27.2C455,153,445.7,169.8,445.7,169.8z"/>
											</g>
										</g>
									</g>
								</g>
							</g>
							<g>
								<g class="st7">
									<g>
										<g>
											<path class="st8" d="M290.7,539.7c-0.5-1-0.8-2.2-1.1-3.3c-1.6-7.5,2-13.8,5.4-17.7c-1.4-0.3-2.9-0.4-4.5-0.4
												c0,0-13.4,9.3-10.4,22.5c0.3,1,0.6,2.1,1.1,3.3c6.3,14.8,16.5,8.8,23.7,21.2c2.4,4.2,5.9,0.3,7.8-6.8
												C305.6,549.3,296.4,553.3,290.7,539.7z"/>
										</g>
									</g>
								</g>
								<g class="st7">
									<g>
										<g>
											<path class="st8" d="M318.8,523.6c-0.8-1.8-1.5-3.4-2.5-4.9c0,0,0.8-2,2.2-4.7c-6.5,6-9.2,13.5-9.2,13.5
												c2.1,3,3.5,6.5,4.2,10.2c27-0.8,36.6,22.9,36.6,22.9c2.9-3.6,4.5-7.7,5.4-11.8c-3.3-5.7-12.3-18.2-29.9-19.8
												C322.5,528.7,320,526.6,318.8,523.6z"/>
										</g>
									</g>
								</g>
								<g>
									<g class="st7">
										<g>
											<g>
												<path class="st8" d="M348.3,505.3c0,0,1.8-2.7,5.1-5.4c-0.6,0.2-1.2,0.3-1.8,0.4c-7.5,2.7-12,9.3-12,9.3
													c7.2,4.3,14,14.7,15.9,26c2.1-3.3,4.9-5.7,7.9-7.5C361.1,518.2,354.9,509.2,348.3,505.3z"/>
											</g>
										</g>
									</g>
								</g>
								<g class="st7">
									<g>
										<g>
											<path class="st8" d="M456.8,517.3c-14.6-0.5-28.6-4.8-28.6-4.8s1.1-6.7,5.6-11.7c-1.4-0.2-2.7-0.3-4.1-0.2
												c-13.7,0.9-16.2,17-16.2,17s14.1,4.3,28.6,4.8c7.5,0.3,20.1,7.2,20.1,7.2s0.1-5.6-3.3-12
												C458.3,517.5,457.5,517.3,456.8,517.3z"/>
										</g>
									</g>
								</g>
								<g class="st7">
									<g>
										<g>
											<path class="st8" d="M470.4,504c-7.5,1.5-12.9-2.7-13.9-3.6l-0.2,0.1c-3-2.6-6.9-4.9-11.8-6.8c-3.6-1.3-6.6-1.9-9.3-1.9
												c-3.8,4.8-5.2,8.7-5.2,8.7l0,0c3-0.1,6.4,0.3,10.5,1.8c4.9,1.9,8.8,4.2,11.8,6.8l0.2-0.1c1.1,0.9,6.4,5.1,13.9,3.6
												c8.4-1.6,24.1,4.8,24.1,4.8c-1.2-4.7-3.1-8.6-5.4-12C480.2,504.3,474.3,503.1,470.4,504z"/>
										</g>
									</g>
								</g>
								<g class="st7">
									<g>
										<g>
											<path class="st8" d="M485.1,492.3l-2.6,0.2c-11.1-10.9-26.4-14.1-32.7-15c-2.2,2.2-3.6,4.8-4.1,6.3
												c5.6,0.8,21.9,3.6,33.6,15l0.8,0.8l17.6-2.9c0,0-1.6-2.2-4.6-5.4L485.1,492.3z"/>
										</g>
									</g>
								</g>
							</g>
						</g>
						<g>
							<g>
								<g>
									<g>
										<g>
											<g>
												<path class="st6" d="M289.4,211.6c-6.4,4.7-10.6,17.6-12,22.3c-0.3,1.1-0.4,1.7-0.4,1.7c-13.5-18.3-2.9-46.2-2.9-46.2
													C275.6,201.6,281.7,210.4,289.4,211.6z"/>
											</g>
										</g>
									</g>
									<g>
										<g>
											<g>
												<path class="st6" d="M378.6,246.7c-4.7,14.3-16.9,19.8-16.9,19.8c-10.2-16.1-10.8-32-10.8-32.6c4.2,2.1,8.7,4.3,14,6.9
													C369.5,243.1,374.1,244.9,378.6,246.7z"/>
											</g>
										</g>
									</g>
									<g>
										<g>
											<g>
												<path class="st6" d="M439.7,256.5c-2.1,10.6-13.9,19.8-13.9,19.8c-11.1-11.7-12.4-21.2-12.4-21.2
													C423.6,256.5,432.8,256.8,439.7,256.5z"/>
											</g>
										</g>
									</g>
								</g>
								<g>
									<g>
										<g class="st7">
											<g>
												<g>
													<path class="st8" d="M281.7,207.4c-4.7,4.7-8,13.5-9.6,18.6c1,3.3,2.5,6.6,4.8,9.6c0,0,0.2-0.6,0.5-1.7
														c1.4-4.7,5.5-17.7,12-22.3C286.5,211.2,284,209.7,281.7,207.4z"/>
												</g>
											</g>
										</g>
									</g>
									<g class="st7">
										<g>
											<g>
												<path class="st8" d="M370.5,243.4c-3.3,8.2-9.3,13.2-12.9,15.7c1.2,2.4,2.6,5,4.1,7.4c0,0,12.4-5.5,16.9-19.8
													C375.9,245.7,373.2,244.6,370.5,243.4z"/>
											</g>
										</g>
									</g>
									<g class="st7">
										<g>
											<g>
												<path class="st8" d="M431.4,256.5c-2.1,6.1-7.1,11.5-10.2,14.5c1.2,1.6,2.7,3.5,4.3,5.2c0,0,11.7-9.2,13.9-19.8
													C437.1,256.6,434.4,256.6,431.4,256.5z"/>
											</g>
										</g>
									</g>
								</g>
							</g>
							<g>
								<g class="st5">
									<g>
										<g>
											<path class="st6" d="M313.4,537.7c-0.8-3.6-2.1-7.2-4.2-10.2c-3.6-5.4-9.6-9.2-18.9-9.4c0,0-1.8,1.2-3.9,3.4
												c7.8,0.9,13.2,4.5,16.5,9.3c2.1,3,3.4,6.4,4.2,10.2c1.8,9,0.3,18.8-2.1,24.3C309.5,571.9,316.7,553.5,313.4,537.7z"/>
										</g>
									</g>
								</g>
								<g class="st5">
									<g>
										<g>
											<path class="st6" d="M355.5,535.6c-1.9-11.2-8.7-21.4-15.9-25.9c-3-1.8-6.1-2.7-9.1-2.1c-5.9,1.2-10.4,4.4-13.7,7.8
												c2.1-1.2,4.7-2.2,7.4-2.8c3-0.6,6.1,0.2,9.1,2.1c7.2,4.3,13.9,14.7,15.9,26c0.9,5.5,0.8,11.2-1.1,16.5
												c1.2,2.1,1.8,3.4,1.8,3.4C355.8,553.2,357.2,544.2,355.5,535.6z"/>
										</g>
									</g>
								</g>
								<g class="st5">
									<g>
										<g>
											<path class="st6" d="M356.1,499.5c-1.7,0.2-3.2,0.4-4.5,1.1c-7.5,2.7-12,9.3-12,9.3c0.3,0.2,0.8,0.4,1.1,0.6
												c1.8-1.5,4.2-3,6.8-3.9c1.4-0.4,2.9-0.9,4.5-1.1c8.1-0.8,22.1,9.3,27.5,18.3c3.9-0.3,6.4,0,6.4,0
												C385.2,514.2,366.2,498.6,356.1,499.5z"/>
										</g>
									</g>
								</g>
								<g class="st5">
									<g>
										<g>
											<path class="st6" d="M452.1,509.2c-3-2.6-6.9-4.9-11.9-6.8c-4.1-1.5-7.5-2.1-10.5-1.8c-8.2,0.6-12.4,6.8-14.6,11.4
												c2.4-2.7,5.9-4.9,10.7-5.4c3-0.1,6.4,0.3,10.5,1.8c4.9,1.9,8.8,4.2,11.8,6.8c4.4,3.8,6.9,7.8,8.4,11.4
												c3.3,1.5,5.7,2.9,5.7,2.9S462.8,518.2,452.1,509.2z"/>
										</g>
									</g>
								</g>
								<g class="st5">
									<g>
										<g>
											<path class="st6" d="M440.1,489.6c0,0,0.8,0,1.9,0.1c5.6,0.8,21.9,3.6,33.6,15c2.9,2.9,5.6,6.2,7.7,10.2
												c4.2,1.2,7.2,2.6,7.2,2.6c-2.2-8-6.3-14.1-10.9-18.8c-11.7-11.6-28.1-14.4-33.6-15c-1.2-0.1-1.9-0.1-1.9-0.1
												c-7.8,5.2-11.8,12.3-13.3,15.4C432.8,495.9,435.9,492.4,440.1,489.6z"/>
										</g>
									</g>
								</g>
								<g class="st5">
									<g>
										<g>
											<path class="st6" d="M447.5,482.4c3.2-2.9,8.1-4.9,15.8-3.4c11.7,2.4,22.4,12.8,27.8,18.8l6.8-1.1
												c0,0-14.7-19.7-31.5-23.1c-7.6-1.6-12.6,0.6-15.8,3.4c-2.7,2.4-4.1,5.2-4.6,6.8c0.1,0,0.1,0,0.3,0
												C446.6,483.3,447,482.8,447.5,482.4z"/>
										</g>
									</g>
								</g>
							</g>
						</g>
						<g>
							<g>
								<g>
									<g>
										<circle class="st1" cx="261.8" cy="354" r="18.8"/>
									</g>
								</g>
							</g>
							<g>
								<g>
									<g>
										<ellipse class="st1" cx="530.2" cy="233.9" rx="18.8" ry="18.8"/>
									</g>
								</g>
							</g>
							<g>
								<g>
									<g>
										<ellipse class="st1" cx="292.3" cy="340.6" rx="10.3" ry="10.3"/>
									</g>
								</g>
							</g>
							<g>
								<g>
									<g>
										<circle class="st1" cx="540.6" cy="196.2" r="10.3"/>
									</g>
								</g>
							</g>
							<g>
								<g>
									<g>
										<circle class="st1" cx="143.1" cy="364.3" r="10.3"/>
									</g>
								</g>
							</g>
							<g>
								<g>
									<g>
										<ellipse class="st1" cx="292.4" cy="366" rx="6.9" ry="6.9"/>
									</g>
								</g>
							</g>
							<g>
								<g>
									<g>
										<ellipse class="st1" cx="318" cy="454.5" rx="6.9" ry="6.9"/>
									</g>
								</g>
							</g>
							<g>
								<g>
									<g>
										<circle class="st1" cx="227.7" cy="345.3" r="4.3"/>
									</g>
								</g>
							</g>
							<g>
								<g>
									<g>
										<circle class="st1" cx="157.8" cy="372.9" r="4.3"/>
									</g>
								</g>
							</g>
							<g>
								<g>
									<g>
										<circle class="st1" cx="312.6" cy="469" r="4.3"/>
									</g>
								</g>
							</g>
							<g>
								<g>
									<g>
										<circle class="st1" cx="408.8" cy="368.5" r="4.3"/>
									</g>
								</g>
							</g>
							<g>
								<g>
									<g>
										<circle class="st1" cx="326.4" cy="266.4" r="4.3"/>
									</g>
								</g>
							</g>
						</g>
					</g>
					<g>
						<g>
							<g>
								<g>
									<g>
										<path class="st8" d="M453.6,256c-3.4,1.3-6.9,2.1-10.5,2.8c-1.8,0.3-3.6,0.5-5.4,0.8c-1.8,0.2-3.6,0.3-5.4,0.5
											c-7.2,0.3-14.4-0.3-21.4-1.2l-5.4-0.8c-1.8-0.3-3.6-0.8-5.2-1l-2.7-0.5c-0.9-0.1-1.8-0.4-2.7-0.6l-5.2-1.3
											c-1.8-0.5-3.4-1.1-5.2-1.5l-2.6-0.8c-0.9-0.3-1.6-0.6-2.6-0.9l-5.1-1.8l-2.6-0.9l-2.6-1c-3.3-1.5-6.6-2.8-9.8-4.3
											c-3.2-1.5-6.3-3-9.6-4.7c-6.3-3.2-12.6-6.5-18.9-9.6c-6.1-3.3-12.3-6.6-18.4-8.8c-3-1.1-6.2-2.1-9.3-2.6
											c-3.1-0.4-6.4-0.8-9.9-0.9l-2.5-0.2c-0.6,0-1.2,0-1.8-0.2c-0.6-0.2-1.2-0.2-1.8-0.3c-2.4-0.6-4.5-1.7-6.3-3
											c-3.6-2.7-6-6.3-7.8-10.1c-3.5-7.3-4.2-15.2-3.8-22.8c0.4-7.7,2.4-15,5.5-21.9c3-6.9,7.2-13.2,12.1-18.8
											c9.9-11.1,22.5-19.2,35.7-25c6.6-2.9,13.5-5.3,20.4-7.2c1.6-0.5,3.4-0.9,5.2-1.3s3.4-0.8,5.2-0.9c1.8-0.1,3.6-0.3,5.4-0.1
											c1.8,0.1,3.8,0.3,5.6,0.9c0.3,0,0.4,0.3,0.3,0.6c0,0.1-0.2,0.1-0.2,0.3l0,0c-1.6,1.2-3.1,2-4.8,2.7
											c-1.6,0.8-3.3,1.5-4.9,2c-3.3,1.2-6.6,2-9.9,3c-6.6,2-13,4.4-19.2,7.2c-12.3,5.7-23.9,13.5-32.4,23.6
											c-4.3,5.1-8,10.7-10.5,16.7s-4.2,12.5-4.6,18.9c-0.3,6.4,0.4,12.9,3.1,18.3c1.2,2.7,3,5.1,5,6.5c1,0.8,2,1.2,3,1.5
											c0.3,0,0.5,0.2,0.8,0.2h0.9l2.7,0.2c3.6,0.2,7.4,0.4,11.1,1s7.5,1.7,10.9,3c7.1,2.7,13.2,6.2,19.5,9.5
											c6.2,3.3,12.4,6.6,18.6,9.8c3.2,1.7,6.3,3.2,9.3,4.7c3.2,1.7,6.3,3,9.3,4.3l2.4,1l2.4,0.9l4.8,1.8
											c0.8,0.3,1.7,0.6,2.4,0.9l2.4,0.8c1.7,0.4,3.3,1,4.9,1.5l4.9,1.3c0.9,0.2,1.7,0.4,2.6,0.6l2.6,0.6c1.7,0.3,3.3,0.8,5.1,1
											l5.1,0.8c13.7,2,27.3,2.6,41.2,3.3l0,0c0.4,0,0.9,0.4,0.9,1C454.2,255.7,454.1,256,453.6,256z"/>
									</g>
								</g>
							</g>
							<g>
								<g>
									<g>
										<path class="st8" d="M353.7,478.6c-9.4,0-19.1-0.6-28.8-1.9l1-7.8c61.2,8.4,114.2-10.1,157.1-55.2
											c32.3-33.9,46.5-70.8,46.6-71.1c0.3-0.9,0.9-1.5,1.8-1.9c0.2,0,13.3-7.8,25.9-26.4c11.7-17.2,25.4-47.5,23.9-94.5
											c-1.2-37-12.2-67.2-31.7-87.5c-14.7-15.1-29.4-19.5-29.6-19.5c-0.8-0.3-1.5-0.8-1.9-1.4c-14.7-18.9-35.6-27.6-61.7-25.9
											c-19.9,1.4-35.6,8.4-35.7,8.5c-1.1,0.5-2.4,0.5-3.4-0.1C377,72,354,109.8,353,111.4l-6.8-3.9c0.3-0.5,27.2-45,73.1-21.5
											c4.9-2,19.1-7.2,36.4-8.4c28.2-2,51.6,7.8,67.8,27.9c4.2,1.4,17.7,6.8,31.4,20.9c14.7,15,32.7,43.3,34.2,93
											c1.5,49.4-13,81.5-25.5,99.6c-11.5,16.8-23.2,25.2-27,27.6c-2.8,6.9-17.4,40.5-47.6,72.3c-19.6,20.6-41.7,36.1-65.7,46.2
											C401.4,474.1,378.2,478.6,353.7,478.6z"/>
									</g>
								</g>
							</g>
							<g>
								<g>
									<g>
										<path class="st8" d="M276.9,239.5c-1.2,0-2.4-0.6-3.1-1.7c-14.5-19.8-3.8-48.8-3.3-50l7.3,2.8l-3.6-1.3l3.6,1.3
											c-0.1,0.2-7,19.1-1.8,34.7c2.4-6,6-13.5,11.1-17.1l4.7,6.3c-5.5,3.9-9.8,17.1-11,21.8c-0.3,1.5-1.5,2.5-3,2.8
											C277.4,239.5,277.2,239.5,276.9,239.5z"/>
									</g>
								</g>
							</g>
							<g>
								<g>
									<g>
										<path class="st8" d="M361.7,270.4c-1.4,0-2.6-0.6-3.3-1.8c-10.8-16.9-11.4-33.8-11.4-34.5c0-2.1,1.6-3.9,3.8-4h0.1
											c2.1,0,3.9,1.7,3.9,3.8c0,0.2,0.6,13.3,8.2,27.3c3.4-2.4,9.3-7.3,11.9-15.6c0.6-2.1,2.8-3.2,4.9-2.5
											c2.1,0.6,3.1,2.8,2.6,4.9c-5.1,15.8-18.6,21.9-19.1,22.2C362.7,270.3,362.3,270.4,361.7,270.4z"/>
									</g>
								</g>
							</g>
							<g>
								<g>
									<g>
										<path class="st8" d="M425.7,280.2c-1.1,0-2.1-0.4-2.8-1.2c-11.7-12.5-13.5-22.8-13.5-23.3l7.8-1.2c0,0.2,1.3,7,9,16.2
											c3.3-3.2,8.6-9,9.8-15.2l7.6,1.5c-2.4,11.9-14.8,21.8-15.3,22.2C427.4,279.9,426.5,280.2,425.7,280.2z"/>
									</g>
								</g>
							</g>
							<g>
								<g>
									<g>
										<path class="st8" d="M280.5,232.5c0.8,1.2,1.5,2.6,2.2,3.8c0.8,1.2,1.6,2.6,2.5,3.8c1.7,2.6,3.5,5,5.2,7.3
											c1.8,2.4,3.8,4.8,5.5,7.2c2,2.4,3.9,4.6,5.9,6.9c4,4.5,8.2,8.9,12.8,12.9l3.3,3c1,1,2.2,2,3.5,3s2.2,2,3.5,2.8
											c1.2,0.9,2.4,2,3.6,2.9c9.6,7.4,19.8,14,30.6,19.4l4.1,1.9c0.8,0.3,1.3,0.8,2.1,1.1l2.1,0.9l4.1,2l4.2,2
											c2.7,1.3,5.6,2.5,8.4,3.9c2.9,1.4,5.7,2.5,8.4,4l0,0c0.1,0.2,0.1,0.3,0.1,0.5c0,0.2-0.1,0.2-0.3,0.2
											c-6.3-0.3-12.6-1.2-18.8-2.9c-6.1-1.5-12-3.9-17.8-6.5c-11.6-5.2-22.5-11.8-32.6-19.5c-5.1-3.8-9.9-8-14.5-12.3
											c-4.7-4.4-9-8.9-13.2-13.8c-4.2-4.8-8-9.8-11.5-15c-1.8-2.5-3.5-5.2-5.1-8.1c-0.8-1.3-1.6-2.7-2.4-4.2s-1.5-2.8-2.2-4.3
											c-0.8-1.8,0-3.8,1.6-4.5C277.7,230.2,279.5,230.8,280.5,232.5L280.5,232.5z"/>
									</g>
								</g>
							</g>
							<g>
								<g>
									<g>
										<path class="st8" d="M236,464.8c-0.2,0-0.3,0-0.4,0c-39.3-4.1-72.9-14.9-100.2-32.4c-21.9-14.1-39.8-32.4-53-54.6
											c-22.5-37.6-23.9-72.6-23.9-74.1c0-1.7,0.9-3,2.2-3.8c1.5-0.6,3.1-0.3,4.4,0.8c34.3,32.1,89.1,33.8,111,32.8
											c6.6-0.3,12.9-2.2,18.3-5.8c43.5-29.4,84-34.8,110.4-34.2c28.7,0.6,46.8,8.1,47.7,8.5c2,0.9,3,3.2,2.1,5.1
											c-0.9,2-3.2,3-5.1,2.1l0,0c-0.1,0-17.8-7.3-45.1-7.9c-25-0.5-63.8,4.8-105.5,32.9c-6.6,4.3-14.2,6.9-22.3,7.2
											c-21.5,0.8-72.8-0.6-109.1-28.5c1.8,12.8,7.2,36.6,21.9,61.2c28.9,48,78.4,75.9,147.2,82.9c2.1,0.2,3.8,2.1,3.5,4.4
											C239.7,463.3,238.1,464.8,236,464.8z"/>
									</g>
								</g>
							</g>
							<g>
								<g>
									<g>
										<path class="st8" d="M235.4,412.6c-0.9,6-1.3,11.8-1.5,17.7c0,3,0.2,5.8,0.5,8.7c0.3,2.8,0.8,5.7,1.3,8.6
											c1.3,5.6,3.6,10.6,6.8,15c3.2,4.3,7.5,7.8,12.2,10.5l0,0h0.2c1.5,0.9,2.3,2.7,1.8,4.3c-0.2,0.6-0.3,1.4-0.5,2.1
											c-0.2,0.8-0.3,1.5-0.4,2.2c-0.3,1.5-0.5,3-0.6,4.5c-0.3,3-0.5,6-0.3,9c0.2,6,1.1,12,3.2,17.6c1,2.7,2.2,5.4,3.8,7.8
											c1.5,2.4,3.3,4.8,5.4,6.8c2.1,2.1,4.3,3.9,6.8,5.4c2.4,1.7,5.1,2.8,7.8,4.1l0.1,0.1c2,0.9,2.9,3.2,2.1,5.1
											c-0.9,1.9-3.2,2.8-5.1,2.1c-3.1-1.3-6.3-2.8-9.1-4.7c-3-1.8-5.7-4-8.1-6.4c-2.5-2.4-4.6-5.2-6.4-8.1
											c-1.8-3-3.3-6.1-4.5-9.3c-2.4-6.4-3.4-13.2-3.6-19.9c-0.2-3.3,0-6.8,0.5-10.1c0.2-1.7,0.4-3.3,0.6-4.9
											c0.2-0.9,0.3-1.7,0.4-2.6c0.2-0.9,0.3-1.7,0.6-2.6l2,4.5c-5.7-3.2-10.8-7.7-14.4-13.2c-1.8-2.7-3.3-5.7-4.4-8.7
											c-1-3-1.8-6.2-2.2-9.3c-0.9-6.3-0.8-12.6,0.2-18.6c0.5-3,1.1-6,2-9s1.8-5.8,3.2-8.6c0-0.1,0.2-0.1,0.3-0.1
											C235.4,412.5,235.4,412.6,235.4,412.6L235.4,412.6z"/>
									</g>
								</g>
							</g>
							<g>
								<g>
									<g>
										<path class="st8" d="M328.2,373.9c4.3,3,8.1,6.8,11.4,10.8c0.9,1.1,1.7,2.1,2.4,3.1s1.5,2.2,2.2,3.3
											c0.8,1.2,1.3,2.2,1.9,3.4l0.9,1.8l0.9,1.8c2.2,4.9,3.8,10.2,4.5,15.5c0.8,5.4,0.8,10.8,0,16.2c-1.5,10.8-6,20.8-11.6,29.8
											c-1.4,2.2-3,4.4-4.5,6.6c-1.7,2.1-3.3,4.2-5,6.3c-1.8,1.9-3.5,4.1-5.2,6l-5.5,5.7l0.8-4.5l0,0c1.3,2.8,3,5.7,4.8,8.1
											c0.5,0.6,0.9,1.1,1.2,1.5c0.1,0,0.1,0.2,0.3,0.2c0.2,0.1,0,0-0.1,0l-0.2-0.2c-0.3-0.1-0.1,0,0,0c0.3,0,1,0,1.8-0.1
											l2.6-0.3c3.6-0.4,7.6-0.4,11.5,0.8c3.9,1.1,7.3,3.3,10.2,6c1.7,1.5,1.7,3.9,0.3,5.6c-1.5,1.6-3.9,1.6-5.6,0.3l0,0
											c-2.1-1.9-4.5-3.4-7.2-4.2c-2.6-0.8-5.4-0.8-8.5-0.4l-2.6,0.3c-0.9,0.1-1.9,0.1-3.3,0.1c-0.8-0.1-1.5-0.1-2.5-0.6
											c-0.3-0.2-0.5-0.3-0.8-0.4c-0.3-0.2-0.6-0.3-0.6-0.4l-0.8-0.6c-0.9-0.8-1.5-1.6-2.1-2.4c-2.2-3.2-3.9-6.2-5.5-9.4l0,0
											c-0.8-1.5-0.5-3.4,0.8-4.5c7.2-7.1,13.9-14.4,19.5-22.8c5.4-8.2,9.8-17.4,11.6-27c0.9-4.8,1.1-9.8,0.6-14.6
											c-0.4-4.8-1.6-9.6-3.4-14.3c-3.6-9.1-9.3-17.8-16.5-24.8l0,0c-0.3-0.3-0.3-0.9,0-1.3C327.3,373.6,327.8,373.6,328.2,373.9
											z"/>
									</g>
								</g>
							</g>
							<g>
								<g>
									<g>
										<path class="st8" d="M307.1,570.6c-2,0-4-0.9-5.5-3.6c-2.7-4.7-5.7-5.9-9.5-7.5c-5-2.1-10.5-4.7-14.5-14
											c-5.9-14.1,4.5-26.1,10.6-30.4c0.8-0.5,1.5-0.8,2.4-0.8c14.8,0.6,24.8,9.6,27.1,24.9c1.8,12.2-1.5,28.7-8.5,31.2
											C308.4,570.6,307.8,570.6,307.1,570.6z M291.6,522.1c-3,2.4-11.1,10.4-7,20.2c2.7,6.6,6.2,8,10.4,9.9
											c3.8,1.7,8.4,3.6,12.1,9.3c2.2-4.2,4.8-15.6,1.7-25.7C306.3,527.5,300.5,522.9,291.6,522.1z"/>
									</g>
								</g>
							</g>
							<g>
								<g>
									<g>
										<path class="st8" d="M350.1,564.6c-0.1,0-0.3,0-0.6,0c-1.4-0.2-2.6-1.1-3.2-2.4c-0.3-0.9-9-21.2-32.8-20.4
											c-2.2,0-3.9-1.6-4-3.8c-0.1-2.1,1.6-3.9,3.8-4c20.1-0.6,31.5,11.4,36.7,19c4.2-9.9,1.5-21.9-3.8-30.6
											c-4.5-7.2-10.7-11.7-15.2-10.8c-12.9,2.6-18.1,17.3-18.3,17.4c-0.8,2.1-3,3.2-5,2.4c-2.1-0.8-3.1-3-2.4-4.9
											c0.3-0.8,6.8-18.9,24.1-22.5c7.9-1.6,16.8,3.9,23.4,14.4c7.8,12.5,10.8,31.2,0.1,44.9C352.4,564,351.3,564.6,350.1,564.6z
											"/>
									</g>
								</g>
							</g>
							<g>
								<g>
									<g>
										<path class="st8" d="M355.5,539.5c-0.8,0-1.3-0.2-2.1-0.6c-1.8-1.2-2.4-3.6-1.2-5.4c6.9-10.9,20.4-13.3,28.2-13.7
											c-4.5-7.6-17.4-17.1-24-16.6c-8,0.6-13.5,8.6-13.7,8.7c-1.2,1.8-3.6,2.2-5.4,1.1c-1.8-1.2-2.2-3.6-1.1-5.4
											c0.3-0.4,7.7-11.1,19.5-12c12-1.1,33,16.3,34.1,28c0.1,1.2-0.3,2.2-1.2,3.2c-0.8,0.8-1.9,1.2-3.2,1.1
											c-0.1,0-19.5-1.7-26.7,9.9C358.2,538.9,356.9,539.5,355.5,539.5z"/>
									</g>
								</g>
							</g>
							<g>
								<g>
									<g>
										<path class="st8" d="M449.4,449.8c-0.2,1.2-0.3,2.1-0.6,3.1c-0.3,1.1-0.6,2.1-0.9,3c-0.6,1.9-1.5,3.9-2.4,5.9
											c-0.9,1.9-2.1,3.8-3.3,5.4c-1.3,1.7-2.7,3.3-4.5,4.7c-0.4,0.4-1.2,0.3-1.6-0.2c-0.3-0.3-0.3-0.8-0.2-1.2l0,0
											c0.8-1.8,1.4-3.6,1.9-5.6c0.4-1.8,1.1-3.6,1.5-5.6l1.2-5.6c0.4-1.8,0.8-3.8,1.2-5.4v-0.2c0.6-2.1,2.7-3.3,4.8-2.8
											C448.4,446.1,449.6,447.9,449.4,449.8z"/>
									</g>
								</g>
							</g>
							<g>
								<g>
									<g>
										<path class="st8" d="M446.7,478c-0.9-5.8-7.8-8.7-7.9-8.7l2.9-7.3c0.4,0.1,11.2,4.3,12.9,14.8L446.7,478z"/>
									</g>
								</g>
							</g>
							<g>
								<g>
									<g>
										<path class="st8" d="M480.8,503.4l-1.2-7.8l10.7-1.8c-5.2-5.7-14.9-14.4-24.8-16.5c-12.6-2.7-15.9,7.3-16.2,8.4l-7.5-2.1
											c1.8-6.3,9.3-17.4,25.3-13.9c18,3.8,33.2,23.7,33.8,24.6c0.8,1.1,1.1,2.6,0.4,3.8c-0.4,1.2-1.6,2.2-3,2.4L480.8,503.4z"/>
									</g>
								</g>
							</g>
							<g>
								<g>
									<g>
										<path class="st8" d="M490.4,521.4c-0.4,0-1.1-0.1-1.5-0.3c-4.1-1.7-16.1-5.7-21.9-4.5c-10.3,2.1-17.4-4.5-17.6-4.8
											l5.4-5.7c0.1,0.1,4.5,4.1,10.6,2.8c5.2-1.1,12.6,0.4,18.3,2.1c-9.9-19.1-33-22.9-38.7-23.6c-8.2,6.1-11.6,14.2-11.6,14.4
											l-7.3-2.8c0.1-0.4,4.3-11.2,15.6-18.9c0.8-0.4,1.5-0.8,2.4-0.6c0.4,0,40.5,2.7,50.1,36.9c0.4,1.5,0,3-1.2,3.9
											C492.3,521.1,491.4,521.4,490.4,521.4z"/>
									</g>
								</g>
							</g>
							<g>
								<g>
									<g>
										<path class="st9" d="M413.6,517.5"/>
									</g>
								</g>
							</g>
							<g>
								<g>
									<g>
										<path class="st8" d="M462.3,533.4c-0.6,0-1.3-0.1-1.9-0.4c-3.3-1.8-13.1-6.6-18.4-6.8c-13.9-0.5-27.1-4.2-29.4-5
											c-41.4-5.8-41.7-47.4-41.7-47.8c0-2.1,1.8-3.9,3.9-3.9l0,0c2.1,0,3.9,1.8,3.9,3.9c0,1.4,0.3,33.2,31.8,39.6
											c1.3-4,4.3-10.3,10.3-13.8c5.7-3.3,12.6-3.4,20.6-0.4c25.2,9.4,24.8,30,24.6,30.9c0,1.3-0.8,2.6-1.9,3.3
											C463.7,533.2,463.1,533.4,462.3,533.4z M418.4,514.8c4.9,1.2,14.4,3.3,24,3.6c4.5,0.2,10.2,2.2,14.7,4.2
											c-1.9-5.2-6.8-12.2-18.2-16.5c-5.7-2.1-10.3-2.2-13.8-0.2C421.4,508,419.4,511.9,418.4,514.8z"/>
									</g>
								</g>
							</g>
							<g>
								<g>
									<g>
										<path class="st8" d="M396.8,449.5c0.9,1.4,1.9,2.7,3,4.1c-4.6,0.2-9.6,0-14.6-1.1c-2.7-0.6-5.7-1.8-8.2-3.8
											s-4.8-4.8-5.7-8.1c-1.1-3.2-1.1-6.3-0.4-9.3c0.3-1.5,0.6-2.9,1.1-4.2c0.2-0.8,0.4-1.4,0.8-2.1c0.2-0.3,0.3-0.6,0.4-1.1
											c0.2-0.3,0.3-0.6,0.4-1.1c0.9-1.9,3.3-2.7,5.2-1.8c0.3,0.2,0.4,0.3,0.8,0.4l0,0c1.7,1.2,3.4,2.6,5.2,3.8
											c0.8,0.4,1.5,0.9,2.1,1.4c0.1,0.1,0.3,0.1,0.4,0.3c0.3,0.1,0.8,0.3,1.1,0.4c0-0.2,0-0.3,0-0.3c0.3-1.7,0.1-3.4-0.2-5.2
											c-0.3-1.7-1.1-3.3-2.1-4.5c-0.3-0.4-0.6-0.8-1.1-1.2c-0.2-0.3-0.4-0.4-0.6-0.6c-0.3-0.3-0.6-0.4-1.1-0.8l-0.6-0.3
											l-0.8-0.4c-2.1-1.2-4.4-2.7-6.3-4.5c-1.8-1.6-3.4-3.6-4.9-5.6c-3-3.9-5.4-8.4-6.9-13.1c-1.5-4.7-2.4-9.6-2.6-14.4
											c-0.3-9.8,2.2-19.2,7.1-27.1c0.3-0.4,0.8-0.4,1.2-0.3c0.3,0.1,0.4,0.6,0.4,0.9l0,0c-1.3,9.2-2.6,17.7-2.1,26.2
											c0.6,8.4,3.8,16.5,8.8,22.9c1.4,1.7,2.7,3.2,4.2,4.5c1.1,1.1,2.2,1.8,3.8,2.7c0.3,0.2,0.8,0.4,1.2,0.6l0.8,0.3l0.9,0.4
											c0.6,0.3,1.2,0.8,1.8,1.2c1.2,0.9,2.2,1.9,3.1,3.2c1.8,2.2,3,4.9,3.6,7.8c0.6,2.7,0.8,5.6,0.3,8.4
											c-0.2,0.8-0.3,1.5-0.4,2.2c-0.3,0.8-0.6,1.7-1.2,2.6c-0.2,0.3-0.3,0.4-0.6,0.8c-0.3,0.3-0.4,0.4-0.8,0.9
											c-0.1,0.1-0.3,0.3-0.6,0.4c-0.2,0.1-0.4,0.3-0.8,0.4c-0.6,0.3-0.9,0.3-1.4,0.4c-0.4,0-0.8,0.1-1.1,0.1
											c-1.1,0-1.8-0.1-2.4-0.3c-1.7-0.4-2.9-1.1-4.1-1.8c-1.2-0.6-2.2-1.3-3.2-1.9c-0.4-0.3-0.9-0.6-1.3-1.1
											c-0.2,0.4-0.2,0.9-0.3,1.4c-0.3,2.1-0.3,4.1,0.3,5.7c0.1,0.4,0.3,0.8,0.4,1.2c0.3,0.3,0.3,0.8,0.6,1.1
											c0.4,0.8,1.2,1.2,1.8,1.8c1.5,1.1,3.4,1.9,5.6,2.4c2.2,0.6,4.8,0.9,7.4,0.9C395.3,447,396,448.3,396.8,449.5z"/>
										<path class="st8" d="M420.9,348.9c-0.8,0.4-1.4,0.8-2.1,1.2c-1.1,0.6-1.9,1.2-3,1.9c-2.1-3.6-4.3-7.2-6.6-10.9l0,0
											c-0.3-0.6-0.2-1.3,0.4-1.8c0.4-0.3,0.9-0.3,1.3,0c2.2,1.5,4.2,3.2,6,4.9c0.9,0.9,1.8,1.9,2.6,2.9
											C420,347.7,420.5,348.3,420.9,348.9z"/>
									</g>
								</g>
							</g>
							<g>
								<g>
									<g>
										<path class="st8" d="M379.5,449.7c-1.6,0-3.1-1.1-3.8-2.7c-0.8-2.1,0.4-4.2,2.6-4.9c7.7-2.6,8.4-10.1,8.4-10.3
											c0.1-2.1,2.1-3.8,4.2-3.6c2.1,0.2,3.8,1.9,3.6,4.2c0,0.6-1.1,13.1-13.8,17.2C380.4,449.7,380,449.7,379.5,449.7z"/>
									</g>
								</g>
							</g>
							<g>
								<g>
									<g>
										<path class="st8" d="M443.6,168.7c0.6-1.7,1.2-3,1.9-4.5s1.5-2.8,2.6-4.2c1.8-2.7,4.1-5.2,6.9-7.3c2.7-2.1,6-3.9,9.6-4.8
											c3.6-1.1,7.7-1.1,11.2-0.2c0.9,0.3,1.8,0.4,2.7,0.8c0.9,0.3,1.7,0.6,2.6,1c1.7,0.8,3.3,1.7,4.8,2.8c3,2.2,5.4,5.2,7.1,8.4
											c1.7,3.2,2.6,6.6,2.7,9.9c0.2,1.7,0.2,3.3,0,5c-0.1,1.7-0.4,3.2-0.9,4.8c-0.3,1-1.4,1.5-2.4,1.2c-0.6-0.2-1.1-0.8-1.2-1.2
											l-0.1-0.3c-0.2-0.6-0.3-1.3-0.6-1.9c-0.1-0.8-0.3-1.3-0.6-2.1c-0.4-1.3-0.9-2.7-1.4-3.9c-1.1-2.4-2.2-4.7-3.8-6.6
											c-0.8-0.9-1.5-1.8-2.4-2.5c-0.9-0.8-1.7-1.5-2.7-2c-0.9-0.6-1.9-1-3-1.5c-1.1-0.4-2.2-0.8-3.3-1c-0.6-0.2-1.1-0.3-1.7-0.3
											l-0.8-0.2h-0.8c-1.1,0-2.1,0-3.1,0.3c-2.1,0.4-4.4,1.2-6.6,2.4c-4.3,2.4-8.7,6.2-12.6,10.2l-0.2,0.2
											c-0.9,0.9-2.4,1.1-3.4,0C443.4,170.5,443.3,169.5,443.6,168.7z"/>
									</g>
								</g>
							</g>
						</g>
						<g>
							<g>
								<g>
									<path class="st8" d="M395,161.2c1.8,0.9,3.2,2.2,4.2,3.9c0.6,0.9,0.9,1.8,1.2,3c0.3,1,0.3,2.4,0,3.6
										c-0.3,1.2-1.1,2.4-1.8,3.3c-0.9,0.9-1.8,1.5-2.8,1.9c-1.1,0.5-1.9,0.6-3,0.6c-0.4,0-1.1,0-1.5-0.2s-1.1-0.3-1.5-0.4
										c-0.3-0.2-0.4-0.5-0.3-0.8c0,0,0,0,0-0.2l0,0c1.2-1.7,2.4-2.7,3.3-3.8c0.4-0.5,0.8-0.9,0.9-1.2c0.3-0.3,0.4-0.6,0.6-1.1
										c0.3-0.6,0.3-1.8,0.1-3.2c-0.1-1.3-0.6-2.8-0.9-4.5v-0.2c-0.2-0.6,0.3-1,0.9-1.2C394.5,161.2,394.8,161.2,395,161.2z"/>
								</g>
							</g>
						</g>
						<g>
							<g>
								<g>
									<path class="st8" d="M310.1,145.6c-1.3,1-2.5,2.1-3.6,3c-1.1,0.9-1.7,1.8-1.8,2.5c-0.1,0.3-0.1,0.6-0.1,1.1
										c0,0.4-0.2,0.9,0,1.7c0,1.3,0.3,2.8,0.1,4.9l0,0c0,0.3-0.3,0.6-0.6,0.6h-0.2c-0.6-0.2-1-0.3-1.5-0.6
										c-0.4-0.3-0.9-0.4-1.2-0.8c-0.8-0.6-1.5-1.3-2-2.4c-0.6-0.9-0.9-2.1-1-3.3c-0.2-1.2,0.1-2.6,0.8-3.8
										c0.6-1.2,1.3-2.1,2.2-2.8c0.9-0.8,1.8-1.2,2.8-1.7c2-0.8,3.9-0.8,5.9-0.3c0.6,0.2,0.9,0.8,0.8,1.2
										C310.5,145.2,310.4,145.3,310.1,145.6L310.1,145.6z"/>
								</g>
							</g>
						</g>
					</g>
				</g>
			</g>
		</g>
	</g>
	<circle class="st10" cx="470.9" cy="171.7" r="38.3"/>
	<path class="st8" d="M514.4,169.9v-1.3c0-1.3,0-2.7-0.3-4.2c-0.3-3.6-1.2-7.3-2.8-11.7c-1.3-3.6-3.4-7.2-6.3-10.9
		c-2.6-3.1-5.7-6.1-9.4-8.9c-3.4-2.4-7.5-4.4-12-5.8c-4.1-1.2-8.4-2-13.3-2.1l-1.8,0.2c-1.5,0-3,0.1-4.7,0.5
		c-2.1,0.3-4.1,0.8-5.8,1.3l-0.8,0.2c-4.5,1.5-8.4,3.5-12,5.8c-3.8,2.7-6.9,5.7-9.4,8.9c-2.9,3.8-4.8,7.3-6.3,10.8
		c-2.9,7.2-3.9,15.5-2.7,23.1c1.1,7,3.8,13.3,7.8,19c3.4,4.7,7.8,8.7,12.4,11.7c3.6,2.2,7.5,4,12,5.2c2.1,0.6,3.6,0.9,4.8,1
		c1.5,0.3,2.7,0.5,3.6,0.5l3,0.2l2.9-0.2l0,0c1.1,0,2.4-0.2,3.6-0.3c1.4-0.2,2.9-0.4,4.8-1c4.5-1.2,8.4-3,12-5.2
		c2.6-1.7,4.9-3.5,7.2-5.7c4.8-0.9,3,9,7.5,9c4.8,0,8.7-3.9,8.7-8.7c0-4.8-9.2-0.9-8.7-8.7c0-0.4,0-0.8,0-1
		c2.9-4.8,4.8-10.2,5.7-15.8C514.1,173.7,514.4,172,514.4,169.9z M507.8,175c-0.4,6-2.4,12-5.6,17.1c-2.6,4.2-6.1,7.9-10.6,11.1
		c-4.1,2.8-8.1,4.2-10.8,5.1c-1.8,0.6-3.2,0.8-4.4,0.9c-1.3,0.3-2.4,0.4-3.3,0.4l-2.8,0.2l-2.9-0.2c-0.8,0-1.8-0.2-3.3-0.4
		c-1.1-0.2-2.4-0.5-4.3-0.9c-2.7-0.8-6.8-2.2-10.8-5.1c-4.5-3.2-8.1-6.9-10.7-11.1c-3.1-5.1-5.1-11.1-5.6-17
		c-0.4-6.6,0.8-13.3,3.8-19.3s7.9-11.4,13.7-15.1c2.8-1.8,6.1-3.3,9.4-4.4l0.9-0.1c1.5-0.3,2.9-0.8,4.5-0.9c0.9-0.1,2.2-0.3,3.6-0.3
		c0.6,0,1.2,0,1.6-0.1c3.9,0,7.4,0.6,10.5,1.5c3.6,1.2,6.9,2.5,9.6,4.3c5.8,3.8,10.8,9.2,13.6,15.2c1.7,3.5,2.7,6.6,3.2,9.6
		c0.3,1.1,0.3,2.4,0.4,3.6l0.1,1.2C507.8,171.6,507.8,173.2,507.8,175z"/>
	<g>
		<path class="st8" d="M251.9,186.7c-3.3-6-2.2-13.9,1.8-19.5c3.6-5,9.2-8.1,15-9.8c-2.4,1.3-4.7,3.3-6.2,4.8
			c-2.7,2.6-4.2,6-4.8,9.6c-0.2,1.2-0.3,2.5-0.2,3.8c0.5,3,2.2,5.7,4.7,7.7c3.3,2.7,8,4,12.3,3.4c-3.3-0.2-6.6-1.2-9.3-3.3
			c-2.5-2.1-4.4-5.1-4.5-8.1c-0.2-2.8,1.2-5.6,3-7.8c0,0.6-0.2,1-0.2,1.7c-0.1,6.2,2.4,8.8,8.6,8.4c6.1-0.4,11.8-3,17.5-5.5
			c10.5-4.7,21-12.5,32.8-0.6c6.5,8.6-2.7,23.6-16.2,22.7c-2.9-0.2-8.6-0.8-11.4-1.1c-5-0.6-8.2,1.3-13.2,2.6
			C270.3,198.3,257.6,197.1,251.9,186.7z"/>
		<path class="st8" d="M331.7,174c16.2-4.1,21.3,8.1,27.8,17.4c3.4,5.1,7.1,10.2,12.1,13.8c4.9,3.6,8.6,2.5,11.7-2.7
			c0.3-0.4,0.6-1,0.8-1.5c0.6,2.8,0.2,5.8-1.3,8.2c-1.8,2.6-4.8,4.2-8.1,4.7c-3.3,0.5-6.8-0.4-9.6-1.9c3.4,2.7,7.9,4,12.3,3.4
			c3.1-0.4,6-1.8,7.9-4.2c0.8-1.1,1.3-2.1,1.8-3.3c1.3-3.4,1.8-7.2,0.9-10.8c-0.6-2.1-1.5-4.8-2.8-7.2c4.2,4.3,7.3,10.1,7.8,16.1
			c0.6,6.9-2.6,14.1-8.6,17.7c-10.2,6-21.8,0.5-30.3-7.8c-3.6-3.5-5.4-6.9-10.1-9c-2.6-1.2-7.8-3.8-10.2-5
			C321.8,195.6,321.6,178,331.7,174z"/>
	</g>
	<g id="Calque_9">
		<g>
			<path class="st8" d="M428,443.8h0.3c-3.1,2.8-6.9,5.1-10.8,6.6c-5.2,1.9-10.8,2.9-15.9,3.2c-0.6,0-1.2,0-1.8,0.1
				c-1.1-1.3-1.9-2.7-3-4.1c-0.8-1.2-1.7-2.4-2.4-3.8c2.1,0,4.4,0,6.6-0.1l3.6-0.3l3.4-0.4c1.2-0.2,2.2-0.4,3.3-0.8s2.1-0.8,3.3-1.1
				c2.1-0.9,4.1-1.8,5.9-3.2c0.9-0.6,1.6-1.3,2.6-1.9c0.3-0.3,0.6-0.6,0.9-0.9c0,0.1,0,0.3,0,0.4v2.2
				C423.9,441.9,425.7,443.8,428,443.8z"/>
			<path class="st8" d="M435.8,433.2c-0.4,1.1-1.1,2.1-1.6,3.2H425c-0.1,0-0.3,0-0.4,0.1c0.3-0.3,0.6-0.6,0.8-0.9
				c2.1-2.7,3.8-5.9,4.7-9.4C431.6,428.7,433.5,430.9,435.8,433.2z"/>
			<path class="st8" d="M436.8,396.4h-8.1c-0.2-0.3-0.2-0.6-0.3-0.9c-0.2-0.3-0.2-0.6-0.2-0.9v-0.3c0-1.2-0.1-2.4-0.1-3.6
				s0-2.4-0.3-3.6l-0.4-3.4c-0.2-1.2-0.4-2.2-0.6-3.4c-0.3-2.4-1.1-4.7-1.6-6.9c-0.3-1.2-0.8-2.2-1.1-3.4c-0.2-0.6-0.3-1.2-0.6-1.6
				l-0.6-1.7c-1.7-4.5-3.8-8.8-6.2-13.1c-0.3-0.4-0.6-1.1-0.9-1.5c1.1-0.6,1.9-1.3,3-1.9c0.8-0.4,1.3-0.8,2.1-1.2
				c0.3,0.4,0.6,0.9,1.1,1.4c3,4.2,5.6,8.7,7.7,13.5l0.8,1.8c0,0.1,0.1,0.1,0.1,0.3c-0.1,1.8,0,3.6,0.3,5.2c0.4,3.1,1.8,6,3.9,8.4
				c0.1,1.1,0.4,1.9,0.6,3l0.4,3.9c0.2,1.3,0.2,2.7,0.3,3.9c0,1.1,0,2.2,0.2,3.3C436.4,394.6,436.7,395.5,436.8,396.4z"/>
			
				<linearGradient id="SVGID_1_" gradientUnits="userSpaceOnUse" x1="399.765" y1="91.8528" x2="525.165" y2="91.8528" gradientTransform="matrix(1 0 0 -1 0 502)">
				<stop  offset="0" style="stop-color:#662483"/>
				<stop  offset="1.000000e-02" style="stop-color:#005C5C"/>
				<stop  offset="1" style="stop-color:#00FD67"/>
			</linearGradient>
			<path class="st11" d="M525,410.2c0,38.7-31.4,70.2-70.2,70.2c-22.3,0-42.3-10.5-55.2-26.8c0.6,0,1.2,0,1.8-0.2
				c5.1-0.3,10.8-1.1,15.9-3.1c5.2-1.9,10.2-5.2,13.8-9.9c3.6-4.5,5.8-10.1,6.9-15.4c1.1-5.4,1.2-10.9,0.8-16.2
				c-0.1-2.7-0.6-5.2-1.1-7.9c-0.3-1.4-0.4-2.6-0.9-3.9c-0.3-1.2-0.6-2.2-0.9-3.4c0-1.1,0-2.2-0.1-3.3c0-1.3,0-2.7-0.3-3.9l-0.4-3.9
				c-0.2-1.3-0.4-2.6-0.8-3.9c-0.4-2.6-1.4-5.1-2.1-7.7c-0.4-1.2-0.9-2.4-1.3-3.8c-0.3-0.6-0.4-1.2-0.8-1.8l-0.8-1.8
				c-2.1-4.8-4.7-9.3-7.7-13.5c-0.3-0.4-0.6-0.9-1.1-1.3c10.1-5.6,21.6-8.7,34.1-8.7C493.7,340.2,525,371.5,525,410.2z"/>
			<path class="st6" d="M473.3,449.5h-40.1c-2.1,0-3.9-1.8-3.9-3.9v-2.1h47.8v2.1C477.3,447.7,475.5,449.5,473.3,449.5z"/>
			<path class="st12" d="M477.3,443.4v2.1c0,2.1-1.8,3.9-3.9,3.9H470c2.1,0,3.9-1.8,3.9-3.9v-2.1H477.3z"/>
			<path class="st6" d="M473.1,431.2c-1.7,0.2-3-1.1-3.2-2.7c-0.1-1.6,1.1-3,2.7-3.1c0.2,0,0.3,0,0.4,0c1.7,0,3.3,0,4.9-0.2
				c1.5-0.1,2.9-0.3,4.4-0.6c0.9-0.3,1.8-0.6,2.6-0.9c3.8-1.6,6.4-4.9,7.3-8.8c0.2-0.9,0.9-5.4-3-6.8c-2.6-0.8-5.2-0.2-7.2,1.6
				c-1.2,1.2-3,1.1-4.1,0c-1.2-1.2-1.1-3,0-4.1l0.2-0.2c3.6-3.1,8.6-4.2,13.1-2.8c2.8,0.9,4.9,3,6.1,5.7c0.9,2.4,1.2,5.1,0.6,7.7
				c-1.2,5.7-5.1,10.5-10.5,13.1c-1.1,0.6-2.2,1.1-3.4,1.2c-1.8,0.4-3.4,0.8-5.2,0.9C476.9,431.2,474.9,431.2,473.1,431.2
				L473.1,431.2z"/>
			<path class="st12" d="M497.9,415.9c-1.2,5.7-5.1,10.5-10.5,13.1c-1.1,0.6-2.2,1.1-3.4,1.2c-1.8,0.4-3.4,0.8-5.2,0.9
				c-1.8,0.1-3.6,0.1-5.4,0.1l0,0c-0.8,0-1.5-0.3-2.1-0.9c1.6,0,3.3-0.2,4.9-0.2c1.8-0.1,3.6-0.4,5.2-0.9c1.2-0.3,2.2-0.8,3.4-1.2
				c5.4-2.4,9.1-7.2,10.5-13.1c0.4-2.6,0.3-5.2-0.6-7.7c-0.9-2.2-2.6-4.1-4.6-5.1c0.4,0.2,0.9,0.2,1.3,0.3c2.9,0.9,5.1,3,6.2,5.7
				C498.2,410.7,498.5,413.4,497.9,415.9z"/>
			<path class="st8" d="M438.3,424.9c-0.4,2.7-1.3,5.6-2.6,8.1c-2.2-2.1-4.2-4.5-5.8-7.1c0.3-0.9,0.4-1.8,0.6-2.7
				c0.9-4.5,1.1-9.3,0.6-13.9c-0.2-2.4-0.6-4.8-1.1-7.1c-0.3-1.2-0.4-2.4-0.8-3.4c-0.2-0.8-0.4-1.6-0.6-2.4h8.1
				c0,0.1,0.1,0.3,0.1,0.6c0.3,1.4,0.6,2.6,0.9,3.9c0.4,2.6,0.9,5.2,1.1,7.9C439.4,414.1,439.4,419.5,438.3,424.9z"/>
			<path class="st6" d="M485,399.6c-0.3,7.7-2.4,27.2-18,37.2h-26.6c-1.6-1.1-3.3-2.2-4.6-3.6c1.2-2.7,1.9-5.4,2.6-8.1
				c1.1-5.4,1.2-10.9,0.8-16.2c-0.2-2.7-0.6-5.3-1.1-8c-0.3-1.3-0.4-2.6-0.9-3.9c0-0.2-0.1-0.3-0.1-0.6h45.1
				C483.6,396.6,485,397.9,485,399.6z"/>
			<path class="st12" d="M485,399.6c-0.1,7.5-2.2,27.2-17.8,37.2h-4.7c15.6-9.9,18.8-29.6,19.1-37.2c0-1.6-1.2-3-2.8-3
				c0,0,0,0-0.2,0h3.3c1.7-0.1,3,1.2,3.2,2.9C485,399.4,485,399.4,485,399.6z"/>
			<path class="st8" d="M434.1,436.3c-0.8,1.3-1.7,2.8-2.7,4.1c-0.9,1.2-1.9,2.4-3.2,3.3H428c-2.2,0-4.1-1.8-4.1-4.1v-2.2
				c0-0.2,0-0.3,0-0.4l0,0l0.3-0.3c0.2-0.2,0.2-0.2,0.3-0.3c0.2,0,0.3-0.2,0.4-0.2h9.2V436.3z"/>
			<path class="st6" d="M424.5,436.5c-0.1,0.2-0.1,0.2-0.3,0.3l-0.3,0.3C424.1,436.8,424.2,436.6,424.5,436.5z"/>
			<path class="st6" d="M482.7,437.4v2.2c0,2.2-1.8,4.1-4.1,4.1h-50.4c1.2-1.1,2.2-2.1,3.1-3.3c1.1-1.4,1.9-2.7,2.7-4.1h47.6
				C482.3,436.3,482.7,436.8,482.7,437.4z"/>
			<path class="st12" d="M482.7,437.5v2.2c0,2.2-1.8,4.1-4.1,4.1h-3.6c2.2,0,4.1-1.8,4.1-4.1v-2.2c0-0.6-0.4-1.1-1.1-1.1
				c0,0,0,0-0.2,0h3.4C482.1,436.3,482.7,436.8,482.7,437.5C482.7,437.4,482.7,437.4,482.7,437.5z"/>
			<path class="st8" d="M434.7,379.5c-1.9-2.4-3.3-5.2-3.9-8.4c-0.3-1.8-0.3-3.6-0.3-5.2c0.3,0.4,0.4,1.1,0.6,1.5
				c0.4,1.2,0.9,2.4,1.4,3.8c0.8,2.6,1.5,4.9,2.1,7.7C434.6,378.9,434.6,379.2,434.7,379.5z"/>
			<path class="st6" d="M449.3,385.3c0,0.3-0.3,0.6-0.8,0.6c-2.1-0.2-4.3-0.6-6.3-1.2c-3-1.1-5.7-2.9-7.6-5.1c0-0.3-0.2-0.6-0.2-0.9
				c-0.4-2.6-1.3-5.1-2.1-7.7c-0.4-1.2-0.9-2.4-1.4-3.8c-0.1-0.4-0.3-1.1-0.6-1.5c0-0.4,0-0.8,0.1-1.2c0-0.3,0.3-0.6,0.6-0.6
				c2.2,0.1,4.3,0.6,6.4,1.2c6,1.9,10.5,7.2,11.6,13.5C449.4,381,449.6,383.1,449.3,385.3z"/>
			<path class="st12" d="M449.3,385.2c0,0.3-0.3,0.6-0.6,0.6c-0.4,0-1.1,0-2.1-0.1c0-1.7,0-3.3-0.3-4.8c-1.1-6.3-5.4-11.6-11.6-13.5
				c-1.5-0.4-2.8-0.8-4.3-1.1c0-0.8,0-1.2,0.1-1.7c0-0.3,0.3-0.6,0.6-0.6c2.2,0.1,4.3,0.6,6.4,1.2c6,1.9,10.5,7.2,11.6,13.5
				C449.4,380.8,449.6,383.1,449.3,385.2L449.3,385.2z"/>
			<path class="st6" d="M477,371.4c0,2.2-0.1,4.4-0.8,6.4c-1.5,6.2-6.3,11.1-12.6,12.6c-2.1,0.4-4.4,0.8-6.4,0.8
				c-0.3,0-0.6-0.3-0.6-0.6l0,0c0-2.2,0.2-4.3,0.8-6.4c1.5-6.1,6.3-11.1,12.6-12.6c2.1-0.4,4.3-0.8,6.4-0.8
				C476.7,370.8,476.9,371.1,477,371.4L477,371.4z"/>
			<path class="st12" d="M476.3,377.8c-1.5,6.2-6.3,11.1-12.6,12.6c-2.1,0.4-4.4,0.8-6.4,0.8c-0.3,0-0.6-0.3-0.6-0.6l0,0
				c0-0.4,0-1.2,0-2.1c1.5-0.2,3.2-0.3,4.7-0.8c6.1-1.5,11.1-6.3,12.6-12.6c0.3-1.5,0.6-3,0.8-4.5c0.8,0,1.4,0,1.8,0
				c0.3,0,0.6,0.3,0.6,0.6l0,0C477,373.6,476.7,375.7,476.3,377.8L476.3,377.8z"/>
			<path class="st12" d="M443.6,377.1l0.6-2.1c0.1-0.8-0.3-1.5-0.9-1.7c-0.8-0.1-1.3,0.2-1.6,0.9l0,0v0.3l-1.4-1.7l0.6-2.1
				c0.1-0.8-0.3-1.4-0.9-1.7l0,0c-0.8-0.1-1.3,0.3-1.6,0.9l0,0v0.3l-2.4-2.7c-0.4-0.6-1.3-0.6-1.8-0.2c-0.6,0.4-0.6,1.4-0.1,1.8
				l2.2,2.7h-0.3c-0.8,0-1.2,0.6-1.2,1.4s0.6,1.2,1.3,1.2h0.2l2.1-0.2l1.4,1.7h-0.3c-0.8,0.1-1.2,0.8-1.2,1.5c0,0.6,0.6,1.2,1.2,1.2
				h0.1l2.1-0.2l2.4,2.9c0.3,0.3,0.6,0.4,1.1,0.4c0.3,0,0.6-0.2,0.9-0.3c0.6-0.4,0.6-1.2,0.1-1.8l0,0L443.6,377.1z"/>
			<path class="st12" d="M473.1,374.5c-0.4-0.4-1.4-0.4-1.8,0l-2.4,2.4v-0.3c-0.1-0.8-0.8-1.2-1.5-1.1c-0.8,0.2-1.2,0.8-1.1,1.5
				l0.3,2.1l-1.5,1.5v-0.3c-0.1-0.8-0.8-1.2-1.5-1.1c-0.8,0.1-1.2,0.8-1.1,1.5l0.3,2.1l-2.7,2.9c-0.4,0.4-0.4,1.3,0,1.8
				c0.3,0.3,0.6,0.4,0.9,0.4s0.8-0.2,0.9-0.4l2.7-2.7l2.1,0.3h0.1c0.6,0,1.2-0.4,1.2-1.1c0.2-0.8-0.3-1.4-1.1-1.5l0,0h-0.3l1.5-1.5
				l2.1,0.3h0.1c0.6,0,1.2-0.4,1.2-1.1c0.2-0.8-0.3-1.4-1.1-1.5l0,0h-0.3l2.4-2.4C473.7,375.7,473.7,375,473.1,374.5L473.1,374.5z"
				/>
		</g>
	</g>
	<g id="Calque_4">
		<g>
			<g>
				<g>
					<g>
						<path class="st6" d="M546.9,426.7c0.9,3,6.3,10.1,9.5,11.2c0,0-4.3-0.8-7.5,0c-0.6,0.2-1.5-1.5-2.2-1.5c-0.2,0-0.3,0-0.3,0
							c-4.3,0-12.1-4.1-12.4-6.6c0,0,0.4,0,1.3,0c2.7,0,6.5-1.1,9.2-3.9"/>
					</g>
				</g>
			</g>
		</g>
		<g>
			<g>
				<g>
					<g>
						<path class="st6" d="M537.9,417.7c0.9,2.6,3.8,4.9,6.9,5.9c0,0-1.9,1.5-5.1,2.1c-0.6,0.2-1.2,0.2-2,0.2c-0.1,0-0.3,0-0.3,0
							c-4.3,0-12.2-3.4-12.5-5.6c0,0,0.5,0,1.4,0C528.8,420.4,535.1,420.1,537.9,417.7"/>
					</g>
				</g>
			</g>
		</g>
		<g>
			<g>
				<g>
					<g>
						<path class="st6" d="M533.4,407.2c0.9,2.6,3.8,4.9,6.9,5.9c0,0-1.9,1.5-5.1,2.1c-0.6,0.2-1.2,0.2-2,0.2c-0.1,0-0.3,0-0.3,0
							c-4.3,0-12.2-3.4-12.5-5.6c0,0,0.5,0,1.4,0c2.7,0,7.9-2.6,10.6-5"/>
					</g>
				</g>
			</g>
		</g>
		<g>
			<g>
				<path class="st8" d="M549.5,382c-5.7-0.3-11.1,1.2-13.8,6.6c-2.4,5.1-2.1,11.2-7.2,14.7c-2.2,1.5-4.7,2.2-7.2,3.2
					c-2.1,0.8-5,1.5-4.8,4.4c0.3,2.6,3.5,4.5,5.4,5.7c2.4,1.5,5.1,2.7,7.9,3.6c0-1.5,0-2.8,0-4.3c-2.4,0.8-4.8,1.1-7.2,1.1
					c-1.7,0-3,1.9-2,3.4c4.1,5.8,10.1,8.1,16.7,9.8c0.2-1.5,0.5-3,0.6-4.4c-2.1,0-4.3,0-6.4,0c-2.8,0-2.8,4.5,0,4.5
					c2.1,0,4.3,0,6.4,0c2.6,0,3.2-3.8,0.6-4.3c-5.4-1.4-10.7-3-14-7.7c-0.6,1.2-1.3,2.2-1.9,3.4c2.8,0,5.7-0.3,8.4-1.2
					c2.1-0.6,2.1-3.8,0-4.3c-2.2-0.8-4.5-1.7-6.6-2.9c-1-0.6-1.9-1.3-2.8-2.1c-0.3-0.3-0.6-0.4-0.8-0.8c-0.2,0.4-0.2,0.9-0.3,1.3
					c0.2,0,1.2-0.4,1.4-0.4c4-1.3,8.2-2.8,11.4-5.9c3.6-3.4,4.2-8.1,5.7-12.6c0.6-1.9,1.7-3.9,3.4-4.9c2.1-1.2,4.7-1.2,7.1-1.1
					C552.3,386.7,552.3,382.2,549.5,382L549.5,382z"/>
			</g>
		</g>
	</g>
	<g id="Calque_7">
		<g>
			<g>
				<path class="st6" d="M538.7,423L538.7,423c-0.1,0-0.3-0.1-0.4-0.1c0.3,0.1,0.8,0.3,1,0.6C539.1,423.3,539,423.1,538.7,423
					c0.3,0.2,0.3,0.3,0.5,0.3c0.8-1.2,1.5-2.6,2.2-3.8l0,0c0.2,0.2,0.3,0.2,0.6,0.3c-0.4-0.1-0.8-0.4-1.2-0.8
					c0.1,0.2,0.3,0.3,0.4,0.3c-0.3-0.3-0.8-0.6-0.9-0.9c0.2,0.1,0.3,0.3,0.3,0.4c-0.3-0.3-0.5-0.6-0.6-1.1c-0.2-0.3-0.3-0.4-0.6-0.6
					c-0.1-0.1-0.4-0.3-0.8-0.4c-0.3-0.1-0.6-0.1-0.9,0c-0.3,0-0.6,0.2-0.9,0.3c-0.5,0.3-0.9,0.8-1.1,1.4c0,0.1,0,0.4-0.1,0.6
					c0,0.4,0.1,0.8,0.3,1.2c0.2,0.3,0.3,0.6,0.5,0.9c0.3,0.4,0.6,0.9,1,1.2c0.3,0.3,0.8,0.8,1.2,0.9c0.4,0.3,0.9,0.4,1.3,0.8
					c0.2,0,0.4,0,0.6,0.2c0.3,0,0.6,0,0.9-0.2c0.2,0,0.3-0.1,0.4-0.3c0.3-0.1,0.5-0.3,0.6-0.6c0.1-0.2,0.1-0.3,0.3-0.6
					c0-0.1,0-0.4,0.2-0.6c0-0.3,0-0.6-0.2-0.9s-0.3-0.4-0.4-0.8c-0.3-0.3-0.8-0.6-1.2-0.9c-0.4-0.3-0.9-0.4-1.3-0.6
					c-0.3-0.1-0.6-0.1-0.9,0c-0.3,0-0.6,0.2-0.9,0.3c-0.3,0.2-0.4,0.3-0.6,0.6c-0.2,0.1-0.3,0.4-0.4,0.8c-0.2,0.6-0.2,1.2,0.3,1.8
					c0.2,0.1,0.3,0.3,0.3,0.4C537.9,422.7,538.2,423,538.7,423L538.7,423z"/>
			</g>
		</g>
	</g>
	<g id="Calque_6">
		<g>
			<g>
				<path class="st8" d="M530.9,405c0.9,2.4,2.2,4.5,4.2,6.2c0.9,0.8,2,1.5,3.2,2.1c0.6,0.3,1.2,0.6,2,0.8c0.1,0,0.3,0.2,0.3,0.2
					c0.3,0.1,0.3,0.1,0,0c0.2,0.1,0.2,0.1,0,0c-0.4-0.4-0.4-1.1-0.2-1.7c0.2-0.1,0.2-0.1,0,0c-0.1,0.2-0.1,0.2-0.3,0.3
					c-0.2,0.2-0.5,0.4-0.6,0.6c0,0-0.8,0.6-0.5,0.4c-0.3,0.1-0.4,0.3-0.8,0.4c-1,0.8-1.7,1.1-3,1.2c0.5,0-0.4,0-0.4,0
					c-0.2,0-0.9-0.2-0.5,0c-0.6-0.2-1.2-0.3-1.8-0.6c-1.4-0.4-2.6-0.9-4.1-1.1c-1.2-0.1-2.2,1.1-2.2,2.2c0,1.4,1.1,2.1,2.2,2.2
					c0,0,0.5,0,0.2,0c-0.3,0,0.3,0,0.3,0c0.3,0,0.5,0.2,0.8,0.2c0.6,0.1,1.2,0.4,1.7,0.6c1.1,0.4,2.2,0.8,3.5,0.8
					c2.4,0,4.6-0.9,6.6-2.2c0.9-0.8,1.8-1.3,2.5-2.2c1.2-1.3,1.5-3,0.2-4.3c-0.8-0.9-1.9-1.2-3-1.5c-0.4-0.2,0.2,0.1-0.3-0.2
					c-0.2-0.1-0.5-0.1-0.6-0.3c-0.4-0.3-0.9-0.4-1.2-0.8c-0.2-0.1,0,0,0,0c-0.2-0.1-0.3-0.1-0.5-0.3c-0.1-0.1-0.4-0.4-0.6-0.6
					c-0.2-0.1-0.3-0.3-0.4-0.6c-0.2-0.2-0.6-0.6-0.3-0.3c-0.3-0.4-0.6-0.9-0.9-1.4c-0.1-0.1-0.3-0.4-0.3-0.6c0,0-0.2-0.4-0.2-0.2
					c0.2,0.3-0.2-0.3-0.2-0.3c-0.4-1.1-1.5-1.9-2.7-1.5C531.3,402.6,530.4,403.8,530.9,405L530.9,405z"/>
			</g>
		</g>
		<g>
			<g>
				<path class="st8" d="M538.7,415c-0.8,1.5-0.6,3.2,0.6,4.5c0.8,0.9,1.6,1.5,2.5,2.1c0.5,0.3,0.9,0.6,1.3,0.9
					c0.3,0.2,0.5,0.3,0.8,0.6c-0.3-0.3,0,0.1,0.2,0.1c-0.2-0.1-0.3-0.4-0.3-0.8c0.1-0.6,0.3-0.8,0-0.4c0.1-0.1,0.1-0.1,0,0l-0.2,0.2
					c-0.3,0.3-0.6,0.6-1.1,0.9c-0.1,0.2-0.1,0.2,0.2,0c-0.2,0-0.2,0.2-0.3,0.2c-0.2,0.1-0.5,0.3-0.6,0.4c-0.3,0.1-0.8,0.4-1.2,0.6
					c-0.6,0.3,0.4-0.1-0.2,0c-0.3,0.2-0.4,0.2-0.8,0.3c-0.4,0.2-0.9,0.3-1.2,0.3c0,0-0.8,0.2-0.5,0.2c0.3,0-0.3,0-0.4,0
					c-0.5,0-0.9,0-1.4,0c-0.3,0-0.4,0-0.8,0c0.6,0,0,0-0.1,0c-0.5-0.2-0.9-0.2-1.4-0.3c-1-0.3-2.5,0.4-2.7,1.5
					c-0.3,1.2,0.3,2.4,1.5,2.7c4,1.3,8.7,0.4,12.2-1.9c0.9-0.8,1.9-1.5,2.5-2.6c0.9-1.5,0.6-3.3-0.6-4.5c-0.9-0.9-2.1-1.5-3.2-2.2
					c-0.3-0.2-0.4-0.3-0.8-0.6c-0.2-0.1-0.2-0.1,0,0c-0.2-0.1-0.2-0.1-0.3-0.3c-0.2-0.1-0.2-0.1-0.3-0.3c0.2,0.2,0.2,0.2,0,0
					c0.2,0.3,0.2,0.4,0,0.8c0.6-1.1,0.3-2.6-0.8-3.1C540.8,413.7,539.3,414,538.7,415L538.7,415z"/>
			</g>
		</g>
		<g>
			<g>
				<path class="st8" d="M528.5,429.9c4.8,5.7,12,11.8,20.1,11.2c2.1-0.2,4.4-0.8,6.2-1.9c1.3-0.9,3-2.2,2.6-4.1
					c-0.3-1.1-1.2-1.5-2.1-1.9c-1.3-0.8-2.7-1.4-3.9-2.2c-2.2-1.5-4.1-3.6-5-6.2c-0.9-2.7-5.2-1.6-4.3,1.2c1.5,4.7,5.1,7.9,9.2,10.2
					c0.4,0.3,1,0.6,1.5,0.8c0.3,0.2,0.4,0.3,0.8,0.4c0.8,0.3,0.1,0.4-0.5-0.6c-0.2-0.4-0.3-1.4-0.3-1.5c0-0.2,0.3-0.6,0.1-0.3
					c0.5-0.6,0.2-0.2,0,0c-0.1,0-0.1,0.1-0.3,0.1c-0.3,0.3,0.4-0.3,0,0c-0.3,0.2-0.6,0.3-0.8,0.4c-0.2,0.2-0.3,0.2-0.5,0.3
					c-0.4,0.3,0.3,0-0.1,0.2c-0.3,0.1-0.8,0.3-1.1,0.3c-0.2,0-0.4,0.1-0.6,0.1s-0.3,0-0.3,0c-0.6,0.2,0.5,0-0.1,0
					c-2.4,0.3-4.4-0.1-6.6-1.2c-4.2-1.9-7.6-5.2-10.5-8.8c-0.8-0.9-2.4-0.8-3.1,0C527.6,427.6,527.7,428.8,528.5,429.9L528.5,429.9z
					"/>
			</g>
		</g>
	</g>
	<g id="Calque_8">
	</g>
</g>
</svg>
