<?xml version="1.0" encoding="utf-8"?>
<!-- Generator: Adobe Illustrator 25.4.1, SVG Export Plug-In . SVG Version: 6.00 Build 0)  -->
<svg version="1.1" id="Calque_1" xmlns="http://www.w3.org/2000/svg" xmlns:xlink="http://www.w3.org/1999/xlink" x="0px" y="0px"
	 viewBox="0 0 898 898" style="enable-background:new 0 0 898 898;" xml:space="preserve">
<style type="text/css">
	.st0{fill:#00A23D;stroke:#013D3D;stroke-width:6;stroke-miterlimit:10;}
	.st1{fill:#FFC3AB;}
	.st2{fill:#00A23D;}
	.st3{fill:none;stroke:#013D3D;stroke-width:6;stroke-miterlimit:10;}
	.st4{fill:#F5EDF2;}
	.st5{opacity:0.7;}
	.st6{fill:#FFFFFF;}
	.st7{opacity:0.3;}
	.st8{fill:#013D3D;}
	.st9{fill:none;stroke:#000072;stroke-width:10.4446;stroke-linecap:round;stroke-linejoin:round;stroke-miterlimit:10;}
	.st10{opacity:0.29;fill:#FFFFFF;enable-background:new    ;}
	.st11{fill:url(#SVGID_1_);}
	.st12{fill:#DCE6EB;}
</style>
<g id="Calque_5">
</g>
<g id="Calque_3">
</g>
<g>
	<g id="Calque_2_00000124855205564310280240000017668088786747681461_">
		<g>
			<path class="st0" d="M771.5,560c0,10.6-4.8,36-48,43.8c-0.8,0.2-1.6,0.2-2.6,0.2c-6.2,0-13-3.2-18.4-6.4s-9.2-6.4-9.4-6.8
				c-0.8-0.8-1.2-2-1-3c0.2-1.2,1.2-2,2.4-2.2c1-0.2,1.8-0.4,2.8-0.4c-1-0.8-1.8-1.8-2.4-2.8c-12.8,4.8-34.4,8.4-53.2,10.8
				c-19.6,2.4-36.2,3.6-36.2,3.6l36.2-44l29.8-36c16-18,47,21,49,11c6-14,24-8.4,24.2-8.4C758.7,522.4,771.5,541.6,771.5,560z"/>
		</g>
		<g>
			<path class="st1" d="M735.5,519c6.4-1.6,16,6,22.4,12.6c6.6,6.6,23.6,37.4,2.8,50.6c-0.6-5,0.6-10.2,0.6-15.2
				c0.2-10-4-20-10.8-27.2c-7-7.2-16.6-11.6-26.6-12.6c-0.6-2.2-2.8-6.4,3.4-6.2"/>
		</g>
		<path class="st2" d="M771.5,560c0,10.6-4.8,36-48,43.8c-0.8,0.2-1.6,0.2-2.6,0.2c-6.2,0-13-3.2-18.4-6.4s-9.2-6.4-9.4-6.8
			c-0.8-0.8-1.2-2-1-3c0.2-1.2,1.2-2,2.4-2.2c1-0.2,1.8-0.4,2.8-0.4c-1-0.8-1.8-1.8-2.4-2.8c-12.8,4.8-34.4,8.4-53.2,10.8V553
			l29.8-36c16-18,47,21,49,11c6-14,24-8.4,24.2-8.4C758.7,522.4,771.5,541.6,771.5,560z"/>
		<path class="st3" d="M694.5,585.8c1-0.2,1.8-0.2,2.8-0.4c-1-0.8-1.8-1.8-2.4-2.8c-26,10-89.4,14.4-89.4,14.4l66-80
			c16-18,47,21,49,11c6-14,24-8.4,24.2-8.4c14.2,2.6,27,21.8,27,40.2c0,10.6-4.8,36-48,43.8c-0.8,0.2-1.8,0.2-2.6,0.2l0,0
			c-12.4,0-27.2-12.4-27.8-13c-0.8-0.8-1.2-2-1-3S693.3,586,694.5,585.8z"/>
		<g>
			<g>
				<path class="st1" d="M621.3,594.4c25.8-0.6,51.2-5,75.8-12.8c3.6-1.2,2-7-1.6-5.8c-24,7.8-49,12-74.2,12.6
					C617.5,588.6,617.5,594.6,621.3,594.4L621.3,594.4z"/>
			</g>
		</g>
		<g>
			<g>
				<path class="st1" d="M630.5,589.2c5.2-8.6,16.6-9,25.4-9c11.2,0.2,22.2,0.4,33.4,0.6c-0.2-2-0.6-4-0.8-5.8
					c-15.6,5.8-32,8.4-48.6,7.6c0.2,2,0.6,4,0.8,5.8c10-1.8,20-3.6,30.2-3.6c3.8,0,3.8-6,0-6c-12.8,0-25.8,1.6-38,5.6
					c0.8,1.8,1.6,3.6,2.4,5.4c4.6-2.8,9.6-4.2,15-4.2c3.8,0,3.8-6,0-6c-6.4-0.2-12.6,1.6-18,5c-2.8,1.8-1,6.6,2.4,5.4
					c11.8-3.8,24-5.2,36.4-5.4c0-2,0-4,0-6c-10.8,0-21.2,2-31.8,3.8c-3.4,0.6-2.4,5.8,0.8,5.8c17,0.8,34.2-1.8,50.2-7.8
					c3-1.2,2.8-5.8-0.8-5.8c-12.4-0.2-24.8-0.6-37.2-0.6c-10.2,0.2-21.2,2.6-27,11.8C623.1,589.4,628.3,592.4,630.5,589.2
					L630.5,589.2z"/>
			</g>
		</g>
	</g>
	<g>
		<g>
			<g>
				<g>
					<g>
						<g>
							<g>
								<g>
									<g>
										<g>
											<path class="st2" d="M765.9,309.6c-3.8-124.8-85.4-147.4-85.4-147.4c-50-64-134.8-25.4-136.2-24.8l0,0l0,0
												c-59-32.2-92.8,25.4-92.8,25.4l0,0c-82.8,21-104.6,73.4-100.4,106.8c2,15.6,9.4,27,19.2,29.4c0.4,0.2,0.8,0.2,1.2,0.2
												c-8.6,6.2-14.2,23.4-16,29.8c0,0,5.6,11.6,18,27.6c15.4,20.2,41.4,47.4,79.8,68l-0.4-0.2c-3.4-1.4-24.8-9.2-57-10.6
												c-38-1.6-91.2,6.2-148.2,44.6c-8,5.4-17.4,8.4-27,8.6c-32.4,1.2-105.2-1.6-151.8-45.2c0,0,2.8,90,80,152.8
												c34,27.6,82.4,50,151.4,57h1.6c4.4,8.2,11,15.6,20.8,21c0,0-17.2,63.6,36.4,85.4c-4-17.6,13.8-30,13.8-30
												c12.2,0.4,20.2,5.6,25.2,12.6c0,0,7.8-22.4,28.2-26.6c4-0.8,8.2,0.2,12.2,2.8c0,0,2-3,5.6-6c2.6-2.4,6.2-4.8,10.4-6.4
												l-0.8-2.4c-6.6-6-13-7.6-18.6-7.8c-7.4-0.2-13,2-15.6,0c-4.4-3.4-10-14.8-10-14.8c4-4,7.8-7.8,11.2-11.6
												c23.2,3.2,44.8,3.2,64.6,0.8c36.6-4.2,67.8-16.4,94-32.4c9.4-5.8,18.2-12,26.4-18.6c6.4-5,12.2-10.4,17.8-15.6
												c5.8-5.6,11.4-11.4,16.4-17.2c13.4-15,24.2-30.2,32.6-43.6c1.4-2.2,2.6-4.2,3.8-6.4c13.6-22.6,19.8-38.8,19.8-38.8
												S769.7,434.4,765.9,309.6z M467.9,372.4c-12.6-20-14.2-40-14.4-43c0-0.2,0-0.4,0-0.4c2.8,1.4,5.6,2.8,8.8,4.4
												c0.2,0.2,0.6,0.2,0.8,0.4c0.4,0.2,1,0.4,1.4,0.8c1.6,0.8,3.2,1.6,5,2.4c0.6,0.4,1.4,0.6,2,1c0.2,0,0.4,0.2,0.6,0.2
												c2.4,1.2,4.6,2.2,7,3.2h0.2c3.8,1.6,7.6,3.2,11.4,4.6C484.5,365,467.9,372.4,467.9,372.4z M506.3,595
												C506.3,595.2,506.3,595.2,506.3,595c-1,4.2-4,12.8-14.6,16.2c-0.4-0.4-1-0.6-1.4-1l0,0c-10.2-8.8-3.4-24.2-2.2-26.4v-0.2
												l0,0l0,0l0,0c0.6,0.4,8.6,7,14,9c1.8,0.8,3.4,1,4.2,0.4C506.5,593,506.5,593.8,506.3,595z M553.3,385.4
												c-14.8-15.6-16.6-28.2-16.6-28.2c0.4,0,0.8,0.2,1.2,0.2c13.4,1.8,25.2,2,34,1.6C568.9,373.2,553.3,385.4,553.3,385.4z"/>
										</g>
									</g>
								</g>
							</g>
							<g>
								<g>
									<g>
										<path class="st2" d="M586.3,653c-3.6,3.2-5.4,7-6.2,9c-1.6-0.2-2.6-0.2-2.6-0.2c-13.8,9.2-18.8,22.8-18.8,22.8l0,0
											c-18.2,1.2-21.6,22.6-21.6,22.6c-51.8-7.2-51.4-58.6-51.4-58.6l0,0c36.6-4.2,67.8-16.4,94-32.4c0,0-1.8,11.6-7,22
											C572.7,637.8,584.3,642.4,586.3,653z"/>
									</g>
								</g>
							</g>
						</g>
						<g>
							<g>
								<g>
									<g>
										<path class="st4" d="M506.5,593c0,0-1,13.8-14.8,18.4c-13.2-9.4-3.6-27.8-3.6-27.8S502.7,595.6,506.5,593z"/>
									</g>
								</g>
							</g>
							<g>
								<g>
									<g>
										<g>
											<g>
												<path class="st4" d="M392.1,770.4c-9.6-16.4-23.4-8.4-31.6-28.2c-0.6-1.4-1-3-1.4-4.4c-4-17.6,13.8-30,13.8-30
													c12.2,0.4,20.2,5.6,25.2,12.6c2.8,4,4.6,8.6,5.6,13.6C408.1,755.4,397.9,780.4,392.1,770.4z"/>
											</g>
										</g>
									</g>
									<g>
										<g>
											<g>
												<path class="st4" d="M452.5,764.6c0,0-12.8-31.6-48.8-30.6c-1-4.8-2.8-9.6-5.6-13.6c0,0,7.8-22.4,28.2-26.6
													c4-0.8,8.2,0.2,12.2,2.8c9.6,5.8,18.6,19.6,21.2,34.6C461.9,742.6,460.1,754.6,452.5,764.6z"/>
											</g>
										</g>
									</g>
									<g>
										<g>
											<g>
												<path class="st4" d="M500.3,715.6c0,0-29.2-2.8-40.6,15.6c-2.6-15-11.6-28.6-21.2-34.6c0,0,6.2-9,16-12.4
													c1.8-0.6,3.8-1.2,6-1.4C473.9,681.8,499.3,702.6,500.3,715.6z"/>
											</g>
										</g>
									</g>
									<g>
										<g>
											<g>
												<path class="st4" d="M639.5,707c0,0-21-8.6-32.2-6.4c-10,2-17.2-3.6-18.6-4.8l-0.2,0.2c-4-3.4-9.2-6.6-15.8-9
													c-5.4-2-10-2.8-14-2.4l0,0c0,0,5.2-13.4,18.8-22.8c0,0,1,0,2.6,0.2c7.4,1,29.2,4.8,44.8,20
													C631.3,688.2,636.7,696.4,639.5,707z"/>
											</g>
										</g>
									</g>
									<g>
										<g>
											<g>
												<path class="st4" d="M649.3,679.2l-23.4,3.8l-1-1c-15.6-15.4-37.4-19.2-44.8-20c0.8-2,2.6-5.8,6.2-9
													c4.2-3.8,10.8-6.6,21-4.6C629.7,653,649.3,679.2,649.3,679.2z"/>
											</g>
										</g>
									</g>
									<g>
										<g>
											<g>
												<path class="st4" d="M602.1,723c0,0-17-9.2-26.8-9.6c-19.4-0.6-38.2-6.4-38.2-6.4s3.4-21.4,21.6-22.6
													c4-0.2,8.6,0.4,14,2.4c6.6,2.6,11.8,5.6,15.8,9C602.7,708,602.1,723,602.1,723z"/>
											</g>
										</g>
									</g>
								</g>
							</g>
						</g>
						<g>
							<g>
								<g>
									<path class="st4" d="M639.5,707c0,0-21-8.6-32.2-6.4c-10,2-17.2-3.6-18.6-4.8l-0.2,0.2c-4-3.4-9.2-6.6-15.8-9
										c-5.4-2-10-2.8-14-2.4l0,0c0,0,5.2-13.4,18.8-22.8c0,0,1,0,2.6,0.2c7.4,1,29.2,4.8,44.8,20
										C631.3,688.2,636.7,696.4,639.5,707z"/>
								</g>
							</g>
						</g>
						<g>
							<g>
								<g>
									<g>
										<path class="st1" d="M301.9,631.6h-1.6c-69-7-117.4-29.4-151.4-57c26.6,11.2,77.6,26.2,145.6,15
											C294.7,589.8,292.9,614,301.9,631.6z"/>
									</g>
								</g>
							</g>
							<g>
								<g>
									<g>
										<path class="st1" d="M677.1,514.4c-1.2,2-2.6,4.2-3.8,6.4c-11.6,18.6-27.8,40.4-49.2,60.8c-5.6,5.4-11.6,10.6-17.8,15.6
											c-8.2,6.6-17,12.8-26.4,18.6c-26.2,16-57.4,28.2-94,32.4c-20,2.2-41.4,2.2-64.6-0.8c0,0,44-41.2,27.4-94.2
											c0,0,18.4-0.2,28.6-11.8c0,0,15,21.8,26.2,27.4c10.8,5.6,3.8,24.8,3.2,26.2l0,0l-4-2.6l-14-9l0,0l0,0l0,0v0.2
											c-1,2.4-7,17.6,2.2,26.4l0,0c4,3.8,10.8,6.4,22.2,6.4c40-0.4,64.4-20.4,49.2-75.2c0,0-3.2-36.2-13.2-50
											c0,0,59.4-61.8,103.8-38.8C670.3,461.8,676.3,487.2,677.1,514.4z"/>
									</g>
								</g>
							</g>
						</g>
						<g>
							<g>
								<g>
									<path class="st1" d="M453.3,421.8l-0.4-0.2c-3.4-1.4-24.8-9.2-57-10.6c-38-1.6-91.2,6.2-148.2,44.6c-8,5.4-17.4,8.4-27,8.6
										c-32.4,1.2-105.2-1.6-151.8-45.2c0,0,18.8,59.6,153.4,59c15.8,0,31.2-4.6,44.4-13c3.2-2,6.8-4.2,11-6.4
										c1.8-1,3.8-1.2,5.8-0.8c9,1.8,26.8-0.6,46.4-6.4c22-6.6,39.6-15.8,44.2-22.6c1.4-2,3.6-3.2,6-3.6
										C401.7,422,426.1,420.6,453.3,421.8z"/>
								</g>
							</g>
						</g>
						<g class="st5">
							<g>
								<g>
									<path class="st1" d="M420.9,516.6c0,0,43.8,64.6-11.2,142.6C409.7,659.2,499.5,578.6,420.9,516.6z"/>
								</g>
							</g>
						</g>
						<g class="st5">
							<g>
								<g>
									<path class="st6" d="M514.7,616.4c-1-1.6-2.2-3.2-3.2-5c2.8,0,5.8,0,8.8-0.2l4.8-0.4l4.6-0.6c1.6-0.2,3-0.6,4.4-1
										s2.8-1,4.4-1.4c2.8-1.2,5.4-2.4,7.8-4.2c1.2-0.8,2.2-1.8,3.4-2.6c0.6-0.4,1-1,1.6-1.6c0.4-0.6,1-1,1.4-1.6
										c3.6-4.4,5.8-10,7-16s1.4-12.4,0.8-18.6c-0.2-3.2-0.8-6.4-1.4-9.4c-0.4-1.6-0.6-3.2-1-4.6c-0.4-1.6-0.8-3.2-1.2-4.4
										c-0.2-0.4-0.2-0.8-0.2-1.2v-0.4c0-1.6-0.2-3.2-0.2-4.8s0-3.2-0.4-4.8l-0.6-4.6c-0.2-1.6-0.6-3-0.8-4.6
										c-0.4-3.2-1.4-6.2-2.2-9.2c-0.4-1.6-1-3-1.4-4.6c-0.2-0.8-0.4-1.6-0.8-2.2l-0.8-2.2c-2.2-6-5-11.8-8.2-17.4
										c-0.4-0.6-0.8-1.4-1.2-2c1.4-0.8,2.6-1.8,4-2.6c18.2,26,17.8,57.6,17.8,57.6C578.5,608.4,539.7,617.2,514.7,616.4z"/>
								</g>
							</g>
						</g>
						<g>
							<g>
								<g>
									<path class="st1" d="M696.9,475.6c111.4-200.4,6.6-279.4-25-297.6c-5-3-9.6-6.8-13.2-11.4
										c-32.4-40.2-112.8-29.4-114.4-29.2l0,0l0,0c1.4-0.6,86.2-39.2,136.2,24.8c0,0,81.6,22.8,85.4,147.4
										C769.7,434.4,696.9,475.6,696.9,475.6z"/>
								</g>
							</g>
						</g>
						<g>
							<g>
								<g class="st7">
									<g>
										<g>
											<path class="st8" d="M517.7,642.4c-10.2,2.6-20.8,4.6-32,6l0,0c0,0-0.4,51.6,51.4,58.6c0,0,3.2-19.6,19.4-22.4
												C530.5,677,521.1,656.4,517.7,642.4z"/>
										</g>
									</g>
								</g>
								<g>
									<g class="st7">
										<g>
											<g>
												<path class="st8" d="M438.5,696.8c-4-2.4-8.2-3.6-12.2-2.8c-20.4,4.2-28.2,26.6-28.2,26.6c-4.8-7.2-12.8-12.2-25.2-12.6
													c0,0-17.8,12.4-13.8,30c-53.6-21.6-36.4-85.4-36.4-85.4c-10-5.4-16.6-12.8-20.8-21h-1.6c-69-7-117.4-29.4-151.4-57
													c-77.2-62.8-80-152.8-80-152.8S92.5,555,260.7,596c7.6,1.8,15.6-1.4,19.6-8.2c5-8.2,12.2-18.2,18.8-20.8
													c0,0,2.2,53.2,31.8,74c7,5,10.8,13.2,9.8,21.8c-1,9-0.6,20.4,5.2,31c3,5.2,10,6.4,14.4,2.2c2-1.8,4.2-3.8,6.6-5.2
													c4-2.6,12.2,1.8,18.2,6.2c4.2,3,9.8,2,12.8-2.2c4.8-6.6,13.8-14,27.8-11.2C426.1,684,439.5,687.4,438.5,696.8z"/>
											</g>
										</g>
									</g>
									<g class="st7">
										<g>
											<g>
												<path class="st8" d="M640.5,564.4c-5.2,5.8-10.6,11.4-16.4,17.2c-5.6,5.4-11.6,10.6-17.8,15.6
													c-8.2,6.6-17,12.8-26.4,18.6c-26.2,16-57.4,28.2-94,32.4c-20,2.2-41.4,2.2-64.6-0.8c0,0,70-70.8,0-131
													c1.4,0.6,52.2,22,44.6,90C460.5,653.6,570.5,620.6,640.5,564.4z"/>
											</g>
										</g>
									</g>
									<g class="st7">
										<g>
											<g>
												<path class="st8" d="M477.7,483.2c0,0-33.2,56.6,7.2,84c0,0,1.4,2.8-2.6,8.8c-3.8,6-7,32.8,13.4,37.8
													c0,0,25.2-18.4,10.8-41.8c0,0-7-8.2-13.2-9.8C487.3,560.6,457.7,526.2,477.7,483.2z"/>
											</g>
										</g>
									</g>
									<g class="st7">
										<g>
											<g>
												<path class="st8" d="M518.7,468.2c-40-1.4-86.2-13.8-122.6-54.4c32.2,1.2,53.6,9.2,57,10.6l0.2,0.2h0.2
													c0,0,37.8,18,55.4,21.4l12.4,3C532.7,451.8,530.3,468.6,518.7,468.2z"/>
											</g>
										</g>
									</g>
									<g class="st7">
										<g>
											<g>
												<path class="st8" d="M614.3,353.4c-15.6,1.2-28.4,1.6-36.2,1.8c-29-5.2-101.6-20.6-135-46.4
													c-42.2-32.6-76.4-16.8-77.2-39c-1-22.4-7.2-69.6,104.6-111l-19,4.2c-82.8,21-104.6,73.4-100.4,106.8
													c2,15.6,9.4,27,19.2,29.4l1.2,0.2c-8.6,6.2-14.2,23.4-16,29.8c0,0,5.6,11.6,18,27.6c0-12.2,2.8-25.2,14-27.6
													c17.2-4,39.4,9.8,47.8,15.6c2.2,1.4,3.8,3.4,5.2,5.6c3.8,6.8,13,23,20.4,31.2c2.4,2.6,6,3.6,9.4,2.4
													c5.4-1.8,13.8-6,21-14.8c3.2-4,8.6-5.6,13.6-4.2c5.6,1.6,12.8,3.8,19,5.2c3,0.8,5.8,2.6,7.6,5.2
													c3.4,5,8.8,15.8,16.8,21.8c2.4,1.8,5.6,2,8.2,0.8c4.6-2.4,12.6-7.4,20-17.2c5.4-7.2,13.2-12.2,22-13.8
													c6-1.2,12-2.4,17.8-4C621.7,361.6,620.3,353,614.3,353.4z M371.7,299.2c0.2,0,0.2,0,0.4,0
													C371.9,299.2,371.7,299.2,371.7,299.2z"/>
											</g>
										</g>
									</g>
									<g class="st7">
										<g>
											<g>
												<circle class="st8" cx="394.3" cy="218.8" r="10"/>
											</g>
										</g>
									</g>
									<g class="st7">
										<g>
											<g>
												<circle class="st8" cx="505.7" cy="241.8" r="10.8"/>
											</g>
										</g>
									</g>
									<g class="st7">
										<g>
											<g>
												<path class="st8" d="M579.9,243.4c0,0,45.6-20.2,62.8,13.8c0,0-0.8-36.2-25.6-36.2C592.3,221,579.9,243.4,579.9,243.4z"
													/>
											</g>
										</g>
									</g>
								</g>
							</g>
							<g>
								<g class="st7">
									<g>
										<g>
											<path class="st8" d="M373.3,736.6c-0.6-1.4-1-3-1.4-4.4c-2.2-10,2.6-18.4,7.2-23.6c-1.8-0.4-3.8-0.6-6-0.6
												c0,0-17.8,12.4-13.8,30c0.4,1.4,0.8,2.8,1.4,4.4c8.4,19.8,22,11.8,31.6,28.2c3.2,5.6,7.8,0.4,10.4-9
												C393.1,749.4,380.9,754.8,373.3,736.6z"/>
										</g>
									</g>
								</g>
								<g class="st7">
									<g>
										<g>
											<path class="st8" d="M410.7,715.2c-1-2.4-2-4.6-3.4-6.6c0,0,1-2.6,3-6.2c-8.6,8-12.2,18-12.2,18c2.8,4,4.6,8.6,5.6,13.6
												c36-1,48.8,30.6,48.8,30.6c3.8-4.8,6-10.2,7.2-15.8c-4.4-7.6-16.4-24.2-39.8-26.4C415.7,722,412.3,719.2,410.7,715.2z"/>
										</g>
									</g>
								</g>
								<g>
									<g class="st7">
										<g>
											<g>
												<path class="st8" d="M450.1,690.8c0,0,2.4-3.6,6.8-7.2c-0.8,0.2-1.6,0.4-2.4,0.6c-10,3.6-16,12.4-16,12.4
													c9.6,5.8,18.6,19.6,21.2,34.6c2.8-4.4,6.6-7.6,10.6-10C467.1,708,458.9,696,450.1,690.8z"/>
											</g>
										</g>
									</g>
								</g>
								<g class="st7">
									<g>
										<g>
											<path class="st8" d="M594.7,706.8c-19.4-0.6-38.2-6.4-38.2-6.4s1.4-9,7.4-15.6c-1.8-0.2-3.6-0.4-5.4-0.2
												c-18.2,1.2-21.6,22.6-21.6,22.6s18.8,5.8,38.2,6.4c10,0.4,26.8,9.6,26.8,9.6s0.2-7.4-4.4-16
												C596.7,707,595.7,706.8,594.7,706.8z"/>
										</g>
									</g>
								</g>
								<g class="st7">
									<g>
										<g>
											<path class="st8" d="M612.9,689c-10,2-17.2-3.6-18.6-4.8l-0.2,0.2c-4-3.4-9.2-6.6-15.8-9c-4.8-1.8-8.8-2.6-12.4-2.6
												c-5,6.4-7,11.6-7,11.6l0,0c4-0.2,8.6,0.4,14,2.4c6.6,2.6,11.8,5.6,15.8,9l0.2-0.2c1.4,1.2,8.6,6.8,18.6,4.8
												c11.2-2.2,32.2,6.4,32.2,6.4c-1.6-6.2-4.2-11.4-7.2-16C625.9,689.4,618.1,687.8,612.9,689z"/>
										</g>
									</g>
								</g>
								<g class="st7">
									<g>
										<g>
											<path class="st8" d="M632.5,673.4l-3.4,0.2c-14.8-14.6-35.2-18.8-43.6-20c-3,3-4.8,6.4-5.4,8.4c7.4,1,29.2,4.8,44.8,20
												l1,1l23.4-3.8c0,0-2.2-3-6.2-7.2L632.5,673.4z"/>
										</g>
									</g>
								</g>
							</g>
						</g>
						<g>
							<g>
								<g>
									<g>
										<g>
											<g>
												<path class="st6" d="M371.5,299.2c-8.6,6.2-14.2,23.4-16,29.8c-0.4,1.4-0.6,2.2-0.6,2.2c-18-24.4-3.8-61.6-3.8-61.6
													C353.1,285.8,361.3,297.6,371.5,299.2z"/>
											</g>
										</g>
									</g>
									<g>
										<g>
											<g>
												<path class="st6" d="M490.5,346c-6.2,19-22.6,26.4-22.6,26.4c-13.6-21.4-14.4-42.6-14.4-43.4c5.6,2.8,11.6,5.8,18.6,9.2
													C478.3,341.2,484.5,343.6,490.5,346z"/>
											</g>
										</g>
									</g>
									<g>
										<g>
											<g>
												<path class="st6" d="M571.9,359c-2.8,14.2-18.6,26.4-18.6,26.4c-14.8-15.6-16.6-28.2-16.6-28.2
													C550.5,359,562.7,359.4,571.9,359z"/>
											</g>
										</g>
									</g>
								</g>
								<g>
									<g>
										<g class="st7">
											<g>
												<g>
													<path class="st8" d="M361.3,293.6c-6.2,6.2-10.6,18-12.8,24.8c1.4,4.4,3.4,8.8,6.4,12.8c0,0,0.2-0.8,0.6-2.2
														c1.8-6.2,7.4-23.6,16-29.8C367.7,298.6,364.3,296.6,361.3,293.6z"/>
												</g>
											</g>
										</g>
									</g>
									<g class="st7">
										<g>
											<g>
												<path class="st8" d="M479.7,341.6c-4.4,11-12.4,17.6-17.2,21c1.6,3.2,3.4,6.6,5.4,9.8c0,0,16.6-7.4,22.6-26.4
													C486.9,344.6,483.3,343.2,479.7,341.6z"/>
											</g>
										</g>
									</g>
									<g class="st7">
										<g>
											<g>
												<path class="st8" d="M560.9,359c-2.8,8.2-9.4,15.4-13.6,19.4c1.6,2.2,3.6,4.6,5.8,7c0,0,15.6-12.2,18.6-26.4
													C568.5,359.2,564.9,359.2,560.9,359z"/>
											</g>
										</g>
									</g>
								</g>
							</g>
							<g>
								<g class="st5">
									<g>
										<g>
											<path class="st6" d="M403.5,734c-1-4.8-2.8-9.6-5.6-13.6c-4.8-7.2-12.8-12.2-25.2-12.6c0,0-2.4,1.6-5.2,4.6
												c10.4,1.2,17.6,6,22,12.4c2.8,4,4.6,8.6,5.6,13.6c2.4,12,0.4,25-2.8,32.4C398.3,779.6,407.9,755,403.5,734z"/>
										</g>
									</g>
								</g>
								<g class="st5">
									<g>
										<g>
											<path class="st6" d="M459.7,731.2c-2.6-15-11.6-28.6-21.2-34.6c-4-2.4-8.2-3.6-12.2-2.8c-7.8,1.6-13.8,5.8-18.2,10.4
												c2.8-1.6,6.2-3,9.8-3.8c4-0.8,8.2,0.2,12.2,2.8c9.6,5.8,18.6,19.6,21.2,34.6c1.2,7.4,1,15-1.4,22
												c1.6,2.8,2.4,4.6,2.4,4.6C460.1,754.6,461.9,742.6,459.7,731.2z"/>
										</g>
									</g>
								</g>
								<g class="st5">
									<g>
										<g>
											<path class="st6" d="M460.5,683c-2.2,0.2-4.2,0.6-6,1.4c-10,3.6-16,12.4-16,12.4c0.4,0.2,1,0.6,1.4,0.8
												c2.4-2,5.6-4,9-5.2c1.8-0.6,3.8-1.2,6-1.4c10.8-1,29.4,12.4,36.6,24.4c5.2-0.4,8.6,0,8.6,0
												C499.3,702.6,473.9,681.8,460.5,683z"/>
										</g>
									</g>
								</g>
								<g class="st5">
									<g>
										<g>
											<path class="st6" d="M588.5,696c-4-3.4-9.2-6.6-15.8-9c-5.4-2-10-2.8-14-2.4c-11,0.8-16.6,9-19.4,15.2
												c3.2-3.6,7.8-6.6,14.2-7.2c4-0.2,8.6,0.4,14,2.4c6.6,2.6,11.8,5.6,15.8,9c5.8,5,9.2,10.4,11.2,15.2
												c4.4,2,7.6,3.8,7.6,3.8S602.7,708,588.5,696z"/>
										</g>
									</g>
								</g>
								<g class="st5">
									<g>
										<g>
											<path class="st6" d="M572.5,669.8c0,0,1,0,2.6,0.2c7.4,1,29.2,4.8,44.8,20c3.8,3.8,7.4,8.2,10.2,13.6
												c5.6,1.6,9.6,3.4,9.6,3.4c-3-10.6-8.4-18.8-14.6-25c-15.6-15.4-37.4-19.2-44.8-20c-1.6-0.2-2.6-0.2-2.6-0.2
												c-10.4,7-15.8,16.4-17.8,20.6C562.7,678.2,566.9,673.6,572.5,669.8z"/>
										</g>
									</g>
								</g>
								<g class="st5">
									<g>
										<g>
											<path class="st6" d="M582.3,660.2c4.2-3.8,10.8-6.6,21-4.6c15.6,3.2,29.8,17,37,25l9-1.4c0,0-19.6-26.2-42-30.8
												c-10.2-2.2-16.8,0.8-21,4.6c-3.6,3.2-5.4,7-6.2,9c0.2,0,0.2,0,0.4,0C581.1,661.4,581.7,660.8,582.3,660.2z"/>
										</g>
									</g>
								</g>
							</g>
						</g>
						<g>
							<g>
								<g>
									<g>
										<circle class="st1" cx="334.7" cy="489" r="25"/>
									</g>
								</g>
							</g>
							<g>
								<g>
									<g>
										<ellipse class="st1" cx="692.6" cy="328.9" rx="25" ry="25"/>
									</g>
								</g>
							</g>
							<g>
								<g>
									<g>
										<ellipse class="st1" cx="375.4" cy="471.1" rx="13.8" ry="13.8"/>
									</g>
								</g>
							</g>
							<g>
								<g>
									<g>
										<circle class="st1" cx="706.5" cy="278.6" r="13.8"/>
									</g>
								</g>
							</g>
							<g>
								<g>
									<g>
										<circle class="st1" cx="176.5" cy="502.8" r="13.8"/>
									</g>
								</g>
							</g>
							<g>
								<g>
									<g>
										<ellipse class="st1" cx="375.5" cy="505" rx="9.2" ry="9.2"/>
									</g>
								</g>
							</g>
							<g>
								<g>
									<g>
										<ellipse class="st1" cx="409.7" cy="623" rx="9.2" ry="9.2"/>
									</g>
								</g>
							</g>
							<g>
								<g>
									<g>
										<circle class="st1" cx="289.3" cy="477.4" r="5.8"/>
									</g>
								</g>
							</g>
							<g>
								<g>
									<g>
										<circle class="st1" cx="196.1" cy="514.2" r="5.8"/>
									</g>
								</g>
							</g>
							<g>
								<g>
									<g>
										<circle class="st1" cx="402.5" cy="642.4" r="5.8"/>
									</g>
								</g>
							</g>
							<g>
								<g>
									<g>
										<circle class="st1" cx="530.7" cy="508.4" r="5.8"/>
									</g>
								</g>
							</g>
							<g>
								<g>
									<g>
										<circle class="st1" cx="420.9" cy="372.2" r="5.8"/>
									</g>
								</g>
							</g>
						</g>
					</g>
					<g>
						<g>
							<g>
								<g>
									<g>
										<path class="st8" d="M590.5,358.4c-4.6,1.8-9.2,2.8-14,3.8c-2.4,0.4-4.8,0.6-7.2,1c-2.4,0.2-4.8,0.4-7.2,0.6
											c-9.6,0.4-19.2-0.4-28.6-1.6l-7.2-1c-2.4-0.4-4.8-1-7-1.4l-3.6-0.6c-1.2-0.2-2.4-0.6-3.6-0.8l-7-1.8c-2.4-0.6-4.6-1.4-7-2
											l-3.4-1c-1.2-0.4-2.2-0.8-3.4-1.2l-6.8-2.4l-3.4-1.2l-3.4-1.4c-4.4-2-8.8-3.8-13-5.8s-8.4-4-12.8-6.2
											c-8.4-4.2-16.8-8.6-25.2-12.8c-8.2-4.4-16.4-8.8-24.6-11.8c-4-1.4-8.2-2.8-12.4-3.4c-4.2-0.6-8.6-1-13.2-1.2l-3.4-0.2
											c-0.8,0-1.6,0-2.4-0.2s-1.6-0.2-2.4-0.4c-3.2-0.8-6-2.2-8.4-4c-4.8-3.6-8-8.4-10.4-13.4c-4.6-9.8-5.6-20.2-5-30.4
											c0.6-10.2,3.2-20,7.4-29.2c4-9.2,9.6-17.6,16.2-25c13.2-14.8,30-25.6,47.6-33.4c8.8-3.8,18-7,27.2-9.6
											c2.2-0.6,4.6-1.2,7-1.8s4.6-1,7-1.2s4.8-0.4,7.2-0.2s5,0.4,7.4,1.2c0.4,0,0.6,0.4,0.4,0.8c0,0.2-0.2,0.2-0.2,0.4l0,0
											c-2.2,1.6-4.2,2.6-6.4,3.6s-4.4,2-6.6,2.6c-4.4,1.6-8.8,2.6-13.2,4c-8.8,2.6-17.4,5.8-25.6,9.6
											c-16.4,7.6-31.8,18-43.2,31.4c-5.8,6.8-10.6,14.2-14,22.2s-5.6,16.6-6.2,25.2c-0.4,8.6,0.6,17.2,4.2,24.4
											c1.6,3.6,4,6.8,6.6,8.6c1.4,1,2.6,1.6,4,2c0.4,0,0.6,0.2,1,0.2h1.2l3.6,0.2c4.8,0.2,9.8,0.6,14.8,1.4s10,2.2,14.6,4
											c9.4,3.6,17.6,8.2,26,12.6c8.2,4.4,16.6,8.8,24.8,13c4.2,2.2,8.4,4.2,12.4,6.2c4.2,2.2,8.4,4,12.4,5.8l3.2,1.4l3.2,1.2
											l6.4,2.4c1,0.4,2.2,0.8,3.2,1.2l3.2,1c2.2,0.6,4.4,1.4,6.6,2l6.6,1.8c1.2,0.2,2.2,0.6,3.4,0.8l3.4,0.8
											c2.2,0.4,4.4,1,6.8,1.4l6.8,1c18.2,2.6,36.4,3.4,55,4.4l0,0c0.6,0,1.2,0.6,1.2,1.4C591.3,358,591.1,358.4,590.5,358.4z"/>
									</g>
								</g>
							</g>
							<g>
								<g>
									<g>
										<path class="st8" d="M457.3,655.2c-12.6,0-25.4-0.8-38.4-2.6l1.4-10.4c81.6,11.2,152.2-13.4,209.4-73.6
											c43-45.2,62-94.4,62.2-94.8c0.4-1.2,1.2-2,2.4-2.6c0.2,0,17.8-10.4,34.6-35.2c15.6-23,33.8-63.4,31.8-126
											c-1.6-49.4-16.2-89.6-42.2-116.6c-19.6-20.2-39.2-26-39.4-26c-1-0.4-2-1-2.6-1.8c-19.6-25.2-47.4-36.8-82.2-34.6
											c-26.6,1.8-47.4,11.2-47.6,11.4c-1.4,0.6-3.2,0.6-4.6-0.2c-53.8-29.2-84.4,21.2-85.8,23.4l-9-5.2
											c0.4-0.6,36.2-60,97.4-28.6c6.6-2.6,25.4-9.6,48.6-11.2c37.6-2.6,68.8,10.4,90.4,37.2c5.6,1.8,23.6,9,41.8,27.8
											c19.6,20,43.6,57.8,45.6,124c2,65.8-17.4,108.6-34,132.8c-15.4,22.4-31,33.6-36,36.8c-3.8,9.2-23.2,54-63.4,96.4
											c-26.2,27.4-55.6,48.2-87.6,61.6C520.9,649.2,489.9,655.2,457.3,655.2z"/>
									</g>
								</g>
							</g>
							<g>
								<g>
									<g>
										<path class="st8" d="M354.9,336.4c-1.6,0-3.2-0.8-4.2-2.2c-19.4-26.4-5-65-4.4-66.6l9.8,3.8l-4.8-1.8l4.8,1.8
											c-0.2,0.2-9.4,25.4-2.4,46.2c3.2-8,8-18,14.8-22.8l6.2,8.4c-7.4,5.2-13,22.8-14.6,29c-0.4,2-2,3.4-4,3.8
											C355.5,336.4,355.3,336.4,354.9,336.4z"/>
									</g>
								</g>
							</g>
							<g>
								<g>
									<g>
										<path class="st8" d="M467.9,377.6c-1.8,0-3.4-0.8-4.4-2.4c-14.4-22.6-15.2-45-15.2-46c0-2.8,2.2-5.2,5-5.4h0.2
											c2.8,0,5.2,2.2,5.2,5c0,0.2,0.8,17.8,11,36.4c4.6-3.2,12.4-9.8,15.8-20.8c0.8-2.8,3.8-4.2,6.6-3.4
											c2.8,0.8,4.2,3.8,3.4,6.6c-6.8,21-24.8,29.2-25.4,29.6C469.3,377.4,468.7,377.6,467.9,377.6z"/>
									</g>
								</g>
							</g>
							<g>
								<g>
									<g>
										<path class="st8" d="M553.3,390.6c-1.4,0-2.8-0.6-3.8-1.6c-15.6-16.6-18-30.4-18-31l10.4-1.6c0,0.2,1.8,9.4,12,21.6
											c4.4-4.2,11.4-12,13-20.2l10.2,2c-3.2,15.8-19.8,29-20.4,29.6C555.5,390.2,554.3,390.6,553.3,390.6z"/>
									</g>
								</g>
							</g>
							<g>
								<g>
									<g>
										<path class="st8" d="M359.7,327c1,1.6,2,3.4,3,5s2.2,3.4,3.4,5c2.2,3.4,4.6,6.6,7,9.8c2.4,3.2,5,6.4,7.4,9.6
											c2.6,3.2,5.2,6.2,7.8,9.2c5.4,6,11,11.8,17,17.2l4.4,4c1.4,1.4,3,2.6,4.6,4s3,2.6,4.6,3.8c1.6,1.2,3.2,2.6,4.8,3.8
											c12.8,9.8,26.4,18.6,40.8,25.8l5.4,2.6c1,0.4,1.8,1,2.8,1.4l2.8,1.2l5.4,2.6l5.6,2.6c3.6,1.8,7.4,3.4,11.2,5.2
											c3.8,1.8,7.6,3.4,11.2,5.4l0,0c0.2,0.2,0.2,0.4,0.2,0.6s-0.2,0.2-0.4,0.2c-8.4-0.4-16.8-1.6-25-3.8
											c-8.2-2-16-5.2-23.8-8.6c-15.4-7-30-15.8-43.4-26c-6.8-5-13.2-10.6-19.4-16.4c-6.2-5.8-12-11.8-17.6-18.4
											c-5.6-6.4-10.6-13-15.4-20c-2.4-3.4-4.6-7-6.8-10.8c-1-1.8-2.2-3.6-3.2-5.6s-2-3.8-3-5.8c-1-2.4,0-5,2.2-6
											C355.9,324,358.3,324.8,359.7,327L359.7,327z"/>
									</g>
								</g>
							</g>
							<g>
								<g>
									<g>
										<path class="st8" d="M300.3,636.8c-0.2,0-0.4,0-0.6,0c-52.4-5.4-97.2-19.8-133.6-43.2c-29.2-18.8-53-43.2-70.6-72.8
											c-30-50.2-31.8-96.8-31.8-98.8c0-2.2,1.2-4,3-5c2-0.8,4.2-0.4,5.8,1c45.8,42.8,118.8,45,148,43.8c8.8-0.4,17.2-3,24.4-7.8
											c58-39.2,112-46.4,147.2-45.6c38.2,0.8,62.4,10.8,63.6,11.4c2.6,1.2,4,4.2,2.8,6.8c-1.2,2.6-4.2,4-6.8,2.8l0,0
											c-0.2,0-23.8-9.8-60.2-10.6c-33.4-0.6-85,6.4-140.6,43.8c-8.8,5.8-19,9.2-29.8,9.6c-28.6,1-97-0.8-145.4-38
											c2.4,17,9.6,48.8,29.2,81.6c38.6,64,104.6,101.2,196.2,110.6c2.8,0.2,5,2.8,4.6,5.8C305.3,634.8,303.1,636.8,300.3,636.8z
											"/>
									</g>
								</g>
							</g>
							<g>
								<g>
									<g>
										<path class="st8" d="M299.5,567.2c-1.2,8-1.8,15.8-2,23.6c0,4,0.2,7.8,0.6,11.6s1,7.6,1.8,11.4c1.8,7.4,4.8,14.2,9,20
											s10,10.4,16.2,14l0,0h0.2c2,1.2,3,3.6,2.4,5.8c-0.2,0.8-0.4,1.8-0.6,2.8s-0.4,2-0.6,3c-0.4,2-0.6,4-0.8,6
											c-0.4,4-0.6,8-0.4,12c0.2,8,1.4,16,4.2,23.4c1.4,3.6,3,7.2,5,10.4s4.4,6.4,7.2,9c2.8,2.8,5.8,5.2,9,7.2
											c3.2,2.2,6.8,3.8,10.4,5.4l0.2,0.2c2.6,1.2,3.8,4.2,2.8,6.8c-1.2,2.6-4.2,3.8-6.8,2.8c-4.2-1.8-8.4-3.8-12.2-6.2
											c-4-2.4-7.6-5.4-10.8-8.6c-3.4-3.2-6.2-7-8.6-10.8c-2.4-4-4.4-8.2-6-12.4c-3.2-8.6-4.6-17.6-4.8-26.6
											c-0.2-4.4,0-9,0.6-13.4c0.2-2.2,0.6-4.4,0.8-6.6c0.2-1.2,0.4-2.2,0.6-3.4s0.4-2.2,0.8-3.4l2.6,6
											c-7.6-4.2-14.4-10.2-19.2-17.6c-2.4-3.6-4.4-7.6-5.8-11.6s-2.4-8.2-3-12.4c-1.2-8.4-1-16.8,0.2-24.8c0.6-4,1.4-8,2.6-12
											s2.4-7.8,4.2-11.4c0-0.2,0.2-0.2,0.4-0.2C299.5,567,299.5,567.2,299.5,567.2L299.5,567.2z"/>
									</g>
								</g>
							</g>
							<g>
								<g>
									<g>
										<path class="st8" d="M423.3,515.6c5.8,4,10.8,9,15.2,14.4c1.2,1.4,2.2,2.8,3.2,4.2s2,3,3,4.4c1,1.6,1.8,3,2.6,4.6l1.2,2.4
											l1.2,2.4c3,6.6,5,13.6,6,20.6c1,7.2,1,14.4,0,21.6c-2,14.4-8,27.8-15.4,39.8c-1.8,3-4,5.8-6,8.8c-2.2,2.8-4.4,5.6-6.6,8.4
											c-2.4,2.6-4.6,5.4-7,8l-7.4,7.6l1-6l0,0c1.8,3.8,4,7.6,6.4,10.8c0.6,0.8,1.2,1.4,1.6,2c0.2,0,0.2,0.2,0.4,0.2
											c0.2,0.2,0,0-0.2,0l-0.2-0.2c-0.4-0.2-0.2,0,0,0c0.4,0,1.4,0,2.4-0.2l3.4-0.4c4.8-0.6,10.2-0.6,15.4,1
											c5.2,1.4,9.8,4.4,13.6,8c2.2,2,2.2,5.2,0.4,7.4c-2,2.2-5.2,2.2-7.4,0.4l0,0c-2.8-2.6-6-4.6-9.6-5.6c-3.4-1-7.2-1-11.4-0.6
											l-3.4,0.4c-1.2,0.2-2.6,0.2-4.4,0.2c-1-0.2-2-0.2-3.4-0.8c-0.4-0.2-0.6-0.4-1-0.6c-0.4-0.2-0.8-0.4-0.8-0.6l-1-0.8
											c-1.2-1-2-2.2-2.8-3.2c-3-4.2-5.2-8.2-7.4-12.6l0,0c-1-2-0.6-4.6,1-6c9.6-9.4,18.6-19.2,26-30.4c7.2-11,13-23.2,15.4-36
											c1.2-6.4,1.4-13,0.8-19.4c-0.6-6.4-2.2-12.8-4.6-19c-4.8-12.2-12.4-23.8-22-33l0,0c-0.4-0.4-0.4-1.2,0-1.8
											C422.1,515.2,422.7,515.2,423.3,515.6z"/>
									</g>
								</g>
							</g>
							<g>
								<g>
									<g>
										<path class="st8" d="M395.1,777.8c-2.6,0-5.4-1.2-7.4-4.8c-3.6-6.2-7.6-7.8-12.6-10c-6.6-2.8-14-6.2-19.4-18.6
											c-7.8-18.8,6-34.8,14.2-40.6c1-0.6,2-1,3.2-1c19.8,0.8,33,12.8,36.2,33.2c2.4,16.2-2,38.2-11.4,41.6
											C396.9,777.8,396.1,777.8,395.1,777.8z M374.5,713.2c-4,3.2-14.8,13.8-9.4,27c3.6,8.8,8.2,10.6,13.8,13.2
											c5,2.2,11.2,4.8,16.2,12.4c3-5.6,6.4-20.8,2.2-34.2C394.1,720.4,386.3,714.2,374.5,713.2z"/>
									</g>
								</g>
							</g>
							<g>
								<g>
									<g>
										<path class="st8" d="M452.5,769.8c-0.2,0-0.4,0-0.8,0c-1.8-0.2-3.4-1.4-4.2-3.2c-0.4-1.2-12-28.2-43.8-27.2
											c-3,0-5.2-2.2-5.4-5s2.2-5.2,5-5.4c26.8-0.8,42,15.2,49,25.4c5.6-13.2,2-29.2-5-40.8c-6-9.6-14.2-15.6-20.2-14.4
											c-17.2,3.4-24.2,23-24.4,23.2c-1,2.8-4,4.2-6.6,3.2c-2.8-1-4.2-4-3.2-6.6c0.4-1,9-25.2,32.2-30
											c10.6-2.2,22.4,5.2,31.2,19.2c10.4,16.6,14.4,41.6,0.2,59.8C455.5,769,454.1,769.8,452.5,769.8z"/>
									</g>
								</g>
							</g>
							<g>
								<g>
									<g>
										<path class="st8" d="M459.7,736.4c-1,0-1.8-0.2-2.8-0.8c-2.4-1.6-3.2-4.8-1.6-7.2c9.2-14.6,27.2-17.8,37.6-18.2
											c-6-10.2-23.2-22.8-32-22.2c-10.6,0.8-18,11.4-18.2,11.6c-1.6,2.4-4.8,3-7.2,1.4s-3-4.8-1.4-7.2c0.4-0.6,10.2-14.8,26-16
											c16-1.4,44,21.8,45.4,37.4c0.2,1.6-0.4,3-1.6,4.2c-1,1-2.6,1.6-4.2,1.4c-0.2,0-26-2.2-35.6,13.2
											C463.3,735.6,461.5,736.4,459.7,736.4z"/>
									</g>
								</g>
							</g>
							<g>
								<g>
									<g>
										<path class="st8" d="M584.9,616.8c-0.2,1.6-0.4,2.8-0.8,4.2c-0.4,1.4-0.8,2.8-1.2,4c-0.8,2.6-2,5.2-3.2,7.8
											s-2.8,5-4.4,7.2c-1.8,2.2-3.6,4.4-6,6.2c-0.6,0.6-1.6,0.4-2.2-0.2c-0.4-0.4-0.4-1-0.2-1.6l0,0c1-2.4,1.8-4.8,2.6-7.4
											c0.6-2.4,1.4-4.8,2-7.4l1.6-7.4c0.6-2.4,1-5,1.6-7.2v-0.2c0.8-2.8,3.6-4.4,6.4-3.8C583.5,611.8,585.1,614.2,584.9,616.8z"
											/>
									</g>
								</g>
							</g>
							<g>
								<g>
									<g>
										<path class="st8" d="M581.3,654.4c-1.2-7.8-10.4-11.6-10.6-11.6l3.8-9.8c0.6,0.2,15,5.8,17.2,19.8L581.3,654.4z"/>
									</g>
								</g>
							</g>
							<g>
								<g>
									<g>
										<path class="st8" d="M626.7,688.2l-1.6-10.4l14.2-2.4c-7-7.6-19.8-19.2-33-22c-16.8-3.6-21.2,9.8-21.6,11.2l-10-2.8
											c2.4-8.4,12.4-23.2,33.8-18.6c24,5,44.2,31.6,45,32.8c1,1.4,1.4,3.4,0.6,5c-0.6,1.6-2.2,3-4,3.2L626.7,688.2z"/>
									</g>
								</g>
							</g>
							<g>
								<g>
									<g>
										<path class="st8" d="M639.5,712.2c-0.6,0-1.4-0.2-2-0.4c-5.4-2.2-21.4-7.6-29.2-6c-13.8,2.8-23.2-6-23.4-6.4l7.2-7.6
											c0.2,0.2,6,5.4,14.2,3.8c7-1.4,16.8,0.6,24.4,2.8c-13.2-25.4-44-30.6-51.6-31.4c-11,8.2-15.4,19-15.4,19.2l-9.8-3.8
											c0.2-0.6,5.8-15,20.8-25.2c1-0.6,2-1,3.2-0.8c0.6,0,54,3.6,66.8,49.2c0.6,2,0,4-1.6,5.2
											C642.1,711.8,640.9,712.2,639.5,712.2z"/>
									</g>
								</g>
							</g>
							<g>
								<g>
									<g>
										<path class="st9" d="M537.1,707"/>
									</g>
								</g>
							</g>
							<g>
								<g>
									<g>
										<path class="st8" d="M602.1,728.2c-0.8,0-1.8-0.2-2.6-0.6c-4.4-2.4-17.4-8.8-24.6-9c-18.6-0.6-36.2-5.6-39.2-6.6
											c-55.2-7.8-55.6-63.2-55.6-63.8c0-2.8,2.4-5.2,5.2-5.2l0,0c2.8,0,5.2,2.4,5.2,5.2c0,1.8,0.4,44.2,42.4,52.8
											c1.8-5.4,5.8-13.8,13.8-18.4c7.6-4.4,16.8-4.6,27.4-0.6c33.6,12.6,33,40,32.8,41.2c0,1.8-1,3.4-2.6,4.4
											C603.9,728,603.1,728.2,602.1,728.2z M543.5,703.4c6.6,1.6,19.2,4.4,32,4.8c6,0.2,13.6,3,19.6,5.6c-2.6-7-9-16.2-24.2-22
											c-7.6-2.8-13.8-3-18.4-0.2C547.5,694.4,544.9,699.6,543.5,703.4z"/>
									</g>
								</g>
							</g>
							<g>
								<g>
									<g>
										<path class="st8" d="M514.7,616.4c1.2,1.8,2.6,3.6,4,5.4c-6.2,0.2-12.8,0-19.4-1.4c-3.6-0.8-7.6-2.4-11-5
											s-6.4-6.4-7.6-10.8c-1.4-4.2-1.4-8.4-0.6-12.4c0.4-2,0.8-3.8,1.4-5.6c0.2-1,0.6-1.8,1-2.8c0.2-0.4,0.4-0.8,0.6-1.4
											c0.2-0.4,0.4-0.8,0.6-1.4c1.2-2.6,4.4-3.6,7-2.4c0.4,0.2,0.6,0.4,1,0.6l0,0c2.2,1.6,4.6,3.4,7,5c1,0.6,2,1.2,2.8,1.8
											c0.2,0.2,0.4,0.2,0.6,0.4c0.4,0.2,1,0.4,1.4,0.6c0-0.2,0-0.4,0-0.4c0.4-2.2,0.2-4.6-0.2-7c-0.4-2.2-1.4-4.4-2.8-6
											c-0.4-0.6-0.8-1-1.4-1.6c-0.2-0.4-0.6-0.6-0.8-0.8c-0.4-0.4-0.8-0.6-1.4-1l-0.8-0.4l-1-0.6c-2.8-1.6-5.8-3.6-8.4-6
											c-2.4-2.2-4.6-4.8-6.6-7.4c-4-5.2-7.2-11.2-9.2-17.4s-3.2-12.8-3.4-19.2c-0.4-13,3-25.6,9.4-36.2c0.4-0.6,1-0.6,1.6-0.4
											c0.4,0.2,0.6,0.8,0.6,1.2l0,0c-1.8,12.2-3.4,23.6-2.8,35c0.8,11.2,5,22,11.8,30.6c1.8,2.2,3.6,4.2,5.6,6
											c1.4,1.4,3,2.4,5,3.6c0.4,0.2,1,0.6,1.6,0.8l1,0.4l1.2,0.6c0.8,0.4,1.6,1,2.4,1.6c1.6,1.2,3,2.6,4.2,4.2
											c2.4,3,4,6.6,4.8,10.4c0.8,3.6,1,7.4,0.4,11.2c-0.2,1-0.4,2-0.6,3c-0.4,1-0.8,2.2-1.6,3.4c-0.2,0.4-0.4,0.6-0.8,1
											c-0.4,0.4-0.6,0.6-1,1.2c-0.2,0.2-0.4,0.4-0.8,0.6c-0.2,0.2-0.6,0.4-1,0.6c-0.8,0.4-1.2,0.4-1.8,0.6c-0.6,0-1,0.2-1.4,0.2
											c-1.4,0-2.4-0.2-3.2-0.4c-2.2-0.6-3.8-1.4-5.4-2.4c-1.6-0.8-3-1.8-4.2-2.6c-0.6-0.4-1.2-0.8-1.8-1.4
											c-0.2,0.6-0.2,1.2-0.4,1.8c-0.4,2.8-0.4,5.4,0.4,7.6c0.2,0.6,0.4,1,0.6,1.6c0.4,0.4,0.4,1,0.8,1.4c0.6,1,1.6,1.6,2.4,2.4
											c2,1.4,4.6,2.6,7.4,3.2c3,0.8,6.4,1.2,9.8,1.2C512.7,613,513.7,614.8,514.7,616.4z"/>
										<path class="st8" d="M546.9,482.2c-1,0.6-1.8,1-2.8,1.6c-1.4,0.8-2.6,1.6-4,2.6c-2.8-4.8-5.8-9.6-8.8-14.6l0,0
											c-0.4-0.8-0.2-1.8,0.6-2.4c0.6-0.4,1.2-0.4,1.8,0c3,2,5.6,4.2,8,6.6c1.2,1.2,2.4,2.6,3.4,3.8
											C545.7,480.6,546.3,481.4,546.9,482.2z"/>
									</g>
								</g>
							</g>
							<g>
								<g>
									<g>
										<path class="st8" d="M491.7,616.6c-2.2,0-4.2-1.4-5-3.6c-1-2.8,0.6-5.6,3.4-6.6c10.2-3.4,11.2-13.4,11.2-13.8
											c0.2-2.8,2.8-5,5.6-4.8s5,2.6,4.8,5.6c0,0.8-1.4,17.4-18.4,23C492.9,616.6,492.3,616.6,491.7,616.6z"/>
									</g>
								</g>
							</g>
							<g>
								<g>
									<g>
										<path class="st8" d="M577.1,242c0.8-2.2,1.6-4,2.6-6s2-3.8,3.4-5.6c2.4-3.6,5.4-7,9.2-9.8c3.6-2.8,8-5.2,12.8-6.4
											c4.8-1.4,10.2-1.4,15-0.2c1.2,0.4,2.4,0.6,3.6,1c1.2,0.4,2.2,0.8,3.4,1.4c2.2,1,4.4,2.2,6.4,3.8c4,3,7.2,7,9.4,11.2
											s3.4,8.8,3.6,13.2c0.2,2.2,0.2,4.4,0,6.6s-0.6,4.2-1.2,6.4c-0.4,1.4-1.8,2-3.2,1.6c-0.8-0.2-1.4-1-1.6-1.6l-0.2-0.4
											c-0.2-0.8-0.4-1.8-0.8-2.6c-0.2-1-0.4-1.8-0.8-2.8c-0.6-1.8-1.2-3.6-1.8-5.2c-1.4-3.2-3-6.2-5-8.8c-1-1.2-2-2.4-3.2-3.4
											s-2.2-2-3.6-2.6c-1.2-0.8-2.6-1.4-4-2s-3-1-4.4-1.4c-0.8-0.2-1.4-0.4-2.2-0.4l-1-0.2h-1c-1.4,0-2.8,0-4.2,0.4
											c-2.8,0.6-5.8,1.6-8.8,3.2c-5.8,3.2-11.6,8.2-16.8,13.6l-0.2,0.2c-1.2,1.2-3.2,1.4-4.6,0C576.9,244.4,576.7,243,577.1,242
											z"/>
									</g>
								</g>
							</g>
						</g>
						<g>
							<g>
								<g>
									<path class="st8" d="M512.3,232c2.4,1.2,4.2,3,5.6,5.2c0.8,1.2,1.2,2.4,1.6,4c0.4,1.4,0.4,3.2,0,4.8
										c-0.4,1.6-1.4,3.2-2.4,4.4c-1.2,1.2-2.4,2-3.8,2.6c-1.4,0.6-2.6,0.8-4,0.8c-0.6,0-1.4,0-2-0.2s-1.4-0.4-2-0.6
										c-0.4-0.2-0.6-0.6-0.4-1c0,0,0,0,0-0.2l0,0c1.6-2.2,3.2-3.6,4.4-5c0.6-0.6,1-1.2,1.2-1.6c0.4-0.4,0.6-0.8,0.8-1.4
										c0.4-0.8,0.4-2.4,0.2-4.2c-0.2-1.8-0.8-3.8-1.2-6v-0.2c-0.2-0.8,0.4-1.4,1.2-1.6C511.7,232,512.1,232,512.3,232z"/>
								</g>
							</g>
						</g>
						<g>
							<g>
								<g>
									<path class="st8" d="M399.1,211.2c-1.8,1.4-3.4,2.8-4.8,4s-2.2,2.4-2.4,3.4c-0.2,0.4-0.2,0.8-0.2,1.4s-0.2,1.2,0,2.2
										c0,1.8,0.4,3.8,0.2,6.6l0,0c0,0.4-0.4,0.8-0.8,0.8h-0.2c-0.8-0.2-1.4-0.4-2-0.8s-1.2-0.6-1.6-1c-1-0.8-2-1.8-2.6-3.2
										c-0.8-1.2-1.2-2.8-1.4-4.4c-0.2-1.6,0.2-3.4,1-5s1.8-2.8,3-3.8s2.4-1.6,3.8-2.2c2.6-1,5.2-1,7.8-0.4c0.8,0.2,1.2,1,1,1.6
										C399.7,210.6,399.5,210.8,399.1,211.2L399.1,211.2z"/>
								</g>
							</g>
						</g>
					</g>
				</g>
			</g>
		</g>
	</g>
	<circle class="st10" cx="613.5" cy="246" r="51"/>
	<path class="st8" d="M671.5,243.6v-1.8c0-1.8,0-3.6-0.4-5.6c-0.4-4.8-1.6-9.8-3.8-15.6c-1.8-4.8-4.6-9.6-8.4-14.6
		c-3.4-4.2-7.6-8.2-12.6-11.8c-4.6-3.2-10-5.8-16-7.8c-5.4-1.6-11.2-2.6-17.8-2.8l-2.4,0.2c-2,0-4,0.2-6.2,0.6
		c-2.8,0.4-5.4,1-7.8,1.8l-1,0.2c-6,2-11.2,4.6-16,7.8c-5,3.6-9.2,7.6-12.6,11.8c-3.8,5-6.4,9.8-8.4,14.4
		c-3.8,9.6-5.2,20.6-3.6,30.8c1.4,9.4,5,17.8,10.4,25.4c4.6,6.2,10.4,11.6,16.6,15.6c4.8,3,10,5.4,16,7c2.8,0.8,4.8,1.2,6.4,1.4
		c2,0.4,3.6,0.6,4.8,0.6l4,0.2l3.8-0.2l0,0c1.4,0,3.2-0.2,4.8-0.4c1.8-0.2,3.8-0.6,6.4-1.4c6-1.6,11.2-4,16-7
		c3.4-2.2,6.6-4.6,9.6-7.6c6.4-1.2,4,12,10,12c6.4,0,11.6-5.2,11.6-11.6s-12.2-1.2-11.6-11.6c0-0.6,0-1,0-1.4
		c3.8-6.4,6.4-13.6,7.6-21C671.1,248.6,671.5,246.4,671.5,243.6z M662.7,250.4c-0.6,8-3.2,16-7.4,22.8c-3.4,5.6-8.2,10.6-14.2,14.8
		c-5.4,3.8-10.8,5.6-14.4,6.8c-2.4,0.8-4.2,1-5.8,1.2c-1.8,0.4-3.2,0.6-4.4,0.6l-3.8,0.2l-3.8-0.2c-1,0-2.4-0.2-4.4-0.6
		c-1.4-0.2-3.2-0.6-5.8-1.2c-3.6-1-9-3-14.4-6.8c-6-4.2-10.8-9.2-14.2-14.8c-4.2-6.8-6.8-14.8-7.4-22.6c-0.6-8.8,1-17.8,5-25.8
		s10.6-15.2,18.2-20.2c3.8-2.4,8.2-4.4,12.6-5.8l1.2-0.2c2-0.4,3.8-1,6-1.2c1.2-0.2,3-0.4,4.8-0.4c0.8,0,1.6,0,2.2-0.2
		c5.2,0,9.8,0.8,14,2c4.8,1.6,9.2,3.4,12.8,5.8c7.8,5,14.4,12.2,18.2,20.2c2.2,4.6,3.6,8.8,4.2,12.8c0.4,1.4,0.4,3.2,0.6,4.8
		l0.2,1.6C662.7,245.8,662.7,248,662.7,250.4z"/>
	<g>
		<path class="st8" d="M321.5,266c-4.4-8-3-18.6,2.4-26c4.8-6.6,12.2-10.8,20-13c-3.2,1.8-6.2,4.4-8.2,6.4c-3.6,3.4-5.6,8-6.4,12.8
			c-0.2,1.6-0.4,3.4-0.2,5c0.6,4,3,7.6,6.2,10.2c4.4,3.6,10.6,5.4,16.4,4.6c-4.4-0.2-8.8-1.6-12.4-4.4c-3.4-2.8-5.8-6.8-6-10.8
			c-0.2-3.8,1.6-7.4,4-10.4c0,0.8-0.2,1.4-0.2,2.2c-0.2,8.2,3.2,11.8,11.4,11.2c8.2-0.6,15.8-4,23.4-7.4c14-6.2,28-16.6,43.8-0.8
			c8.6,11.4-3.6,31.4-21.6,30.2c-3.8-0.2-11.4-1-15.2-1.4c-6.6-0.8-11,1.8-17.6,3.4C346.1,281.4,329.1,279.8,321.5,266z"/>
		<path class="st8" d="M427.9,249c21.6-5.4,28.4,10.8,37,23.2c4.6,6.8,9.4,13.6,16.2,18.4c6.6,4.8,11.4,3.4,15.6-3.6
			c0.4-0.6,0.8-1.4,1-2c0.8,3.8,0.2,7.8-1.8,11c-2.4,3.4-6.4,5.6-10.8,6.2c-4.4,0.6-9-0.6-12.8-2.6c4.6,3.6,10.6,5.4,16.4,4.6
			c4.2-0.6,8-2.4,10.6-5.6c1-1.4,1.8-2.8,2.4-4.4c1.8-4.6,2.4-9.6,1.2-14.4c-0.8-2.8-2-6.4-3.8-9.6c5.6,5.8,9.8,13.4,10.4,21.4
			c0.8,9.2-3.4,18.8-11.4,23.6c-13.6,8-29,0.6-40.4-10.4c-4.8-4.6-7.2-9.2-13.4-12c-3.4-1.6-10.4-5-13.6-6.6
			C414.7,277.8,414.5,254.4,427.9,249z"/>
	</g>
	<g id="Calque_9">
		<g>
			<path class="st8" d="M556.3,608.8h0.4c-4.2,3.8-9.2,6.8-14.4,8.8c-7,2.6-14.4,3.8-21.2,4.2c-0.8,0-1.6,0-2.4,0.2
				c-1.4-1.8-2.6-3.6-4-5.4c-1-1.6-2.2-3.2-3.2-5c2.8,0,5.8,0,8.8-0.2l4.8-0.4l4.6-0.6c1.6-0.2,3-0.6,4.4-1s2.8-1,4.4-1.4
				c2.8-1.2,5.4-2.4,7.8-4.2c1.2-0.8,2.2-1.8,3.4-2.6c0.4-0.4,0.8-0.8,1.2-1.2c0,0.2,0,0.4,0,0.6v3
				C550.9,606.2,553.3,608.8,556.3,608.8z"/>
			<path class="st8" d="M566.7,594.6c-0.6,1.4-1.4,2.8-2.2,4.2h-12.2c-0.2,0-0.4,0-0.6,0.2c0.4-0.4,0.8-0.8,1-1.2
				c2.8-3.6,5-7.8,6.2-12.6C561.1,588.6,563.7,591.6,566.7,594.6z"/>
			<path class="st8" d="M568.1,545.6h-10.8c-0.2-0.4-0.2-0.8-0.4-1.2s-0.2-0.8-0.2-1.2v-0.4c0-1.6-0.2-3.2-0.2-4.8s0-3.2-0.4-4.8
				l-0.6-4.6c-0.2-1.6-0.6-3-0.8-4.6c-0.4-3.2-1.4-6.2-2.2-9.2c-0.4-1.6-1-3-1.4-4.6c-0.2-0.8-0.4-1.6-0.8-2.2l-0.8-2.2
				c-2.2-6-5-11.8-8.2-17.4c-0.4-0.6-0.8-1.4-1.2-2c1.4-0.8,2.6-1.8,4-2.6c1-0.6,1.8-1,2.8-1.6c0.4,0.6,0.8,1.2,1.4,1.8
				c4,5.6,7.4,11.6,10.2,18l1,2.4c0,0.2,0.2,0.2,0.2,0.4c-0.2,2.4,0,4.8,0.4,7c0.6,4.2,2.4,8,5.2,11.2c0.2,1.4,0.6,2.6,0.8,4
				l0.6,5.2c0.2,1.8,0.2,3.6,0.4,5.2c0,1.4,0,3,0.2,4.4C567.5,543.2,567.9,544.4,568.1,545.6z"/>
			
				<linearGradient id="SVGID_1_" gradientUnits="userSpaceOnUse" x1="518.6867" y1="94.137" x2="685.8867" y2="94.137" gradientTransform="matrix(1 0 0 -1 0 658)">
				<stop  offset="0" style="stop-color:#662483"/>
				<stop  offset="1.000000e-02" style="stop-color:#005C5C"/>
				<stop  offset="1" style="stop-color:#00FD67"/>
			</linearGradient>
			<path class="st11" d="M685.7,564c0,51.6-41.8,93.6-93.6,93.6c-29.8,0-56.4-14-73.6-35.8c0.8,0,1.6,0,2.4-0.2
				c6.8-0.4,14.4-1.4,21.2-4.2c7-2.6,13.6-7,18.4-13.2c4.8-6,7.8-13.4,9.2-20.6c1.4-7.2,1.6-14.6,1-21.6c-0.2-3.6-0.8-7-1.4-10.6
				c-0.4-1.8-0.6-3.4-1.2-5.2c-0.4-1.6-0.8-3-1.2-4.6c0-1.4,0-3-0.2-4.4c0-1.8,0-3.6-0.4-5.2l-0.6-5.2c-0.2-1.8-0.6-3.4-1-5.2
				c-0.6-3.4-1.8-6.8-2.8-10.2c-0.6-1.6-1.2-3.2-1.8-5c-0.4-0.8-0.6-1.6-1-2.4l-1-2.4c-2.8-6.4-6.2-12.4-10.2-18
				c-0.4-0.6-0.8-1.2-1.4-1.8c13.4-7.4,28.8-11.6,45.4-11.6C643.9,470.6,685.7,512.4,685.7,564z"/>
			<path class="st6" d="M616.7,616.4h-53.4c-2.8,0-5.2-2.4-5.2-5.2v-2.8h63.8v2.8C622.1,614,619.7,616.4,616.7,616.4z"/>
			<path class="st12" d="M622.1,608.2v2.8c0,2.8-2.4,5.2-5.2,5.2h-4.6c2.8,0,5.2-2.4,5.2-5.2v-2.8H622.1z"/>
			<path class="st6" d="M616.5,592c-2.2,0.2-4-1.4-4.2-3.6c-0.2-2.2,1.4-4,3.6-4.2c0.2,0,0.4,0,0.6,0c2.2,0,4.4,0,6.6-0.2
				c2-0.2,3.8-0.4,5.8-0.8c1.2-0.4,2.4-0.8,3.4-1.2c5-2.2,8.6-6.6,9.8-11.8c0.2-1.2,1.2-7.2-4-9c-3.4-1-7-0.2-9.6,2.2
				c-1.6,1.6-4,1.4-5.4,0c-1.6-1.6-1.4-4,0-5.4l0.2-0.2c4.8-4.2,11.4-5.6,17.4-3.8c3.8,1.2,6.6,4,8.2,7.6c1.2,3.2,1.6,6.8,0.8,10.2
				c-1.6,7.6-6.8,14-14,17.4c-1.4,0.8-3,1.4-4.6,1.6c-2.4,0.6-4.6,1-7,1.2C621.5,592,618.9,592,616.5,592L616.5,592z"/>
			<path class="st12" d="M649.5,571.6c-1.6,7.6-6.8,14-14,17.4c-1.4,0.8-3,1.4-4.6,1.6c-2.4,0.6-4.6,1-7,1.2s-4.8,0.2-7.2,0.2l0,0
				c-1,0-2-0.4-2.8-1.2c2.2,0,4.4-0.2,6.6-0.2c2.4-0.2,4.8-0.6,7-1.2c1.6-0.4,3-1,4.6-1.6c7.2-3.2,12.2-9.6,14-17.4
				c0.6-3.4,0.4-7-0.8-10.2c-1.2-3-3.4-5.4-6.2-6.8c0.6,0.2,1.2,0.2,1.8,0.4c3.8,1.2,6.8,4,8.2,7.6
				C649.9,564.6,650.3,568.2,649.5,571.6z"/>
			<path class="st8" d="M570.1,583.6c-0.6,3.6-1.8,7.4-3.4,10.8c-3-2.8-5.6-6-7.8-9.4c0.4-1.2,0.6-2.4,0.8-3.6
				c1.2-6,1.4-12.4,0.8-18.6c-0.2-3.2-0.8-6.4-1.4-9.4c-0.4-1.6-0.6-3.2-1-4.6c-0.2-1-0.6-2.2-0.8-3.2h10.8c0,0.2,0.2,0.4,0.2,0.8
				c0.4,1.8,0.8,3.4,1.2,5.2c0.6,3.4,1.2,7,1.4,10.6C571.5,569.2,571.5,576.4,570.1,583.6z"/>
			<path class="st6" d="M632.3,549.8c-0.4,10.2-3.2,36.2-24,49.6h-35.4c-2.2-1.4-4.4-3-6.2-4.8c1.6-3.6,2.6-7.2,3.4-10.8
				c1.4-7.2,1.6-14.6,1-21.6c-0.2-3.6-0.8-7-1.4-10.6c-0.4-1.8-0.6-3.4-1.2-5.2c0-0.2-0.2-0.4-0.2-0.8h60.2
				C630.5,545.8,632.3,547.6,632.3,549.8z"/>
			<path class="st12" d="M632.3,549.8c-0.2,10-3,36.2-23.8,49.6h-6.2c20.8-13.2,25-39.4,25.4-49.6c0-2.2-1.6-4-3.8-4c0,0,0,0-0.2,0
				h4.4c2.2-0.2,4,1.6,4.2,3.8C632.3,549.6,632.3,549.6,632.3,549.8z"/>
			<path class="st8" d="M564.5,598.8c-1,1.8-2.2,3.8-3.6,5.4c-1.2,1.6-2.6,3.2-4.2,4.4h-0.4c-3,0-5.4-2.4-5.4-5.4v-3
				c0-0.2,0-0.4,0-0.6l0,0l0.4-0.4c0.2-0.2,0.2-0.2,0.4-0.4c0.2,0,0.4-0.2,0.6-0.2h12.2V598.8z"/>
			<path class="st6" d="M551.7,599c-0.2,0.2-0.2,0.2-0.4,0.4l-0.4,0.4C551.1,599.4,551.3,599.2,551.7,599z"/>
			<path class="st6" d="M629.3,600.2v3c0,3-2.4,5.4-5.4,5.4h-67.2c1.6-1.4,3-2.8,4.2-4.4c1.4-1.8,2.6-3.6,3.6-5.4h63.4
				C628.7,598.8,629.3,599.4,629.3,600.2z"/>
			<path class="st12" d="M629.3,600.4v3c0,3-2.4,5.4-5.4,5.4h-4.8c3,0,5.4-2.4,5.4-5.4v-3c0-0.8-0.6-1.4-1.4-1.4c0,0,0,0-0.2,0h4.6
				C628.5,598.8,629.3,599.4,629.3,600.4C629.3,600.2,629.3,600.2,629.3,600.4z"/>
			<path class="st8" d="M565.3,523c-2.6-3.2-4.4-7-5.2-11.2c-0.4-2.4-0.4-4.8-0.4-7c0.4,0.6,0.6,1.4,0.8,2c0.6,1.6,1.2,3.2,1.8,5
				c1,3.4,2,6.6,2.8,10.2C565.1,522.2,565.1,522.6,565.3,523z"/>
			<path class="st6" d="M584.7,530.8c0,0.4-0.4,0.8-1,0.8c-2.8-0.2-5.8-0.8-8.4-1.6c-4-1.4-7.6-3.8-10.2-6.8c0-0.4-0.2-0.8-0.2-1.2
				c-0.6-3.4-1.8-6.8-2.8-10.2c-0.6-1.6-1.2-3.2-1.8-5c-0.2-0.6-0.4-1.4-0.8-2c0-0.6,0-1,0.2-1.6c0-0.4,0.4-0.8,0.8-0.8
				c3,0.2,5.8,0.8,8.6,1.6c8,2.6,14,9.6,15.4,18C584.9,525,585.1,527.8,584.7,530.8z"/>
			<path class="st12" d="M584.7,530.6c0,0.4-0.4,0.8-0.8,0.8c-0.6,0-1.4,0-2.8-0.2c0-2.2,0-4.4-0.4-6.4c-1.4-8.4-7.2-15.4-15.4-18
				c-2-0.6-3.8-1-5.8-1.4c0-1,0-1.6,0.2-2.2c0-0.4,0.4-0.8,0.8-0.8c3,0.2,5.8,0.8,8.6,1.6c8,2.6,14,9.6,15.4,18
				C584.9,524.8,585.1,527.8,584.7,530.6L584.7,530.6z"/>
			<path class="st6" d="M621.7,512.2c0,3-0.2,5.8-1,8.6c-2,8.2-8.4,14.8-16.8,16.8c-2.8,0.6-5.8,1-8.6,1c-0.4,0-0.8-0.4-0.8-0.8l0,0
				c0-3,0.2-5.8,1-8.6c2-8.2,8.4-14.8,16.8-16.8c2.8-0.6,5.8-1,8.6-1C621.3,511.4,621.5,511.8,621.7,512.2L621.7,512.2z"/>
			<path class="st12" d="M620.7,520.8c-2,8.2-8.4,14.8-16.8,16.8c-2.8,0.6-5.8,1-8.6,1c-0.4,0-0.8-0.4-0.8-0.8l0,0
				c0-0.6,0-1.6,0-2.8c2-0.2,4.2-0.4,6.2-1c8.2-2,14.8-8.4,16.8-16.8c0.4-2,0.8-4,1-6c1,0,1.8,0,2.4,0c0.4,0,0.8,0.4,0.8,0.8l0,0
				C621.7,515.2,621.3,518,620.7,520.8L620.7,520.8z"/>
			<path class="st12" d="M577.1,519.8l0.8-2.8c0.2-1-0.4-2-1.2-2.2c-1-0.2-1.8,0.2-2.2,1.2l0,0v0.4l-1.8-2.2l0.8-2.8
				c0.2-1-0.4-1.8-1.2-2.2l0,0c-1-0.2-1.8,0.4-2.2,1.2l0,0v0.4l-3.2-3.6c-0.6-0.8-1.8-0.8-2.4-0.2c-0.8,0.6-0.8,1.8-0.2,2.4l3,3.6
				h-0.4c-1,0-1.6,0.8-1.6,1.8s0.8,1.6,1.8,1.6h0.2l2.8-0.2l1.8,2.2h-0.4c-1,0.2-1.6,1-1.6,2c0,0.8,0.8,1.6,1.6,1.6h0.2l2.8-0.2
				l3.2,3.8c0.4,0.4,0.8,0.6,1.4,0.6c0.4,0,0.8-0.2,1.2-0.4c0.8-0.6,0.8-1.6,0.2-2.4l0,0L577.1,519.8z"/>
			<path class="st12" d="M616.5,516.4c-0.6-0.6-1.8-0.6-2.4,0l-3.2,3.2v-0.4c-0.2-1-1-1.6-2-1.4c-1,0.2-1.6,1-1.4,2l0.4,2.8l-2,2
				v-0.4c-0.2-1-1-1.6-2-1.4c-1,0.2-1.6,1-1.4,2l0.4,2.8l-3.6,3.8c-0.6,0.6-0.6,1.8,0,2.4c0.4,0.4,0.8,0.6,1.2,0.6s1-0.2,1.2-0.6
				l3.6-3.6l2.8,0.4h0.2c0.8,0,1.6-0.6,1.6-1.4c0.2-1-0.4-1.8-1.4-2l0,0h-0.4l2-2l2.8,0.4h0.2c0.8,0,1.6-0.6,1.6-1.4
				c0.2-1-0.4-1.8-1.4-2l0,0h-0.4l3.2-3.2C617.3,518,617.3,517,616.5,516.4L616.5,516.4z"/>
		</g>
	</g>
	<g id="Calque_4">
		<g>
			<g>
				<g>
					<g>
						<path class="st6" d="M714.9,586c1.2,4,8.4,13.4,12.6,15c0,0-5.8-1-10,0c-0.8,0.2-2-2-3-2c-0.2,0-0.4,0-0.4,0
							c-5.8,0-16.2-5.4-16.6-8.8c0,0,0.6,0,1.8,0c3.6,0,8.6-1.4,12.2-5.2"/>
					</g>
				</g>
			</g>
		</g>
		<g>
			<g>
				<g>
					<g>
						<path class="st6" d="M702.9,574c1.2,3.4,5,6.6,9.2,7.8c0,0-2.6,2-6.8,2.8c-0.8,0.2-1.6,0.2-2.6,0.2c-0.2,0-0.4,0-0.4,0
							c-5.8,0-16.2-4.6-16.6-7.4c0,0,0.6,0,1.8,0C690.7,577.6,699.1,577.2,702.9,574"/>
					</g>
				</g>
			</g>
		</g>
		<g>
			<g>
				<g>
					<g>
						<path class="st6" d="M696.9,560c1.2,3.4,5,6.6,9.2,7.8c0,0-2.6,2-6.8,2.8c-0.8,0.2-1.6,0.2-2.6,0.2c-0.2,0-0.4,0-0.4,0
							c-5.8,0-16.2-4.6-16.6-7.4c0,0,0.6,0,1.8,0c3.6,0,10.6-3.4,14.2-6.6"/>
					</g>
				</g>
			</g>
		</g>
		<g>
			<g>
				<path class="st8" d="M718.3,526.4c-7.6-0.4-14.8,1.6-18.4,8.8c-3.2,6.8-2.8,15-9.6,19.6c-3,2-6.2,3-9.6,4.2
					c-2.8,1-6.6,2-6.4,5.8c0.4,3.4,4.6,6,7.2,7.6c3.2,2,6.8,3.6,10.6,4.8c0-2,0-3.8,0-5.8c-3.2,1-6.4,1.4-9.6,1.4
					c-2.2,0-4,2.6-2.6,4.6c5.4,7.8,13.4,10.8,22.2,13c0.2-2,0.6-4,0.8-5.8c-2.8,0-5.8,0-8.6,0c-3.8,0-3.8,6,0,6c2.8,0,5.8,0,8.6,0
					c3.4,0,4.2-5,0.8-5.8c-7.2-1.8-14.2-4-18.6-10.2c-0.8,1.6-1.8,3-2.6,4.6c3.8,0,7.6-0.4,11.2-1.6c2.8-0.8,2.8-5,0-5.8
					c-3-1-6-2.2-8.8-3.8c-1.4-0.8-2.6-1.8-3.8-2.8c-0.4-0.4-0.8-0.6-1-1c-0.2,0.6-0.2,1.2-0.4,1.8c0.2,0,1.6-0.6,1.8-0.6
					c5.4-1.8,11-3.8,15.2-7.8c4.8-4.6,5.6-10.8,7.6-16.8c0.8-2.6,2.2-5.2,4.6-6.6c2.8-1.6,6.2-1.6,9.4-1.4
					C722.1,532.6,722.1,526.6,718.3,526.4L718.3,526.4z"/>
			</g>
		</g>
	</g>
	<g id="Calque_7">
		<g>
			<g>
				<path class="st6" d="M703.9,581L703.9,581c-0.2,0-0.4-0.2-0.6-0.2c0.4,0.2,1,0.4,1.4,0.8C704.5,581.4,704.3,581.2,703.9,581
					c0.4,0.2,0.4,0.4,0.6,0.4c1-1.6,2-3.4,3-5l0,0c0.2,0.2,0.4,0.2,0.8,0.4c-0.6-0.2-1-0.6-1.6-1c0.2,0.2,0.4,0.4,0.6,0.4
					c-0.4-0.4-1-0.8-1.2-1.2c0.2,0.2,0.4,0.4,0.4,0.6c-0.4-0.4-0.6-0.8-0.8-1.4c-0.2-0.4-0.4-0.6-0.8-0.8c-0.2-0.2-0.6-0.4-1-0.6
					c-0.4-0.2-0.8-0.2-1.2,0c-0.4,0-0.8,0.2-1.2,0.4c-0.6,0.4-1.2,1-1.4,1.8c0,0.2,0,0.6-0.2,0.8c0,0.6,0.2,1,0.4,1.6
					c0.2,0.4,0.4,0.8,0.6,1.2c0.4,0.6,0.8,1.2,1.4,1.6c0.4,0.4,1,1,1.6,1.2c0.6,0.4,1.2,0.6,1.8,1c0.2,0,0.6,0,0.8,0.2
					c0.4,0,0.8,0,1.2-0.2c0.2,0,0.4-0.2,0.6-0.4c0.4-0.2,0.6-0.4,0.8-0.8c0.2-0.2,0.2-0.4,0.4-0.8c0-0.2,0-0.6,0.2-0.8
					c0-0.4,0-0.8-0.2-1.2s-0.4-0.6-0.6-1c-0.4-0.4-1-0.8-1.6-1.2s-1.2-0.6-1.8-0.8c-0.4-0.2-0.8-0.2-1.2,0c-0.4,0-0.8,0.2-1.2,0.4
					s-0.6,0.4-0.8,0.8c-0.2,0.2-0.4,0.6-0.6,1c-0.2,0.8-0.2,1.6,0.4,2.4c0.2,0.2,0.4,0.4,0.4,0.6C702.9,580.6,703.3,581,703.9,581
					L703.9,581z"/>
			</g>
		</g>
	</g>
	<g id="Calque_6">
		<g>
			<g>
				<path class="st8" d="M693.5,557c1.2,3.2,3,6,5.6,8.2c1.2,1,2.6,2,4.2,2.8c0.8,0.4,1.6,0.8,2.6,1c0.2,0,0.4,0.2,0.4,0.2
					c0.4,0.2,0.4,0.2,0,0c0.2,0.2,0.2,0.2,0,0c-0.6-0.6-0.6-1.4-0.2-2.2c0.2-0.2,0.2-0.2,0,0s-0.2,0.2-0.4,0.4s-0.6,0.6-0.8,0.8
					c0,0-1,0.8-0.6,0.6c-0.4,0.2-0.6,0.4-1,0.6c-1.4,1-2.2,1.4-4,1.6c0.6,0-0.6,0-0.6,0c-0.2,0-1.2-0.2-0.6,0
					c-0.8-0.2-1.6-0.4-2.4-0.8c-1.8-0.6-3.4-1.2-5.4-1.4c-1.6-0.2-3,1.4-3,3c0,1.8,1.4,2.8,3,3c0,0,0.6,0,0.2,0c-0.4,0,0.4,0,0.4,0
					c0.4,0,0.6,0.2,1,0.2c0.8,0.2,1.6,0.6,2.2,0.8c1.4,0.6,3,1,4.6,1c3.2,0,6.2-1.2,8.8-3c1.2-1,2.4-1.8,3.4-3c1.6-1.8,2-4,0.2-5.8
					c-1-1.2-2.6-1.6-4-2c-0.6-0.2,0.2,0.2-0.4-0.2c-0.2-0.2-0.6-0.2-0.8-0.4c-0.6-0.4-1.2-0.6-1.6-1c-0.2-0.2,0,0,0,0
					c-0.2-0.2-0.4-0.2-0.6-0.4c-0.2-0.2-0.6-0.6-0.8-0.8s-0.4-0.4-0.6-0.8c-0.2-0.2-0.8-0.8-0.4-0.4c-0.4-0.6-0.8-1.2-1.2-1.8
					c-0.2-0.2-0.4-0.6-0.4-0.8c0,0-0.2-0.6-0.2-0.2c0.2,0.4-0.2-0.4-0.2-0.4c-0.6-1.4-2-2.6-3.6-2
					C694.1,553.8,692.9,555.4,693.5,557L693.5,557z"/>
			</g>
		</g>
		<g>
			<g>
				<path class="st8" d="M703.9,570.4c-1,2-0.8,4.2,0.8,6c1,1.2,2.2,2,3.4,2.8c0.6,0.4,1.2,0.8,1.8,1.2c0.4,0.2,0.6,0.4,1,0.8
					c-0.4-0.4,0,0.2,0.2,0.2c-0.2-0.2-0.4-0.6-0.4-1c0.2-0.8,0.4-1,0-0.6c0.2-0.2,0.2-0.2,0,0l-0.2,0.2c-0.4,0.4-0.8,0.8-1.4,1.2
					c-0.2,0.2-0.2,0.2,0.2,0c-0.2,0-0.2,0.2-0.4,0.2c-0.2,0.2-0.6,0.4-0.8,0.6c-0.4,0.2-1,0.6-1.6,0.8c-0.8,0.4,0.6-0.2-0.2,0
					c-0.4,0.2-0.6,0.2-1,0.4c-0.6,0.2-1.2,0.4-1.6,0.4c0,0-1,0.2-0.6,0.2s-0.4,0-0.6,0c-0.6,0-1.2,0-1.8,0c-0.4,0-0.6,0-1,0
					c0.8,0,0,0-0.2,0c-0.6-0.2-1.2-0.2-1.8-0.4c-1.4-0.4-3.4,0.6-3.6,2c-0.4,1.6,0.4,3.2,2,3.6c5.4,1.8,11.6,0.6,16.2-2.6
					c1.2-1,2.6-2,3.4-3.4c1.2-2,0.8-4.4-0.8-6c-1.2-1.2-2.8-2-4.2-3c-0.4-0.2-0.6-0.4-1-0.8c-0.2-0.2-0.2-0.2,0,0
					c-0.2-0.2-0.2-0.2-0.4-0.4s-0.2-0.2-0.4-0.4c0.2,0.2,0.2,0.2,0,0c0.2,0.4,0.2,0.6,0,1c0.8-1.4,0.4-3.4-1-4.2
					C706.7,568.6,704.7,569,703.9,570.4L703.9,570.4z"/>
			</g>
		</g>
		<g>
			<g>
				<path class="st8" d="M690.3,590.2c6.4,7.6,16,15.8,26.8,15c2.8-0.2,5.8-1,8.2-2.6c1.8-1.2,4-3,3.4-5.4c-0.4-1.4-1.6-2-2.8-2.6
					c-1.8-1-3.6-1.8-5.2-3c-3-2-5.4-4.8-6.6-8.2c-1.2-3.6-7-2.2-5.8,1.6c2,6.2,6.8,10.6,12.2,13.6c0.6,0.4,1.4,0.8,2,1
					c0.4,0.2,0.6,0.4,1,0.6c1,0.4,0.2,0.6-0.6-0.8c-0.2-0.6-0.4-1.8-0.4-2s0.4-0.8,0.2-0.4c0.6-0.8,0.2-0.2,0,0
					c-0.2,0-0.2,0.2-0.4,0.2c-0.4,0.4,0.6-0.4,0,0c-0.4,0.2-0.8,0.4-1,0.6c-0.2,0.2-0.4,0.2-0.6,0.4c-0.6,0.4,0.4,0-0.2,0.2
					c-0.4,0.2-1,0.4-1.4,0.4c-0.2,0-0.6,0.2-0.8,0.2s-0.4,0-0.4,0c-0.8,0.2,0.6,0-0.2,0c-3.2,0.4-5.8-0.2-8.8-1.6
					c-5.6-2.6-10.2-7-14-11.8c-1-1.2-3.2-1-4.2,0C689.1,587.2,689.3,588.8,690.3,590.2L690.3,590.2z"/>
			</g>
		</g>
	</g>
	<g id="Calque_8">
	</g>
</g>
</svg>
