<?xml version="1.0" encoding="utf-8"?>
<!-- Generator: Adobe Illustrator 25.3.1, SVG Export Plug-In . SVG Version: 6.00 Build 0)  -->
<svg version="1.1" xmlns="http://www.w3.org/2000/svg" xmlns:xlink="http://www.w3.org/1999/xlink" x="0px" y="0px"
	 viewBox="0 0 500 500" style="enable-background:new 0 0 500 500;" xml:space="preserve">
<style type="text/css">
	.st0{fill:#00A23D;stroke:#013D3D;stroke-width:3;stroke-miterlimit:10;}
	.st1{fill:#FFC3AB;}
	.st2{fill:#00A23D;}
	.st3{fill:none;stroke:#013D3D;stroke-width:3;stroke-miterlimit:10;}
	.st4{fill:#F5EDF2;}
	.st5{opacity:0.7;}
	.st6{fill:#FFFFFF;}
	.st7{opacity:0.3;}
	.st8{fill:#013D3D;}
	.st9{fill:none;stroke:#000072;stroke-width:5.2223;stroke-linecap:round;stroke-linejoin:round;stroke-miterlimit:10;}
	.st10{opacity:0.29;fill:#FFFFFF;}
	.st11{fill:url(#SVGID_1_);}
	.st12{fill:#DCE6EB;}
</style>
<g id="Calque_2">
	<g>
		<path class="st0" d="M73,305.5c0,5.3,2.4,18,24,21.9c0.4,0.1,0.8,0.1,1.3,0.1c3.1,0,6.5-1.6,9.2-3.2c2.7-1.6,4.6-3.2,4.7-3.4
			c0.4-0.4,0.6-1,0.5-1.5c-0.1-0.6-0.6-1-1.2-1.1c-0.5-0.1-0.9-0.2-1.4-0.2c0.5-0.4,0.9-0.9,1.2-1.4c6.4,2.4,17.2,4.2,26.6,5.4
			c9.8,1.2,18.1,1.8,18.1,1.8l-18.1-22L123,284c-8-9-23.5,10.5-24.5,5.5c-3-7-12-4.2-12.1-4.2C79.4,286.7,72.9,296.3,73,305.5z"/>
	</g>
	<g>
		<path class="st1" d="M91,285c-3.2-0.8-8,3-11.2,6.3c-3.3,3.3-11.8,18.7-1.4,25.3c0.3-2.5-0.3-5.1-0.3-7.6c-0.1-5,2-10,5.4-13.6
			c3.5-3.6,8.3-5.8,13.3-6.3c0.3-1.1,1.4-3.2-1.7-3.1"/>
	</g>
	<path class="st2" d="M73,305.5c0,5.3,2.4,18,24,21.9c0.4,0.1,0.8,0.1,1.3,0.1c3.1,0,6.5-1.6,9.2-3.2c2.7-1.6,4.6-3.2,4.7-3.4
		c0.4-0.4,0.6-1,0.5-1.5c-0.1-0.6-0.6-1-1.2-1.1c-0.5-0.1-0.9-0.2-1.4-0.2c0.5-0.4,0.9-0.9,1.2-1.4c6.4,2.4,17.2,4.2,26.6,5.4V302
		L123,284c-8-9-23.5,10.5-24.5,5.5c-3-7-12-4.2-12.1-4.2C79.4,286.7,72.9,296.3,73,305.5z"/>
	<path class="st3" d="M111.5,318.4c-0.5-0.1-0.9-0.1-1.4-0.2c0.5-0.4,0.9-0.9,1.2-1.4c13,5,44.7,7.2,44.7,7.2l-33-40
		c-8-9-23.5,10.5-24.5,5.5c-3-7-12-4.2-12.1-4.2c-7.1,1.3-13.5,10.9-13.5,20.1c0,5.3,2.4,18,24,21.9c0.4,0.1,0.9,0.1,1.3,0.1
		c0,0,0,0,0,0c6.2,0,13.6-6.2,13.9-6.5c0.4-0.4,0.6-1,0.5-1.5C112.5,318.9,112,318.5,111.5,318.4z"/>
	<g>
		<g>
			<path class="st1" d="M148,319.7c-12.6-0.3-25.1-2.4-37.1-6.3c-1.8-0.6-2.6,2.3-0.8,2.9c12.2,3.9,25,6.1,37.9,6.4
				C150,322.8,150,319.8,148,319.7L148,319.7z"/>
		</g>
	</g>
	<g>
		<g>
			<path class="st1" d="M146.1,318.6c-2.9-4.7-8.4-5.9-13.5-5.9c-6.2-0.1-12.4,0.2-18.6,0.3c-1.8,0-1.9,2.4-0.4,2.9
				c8,3,16.6,4.3,25.1,3.9c1.6-0.1,2.1-2.6,0.4-2.9c-5.3-1-10.5-1.9-15.9-1.9c0,1,0,2,0,3c6.2,0,12.3,0.7,18.2,2.7
				c1.7,0.5,2.6-1.9,1.2-2.7c-2.7-1.7-5.8-2.5-9-2.5c-1.9,0-1.9,3,0,3c2.7,0,5.2,0.7,7.5,2.1c0.4-0.9,0.8-1.8,1.2-2.7
				c-6.1-2-12.6-2.7-19-2.8c-1.9,0-1.9,3,0,3c5.1,0,10.1,0.9,15.1,1.8c0.1-1,0.3-2,0.4-2.9c-8.3,0.4-16.5-0.9-24.3-3.8
				c-0.1,1-0.3,2-0.4,2.9c5.6-0.1,11.1-0.2,16.7-0.3c4.5,0,10.1,0.2,12.7,4.5C144.5,321.7,147.1,320.2,146.1,318.6L146.1,318.6z"/>
		</g>
	</g>
</g>
<g id="Calque_1">
	<g>
		
			<image style="overflow:visible;opacity:0.5;" width="462" height="437" xlink:href="8069DABF.png"  transform="matrix(1 0 0 1 21.573 33.573)">
		</image>
		<g>
			<g>
				<g>
					<g>
						<g>
							<g>
								<g>
									<g>
										<g>
											<g>
												<path class="st2" d="M110.3,263.3c0,0,3.1,8.1,9.9,19.4c0.6,1,1.3,2.1,1.9,3.2c4.2,6.7,9.6,14.3,16.3,21.8
													c2.6,2.9,5.3,5.7,8.2,8.6c2.8,2.7,5.8,5.3,8.9,7.8c4.1,3.3,8.5,6.4,13.2,9.3c13.1,8,28.7,14.1,47,16.2
													c10,1.1,20.7,1.1,32.3-0.4c1.7,1.9,3.6,3.9,5.6,5.8c0,0-2.8,5.8-5,7.4c-1.2,1-4.1-0.2-7.8,0c-2.8,0.1-6,0.9-9.3,3.9
													l-0.4,1.2c2.1,0.8,3.9,2,5.2,3.2c1.8,1.6,2.8,3,2.8,3c2-1.2,4.1-1.8,6.1-1.4c10.2,2.1,14.1,13.3,14.1,13.3
													c2.4-3.6,6.4-6.1,12.6-6.3c0,0,8.9,6.2,6.9,15c26.8-10.8,18.2-42.7,18.2-42.7c5-2.7,8.3-6.4,10.4-10.5l0.8,0
													c34.5-3.5,58.7-14.7,75.7-28.5c38.6-31.4,40-76.4,40-76.4c-23.3,21.9-59.8,23.2-75.9,22.6c-4.8-0.2-9.5-1.6-13.5-4.3
													c-28.5-19.2-55.1-23.1-74.1-22.3c-16.1,0.6-26.8,4.6-28.5,5.3l-0.2,0.1c19.2-10.3,32.2-23.9,39.9-34
													c6.2-8,9-13.8,9-13.8c-0.9-3.1-3.7-11.8-8-14.9c0.2,0,0.4-0.1,0.6-0.1c4.8-1.1,8.6-6.9,9.6-14.7
													c2.1-16.7-8.9-42.9-50.2-53.4v0c0,0-16.9-28.7-46.4-12.7c0,0,0,0,0,0v0c-0.7-0.3-43.1-19.6-68.1,12.4
													c0,0-40.8,11.4-42.7,73.7C73.9,242.7,110.3,263.3,110.3,263.3z M213.5,198.5c1.9-0.7,3.8-1.4,5.7-2.3c0,0,0.1,0,0.1,0
													c1.2-0.5,2.3-1,3.5-1.6c0.1,0,0.2-0.1,0.3-0.1c0.3-0.2,0.7-0.3,1-0.5c0.8-0.4,1.7-0.8,2.5-1.2c0.3-0.1,0.5-0.2,0.7-0.4
													c0.1-0.1,0.3-0.1,0.4-0.2c1.6-0.8,3-1.5,4.4-2.2c0,0,0,0.1,0,0.2c-0.1,1.5-0.9,11.5-7.2,21.5
													C224.8,211.7,216.5,208,213.5,198.5z M205.4,322c0.5,0.3,1.2,0.2,2.1-0.2c2.8-1.1,6.7-4.3,7-4.5l0,0c0,0,0,0,0,0
													c0,0,0,0,0,0c0,0,0,0.1,0,0.1c0.6,1.1,3.9,8.8-1.1,13.2c0,0,0,0,0,0c-0.2,0.2-0.4,0.4-0.7,0.5c-5.2-1.7-6.8-6.1-7.2-8.1
													c0,0,0,0,0,0C205.5,322.4,205.4,322,205.4,322z M172.8,205c4.5,0.2,10.3,0.1,17-0.8c0.2,0,0.4,0,0.6-0.1
													c0,0-1,6.3-8.3,14.1C182.1,218.2,174.2,212.1,172.8,205z"/>
											</g>
										</g>
									</g>
								</g>
								<g>
									<g>
										<g>
											<path class="st2" d="M165.5,352c1.8,1.6,2.7,3.5,3.1,4.5c0.8-0.1,1.3-0.1,1.3-0.1c6.9,4.6,9.4,11.4,9.4,11.4v0
												c9.1,0.6,10.8,11.3,10.8,11.3c25.9-3.6,25.7-29.3,25.7-29.3v0c-18.3-2.1-33.9-8.2-47-16.2c0,0,0.9,5.8,3.5,11
												C172.4,344.4,166.5,346.7,165.5,352z"/>
										</g>
									</g>
								</g>
							</g>
							<g>
								<g>
									<g>
										<g>
											<path class="st4" d="M205.4,322c0,0,0.5,6.9,7.4,9.2c6.6-4.7,1.8-13.9,1.8-13.9S207.4,323.3,205.4,322z"/>
										</g>
									</g>
								</g>
								<g>
									<g>
										<g>
											<g>
												<g>
													<path class="st4" d="M262.7,410.7c4.8-8.2,11.7-4.2,15.8-14.1c0.3-0.7,0.5-1.5,0.7-2.2c2-8.8-6.9-15-6.9-15
														c-6.1,0.2-10.1,2.8-12.6,6.3c-1.4,2-2.3,4.3-2.8,6.8C254.7,403.2,259.7,415.7,262.7,410.7z"/>
												</g>
											</g>
										</g>
										<g>
											<g>
												<g>
													<path class="st4" d="M232.5,407.8c0,0,6.4-15.8,24.4-15.3c0.5-2.4,1.4-4.8,2.8-6.8c0,0-3.9-11.2-14.1-13.3
														c-2-0.4-4.1,0.1-6.1,1.4c-4.8,2.9-9.3,9.8-10.6,17.3C227.8,396.8,228.6,402.8,232.5,407.8z"/>
												</g>
											</g>
										</g>
										<g>
											<g>
												<g>
													<path class="st4" d="M208.6,383.3c0,0,14.6-1.4,20.3,7.8c1.3-7.5,5.8-14.3,10.6-17.3c0,0-3.1-4.5-8-6.2
														c-0.9-0.3-1.9-0.6-3-0.7C221.7,366.4,209.1,376.8,208.6,383.3z"/>
												</g>
											</g>
										</g>
										<g>
											<g>
												<g>
													<path class="st4" d="M138.9,379c0,0,10.5-4.3,16.1-3.2c5,1,8.6-1.8,9.3-2.4l0.1,0.1c2-1.7,4.6-3.3,7.9-4.5
														c2.7-1,5-1.4,7-1.2v0c0,0-2.6-6.7-9.4-11.4c0,0-0.5,0-1.3,0.1c-3.7,0.5-14.6,2.4-22.4,10
														C143.1,369.6,140.4,373.7,138.9,379z"/>
												</g>
											</g>
										</g>
										<g>
											<g>
												<g>
													<path class="st4" d="M134.1,365.1l11.7,1.9l0.5-0.5c7.8-7.7,18.7-9.6,22.4-10c-0.4-1-1.3-2.9-3.1-4.5
														c-2.1-1.9-5.4-3.3-10.5-2.3C143.9,352,134.1,365.1,134.1,365.1z"/>
												</g>
											</g>
										</g>
										<g>
											<g>
												<g>
													<path class="st4" d="M157.6,387c0,0,8.5-4.6,13.4-4.8c9.7-0.3,19.1-3.2,19.1-3.2s-1.7-10.7-10.8-11.3
														c-2-0.1-4.3,0.2-7,1.2c-3.3,1.3-5.9,2.8-7.9,4.5C157.3,379.5,157.6,387,157.6,387z"/>
												</g>
											</g>
										</g>
									</g>
								</g>
							</g>
							<g>
								<g>
									<g>
										<path class="st4" d="M138.9,379c0,0,10.5-4.3,16.1-3.2c5,1,8.6-1.8,9.3-2.4l0.1,0.1c2-1.7,4.6-3.3,7.9-4.5
											c2.7-1,5-1.4,7-1.2v0c0,0-2.6-6.7-9.4-11.4c0,0-0.5,0-1.3,0.1c-3.7,0.5-14.6,2.4-22.4,10
											C143.1,369.6,140.4,373.7,138.9,379z"/>
									</g>
								</g>
							</g>
							<g>
								<g>
									<g>
										<g>
											<path class="st1" d="M307.8,341.3l0.8,0c34.5-3.5,58.7-14.7,75.7-28.5c-13.3,5.6-38.8,13.1-72.8,7.5
												C311.4,320.4,312.2,332.5,307.8,341.3z"/>
										</g>
									</g>
								</g>
								<g>
									<g>
										<g>
											<path class="st1" d="M120.2,282.7c0.6,1,1.3,2.1,1.9,3.2c5.8,9.3,13.9,20.2,24.6,30.4c2.8,2.7,5.8,5.3,8.9,7.8
												c4.1,3.3,8.5,6.4,13.2,9.3c13.1,8,28.7,14.1,47,16.2c10,1.1,20.7,1.1,32.3-0.4c0,0-22-20.6-13.7-47.1
												c0,0-9.2-0.1-14.3-5.9c0,0-7.5,10.9-13.1,13.7c-5.4,2.8-1.9,12.4-1.6,13.1c0,0,0,0,0,0l2-1.3l7-4.5l0,0c0,0,0,0,0,0
												c0,0,0,0,0,0c0,0,0,0.1,0,0.1c0.5,1.2,3.5,8.8-1.1,13.2c0,0,0,0,0,0c-2,1.9-5.4,3.2-11.1,3.2
												c-20-0.2-32.2-10.2-24.6-37.6c0,0,1.6-18.1,6.6-25c0,0-29.7-30.9-51.9-19.4C123.6,256.4,120.6,269.1,120.2,282.7z"/>
										</g>
									</g>
								</g>
							</g>
							<g>
								<g>
									<g>
										<path class="st1" d="M232,236.4l0.2-0.1c1.7-0.7,12.4-4.6,28.5-5.3c19-0.8,45.6,3.1,74.1,22.3c4,2.7,8.7,4.2,13.5,4.3
											c16.2,0.6,52.6-0.8,75.9-22.6c0,0-9.4,29.8-76.7,29.5c-7.9,0-15.6-2.3-22.2-6.5c-1.6-1-3.4-2.1-5.5-3.2
											c-0.9-0.5-1.9-0.6-2.9-0.4c-4.5,0.9-13.4-0.3-23.2-3.2c-11-3.3-19.8-7.9-22.1-11.3c-0.7-1-1.8-1.6-3-1.8
											C257.9,236.5,245.6,235.8,232,236.4z"/>
									</g>
								</g>
							</g>
							<g class="st5">
								<g>
									<g>
										<path class="st1" d="M248.2,283.8c0,0-21.9,32.3,5.6,71.3C253.9,355.1,209,314.8,248.2,283.8z"/>
									</g>
								</g>
							</g>
							<g class="st5">
								<g>
									<g>
										<path class="st6" d="M201.3,333.7c0.5-0.8,1.1-1.6,1.6-2.5c-1.4,0-2.9,0-4.4-0.1l-2.4-0.2l-2.3-0.3
											c-0.8-0.1-1.5-0.3-2.2-0.5c-0.7-0.2-1.4-0.5-2.2-0.7c-1.4-0.6-2.7-1.2-3.9-2.1c-0.6-0.4-1.1-0.9-1.7-1.3
											c-0.3-0.2-0.5-0.5-0.8-0.8c-0.2-0.3-0.5-0.5-0.7-0.8c-1.8-2.2-2.9-5-3.5-8c-0.6-3-0.7-6.2-0.4-9.3
											c0.1-1.6,0.4-3.2,0.7-4.7c0.2-0.8,0.3-1.6,0.5-2.3c0.2-0.8,0.4-1.6,0.6-2.2c0.1-0.2,0.1-0.4,0.1-0.6l0-0.2
											c0-0.8,0.1-1.6,0.1-2.4c0-0.8,0-1.6,0.2-2.4l0.3-2.3c0.1-0.8,0.3-1.5,0.4-2.3c0.2-1.6,0.7-3.1,1.1-4.6
											c0.2-0.8,0.5-1.5,0.7-2.3c0.1-0.4,0.2-0.8,0.4-1.1l0.4-1.1c1.1-3,2.5-5.9,4.1-8.7c0.2-0.3,0.4-0.7,0.6-1
											c-0.7-0.4-1.3-0.9-2-1.3c-9.1,13-8.9,28.8-8.9,28.8C169.5,329.7,188.9,334.1,201.3,333.7z"/>
									</g>
								</g>
							</g>
							<g>
								<g>
									<g>
										<path class="st1" d="M110.3,263.3c-55.7-100.2-3.3-139.7,12.5-148.8c2.5-1.5,4.8-3.4,6.6-5.7
											c16.2-20.1,56.4-14.7,57.2-14.6c0,0,0,0,0,0l0,0c-0.7-0.3-43.1-19.6-68.1,12.4c0,0-40.8,11.4-42.7,73.7
											C73.9,242.7,110.3,263.3,110.3,263.3z"/>
									</g>
								</g>
							</g>
							<g>
								<g>
									<g class="st7">
										<g>
											<g>
												<path class="st8" d="M199.9,346.7c5.1,1.3,10.4,2.3,16,3v0c0,0,0.2,25.8-25.7,29.3c0,0-1.6-9.8-9.7-11.2
													C193.5,364,198.2,353.7,199.9,346.7z"/>
											</g>
										</g>
									</g>
									<g>
										<g class="st7">
											<g>
												<g>
													<path class="st8" d="M239.5,373.9c2-1.2,4.1-1.8,6.1-1.4c10.2,2.1,14.1,13.3,14.1,13.3c2.4-3.6,6.4-6.1,12.6-6.3
														c0,0,8.9,6.2,6.9,15c26.8-10.8,18.2-42.7,18.2-42.7c5-2.7,8.3-6.4,10.4-10.5l0.8,0c34.5-3.5,58.7-14.7,75.7-28.5
														c38.6-31.4,40-76.4,40-76.4s-11.8,66.6-95.9,87.1c-3.8,0.9-7.8-0.7-9.8-4.1c-2.5-4.1-6.1-9.1-9.4-10.4
														c0,0-1.1,26.6-15.9,37c-3.5,2.5-5.4,6.6-4.9,10.9c0.5,4.5,0.3,10.2-2.6,15.5c-1.5,2.6-5,3.2-7.2,1.1
														c-1-0.9-2.1-1.9-3.3-2.6c-2-1.3-6.1,0.9-9.1,3.1c-2.1,1.5-4.9,1-6.4-1.1c-2.4-3.3-6.9-7-13.9-5.6
														C245.7,367.5,239,369.2,239.5,373.9z"/>
												</g>
											</g>
										</g>
										<g class="st7">
											<g>
												<g>
													<path class="st8" d="M138.4,307.7c2.6,2.9,5.3,5.7,8.2,8.6c2.8,2.7,5.8,5.3,8.9,7.8c4.1,3.3,8.5,6.4,13.2,9.3
														c13.1,8,28.7,14.1,47,16.2c10,1.1,20.7,1.1,32.3-0.4c0,0-35-35.4,0-65.5c-0.7,0.3-26.1,11-22.3,45
														C228.5,352.3,173.5,335.8,138.4,307.7z"/>
												</g>
											</g>
										</g>
										<g class="st7">
											<g>
												<g>
													<path class="st8" d="M219.9,267.1c0,0,16.6,28.3-3.6,42c0,0-0.7,1.4,1.3,4.4s3.5,16.4-6.7,18.9c0,0-12.6-9.2-5.4-20.9
														c0,0,3.5-4.1,6.6-4.9C215,305.8,229.9,288.6,219.9,267.1z"/>
												</g>
											</g>
										</g>
										<g class="st7">
											<g>
												<g>
													<path class="st8" d="M199.4,259.6c20-0.7,43.1-6.9,61.3-27.2c-16.1,0.6-26.8,4.6-28.5,5.3l-0.1,0.1l-0.1,0
														c0,0-18.9,9-27.7,10.7l-6.2,1.5C192.4,251.4,193.6,259.8,199.4,259.6z"/>
												</g>
											</g>
										</g>
										<g class="st7">
											<g>
												<g>
													<path class="st8" d="M150.8,207c2.9,0.7,5.9,1.4,8.9,2c4.4,0.8,8.3,3.3,11,6.9c3.7,4.9,7.7,7.4,10,8.6
														c1.3,0.7,2.9,0.5,4.1-0.4c4-2.9,6.6-8.3,8.4-10.9c0.9-1.3,2.2-2.2,3.8-2.6c3.1-0.7,6.8-1.7,9.5-2.6
														c2.5-0.7,5.2,0,6.8,2.1c3.6,4.4,7.8,6.5,10.5,7.4c1.7,0.6,3.5,0.1,4.7-1.2c3.7-4.1,8.3-12.2,10.2-15.6
														c0.6-1.1,1.5-2.1,2.6-2.8c4.2-2.9,15.3-9.8,23.9-7.8c5.5,1.3,6.9,7.8,7,13.8c6.2-8,9-13.8,9-13.8
														c-0.9-3.1-3.7-11.8-8-14.9l0.6-0.1c4.8-1.1,8.6-6.9,9.6-14.7c2.1-16.7-8.9-42.9-50.2-53.4l-9.5-2.1
														c55.9,20.7,52.8,44.4,52.3,55.5c-0.5,11.2-17.5,3.2-38.6,19.5c-16.7,12.9-53,20.6-67.5,23.2
														c-3.9-0.1-10.4-0.3-18.1-0.9C148.5,202,147.9,206.3,150.8,207z M272.7,175.1c0.1,0,0.2,0,0.2,0
														C272.8,175.1,272.8,175.1,272.7,175.1z"/>
												</g>
											</g>
										</g>
										<g class="st7">
											<g>
												<g>
													<circle class="st8" cx="261.6" cy="134.9" r="5"/>
												</g>
											</g>
										</g>
										<g class="st7">
											<g>
												<g>
													<circle class="st8" cx="205.8" cy="146.4" r="5.4"/>
												</g>
											</g>
										</g>
										<g class="st7">
											<g>
												<g>
													<path class="st8" d="M168.8,147.2c0,0-22.8-10.1-31.4,6.9c0,0,0.4-18.1,12.8-18.1C162.7,136,168.8,147.2,168.8,147.2z"
														/>
												</g>
											</g>
										</g>
									</g>
								</g>
								<g>
									<g class="st7">
										<g>
											<g>
												<path class="st8" d="M272.1,393.8c0.3-0.7,0.5-1.5,0.7-2.2c1.1-5-1.3-9.2-3.6-11.8c0.9-0.2,1.9-0.3,3-0.3
													c0,0,8.9,6.2,6.9,15c-0.2,0.7-0.4,1.4-0.7,2.2c-4.2,9.9-11,5.9-15.8,14.1c-1.6,2.8-3.9,0.2-5.2-4.5
													C262.1,400.2,268.3,402.9,272.1,393.8z"/>
											</g>
										</g>
									</g>
									<g class="st7">
										<g>
											<g>
												<path class="st8" d="M253.3,383.1c0.5-1.2,1-2.3,1.7-3.3c0,0-0.5-1.3-1.5-3.1c4.3,4,6.1,9,6.1,9c-1.4,2-2.3,4.3-2.8,6.8
													c-18-0.5-24.4,15.3-24.4,15.3c-1.9-2.4-3-5.1-3.6-7.9c2.2-3.8,8.2-12.1,19.9-13.2C250.8,386.5,252.6,385.1,253.3,383.1z
													"/>
											</g>
										</g>
									</g>
									<g>
										<g class="st7">
											<g>
												<g>
													<path class="st8" d="M233.7,370.9c0,0-1.2-1.8-3.4-3.6c0.4,0.1,0.8,0.2,1.2,0.3c5,1.8,8,6.2,8,6.2
														c-4.8,2.9-9.3,9.8-10.6,17.3c-1.4-2.2-3.3-3.8-5.3-5C225.2,379.5,229.3,373.5,233.7,370.9z"/>
												</g>
											</g>
										</g>
									</g>
									<g class="st7">
										<g>
											<g>
												<path class="st8" d="M161.3,378.9c9.7-0.3,19.1-3.2,19.1-3.2s-0.7-4.5-3.7-7.8c0.9-0.1,1.8-0.2,2.7-0.1
													c9.1,0.6,10.8,11.3,10.8,11.3s-9.4,2.9-19.1,3.2c-5,0.2-13.4,4.8-13.4,4.8s-0.1-3.7,2.2-8
													C160.4,379,160.9,378.9,161.3,378.9z"/>
											</g>
										</g>
									</g>
									<g class="st7">
										<g>
											<g>
												<path class="st8" d="M152.3,370c5,1,8.6-1.8,9.3-2.4l0.1,0.1c2-1.7,4.6-3.3,7.9-4.5c2.4-0.9,4.4-1.3,6.2-1.3
													c2.5,3.2,3.5,5.8,3.5,5.8v0c-2-0.1-4.3,0.2-7,1.2c-3.3,1.3-5.9,2.8-7.9,4.5l-0.1-0.1c-0.7,0.6-4.3,3.4-9.3,2.4
													c-5.6-1.1-16.1,3.2-16.1,3.2c0.8-3.1,2.1-5.7,3.6-8C145.8,370.2,149.6,369.4,152.3,370z"/>
											</g>
										</g>
									</g>
									<g class="st7">
										<g>
											<g>
												<path class="st8" d="M142.4,362.2l1.7,0.1c7.4-7.3,17.6-9.4,21.8-10c1.5,1.5,2.4,3.2,2.7,4.2c-3.7,0.5-14.6,2.4-22.4,10
													l-0.5,0.5l-11.7-1.9c0,0,1.1-1.5,3.1-3.6L142.4,362.2z"/>
											</g>
										</g>
									</g>
								</g>
							</g>
							<g>
								<g>
									<g>
										<g>
											<g>
												<g>
													<path class="st6" d="M273,175.1c4.3,3.1,7.1,11.7,8,14.9c0.2,0.7,0.3,1.1,0.3,1.1c9-12.2,1.9-30.8,1.9-30.8
														C282.1,168.4,278.1,174.3,273,175.1z"/>
												</g>
											</g>
										</g>
										<g>
											<g>
												<g>
													<path class="st6" d="M213.5,198.5c3.1,9.5,11.3,13.2,11.3,13.2c6.8-10.7,7.2-21.3,7.2-21.7c-2.8,1.4-5.8,2.9-9.3,4.6
														C219.6,196.1,216.5,197.3,213.5,198.5z"/>
												</g>
											</g>
										</g>
										<g>
											<g>
												<g>
													<path class="st6" d="M172.8,205c1.4,7.1,9.3,13.2,9.3,13.2c7.4-7.8,8.3-14.1,8.3-14.1C183.4,205,177.4,205.2,172.8,205
														z"/>
												</g>
											</g>
										</g>
									</g>
									<g>
										<g>
											<g class="st7">
												<g>
													<g>
														<path class="st8" d="M278.1,172.3c3.1,3.1,5.3,9,6.4,12.4c-0.7,2.2-1.7,4.4-3.2,6.4c0,0-0.1-0.4-0.3-1.1
															c-0.9-3.1-3.7-11.8-8-14.9C274.9,174.8,276.6,173.8,278.1,172.3z"/>
													</g>
												</g>
											</g>
										</g>
										<g class="st7">
											<g>
												<g>
													<path class="st8" d="M218.9,196.3c2.2,5.5,6.2,8.8,8.6,10.5c-0.8,1.6-1.7,3.3-2.7,4.9c0,0-8.3-3.7-11.3-13.2
														C215.2,197.8,217,197.1,218.9,196.3z"/>
												</g>
											</g>
										</g>
										<g class="st7">
											<g>
												<g>
													<path class="st8" d="M178.2,205c1.4,4.1,4.7,7.7,6.8,9.7c-0.8,1.1-1.8,2.3-2.9,3.5c0,0-7.8-6.1-9.3-13.2
														C174.4,205.1,176.3,205.1,178.2,205z"/>
												</g>
											</g>
										</g>
									</g>
								</g>
								<g>
									<g class="st5">
										<g>
											<g>
												<path class="st6" d="M256.9,392.5c0.5-2.4,1.4-4.8,2.8-6.8c2.4-3.6,6.4-6.1,12.6-6.3c0,0,1.2,0.8,2.6,2.3
													c-5.2,0.6-8.8,3-11,6.2c-1.4,2-2.3,4.3-2.8,6.8c-1.2,6-0.2,12.5,1.4,16.2C259.6,415.3,254.7,403,256.9,392.5z"/>
											</g>
										</g>
									</g>
									<g class="st5">
										<g>
											<g>
												<path class="st6" d="M228.8,391.1c1.3-7.5,5.8-14.3,10.6-17.3c2-1.2,4.1-1.8,6.1-1.4c3.9,0.8,6.9,2.9,9.1,5.2
													c-1.4-0.8-3.1-1.5-4.9-1.9c-2-0.4-4.1,0.1-6.1,1.4c-4.8,2.9-9.3,9.8-10.6,17.3c-0.6,3.7-0.5,7.5,0.7,11
													c-0.8,1.4-1.2,2.3-1.2,2.3C228.6,402.8,227.8,396.8,228.8,391.1z"/>
											</g>
										</g>
									</g>
									<g class="st5">
										<g>
											<g>
												<path class="st6" d="M228.4,367c1.1,0.1,2.1,0.3,3,0.7c5,1.8,8,6.2,8,6.2c-0.2,0.1-0.5,0.3-0.7,0.4
													c-1.2-1-2.8-2-4.5-2.6c-0.9-0.3-1.9-0.6-3-0.7c-5.4-0.5-14.7,6.2-18.3,12.2c-2.6-0.2-4.3,0-4.3,0
													C209.1,376.8,221.7,366.4,228.4,367z"/>
											</g>
										</g>
									</g>
									<g class="st5">
										<g>
											<g>
												<path class="st6" d="M164.5,373.5c2-1.7,4.6-3.3,7.9-4.5c2.7-1,5-1.4,7-1.2c5.5,0.4,8.3,4.5,9.7,7.6
													c-1.6-1.8-3.9-3.3-7.1-3.6c-2-0.1-4.3,0.2-7,1.2c-3.3,1.3-5.9,2.8-7.9,4.5c-2.9,2.5-4.6,5.2-5.6,7.6
													c-2.2,1-3.8,1.9-3.8,1.9S157.3,379.5,164.5,373.5z"/>
											</g>
										</g>
									</g>
									<g class="st5">
										<g>
											<g>
												<path class="st6" d="M172.5,360.4c0,0-0.5,0-1.3,0.1c-3.7,0.5-14.6,2.4-22.4,10c-1.9,1.9-3.7,4.1-5.1,6.8
													c-2.8,0.8-4.8,1.7-4.8,1.7c1.5-5.3,4.2-9.4,7.3-12.5c7.8-7.7,18.7-9.6,22.4-10c0.8-0.1,1.3-0.1,1.3-0.1
													c5.2,3.5,7.9,8.2,8.9,10.3C177.4,364.6,175.3,362.3,172.5,360.4z"/>
											</g>
										</g>
									</g>
									<g class="st5">
										<g>
											<g>
												<path class="st6" d="M167.6,355.6c-2.1-1.9-5.4-3.3-10.5-2.3c-7.8,1.6-14.9,8.5-18.5,12.5l-4.5-0.7
													c0,0,9.8-13.1,21-15.4c5.1-1.1,8.4,0.4,10.5,2.3c1.8,1.6,2.7,3.5,3.1,4.5c-0.1,0-0.1,0-0.2,0
													C168.2,356.2,167.9,355.9,167.6,355.6z"/>
											</g>
										</g>
									</g>
								</g>
							</g>
							<g>
								<g>
									<g>
										<g>
											<circle class="st1" cx="291.3" cy="270" r="12.5"/>
										</g>
									</g>
								</g>
								<g>
									<g>
										<g>
											
												<ellipse transform="matrix(0.9871 -0.1602 0.1602 0.9871 -28.981 20.4601)" class="st1" cx="112.4" cy="190" rx="12.5" ry="12.5"/>
										</g>
									</g>
								</g>
								<g>
									<g>
										<g>
											
												<ellipse transform="matrix(0.9732 -0.2298 0.2298 0.9732 -52.7218 69.2363)" class="st1" cx="271" cy="261" rx="6.9" ry="6.9"/>
										</g>
									</g>
								</g>
								<g>
									<g>
										<g>
											<circle class="st1" cx="105.5" cy="164.8" r="6.9"/>
										</g>
									</g>
								</g>
								<g>
									<g>
										<g>
											<circle class="st1" cx="370.5" cy="276.9" r="6.9"/>
										</g>
									</g>
								</g>
								<g>
									<g>
										<g>
											
												<ellipse transform="matrix(0.9732 -0.2298 0.2298 0.9732 -56.6173 69.69)" class="st1" cx="271" cy="278" rx="4.6" ry="4.6"/>
										</g>
									</g>
								</g>
								<g>
									<g>
										<g>
											
												<ellipse transform="matrix(0.9732 -0.2298 0.2298 0.9732 -70.6314 67.3427)" class="st1" cx="253.9" cy="337" rx="4.6" ry="4.6"/>
										</g>
									</g>
								</g>
								<g>
									<g>
										<g>
											<circle class="st1" cx="314.1" cy="264.2" r="2.9"/>
										</g>
									</g>
								</g>
								<g>
									<g>
										<g>
											<circle class="st1" cx="360.7" cy="282.6" r="2.9"/>
										</g>
									</g>
								</g>
								<g>
									<g>
										<g>
											<circle class="st1" cx="257.4" cy="346.7" r="2.9"/>
										</g>
									</g>
								</g>
								<g>
									<g>
										<g>
											<circle class="st1" cx="193.3" cy="279.7" r="2.9"/>
										</g>
									</g>
								</g>
								<g>
									<g>
										<g>
											<circle class="st1" cx="248.2" cy="211.6" r="2.9"/>
										</g>
									</g>
								</g>
							</g>
						</g>
						<g>
							<g>
								<g>
									<g>
										<g>
											<path class="st8" d="M163.4,204.7c2.3,0.9,4.6,1.4,7,1.9c1.2,0.2,2.4,0.3,3.6,0.5c1.2,0.1,2.4,0.2,3.6,0.3
												c4.8,0.2,9.6-0.2,14.3-0.8l3.6-0.5c1.2-0.2,2.4-0.5,3.5-0.7l1.8-0.3c0.6-0.1,1.2-0.3,1.8-0.4l3.5-0.9
												c1.2-0.3,2.3-0.7,3.5-1l1.7-0.5c0.6-0.2,1.1-0.4,1.7-0.6l3.4-1.2l1.7-0.6l1.7-0.7c2.2-1,4.4-1.9,6.5-2.9
												c2.1-1,4.2-2,6.4-3.1c4.2-2.1,8.4-4.3,12.6-6.4c4.1-2.2,8.2-4.4,12.3-5.9c2-0.7,4.1-1.4,6.2-1.7c2.1-0.3,4.3-0.5,6.6-0.6
												l1.7-0.1c0.4,0,0.8,0,1.2-0.1c0.4-0.1,0.8-0.1,1.2-0.2c1.6-0.4,3-1.1,4.2-2c2.4-1.8,4-4.2,5.2-6.7
												c2.3-4.9,2.8-10.1,2.5-15.2c-0.3-5.1-1.6-10-3.7-14.6c-2-4.6-4.8-8.8-8.1-12.5c-6.6-7.4-15-12.8-23.8-16.7
												c-4.4-1.9-9-3.5-13.6-4.8c-1.1-0.3-2.3-0.6-3.5-0.9c-1.2-0.3-2.3-0.5-3.5-0.6c-1.2-0.1-2.4-0.2-3.6-0.1
												c-1.2,0.1-2.5,0.2-3.7,0.6c-0.2,0-0.3,0.2-0.2,0.4c0,0.1,0.1,0.1,0.1,0.2l0,0c1.1,0.8,2.1,1.3,3.2,1.8
												c1.1,0.5,2.2,1,3.3,1.3c2.2,0.8,4.4,1.3,6.6,2c4.4,1.3,8.7,2.9,12.8,4.8c8.2,3.8,15.9,9,21.6,15.7
												c2.9,3.4,5.3,7.1,7,11.1c1.7,4,2.8,8.3,3.1,12.6c0.2,4.3-0.3,8.6-2.1,12.2c-0.8,1.8-2,3.4-3.3,4.3c-0.7,0.5-1.3,0.8-2,1
												c-0.2,0-0.3,0.1-0.5,0.1l-0.6,0l-1.8,0.1c-2.4,0.1-4.9,0.3-7.4,0.7c-2.5,0.4-5,1.1-7.3,2c-4.7,1.8-8.8,4.1-13,6.3
												c-4.1,2.2-8.3,4.4-12.4,6.5c-2.1,1.1-4.2,2.1-6.2,3.1c-2.1,1.1-4.2,2-6.2,2.9l-1.6,0.7l-1.6,0.6l-3.2,1.2
												c-0.5,0.2-1.1,0.4-1.6,0.6l-1.6,0.5c-1.1,0.3-2.2,0.7-3.3,1l-3.3,0.9c-0.6,0.1-1.1,0.3-1.7,0.4l-1.7,0.4
												c-1.1,0.2-2.2,0.5-3.4,0.7l-3.4,0.5c-9.1,1.3-18.2,1.7-27.5,2.2l0,0c-0.3,0-0.6,0.3-0.6,0.7
												C163.1,204.5,163.2,204.7,163.4,204.7z"/>
										</g>
									</g>
								</g>
								<g>
									<g>
										<g>
											<path class="st8" d="M230.1,353.1c6.3,0,12.7-0.4,19.2-1.3l-0.7-5.2c-40.8,5.6-76.1-6.7-104.7-36.8
												c-21.5-22.6-31-47.2-31.1-47.4c-0.2-0.6-0.6-1-1.2-1.3c-0.1,0-8.9-5.2-17.3-17.6c-7.8-11.5-16.9-31.7-15.9-63
												c0.8-24.7,8.1-44.8,21.1-58.3c9.8-10.1,19.6-13,19.7-13c0.5-0.2,1-0.5,1.3-0.9c9.8-12.6,23.7-18.4,41.1-17.3
												c13.3,0.9,23.7,5.6,23.8,5.7c0.7,0.3,1.6,0.3,2.3-0.1c26.9-14.6,42.2,10.6,42.9,11.7l4.5-2.6c-0.2-0.3-18.1-30-48.7-14.3
												c-3.3-1.3-12.7-4.8-24.3-5.6c-18.8-1.3-34.4,5.2-45.2,18.6c-2.8,0.9-11.8,4.5-20.9,13.9c-9.8,10-21.8,28.9-22.8,62
												c-1,32.9,8.7,54.3,17,66.4c7.7,11.2,15.5,16.8,18,18.4c1.9,4.6,11.6,27,31.7,48.2c13.1,13.7,27.8,24.1,43.8,30.8
												C198.2,350.1,213.7,353.1,230.1,353.1z"/>
										</g>
									</g>
								</g>
								<g>
									<g>
										<g>
											<path class="st8" d="M281.3,193.7c0.8,0,1.6-0.4,2.1-1.1c9.7-13.2,2.5-32.5,2.2-33.3l-4.9,1.9l2.4-0.9l-2.4,0.9
												c0.1,0.1,4.7,12.7,1.2,23.1c-1.6-4-4-9-7.4-11.4l-3.1,4.2c3.7,2.6,6.5,11.4,7.3,14.5c0.2,1,1,1.7,2,1.9
												C281,193.7,281.1,193.7,281.3,193.7z"/>
										</g>
									</g>
								</g>
								<g>
									<g>
										<g>
											<path class="st8" d="M224.8,214.3c0.9,0,1.7-0.4,2.2-1.2c7.2-11.3,7.6-22.5,7.6-23c0-1.4-1.1-2.6-2.5-2.7
												c0,0-0.1,0-0.1,0c-1.4,0-2.6,1.1-2.6,2.5c0,0.1-0.4,8.9-5.5,18.2c-2.3-1.6-6.2-4.9-7.9-10.4c-0.4-1.4-1.9-2.1-3.3-1.7
												c-1.4,0.4-2.1,1.9-1.7,3.3c3.4,10.5,12.4,14.6,12.7,14.8C224.1,214.2,224.4,214.3,224.8,214.3z"/>
										</g>
									</g>
								</g>
								<g>
									<g>
										<g>
											<path class="st8" d="M182.1,220.8c0.7,0,1.4-0.3,1.9-0.8c7.8-8.3,9-15.2,9-15.5l-5.2-0.8c0,0.1-0.9,4.7-6,10.8
												c-2.2-2.1-5.7-6-6.5-10.1l-5.1,1c1.6,7.9,9.9,14.5,10.2,14.8C181,220.6,181.5,220.8,182.1,220.8z"/>
										</g>
									</g>
								</g>
								<g>
									<g>
										<g>
											<path class="st8" d="M278.9,189c-0.5,0.8-1,1.7-1.5,2.5c-0.5,0.8-1.1,1.7-1.7,2.5c-1.1,1.7-2.3,3.3-3.5,4.9
												c-1.2,1.6-2.5,3.2-3.7,4.8c-1.3,1.6-2.6,3.1-3.9,4.6c-2.7,3-5.5,5.9-8.5,8.6l-2.2,2c-0.7,0.7-1.5,1.3-2.3,2
												c-0.8,0.7-1.5,1.3-2.3,1.9c-0.8,0.6-1.6,1.3-2.4,1.9c-6.4,4.9-13.2,9.3-20.4,12.9l-2.7,1.3c-0.5,0.2-0.9,0.5-1.4,0.7
												l-1.4,0.6l-2.7,1.3l-2.8,1.3c-1.8,0.9-3.7,1.7-5.6,2.6c-1.9,0.9-3.8,1.7-5.6,2.7l0,0c-0.1,0.1-0.1,0.2-0.1,0.3
												c0,0.1,0.1,0.1,0.2,0.1c4.2-0.2,8.4-0.8,12.5-1.9c4.1-1,8-2.6,11.9-4.3c7.7-3.5,15-7.9,21.7-13c3.4-2.5,6.6-5.3,9.7-8.2
												c3.1-2.9,6-5.9,8.8-9.2c2.8-3.2,5.3-6.5,7.7-10c1.2-1.7,2.3-3.5,3.4-5.4c0.5-0.9,1.1-1.8,1.6-2.8c0.5-1,1-1.9,1.5-2.9
												c0.5-1.2,0-2.5-1.1-3C280.8,187.5,279.6,187.9,278.9,189L278.9,189z"/>
										</g>
									</g>
								</g>
								<g>
									<g>
										<g>
											<path class="st8" d="M308.5,343.9c0.1,0,0.2,0,0.3,0c26.2-2.7,48.6-9.9,66.8-21.6c14.6-9.4,26.5-21.6,35.3-36.4
												c15-25.1,15.9-48.4,15.9-49.4c0-1.1-0.6-2-1.5-2.5c-1-0.4-2.1-0.2-2.9,0.5c-22.9,21.4-59.4,22.5-74,21.9
												c-4.4-0.2-8.6-1.5-12.2-3.9c-29-19.6-56-23.2-73.6-22.8c-19.1,0.4-31.2,5.4-31.8,5.7c-1.3,0.6-2,2.1-1.4,3.4
												c0.6,1.3,2.1,2,3.4,1.4l0,0c0.1,0,11.9-4.9,30.1-5.3c16.7-0.3,42.5,3.2,70.3,21.9c4.4,2.9,9.5,4.6,14.9,4.8
												c14.3,0.5,48.5-0.4,72.7-19c-1.2,8.5-4.8,24.4-14.6,40.8c-19.3,32-52.3,50.6-98.1,55.3c-1.4,0.1-2.5,1.4-2.3,2.9
												C306.1,342.9,307.2,343.9,308.5,343.9z"/>
										</g>
									</g>
								</g>
								<g>
									<g>
										<g>
											<path class="st8" d="M309,309.1c0.6,4,0.9,7.9,1,11.8c0,2-0.1,3.9-0.3,5.8c-0.2,1.9-0.5,3.8-0.9,5.7
												c-0.9,3.7-2.4,7.1-4.5,10c-2.1,2.9-5,5.2-8.1,7v0l-0.1,0c-1,0.6-1.5,1.8-1.2,2.9c0.1,0.4,0.2,0.9,0.3,1.4
												c0.1,0.5,0.2,1,0.3,1.5c0.2,1,0.3,2,0.4,3c0.2,2,0.3,4,0.2,6c-0.1,4-0.7,8-2.1,11.7c-0.7,1.8-1.5,3.6-2.5,5.2
												c-1,1.6-2.2,3.2-3.6,4.5c-1.4,1.4-2.9,2.6-4.5,3.6c-1.6,1.1-3.4,1.9-5.2,2.7l-0.1,0.1c-1.3,0.6-1.9,2.1-1.4,3.4
												c0.6,1.3,2.1,1.9,3.4,1.4c2.1-0.9,4.2-1.9,6.1-3.1c2-1.2,3.8-2.7,5.4-4.3c1.7-1.6,3.1-3.5,4.3-5.4c1.2-2,2.2-4.1,3-6.2
												c1.6-4.3,2.3-8.8,2.4-13.3c0.1-2.2,0-4.5-0.3-6.7c-0.1-1.1-0.3-2.2-0.4-3.3c-0.1-0.6-0.2-1.1-0.3-1.7
												c-0.1-0.6-0.2-1.1-0.4-1.7l-1.3,3c3.8-2.1,7.2-5.1,9.6-8.8c1.2-1.8,2.2-3.8,2.9-5.8c0.7-2,1.2-4.1,1.5-6.2
												c0.6-4.2,0.5-8.4-0.1-12.4c-0.3-2-0.7-4-1.3-6c-0.6-2-1.2-3.9-2.1-5.7c0-0.1-0.1-0.1-0.2-0.1
												C309,309,309,309.1,309,309.1L309,309.1z"/>
										</g>
									</g>
								</g>
								<g>
									<g>
										<g>
											<path class="st8" d="M247.1,283.3c-2.9,2-5.4,4.5-7.6,7.2c-0.6,0.7-1.1,1.4-1.6,2.1c-0.5,0.7-1,1.5-1.5,2.2
												c-0.5,0.8-0.9,1.5-1.3,2.3l-0.6,1.2l-0.6,1.2c-1.5,3.3-2.5,6.8-3,10.3c-0.5,3.6-0.5,7.2,0,10.8c1,7.2,4,13.9,7.7,19.9
												c0.9,1.5,2,2.9,3,4.4c1.1,1.4,2.2,2.8,3.3,4.2c1.2,1.3,2.3,2.7,3.5,4l3.7,3.8l-0.5-3l0,0c-0.9,1.9-2,3.8-3.2,5.4
												c-0.3,0.4-0.6,0.7-0.8,1c-0.1,0-0.1,0.1-0.2,0.1c-0.1,0.1,0,0,0.1,0l0.1-0.1c0.2-0.1,0.1,0,0,0c-0.2,0-0.7,0-1.2-0.1
												l-1.7-0.2c-2.4-0.3-5.1-0.3-7.7,0.5c-2.6,0.7-4.9,2.2-6.8,4c-1.1,1-1.1,2.6-0.2,3.7c1,1.1,2.6,1.1,3.7,0.2l0,0
												c1.4-1.3,3-2.3,4.8-2.8c1.7-0.5,3.6-0.5,5.7-0.3l1.7,0.2c0.6,0.1,1.3,0.1,2.2,0.1c0.5-0.1,1-0.1,1.7-0.4
												c0.2-0.1,0.3-0.2,0.5-0.3c0.2-0.1,0.4-0.2,0.4-0.3l0.5-0.4c0.6-0.5,1-1.1,1.4-1.6c1.5-2.1,2.6-4.1,3.7-6.3l0,0
												c0.5-1,0.3-2.3-0.5-3c-4.8-4.7-9.3-9.6-13-15.2c-3.6-5.5-6.5-11.6-7.7-18c-0.6-3.2-0.7-6.5-0.4-9.7
												c0.3-3.2,1.1-6.4,2.3-9.5c2.4-6.1,6.2-11.9,11-16.5l0,0c0.2-0.2,0.2-0.6,0-0.9C247.7,283.1,247.3,283.1,247.1,283.3z"/>
										</g>
									</g>
								</g>
								<g>
									<g>
										<g>
											<path class="st8" d="M259.9,414.2c-4.7-1.7-7-12.8-5.7-20.8c1.6-10.2,8.2-16.2,18.1-16.6c0.6,0,1.1,0.1,1.6,0.5
												c4.2,2.9,11.1,11,7.1,20.3c-2.6,6.3-6.4,7.9-9.7,9.3c-2.5,1.1-4.5,2-6.3,5c-1,1.8-2.5,2.4-3.7,2.4
												C260.7,414.4,260.3,414.4,259.9,414.2z M259.9,391.2c-2.1,6.8-0.4,14.3,1.1,17.1c2.5-3.7,5.6-5.1,8.1-6.2
												c2.9-1.2,5.1-2.2,6.9-6.6c2.8-6.6-2.7-11.9-4.7-13.5C265.5,382.6,261.7,385.7,259.9,391.2z"/>
										</g>
									</g>
								</g>
								<g>
									<g>
										<g>
											<path class="st8" d="M232.5,410.4c0.1,0,0.2,0,0.4,0c0.9-0.1,1.7-0.7,2.1-1.6c0.2-0.6,6-14.1,21.9-13.6
												c1.5,0,2.6-1.1,2.7-2.5c0-1.4-1.1-2.6-2.5-2.7c-13.4-0.4-21,7.6-24.5,12.7c-2.8-6.6-1-14.6,2.5-20.4
												c3-4.8,7.1-7.8,10.1-7.2c8.6,1.7,12.1,11.5,12.2,11.6c0.5,1.4,2,2.1,3.3,1.6c1.4-0.5,2.1-2,1.6-3.3
												c-0.2-0.5-4.5-12.6-16.1-15c-5.3-1.1-11.2,2.6-15.6,9.6c-5.2,8.3-7.2,20.8-0.1,29.9C230.9,410,231.7,410.4,232.5,410.4z"
												/>
										</g>
									</g>
								</g>
								<g>
									<g>
										<g>
											<path class="st8" d="M228.8,393.7c0.5,0,0.9-0.1,1.4-0.4c1.2-0.8,1.6-2.4,0.8-3.6c-4.6-7.3-13.6-8.9-18.8-9.1
												c3-5.1,11.6-11.4,16-11.1c5.3,0.4,9,5.7,9.1,5.8c0.8,1.2,2.4,1.5,3.6,0.7c1.2-0.8,1.5-2.4,0.7-3.6c-0.2-0.3-5.1-7.4-13-8
												c-8-0.7-22,10.9-22.7,18.7c-0.1,0.8,0.2,1.5,0.8,2.1c0.5,0.5,1.3,0.8,2.1,0.7c0.1,0,13-1.1,17.8,6.6
												C227.1,393.3,228,393.7,228.8,393.7z"/>
										</g>
									</g>
								</g>
								<g>
									<g>
										<g>
											<path class="st8" d="M166.3,333.9c0.1,0.8,0.2,1.4,0.4,2.1c0.2,0.7,0.4,1.4,0.6,2c0.4,1.3,1,2.6,1.6,3.9
												c0.6,1.3,1.4,2.5,2.2,3.6c0.9,1.1,1.8,2.2,3,3.1c0.3,0.3,0.8,0.2,1.1-0.1c0.2-0.2,0.2-0.5,0.1-0.8l0,0
												c-0.5-1.2-0.9-2.4-1.3-3.7c-0.3-1.2-0.7-2.4-1-3.7l-0.8-3.7c-0.3-1.2-0.5-2.5-0.8-3.6l0-0.1c-0.4-1.4-1.8-2.2-3.2-1.9
												C167,331.4,166.2,332.6,166.3,333.9z"/>
										</g>
									</g>
								</g>
								<g>
									<g>
										<g>
											<path class="st8" d="M168,352.7c0.6-3.9,5.2-5.8,5.3-5.8l-1.9-4.9c-0.3,0.1-7.5,2.9-8.6,9.9L168,352.7z"/>
										</g>
									</g>
								</g>
								<g>
									<g>
										<g>
											<path class="st8" d="M145.3,369.6l0.8-5.2l-7.1-1.2c3.5-3.8,9.9-9.6,16.5-11c8.4-1.8,10.6,4.9,10.8,5.6l5-1.4
												c-1.2-4.2-6.2-11.6-16.9-9.3c-12,2.5-22.1,15.8-22.5,16.4c-0.5,0.7-0.7,1.7-0.3,2.5c0.3,0.8,1.1,1.5,2,1.6L145.3,369.6z"
												/>
										</g>
									</g>
								</g>
								<g>
									<g>
										<g>
											<path class="st8" d="M138.9,381.6c0.3,0,0.7-0.1,1-0.2c2.7-1.1,10.7-3.8,14.6-3c6.9,1.4,11.6-3,11.7-3.2l-3.6-3.8
												c-0.1,0.1-3,2.7-7.1,1.9c-3.5-0.7-8.4,0.3-12.2,1.4c6.6-12.7,22-15.3,25.8-15.7c5.5,4.1,7.7,9.5,7.7,9.6l4.9-1.9
												c-0.1-0.3-2.9-7.5-10.4-12.6c-0.5-0.3-1-0.5-1.6-0.4c-0.3,0-27,1.8-33.4,24.6c-0.3,1,0,2,0.8,2.6
												C137.7,381.4,138.3,381.6,138.9,381.6z"/>
										</g>
									</g>
								</g>
								<g>
									<g>
										<g>
											<path class="st9" d="M190.2,379"/>
										</g>
									</g>
								</g>
								<g>
									<g>
										<g>
											<path class="st8" d="M156.3,389.3c-0.8-0.4-1.3-1.3-1.3-2.2c0-0.6-0.4-14.3,16.4-20.6c5.3-2,9.9-1.9,13.7,0.3
												c4.1,2.3,6,6.5,6.9,9.2c21-4.3,21.2-25.4,21.2-26.4c0-1.4,1.2-2.6,2.6-2.6c0,0,0,0,0,0c1.4,0,2.6,1.2,2.6,2.6
												c0,0.3-0.2,28-27.8,31.9c-1.5,0.4-10.3,3-19.6,3.3c-3.5,0.1-10.1,3.3-12.3,4.5c-0.4,0.2-0.8,0.3-1.3,0.3
												C157.2,389.6,156.7,389.5,156.3,389.3z M182.5,371.3c-2.4-1.4-5.5-1.3-9.2,0.1c-7.7,2.9-10.8,7.5-12.1,11
												c3-1.3,6.8-2.7,9.8-2.8c6.4-0.2,12.6-1.6,16-2.4C186.3,375.3,184.9,372.7,182.5,371.3z"/>
										</g>
									</g>
								</g>
								<g>
									<g>
										<g>
											<path class="st8" d="M201.3,333.7c-0.6,0.9-1.3,1.8-2,2.7c3.1,0.1,6.4,0,9.7-0.7c1.8-0.4,3.8-1.2,5.5-2.5
												c1.7-1.3,3.2-3.2,3.8-5.4c0.7-2.1,0.7-4.2,0.3-6.2c-0.2-1-0.4-1.9-0.7-2.8c-0.1-0.5-0.3-0.9-0.5-1.4
												c-0.1-0.2-0.2-0.4-0.3-0.7c-0.1-0.2-0.2-0.4-0.3-0.7c-0.6-1.3-2.2-1.8-3.5-1.2c-0.2,0.1-0.3,0.2-0.5,0.3l0,0
												c-1.1,0.8-2.3,1.7-3.5,2.5c-0.5,0.3-1,0.6-1.4,0.9c-0.1,0.1-0.2,0.1-0.3,0.2c-0.2,0.1-0.5,0.2-0.7,0.3c0-0.1,0-0.2,0-0.2
												c-0.2-1.1-0.1-2.3,0.1-3.5c0.2-1.1,0.7-2.2,1.4-3c0.2-0.3,0.4-0.5,0.7-0.8c0.1-0.2,0.3-0.3,0.4-0.4
												c0.2-0.2,0.4-0.3,0.7-0.5l0.4-0.2l0.5-0.3c1.4-0.8,2.9-1.8,4.2-3c1.2-1.1,2.3-2.4,3.3-3.7c2-2.6,3.6-5.6,4.6-8.7
												c1-3.1,1.6-6.4,1.7-9.6c0.2-6.5-1.5-12.8-4.7-18.1c-0.2-0.3-0.5-0.3-0.8-0.2c-0.2,0.1-0.3,0.4-0.3,0.6v0
												c0.9,6.1,1.7,11.8,1.4,17.5c-0.4,5.6-2.5,11-5.9,15.3c-0.9,1.1-1.8,2.1-2.8,3c-0.7,0.7-1.5,1.2-2.5,1.8
												c-0.2,0.1-0.5,0.3-0.8,0.4l-0.5,0.2l-0.6,0.3c-0.4,0.2-0.8,0.5-1.2,0.8c-0.8,0.6-1.5,1.3-2.1,2.1c-1.2,1.5-2,3.3-2.4,5.2
												c-0.4,1.8-0.5,3.7-0.2,5.6c0.1,0.5,0.2,1,0.3,1.5c0.2,0.5,0.4,1.1,0.8,1.7c0.1,0.2,0.2,0.3,0.4,0.5
												c0.2,0.2,0.3,0.3,0.5,0.6c0.1,0.1,0.2,0.2,0.4,0.3c0.1,0.1,0.3,0.2,0.5,0.3c0.4,0.2,0.6,0.2,0.9,0.3
												c0.3,0,0.5,0.1,0.7,0.1c0.7,0,1.2-0.1,1.6-0.2c1.1-0.3,1.9-0.7,2.7-1.2c0.8-0.4,1.5-0.9,2.1-1.3c0.3-0.2,0.6-0.4,0.9-0.7
												c0.1,0.3,0.1,0.6,0.2,0.9c0.2,1.4,0.2,2.7-0.2,3.8c-0.1,0.3-0.2,0.5-0.3,0.8c-0.2,0.2-0.2,0.5-0.4,0.7
												c-0.3,0.5-0.8,0.8-1.2,1.2c-1,0.7-2.3,1.3-3.7,1.6c-1.5,0.4-3.2,0.6-4.9,0.6C202.4,332,201.9,332.9,201.3,333.7z"/>
											<path class="st8" d="M185.3,266.6c0.5,0.3,0.9,0.5,1.4,0.8c0.7,0.4,1.3,0.8,2,1.3c1.4-2.4,2.9-4.8,4.4-7.3l0,0
												c0.2-0.4,0.1-0.9-0.3-1.2c-0.3-0.2-0.6-0.2-0.9,0c-1.5,1-2.8,2.1-4,3.3c-0.6,0.6-1.2,1.3-1.7,1.9
												C185.9,265.8,185.6,266.2,185.3,266.6z"/>
										</g>
									</g>
								</g>
								<g>
									<g>
										<g>
											<path class="st8" d="M212.9,333.8c1.1,0,2.1-0.7,2.5-1.8c0.5-1.4-0.3-2.8-1.7-3.3c-5.1-1.7-5.6-6.7-5.6-6.9
												c-0.1-1.4-1.4-2.5-2.8-2.4c-1.4,0.1-2.5,1.3-2.4,2.8c0,0.4,0.7,8.7,9.2,11.5C212.3,333.8,212.6,333.8,212.9,333.8z"/>
										</g>
									</g>
								</g>
								<g>
									<g>
										<g>
											<path class="st8" d="M170.2,146.5c-0.4-1.1-0.8-2-1.3-3c-0.5-1-1-1.9-1.7-2.8c-1.2-1.8-2.7-3.5-4.6-4.9
												c-1.8-1.4-4-2.6-6.4-3.2c-2.4-0.7-5.1-0.7-7.5-0.1c-0.6,0.2-1.2,0.3-1.8,0.5c-0.6,0.2-1.1,0.4-1.7,0.7
												c-1.1,0.5-2.2,1.1-3.2,1.9c-2,1.5-3.6,3.5-4.7,5.6c-1.1,2.1-1.7,4.4-1.8,6.6c-0.1,1.1-0.1,2.2,0,3.3
												c0.1,1.1,0.3,2.1,0.6,3.2c0.2,0.7,0.9,1,1.6,0.8c0.4-0.1,0.7-0.5,0.8-0.8l0.1-0.2c0.1-0.4,0.2-0.9,0.4-1.3
												c0.1-0.5,0.2-0.9,0.4-1.4c0.3-0.9,0.6-1.8,0.9-2.6c0.7-1.6,1.5-3.1,2.5-4.4c0.5-0.6,1-1.2,1.6-1.7c0.6-0.5,1.1-1,1.8-1.3
												c0.6-0.4,1.3-0.7,2-1c0.7-0.3,1.5-0.5,2.2-0.7c0.4-0.1,0.7-0.2,1.1-0.2l0.5-0.1l0.5,0c0.7,0,1.4,0,2.1,0.2
												c1.4,0.3,2.9,0.8,4.4,1.6c2.9,1.6,5.8,4.1,8.4,6.8l0.1,0.1c0.6,0.6,1.6,0.7,2.3,0C170.3,147.7,170.4,147,170.2,146.5z"/>
										</g>
									</g>
								</g>
							</g>
							<g>
								<g>
									<g>
										<path class="st8" d="M202.6,141.5c-1.2,0.6-2.1,1.5-2.8,2.6c-0.4,0.6-0.6,1.2-0.8,2c-0.2,0.7-0.2,1.6,0,2.4
											c0.2,0.8,0.7,1.6,1.2,2.2c0.6,0.6,1.2,1,1.9,1.3c0.7,0.3,1.3,0.4,2,0.4c0.3,0,0.7,0,1-0.1c0.3-0.1,0.7-0.2,1-0.3
											c0.2-0.1,0.3-0.3,0.2-0.5c0,0,0,0,0-0.1l0,0c-0.8-1.1-1.6-1.8-2.2-2.5c-0.3-0.3-0.5-0.6-0.6-0.8c-0.2-0.2-0.3-0.4-0.4-0.7
											c-0.2-0.4-0.2-1.2-0.1-2.1c0.1-0.9,0.4-1.9,0.6-3l0-0.1c0.1-0.4-0.2-0.7-0.6-0.8C202.8,141.5,202.7,141.5,202.6,141.5z"/>
									</g>
								</g>
							</g>
							<g>
								<g>
									<g>
										<path class="st8" d="M259.2,131.1c0.9,0.7,1.7,1.4,2.4,2c0.7,0.6,1.1,1.2,1.2,1.7c0.1,0.2,0.1,0.4,0.1,0.7
											c0,0.3,0.1,0.6,0,1.1c0,0.9-0.2,1.9-0.1,3.3l0,0c0,0.2,0.2,0.4,0.4,0.4c0,0,0.1,0,0.1,0c0.4-0.1,0.7-0.2,1-0.4
											c0.3-0.2,0.6-0.3,0.8-0.5c0.5-0.4,1-0.9,1.3-1.6c0.4-0.6,0.6-1.4,0.7-2.2c0.1-0.8-0.1-1.7-0.5-2.5
											c-0.4-0.8-0.9-1.4-1.5-1.9c-0.6-0.5-1.2-0.8-1.9-1.1c-1.3-0.5-2.6-0.5-3.9-0.2c-0.4,0.1-0.6,0.5-0.5,0.8
											C258.9,130.8,259,130.9,259.2,131.1L259.2,131.1z"/>
									</g>
								</g>
							</g>
						</g>
					</g>
				</g>
			</g>
		</g>
	</g>
	<circle class="st10" cx="152" cy="148.5" r="25.5"/>
	<path class="st8" d="M123.3,151.1c0.6,3.8,1.9,7.3,3.8,10.5c0,0.2-0.1,0.4,0,0.7c0.3,5.2-5.8,2.6-5.8,5.8c0,3.2,2.6,5.8,5.8,5.8
		c3,0,1.8-6.7,5-6c1.5,1.4,3.1,2.7,4.8,3.8c2.4,1.5,5,2.6,8,3.5c1.4,0.4,2.4,0.6,3.2,0.7c0.8,0.1,1.6,0.2,2.4,0.2c0,0,0,0,0,0
		l1.9,0.1l2-0.1c0.6,0,1.4-0.1,2.4-0.3c0.8-0.1,1.8-0.3,3.2-0.7c3-0.8,5.7-2,8-3.5c3.1-2,6-4.7,8.3-7.8c2.7-3.8,4.4-8.1,5.2-12.7
		c0.8-5.1,0.1-10.6-1.8-15.4c-0.9-2.4-2.3-4.7-4.2-7.2c-1.7-2.1-3.8-4.1-6.3-5.9c-2.3-1.6-5-2.9-8-3.9l-0.5-0.1
		c-1.2-0.3-2.5-0.7-3.9-0.9c-1.2-0.2-2.1-0.3-3.1-0.3l-1.2-0.1c-3.3,0.1-6.2,0.6-8.9,1.4c-2.9,0.9-5.6,2.3-8,3.9
		c-2.5,1.8-4.7,3.8-6.3,5.9c-1.9,2.5-3.2,4.9-4.2,7.3c-1.1,3-1.7,5.4-1.9,7.8c-0.2,1-0.2,1.9-0.2,2.8l0,0.9
		C123,148.7,123.1,149.8,123.3,151.1z M127.4,147.5l0.1-0.8c0.1-0.8,0.1-1.7,0.3-2.4c0.3-2,1-4.1,2.1-6.4c2-4,5.2-7.6,9.1-10.1
		c1.9-1.1,4-2.1,6.4-2.9c2.1-0.6,4.4-0.9,7-1c0.3,0,0.7,0,1.1,0.1c0.8,0,1.8,0.1,2.4,0.2c1,0.1,2,0.3,3,0.6l0.6,0.1
		c2.3,0.7,4.4,1.7,6.3,2.9c3.9,2.5,7.1,6.1,9.1,10.1c1.9,4,2.8,8.4,2.5,12.9c-0.3,4-1.6,8-3.7,11.3c-1.7,2.9-4.1,5.4-7.1,7.4
		c-2.7,1.9-5.4,2.9-7.2,3.4c-1.2,0.4-2.1,0.6-2.9,0.6c-0.9,0.2-1.6,0.3-2.2,0.3l-1.9,0.1l-1.9-0.1c-0.6,0-1.3-0.1-2.2-0.3
		c-0.8-0.1-1.7-0.3-2.9-0.6c-1.8-0.5-4.5-1.5-7.2-3.4c-3-2.1-5.4-4.6-7.1-7.4c-2.1-3.4-3.4-7.4-3.7-11.4
		C127.3,149.5,127.3,148.4,127.4,147.5z"/>
	<g>
		<path class="st8" d="M298,158.5c2.2-4,1.5-9.3-1.2-13c-2.4-3.3-6.1-5.4-10-6.5c1.6,0.9,3.1,2.2,4.1,3.2c1.8,1.7,2.8,4,3.2,6.4
			c0.1,0.8,0.2,1.7,0.1,2.5c-0.3,2-1.5,3.8-3.1,5.1c-2.2,1.8-5.3,2.7-8.2,2.3c2.2-0.1,4.4-0.8,6.2-2.2c1.7-1.4,2.9-3.4,3-5.4
			c0.1-1.9-0.8-3.7-2-5.2c0,0.4,0.1,0.7,0.1,1.1c0.1,4.1-1.6,5.9-5.7,5.6c-4.1-0.3-7.9-2-11.7-3.7c-7-3.1-14-8.3-21.9-0.4
			c-4.3,5.7,1.8,15.7,10.8,15.1c1.9-0.1,5.7-0.5,7.6-0.7c3.3-0.4,5.5,0.9,8.8,1.7C285.7,166.2,294.2,165.4,298,158.5z"/>
		<path class="st8" d="M244.8,150c-10.8-2.7-14.2,5.4-18.5,11.6c-2.3,3.4-4.7,6.8-8.1,9.2c-3.3,2.4-5.7,1.7-7.8-1.8
			c-0.2-0.3-0.4-0.7-0.5-1c-0.4,1.9-0.1,3.9,0.9,5.5c1.2,1.7,3.2,2.8,5.4,3.1c2.2,0.3,4.5-0.3,6.4-1.3c-2.3,1.8-5.3,2.7-8.2,2.3
			c-2.1-0.3-4-1.2-5.3-2.8c-0.5-0.7-0.9-1.4-1.2-2.2c-0.9-2.3-1.2-4.8-0.6-7.2c0.4-1.4,1-3.2,1.9-4.8c-2.8,2.9-4.9,6.7-5.2,10.7
			c-0.4,4.6,1.7,9.4,5.7,11.8c6.8,4,14.5,0.3,20.2-5.2c2.4-2.3,3.6-4.6,6.7-6c1.7-0.8,5.2-2.5,6.8-3.3
			C251.4,164.4,251.4,152.7,244.8,150z"/>
	</g>
</g>
<g id="Calque_9">
	<g>
		<path class="st8" d="M180.6,329.9h-0.2c2.1,1.9,4.6,3.4,7.2,4.4c3.5,1.3,7.2,1.9,10.6,2.1c0.4,0,0.8,0,1.2,0.1
			c0.7-0.9,1.3-1.8,2-2.7c0.5-0.8,1.1-1.6,1.6-2.5c-1.4,0-2.9,0-4.4-0.1l-2.4-0.2l-2.3-0.3c-0.8-0.1-1.5-0.3-2.2-0.5
			c-0.7-0.2-1.4-0.5-2.2-0.7c-1.4-0.6-2.7-1.2-3.9-2.1c-0.6-0.4-1.1-0.9-1.7-1.3c-0.2-0.2-0.4-0.4-0.6-0.6c0,0.1,0,0.2,0,0.3v1.5
			C183.3,328.6,182.1,329.9,180.6,329.9z"/>
		<path class="st8" d="M175.4,322.8c0.3,0.7,0.7,1.4,1.1,2.1h6.1c0.1,0,0.2,0,0.3,0.1c-0.2-0.2-0.4-0.4-0.5-0.6
			c-1.4-1.8-2.5-3.9-3.1-6.3C178.2,319.8,176.9,321.3,175.4,322.8z"/>
		<path class="st8" d="M174.7,298.3h5.4c0.1-0.2,0.1-0.4,0.2-0.6c0.1-0.2,0.1-0.4,0.1-0.6l0-0.2c0-0.8,0.1-1.6,0.1-2.4
			c0-0.8,0-1.6,0.2-2.4l0.3-2.3c0.1-0.8,0.3-1.5,0.4-2.3c0.2-1.6,0.7-3.1,1.1-4.6c0.2-0.8,0.5-1.5,0.7-2.3c0.1-0.4,0.2-0.8,0.4-1.1
			l0.4-1.1c1.1-3,2.5-5.9,4.1-8.7c0.2-0.3,0.4-0.7,0.6-1c-0.7-0.4-1.3-0.9-2-1.3c-0.5-0.3-0.9-0.5-1.4-0.8c-0.2,0.3-0.4,0.6-0.7,0.9
			c-2,2.8-3.7,5.8-5.1,9l-0.5,1.2c0,0.1-0.1,0.1-0.1,0.2c0.1,1.2,0,2.4-0.2,3.5c-0.3,2.1-1.2,4-2.6,5.6c-0.1,0.7-0.3,1.3-0.4,2
			l-0.3,2.6c-0.1,0.9-0.1,1.8-0.2,2.6c0,0.7,0,1.5-0.1,2.2C175,297.1,174.8,297.7,174.7,298.3z"/>
		
			<linearGradient id="SVGID_1_" gradientUnits="userSpaceOnUse" x1="300.51" y1="307.5" x2="384.03" y2="307.5" gradientTransform="matrix(-1 0 0 1 499.8743 0)">
			<stop  offset="0" style="stop-color:#662483"/>
			<stop  offset="1.000000e-02" style="stop-color:#005C5C"/>
			<stop  offset="1" style="stop-color:#00FD67"/>
		</linearGradient>
		<path class="st11" d="M115.8,307.5c0,25.8,20.9,46.8,46.8,46.8c14.9,0,28.2-7,36.8-17.9c-0.4,0-0.8,0-1.2-0.1
			c-3.4-0.2-7.2-0.7-10.6-2.1c-3.5-1.3-6.8-3.5-9.2-6.6c-2.4-3-3.9-6.7-4.6-10.3c-0.7-3.6-0.8-7.3-0.5-10.8c0.1-1.8,0.4-3.5,0.7-5.3
			c0.2-0.9,0.3-1.7,0.6-2.6c0.2-0.8,0.4-1.5,0.6-2.3c0-0.7,0-1.5,0.1-2.2c0-0.9,0-1.8,0.2-2.6l0.3-2.6c0.1-0.9,0.3-1.7,0.5-2.6
			c0.3-1.7,0.9-3.4,1.4-5.1c0.3-0.8,0.6-1.6,0.9-2.5c0.2-0.4,0.3-0.8,0.5-1.2l0.5-1.2c1.4-3.2,3.1-6.2,5.1-9
			c0.2-0.3,0.4-0.6,0.7-0.9c-6.7-3.7-14.4-5.8-22.7-5.8C136.8,260.8,115.8,281.7,115.8,307.5z"/>
		<path class="st6" d="M150.3,333.7H177c1.4,0,2.6-1.2,2.6-2.6v-1.4h-31.9v1.4C147.7,332.5,148.9,333.7,150.3,333.7z"/>
		<path class="st12" d="M147.7,329.6v1.4c0,1.4,1.2,2.6,2.6,2.6h2.3c-1.4,0-2.6-1.2-2.6-2.6v-1.4H147.7z"/>
		<path class="st6" d="M150.5,321.5c1.1,0.1,2-0.7,2.1-1.8s-0.7-2-1.8-2.1c-0.1,0-0.2,0-0.3,0c-1.1,0-2.2,0-3.3-0.1
			c-1-0.1-1.9-0.2-2.9-0.4c-0.6-0.2-1.2-0.4-1.7-0.6c-2.5-1.1-4.3-3.3-4.9-5.9c-0.1-0.6-0.6-3.6,2-4.5c1.7-0.5,3.5-0.1,4.8,1.1
			c0.8,0.8,2,0.7,2.7,0c0.8-0.8,0.7-2,0-2.7c0,0-0.1-0.1-0.1-0.1c-2.4-2.1-5.7-2.8-8.7-1.9c-1.9,0.6-3.3,2-4.1,3.8
			c-0.6,1.6-0.8,3.4-0.4,5.1c0.8,3.8,3.4,7,7,8.7c0.7,0.4,1.5,0.7,2.3,0.8c1.2,0.3,2.3,0.5,3.5,0.6
			C148,321.5,149.2,321.5,150.5,321.5L150.5,321.5z"/>
		<path class="st12" d="M134,311.3c0.8,3.8,3.4,7,7,8.7c0.7,0.4,1.5,0.7,2.3,0.8c1.2,0.3,2.3,0.5,3.5,0.6c1.2,0.1,2.4,0.1,3.6,0.1
			l0,0c0.5,0,1-0.2,1.4-0.6c-1.1,0-2.2-0.1-3.3-0.1c-1.2-0.1-2.4-0.3-3.5-0.6c-0.8-0.2-1.5-0.5-2.3-0.8c-3.6-1.6-6.1-4.8-7-8.7
			c-0.3-1.7-0.2-3.5,0.4-5.1c0.6-1.5,1.7-2.7,3.1-3.4c-0.3,0.1-0.6,0.1-0.9,0.2c-1.9,0.6-3.4,2-4.1,3.8
			C133.7,307.8,133.6,309.6,134,311.3z"/>
		<path class="st8" d="M173.7,317.3c0.3,1.8,0.9,3.7,1.7,5.4c1.5-1.4,2.8-3,3.9-4.7c-0.2-0.6-0.3-1.2-0.4-1.8
			c-0.6-3-0.7-6.2-0.4-9.3c0.1-1.6,0.4-3.2,0.7-4.7c0.2-0.8,0.3-1.6,0.5-2.3c0.1-0.5,0.3-1.1,0.4-1.6h-5.4c0,0.1-0.1,0.2-0.1,0.4
			c-0.2,0.9-0.4,1.7-0.6,2.6c-0.3,1.7-0.6,3.5-0.7,5.3C172.9,310.1,173,313.7,173.7,317.3z"/>
		<path class="st6" d="M142.6,300.4c0.2,5.1,1.6,18.1,12,24.8h17.7c1.1-0.7,2.2-1.5,3.1-2.4c-0.8-1.8-1.3-3.6-1.7-5.4
			c-0.7-3.6-0.8-7.3-0.5-10.8c0.1-1.8,0.4-3.5,0.7-5.3c0.2-0.9,0.3-1.7,0.6-2.6c0-0.1,0.1-0.2,0.1-0.4h-30.1
			C143.4,298.4,142.6,299.3,142.6,300.4z"/>
		<path class="st12" d="M142.6,300.4c0.1,5,1.5,18.1,11.9,24.8h3.1c-10.4-6.6-12.5-19.7-12.7-24.8c0-1.1,0.8-2,1.9-2c0,0,0,0,0.1,0
			h-2.2c-1.1-0.1-2,0.8-2.1,1.9C142.6,300.3,142.6,300.3,142.6,300.4z"/>
		<path class="st8" d="M176.5,324.9c0.5,0.9,1.1,1.9,1.8,2.7c0.6,0.8,1.3,1.6,2.1,2.2h0.2c1.5,0,2.7-1.2,2.7-2.7v-1.5
			c0-0.1,0-0.2,0-0.3c0,0,0,0,0,0l-0.2-0.2c-0.1-0.1-0.1-0.1-0.2-0.2c-0.1,0-0.2-0.1-0.3-0.1H176.5z"/>
		<path class="st6" d="M182.9,325c0.1,0.1,0.1,0.1,0.2,0.2l0.2,0.2C183.2,325.2,183.1,325.1,182.9,325z"/>
		<path class="st6" d="M144.1,325.6v1.5c0,1.5,1.2,2.7,2.7,2.7h33.6c-0.8-0.7-1.5-1.4-2.1-2.2c-0.7-0.9-1.3-1.8-1.8-2.7h-31.7
			C144.4,324.9,144.1,325.2,144.1,325.6z"/>
		<path class="st12" d="M144.1,325.7v1.5c0,1.5,1.2,2.7,2.7,2.7h2.4c-1.5,0-2.7-1.2-2.7-2.7v-1.5c0-0.4,0.3-0.7,0.7-0.7
			c0,0,0,0,0.1,0h-2.3C144.4,324.9,144.1,325.2,144.1,325.7C144.1,325.6,144.1,325.6,144.1,325.7z"/>
		<path class="st8" d="M176.1,287c1.3-1.6,2.2-3.5,2.6-5.6c0.2-1.2,0.2-2.4,0.2-3.5c-0.2,0.3-0.3,0.7-0.4,1
			c-0.3,0.8-0.6,1.6-0.9,2.5c-0.5,1.7-1,3.3-1.4,5.1C176.2,286.6,176.2,286.8,176.1,287z"/>
		<path class="st6" d="M166.3,290.9c0,0.2,0.2,0.4,0.5,0.4c1.4-0.1,2.9-0.4,4.2-0.8c2-0.7,3.8-1.9,5.1-3.4c0-0.2,0.1-0.4,0.1-0.6
			c0.3-1.7,0.9-3.4,1.4-5.1c0.3-0.8,0.6-1.6,0.9-2.5c0.1-0.3,0.2-0.7,0.4-1c0-0.3,0-0.5-0.1-0.8c0-0.2-0.2-0.4-0.4-0.4
			c-1.5,0.1-2.9,0.4-4.3,0.8c-4,1.3-7,4.8-7.7,9C166.2,288,166.2,289.4,166.3,290.9z"/>
		<path class="st12" d="M166.3,290.8c0,0.2,0.2,0.4,0.4,0.4c0.3,0,0.7,0,1.4-0.1c0-1.1,0-2.2,0.2-3.2c0.7-4.2,3.6-7.7,7.7-9
			c1-0.3,1.9-0.5,2.9-0.7c0-0.5,0-0.8-0.1-1.1c0-0.2-0.2-0.4-0.4-0.4c-1.5,0.1-2.9,0.4-4.3,0.8c-4,1.3-7,4.8-7.7,9
			C166.3,287.9,166.2,289.4,166.3,290.8L166.3,290.8z"/>
		<path class="st6" d="M147.9,281.6c0,1.5,0.1,2.9,0.5,4.3c1,4.1,4.2,7.4,8.4,8.4c1.4,0.3,2.9,0.5,4.3,0.5c0.2,0,0.4-0.2,0.4-0.4
			l0,0c0-1.5-0.1-2.9-0.5-4.3c-1-4.1-4.2-7.4-8.4-8.4c-1.4-0.3-2.9-0.5-4.3-0.5C148.1,281.2,147.9,281.4,147.9,281.6L147.9,281.6z"
			/>
		<path class="st12" d="M148.4,285.9c1,4.1,4.2,7.4,8.4,8.4c1.4,0.3,2.9,0.5,4.3,0.5c0.2,0,0.4-0.2,0.4-0.4l0,0c0-0.3,0-0.8,0-1.4
			c-1-0.1-2.1-0.2-3.1-0.5c-4.1-1-7.4-4.2-8.4-8.4c-0.2-1-0.4-2-0.5-3c-0.5,0-0.9,0-1.2,0c-0.2,0-0.4,0.2-0.4,0.4c0,0,0,0,0,0
			C147.9,283.1,148.1,284.5,148.4,285.9L148.4,285.9z"/>
		<path class="st12" d="M170.1,285.4l-0.4-1.4c-0.1-0.5,0.2-1,0.6-1.1c0.5-0.1,0.9,0.1,1.1,0.6c0,0,0,0,0,0v0.2l0.9-1.1l-0.4-1.4
			c-0.1-0.5,0.2-0.9,0.6-1.1c0,0,0,0,0,0c0.5-0.1,0.9,0.2,1.1,0.6c0,0,0,0,0,0v0.2l1.6-1.8c0.3-0.4,0.9-0.4,1.2-0.1
			c0.4,0.3,0.4,0.9,0.1,1.2l-1.5,1.8h0.2c0.5,0,0.8,0.4,0.8,0.9c0,0.5-0.4,0.8-0.9,0.8h-0.1l-1.4-0.1l-0.9,1.1h0.2
			c0.5,0.1,0.8,0.5,0.8,1c0,0.4-0.4,0.8-0.8,0.8H173l-1.4-0.1l-1.6,1.9c-0.2,0.2-0.4,0.3-0.7,0.3c-0.2,0-0.4-0.1-0.6-0.2
			c-0.4-0.3-0.4-0.8-0.1-1.2c0,0,0,0,0,0L170.1,285.4z"/>
		<path class="st12" d="M150.4,283.7c0.3-0.3,0.9-0.3,1.2,0l1.6,1.6v-0.2c0.1-0.5,0.5-0.8,1-0.7c0.5,0.1,0.8,0.5,0.7,1l-0.2,1.4l1,1
			v-0.2c0.1-0.5,0.5-0.8,1-0.7c0.5,0.1,0.8,0.5,0.7,1l-0.2,1.4l1.8,1.9c0.3,0.3,0.3,0.9,0,1.2c-0.2,0.2-0.4,0.3-0.6,0.3
			c-0.2,0-0.5-0.1-0.6-0.3l-1.8-1.8l-1.4,0.2h-0.1c-0.4,0-0.8-0.3-0.8-0.7c-0.1-0.5,0.2-0.9,0.7-1c0,0,0,0,0,0h0.2l-1-1l-1.4,0.2
			H152c-0.4,0-0.8-0.3-0.8-0.7c-0.1-0.5,0.2-0.9,0.7-1c0,0,0,0,0,0h0.2l-1.6-1.6C150.1,284.5,150.1,284,150.4,283.7L150.4,283.7z"/>
	</g>
</g>
<g id="Calque_5">
</g>
<g id="Calque_3">
</g>
<g id="Calque_4">
	<g>
		<g>
			<g>
				<g>
					<path class="st6" d="M103,318c1.9,1.9,4.4,2.6,6.1,2.6c0.5,0,0.9,0,0.9,0c-0.2,1.7-5.4,4.4-8.3,4.4c-0.1,0-0.2,0-0.2,0
						c-0.5,0-1.1,1.1-1.5,1c-2.1-0.5-5,0-5,0c2.1-0.8,5.7-5.5,6.3-7.5"/>
				</g>
			</g>
		</g>
	</g>
	<g>
		<g>
			<g>
				<g>
					<path class="st6" d="M107.3,312.5c1.9,1.6,6.1,1.8,7.9,1.8c0.5,0,0.9,0,0.9,0c-0.2,1.4-5.4,3.7-8.3,3.7c-0.1,0-0.2,0-0.2,0
						c-0.5,0-0.9-0.1-1.3-0.1c-2.1-0.4-3.4-1.4-3.4-1.4C104.8,315.8,106.7,314.2,107.3,312.5"/>
				</g>
			</g>
		</g>
	</g>
	<g>
		<g>
			<g>
				<g>
					<path class="st6" d="M111,304c1.9,1.6,5.4,3.3,7.1,3.3c0.5,0,0.9,0,0.9,0c-0.2,1.4-5.4,3.7-8.3,3.7c-0.1,0-0.2,0-0.2,0
						c-0.5,0-0.9-0.1-1.3-0.1c-2.1-0.4-3.4-1.4-3.4-1.4c2.1-0.7,4-2.2,4.6-3.9"/>
				</g>
			</g>
		</g>
	</g>
	<g>
		<g>
			<path class="st8" d="M99.6,291.7c1.5-0.1,3.1-0.1,4.5,0.6c1.3,0.7,2,2,2.5,3.4c1,3,1.4,6.1,3.8,8.4c2.1,2,4.9,3,7.6,3.9
				c0.2,0.1,0.6,0.3,0.8,0.3c0.3,0.2,0.3-0.1-0.1-0.9c-0.1,0.1-0.3,0.2-0.4,0.4c-0.6,0.5-1.2,1-1.9,1.4c-1.4,0.9-2.9,1.6-4.6,2.1
				c-1.4,0.4-1.4,2.5,0,2.9c1.8,0.5,3.7,0.8,5.6,0.8c-0.4-0.8-0.9-1.5-1.3-2.3c-2.2,3.2-5.8,4.2-9.3,5.1c-1.6,0.4-1.3,2.9,0.4,2.9
				c1.4,0,2.9,0,4.3,0c1.9,0,1.9-3,0-3c-1.4,0-2.9,0-4.3,0c0.1,1,0.3,2,0.4,2.9c4.4-1.1,8.4-2.6,11.1-6.5c0.7-1-0.2-2.3-1.3-2.3
				c-1.7,0-3.2-0.2-4.8-0.7c0,1,0,1.9,0,2.9c1.9-0.5,3.6-1.3,5.3-2.4c1.3-0.8,3.5-2.1,3.6-3.8c0.2-1.9-1.7-2.4-3.2-2.9
				c-1.7-0.6-3.3-1.1-4.8-2.1c-3.4-2.2-3.2-6.4-4.8-9.8c-1.8-3.7-5.4-4.6-9.2-4.4C97.7,288.8,97.6,291.8,99.6,291.7L99.6,291.7z"/>
		</g>
	</g>
</g>
<g id="Calque_7">
	<g>
		<g>
			<path class="st6" d="M106,313.1c-0.3,0.1-0.6,0.2-0.9,0.4c-0.3,0.2-0.5,0.4-0.8,0.6c-0.1,0.1-0.2,0.2-0.2,0.3
				c-0.1,0.2-0.2,0.4-0.2,0.6c0,0.1,0,0.3,0,0.4c0,0.2,0.1,0.4,0.2,0.6c0.1,0.2,0.3,0.4,0.5,0.5c0.2,0.1,0.4,0.2,0.6,0.2
				c0.2,0,0.4,0,0.6,0c0.3-0.1,0.6-0.3,0.9-0.5c0.3-0.2,0.6-0.4,0.8-0.6c0.2-0.2,0.5-0.5,0.7-0.8c0.1-0.2,0.2-0.4,0.3-0.6
				c0.1-0.2,0.2-0.4,0.2-0.6c0-0.2,0-0.4,0-0.6c0-0.2-0.1-0.4-0.3-0.5c-0.1-0.2-0.2-0.3-0.4-0.4c-0.3-0.2-0.8-0.3-1.2-0.2
				c-0.1,0.1-0.2,0.1-0.4,0.2c-0.2,0.1-0.4,0.3-0.5,0.5c-0.1,0.2-0.2,0.5-0.4,0.7c0.1-0.1,0.2-0.2,0.2-0.3c-0.2,0.2-0.4,0.5-0.6,0.6
				c0.1-0.1,0.2-0.2,0.3-0.2c-0.2,0.2-0.5,0.3-0.8,0.5c0.1-0.1,0.2-0.1,0.4-0.2c0,0,0,0,0,0c0.5,0.8,1,1.7,1.5,2.5
				c0.1-0.1,0.2-0.1,0.2-0.2c-0.1,0.1-0.2,0.2-0.3,0.2c0.2-0.2,0.4-0.3,0.7-0.4c-0.1,0.1-0.2,0.1-0.4,0.2c0,0,0,0,0.1,0
				c0.2,0,0.4-0.1,0.5-0.3c0.2-0.1,0.3-0.2,0.4-0.4c0.1-0.2,0.2-0.4,0.2-0.6c0-0.2,0-0.4,0-0.6c-0.1-0.4-0.3-0.7-0.7-0.9
				c-0.1-0.1-0.2-0.1-0.4-0.2C106.5,313.1,106.2,313.1,106,313.1L106,313.1z"/>
		</g>
	</g>
</g>
<g id="Calque_6">
	<g>
		<g>
			<path class="st8" d="M109.1,303.2c0,0.1,0,0.1-0.1,0.2c-0.1,0.2,0.1-0.2,0,0c-0.1,0.1-0.1,0.3-0.2,0.4c-0.2,0.3-0.3,0.6-0.5,0.9
				c0,0.1-0.3,0.3-0.1,0.1c-0.1,0.1-0.2,0.3-0.3,0.4c-0.2,0.2-0.5,0.5-0.7,0.7c-0.1,0-0.4,0.3-0.2,0.2c-0.1,0.1-0.3,0.2-0.4,0.3
				c-0.3,0.2-0.6,0.3-0.9,0.5c-0.1,0-0.1,0.1-0.2,0.1c0.1,0,0.2-0.1,0,0c-0.1,0-0.3,0.1-0.4,0.1c-0.4,0.1-0.8,0.2-1.1,0.5
				c-0.9,0.6-1.4,1.7-0.8,2.7c0.3,0.6,1,1.2,1.6,1.7c1.3,1,2.7,1.8,4.4,1.9c0.9,0.1,1.8-0.1,2.6-0.3c0.4-0.1,0.8-0.3,1.2-0.4
				c0.2-0.1,0.4-0.1,0.5-0.2c0.1,0,0.2-0.1,0.3-0.1c0.3-0.1-0.3,0,0.2,0c0.8-0.1,1.5-0.6,1.5-1.5c0-0.8-0.7-1.6-1.5-1.5
				c-1,0.1-1.8,0.4-2.7,0.7c-0.4,0.1-0.8,0.3-1.2,0.4c0.3,0-0.3,0-0.3,0c-0.1,0-0.6,0-0.3,0c-0.9-0.1-1.3-0.3-2-0.8
				c-0.2-0.1-0.3-0.2-0.5-0.3c0.2,0.1-0.3-0.2-0.3-0.3c-0.2-0.1-0.3-0.3-0.4-0.4c-0.1-0.1-0.1-0.1-0.2-0.2c-0.1-0.1-0.1-0.1,0,0
				c0.2,0.4,0.1,0.8-0.1,1.1c-0.2,0.1-0.2,0.1,0,0c-0.2,0.1-0.2,0.1,0,0c0.1,0,0.2-0.1,0.2-0.1c0.4-0.1,0.9-0.3,1.3-0.5
				c0.8-0.4,1.4-0.8,2.1-1.4c1.3-1.1,2.2-2.5,2.8-4.1c0.3-0.7-0.3-1.7-1-1.8C110.1,302,109.4,302.4,109.1,303.2L109.1,303.2z"/>
		</g>
	</g>
	<g>
		<g>
			<path class="st8" d="M104.1,312.2c-0.1-0.2-0.1-0.3,0-0.5c-0.1,0.1-0.1,0.2,0,0c-0.1,0.1-0.1,0.1-0.2,0.2
				c-0.1,0.1-0.1,0.1-0.2,0.2c0.1-0.1,0.1-0.1,0,0c-0.2,0.1-0.3,0.2-0.5,0.4c-0.7,0.5-1.4,1-2,1.5c-0.9,0.8-1.1,2-0.5,3
				c0.4,0.7,1.1,1.2,1.7,1.7c2.2,1.7,5.4,2.2,8.1,1.3c0.7-0.2,1.3-1,1-1.8c-0.2-0.7-1-1.3-1.8-1c-0.3,0.1-0.6,0.2-0.9,0.2
				c-0.1,0-0.5,0.1-0.1,0c-0.2,0-0.3,0-0.5,0c-0.3,0-0.6,0-0.9,0c-0.1,0-0.2,0-0.4,0c0.4,0-0.1,0-0.2,0c-0.3-0.1-0.6-0.1-0.8-0.2
				c-0.2,0-0.3-0.1-0.5-0.2c-0.3-0.1,0.2,0.1-0.1,0c-0.3-0.1-0.5-0.3-0.8-0.4c-0.1-0.1-0.3-0.2-0.4-0.3c-0.1,0-0.1-0.1-0.2-0.1
				c0.1,0.1,0.1,0.1,0.1,0c-0.2-0.2-0.5-0.4-0.7-0.6c0,0-0.1-0.1-0.1-0.1c-0.1-0.1-0.1-0.1,0,0c-0.1-0.2-0.1-0.1,0,0.3
				c0,0.2-0.1,0.4-0.2,0.5c0,0,0.4-0.3,0.1-0.1c0.2-0.1,0.3-0.2,0.5-0.4c0.3-0.2,0.6-0.4,0.9-0.6c0.6-0.4,1.2-0.8,1.7-1.4
				c0.7-0.9,0.9-2,0.4-3c-0.4-0.7-1.4-1-2.1-0.5C104,310.6,103.8,311.5,104.1,312.2L104.1,312.2z"/>
		</g>
	</g>
	<g>
		<g>
			<path class="st8" d="M111.4,318.4c-1.8,2.1-3.8,4.2-6.3,5.5c-0.8,0.4-1.6,0.7-2.6,1c-0.4,0.1-0.8,0.1-0.9,0.2c-0.4,0-0.8,0-1.2,0
				c-0.2,0-0.3,0-0.5,0c-0.3,0,0.2,0.1-0.2,0c-0.3-0.1-0.6-0.1-0.9-0.2c-0.1,0-0.2-0.1-0.3-0.1c-0.4-0.1,0.1,0.1-0.1,0
				c-0.2-0.1-0.5-0.2-0.7-0.4c-0.1-0.1-0.2-0.1-0.3-0.2c-0.3-0.2,0.1,0.1,0,0c-0.1-0.1-0.2-0.2-0.3-0.3c-0.3-0.2,0.2,0.3,0,0
				c0.1,0.3,0.2,0.3,0.2,0.6c-0.1,0.2-0.1,0.5-0.2,0.7c-0.2,0.2-0.3,0.3-0.5,0.5c0,0,0.7-0.4,0.8-0.4c3.1-1.6,6-3.9,7.1-7.4
				c0.6-1.8-2.3-2.6-2.9-0.8c-0.5,1.5-1.5,2.8-2.8,3.8c-0.6,0.5-1.3,0.9-2.1,1.3c-0.6,0.3-1.5,0.6-2,1.1c-1.2,1.2,0,2.5,1,3.3
				c2.7,1.9,6.4,1.8,9.4,0.6c3.3-1.4,6-3.9,8.3-6.6c0.5-0.6,0.6-1.5,0-2.1C113,317.9,112,317.8,111.4,318.4L111.4,318.4z"/>
		</g>
	</g>
</g>
<g id="Calque_8">
</g>
</svg>
