<?xml version="1.0" standalone="no"?>
<!DOCTYPE svg PUBLIC "-//W3C//DTD SVG 20010904//EN"
 "http://www.w3.org/TR/2001/REC-SVG-20010904/DTD/svg10.dtd">
<svg version="1.0" xmlns="http://www.w3.org/2000/svg"
 width="63.000000pt" height="63.000000pt" viewBox="0 0 63.000000 63.000000"
 preserveAspectRatio="xMidYMid meet">

<g transform="translate(0.000000,63.000000) scale(0.100000,-0.100000)"
fill="#000000" stroke="none">
<path d="M323 558 c-73 -93 -158 -178 -250 -251 -40 -32 -73 -64 -73 -73 0 -8
15 -31 34 -51 32 -35 35 -36 64 -24 59 25 96 -12 71 -70 -11 -27 -9 -32 16
-59 43 -45 71 -40 157 29 84 67 199 184 252 255 44 60 46 93 6 131 -27 25 -32
27 -59 16 -16 -7 -39 -10 -50 -6 -26 8 -37 49 -22 82 10 22 8 28 -23 59 -19
19 -41 34 -50 34 -8 0 -41 -33 -73 -72z m106 28 c17 -18 20 -30 14 -52 -10
-41 -5 -66 19 -86 23 -21 69 -23 86 -6 10 10 18 6 37 -17 13 -17 24 -35 25
-40 0 -17 -60 -85 -76 -85 -8 0 -14 -6 -12 -14 2 -8 -14 -36 -36 -61 -43 -52
-223 -205 -241 -205 -6 0 -21 11 -34 23 -18 20 -20 28 -11 51 21 57 -43 121
-97 97 -20 -9 -29 -7 -53 11 -17 12 -30 25 -30 29 0 3 40 39 90 78 49 40 113
99 141 131 35 39 57 56 67 52 11 -4 14 -1 9 11 -6 15 55 107 72 107 4 0 18
-11 30 -24z"/>
<path d="M346 472 c-3 -6 1 -15 8 -21 8 -7 17 -8 20 -3 3 6 -1 15 -8 21 -8 7
-17 8 -20 3z"/>
<path d="M392 419 c2 -7 10 -15 17 -17 8 -3 12 1 9 9 -2 7 -10 15 -17 17 -8 3
-12 -1 -9 -9z"/>
<path d="M270 399 c-21 -4 -48 -22 -67 -43 -29 -31 -33 -43 -33 -91 0 -46 4
-59 31 -90 70 -79 195 -60 233 36 21 51 20 64 -4 113 -30 62 -89 90 -160 75z
m65 -41 c20 -9 25 -18 25 -49 0 -23 5 -39 15 -43 9 -3 15 -18 15 -40 0 -27 -6
-40 -25 -52 -23 -15 -27 -14 -85 17 -56 32 -60 36 -60 70 0 24 5 39 15 43 8 3
15 12 15 20 0 9 12 22 28 30 33 19 26 18 57 4z"/>
<path d="M430 381 c0 -13 26 -32 33 -24 8 7 -11 33 -24 33 -5 0 -9 -4 -9 -9z"/>
<path d="M476 342 c-7 -12 22 -38 31 -28 4 3 0 14 -9 22 -9 10 -18 12 -22 6z"/>
</g>
</svg>
