<?xml version="1.0" encoding="utf-8"?>
<!-- Generator: Adobe Illustrator 25.4.1, SVG Export Plug-In . SVG Version: 6.00 Build 0)  -->
<svg version="1.1" id="Calque_1" xmlns="http://www.w3.org/2000/svg" xmlns:xlink="http://www.w3.org/1999/xlink" x="0px" y="0px"
	 viewBox="0 0 841 841" style="enable-background:new 0 0 841 841;" xml:space="preserve">
<style type="text/css">
	.st0{fill:#00A23D;stroke:#013D3D;stroke-width:6;stroke-miterlimit:10;}
	.st1{fill:#FFC3AB;}
	.st2{fill:#00A23D;}
	.st3{fill:none;stroke:#013D3D;stroke-width:6;stroke-miterlimit:10;}
	.st4{fill:#F5EDF2;}
	.st5{opacity:0.7;}
	.st6{fill:#FFFFFF;}
	.st7{opacity:0.3;}
	.st8{fill:#013D3D;}
	.st9{fill:none;stroke:#000072;stroke-width:10.4446;stroke-linecap:round;stroke-linejoin:round;stroke-miterlimit:10;}
	.st10{opacity:0.29;fill:#FFFFFF;enable-background:new    ;}
	.st11{fill:url(#SVGID_1_);}
	.st12{fill:#F7F9FA;}
	.st13{fill:#DCE6EB;}
	.st14{fill:#B9C3CD;}
</style>
<g id="Calque_9">
</g>
<g id="Calque_5">
</g>
<g id="Calque_3">
</g>
<g>
	<g id="Calque_2_00000118393774962159790100000015255509959819080335_">
		<g>
			<path class="st0" d="M774.3,548.5c0,10.6-4.8,36-48,43.8c-0.8,0.2-1.6,0.2-2.6,0.2c-6.2,0-13-3.2-18.4-6.4s-9.2-6.4-9.4-6.8
				c-0.8-0.8-1.2-2-1-3c0.2-1.2,1.2-2,2.4-2.2c1-0.2,1.8-0.4,2.8-0.4c-1-0.8-1.8-1.8-2.4-2.8c-12.8,4.8-34.4,8.4-53.2,10.8
				c-19.6,2.4-36.2,3.6-36.2,3.6l36.2-44l29.8-36c16-18,47,21,49,11c6-14,24-8.4,24.2-8.4C761.5,510.9,774.3,530.1,774.3,548.5z"/>
		</g>
		<g>
			<path class="st1" d="M738.3,507.5c6.4-1.6,16,6,22.4,12.6c6.6,6.6,23.6,37.4,2.8,50.6c-0.6-5,0.6-10.2,0.6-15.2
				c0.2-10-4-20-10.8-27.2c-7-7.2-16.6-11.6-26.6-12.6c-0.6-2.2-2.8-6.4,3.4-6.2"/>
		</g>
		<path class="st2" d="M774.3,548.5c0,10.6-4.8,36-48,43.8c-0.8,0.2-1.6,0.2-2.6,0.2c-6.2,0-13-3.2-18.4-6.4s-9.2-6.4-9.4-6.8
			c-0.8-0.8-1.2-2-1-3c0.2-1.2,1.2-2,2.4-2.2c1-0.2,1.8-0.4,2.8-0.4c-1-0.8-1.8-1.8-2.4-2.8c-12.8,4.8-34.4,8.4-53.2,10.8v-40.2
			l29.8-36c16-18,47,21,49,11c6-14,24-8.4,24.2-8.4C761.5,510.9,774.3,530.1,774.3,548.5z"/>
		<path class="st3" d="M697.3,574.3c1-0.2,1.8-0.2,2.8-0.4c-1-0.8-1.8-1.8-2.4-2.8c-26,10-89.4,14.4-89.4,14.4l66-80
			c16-18,47,21,49,11c6-14,24-8.4,24.2-8.4c14.2,2.6,27,21.8,27,40.2c0,10.6-4.8,36-48,43.8c-0.8,0.2-1.8,0.2-2.6,0.2l0,0
			c-12.4,0-27.2-12.4-27.8-13c-0.8-0.8-1.2-2-1-3S696.1,574.5,697.3,574.3z"/>
		<g>
			<g>
				<path class="st1" d="M624.1,582.9c25.8-0.6,51.2-5,75.8-12.8c3.6-1.2,2-7-1.6-5.8c-24,7.8-49,12-74.2,12.6
					C620.3,577.1,620.3,583.1,624.1,582.9L624.1,582.9z"/>
			</g>
		</g>
		<g>
			<g>
				<path class="st1" d="M633.3,577.7c5.2-8.6,16.6-9,25.4-9c11.2,0.2,22.2,0.4,33.4,0.6c-0.2-2-0.6-4-0.8-5.8
					c-15.6,5.8-32,8.4-48.6,7.6c0.2,2,0.6,4,0.8,5.8c10-1.8,20-3.6,30.2-3.6c3.8,0,3.8-6,0-6c-12.8,0-25.8,1.6-38,5.6
					c0.8,1.8,1.6,3.6,2.4,5.4c4.6-2.8,9.6-4.2,15-4.2c3.8,0,3.8-6,0-6c-6.4-0.2-12.6,1.6-18,5c-2.8,1.8-1,6.6,2.4,5.4
					c11.8-3.8,24-5.2,36.4-5.4c0-2,0-4,0-6c-10.8,0-21.2,2-31.8,3.8c-3.4,0.6-2.4,5.8,0.8,5.8c17,0.8,34.2-1.8,50.2-7.8
					c3-1.2,2.8-5.8-0.8-5.8c-12.4-0.2-24.8-0.6-37.2-0.6c-10.2,0.2-21.2,2.6-27,11.8C625.9,577.9,631.1,580.9,633.3,577.7
					L633.3,577.7z"/>
			</g>
		</g>
	</g>
	<g>
		<g>
			<g>
				<g>
					<g>
						<g>
							<g>
								<g>
									<g>
										<g>
											<path class="st2" d="M768.7,298.1c-3.8-124.8-85.4-147.4-85.4-147.4c-50-64-134.8-25.4-136.2-24.8l0,0l0,0
												c-59-32.2-92.8,25.4-92.8,25.4l0,0c-82.8,21-104.6,73.4-100.4,106.8c2,15.6,9.4,27,19.2,29.4c0.4,0.2,0.8,0.2,1.2,0.2
												c-8.6,6.2-14.2,23.4-16,29.8c0,0,5.6,11.6,18,27.6c15.4,20.2,41.4,47.4,79.8,68l-0.4-0.2c-3.4-1.4-24.8-9.2-57-10.6
												c-38-1.6-91.2,6.2-148.2,44.6c-8,5.4-17.4,8.4-27,8.6c-32.4,1.2-105.2-1.6-151.8-45.2c0,0,2.8,90,80,152.8
												c34,27.6,82.4,50,151.4,57h1.6c4.4,8.2,11,15.6,20.8,21c0,0-17.2,63.6,36.4,85.4c-4-17.6,13.8-30,13.8-30
												c12.2,0.4,20.2,5.6,25.2,12.6c0,0,7.8-22.4,28.2-26.6c4-0.8,8.2,0.2,12.2,2.8c0,0,2-3,5.6-6c2.6-2.4,6.2-4.8,10.4-6.4
												l-0.8-2.4c-6.6-6-13-7.6-18.6-7.8c-7.4-0.2-13,2-15.6,0c-4.4-3.4-10-14.8-10-14.8c4-4,7.8-7.8,11.2-11.6
												c23.2,3.2,44.8,3.2,64.6,0.8c36.6-4.2,67.8-16.4,94-32.4c9.4-5.8,18.2-12,26.4-18.6c6.4-5,12.2-10.4,17.8-15.6
												c5.8-5.6,11.4-11.4,16.4-17.2c13.4-15,24.2-30.2,32.6-43.6c1.4-2.2,2.6-4.2,3.8-6.4c13.6-22.6,19.8-38.8,19.8-38.8
												S772.5,422.9,768.7,298.1z M470.7,360.9c-12.6-20-14.2-40-14.4-43c0-0.2,0-0.4,0-0.4c2.8,1.4,5.6,2.8,8.8,4.4
												c0.2,0.2,0.6,0.2,0.8,0.4c0.4,0.2,1,0.4,1.4,0.8c1.6,0.8,3.2,1.6,5,2.4c0.6,0.4,1.4,0.6,2,1c0.2,0,0.4,0.2,0.6,0.2
												c2.4,1.2,4.6,2.2,7,3.2h0.2c3.8,1.6,7.6,3.2,11.4,4.6C487.3,353.5,470.7,360.9,470.7,360.9z M509.1,583.5
												C509.1,583.7,509.1,583.7,509.1,583.5c-1,4.2-4,12.8-14.6,16.2c-0.4-0.4-1-0.6-1.4-1l0,0c-10.2-8.8-3.4-24.2-2.2-26.4
												v-0.2l0,0l0,0l0,0c0.6,0.4,8.6,7,14,9c1.8,0.8,3.4,1,4.2,0.4C509.3,581.5,509.3,582.3,509.1,583.5z M556.1,373.9
												c-14.8-15.6-16.6-28.2-16.6-28.2c0.4,0,0.8,0.2,1.2,0.2c13.4,1.8,25.2,2,34,1.6C571.7,361.7,556.1,373.9,556.1,373.9z"/>
										</g>
									</g>
								</g>
							</g>
							<g>
								<g>
									<g>
										<path class="st2" d="M589.1,641.5c-3.6,3.2-5.4,7-6.2,9c-1.6-0.2-2.6-0.2-2.6-0.2c-13.8,9.2-18.8,22.8-18.8,22.8l0,0
											c-18.2,1.2-21.6,22.6-21.6,22.6c-51.8-7.2-51.4-58.6-51.4-58.6l0,0c36.6-4.2,67.8-16.4,94-32.4c0,0-1.8,11.6-7,22
											C575.5,626.3,587.1,630.9,589.1,641.5z"/>
									</g>
								</g>
							</g>
						</g>
						<g>
							<g>
								<g>
									<g>
										<path class="st4" d="M509.3,581.5c0,0-1,13.8-14.8,18.4c-13.2-9.4-3.6-27.8-3.6-27.8S505.5,584.1,509.3,581.5z"/>
									</g>
								</g>
							</g>
							<g>
								<g>
									<g>
										<g>
											<g>
												<path class="st4" d="M394.9,758.9c-9.6-16.4-23.4-8.4-31.6-28.2c-0.6-1.4-1-3-1.4-4.4c-4-17.6,13.8-30,13.8-30
													c12.2,0.4,20.2,5.6,25.2,12.6c2.8,4,4.6,8.6,5.6,13.6C410.9,743.9,400.7,768.9,394.9,758.9z"/>
											</g>
										</g>
									</g>
									<g>
										<g>
											<g>
												<path class="st4" d="M455.3,753.1c0,0-12.8-31.6-48.8-30.6c-1-4.8-2.8-9.6-5.6-13.6c0,0,7.8-22.4,28.2-26.6
													c4-0.8,8.2,0.2,12.2,2.8c9.6,5.8,18.6,19.6,21.2,34.6C464.7,731.1,462.9,743.1,455.3,753.1z"/>
											</g>
										</g>
									</g>
									<g>
										<g>
											<g>
												<path class="st4" d="M503.1,704.1c0,0-29.2-2.8-40.6,15.6c-2.6-15-11.6-28.6-21.2-34.6c0,0,6.2-9,16-12.4
													c1.8-0.6,3.8-1.2,6-1.4C476.7,670.3,502.1,691.1,503.1,704.1z"/>
											</g>
										</g>
									</g>
									<g>
										<g>
											<g>
												<path class="st4" d="M642.3,695.5c0,0-21-8.6-32.2-6.4c-10,2-17.2-3.6-18.6-4.8l-0.2,0.2c-4-3.4-9.2-6.6-15.8-9
													c-5.4-2-10-2.8-14-2.4l0,0c0,0,5.2-13.4,18.8-22.8c0,0,1,0,2.6,0.2c7.4,1,29.2,4.8,44.8,20
													C634.1,676.7,639.5,684.9,642.3,695.5z"/>
											</g>
										</g>
									</g>
									<g>
										<g>
											<g>
												<path class="st4" d="M652.1,667.7l-23.4,3.8l-1-1c-15.6-15.4-37.4-19.2-44.8-20c0.8-2,2.6-5.8,6.2-9
													c4.2-3.8,10.8-6.6,21-4.6C632.5,641.5,652.1,667.7,652.1,667.7z"/>
											</g>
										</g>
									</g>
									<g>
										<g>
											<g>
												<path class="st4" d="M604.9,711.5c0,0-17-9.2-26.8-9.6c-19.4-0.6-38.2-6.4-38.2-6.4s3.4-21.4,21.6-22.6
													c4-0.2,8.6,0.4,14,2.4c6.6,2.6,11.8,5.6,15.8,9C605.5,696.5,604.9,711.5,604.9,711.5z"/>
											</g>
										</g>
									</g>
								</g>
							</g>
						</g>
						<g>
							<g>
								<g>
									<path class="st4" d="M642.3,695.5c0,0-21-8.6-32.2-6.4c-10,2-17.2-3.6-18.6-4.8l-0.2,0.2c-4-3.4-9.2-6.6-15.8-9
										c-5.4-2-10-2.8-14-2.4l0,0c0,0,5.2-13.4,18.8-22.8c0,0,1,0,2.6,0.2c7.4,1,29.2,4.8,44.8,20
										C634.1,676.7,639.5,684.9,642.3,695.5z"/>
								</g>
							</g>
						</g>
						<g>
							<g>
								<g>
									<g>
										<path class="st1" d="M304.7,620.1h-1.6c-69-7-117.4-29.4-151.4-57c26.6,11.2,77.6,26.2,145.6,15
											C297.5,578.3,295.7,602.5,304.7,620.1z"/>
									</g>
								</g>
							</g>
							<g>
								<g>
									<g>
										<path class="st1" d="M679.9,502.9c-1.2,2-2.6,4.2-3.8,6.4c-11.6,18.6-27.8,40.4-49.2,60.8c-5.6,5.4-11.6,10.6-17.8,15.6
											c-8.2,6.6-17,12.8-26.4,18.6c-26.2,16-57.4,28.2-94,32.4c-20,2.2-41.4,2.2-64.6-0.8c0,0,44-41.2,27.4-94.2
											c0,0,18.4-0.2,28.6-11.8c0,0,15,21.8,26.2,27.4c10.8,5.6,3.8,24.8,3.2,26.2l0,0l-4-2.6l-14-9l0,0l0,0l0,0v0.2
											c-1,2.4-7,17.6,2.2,26.4l0,0c4,3.8,10.8,6.4,22.2,6.4c40-0.4,64.4-20.4,49.2-75.2c0,0-3.2-36.2-13.2-50
											c0,0,59.4-61.8,103.8-38.8C673.1,450.3,679.1,475.7,679.9,502.9z"/>
									</g>
								</g>
							</g>
						</g>
						<g>
							<g>
								<g>
									<path class="st1" d="M456.1,410.3l-0.4-0.2c-3.4-1.4-24.8-9.2-57-10.6c-38-1.6-91.2,6.2-148.2,44.6c-8,5.4-17.4,8.4-27,8.6
										c-32.4,1.2-105.2-1.6-151.8-45.2c0,0,18.8,59.6,153.4,59c15.8,0,31.2-4.6,44.4-13c3.2-2,6.8-4.2,11-6.4
										c1.8-1,3.8-1.2,5.8-0.8c9,1.8,26.8-0.6,46.4-6.4c22-6.6,39.6-15.8,44.2-22.6c1.4-2,3.6-3.2,6-3.6
										C404.5,410.5,428.9,409.1,456.1,410.3z"/>
								</g>
							</g>
						</g>
						<g class="st5">
							<g>
								<g>
									<path class="st1" d="M423.7,505.1c0,0,43.8,64.6-11.2,142.6C412.5,647.7,502.3,567.1,423.7,505.1z"/>
								</g>
							</g>
						</g>
						<g class="st5">
							<g>
								<g>
									<path class="st6" d="M517.5,604.9c-1-1.6-2.2-3.2-3.2-5c2.8,0,5.8,0,8.8-0.2l4.8-0.4l4.6-0.6c1.6-0.2,3-0.6,4.4-1
										s2.8-1,4.4-1.4c2.8-1.2,5.4-2.4,7.8-4.2c1.2-0.8,2.2-1.8,3.4-2.6c0.6-0.4,1-1,1.6-1.6c0.4-0.6,1-1,1.4-1.6
										c3.6-4.4,5.8-10,7-16s1.4-12.4,0.8-18.6c-0.2-3.2-0.8-6.4-1.4-9.4c-0.4-1.6-0.6-3.2-1-4.6c-0.4-1.6-0.8-3.2-1.2-4.4
										c-0.2-0.4-0.2-0.8-0.2-1.2v-0.4c0-1.6-0.2-3.2-0.2-4.8s0-3.2-0.4-4.8l-0.6-4.6c-0.2-1.6-0.6-3-0.8-4.6
										c-0.4-3.2-1.4-6.2-2.2-9.2c-0.4-1.6-1-3-1.4-4.6c-0.2-0.8-0.4-1.6-0.8-2.2l-0.8-2.2c-2.2-6-5-11.8-8.2-17.4
										c-0.4-0.6-0.8-1.4-1.2-2c1.4-0.8,2.6-1.8,4-2.6c18.2,26,17.8,57.6,17.8,57.6C581.3,596.9,542.5,605.7,517.5,604.9z"/>
								</g>
							</g>
						</g>
						<g>
							<g>
								<g>
									<path class="st1" d="M699.7,464.1c111.4-200.4,6.6-279.4-25-297.6c-5-3-9.6-6.8-13.2-11.4
										c-32.4-40.2-112.8-29.4-114.4-29.2l0,0l0,0c1.4-0.6,86.2-39.2,136.2,24.8c0,0,81.6,22.8,85.4,147.4
										C772.5,422.9,699.7,464.1,699.7,464.1z"/>
								</g>
							</g>
						</g>
						<g>
							<g>
								<g class="st7">
									<g>
										<g>
											<path class="st8" d="M520.5,630.9c-10.2,2.6-20.8,4.6-32,6l0,0c0,0-0.4,51.6,51.4,58.6c0,0,3.2-19.6,19.4-22.4
												C533.3,665.5,523.9,644.9,520.5,630.9z"/>
										</g>
									</g>
								</g>
								<g>
									<g class="st7">
										<g>
											<g>
												<path class="st8" d="M441.3,685.3c-4-2.4-8.2-3.6-12.2-2.8c-20.4,4.2-28.2,26.6-28.2,26.6c-4.8-7.2-12.8-12.2-25.2-12.6
													c0,0-17.8,12.4-13.8,30c-53.6-21.6-36.4-85.4-36.4-85.4c-10-5.4-16.6-12.8-20.8-21h-1.6c-69-7-117.4-29.4-151.4-57
													c-77.2-62.8-80-152.8-80-152.8s23.6,133.2,191.8,174.2c7.6,1.8,15.6-1.4,19.6-8.2c5-8.2,12.2-18.2,18.8-20.8
													c0,0,2.2,53.2,31.8,74c7,5,10.8,13.2,9.8,21.8c-1,9-0.6,20.4,5.2,31c3,5.2,10,6.4,14.4,2.2c2-1.8,4.2-3.8,6.6-5.2
													c4-2.6,12.2,1.8,18.2,6.2c4.2,3,9.8,2,12.8-2.2c4.8-6.6,13.8-14,27.8-11.2C428.9,672.5,442.3,675.9,441.3,685.3z"/>
											</g>
										</g>
									</g>
									<g class="st7">
										<g>
											<g>
												<path class="st8" d="M643.3,552.9c-5.2,5.8-10.6,11.4-16.4,17.2c-5.6,5.4-11.6,10.6-17.8,15.6
													c-8.2,6.6-17,12.8-26.4,18.6c-26.2,16-57.4,28.2-94,32.4c-20,2.2-41.4,2.2-64.6-0.8c0,0,70-70.8,0-131
													c1.4,0.6,52.2,22,44.6,90C463.3,642.1,573.3,609.1,643.3,552.9z"/>
											</g>
										</g>
									</g>
									<g class="st7">
										<g>
											<g>
												<path class="st8" d="M480.5,471.7c0,0-33.2,56.6,7.2,84c0,0,1.4,2.8-2.6,8.8c-3.8,6-7,32.8,13.4,37.8
													c0,0,25.2-18.4,10.8-41.8c0,0-7-8.2-13.2-9.8C490.1,549.1,460.5,514.7,480.5,471.7z"/>
											</g>
										</g>
									</g>
									<g class="st7">
										<g>
											<g>
												<path class="st8" d="M521.5,456.7c-40-1.4-86.2-13.8-122.6-54.4c32.2,1.2,53.6,9.2,57,10.6l0.2,0.2h0.2
													c0,0,37.8,18,55.4,21.4l12.4,3C535.5,440.3,533.1,457.1,521.5,456.7z"/>
											</g>
										</g>
									</g>
									<g class="st7">
										<g>
											<g>
												<path class="st8" d="M617.1,341.9c-15.6,1.2-28.4,1.6-36.2,1.8c-29-5.2-101.6-20.6-135-46.4
													c-42.2-32.6-76.4-16.8-77.2-39c-1-22.4-7.2-69.6,104.6-111l-19,4.2c-82.8,21-104.6,73.4-100.4,106.8
													c2,15.6,9.4,27,19.2,29.4l1.2,0.2c-8.6,6.2-14.2,23.4-16,29.8c0,0,5.6,11.6,18,27.6c0-12.2,2.8-25.2,14-27.6
													c17.2-4,39.4,9.8,47.8,15.6c2.2,1.4,3.8,3.4,5.2,5.6c3.8,6.8,13,23,20.4,31.2c2.4,2.6,6,3.6,9.4,2.4
													c5.4-1.8,13.8-6,21-14.8c3.2-4,8.6-5.6,13.6-4.2c5.6,1.6,12.8,3.8,19,5.2c3,0.8,5.8,2.6,7.6,5.2
													c3.4,5,8.8,15.8,16.8,21.8c2.4,1.8,5.6,2,8.2,0.8c4.6-2.4,12.6-7.4,20-17.2c5.4-7.2,13.2-12.2,22-13.8
													c6-1.2,12-2.4,17.8-4C624.5,350.1,623.1,341.5,617.1,341.9z M374.5,287.7c0.2,0,0.2,0,0.4,0
													C374.7,287.7,374.5,287.7,374.5,287.7z"/>
											</g>
										</g>
									</g>
									<g class="st7">
										<g>
											<g>
												<circle class="st8" cx="397.1" cy="207.3" r="10"/>
											</g>
										</g>
									</g>
									<g class="st7">
										<g>
											<g>
												<circle class="st8" cx="508.5" cy="230.3" r="10.8"/>
											</g>
										</g>
									</g>
									<g class="st7">
										<g>
											<g>
												<path class="st8" d="M582.7,231.9c0,0,45.6-20.2,62.8,13.8c0,0-0.8-36.2-25.6-36.2S582.7,231.9,582.7,231.9z"/>
											</g>
										</g>
									</g>
								</g>
							</g>
							<g>
								<g class="st7">
									<g>
										<g>
											<path class="st8" d="M376.1,725.1c-0.6-1.4-1-3-1.4-4.4c-2.2-10,2.6-18.4,7.2-23.6c-1.8-0.4-3.8-0.6-6-0.6
												c0,0-17.8,12.4-13.8,30c0.4,1.4,0.8,2.8,1.4,4.4c8.4,19.8,22,11.8,31.6,28.2c3.2,5.6,7.8,0.4,10.4-9
												C395.9,737.9,383.7,743.3,376.1,725.1z"/>
										</g>
									</g>
								</g>
								<g class="st7">
									<g>
										<g>
											<path class="st8" d="M413.5,703.7c-1-2.4-2-4.6-3.4-6.6c0,0,1-2.6,3-6.2c-8.6,8-12.2,18-12.2,18c2.8,4,4.6,8.6,5.6,13.6
												c36-1,48.8,30.6,48.8,30.6c3.8-4.8,6-10.2,7.2-15.8c-4.4-7.6-16.4-24.2-39.8-26.4C418.5,710.5,415.1,707.7,413.5,703.7z"
												/>
										</g>
									</g>
								</g>
								<g>
									<g class="st7">
										<g>
											<g>
												<path class="st8" d="M452.9,679.3c0,0,2.4-3.6,6.8-7.2c-0.8,0.2-1.6,0.4-2.4,0.6c-10,3.6-16,12.4-16,12.4
													c9.6,5.8,18.6,19.6,21.2,34.6c2.8-4.4,6.6-7.6,10.6-10C469.9,696.5,461.7,684.5,452.9,679.3z"/>
											</g>
										</g>
									</g>
								</g>
								<g class="st7">
									<g>
										<g>
											<path class="st8" d="M597.5,695.3c-19.4-0.6-38.2-6.4-38.2-6.4s1.4-9,7.4-15.6c-1.8-0.2-3.6-0.4-5.4-0.2
												c-18.2,1.2-21.6,22.6-21.6,22.6s18.8,5.8,38.2,6.4c10,0.4,26.8,9.6,26.8,9.6s0.2-7.4-4.4-16
												C599.5,695.5,598.5,695.3,597.5,695.3z"/>
										</g>
									</g>
								</g>
								<g class="st7">
									<g>
										<g>
											<path class="st8" d="M615.7,677.5c-10,2-17.2-3.6-18.6-4.8l-0.2,0.2c-4-3.4-9.2-6.6-15.8-9c-4.8-1.8-8.8-2.6-12.4-2.6
												c-5,6.4-7,11.6-7,11.6l0,0c4-0.2,8.6,0.4,14,2.4c6.6,2.6,11.8,5.6,15.8,9l0.2-0.2c1.4,1.2,8.6,6.8,18.6,4.8
												c11.2-2.2,32.2,6.4,32.2,6.4c-1.6-6.2-4.2-11.4-7.2-16C628.7,677.9,620.9,676.3,615.7,677.5z"/>
										</g>
									</g>
								</g>
								<g class="st7">
									<g>
										<g>
											<path class="st8" d="M635.3,661.9l-3.4,0.2c-14.8-14.6-35.2-18.8-43.6-20c-3,3-4.8,6.4-5.4,8.4c7.4,1,29.2,4.8,44.8,20
												l1,1l23.4-3.8c0,0-2.2-3-6.2-7.2L635.3,661.9z"/>
										</g>
									</g>
								</g>
							</g>
						</g>
						<g>
							<g>
								<g>
									<g>
										<g>
											<g>
												<path class="st6" d="M374.3,287.7c-8.6,6.2-14.2,23.4-16,29.8c-0.4,1.4-0.6,2.2-0.6,2.2c-18-24.4-3.8-61.6-3.8-61.6
													C355.9,274.3,364.1,286.1,374.3,287.7z"/>
											</g>
										</g>
									</g>
									<g>
										<g>
											<g>
												<path class="st6" d="M493.3,334.5c-6.2,19-22.6,26.4-22.6,26.4c-13.6-21.4-14.4-42.6-14.4-43.4
													c5.6,2.8,11.6,5.8,18.6,9.2C481.1,329.7,487.3,332.1,493.3,334.5z"/>
											</g>
										</g>
									</g>
									<g>
										<g>
											<g>
												<path class="st6" d="M574.7,347.5c-2.8,14.2-18.6,26.4-18.6,26.4c-14.8-15.6-16.6-28.2-16.6-28.2
													C553.3,347.5,565.5,347.9,574.7,347.5z"/>
											</g>
										</g>
									</g>
								</g>
								<g>
									<g>
										<g class="st7">
											<g>
												<g>
													<path class="st8" d="M364.1,282.1c-6.2,6.2-10.6,18-12.8,24.8c1.4,4.4,3.4,8.8,6.4,12.8c0,0,0.2-0.8,0.6-2.2
														c1.8-6.2,7.4-23.6,16-29.8C370.5,287.1,367.1,285.1,364.1,282.1z"/>
												</g>
											</g>
										</g>
									</g>
									<g class="st7">
										<g>
											<g>
												<path class="st8" d="M482.5,330.1c-4.4,11-12.4,17.6-17.2,21c1.6,3.2,3.4,6.6,5.4,9.8c0,0,16.6-7.4,22.6-26.4
													C489.7,333.1,486.1,331.7,482.5,330.1z"/>
											</g>
										</g>
									</g>
									<g class="st7">
										<g>
											<g>
												<path class="st8" d="M563.7,347.5c-2.8,8.2-9.4,15.4-13.6,19.4c1.6,2.2,3.6,4.6,5.8,7c0,0,15.6-12.2,18.6-26.4
													C571.3,347.7,567.7,347.7,563.7,347.5z"/>
											</g>
										</g>
									</g>
								</g>
							</g>
							<g>
								<g class="st5">
									<g>
										<g>
											<path class="st6" d="M406.3,722.5c-1-4.8-2.8-9.6-5.6-13.6c-4.8-7.2-12.8-12.2-25.2-12.6c0,0-2.4,1.6-5.2,4.6
												c10.4,1.2,17.6,6,22,12.4c2.8,4,4.6,8.6,5.6,13.6c2.4,12,0.4,25-2.8,32.4C401.1,768.1,410.7,743.5,406.3,722.5z"/>
										</g>
									</g>
								</g>
								<g class="st5">
									<g>
										<g>
											<path class="st6" d="M462.5,719.7c-2.6-15-11.6-28.6-21.2-34.6c-4-2.4-8.2-3.6-12.2-2.8c-7.8,1.6-13.8,5.8-18.2,10.4
												c2.8-1.6,6.2-3,9.8-3.8c4-0.8,8.2,0.2,12.2,2.8c9.6,5.8,18.6,19.6,21.2,34.6c1.2,7.4,1,15-1.4,22
												c1.6,2.8,2.4,4.6,2.4,4.6C462.9,743.1,464.7,731.1,462.5,719.7z"/>
										</g>
									</g>
								</g>
								<g class="st5">
									<g>
										<g>
											<path class="st6" d="M463.3,671.5c-2.2,0.2-4.2,0.6-6,1.4c-10,3.6-16,12.4-16,12.4c0.4,0.2,1,0.6,1.4,0.8
												c2.4-2,5.6-4,9-5.2c1.8-0.6,3.8-1.2,6-1.4c10.8-1,29.4,12.4,36.6,24.4c5.2-0.4,8.6,0,8.6,0
												C502.1,691.1,476.7,670.3,463.3,671.5z"/>
										</g>
									</g>
								</g>
								<g class="st5">
									<g>
										<g>
											<path class="st6" d="M591.3,684.5c-4-3.4-9.2-6.6-15.8-9c-5.4-2-10-2.8-14-2.4c-11,0.8-16.6,9-19.4,15.2
												c3.2-3.6,7.8-6.6,14.2-7.2c4-0.2,8.6,0.4,14,2.4c6.6,2.6,11.8,5.6,15.8,9c5.8,5,9.2,10.4,11.2,15.2
												c4.4,2,7.6,3.8,7.6,3.8S605.5,696.5,591.3,684.5z"/>
										</g>
									</g>
								</g>
								<g class="st5">
									<g>
										<g>
											<path class="st6" d="M575.3,658.3c0,0,1,0,2.6,0.2c7.4,1,29.2,4.8,44.8,20c3.8,3.8,7.4,8.2,10.2,13.6
												c5.6,1.6,9.6,3.4,9.6,3.4c-3-10.6-8.4-18.8-14.6-25c-15.6-15.4-37.4-19.2-44.8-20c-1.6-0.2-2.6-0.2-2.6-0.2
												c-10.4,7-15.8,16.4-17.8,20.6C565.5,666.7,569.7,662.1,575.3,658.3z"/>
										</g>
									</g>
								</g>
								<g class="st5">
									<g>
										<g>
											<path class="st6" d="M585.1,648.7c4.2-3.8,10.8-6.6,21-4.6c15.6,3.2,29.8,17,37,25l9-1.4c0,0-19.6-26.2-42-30.8
												c-10.2-2.2-16.8,0.8-21,4.6c-3.6,3.2-5.4,7-6.2,9c0.2,0,0.2,0,0.4,0C583.9,649.9,584.5,649.3,585.1,648.7z"/>
										</g>
									</g>
								</g>
							</g>
						</g>
						<g>
							<g>
								<g>
									<g>
										<circle class="st1" cx="337.5" cy="477.5" r="25"/>
									</g>
								</g>
							</g>
							<g>
								<g>
									<g>
										<ellipse class="st1" cx="695.5" cy="317.4" rx="25" ry="25"/>
									</g>
								</g>
							</g>
							<g>
								<g>
									<g>
										<ellipse class="st1" cx="378.3" cy="459.6" rx="13.8" ry="13.8"/>
									</g>
								</g>
							</g>
							<g>
								<g>
									<g>
										<circle class="st1" cx="709.3" cy="267.1" r="13.8"/>
									</g>
								</g>
							</g>
							<g>
								<g>
									<g>
										<circle class="st1" cx="179.3" cy="491.3" r="13.8"/>
									</g>
								</g>
							</g>
							<g>
								<g>
									<g>
										<ellipse class="st1" cx="378.4" cy="493.5" rx="9.2" ry="9.2"/>
									</g>
								</g>
							</g>
							<g>
								<g>
									<g>
										<ellipse class="st1" cx="412.5" cy="611.5" rx="9.2" ry="9.2"/>
									</g>
								</g>
							</g>
							<g>
								<g>
									<g>
										<circle class="st1" cx="292.1" cy="465.9" r="5.8"/>
									</g>
								</g>
							</g>
							<g>
								<g>
									<g>
										<circle class="st1" cx="198.9" cy="502.7" r="5.8"/>
									</g>
								</g>
							</g>
							<g>
								<g>
									<g>
										<circle class="st1" cx="405.3" cy="630.9" r="5.8"/>
									</g>
								</g>
							</g>
							<g>
								<g>
									<g>
										<circle class="st1" cx="533.5" cy="496.9" r="5.8"/>
									</g>
								</g>
							</g>
							<g>
								<g>
									<g>
										<circle class="st1" cx="423.7" cy="360.7" r="5.8"/>
									</g>
								</g>
							</g>
						</g>
					</g>
					<g>
						<g>
							<g>
								<g>
									<g>
										<path class="st8" d="M593.3,346.9c-4.6,1.8-9.2,2.8-14,3.8c-2.4,0.4-4.8,0.6-7.2,1c-2.4,0.2-4.8,0.4-7.2,0.6
											c-9.6,0.4-19.2-0.4-28.6-1.6l-7.2-1c-2.4-0.4-4.8-1-7-1.4l-3.6-0.6c-1.2-0.2-2.4-0.6-3.6-0.8l-7-1.8c-2.4-0.6-4.6-1.4-7-2
											l-3.4-1c-1.2-0.4-2.2-0.8-3.4-1.2l-6.8-2.4l-3.4-1.2l-3.4-1.4c-4.4-2-8.8-3.8-13-5.8s-8.4-4-12.8-6.2
											c-8.4-4.2-16.8-8.6-25.2-12.8c-8.2-4.4-16.4-8.8-24.6-11.8c-4-1.4-8.2-2.8-12.4-3.4c-4.2-0.6-8.6-1-13.2-1.2l-3.4-0.2
											c-0.8,0-1.6,0-2.4-0.2s-1.6-0.2-2.4-0.4c-3.2-0.8-6-2.2-8.4-4c-4.8-3.6-8-8.4-10.4-13.4c-4.6-9.8-5.6-20.2-5-30.4
											c0.6-10.2,3.2-20,7.4-29.2c4-9.2,9.6-17.6,16.2-25c13.2-14.8,30-25.6,47.6-33.4c8.8-3.8,18-7,27.2-9.6
											c2.2-0.6,4.6-1.2,7-1.8s4.6-1,7-1.2s4.8-0.4,7.2-0.2s5,0.4,7.4,1.2c0.4,0,0.6,0.4,0.4,0.8c0,0.2-0.2,0.2-0.2,0.4l0,0
											c-2.2,1.6-4.2,2.6-6.4,3.6s-4.4,2-6.6,2.6c-4.4,1.6-8.8,2.6-13.2,4c-8.8,2.6-17.4,5.8-25.6,9.6
											c-16.4,7.6-31.8,18-43.2,31.4c-5.8,6.8-10.6,14.2-14,22.2s-5.6,16.6-6.2,25.2c-0.4,8.6,0.6,17.2,4.2,24.4
											c1.6,3.6,4,6.8,6.6,8.6c1.4,1,2.6,1.6,4,2c0.4,0,0.6,0.2,1,0.2h1.2l3.6,0.2c4.8,0.2,9.8,0.6,14.8,1.4s10,2.2,14.6,4
											c9.4,3.6,17.6,8.2,26,12.6c8.2,4.4,16.6,8.8,24.8,13c4.2,2.2,8.4,4.2,12.4,6.2c4.2,2.2,8.4,4,12.4,5.8l3.2,1.4l3.2,1.2
											l6.4,2.4c1,0.4,2.2,0.8,3.2,1.2l3.2,1c2.2,0.6,4.4,1.4,6.6,2l6.6,1.8c1.2,0.2,2.2,0.6,3.4,0.8l3.4,0.8
											c2.2,0.4,4.4,1,6.8,1.4l6.8,1c18.2,2.6,36.4,3.4,55,4.4l0,0c0.6,0,1.2,0.6,1.2,1.4C594.1,346.5,593.9,346.9,593.3,346.9z"
											/>
									</g>
								</g>
							</g>
							<g>
								<g>
									<g>
										<path class="st8" d="M460.1,643.7c-12.6,0-25.4-0.8-38.4-2.6l1.4-10.4c81.6,11.2,152.2-13.4,209.4-73.6
											c43-45.2,62-94.4,62.2-94.8c0.4-1.2,1.2-2,2.4-2.6c0.2,0,17.8-10.4,34.6-35.2c15.6-23,33.8-63.4,31.8-126
											c-1.6-49.4-16.2-89.6-42.2-116.6c-19.6-20.2-39.2-26-39.4-26c-1-0.4-2-1-2.6-1.8c-19.6-25.2-47.4-36.8-82.2-34.6
											c-26.6,1.8-47.4,11.2-47.6,11.4c-1.4,0.6-3.2,0.6-4.6-0.2c-53.8-29.2-84.4,21.2-85.8,23.4l-9-5.2
											c0.4-0.6,36.2-60,97.4-28.6c6.6-2.6,25.4-9.6,48.6-11.2c37.6-2.6,68.8,10.4,90.4,37.2c5.6,1.8,23.6,9,41.8,27.8
											c19.6,20,43.6,57.8,45.6,124c2,65.8-17.4,108.6-34,132.8c-15.4,22.4-31,33.6-36,36.8c-3.8,9.2-23.2,54-63.4,96.4
											c-26.2,27.4-55.6,48.2-87.6,61.6C523.7,637.7,492.7,643.7,460.1,643.7z"/>
									</g>
								</g>
							</g>
							<g>
								<g>
									<g>
										<path class="st8" d="M357.7,324.9c-1.6,0-3.2-0.8-4.2-2.2c-19.4-26.4-5-65-4.4-66.6l9.8,3.8l-4.8-1.8l4.8,1.8
											c-0.2,0.2-9.4,25.4-2.4,46.2c3.2-8,8-18,14.8-22.8l6.2,8.4c-7.4,5.2-13,22.8-14.6,29c-0.4,2-2,3.4-4,3.8
											C358.3,324.9,358.1,324.9,357.7,324.9z"/>
									</g>
								</g>
							</g>
							<g>
								<g>
									<g>
										<path class="st8" d="M470.7,366.1c-1.8,0-3.4-0.8-4.4-2.4c-14.4-22.6-15.2-45-15.2-46c0-2.8,2.2-5.2,5-5.4h0.2
											c2.8,0,5.2,2.2,5.2,5c0,0.2,0.8,17.8,11,36.4c4.6-3.2,12.4-9.8,15.8-20.8c0.8-2.8,3.8-4.2,6.6-3.4
											c2.8,0.8,4.2,3.8,3.4,6.6c-6.8,21-24.8,29.2-25.4,29.6C472.1,365.9,471.5,366.1,470.7,366.1z"/>
									</g>
								</g>
							</g>
							<g>
								<g>
									<g>
										<path class="st8" d="M556.1,379.1c-1.4,0-2.8-0.6-3.8-1.6c-15.6-16.6-18-30.4-18-31l10.4-1.6c0,0.2,1.8,9.4,12,21.6
											c4.4-4.2,11.4-12,13-20.2l10.2,2c-3.2,15.8-19.8,29-20.4,29.6C558.3,378.7,557.1,379.1,556.1,379.1z"/>
									</g>
								</g>
							</g>
							<g>
								<g>
									<g>
										<path class="st8" d="M362.5,315.5c1,1.6,2,3.4,3,5s2.2,3.4,3.4,5c2.2,3.4,4.6,6.6,7,9.8c2.4,3.2,5,6.4,7.4,9.6
											c2.6,3.2,5.2,6.2,7.8,9.2c5.4,6,11,11.8,17,17.2l4.4,4c1.4,1.4,3,2.6,4.6,4s3,2.6,4.6,3.8c1.6,1.2,3.2,2.6,4.8,3.8
											c12.8,9.8,26.4,18.6,40.8,25.8l5.4,2.6c1,0.4,1.8,1,2.8,1.4l2.8,1.2l5.4,2.6l5.6,2.6c3.6,1.8,7.4,3.4,11.2,5.2
											c3.8,1.8,7.6,3.4,11.2,5.4l0,0c0.2,0.2,0.2,0.4,0.2,0.6s-0.2,0.2-0.4,0.2c-8.4-0.4-16.8-1.6-25-3.8
											c-8.2-2-16-5.2-23.8-8.6c-15.4-7-30-15.8-43.4-26c-6.8-5-13.2-10.6-19.4-16.4c-6.2-5.8-12-11.8-17.6-18.4
											c-5.6-6.4-10.6-13-15.4-20c-2.4-3.4-4.6-7-6.8-10.8c-1-1.8-2.2-3.6-3.2-5.6s-2-3.8-3-5.8c-1-2.4,0-5,2.2-6
											C358.7,312.5,361.1,313.3,362.5,315.5L362.5,315.5z"/>
									</g>
								</g>
							</g>
							<g>
								<g>
									<g>
										<path class="st8" d="M303.1,625.3c-0.2,0-0.4,0-0.6,0c-52.4-5.4-97.2-19.8-133.6-43.2c-29.2-18.8-53-43.2-70.6-72.8
											c-30-50.2-31.8-96.8-31.8-98.8c0-2.2,1.2-4,3-5c2-0.8,4.2-0.4,5.8,1c45.8,42.8,118.8,45,148,43.8c8.8-0.4,17.2-3,24.4-7.8
											c58-39.2,112-46.4,147.2-45.6c38.2,0.8,62.4,10.8,63.6,11.4c2.6,1.2,4,4.2,2.8,6.8c-1.2,2.6-4.2,4-6.8,2.8l0,0
											c-0.2,0-23.8-9.8-60.2-10.6c-33.4-0.6-85,6.4-140.6,43.8c-8.8,5.8-19,9.2-29.8,9.6c-28.6,1-97-0.8-145.4-38
											c2.4,17,9.6,48.8,29.2,81.6c38.6,64,104.6,101.2,196.2,110.6c2.8,0.2,5,2.8,4.6,5.8C308.1,623.3,305.9,625.3,303.1,625.3z
											"/>
									</g>
								</g>
							</g>
							<g>
								<g>
									<g>
										<path class="st8" d="M302.3,555.7c-1.2,8-1.8,15.8-2,23.6c0,4,0.2,7.8,0.6,11.6s1,7.6,1.8,11.4c1.8,7.4,4.8,14.2,9,20
											s10,10.4,16.2,14l0,0h0.2c2,1.2,3,3.6,2.4,5.8c-0.2,0.8-0.4,1.8-0.6,2.8s-0.4,2-0.6,3c-0.4,2-0.6,4-0.8,6
											c-0.4,4-0.6,8-0.4,12c0.2,8,1.4,16,4.2,23.4c1.4,3.6,3,7.2,5,10.4s4.4,6.4,7.2,9c2.8,2.8,5.8,5.2,9,7.2
											c3.2,2.2,6.8,3.8,10.4,5.4l0.2,0.2c2.6,1.2,3.8,4.2,2.8,6.8c-1.2,2.6-4.2,3.8-6.8,2.8c-4.2-1.8-8.4-3.8-12.2-6.2
											c-4-2.4-7.6-5.4-10.8-8.6c-3.4-3.2-6.2-7-8.6-10.8c-2.4-4-4.4-8.2-6-12.4c-3.2-8.6-4.6-17.6-4.8-26.6
											c-0.2-4.4,0-9,0.6-13.4c0.2-2.2,0.6-4.4,0.8-6.6c0.2-1.2,0.4-2.2,0.6-3.4s0.4-2.2,0.8-3.4l2.6,6
											c-7.6-4.2-14.4-10.2-19.2-17.6c-2.4-3.6-4.4-7.6-5.8-11.6s-2.4-8.2-3-12.4c-1.2-8.4-1-16.8,0.2-24.8c0.6-4,1.4-8,2.6-12
											s2.4-7.8,4.2-11.4c0-0.2,0.2-0.2,0.4-0.2C302.3,555.5,302.3,555.7,302.3,555.7L302.3,555.7z"/>
									</g>
								</g>
							</g>
							<g>
								<g>
									<g>
										<path class="st8" d="M426.1,504.1c5.8,4,10.8,9,15.2,14.4c1.2,1.4,2.2,2.8,3.2,4.2s2,3,3,4.4c1,1.6,1.8,3,2.6,4.6l1.2,2.4
											l1.2,2.4c3,6.6,5,13.6,6,20.6c1,7.2,1,14.4,0,21.6c-2,14.4-8,27.8-15.4,39.8c-1.8,3-4,5.8-6,8.8c-2.2,2.8-4.4,5.6-6.6,8.4
											c-2.4,2.6-4.6,5.4-7,8l-7.4,7.6l1-6l0,0c1.8,3.8,4,7.6,6.4,10.8c0.6,0.8,1.2,1.4,1.6,2c0.2,0,0.2,0.2,0.4,0.2
											c0.2,0.2,0,0-0.2,0l-0.2-0.2c-0.4-0.2-0.2,0,0,0c0.4,0,1.4,0,2.4-0.2l3.4-0.4c4.8-0.6,10.2-0.6,15.4,1
											c5.2,1.4,9.8,4.4,13.6,8c2.2,2,2.2,5.2,0.4,7.4c-2,2.2-5.2,2.2-7.4,0.4l0,0c-2.8-2.6-6-4.6-9.6-5.6c-3.4-1-7.2-1-11.4-0.6
											l-3.4,0.4c-1.2,0.2-2.6,0.2-4.4,0.2c-1-0.2-2-0.2-3.4-0.8c-0.4-0.2-0.6-0.4-1-0.6c-0.4-0.2-0.8-0.4-0.8-0.6l-1-0.8
											c-1.2-1-2-2.2-2.8-3.2c-3-4.2-5.2-8.2-7.4-12.6l0,0c-1-2-0.6-4.6,1-6c9.6-9.4,18.6-19.2,26-30.4c7.2-11,13-23.2,15.4-36
											c1.2-6.4,1.4-13,0.8-19.4c-0.6-6.4-2.2-12.8-4.6-19c-4.8-12.2-12.4-23.8-22-33l0,0c-0.4-0.4-0.4-1.2,0-1.8
											C424.9,503.7,425.5,503.7,426.1,504.1z"/>
									</g>
								</g>
							</g>
							<g>
								<g>
									<g>
										<path class="st8" d="M397.9,766.3c-2.6,0-5.4-1.2-7.4-4.8c-3.6-6.2-7.6-7.8-12.6-10c-6.6-2.8-14-6.2-19.4-18.6
											c-7.8-18.8,6-34.8,14.2-40.6c1-0.6,2-1,3.2-1c19.8,0.8,33,12.8,36.2,33.2c2.4,16.2-2,38.2-11.4,41.6
											C399.7,766.3,398.9,766.3,397.9,766.3z M377.3,701.7c-4,3.2-14.8,13.8-9.4,27c3.6,8.8,8.2,10.6,13.8,13.2
											c5,2.2,11.2,4.8,16.2,12.4c3-5.6,6.4-20.8,2.2-34.2C396.9,708.9,389.1,702.7,377.3,701.7z"/>
									</g>
								</g>
							</g>
							<g>
								<g>
									<g>
										<path class="st8" d="M455.3,758.3c-0.2,0-0.4,0-0.8,0c-1.8-0.2-3.4-1.4-4.2-3.2c-0.4-1.2-12-28.2-43.8-27.2
											c-3,0-5.2-2.2-5.4-5s2.2-5.2,5-5.4c26.8-0.8,42,15.2,49,25.4c5.6-13.2,2-29.2-5-40.8c-6-9.6-14.2-15.6-20.2-14.4
											c-17.2,3.4-24.2,23-24.4,23.2c-1,2.8-4,4.2-6.6,3.2c-2.8-1-4.2-4-3.2-6.6c0.4-1,9-25.2,32.2-30
											c10.6-2.2,22.4,5.2,31.2,19.2c10.4,16.6,14.4,41.6,0.2,59.8C458.3,757.5,456.9,758.3,455.3,758.3z"/>
									</g>
								</g>
							</g>
							<g>
								<g>
									<g>
										<path class="st8" d="M462.5,724.9c-1,0-1.8-0.2-2.8-0.8c-2.4-1.6-3.2-4.8-1.6-7.2c9.2-14.6,27.2-17.8,37.6-18.2
											c-6-10.2-23.2-22.8-32-22.2c-10.6,0.8-18,11.4-18.2,11.6c-1.6,2.4-4.8,3-7.2,1.4s-3-4.8-1.4-7.2c0.4-0.6,10.2-14.8,26-16
											c16-1.4,44,21.8,45.4,37.4c0.2,1.6-0.4,3-1.6,4.2c-1,1-2.6,1.6-4.2,1.4c-0.2,0-26-2.2-35.6,13.2
											C466.1,724.1,464.3,724.9,462.5,724.9z"/>
									</g>
								</g>
							</g>
							<g>
								<g>
									<g>
										<path class="st8" d="M587.7,605.3c-0.2,1.6-0.4,2.8-0.8,4.2c-0.4,1.4-0.8,2.8-1.2,4c-0.8,2.6-2,5.2-3.2,7.8
											s-2.8,5-4.4,7.2c-1.8,2.2-3.6,4.4-6,6.2c-0.6,0.6-1.6,0.4-2.2-0.2c-0.4-0.4-0.4-1-0.2-1.6l0,0c1-2.4,1.8-4.8,2.6-7.4
											c0.6-2.4,1.4-4.8,2-7.4l1.6-7.4c0.6-2.4,1-5,1.6-7.2v-0.2c0.8-2.8,3.6-4.4,6.4-3.8C586.3,600.3,587.9,602.7,587.7,605.3z"
											/>
									</g>
								</g>
							</g>
							<g>
								<g>
									<g>
										<path class="st8" d="M584.1,642.9c-1.2-7.8-10.4-11.6-10.6-11.6l3.8-9.8c0.6,0.2,15,5.8,17.2,19.8L584.1,642.9z"/>
									</g>
								</g>
							</g>
							<g>
								<g>
									<g>
										<path class="st8" d="M629.5,676.7l-1.6-10.4l14.2-2.4c-7-7.6-19.8-19.2-33-22c-16.8-3.6-21.2,9.8-21.6,11.2l-10-2.8
											c2.4-8.4,12.4-23.2,33.8-18.6c24,5,44.2,31.6,45,32.8c1,1.4,1.4,3.4,0.6,5c-0.6,1.6-2.2,3-4,3.2L629.5,676.7z"/>
									</g>
								</g>
							</g>
							<g>
								<g>
									<g>
										<path class="st8" d="M642.3,700.7c-0.6,0-1.4-0.2-2-0.4c-5.4-2.2-21.4-7.6-29.2-6c-13.8,2.8-23.2-6-23.4-6.4l7.2-7.6
											c0.2,0.2,6,5.4,14.2,3.8c7-1.4,16.8,0.6,24.4,2.8c-13.2-25.4-44-30.6-51.6-31.4c-11,8.2-15.4,19-15.4,19.2l-9.8-3.8
											c0.2-0.6,5.8-15,20.8-25.2c1-0.6,2-1,3.2-0.8c0.6,0,54,3.6,66.8,49.2c0.6,2,0,4-1.6,5.2
											C644.9,700.3,643.7,700.7,642.3,700.7z"/>
									</g>
								</g>
							</g>
							<g>
								<g>
									<g>
										<path class="st9" d="M539.9,695.5"/>
									</g>
								</g>
							</g>
							<g>
								<g>
									<g>
										<path class="st8" d="M604.9,716.7c-0.8,0-1.8-0.2-2.6-0.6c-4.4-2.4-17.4-8.8-24.6-9c-18.6-0.6-36.2-5.6-39.2-6.6
											c-55.2-7.8-55.6-63.2-55.6-63.8c0-2.8,2.4-5.2,5.2-5.2l0,0c2.8,0,5.2,2.4,5.2,5.2c0,1.8,0.4,44.2,42.4,52.8
											c1.8-5.4,5.8-13.8,13.8-18.4c7.6-4.4,16.8-4.6,27.4-0.6c33.6,12.6,33,40,32.8,41.2c0,1.8-1,3.4-2.6,4.4
											C606.7,716.5,605.9,716.7,604.9,716.7z M546.3,691.9c6.6,1.6,19.2,4.4,32,4.8c6,0.2,13.6,3,19.6,5.6
											c-2.6-7-9-16.2-24.2-22c-7.6-2.8-13.8-3-18.4-0.2C550.3,682.9,547.7,688.1,546.3,691.9z"/>
									</g>
								</g>
							</g>
							<g>
								<g>
									<g>
										<path class="st8" d="M494.5,605.1c-2.2,0-4.2-1.4-5-3.6c-1-2.8,0.6-5.6,3.4-6.6c10.2-3.4,11.2-13.4,11.2-13.8
											c0.2-2.8,2.8-5,5.6-4.8c2.8,0.2,5,2.6,4.8,5.6c0,0.8-1.4,17.4-18.4,23C495.7,605.1,495.1,605.1,494.5,605.1z"/>
									</g>
								</g>
							</g>
							<g>
								<g>
									<g>
										<path class="st8" d="M579.9,230.5c0.8-2.2,1.6-4,2.6-6s2-3.8,3.4-5.6c2.4-3.6,5.4-7,9.2-9.8c3.6-2.8,8-5.2,12.8-6.4
											c4.8-1.4,10.2-1.4,15-0.2c1.2,0.4,2.4,0.6,3.6,1c1.2,0.4,2.2,0.8,3.4,1.4c2.2,1,4.4,2.2,6.4,3.8c4,3,7.2,7,9.4,11.2
											s3.4,8.8,3.6,13.2c0.2,2.2,0.2,4.4,0,6.6s-0.6,4.2-1.2,6.4c-0.4,1.4-1.8,2-3.2,1.6c-0.8-0.2-1.4-1-1.6-1.6l-0.2-0.4
											c-0.2-0.8-0.4-1.8-0.8-2.6c-0.2-1-0.4-1.8-0.8-2.8c-0.6-1.8-1.2-3.6-1.8-5.2c-1.4-3.2-3-6.2-5-8.8c-1-1.2-2-2.4-3.2-3.4
											s-2.2-2-3.6-2.6c-1.2-0.8-2.6-1.4-4-2s-3-1-4.4-1.4c-0.8-0.2-1.4-0.4-2.2-0.4l-1-0.2h-1c-1.4,0-2.8,0-4.2,0.4
											c-2.8,0.6-5.8,1.6-8.8,3.2c-5.8,3.2-11.6,8.2-16.8,13.6l-0.2,0.2c-1.2,1.2-3.2,1.4-4.6,0
											C579.7,232.9,579.5,231.5,579.9,230.5z"/>
									</g>
								</g>
							</g>
						</g>
						<g>
							<g>
								<g>
									<path class="st8" d="M515.1,220.5c2.4,1.2,4.2,3,5.6,5.2c0.8,1.2,1.2,2.4,1.6,4c0.4,1.4,0.4,3.2,0,4.8
										c-0.4,1.6-1.4,3.2-2.4,4.4c-1.2,1.2-2.4,2-3.8,2.6c-1.4,0.6-2.6,0.8-4,0.8c-0.6,0-1.4,0-2-0.2s-1.4-0.4-2-0.6
										c-0.4-0.2-0.6-0.6-0.4-1c0,0,0,0,0-0.2l0,0c1.6-2.2,3.2-3.6,4.4-5c0.6-0.6,1-1.2,1.2-1.6c0.4-0.4,0.6-0.8,0.8-1.4
										c0.4-0.8,0.4-2.4,0.2-4.2c-0.2-1.8-0.8-3.8-1.2-6v-0.2c-0.2-0.8,0.4-1.4,1.2-1.6C514.5,220.5,514.9,220.5,515.1,220.5z"/>
								</g>
							</g>
						</g>
						<g>
							<g>
								<g>
									<path class="st8" d="M401.9,199.7c-1.8,1.4-3.4,2.8-4.8,4s-2.2,2.4-2.4,3.4c-0.2,0.4-0.2,0.8-0.2,1.4s-0.2,1.2,0,2.2
										c0,1.8,0.4,3.8,0.2,6.6l0,0c0,0.4-0.4,0.8-0.8,0.8h-0.2c-0.8-0.2-1.4-0.4-2-0.8s-1.2-0.6-1.6-1c-1-0.8-2-1.8-2.6-3.2
										c-0.8-1.2-1.2-2.8-1.4-4.4c-0.2-1.6,0.2-3.4,1-5s1.8-2.8,3-3.8s2.4-1.6,3.8-2.2c2.6-1,5.2-1,7.8-0.4c0.8,0.2,1.2,1,1,1.6
										C402.5,199.1,402.3,199.3,401.9,199.7L401.9,199.7z"/>
								</g>
							</g>
						</g>
					</g>
				</g>
			</g>
		</g>
	</g>
	<circle class="st10" cx="616.3" cy="234.5" r="51"/>
	<path class="st8" d="M674.3,232.1v-1.8c0-1.8,0-3.6-0.4-5.6c-0.4-4.8-1.6-9.8-3.8-15.6c-1.8-4.8-4.6-9.6-8.4-14.6
		c-3.4-4.2-7.6-8.2-12.6-11.8c-4.6-3.2-10-5.8-16-7.8c-5.4-1.6-11.2-2.6-17.8-2.8l-2.4,0.2c-2,0-4,0.2-6.2,0.6
		c-2.8,0.4-5.4,1-7.8,1.8l-1,0.2c-6,2-11.2,4.6-16,7.8c-5,3.6-9.2,7.6-12.6,11.8c-3.8,5-6.4,9.8-8.4,14.4
		c-3.8,9.6-5.2,20.6-3.6,30.8c1.4,9.4,5,17.8,10.4,25.4c4.6,6.2,10.4,11.6,16.6,15.6c4.8,3,10,5.4,16,7c2.8,0.8,4.8,1.2,6.4,1.4
		c2,0.4,3.6,0.6,4.8,0.6l4,0.2l3.8-0.2l0,0c1.4,0,3.2-0.2,4.8-0.4c1.8-0.2,3.8-0.6,6.4-1.4c6-1.6,11.2-4,16-7
		c3.4-2.2,6.6-4.6,9.6-7.6c6.4-1.2,4,12,10,12c6.4,0,11.6-5.2,11.6-11.6s-12.2-1.2-11.6-11.6c0-0.6,0-1,0-1.4
		c3.8-6.4,6.4-13.6,7.6-21C673.9,237.1,674.3,234.9,674.3,232.1z M665.5,238.9c-0.6,8-3.2,16-7.4,22.8c-3.4,5.6-8.2,10.6-14.2,14.8
		c-5.4,3.8-10.8,5.6-14.4,6.8c-2.4,0.8-4.2,1-5.8,1.2c-1.8,0.4-3.2,0.6-4.4,0.6l-3.8,0.2l-3.8-0.2c-1,0-2.4-0.2-4.4-0.6
		c-1.4-0.2-3.2-0.6-5.8-1.2c-3.6-1-9-3-14.4-6.8c-6-4.2-10.8-9.2-14.2-14.8c-4.2-6.8-6.8-14.8-7.4-22.6c-0.6-8.8,1-17.8,5-25.8
		s10.6-15.2,18.2-20.2c3.8-2.4,8.2-4.4,12.6-5.8l1.2-0.2c2-0.4,3.8-1,6-1.2c1.2-0.2,3-0.4,4.8-0.4c0.8,0,1.6,0,2.2-0.2
		c5.2,0,9.8,0.8,14,2c4.8,1.6,9.2,3.4,12.8,5.8c7.8,5,14.4,12.2,18.2,20.2c2.2,4.6,3.6,8.8,4.2,12.8c0.4,1.4,0.4,3.2,0.6,4.8
		l0.2,1.6C665.5,234.3,665.5,236.5,665.5,238.9z"/>
	<g>
		<path class="st8" d="M324.3,254.5c-4.4-8-3-18.6,2.4-26c4.8-6.6,12.2-10.8,20-13c-3.2,1.8-6.2,4.4-8.2,6.4
			c-3.6,3.4-5.6,8-6.4,12.8c-0.2,1.6-0.4,3.4-0.2,5c0.6,4,3,7.6,6.2,10.2c4.4,3.6,10.6,5.4,16.4,4.6c-4.4-0.2-8.8-1.6-12.4-4.4
			c-3.4-2.8-5.8-6.8-6-10.8c-0.2-3.8,1.6-7.4,4-10.4c0,0.8-0.2,1.4-0.2,2.2c-0.2,8.2,3.2,11.8,11.4,11.2c8.2-0.6,15.8-4,23.4-7.4
			c14-6.2,28-16.6,43.8-0.8c8.6,11.4-3.6,31.4-21.6,30.2c-3.8-0.2-11.4-1-15.2-1.4c-6.6-0.8-11,1.8-17.6,3.4
			C348.9,269.9,331.9,268.3,324.3,254.5z"/>
		<path class="st8" d="M430.7,237.5c21.6-5.4,28.4,10.8,37,23.2c4.6,6.8,9.4,13.6,16.2,18.4c6.6,4.8,11.4,3.4,15.6-3.6
			c0.4-0.6,0.8-1.4,1-2c0.8,3.8,0.2,7.8-1.8,11c-2.4,3.4-6.4,5.6-10.8,6.2c-4.4,0.6-9-0.6-12.8-2.6c4.6,3.6,10.6,5.4,16.4,4.6
			c4.2-0.6,8-2.4,10.6-5.6c1-1.4,1.8-2.8,2.4-4.4c1.8-4.6,2.4-9.6,1.2-14.4c-0.8-2.8-2-6.4-3.8-9.6c5.6,5.8,9.8,13.4,10.4,21.4
			c0.8,9.2-3.4,18.8-11.4,23.6c-13.6,8-29,0.6-40.4-10.4c-4.8-4.6-7.2-9.2-13.4-12c-3.4-1.6-10.4-5-13.6-6.6
			C417.5,266.3,417.3,242.9,430.7,237.5z"/>
	</g>
	<g id="Calque_10">
		<g>
			
				<linearGradient id="SVGID_1_" gradientUnits="userSpaceOnUse" x1="-2006.0258" y1="-50.8676" x2="-1838.6257" y2="-50.8676" gradientTransform="matrix(-1 0 0 -1 -1316.1257 502)">
				<stop  offset="0" style="stop-color:#662483"/>
				<stop  offset="5.972981e-03" style="stop-color:#672482"/>
				<stop  offset="0.2186" style="stop-color:#8F1B71"/>
				<stop  offset="0.4282" style="stop-color:#AE1464"/>
				<stop  offset="0.6314" style="stop-color:#C40F5A"/>
				<stop  offset="0.8254" style="stop-color:#D10C54"/>
				<stop  offset="1" style="stop-color:#D60B52"/>
			</linearGradient>
			<path class="st11" d="M522.5,610.3c12,15.4,28.8,27,48.2,32.6c0.2,0,0.2,0,0.4,0.2c8,2.2,16.4,3.4,25.2,3.4
				c51.6,0,93.6-41.8,93.6-93.6c0-43.2-29.4-79.6-69.2-90.4c-0.4,0-0.8-0.2-1-0.2c-7.4-2-15.2-3-23.2-3c-16.8,0-32.4,4.4-46,12
				c0.2,0.4,0.4,0.6,0.8,1c4,5.6,7.4,11.6,10.2,18l1,2.4c0.4,0.8,0.6,1.6,1,2.4c0.6,1.6,1.2,3.2,1.8,5c1,3.4,2,6.6,2.8,10.2
				c0.4,1.8,0.8,3.4,1,5.2l0.6,5.2c0.2,1.8,0.2,3.6,0.4,5.2c0,1.4,0,3,0.2,4.4c0.4,1.6,0.8,3,1.2,4.6c0.4,1.8,0.8,3.4,1.2,5.2
				c0.6,3.4,1.2,7,1.4,10.6c0.6,7,0.6,14.4-1,21.6c-1.4,7.2-4.2,14.4-9.2,20.6c-4.8,6.2-11.6,10.6-18.4,13.2
				c-7,2.6-14.4,3.8-21.2,4.2C523.5,610.1,522.9,610.1,522.5,610.3z"/>
			<g>
				<path class="st12" d="M582.3,533.9l32.2-18.6c1.6-0.8,3.4-0.8,5,0l28.2,16.2l3.4,14.4l-30.6,47.4c-1.6,0.8-3.4,0.8-5,0l-35.6-22
					v-33C579.7,537.5,581.5,534.5,582.3,533.9L582.3,533.9z"/>
				<path class="st13" d="M647.7,531.5l4.2,2.4c0.8,0.4,1.4,1,1.8,1.8l-6,6.8V531.5L647.7,531.5z"/>
				<path class="st13" d="M617.1,589.9l3.4,5.2l-3.4,4c-0.8,0-1.8-0.2-2.4-0.6l-32.2-18.6c-1.6-0.8-2.4-2.6-2.4-4.4v-4.4l32.2,18.6
					C613.7,590.9,615.5,590.9,617.1,589.9L617.1,589.9z"/>
				<path class="st13" d="M579.7,538.3c0-0.8,0.2-1.8,0.6-2.4c0.4-0.8,1-1.4,1.8-1.8l37.4,21.6l28.2-16.2l3.4,33.4
					c0,1.8-1,3.4-2.4,4.4l-31.4,12.8v-30.2L579.7,538.3z"/>
				<path class="st14" d="M645.3,573.7c1.6-0.8,2.4-2.6,2.4-4.4v-30.2l6-3.4c0.4,0.8,0.6,1.6,0.6,2.4v37.4c0,1.8-1,3.4-2.4,4.4
					l-32.2,18.6c-0.8,0.4-1.6,0.6-2.4,0.6v-9.4L645.3,573.7z"/>
			</g>
			<g>
				<path class="st8" d="M540.9,596.5l11,6.4c2.6-1.6,5.2-3.4,7.6-5.6h-0.4c-3,0-5.4-2.4-5.4-5.4v-3c0-0.2,0-0.4,0-0.6
					c-0.4,0.4-0.8,0.8-1.2,1.2c-1,1-2.2,2-3.4,2.6c-2.4,1.8-5,3-7.8,4.2C541.3,596.3,541.1,596.3,540.9,596.5z"/>
				<path class="st12" d="M538.3,594.9L538.3,594.9l2.4,1.6l10.6,6.6l22.6,14c1.2,0.8,2.8,0.8,4,0.4c0.4,0,0.6-0.2,1-0.4l4.2-6.4
					l24-37.2l2.4-3.6l-3.4-14.4l-3.2-1.8l-25-14.4c-1.6-1-3.4-1-5,0l-1,0.6l-7.4,4.2l-0.2,0.2l-2,1.2c0.2,1.6,0.4,3.4,0.6,5
					c0,0.4,0.2,1,0.2,1.4c0.6,6.4,0.4,12.6-0.8,18.6l0,0c-0.2,1.2-0.6,2.4-0.8,3.4c-0.2,0.6-0.2,1-0.4,1.6c-1.2,4-3.2,7.8-5.8,11
					c-0.4,0.4-0.6,0.8-1,1.2c-0.2,0.2-0.2,0.2-0.4,0.4l-0.4,0.4l0,0c0,0.2,0,0.4,0,0.6v3c0,3,2.4,5.4,5.4,5.4h0.4
					c-1.2,1.2-2.6,2.2-4,3.2c-0.6,0.4-1,0.8-1.6,1.2s-1.4,0.8-2,1.2l-11-6.4L538.3,594.9z"/>
				<path class="st13" d="M606.3,555.1l4.2,2.4c0.8,0.4,1.4,1,1.8,1.8l-6,6.8V555.1L606.3,555.1z"/>
				<path class="st13" d="M538.3,594.9L538.3,594.9l2.4,1.6l10.6,6.6c-0.4,0.2-1,0.6-1.6,0.8c-1.6,0.8-3.2,1.6-4.8,2.2h-0.2l28,16.2
					c0.8,0.4,1.6,0.6,2.4,0.6l3.4-4l-1-1.4l-2.4-3.8c-1.6,0.8-3.4,0.8-5,0l-18.6-10.8l-11-6.4L538.3,594.9z"/>
				<path class="st13" d="M561.3,575.1l9.2,5.4l5,3v30l7.6-3l24-9.8c1.6-0.8,2.4-2.6,2.4-4.4l-2.2-23l-1-10.4l-28.2,16.2l-6-3.6
					l-9.4-5.4c-0.2,1.2-0.6,2.4-0.8,3.4C561.5,574.1,561.5,574.7,561.3,575.1z"/>
				<path class="st14" d="M603.7,597.3c1.6-0.8,2.4-2.6,2.4-4.4v-30.2l6-3.4c0.4,0.8,0.6,1.6,0.6,2.4v37.4c0,1.8-1,3.4-2.4,4.4
					l-32.2,18.6c-0.8,0.4-1.6,0.6-2.4,0.6v-9.2L603.7,597.3z"/>
			</g>
			<g>
				<path class="st12" d="M560.1,534.1c0.4,1,0.6,2.2,0.8,3.2c0.4,1.6,0.6,3.2,1,4.6v0.2v0.2l2.4,1.6l9.2,5.6l19.2,11.8
					c1.2,0.8,2.8,0.8,4,0.4c0.4,0,0.6-0.2,1-0.4l5.2-8l25.4-39.2l-3.4-14.4l-28.2-16.2c-1.6-0.8-3.4-0.8-5,0l-27.2,15.8l-1.8,1l0,0
					c0.2,1,0.4,2,0.8,3l0,0v0.2c0,0.4,0.2,0.6,0.4,1c0,0.2,0.2,0.4,0.2,0.6c0,0.2,0.2,0.4,0.2,0.6c0.8,2.2,2,4.2,3.6,6l0,0
					c0,0.4,0.2,0.8,0.2,1.2c0,0.2,0,0.4,0.2,0.8c0,0.2,0.2,0.6,0.2,0.8c0,0.4,0.2,0.8,0.2,1.2l0.6,5.2c0.2,1.8,0.2,3.6,0.4,5.2
					c0,1.4,0,3,0.2,4.4c0.4,1.4,0.8,2.6,1,3.8h-10.8V534.1z"/>
				<path class="st13" d="M625.1,499.7l4.2,2.4c0.8,0.4,1.4,1,1.8,1.8l-6,6.8V499.7L625.1,499.7z"/>
				<path class="st13" d="M562.1,542.1v0.2c0.2,0.8,0.4,1.8,0.4,2.6c0.2,1.6,0.4,3.4,0.6,5l11,6.4l18,10.4c0.8,0.4,1.6,0.6,2.4,0.6
					l3.4-4l-1-1.6l-2.4-3.8c-1.6,1-3.4,1-5,0l-16-9.2l-8.8-5L562.1,542.1z"/>
				<path class="st13" d="M596.9,523.7l-30.2-17.4c0.4,1.4,0.8,2.8,1,4.2c0,0.4,0.2,0.8,0.2,1.2l0,0c0,0.4,0.2,0.8,0.2,1.2
					l26.2,15.2v30l31.6-12.8c1.6-1,2.4-2.6,2.4-4.4l-3.4-33.4L596.9,523.7z"/>
				<path class="st8" d="M557.3,506.3c0.2-1,1.6-3.4,2.4-4c-0.8,0.4-1.4,1-1.6,1.8C557.5,504.7,557.3,505.5,557.3,506.3z"/>
				<path class="st14" d="M622.7,541.9c1.6-0.8,2.4-2.6,2.4-4.4v-30l6-3.4c0.4,0.8,0.6,1.6,0.6,2.4v37.4c0,1.8-1,3.4-2.4,4.4
					l-32.2,18.6c-0.8,0.4-1.6,0.6-2.4,0.6v-9.4L622.7,541.9z"/>
			</g>
		</g>
	</g>
	<g id="Calque_4">
		<g>
			<g>
				<g>
					<g>
						<path class="st6" d="M717.7,574.5c1.2,4,8.4,13.4,12.6,15c0,0-5.8-1-10,0c-0.8,0.2-2-2-3-2c-0.2,0-0.4,0-0.4,0
							c-5.8,0-16.2-5.4-16.6-8.8c0,0,0.6,0,1.8,0c3.6,0,8.6-1.4,12.2-5.2"/>
					</g>
				</g>
			</g>
		</g>
		<g>
			<g>
				<g>
					<g>
						<path class="st6" d="M705.7,562.5c1.2,3.4,5,6.6,9.2,7.8c0,0-2.6,2-6.8,2.8c-0.8,0.2-1.6,0.2-2.6,0.2c-0.2,0-0.4,0-0.4,0
							c-5.8,0-16.2-4.6-16.6-7.4c0,0,0.6,0,1.8,0C693.5,566.1,701.9,565.7,705.7,562.5"/>
					</g>
				</g>
			</g>
		</g>
		<g>
			<g>
				<g>
					<g>
						<path class="st6" d="M699.7,548.5c1.2,3.4,5,6.6,9.2,7.8c0,0-2.6,2-6.8,2.8c-0.8,0.2-1.6,0.2-2.6,0.2c-0.2,0-0.4,0-0.4,0
							c-5.8,0-16.2-4.6-16.6-7.4c0,0,0.6,0,1.8,0c3.6,0,10.6-3.4,14.2-6.6"/>
					</g>
				</g>
			</g>
		</g>
		<g>
			<g>
				<path class="st8" d="M721.1,514.9c-7.6-0.4-14.8,1.6-18.4,8.8c-3.2,6.8-2.8,15-9.6,19.6c-3,2-6.2,3-9.6,4.2
					c-2.8,1-6.6,2-6.4,5.8c0.4,3.4,4.6,6,7.2,7.6c3.2,2,6.8,3.6,10.6,4.8c0-2,0-3.8,0-5.8c-3.2,1-6.4,1.4-9.6,1.4
					c-2.2,0-4,2.6-2.6,4.6c5.4,7.8,13.4,10.8,22.2,13c0.2-2,0.6-4,0.8-5.8c-2.8,0-5.8,0-8.6,0c-3.8,0-3.8,6,0,6c2.8,0,5.8,0,8.6,0
					c3.4,0,4.2-5,0.8-5.8c-7.2-1.8-14.2-4-18.6-10.2c-0.8,1.6-1.8,3-2.6,4.6c3.8,0,7.6-0.4,11.2-1.6c2.8-0.8,2.8-5,0-5.8
					c-3-1-6-2.2-8.8-3.8c-1.4-0.8-2.6-1.8-3.8-2.8c-0.4-0.4-0.8-0.6-1-1c-0.2,0.6-0.2,1.2-0.4,1.8c0.2,0,1.6-0.6,1.8-0.6
					c5.4-1.8,11-3.8,15.2-7.8c4.8-4.6,5.6-10.8,7.6-16.8c0.8-2.6,2.2-5.2,4.6-6.6c2.8-1.6,6.2-1.6,9.4-1.4
					C724.9,521.1,724.9,515.1,721.1,514.9L721.1,514.9z"/>
			</g>
		</g>
	</g>
	<g id="Calque_7">
		<g>
			<g>
				<path class="st6" d="M706.7,569.5L706.7,569.5c-0.2,0-0.4-0.2-0.6-0.2c0.4,0.2,1,0.4,1.4,0.8
					C707.3,569.9,707.1,569.7,706.7,569.5c0.4,0.2,0.4,0.4,0.6,0.4c1-1.6,2-3.4,3-5l0,0c0.2,0.2,0.4,0.2,0.8,0.4
					c-0.6-0.2-1-0.6-1.6-1c0.2,0.2,0.4,0.4,0.6,0.4c-0.4-0.4-1-0.8-1.2-1.2c0.2,0.2,0.4,0.4,0.4,0.6c-0.4-0.4-0.6-0.8-0.8-1.4
					c-0.2-0.4-0.4-0.6-0.8-0.8c-0.2-0.2-0.6-0.4-1-0.6c-0.4-0.2-0.8-0.2-1.2,0c-0.4,0-0.8,0.2-1.2,0.4c-0.6,0.4-1.2,1-1.4,1.8
					c0,0.2,0,0.6-0.2,0.8c0,0.6,0.2,1,0.4,1.6c0.2,0.4,0.4,0.8,0.6,1.2c0.4,0.6,0.8,1.2,1.4,1.6c0.4,0.4,1,1,1.6,1.2
					c0.6,0.4,1.2,0.6,1.8,1c0.2,0,0.6,0,0.8,0.2c0.4,0,0.8,0,1.2-0.2c0.2,0,0.4-0.2,0.6-0.4c0.4-0.2,0.6-0.4,0.8-0.8
					c0.2-0.2,0.2-0.4,0.4-0.8c0-0.2,0-0.6,0.2-0.8c0-0.4,0-0.8-0.2-1.2s-0.4-0.6-0.6-1c-0.4-0.4-1-0.8-1.6-1.2s-1.2-0.6-1.8-0.8
					c-0.4-0.2-0.8-0.2-1.2,0c-0.4,0-0.8,0.2-1.2,0.4s-0.6,0.4-0.8,0.8c-0.2,0.2-0.4,0.6-0.6,1c-0.2,0.8-0.2,1.6,0.4,2.4
					c0.2,0.2,0.4,0.4,0.4,0.6C705.7,569.1,706.1,569.5,706.7,569.5L706.7,569.5z"/>
			</g>
		</g>
	</g>
	<g id="Calque_6">
		<g>
			<g>
				<path class="st8" d="M696.3,545.5c1.2,3.2,3,6,5.6,8.2c1.2,1,2.6,2,4.2,2.8c0.8,0.4,1.6,0.8,2.6,1c0.2,0,0.4,0.2,0.4,0.2
					c0.4,0.2,0.4,0.2,0,0c0.2,0.2,0.2,0.2,0,0c-0.6-0.6-0.6-1.4-0.2-2.2c0.2-0.2,0.2-0.2,0,0s-0.2,0.2-0.4,0.4s-0.6,0.6-0.8,0.8
					c0,0-1,0.8-0.6,0.6c-0.4,0.2-0.6,0.4-1,0.6c-1.4,1-2.2,1.4-4,1.6c0.6,0-0.6,0-0.6,0c-0.2,0-1.2-0.2-0.6,0
					c-0.8-0.2-1.6-0.4-2.4-0.8c-1.8-0.6-3.4-1.2-5.4-1.4c-1.6-0.2-3,1.4-3,3c0,1.8,1.4,2.8,3,3c0,0,0.6,0,0.2,0c-0.4,0,0.4,0,0.4,0
					c0.4,0,0.6,0.2,1,0.2c0.8,0.2,1.6,0.6,2.2,0.8c1.4,0.6,3,1,4.6,1c3.2,0,6.2-1.2,8.8-3c1.2-1,2.4-1.8,3.4-3c1.6-1.8,2-4,0.2-5.8
					c-1-1.2-2.6-1.6-4-2c-0.6-0.2,0.2,0.2-0.4-0.2c-0.2-0.2-0.6-0.2-0.8-0.4c-0.6-0.4-1.2-0.6-1.6-1c-0.2-0.2,0,0,0,0
					c-0.2-0.2-0.4-0.2-0.6-0.4c-0.2-0.2-0.6-0.6-0.8-0.8s-0.4-0.4-0.6-0.8c-0.2-0.2-0.8-0.8-0.4-0.4c-0.4-0.6-0.8-1.2-1.2-1.8
					c-0.2-0.2-0.4-0.6-0.4-0.8c0,0-0.2-0.6-0.2-0.2c0.2,0.4-0.2-0.4-0.2-0.4c-0.6-1.4-2-2.6-3.6-2
					C696.9,542.3,695.7,543.9,696.3,545.5L696.3,545.5z"/>
			</g>
		</g>
		<g>
			<g>
				<path class="st8" d="M706.7,558.9c-1,2-0.8,4.2,0.8,6c1,1.2,2.2,2,3.4,2.8c0.6,0.4,1.2,0.8,1.8,1.2c0.4,0.2,0.6,0.4,1,0.8
					c-0.4-0.4,0,0.2,0.2,0.2c-0.2-0.2-0.4-0.6-0.4-1c0.2-0.8,0.4-1,0-0.6c0.2-0.2,0.2-0.2,0,0l-0.2,0.2c-0.4,0.4-0.8,0.8-1.4,1.2
					c-0.2,0.2-0.2,0.2,0.2,0c-0.2,0-0.2,0.2-0.4,0.2c-0.2,0.2-0.6,0.4-0.8,0.6c-0.4,0.2-1,0.6-1.6,0.8c-0.8,0.4,0.6-0.2-0.2,0
					c-0.4,0.2-0.6,0.2-1,0.4c-0.6,0.2-1.2,0.4-1.6,0.4c0,0-1,0.2-0.6,0.2s-0.4,0-0.6,0c-0.6,0-1.2,0-1.8,0c-0.4,0-0.6,0-1,0
					c0.8,0,0,0-0.2,0c-0.6-0.2-1.2-0.2-1.8-0.4c-1.4-0.4-3.4,0.6-3.6,2c-0.4,1.6,0.4,3.2,2,3.6c5.4,1.8,11.6,0.6,16.2-2.6
					c1.2-1,2.6-2,3.4-3.4c1.2-2,0.8-4.4-0.8-6c-1.2-1.2-2.8-2-4.2-3c-0.4-0.2-0.6-0.4-1-0.8c-0.2-0.2-0.2-0.2,0,0
					c-0.2-0.2-0.2-0.2-0.4-0.4s-0.2-0.2-0.4-0.4c0.2,0.2,0.2,0.2,0,0c0.2,0.4,0.2,0.6,0,1c0.8-1.4,0.4-3.4-1-4.2
					C709.5,557.1,707.5,557.5,706.7,558.9L706.7,558.9z"/>
			</g>
		</g>
		<g>
			<g>
				<path class="st8" d="M693.1,578.7c6.4,7.6,16,15.8,26.8,15c2.8-0.2,5.8-1,8.2-2.6c1.8-1.2,4-3,3.4-5.4c-0.4-1.4-1.6-2-2.8-2.6
					c-1.8-1-3.6-1.8-5.2-3c-3-2-5.4-4.8-6.6-8.2c-1.2-3.6-7-2.2-5.8,1.6c2,6.2,6.8,10.6,12.2,13.6c0.6,0.4,1.4,0.8,2,1
					c0.4,0.2,0.6,0.4,1,0.6c1,0.4,0.2,0.6-0.6-0.8c-0.2-0.6-0.4-1.8-0.4-2s0.4-0.8,0.2-0.4c0.6-0.8,0.2-0.2,0,0
					c-0.2,0-0.2,0.2-0.4,0.2c-0.4,0.4,0.6-0.4,0,0c-0.4,0.2-0.8,0.4-1,0.6c-0.2,0.2-0.4,0.2-0.6,0.4c-0.6,0.4,0.4,0-0.2,0.2
					c-0.4,0.2-1,0.4-1.4,0.4c-0.2,0-0.6,0.2-0.8,0.2s-0.4,0-0.4,0c-0.8,0.2,0.6,0-0.2,0c-3.2,0.4-5.8-0.2-8.8-1.6
					c-5.6-2.6-10.2-7-14-11.8c-1-1.2-3.2-1-4.2,0C691.9,575.7,692.1,577.3,693.1,578.7L693.1,578.7z"/>
			</g>
		</g>
	</g>
	<g id="Calque_8">
		<path class="st8" d="M506.1,568.3c0.6,2.2,0.6,4.8,0.2,7c0,0.2,0,0.4,0,0.4c-0.4-0.2-1-0.4-1.4-0.6c-0.2,0-0.4-0.2-0.6-0.4
			c-1-0.6-2-1.2-2.8-1.8c-2.4-1.6-4.8-3.2-7-5l0,0c-0.2-0.2-0.6-0.4-1-0.6c-0.6-0.4-1.4-0.4-2-0.6c-2-0.2-4,1-5,2.8
			c-0.2,0.6-0.4,1-0.6,1.4c-0.2,0.4-0.4,1-0.6,1.4c-0.4,0.8-0.6,1.8-1,2.8c-0.6,1.8-1,3.8-1.4,5.6c-0.6,3.8-0.6,8.2,0.6,12.4
			c1.2,4.2,4.2,8.2,7.6,10.8c3.4,2.6,7.4,4,11,5c5,1.2,9.8,1.6,14.6,1.6c1.6,0,3.2,0,4.8-0.2c0.8,0,1.6,0,2.4-0.2c0.6,0,1.2,0,2-0.2
			c1,0,1.8-0.2,2.8-0.2c0.2,0,0.4,0,0.6,0c0.4,0,0.8-0.2,1.2-0.2s1-0.2,1.4-0.2c0.2,0,0.6,0,0.8-0.2c0.6,0,1.2-0.2,1.8-0.4
			c0.2,0,0.4,0,0.4,0c0.8-0.2,1.4-0.2,2.2-0.4c0.2,0,0.2,0,0.4,0c0.8-0.2,1.6-0.4,2.4-0.6c0.2,0,0.2,0,0.4-0.2
			c0.8-0.2,1.6-0.4,2.2-0.6c0.2,0,0.4-0.2,0.6-0.2c0.6-0.2,1.2-0.4,2-0.6l0,0h0.2c5.2-2,10.2-5,14.4-8.8c1.6-1.4,3-2.8,4.2-4.4
			c1.4-1.8,2.6-3.6,3.6-5.4c0.8-1.4,1.6-2.8,2.2-4.2c1.6-3.6,2.6-7.2,3.4-10.8c1.4-7.2,1.6-14.6,1-21.6c-0.2-3.6-0.8-7-1.4-10.6
			c-0.4-1.8-0.6-3.4-1.2-5.2c0-0.2-0.2-0.4-0.2-0.8l0,0c-0.4-1.2-0.6-2.4-1-3.8c0-1.4,0-3-0.2-4.4c0-1.8,0-3.6-0.4-5.2l-0.6-5.2
			c0-1-0.4-1.8-0.4-2.8c-0.2-0.4-0.2-0.8-0.2-1.2l0,0c0-0.4-0.2-0.8-0.2-1.2c-0.2-1.4-0.6-2.8-1-4.2c-0.6-2-1.2-4-1.8-6
			c-0.6-1.6-1.2-3.2-1.8-5c-0.2-0.6-0.4-1.4-0.8-2l0,0c0-0.2,0-0.2-0.2-0.4l-1-2.4c-2.8-6.4-6.2-12.4-10.2-18
			c-0.4-0.6-0.8-1.2-1.4-1.8c-0.6-0.8-1.2-1.6-1.8-2.4c-1-1.4-2.2-2.6-3.4-3.8c-2.4-2.4-5-4.8-8-6.6c-0.6-0.4-1.2-0.4-1.8,0
			c-0.8,0.4-1,1.6-0.6,2.4l0,0c3,5,6,9.8,8.8,14.6c0.4,0.6,0.8,1.4,1.2,2c3.2,5.6,6,11.4,8.2,17.4l0.8,2.2c0.2,0.8,0.4,1.6,0.8,2.2
			c0.4,1.6,1,3,1.4,4.6c0.6,2.4,1.4,5,1.8,7.6c0.2,0.6,0.2,1.2,0.4,1.8c0.2,1.6,0.6,3,0.8,4.6l0.6,4.6c0.2,1.6,0.2,3.2,0.4,4.8
			c0,1.6,0.2,3.2,0.2,4.8v0.4c0,0.4,0,0.8,0.2,1.2s0.2,0.8,0.4,1.2l0,0c0.4,1,0.6,2.2,0.8,3.2c0.4,1.6,0.8,3.2,1,4.6
			c0.6,3.2,1,6.4,1.4,9.4c0.6,6.4,0.4,12.6-0.8,18.6c-0.2,1.2-0.6,2.4-0.8,3.6c-1.2,4.6-3.4,9-6.2,12.6c-0.4,0.4-0.6,0.8-1,1.2
			c-0.2,0.2-0.2,0.2-0.4,0.4l-0.4,0.4l0,0c-0.4,0.4-0.8,0.8-1.2,1.2c-1,1-2.2,2-3.4,2.6c-2.4,1.8-5,3-7.8,4.2
			c-1.4,0.4-2.8,1-4.4,1.4c-1.6,0.4-3,0.8-4.4,1l-4.6,0.6l-4.8,0.4c-1.4,0-3,0.2-4.4,0.2s-3,0-4.4,0c-3.4-0.2-6.6-0.4-9.8-1.2
			c-2.8-0.6-5.4-1.8-7.4-3.2c-1-0.8-1.8-1.6-2.4-2.4c-0.4-0.4-0.6-1-0.8-1.4c-0.2-0.6-0.4-1-0.6-1.6c-0.8-2.2-0.8-4.8-0.4-7.6
			c0-0.6,0.2-1.2,0.4-1.8c0.6,0.4,1.2,0.8,1.8,1.4c1.4,1,2.8,1.8,4.2,2.6c1.6,0.8,3,1.6,5.4,2.4c0.8,0.2,1.8,0.4,3.2,0.4l0,0l0,0
			c0.4,0,1,0,1.4-0.2c0.6-0.2,1.2-0.2,1.8-0.6c0.4-0.2,0.6-0.4,1-0.6c0.2-0.2,0.4-0.4,0.8-0.6c0.4-0.4,0.8-0.8,1-1.2s0.4-0.6,0.8-1
			c0.8-1.2,1.2-2.4,1.6-3.4c0.4-1,0.6-2,0.6-3c0.6-3.8,0.4-7.6-0.4-11.2c-0.8-3.6-2.4-7.2-4.8-10.4c-1.2-1.6-2.6-3-4.2-4.2
			c-0.8-0.6-1.6-1.2-2.4-1.6l-1.2-0.6l-1-0.4c-0.6-0.2-1-0.6-1.6-0.8c-1.8-1-3.6-2.2-5-3.6c-2-1.8-4-3.8-5.6-6
			c-7-8.6-11-19.4-11.8-30.6c-0.6-11.4,1-23,2.8-35l0,0c0-0.4-0.2-0.8-0.6-1.2c-0.2,0-0.2-0.2-0.4-0.2c-0.4,0-0.8,0.2-1.2,0.6
			c-6.4,10.6-9.8,23.4-9.4,36.2c0.2,6.4,1.2,13,3.4,19.2c2,6.2,5.2,12.2,9.2,17.4c2,2.6,4.2,5.2,6.6,7.4c2.6,2.4,5.6,4.4,8.4,6
			l1,0.6l0.8,0.4c0.4,0.4,1,0.6,1.4,1c0.2,0.2,0.6,0.4,0.8,0.8c0.4,0.4,1,1,1.4,1.6C504.7,563.9,505.5,565.9,506.1,568.3z
			 M564.3,505.5c0-0.2-0.2-0.4-0.2-0.6c0-0.2-0.2-0.4-0.2-0.6c-0.2-0.4-0.2-0.8-0.4-1.2c0.2,0.4,0.2,0.8,0.4,1.2
			C564.1,504.9,564.3,505.3,564.3,505.5z"/>
		<path class="st8" d="M506.1,568.3c0.6,2.2,0.6,4.8,0.2,7c0,0.2,0,0.4,0,0.4c-0.4-0.2-1-0.4-1.4-0.6c-0.2,0-0.4-0.2-0.6-0.4
			c-1-0.6-2-1.2-2.8-1.8c-2.4-1.6-4.8-3.2-7-5l0,0c-0.2-0.2-0.6-0.4-1-0.6c-0.6-0.4-1.4-0.4-2-0.6c-2-0.2-4,1-5,2.8
			c-0.4,0.6-0.4,1-0.6,1.4c-0.2,0.4-0.4,1-0.6,1.4c-0.4,0.8-0.6,1.8-1,2.8c-0.6,1.8-1,3.8-1.4,5.6c-0.6,3.8-0.6,8.2,0.6,12.4
			c1.2,4.2,4.2,8.2,7.6,10.8c3.4,2.6,7.4,4,11,5c5,1.2,9.8,1.6,14.6,1.6c1.6,0,3.2,0,4.8,0c0.8,0,1.6,0,2.4-0.2c0.6,0,1.2-0.2,2-0.2
			c1,0,1.8-0.2,2.8-0.2c0.2,0,0.4,0,0.4,0c0.4,0,0.8-0.2,1.4-0.2c0.4,0,1-0.2,1.4-0.2c0.2,0,0.6,0,0.8-0.2c0.6,0,1.2-0.2,2-0.2
			c0.2,0,0.4,0,0.4-0.2c0.8-0.2,1.4-0.2,2.2-0.4c0.2,0,0.2,0,0.4,0c0.8-0.2,1.6-0.4,2.4-0.6c0.2,0,0.2,0,0.4-0.2
			c0.8-0.2,1.6-0.4,2.2-0.6c0.2,0,0.4-0.2,0.6-0.2c0.6-0.2,1.4-0.4,2-0.6c0,0,0,0,0.2,0c1.6-0.6,3.2-1.4,4.8-2.2
			c0.4-0.2,1-0.6,1.6-0.8c0.2,0,0.4-0.2,0.4-0.2c0.6-0.4,1.4-0.8,2-1.2s1.2-0.8,1.6-1.2c1.4-1,2.8-2,4-3.2c1.6-1.4,3-2.8,4.2-4.4
			c1.4-1.8,2.6-3.6,3.6-5.4c0.8-1.4,1.6-2.8,2.2-4.2c0.4-0.8,0.6-1.6,1-2.6c0.6-1.6,1-3.2,1.6-4.8c0.4-1.2,0.6-2.2,0.8-3.4
			c1-5.2,1.4-10.6,1.2-15.8c0-2-0.2-3.8-0.4-5.8c0-0.4,0-0.6,0-1c0-0.2,0-0.4,0-0.8c-0.4-3-0.8-5.8-1.4-8.8c0-0.2,0-0.4,0-0.6
			c-0.4-1.6-0.6-3.2-1-4.6c0-0.2-0.2-0.4-0.2-0.8c-0.4-1.2-0.6-2.4-1-3.8c0-1.4,0-3-0.2-4.4c0-1.8,0-3.6-0.4-5.2l-0.6-5.2
			c0-0.4,0-0.8-0.2-1.2c0-0.4-0.2-0.6-0.2-0.8s-0.2-0.4-0.2-0.8c-0.2-0.4-0.2-0.8-0.2-1.2l0,0c0-0.4-0.2-0.8-0.2-1.2
			c-0.2-1.4-0.6-2.8-1-4.2c-0.6-2-1.2-4-1.8-6c-0.2-0.4-0.2-0.8-0.4-1c-0.4-1.2-1-2.6-1.4-3.8c-0.2-0.6-0.4-1.4-0.8-2l0,0
			c0-0.2,0-0.2-0.2-0.4l-1-2.4c-2.8-6.4-6.2-12.4-10.2-18c-0.4-0.6-0.8-1.2-1.4-1.8c-0.6-0.8-1.2-1.6-1.8-2.4
			c-1-1.4-2.2-2.6-3.4-3.8c-2.4-2.4-5-4.8-8-6.6c-0.6-0.4-1.2-0.4-1.8,0c-0.8,0.4-1,1.6-0.6,2.4l0,0c3,5,6,9.8,8.8,14.6
			c0.4,0.6,0.8,1.4,1.2,2c3.2,5.6,6,11.4,8.2,17.4l0.8,2.2c0.2,0.8,0.4,1.6,0.8,2.2c0.4,1.6,1,3,1.4,4.6c0.6,2.4,1.4,5,1.8,7.6
			c0.2,0.6,0.2,1.2,0.4,1.8c0.2,1.6,0.6,3,0.8,4.6l0.6,4.6c0.2,1.6,0.2,3.2,0.4,4.8c0,1.6,0.2,3.2,0.2,4.8v0.4c0,0.4,0,0.8,0.2,1.2
			s0.2,0.8,0.4,1.2c0.4,1,0.6,2.2,0.8,3.2c0.4,1.6,0.6,3.2,1,4.6v0.2v0.2c0.2,0.8,0.4,1.8,0.4,2.6c0.2,1.6,0.4,3.4,0.6,5
			c0,0.4,0.2,1,0.2,1.4c0.6,6.4,0.4,12.6-0.8,18.6l0,0c-0.2,1.2-0.6,2.4-0.8,3.4c-0.2,0.6-0.2,1-0.4,1.6c-1.2,4-3.2,7.8-5.8,11
			c-0.4,0.4-0.6,0.8-1,1.2c-0.2,0.2-0.2,0.2-0.4,0.4l-0.4,0.4l0,0c-0.4,0.4-0.8,0.8-1.2,1.2c-1,1-2.2,2-3.4,2.6
			c-2.4,1.8-5,3-7.8,4.2c-0.2,0-0.4,0.2-0.6,0.2h-0.2c-1.2,0.4-2.4,0.8-3.6,1.2c-1.6,0.4-3,0.8-4.4,1l-4.6,0.6l-4.8,0.4
			c-1.4,0-3,0.2-4.4,0.2s-3,0-4.4,0c-3.4-0.2-6.6-0.4-9.8-1.2c-2.8-0.6-5.4-1.8-7.4-3.2c-1-0.8-1.8-1.6-2.4-2.4
			c-0.4-0.4-0.6-1-0.8-1.4c-0.2-0.6-0.4-1-0.6-1.6c-0.8-2.2-0.8-4.8-0.4-7.6c0-0.6,0.2-1.2,0.4-1.8c0.6,0.4,1.2,0.8,1.8,1.4
			c1.4,1,2.8,1.8,4.2,2.6c1.6,0.8,3,1.6,5.4,2.4c0.8,0.2,1.6,0.4,2.8,0.4c0.2,0,0.4,0,0.4,0c0.4,0,1,0,1.4-0.2
			c0.6-0.2,1.2-0.2,1.8-0.6c0.4-0.2,0.6-0.4,1-0.6c0.2-0.2,0.4-0.4,0.8-0.6c0.4-0.4,0.8-0.8,1-1.2s0.4-0.6,0.8-1
			c0.8-1.2,1.2-2.4,1.6-3.4c0.4-1,0.6-2,0.6-3c0.6-3.8,0.4-7.6-0.4-11.2c-0.8-3.6-2.4-7.2-4.8-10.4c-1.2-1.6-2.6-3-4.2-4.2
			c-0.8-0.6-1.6-1.2-2.4-1.6l-1.2-0.6l-1-0.4c-0.6-0.2-1-0.6-1.6-0.8c-1.8-1-3.6-2.2-5-3.6c-2-1.8-4-3.8-5.6-6
			c-7-8.6-11-19.4-11.8-30.6c-0.6-11.4,1-23,2.8-35l0,0c0-0.4-0.2-0.8-0.6-1.2c-0.2,0-0.2-0.2-0.4-0.2c-0.4,0-0.8,0.2-1.2,0.6
			c-6.4,10.6-9.8,23.4-9.4,36.2c0.2,6.4,1.2,13,3.4,19.2c2,6.2,5.2,12.2,9.2,17.4c2,2.6,4.2,5.2,6.6,7.4c2.6,2.4,5.6,4.4,8.4,6
			l1,0.6l0.8,0.4c0.4,0.4,1,0.6,1.4,1c0.4,0.2,0.6,0.4,0.8,0.8c0.4,0.4,1,1,1.4,1.6C504.7,563.9,505.5,565.9,506.1,568.3z
			 M564.3,505.5c0-0.2-0.2-0.4-0.2-0.6c0-0.2-0.2-0.4-0.2-0.6c-0.2-0.2-0.2-0.6-0.4-1c0,0.4,0.2,0.6,0.4,1
			C564.1,504.9,564.3,505.3,564.3,505.5z"/>
	</g>
</g>
</svg>
