<?xml version="1.0" encoding="utf-8"?>
<!-- Generator: Adobe Illustrator 25.4.1, SVG Export Plug-In . SVG Version: 6.00 Build 0)  -->
<svg version="1.1" id="Calque_1" xmlns="http://www.w3.org/2000/svg" xmlns:xlink="http://www.w3.org/1999/xlink" x="0px" y="0px"
	 viewBox="0 0 650 650" style="enable-background:new 0 0 650 650;" xml:space="preserve">
<style type="text/css">
	.st0{fill:#00A23D;stroke:#013D3D;stroke-width:4.5;stroke-miterlimit:10;}
	.st1{fill:#FFC3AB;}
	.st2{fill:#00A23D;}
	.st3{fill:none;stroke:#013D3D;stroke-width:4.5;stroke-miterlimit:10;}
	.st4{fill:#F5EDF2;}
	.st5{opacity:0.7;}
	.st6{fill:#FFFFFF;}
	.st7{opacity:0.3;}
	.st8{fill:#013D3D;}
	.st9{fill:none;stroke:#000072;stroke-width:7.8335;stroke-linecap:round;stroke-linejoin:round;stroke-miterlimit:10;}
	.st10{opacity:0.29;fill:#FFFFFF;enable-background:new    ;}
	.st11{fill:url(#SVGID_1_);}
	.st12{fill:#F7F9FA;}
	.st13{fill:#DCE6EB;}
	.st14{fill:#B9C3CD;}
</style>
<g id="Calque_9">
</g>
<g id="Calque_5">
</g>
<g id="Calque_3">
</g>
<g>
	<g id="Calque_2_00000118393774962159790100000015255509959819080335_">
		<g>
			<path class="st0" d="M590.4,408.2c0,7.9-3.6,27-36,32.9c-0.6,0.1-1.2,0.1-2,0.1c-4.6,0-9.8-2.4-13.8-4.8
				c-4.1-2.4-6.9-4.8-7.1-5.1c-0.6-0.6-0.9-1.5-0.8-2.2c0.2-0.9,0.9-1.5,1.8-1.7c0.8-0.1,1.3-0.3,2.1-0.3c-0.8-0.6-1.3-1.3-1.8-2.1
				c-9.6,3.6-25.8,6.3-39.9,8.1c-14.7,1.8-27.2,2.7-27.2,2.7l27.2-33l22.3-27c12-13.5,35.2,15.8,36.8,8.2c4.5-10.5,18-6.3,18.2-6.3
				C580.8,380,590.4,394.4,590.4,408.2z"/>
		</g>
		<g>
			<path class="st1" d="M563.4,377.5c4.8-1.2,12,4.5,16.8,9.4c5,4.9,17.7,28.1,2.1,37.9c-0.5-3.8,0.4-7.6,0.4-11.4
				c0.2-7.5-3-15-8.1-20.4c-5.2-5.4-12.5-8.7-20-9.4c-0.4-1.7-2.1-4.8,2.6-4.7"/>
		</g>
		<path class="st2" d="M590.4,408.2c0,7.9-3.6,27-36,32.9c-0.6,0.1-1.2,0.1-2,0.1c-4.6,0-9.8-2.4-13.8-4.8c-4.1-2.4-6.9-4.8-7.1-5.1
			c-0.6-0.6-0.9-1.5-0.8-2.2c0.2-0.9,0.9-1.5,1.8-1.7c0.8-0.1,1.3-0.3,2.1-0.3c-0.8-0.6-1.3-1.3-1.8-2.1c-9.6,3.6-25.8,6.3-39.9,8.1
			V403l22.3-27c12-13.5,35.2,15.8,36.8,8.2c4.5-10.5,18-6.3,18.2-6.3C580.8,380,590.4,394.4,590.4,408.2z"/>
		<path class="st3" d="M532.6,427.6c0.8-0.2,1.3-0.2,2.1-0.3c-0.8-0.6-1.3-1.4-1.8-2.1c-19.5,7.5-67.1,10.8-67.1,10.8l49.5-60
			c12-13.5,35.2,15.8,36.8,8.2c4.5-10.5,18-6.3,18.2-6.3c10.7,1.9,20.2,16.3,20.2,30.1c0,8-3.6,27-36,32.9c-0.6,0.2-1.3,0.2-2,0.2
			l0,0c-9.3,0-20.4-9.3-20.8-9.8c-0.6-0.6-0.9-1.5-0.8-2.2S531.7,427.7,532.6,427.6z"/>
		<g>
			<g>
				<path class="st1" d="M477.7,434c19.4-0.4,38.4-3.8,56.8-9.6c2.7-0.9,1.5-5.2-1.2-4.4c-18,5.9-36.8,9-55.7,9.4
					C474.9,429.7,474.9,434.2,477.7,434L477.7,434z"/>
			</g>
		</g>
		<g>
			<g>
				<path class="st1" d="M484.6,430.1c3.9-6.4,12.4-6.8,19.1-6.8c8.4,0.1,16.6,0.3,25.1,0.4c-0.2-1.5-0.5-3-0.6-4.4
					c-11.7,4.4-24,6.3-36.5,5.7c0.2,1.5,0.4,3,0.6,4.4c7.5-1.4,15-2.7,22.6-2.7c2.8,0,2.8-4.5,0-4.5c-9.6,0-19.3,1.2-28.5,4.2
					c0.6,1.3,1.2,2.7,1.8,4.1c3.4-2.1,7.2-3.2,11.2-3.2c2.9,0,2.9-4.5,0-4.5c-4.8-0.1-9.4,1.2-13.5,3.8c-2.1,1.4-0.8,4.9,1.8,4.1
					c8.9-2.8,18-3.9,27.3-4.1c0-1.5,0-3,0-4.5c-8.1,0-15.9,1.5-23.9,2.9c-2.6,0.4-1.8,4.3,0.6,4.3c12.8,0.6,25.6-1.3,37.6-5.8
					c2.2-0.9,2.1-4.4-0.6-4.4c-9.3-0.1-18.6-0.4-27.9-0.4c-7.7,0.2-15.9,1.9-20.2,8.9C479.1,430.3,483,432.5,484.6,430.1
					L484.6,430.1z"/>
			</g>
		</g>
	</g>
	<g>
		<g>
			<g>
				<g>
					<g>
						<g>
							<g>
								<g>
									<g>
										<g>
											<path class="st2" d="M586.2,220.4c-2.8-93.6-64-110.6-64-110.6c-37.5-48-101.1-19-102.2-18.6l0,0l0,0
												c-44.2-24.2-69.6,19-69.6,19l0,0c-62.1,15.8-78.4,55.1-75.3,80.1c1.5,11.7,7,20.2,14.4,22c0.3,0.2,0.6,0.2,0.9,0.2
												c-6.5,4.7-10.6,17.6-12,22.3c0,0,4.2,8.7,13.5,20.7c11.5,15.2,31,35.6,59.9,51l-0.3-0.2c-2.6-1-18.6-6.9-42.8-8
												c-28.5-1.2-68.4,4.7-111.2,33.5c-6,4-13,6.3-20.2,6.5c-24.3,0.9-78.9-1.2-113.9-33.9c0,0,2.1,67.5,60,114.6
												c25.5,20.7,61.8,37.5,113.5,42.8h1.2c3.3,6.2,8.2,11.7,15.6,15.8c0,0-12.9,47.7,27.3,64.1c-3-13.2,10.4-22.5,10.4-22.5
												c9.1,0.3,15.1,4.2,18.9,9.4c0,0,5.9-16.8,21.2-19.9c3-0.6,6.1,0.2,9.1,2.1c0,0,1.5-2.2,4.2-4.5c1.9-1.8,4.7-3.6,7.8-4.8
												l-0.6-1.8c-4.9-4.5-9.8-5.7-13.9-5.9c-5.5-0.1-9.8,1.5-11.7,0c-3.3-2.6-7.5-11.1-7.5-11.1c3-3,5.9-5.9,8.4-8.7
												c17.4,2.4,33.6,2.4,48.5,0.6c27.4-3.1,50.8-12.3,70.5-24.3c7.1-4.3,13.6-9,19.8-13.9c4.8-3.8,9.1-7.8,13.3-11.7
												c4.4-4.2,8.6-8.6,12.3-12.9c10.1-11.3,18.2-22.7,24.5-32.7c1-1.6,1.9-3.1,2.8-4.8c10.2-16.9,14.8-29.1,14.8-29.1
												S589,314,586.2,220.4z M362.7,267.5c-9.5-15-10.7-30-10.8-32.2c0-0.2,0-0.3,0-0.3c2.1,1.1,4.2,2.1,6.6,3.3
												c0.2,0.2,0.4,0.2,0.6,0.3c0.3,0.2,0.8,0.3,1.1,0.6c1.2,0.6,2.4,1.2,3.8,1.8c0.4,0.3,1.1,0.4,1.5,0.8
												c0.1,0,0.3,0.2,0.4,0.2c1.8,0.9,3.4,1.7,5.2,2.4h0.1c2.9,1.2,5.7,2.4,8.6,3.4C375.1,262,362.7,267.5,362.7,267.5z
												 M391.5,434.5C391.5,434.6,391.5,434.6,391.5,434.5c-0.8,3.2-3,9.6-10.9,12.2c-0.3-0.3-0.8-0.4-1.1-0.8l0,0
												c-7.6-6.6-2.6-18.2-1.6-19.8v-0.2l0,0l0,0l0,0c0.4,0.3,6.4,5.2,10.5,6.8c1.3,0.6,2.6,0.8,3.1,0.3
												C391.6,433,391.6,433.6,391.5,434.5z M426.7,277.3c-11.1-11.7-12.4-21.2-12.4-21.2c0.3,0,0.6,0.2,0.9,0.2
												c10.1,1.3,18.9,1.5,25.5,1.2C438.4,268.1,426.7,277.3,426.7,277.3z"/>
										</g>
									</g>
								</g>
							</g>
							<g>
								<g>
									<g>
										<path class="st2" d="M451.5,478c-2.7,2.4-4.1,5.2-4.6,6.8c-1.2-0.1-1.9-0.1-1.9-0.1c-10.4,6.9-14.1,17.1-14.1,17.1l0,0
											c-13.6,0.9-16.2,17-16.2,17c-38.8-5.4-38.6-44-38.6-44l0,0c27.4-3.1,50.9-12.3,70.5-24.3c0,0-1.3,8.7-5.2,16.5
											C441.3,466.6,450,470,451.5,478z"/>
									</g>
								</g>
							</g>
						</g>
						<g>
							<g>
								<g>
									<g>
										<path class="st4" d="M391.6,433c0,0-0.8,10.4-11.1,13.8c-9.9-7.1-2.7-20.8-2.7-20.8S388.8,434.9,391.6,433z"/>
									</g>
								</g>
							</g>
							<g>
								<g>
									<g>
										<g>
											<g>
												<path class="st4" d="M305.8,566c-7.2-12.3-17.5-6.3-23.7-21.2c-0.4-1-0.8-2.2-1-3.3c-3-13.2,10.4-22.5,10.4-22.5
													c9.1,0.3,15.1,4.2,18.9,9.4c2.1,3,3.5,6.5,4.2,10.2C317.8,554.8,310.2,573.5,305.8,566z"/>
											</g>
										</g>
									</g>
									<g>
										<g>
											<g>
												<path class="st4" d="M351.1,561.7c0,0-9.6-23.7-36.6-22.9c-0.8-3.6-2.1-7.2-4.2-10.2c0,0,5.9-16.8,21.2-19.9
													c3-0.6,6.1,0.2,9.1,2.1c7.2,4.3,14,14.7,15.9,25.9C358.2,545.2,356.8,554.2,351.1,561.7z"/>
											</g>
										</g>
									</g>
									<g>
										<g>
											<g>
												<path class="st4" d="M387,524.9c0,0-21.9-2.1-30.4,11.7c-1.9-11.2-8.7-21.5-15.9-26c0,0,4.7-6.8,12-9.3
													c1.4-0.4,2.9-0.9,4.5-1.1C367.2,499.6,386.2,515.2,387,524.9z"/>
											</g>
										</g>
									</g>
									<g>
										<g>
											<g>
												<path class="st4" d="M491.4,518.5c0,0-15.8-6.5-24.2-4.8c-7.5,1.5-12.9-2.7-13.9-3.6l-0.1,0.1c-3-2.6-6.9-4.9-11.9-6.8
													c-4.1-1.5-7.5-2.1-10.5-1.8l0,0c0,0,3.9-10.1,14.1-17.1c0,0,0.8,0,1.9,0.1c5.6,0.8,21.9,3.6,33.6,15
													C485.2,504.4,489.3,510.5,491.4,518.5z"/>
											</g>
										</g>
									</g>
									<g>
										<g>
											<g>
												<path class="st4" d="M498.7,497.6l-17.6,2.8l-0.8-0.8c-11.7-11.6-28.1-14.4-33.6-15c0.6-1.5,1.9-4.3,4.6-6.8
													c3.2-2.8,8.1-4.9,15.8-3.4C484,478,498.7,497.6,498.7,497.6z"/>
											</g>
										</g>
									</g>
									<g>
										<g>
											<g>
												<path class="st4" d="M463.3,530.5c0,0-12.8-6.9-20.1-7.2c-14.6-0.4-28.7-4.8-28.7-4.8s2.6-16.1,16.2-17
													c3-0.1,6.4,0.3,10.5,1.8c4.9,1.9,8.9,4.2,11.9,6.8C463.8,519.2,463.3,530.5,463.3,530.5z"/>
											</g>
										</g>
									</g>
								</g>
							</g>
						</g>
						<g>
							<g>
								<g>
									<path class="st4" d="M491.4,518.5c0,0-15.8-6.5-24.2-4.8c-7.5,1.5-12.9-2.7-13.9-3.6l-0.1,0.1c-3-2.6-6.9-4.9-11.9-6.8
										c-4.1-1.5-7.5-2.1-10.5-1.8l0,0c0,0,3.9-10.1,14.1-17.1c0,0,0.8,0,1.9,0.1c5.6,0.8,21.9,3.6,33.6,15
										C485.2,504.4,489.3,510.5,491.4,518.5z"/>
								</g>
							</g>
						</g>
						<g>
							<g>
								<g>
									<g>
										<path class="st1" d="M238.2,461.9H237c-51.8-5.2-88.1-22.1-113.6-42.8c20,8.4,58.2,19.7,109.2,11.2
											C232.8,430.6,231.4,448.7,238.2,461.9z"/>
									</g>
								</g>
							</g>
							<g>
								<g>
									<g>
										<path class="st1" d="M519.6,374c-0.9,1.5-1.9,3.1-2.8,4.8c-8.7,13.9-20.9,30.3-36.9,45.6c-4.2,4.1-8.7,7.9-13.3,11.7
											c-6.2,4.9-12.8,9.6-19.8,13.9c-19.7,12-43.1,21.1-70.5,24.3c-15,1.6-31.1,1.6-48.5-0.6c0,0,33-30.9,20.5-70.7
											c0,0,13.8-0.1,21.4-8.8c0,0,11.2,16.4,19.7,20.6c8.1,4.2,2.8,18.6,2.4,19.7l0,0l-3-1.9l-10.5-6.8l0,0l0,0l0,0v0.1
											c-0.8,1.8-5.2,13.2,1.7,19.8l0,0c3,2.9,8.1,4.8,16.6,4.8c30-0.3,48.3-15.3,36.9-56.4c0,0-2.4-27.1-9.9-37.5
											c0,0,44.6-46.3,77.9-29.1C514.5,334.6,519,353.6,519.6,374z"/>
									</g>
								</g>
							</g>
						</g>
						<g>
							<g>
								<g>
									<path class="st1" d="M351.7,304.6l-0.3-0.1c-2.6-1-18.6-6.9-42.8-8c-28.5-1.2-68.4,4.7-111.2,33.5c-6,4-13,6.3-20.2,6.4
										c-24.3,0.9-78.9-1.2-113.9-33.9c0,0,14.1,44.7,115,44.2c11.8,0,23.4-3.4,33.3-9.8c2.4-1.5,5.1-3.1,8.2-4.8
										c1.3-0.8,2.8-0.9,4.3-0.6c6.8,1.3,20.1-0.5,34.8-4.8c16.5-4.9,29.7-11.8,33.2-16.9c1-1.5,2.7-2.4,4.5-2.7
										C313,304.7,331.3,303.7,351.7,304.6z"/>
								</g>
							</g>
						</g>
						<g class="st5">
							<g>
								<g>
									<path class="st1" d="M327.4,375.7c0,0,32.9,48.4-8.4,106.9C319,482.6,386.4,422.2,327.4,375.7z"/>
								</g>
							</g>
						</g>
						<g class="st5">
							<g>
								<g>
									<path class="st6" d="M397.8,450.5c-0.8-1.2-1.6-2.4-2.4-3.8c2.1,0,4.3,0,6.6-0.1l3.6-0.3l3.4-0.4c1.2-0.2,2.2-0.4,3.3-0.8
										s2.1-0.8,3.3-1.1c2.1-0.9,4.1-1.8,5.8-3.2c0.9-0.6,1.7-1.3,2.6-1.9c0.4-0.3,0.8-0.8,1.2-1.2c0.3-0.4,0.8-0.8,1.1-1.2
										c2.7-3.3,4.4-7.5,5.2-12c0.9-4.5,1.1-9.3,0.6-13.9c-0.2-2.4-0.6-4.8-1.1-7.1c-0.3-1.2-0.4-2.4-0.8-3.4
										c-0.3-1.2-0.6-2.4-0.9-3.3c-0.1-0.3-0.1-0.6-0.1-0.9v-0.3c0-1.2-0.2-2.4-0.2-3.6s0-2.4-0.3-3.6l-0.4-3.4
										c-0.1-1.2-0.4-2.2-0.6-3.4c-0.3-2.4-1.1-4.6-1.7-6.9c-0.3-1.2-0.8-2.2-1.1-3.4c-0.1-0.6-0.3-1.2-0.6-1.7l-0.6-1.6
										c-1.6-4.5-3.8-8.9-6.1-13.1c-0.3-0.4-0.6-1.1-0.9-1.5c1.1-0.6,1.9-1.4,3-1.9c13.7,19.5,13.4,43.2,13.4,43.2
										C445.6,444.5,416.5,451.1,397.8,450.5z"/>
								</g>
							</g>
						</g>
						<g>
							<g>
								<g>
									<path class="st1" d="M534.4,344.9c83.6-150.3,5-209.6-18.8-223.2c-3.7-2.2-7.2-5.1-9.9-8.6c-24.3-30.1-84.6-22-85.8-21.9
										l0,0l0,0c1.1-0.5,64.7-29.4,102.2,18.6c0,0,61.2,17.1,64,110.6C589,314,534.4,344.9,534.4,344.9z"/>
								</g>
							</g>
						</g>
						<g>
							<g>
								<g class="st7">
									<g>
										<g>
											<path class="st8" d="M400,470c-7.6,1.9-15.6,3.4-24,4.5l0,0c0,0-0.3,38.7,38.6,44c0,0,2.4-14.7,14.6-16.8
												C409.6,496,402.6,480.5,400,470z"/>
										</g>
									</g>
								</g>
								<g>
									<g class="st7">
										<g>
											<g>
												<path class="st8" d="M340.6,510.8c-3-1.8-6.1-2.7-9.1-2.1c-15.3,3.2-21.2,19.9-21.2,19.9c-3.6-5.4-9.6-9.2-18.9-9.4
													c0,0-13.4,9.3-10.4,22.5c-40.2-16.2-27.3-64.1-27.3-64.1c-7.5-4.1-12.4-9.6-15.6-15.8H237
													c-51.8-5.2-88.1-22.1-113.6-42.8c-57.9-47.1-60-114.6-60-114.6s17.7,99.9,143.9,130.7c5.7,1.4,11.7-1.1,14.7-6.1
													c3.8-6.2,9.2-13.7,14.1-15.6c0,0,1.7,39.9,23.9,55.5c5.2,3.8,8.1,9.9,7.3,16.4c-0.8,6.8-0.5,15.3,3.9,23.2
													c2.2,3.9,7.5,4.8,10.8,1.6c1.5-1.3,3.1-2.8,5-3.9c3-1.9,9.1,1.3,13.6,4.6c3.2,2.3,7.4,1.5,9.6-1.6
													c3.6-4.9,10.3-10.5,20.8-8.4C331.3,501.2,341.4,503.8,340.6,510.8z"/>
											</g>
										</g>
									</g>
									<g class="st7">
										<g>
											<g>
												<path class="st8" d="M492.1,411.5c-3.9,4.4-7.9,8.6-12.3,12.9c-4.2,4.1-8.7,7.9-13.4,11.7c-6.1,4.9-12.8,9.6-19.8,13.9
													c-19.6,12-43.1,21.1-70.5,24.3c-15,1.6-31.1,1.6-48.5-0.6c0,0,52.5-53.1,0-98.2c1,0.4,39.1,16.5,33.5,67.5
													C357.1,478.4,439.6,453.7,492.1,411.5z"/>
											</g>
										</g>
									</g>
									<g class="st7">
										<g>
											<g>
												<path class="st8" d="M370,350.6c0,0-24.9,42.4,5.4,63c0,0,1.1,2.1-1.9,6.6c-2.9,4.5-5.2,24.6,10.1,28.4
													c0,0,18.9-13.8,8.1-31.4c0,0-5.2-6.1-9.9-7.3C377.2,408.7,355,382.9,370,350.6z"/>
											</g>
										</g>
									</g>
									<g class="st7">
										<g>
											<g>
												<path class="st8" d="M400.8,339.4c-30-1.1-64.7-10.3-92-40.8c24.2,0.9,40.2,6.9,42.8,8l0.1,0.1h0.2
													c0,0,28.4,13.5,41.6,16.1l9.3,2.2C411.3,327.1,409.5,339.7,400.8,339.4z"/>
											</g>
										</g>
									</g>
									<g class="st7">
										<g>
											<g>
												<path class="st8" d="M472.5,253.3c-11.7,0.9-21.3,1.2-27.1,1.3c-21.8-3.9-76.2-15.5-101.3-34.8
													c-31.6-24.4-57.3-12.6-57.9-29.2c-0.8-16.8-5.4-52.2,78.4-83.3l-14.2,3.2c-62.1,15.8-78.5,55.1-75.3,80.1
													c1.5,11.7,7,20.2,14.4,22.1l0.9,0.2c-6.5,4.7-10.7,17.5-12,22.3c0,0,4.2,8.7,13.5,20.7c0-9.2,2.1-18.9,10.5-20.7
													c12.9-3,29.5,7.3,35.9,11.7c1.6,1.1,2.8,2.6,3.9,4.2c2.9,5.1,9.8,17.2,15.3,23.4c1.8,2,4.5,2.7,7.1,1.8
													c4.1-1.4,10.3-4.5,15.8-11.1c2.4-3,6.4-4.2,10.2-3.1c4.2,1.2,9.6,2.8,14.2,3.9c2.2,0.6,4.3,2,5.7,3.9
													c2.6,3.8,6.6,11.8,12.6,16.3c1.8,1.4,4.2,1.5,6.2,0.6c3.4-1.8,9.4-5.6,15-12.9c4.1-5.4,9.9-9.1,16.5-10.3
													c4.5-0.9,9-1.8,13.3-3C478,259.4,477,253,472.5,253.3z M290.5,212.6c0.1,0,0.1,0,0.3,0
													C290.7,212.6,290.5,212.6,290.5,212.6z"/>
											</g>
										</g>
									</g>
									<g class="st7">
										<g>
											<g>
												<circle class="st8" cx="307.5" cy="152.3" r="7.5"/>
											</g>
										</g>
									</g>
									<g class="st7">
										<g>
											<g>
												<circle class="st8" cx="391" cy="169.6" r="8.1"/>
											</g>
										</g>
									</g>
									<g class="st7">
										<g>
											<g>
												<path class="st8" d="M446.7,170.8c0,0,34.2-15.2,47.1,10.4c0,0-0.6-27.2-19.2-27.2C456,154,446.7,170.8,446.7,170.8z"/>
											</g>
										</g>
									</g>
								</g>
							</g>
							<g>
								<g class="st7">
									<g>
										<g>
											<path class="st8" d="M291.7,540.7c-0.5-1-0.8-2.2-1.1-3.3c-1.6-7.5,2-13.8,5.4-17.7c-1.4-0.3-2.9-0.4-4.5-0.4
												c0,0-13.4,9.3-10.4,22.5c0.3,1,0.6,2.1,1.1,3.3c6.3,14.8,16.5,8.8,23.7,21.2c2.4,4.2,5.9,0.3,7.8-6.8
												C306.6,550.3,297.4,554.3,291.7,540.7z"/>
										</g>
									</g>
								</g>
								<g class="st7">
									<g>
										<g>
											<path class="st8" d="M319.8,524.6c-0.8-1.8-1.5-3.4-2.5-4.9c0,0,0.8-2,2.2-4.7c-6.5,6-9.2,13.5-9.2,13.5
												c2.1,3,3.5,6.5,4.2,10.2c27-0.8,36.6,22.9,36.6,22.9c2.9-3.6,4.5-7.7,5.4-11.8c-3.3-5.7-12.3-18.2-29.9-19.8
												C323.5,529.7,321,527.6,319.8,524.6z"/>
										</g>
									</g>
								</g>
								<g>
									<g class="st7">
										<g>
											<g>
												<path class="st8" d="M349.3,506.3c0,0,1.8-2.7,5.1-5.4c-0.6,0.2-1.2,0.3-1.8,0.4c-7.5,2.7-12,9.3-12,9.3
													c7.2,4.3,14,14.7,15.9,26c2.1-3.3,4.9-5.7,7.9-7.5C362.1,519.2,355.9,510.2,349.3,506.3z"/>
											</g>
										</g>
									</g>
								</g>
								<g class="st7">
									<g>
										<g>
											<path class="st8" d="M457.8,518.3c-14.6-0.5-28.6-4.8-28.6-4.8s1.1-6.7,5.6-11.7c-1.4-0.2-2.7-0.3-4.1-0.2
												c-13.7,0.9-16.2,17-16.2,17s14.1,4.3,28.6,4.8c7.5,0.3,20.1,7.2,20.1,7.2s0.1-5.6-3.3-12
												C459.3,518.5,458.5,518.3,457.8,518.3z"/>
										</g>
									</g>
								</g>
								<g class="st7">
									<g>
										<g>
											<path class="st8" d="M471.4,505c-7.5,1.5-12.9-2.7-13.9-3.6l-0.2,0.1c-3-2.6-6.9-4.9-11.8-6.8c-3.6-1.3-6.6-1.9-9.3-1.9
												c-3.8,4.8-5.2,8.7-5.2,8.7l0,0c3-0.1,6.4,0.3,10.5,1.8c4.9,1.9,8.8,4.2,11.8,6.8l0.2-0.1c1.1,0.9,6.4,5.1,13.9,3.6
												c8.4-1.6,24.1,4.8,24.1,4.8c-1.2-4.7-3.1-8.6-5.4-12C481.2,505.3,475.3,504.1,471.4,505z"/>
										</g>
									</g>
								</g>
								<g class="st7">
									<g>
										<g>
											<path class="st8" d="M486.1,493.3l-2.6,0.2c-11.1-10.9-26.4-14.1-32.7-15c-2.2,2.2-3.6,4.8-4.1,6.3
												c5.6,0.8,21.9,3.6,33.6,15l0.8,0.8l17.6-2.9c0,0-1.6-2.2-4.6-5.4L486.1,493.3z"/>
										</g>
									</g>
								</g>
							</g>
						</g>
						<g>
							<g>
								<g>
									<g>
										<g>
											<g>
												<path class="st6" d="M290.4,212.6c-6.4,4.7-10.6,17.6-12,22.3c-0.3,1.1-0.4,1.7-0.4,1.7c-13.5-18.3-2.9-46.2-2.9-46.2
													C276.6,202.6,282.7,211.4,290.4,212.6z"/>
											</g>
										</g>
									</g>
									<g>
										<g>
											<g>
												<path class="st6" d="M379.6,247.7c-4.7,14.3-16.9,19.8-16.9,19.8c-10.2-16.1-10.8-32-10.8-32.6c4.2,2.1,8.7,4.3,14,6.9
													C370.5,244.1,375.1,245.9,379.6,247.7z"/>
											</g>
										</g>
									</g>
									<g>
										<g>
											<g>
												<path class="st6" d="M440.7,257.5c-2.1,10.6-13.9,19.8-13.9,19.8c-11.1-11.7-12.4-21.2-12.4-21.2
													C424.6,257.5,433.8,257.8,440.7,257.5z"/>
											</g>
										</g>
									</g>
								</g>
								<g>
									<g>
										<g class="st7">
											<g>
												<g>
													<path class="st8" d="M282.7,208.4c-4.7,4.7-8,13.5-9.6,18.6c1,3.3,2.5,6.6,4.8,9.6c0,0,0.2-0.6,0.5-1.7
														c1.4-4.7,5.5-17.7,12-22.3C287.5,212.2,285,210.7,282.7,208.4z"/>
												</g>
											</g>
										</g>
									</g>
									<g class="st7">
										<g>
											<g>
												<path class="st8" d="M371.5,244.4c-3.3,8.2-9.3,13.2-12.9,15.7c1.2,2.4,2.6,5,4.1,7.4c0,0,12.4-5.5,16.9-19.8
													C376.9,246.7,374.2,245.6,371.5,244.4z"/>
											</g>
										</g>
									</g>
									<g class="st7">
										<g>
											<g>
												<path class="st8" d="M432.4,257.5c-2.1,6.1-7.1,11.5-10.2,14.5c1.2,1.6,2.7,3.5,4.3,5.2c0,0,11.7-9.2,13.9-19.8
													C438.1,257.6,435.4,257.6,432.4,257.5z"/>
											</g>
										</g>
									</g>
								</g>
							</g>
							<g>
								<g class="st5">
									<g>
										<g>
											<path class="st6" d="M314.4,538.7c-0.8-3.6-2.1-7.2-4.2-10.2c-3.6-5.4-9.6-9.2-18.9-9.4c0,0-1.8,1.2-3.9,3.4
												c7.8,0.9,13.2,4.5,16.5,9.3c2.1,3,3.4,6.4,4.2,10.2c1.8,9,0.3,18.8-2.1,24.3C310.5,572.9,317.7,554.5,314.4,538.7z"/>
										</g>
									</g>
								</g>
								<g class="st5">
									<g>
										<g>
											<path class="st6" d="M356.5,536.6c-1.9-11.2-8.7-21.4-15.9-25.9c-3-1.8-6.1-2.7-9.1-2.1c-5.9,1.2-10.4,4.4-13.7,7.8
												c2.1-1.2,4.7-2.2,7.4-2.8c3-0.6,6.1,0.2,9.1,2.1c7.2,4.3,13.9,14.7,15.9,26c0.9,5.5,0.8,11.2-1.1,16.5
												c1.2,2.1,1.8,3.4,1.8,3.4C356.8,554.2,358.2,545.2,356.5,536.6z"/>
										</g>
									</g>
								</g>
								<g class="st5">
									<g>
										<g>
											<path class="st6" d="M357.1,500.5c-1.7,0.2-3.2,0.4-4.5,1.1c-7.5,2.7-12,9.3-12,9.3c0.3,0.2,0.8,0.4,1.1,0.6
												c1.8-1.5,4.2-3,6.8-3.9c1.4-0.4,2.9-0.9,4.5-1.1c8.1-0.8,22.1,9.3,27.5,18.3c3.9-0.3,6.4,0,6.4,0
												C386.2,515.2,367.2,499.6,357.1,500.5z"/>
										</g>
									</g>
								</g>
								<g class="st5">
									<g>
										<g>
											<path class="st6" d="M453.1,510.2c-3-2.6-6.9-4.9-11.9-6.8c-4.1-1.5-7.5-2.1-10.5-1.8c-8.2,0.6-12.4,6.8-14.6,11.4
												c2.4-2.7,5.9-4.9,10.7-5.4c3-0.1,6.4,0.3,10.5,1.8c4.9,1.9,8.8,4.2,11.8,6.8c4.4,3.8,6.9,7.8,8.4,11.4
												c3.3,1.5,5.7,2.9,5.7,2.9S463.8,519.2,453.1,510.2z"/>
										</g>
									</g>
								</g>
								<g class="st5">
									<g>
										<g>
											<path class="st6" d="M441.1,490.6c0,0,0.8,0,1.9,0.1c5.6,0.8,21.9,3.6,33.6,15c2.9,2.9,5.6,6.2,7.7,10.2
												c4.2,1.2,7.2,2.6,7.2,2.6c-2.2-8-6.3-14.1-10.9-18.8c-11.7-11.6-28.1-14.4-33.6-15c-1.2-0.1-1.9-0.1-1.9-0.1
												c-7.8,5.2-11.8,12.3-13.3,15.4C433.8,496.9,436.9,493.4,441.1,490.6z"/>
										</g>
									</g>
								</g>
								<g class="st5">
									<g>
										<g>
											<path class="st6" d="M448.5,483.4c3.2-2.9,8.1-4.9,15.8-3.4c11.7,2.4,22.4,12.8,27.8,18.8l6.8-1.1
												c0,0-14.7-19.7-31.5-23.1c-7.6-1.6-12.6,0.6-15.8,3.4c-2.7,2.4-4.1,5.2-4.6,6.8c0.1,0,0.1,0,0.3,0
												C447.6,484.3,448,483.8,448.5,483.4z"/>
										</g>
									</g>
								</g>
							</g>
						</g>
						<g>
							<g>
								<g>
									<g>
										<circle class="st1" cx="262.8" cy="355" r="18.8"/>
									</g>
								</g>
							</g>
							<g>
								<g>
									<g>
										<ellipse class="st1" cx="531.2" cy="234.9" rx="18.8" ry="18.8"/>
									</g>
								</g>
							</g>
							<g>
								<g>
									<g>
										<ellipse class="st1" cx="293.3" cy="341.6" rx="10.3" ry="10.3"/>
									</g>
								</g>
							</g>
							<g>
								<g>
									<g>
										<circle class="st1" cx="541.6" cy="197.2" r="10.3"/>
									</g>
								</g>
							</g>
							<g>
								<g>
									<g>
										<circle class="st1" cx="144.1" cy="365.3" r="10.3"/>
									</g>
								</g>
							</g>
							<g>
								<g>
									<g>
										<ellipse class="st1" cx="293.4" cy="367" rx="6.9" ry="6.9"/>
									</g>
								</g>
							</g>
							<g>
								<g>
									<g>
										<ellipse class="st1" cx="319" cy="455.5" rx="6.9" ry="6.9"/>
									</g>
								</g>
							</g>
							<g>
								<g>
									<g>
										<circle class="st1" cx="228.7" cy="346.3" r="4.3"/>
									</g>
								</g>
							</g>
							<g>
								<g>
									<g>
										<circle class="st1" cx="158.8" cy="373.9" r="4.3"/>
									</g>
								</g>
							</g>
							<g>
								<g>
									<g>
										<circle class="st1" cx="313.6" cy="470" r="4.3"/>
									</g>
								</g>
							</g>
							<g>
								<g>
									<g>
										<circle class="st1" cx="409.8" cy="369.5" r="4.3"/>
									</g>
								</g>
							</g>
							<g>
								<g>
									<g>
										<circle class="st1" cx="327.4" cy="267.4" r="4.3"/>
									</g>
								</g>
							</g>
						</g>
					</g>
					<g>
						<g>
							<g>
								<g>
									<g>
										<path class="st8" d="M454.6,257c-3.4,1.3-6.9,2.1-10.5,2.8c-1.8,0.3-3.6,0.5-5.4,0.8c-1.8,0.2-3.6,0.3-5.4,0.5
											c-7.2,0.3-14.4-0.3-21.4-1.2l-5.4-0.8c-1.8-0.3-3.6-0.8-5.2-1l-2.7-0.5c-0.9-0.1-1.8-0.4-2.7-0.6l-5.2-1.3
											c-1.8-0.5-3.4-1.1-5.2-1.5l-2.6-0.8c-0.9-0.3-1.6-0.6-2.6-0.9l-5.1-1.8l-2.6-0.9l-2.6-1c-3.3-1.5-6.6-2.8-9.8-4.3
											c-3.2-1.5-6.3-3-9.6-4.7c-6.3-3.2-12.6-6.5-18.9-9.6c-6.1-3.3-12.3-6.6-18.4-8.8c-3-1.1-6.2-2.1-9.3-2.6
											c-3.1-0.4-6.4-0.8-9.9-0.9l-2.5-0.2c-0.6,0-1.2,0-1.8-0.2c-0.6-0.2-1.2-0.2-1.8-0.3c-2.4-0.6-4.5-1.7-6.3-3
											c-3.6-2.7-6-6.3-7.8-10.1c-3.5-7.3-4.2-15.2-3.8-22.8c0.4-7.7,2.4-15,5.5-21.9c3-6.9,7.2-13.2,12.1-18.8
											c9.9-11.1,22.5-19.2,35.7-25c6.6-2.9,13.5-5.3,20.4-7.2c1.6-0.5,3.4-0.9,5.2-1.3s3.4-0.8,5.2-0.9c1.8-0.1,3.6-0.3,5.4-0.1
											c1.8,0.1,3.8,0.3,5.6,0.9c0.3,0,0.4,0.3,0.3,0.6c0,0.1-0.2,0.1-0.2,0.3l0,0c-1.6,1.2-3.1,2-4.8,2.7
											c-1.6,0.8-3.3,1.5-4.9,2c-3.3,1.2-6.6,2-9.9,3c-6.6,2-13,4.4-19.2,7.2c-12.3,5.7-23.9,13.5-32.4,23.6
											c-4.3,5.1-8,10.7-10.5,16.7s-4.2,12.5-4.6,18.9c-0.3,6.4,0.4,12.9,3.1,18.3c1.2,2.7,3,5.1,5,6.5c1,0.8,2,1.2,3,1.5
											c0.3,0,0.5,0.2,0.8,0.2h0.9l2.7,0.2c3.6,0.2,7.4,0.4,11.1,1s7.5,1.7,10.9,3c7.1,2.7,13.2,6.2,19.5,9.5
											c6.2,3.3,12.4,6.6,18.6,9.8c3.2,1.7,6.3,3.2,9.3,4.7c3.2,1.7,6.3,3,9.3,4.3l2.4,1l2.4,0.9l4.8,1.8
											c0.8,0.3,1.7,0.6,2.4,0.9l2.4,0.8c1.7,0.4,3.3,1,4.9,1.5l4.9,1.3c0.9,0.2,1.7,0.4,2.6,0.6l2.6,0.6c1.7,0.3,3.3,0.8,5.1,1
											l5.1,0.8c13.7,2,27.3,2.6,41.2,3.3l0,0c0.4,0,0.9,0.4,0.9,1.1C455.2,256.7,455.1,257,454.6,257z"/>
									</g>
								</g>
							</g>
							<g>
								<g>
									<g>
										<path class="st8" d="M354.7,479.6c-9.4,0-19.1-0.6-28.8-1.9l1-7.8c61.2,8.4,114.2-10.1,157.1-55.2
											c32.3-33.9,46.5-70.8,46.6-71.1c0.3-0.9,0.9-1.5,1.8-1.9c0.2,0,13.3-7.8,25.9-26.4c11.7-17.2,25.4-47.5,23.9-94.5
											c-1.2-37-12.2-67.2-31.7-87.5c-14.7-15.1-29.4-19.5-29.6-19.5c-0.8-0.3-1.5-0.8-1.9-1.4c-14.7-18.9-35.6-27.6-61.7-25.9
											c-19.9,1.4-35.6,8.4-35.7,8.5c-1.1,0.5-2.4,0.5-3.4-0.1C378,73,355,110.8,354,112.4l-6.8-3.9c0.3-0.5,27.2-45,73.1-21.5
											c4.9-2,19.1-7.2,36.4-8.4c28.2-2,51.6,7.8,67.8,27.9c4.2,1.4,17.7,6.8,31.4,20.9c14.7,15,32.7,43.3,34.2,93
											c1.5,49.4-13,81.5-25.5,99.6c-11.5,16.8-23.2,25.2-27,27.6c-2.8,6.9-17.4,40.5-47.6,72.3c-19.6,20.6-41.7,36.1-65.7,46.2
											C402.4,475.1,379.2,479.6,354.7,479.6z"/>
									</g>
								</g>
							</g>
							<g>
								<g>
									<g>
										<path class="st8" d="M277.9,240.5c-1.2,0-2.4-0.6-3.1-1.7c-14.5-19.8-3.8-48.8-3.3-50l7.3,2.8l-3.6-1.3l3.6,1.3
											c-0.1,0.2-7,19.1-1.8,34.7c2.4-6,6-13.5,11.1-17.1l4.7,6.3c-5.5,3.9-9.8,17.1-11,21.8c-0.3,1.5-1.5,2.5-3,2.8
											C278.4,240.5,278.2,240.5,277.9,240.5z"/>
									</g>
								</g>
							</g>
							<g>
								<g>
									<g>
										<path class="st8" d="M362.7,271.4c-1.4,0-2.6-0.6-3.3-1.8c-10.8-16.9-11.4-33.8-11.4-34.5c0-2.1,1.6-3.9,3.8-4h0.1
											c2.1,0,3.9,1.7,3.9,3.8c0,0.2,0.6,13.3,8.2,27.3c3.4-2.4,9.3-7.3,11.9-15.6c0.6-2.1,2.8-3.2,4.9-2.5
											c2.1,0.6,3.1,2.8,2.6,4.9c-5.1,15.8-18.6,21.9-19.1,22.2C363.7,271.3,363.3,271.4,362.7,271.4z"/>
									</g>
								</g>
							</g>
							<g>
								<g>
									<g>
										<path class="st8" d="M426.7,281.2c-1.1,0-2.1-0.4-2.8-1.2c-11.7-12.5-13.5-22.8-13.5-23.2l7.8-1.2c0,0.2,1.3,7,9,16.2
											c3.3-3.2,8.6-9,9.8-15.2l7.6,1.5c-2.4,11.9-14.8,21.8-15.3,22.2C428.4,280.9,427.5,281.2,426.7,281.2z"/>
									</g>
								</g>
							</g>
							<g>
								<g>
									<g>
										<path class="st8" d="M281.5,233.5c0.8,1.2,1.5,2.6,2.2,3.8c0.8,1.2,1.6,2.6,2.5,3.8c1.7,2.6,3.5,5,5.2,7.3
											c1.8,2.4,3.8,4.8,5.5,7.2c2,2.4,3.9,4.6,5.9,6.9c4,4.5,8.2,8.9,12.8,12.9l3.3,3c1,1,2.2,2,3.5,3s2.2,2,3.5,2.8
											c1.2,0.9,2.4,2,3.6,2.9c9.6,7.4,19.8,14,30.6,19.4l4.1,1.9c0.8,0.3,1.3,0.8,2.1,1.1l2.1,0.9l4.1,2l4.2,2
											c2.7,1.3,5.6,2.5,8.4,3.9c2.9,1.4,5.7,2.5,8.4,4l0,0c0.1,0.2,0.1,0.3,0.1,0.5c0,0.2-0.1,0.2-0.3,0.2
											c-6.3-0.3-12.6-1.2-18.8-2.9c-6.1-1.5-12-3.9-17.8-6.5c-11.6-5.2-22.5-11.8-32.6-19.5c-5.1-3.8-9.9-8-14.5-12.3
											c-4.7-4.4-9-8.9-13.2-13.8c-4.2-4.8-8-9.8-11.5-15c-1.8-2.5-3.5-5.2-5.1-8.1c-0.8-1.3-1.6-2.7-2.4-4.2s-1.5-2.8-2.2-4.3
											c-0.8-1.8,0-3.8,1.6-4.5C278.7,231.2,280.5,231.8,281.5,233.5L281.5,233.5z"/>
									</g>
								</g>
							</g>
							<g>
								<g>
									<g>
										<path class="st8" d="M237,465.8c-0.2,0-0.3,0-0.4,0c-39.3-4.1-72.9-14.9-100.2-32.4c-21.9-14.1-39.8-32.4-53-54.6
											c-22.5-37.6-23.9-72.6-23.9-74.1c0-1.7,0.9-3,2.2-3.8c1.5-0.6,3.2-0.3,4.4,0.8c34.3,32.1,89.1,33.8,111,32.8
											c6.6-0.3,12.9-2.2,18.3-5.8c43.5-29.4,84-34.8,110.4-34.2c28.7,0.6,46.8,8.1,47.7,8.5c2,0.9,3,3.2,2.1,5.1
											c-0.9,2-3.2,3-5.1,2.1l0,0c-0.1,0-17.8-7.3-45.1-7.9c-25-0.5-63.8,4.8-105.5,32.9c-6.6,4.3-14.2,6.9-22.3,7.2
											c-21.5,0.8-72.8-0.6-109.1-28.5c1.8,12.8,7.2,36.6,21.9,61.2c28.9,48,78.4,75.9,147.2,82.9c2.1,0.2,3.8,2.1,3.5,4.4
											C240.7,464.3,239.1,465.8,237,465.8z"/>
									</g>
								</g>
							</g>
							<g>
								<g>
									<g>
										<path class="st8" d="M236.4,413.6c-0.9,6-1.3,11.8-1.5,17.7c0,3,0.2,5.8,0.5,8.7c0.3,2.8,0.8,5.7,1.3,8.6
											c1.3,5.6,3.6,10.6,6.8,15c3.2,4.3,7.5,7.8,12.2,10.5l0,0h0.2c1.5,0.9,2.3,2.7,1.8,4.3c-0.2,0.6-0.3,1.4-0.5,2.1
											c-0.1,0.8-0.3,1.5-0.5,2.2c-0.3,1.5-0.4,3-0.6,4.5c-0.3,3-0.5,6-0.3,9c0.2,6,1.1,12,3.2,17.6c1,2.7,2.2,5.4,3.8,7.8
											c1.5,2.4,3.3,4.8,5.4,6.8c2.1,2.1,4.3,3.9,6.8,5.4c2.4,1.7,5.1,2.8,7.8,4.1l0.1,0.1c2,0.9,2.9,3.2,2.1,5.1
											c-0.9,1.9-3.2,2.8-5.1,2.1c-3.1-1.3-6.3-2.8-9.1-4.7c-3-1.8-5.7-4-8.1-6.4c-2.5-2.4-4.6-5.2-6.4-8.1
											c-1.8-3-3.3-6.1-4.5-9.3c-2.4-6.4-3.4-13.2-3.6-19.9c-0.2-3.3,0-6.8,0.5-10.1c0.2-1.7,0.4-3.3,0.6-4.9
											c0.2-0.9,0.3-1.7,0.4-2.6c0.2-0.9,0.3-1.7,0.6-2.6l2,4.5c-5.7-3.2-10.8-7.7-14.4-13.2c-1.8-2.7-3.3-5.7-4.4-8.7
											c-1-3-1.8-6.2-2.2-9.3c-0.9-6.3-0.8-12.6,0.2-18.6c0.5-3,1.1-6,2-9s1.8-5.8,3.2-8.6c0-0.1,0.2-0.1,0.3-0.1
											C236.4,413.5,236.4,413.6,236.4,413.6L236.4,413.6z"/>
									</g>
								</g>
							</g>
							<g>
								<g>
									<g>
										<path class="st8" d="M329.2,374.9c4.3,3,8.1,6.8,11.4,10.8c0.9,1.1,1.7,2.1,2.4,3.1s1.5,2.2,2.2,3.3
											c0.8,1.2,1.3,2.2,1.9,3.4l0.9,1.8l0.9,1.8c2.2,4.9,3.8,10.2,4.5,15.5c0.8,5.4,0.8,10.8,0,16.2c-1.5,10.8-6,20.8-11.6,29.8
											c-1.4,2.2-3,4.4-4.5,6.6c-1.7,2.1-3.3,4.2-5,6.3c-1.8,1.9-3.5,4.1-5.2,6l-5.5,5.7l0.8-4.5l0,0c1.3,2.8,3,5.7,4.8,8.1
											c0.5,0.6,0.9,1.1,1.2,1.5c0.1,0,0.1,0.2,0.3,0.2c0.2,0.1,0,0-0.1,0l-0.2-0.2c-0.3-0.1-0.1,0,0,0c0.3,0,1,0,1.8-0.1
											l2.6-0.3c3.6-0.4,7.6-0.4,11.5,0.8c3.9,1.1,7.3,3.3,10.2,6c1.7,1.5,1.7,3.9,0.3,5.6c-1.5,1.6-3.9,1.6-5.6,0.3l0,0
											c-2.1-1.9-4.5-3.4-7.2-4.2c-2.6-0.8-5.4-0.8-8.5-0.4l-2.6,0.3c-0.9,0.1-1.9,0.1-3.3,0.1c-0.8-0.1-1.5-0.1-2.5-0.6
											c-0.3-0.2-0.5-0.3-0.8-0.4c-0.3-0.2-0.6-0.3-0.6-0.4l-0.8-0.6c-0.9-0.8-1.5-1.6-2.1-2.4c-2.2-3.2-3.9-6.2-5.5-9.4l0,0
											c-0.8-1.5-0.5-3.4,0.8-4.5c7.2-7.1,13.9-14.4,19.5-22.8c5.4-8.2,9.8-17.4,11.6-27c0.9-4.8,1.1-9.8,0.6-14.6
											c-0.4-4.8-1.6-9.6-3.4-14.3c-3.6-9.1-9.3-17.8-16.5-24.8l0,0c-0.3-0.3-0.3-0.9,0-1.3C328.3,374.6,328.8,374.6,329.2,374.9
											z"/>
									</g>
								</g>
							</g>
							<g>
								<g>
									<g>
										<path class="st8" d="M308.1,571.6c-2,0-4-0.9-5.5-3.6c-2.7-4.7-5.7-5.9-9.5-7.5c-5-2.1-10.5-4.7-14.5-14
											c-5.9-14.1,4.5-26.1,10.6-30.4c0.8-0.5,1.5-0.8,2.4-0.8c14.8,0.6,24.8,9.6,27.1,24.9c1.8,12.2-1.5,28.7-8.5,31.2
											C309.4,571.6,308.8,571.6,308.1,571.6z M292.6,523.1c-3,2.4-11.1,10.4-7,20.2c2.7,6.6,6.2,8,10.4,9.9
											c3.8,1.7,8.4,3.6,12.1,9.3c2.2-4.2,4.8-15.6,1.7-25.7C307.3,528.5,301.5,523.9,292.6,523.1z"/>
									</g>
								</g>
							</g>
							<g>
								<g>
									<g>
										<path class="st8" d="M351.1,565.6c-0.1,0-0.3,0-0.6,0c-1.4-0.2-2.6-1.1-3.2-2.4c-0.3-0.9-9-21.2-32.8-20.4
											c-2.2,0-3.9-1.6-4-3.8c-0.1-2.1,1.6-3.9,3.8-4c20.1-0.6,31.5,11.4,36.7,19c4.2-9.9,1.5-21.9-3.8-30.6
											c-4.5-7.2-10.7-11.7-15.2-10.8c-12.9,2.5-18.1,17.2-18.3,17.4c-0.8,2.1-3,3.2-5,2.4c-2.1-0.8-3.1-3-2.4-4.9
											c0.3-0.8,6.8-18.9,24.1-22.5c7.9-1.6,16.8,3.9,23.4,14.4c7.8,12.5,10.8,31.2,0.1,44.9C353.4,565,352.3,565.6,351.1,565.6z
											"/>
									</g>
								</g>
							</g>
							<g>
								<g>
									<g>
										<path class="st8" d="M356.5,540.5c-0.8,0-1.3-0.2-2.1-0.6c-1.8-1.2-2.4-3.6-1.2-5.4c6.9-10.9,20.4-13.3,28.2-13.7
											c-4.5-7.6-17.4-17.1-24-16.6c-8,0.6-13.5,8.6-13.7,8.7c-1.2,1.8-3.6,2.2-5.4,1.1c-1.8-1.2-2.2-3.6-1.1-5.4
											c0.3-0.4,7.7-11.1,19.5-12c12-1.1,33,16.3,34.1,28c0.1,1.2-0.3,2.2-1.2,3.2c-0.8,0.8-1.9,1.2-3.2,1.1
											c-0.1,0-19.5-1.7-26.7,9.9C359.2,539.9,357.9,540.5,356.5,540.5z"/>
									</g>
								</g>
							</g>
							<g>
								<g>
									<g>
										<path class="st8" d="M450.4,450.8c-0.2,1.2-0.3,2.1-0.6,3.1c-0.3,1.1-0.6,2.1-0.9,3c-0.6,1.9-1.5,3.9-2.4,5.9
											c-0.9,1.9-2.1,3.8-3.3,5.4c-1.3,1.7-2.7,3.3-4.5,4.7c-0.4,0.4-1.2,0.3-1.6-0.2c-0.3-0.3-0.3-0.8-0.2-1.2l0,0
											c0.8-1.8,1.4-3.6,1.9-5.6c0.4-1.8,1.1-3.6,1.5-5.6l1.2-5.6c0.4-1.8,0.8-3.8,1.2-5.4v-0.2c0.6-2.1,2.7-3.3,4.8-2.8
											C449.4,447.1,450.6,448.9,450.4,450.8z"/>
									</g>
								</g>
							</g>
							<g>
								<g>
									<g>
										<path class="st8" d="M447.7,479c-0.9-5.8-7.8-8.7-7.9-8.7l2.9-7.3c0.4,0.1,11.2,4.3,12.9,14.8L447.7,479z"/>
									</g>
								</g>
							</g>
							<g>
								<g>
									<g>
										<path class="st8" d="M481.8,504.4l-1.2-7.8l10.7-1.8c-5.2-5.7-14.9-14.4-24.8-16.5c-12.6-2.7-15.9,7.3-16.2,8.4l-7.5-2.1
											c1.8-6.3,9.3-17.4,25.3-13.9c18,3.8,33.2,23.7,33.8,24.6c0.8,1.1,1.1,2.6,0.4,3.8c-0.4,1.2-1.6,2.2-3,2.4L481.8,504.4z"/>
									</g>
								</g>
							</g>
							<g>
								<g>
									<g>
										<path class="st8" d="M491.4,522.4c-0.4,0-1.1-0.1-1.5-0.3c-4.1-1.7-16.1-5.7-21.9-4.5c-10.3,2.1-17.4-4.5-17.6-4.8
											l5.4-5.7c0.1,0.1,4.5,4.1,10.6,2.8c5.2-1.1,12.6,0.4,18.3,2.1c-9.9-19-33-22.9-38.7-23.5c-8.2,6.1-11.6,14.2-11.6,14.4
											l-7.3-2.8c0.1-0.4,4.3-11.2,15.6-18.9c0.8-0.4,1.5-0.8,2.4-0.6c0.4,0,40.5,2.7,50.1,36.9c0.4,1.5,0,3-1.2,3.9
											C493.3,522.1,492.4,522.4,491.4,522.4z"/>
									</g>
								</g>
							</g>
							<g>
								<g>
									<g>
										<path class="st9" d="M414.6,518.5"/>
									</g>
								</g>
							</g>
							<g>
								<g>
									<g>
										<path class="st8" d="M463.3,534.4c-0.6,0-1.3-0.1-1.9-0.4c-3.3-1.8-13.1-6.6-18.4-6.8c-13.9-0.5-27.1-4.2-29.4-5
											c-41.4-5.8-41.7-47.4-41.7-47.8c0-2.1,1.8-3.9,3.9-3.9l0,0c2.1,0,3.9,1.8,3.9,3.9c0,1.4,0.3,33.2,31.8,39.6
											c1.3-4,4.3-10.3,10.3-13.8c5.7-3.3,12.6-3.4,20.6-0.4c25.2,9.4,24.8,30,24.6,30.9c0,1.3-0.8,2.6-1.9,3.3
											C464.7,534.2,464.1,534.4,463.3,534.4z M419.4,515.8c4.9,1.2,14.4,3.3,24,3.6c4.5,0.2,10.2,2.2,14.7,4.2
											c-1.9-5.2-6.8-12.2-18.2-16.5c-5.7-2.1-10.3-2.2-13.8-0.2C422.4,509,420.4,512.9,419.4,515.8z"/>
									</g>
								</g>
							</g>
							<g>
								<g>
									<g>
										<path class="st8" d="M380.5,450.7c-1.6,0-3.1-1.1-3.8-2.7c-0.8-2.1,0.4-4.2,2.6-4.9c7.7-2.6,8.4-10.1,8.4-10.3
											c0.1-2.1,2.1-3.8,4.2-3.6c2.1,0.2,3.8,1.9,3.6,4.2c0,0.6-1.1,13.1-13.8,17.2C381.4,450.7,381,450.7,380.5,450.7z"/>
									</g>
								</g>
							</g>
							<g>
								<g>
									<g>
										<path class="st8" d="M444.6,169.7c0.6-1.7,1.2-3,1.9-4.5s1.5-2.8,2.6-4.2c1.8-2.7,4.1-5.2,6.9-7.3c2.7-2.1,6-3.9,9.6-4.8
											c3.6-1.1,7.7-1.1,11.2-0.2c0.9,0.3,1.8,0.4,2.7,0.8c0.9,0.3,1.7,0.6,2.6,1c1.7,0.8,3.3,1.7,4.8,2.8c3,2.2,5.4,5.2,7.1,8.4
											c1.7,3.2,2.6,6.6,2.7,9.9c0.2,1.7,0.2,3.3,0,5c-0.1,1.7-0.4,3.2-0.9,4.8c-0.3,1-1.4,1.5-2.4,1.2c-0.6-0.2-1.1-0.8-1.2-1.2
											l-0.1-0.3c-0.2-0.6-0.3-1.3-0.6-1.9c-0.1-0.8-0.3-1.3-0.6-2.1c-0.4-1.3-0.9-2.7-1.4-3.9c-1.1-2.4-2.2-4.7-3.8-6.6
											c-0.8-0.9-1.5-1.8-2.4-2.5c-0.9-0.8-1.7-1.5-2.7-2c-0.9-0.6-1.9-1-3-1.5c-1.1-0.4-2.2-0.8-3.3-1c-0.6-0.2-1.1-0.3-1.7-0.3
											l-0.8-0.2h-0.8c-1.1,0-2.1,0-3.1,0.3c-2.1,0.4-4.4,1.2-6.6,2.4c-4.3,2.4-8.7,6.2-12.6,10.2l-0.2,0.2
											c-0.9,0.9-2.4,1.1-3.4,0C444.4,171.5,444.3,170.5,444.6,169.7z"/>
									</g>
								</g>
							</g>
						</g>
						<g>
							<g>
								<g>
									<path class="st8" d="M396,162.2c1.8,0.9,3.2,2.2,4.2,3.9c0.6,0.9,0.9,1.8,1.2,3c0.3,1,0.3,2.4,0,3.6
										c-0.3,1.2-1.1,2.4-1.8,3.3c-0.9,0.9-1.8,1.5-2.8,1.9c-1.1,0.5-1.9,0.6-3,0.6c-0.4,0-1.1,0-1.5-0.2s-1.1-0.3-1.5-0.4
										c-0.3-0.2-0.4-0.5-0.3-0.8c0,0,0,0,0-0.2l0,0c1.2-1.7,2.4-2.7,3.3-3.8c0.4-0.5,0.8-0.9,0.9-1.2c0.3-0.3,0.4-0.6,0.6-1.1
										c0.3-0.6,0.3-1.8,0.1-3.2c-0.1-1.3-0.6-2.8-0.9-4.5v-0.2c-0.2-0.6,0.3-1,0.9-1.2C395.5,162.2,395.8,162.2,396,162.2z"/>
								</g>
							</g>
						</g>
						<g>
							<g>
								<g>
									<path class="st8" d="M311.1,146.6c-1.3,1-2.5,2.1-3.6,3c-1.1,0.9-1.7,1.8-1.8,2.5c-0.1,0.3-0.1,0.6-0.1,1.1
										c0,0.4-0.2,0.9,0,1.7c0,1.3,0.3,2.8,0.1,4.9l0,0c0,0.3-0.3,0.6-0.6,0.6h-0.2c-0.6-0.2-1-0.3-1.5-0.6
										c-0.4-0.3-0.9-0.4-1.2-0.8c-0.8-0.6-1.5-1.3-2-2.4c-0.6-0.9-0.9-2.1-1-3.3c-0.2-1.2,0.1-2.6,0.8-3.8
										c0.6-1.2,1.3-2.1,2.2-2.8c0.9-0.8,1.8-1.2,2.8-1.7c2-0.8,3.9-0.8,5.9-0.3c0.6,0.2,0.9,0.8,0.8,1.2
										C311.5,146.2,311.4,146.3,311.1,146.6L311.1,146.6z"/>
								</g>
							</g>
						</g>
					</g>
				</g>
			</g>
		</g>
	</g>
	<circle class="st10" cx="471.9" cy="172.7" r="38.3"/>
	<path class="st8" d="M515.4,170.9v-1.3c0-1.3,0-2.7-0.3-4.2c-0.3-3.6-1.2-7.3-2.8-11.7c-1.3-3.6-3.4-7.2-6.3-10.9
		c-2.6-3.1-5.7-6.1-9.4-8.9c-3.4-2.4-7.5-4.4-12-5.9c-4.1-1.2-8.4-1.9-13.3-2.1l-1.8,0.2c-1.5,0-3,0.1-4.7,0.5
		c-2.1,0.3-4.1,0.8-5.8,1.3l-0.8,0.1c-4.5,1.5-8.4,3.5-12,5.9c-3.8,2.7-6.9,5.7-9.4,8.9c-2.9,3.8-4.8,7.3-6.3,10.8
		c-2.9,7.2-3.9,15.5-2.7,23.1c1.1,7,3.8,13.3,7.8,19c3.4,4.7,7.8,8.7,12.4,11.7c3.6,2.2,7.5,4,12,5.2c2.1,0.6,3.6,0.9,4.8,1
		c1.5,0.3,2.7,0.5,3.6,0.5l3,0.2l2.9-0.2l0,0c1.1,0,2.4-0.2,3.6-0.3c1.4-0.2,2.9-0.4,4.8-1c4.5-1.2,8.4-3,12-5.2
		c2.6-1.7,4.9-3.5,7.2-5.7c4.8-0.9,3,9,7.5,9c4.8,0,8.7-3.9,8.7-8.7c0-4.8-9.2-0.9-8.7-8.7c0-0.4,0-0.8,0-1
		c2.8-4.8,4.8-10.2,5.7-15.8C515.1,174.7,515.4,173,515.4,170.9z M508.8,176c-0.4,6-2.4,12-5.6,17.1c-2.6,4.2-6.1,7.9-10.6,11.1
		c-4.1,2.8-8.1,4.2-10.8,5.1c-1.8,0.6-3.2,0.8-4.4,0.9c-1.3,0.3-2.4,0.4-3.3,0.4l-2.8,0.2l-2.9-0.2c-0.8,0-1.8-0.2-3.3-0.4
		c-1.1-0.2-2.4-0.5-4.3-0.9c-2.7-0.8-6.8-2.2-10.8-5.1c-4.5-3.2-8.1-6.9-10.7-11.1c-3.1-5.1-5.1-11.1-5.6-17
		c-0.4-6.6,0.8-13.3,3.8-19.3s7.9-11.4,13.7-15.1c2.8-1.8,6.1-3.3,9.4-4.4l0.9-0.1c1.5-0.3,2.9-0.8,4.5-0.9c0.9-0.1,2.2-0.3,3.6-0.3
		c0.6,0,1.2,0,1.6-0.1c3.9,0,7.4,0.6,10.5,1.5c3.6,1.2,6.9,2.5,9.6,4.3c5.8,3.8,10.8,9.2,13.6,15.2c1.7,3.5,2.7,6.6,3.2,9.6
		c0.3,1.1,0.3,2.4,0.4,3.6l0.1,1.2C508.8,172.6,508.8,174.2,508.8,176z"/>
	<g>
		<path class="st8" d="M252.9,187.7c-3.3-6-2.2-13.9,1.8-19.5c3.6-5,9.2-8.1,15-9.8c-2.4,1.3-4.7,3.3-6.2,4.8
			c-2.7,2.6-4.2,6-4.8,9.6c-0.2,1.2-0.3,2.5-0.2,3.8c0.5,3,2.2,5.7,4.7,7.7c3.3,2.7,8,4,12.3,3.4c-3.3-0.2-6.6-1.2-9.3-3.3
			c-2.5-2.1-4.4-5.1-4.5-8.1c-0.2-2.8,1.2-5.6,3-7.8c0,0.6-0.2,1-0.2,1.7c-0.1,6.2,2.4,8.8,8.6,8.4c6.1-0.4,11.8-3,17.5-5.5
			c10.5-4.7,21-12.5,32.8-0.6c6.5,8.6-2.7,23.6-16.2,22.7c-2.9-0.2-8.6-0.8-11.4-1.1c-5-0.6-8.2,1.3-13.2,2.6
			C271.3,199.3,258.6,198.1,252.9,187.7z"/>
		<path class="st8" d="M332.7,175c16.2-4.1,21.3,8.1,27.8,17.4c3.4,5.1,7.1,10.2,12.1,13.8c4.9,3.6,8.6,2.5,11.7-2.7
			c0.3-0.4,0.6-1,0.8-1.5c0.6,2.8,0.2,5.8-1.3,8.2c-1.8,2.6-4.8,4.2-8.1,4.7c-3.3,0.5-6.8-0.4-9.6-1.9c3.4,2.7,7.9,4,12.3,3.4
			c3.1-0.4,6-1.8,7.9-4.2c0.8-1.1,1.3-2.1,1.8-3.3c1.3-3.4,1.8-7.2,0.9-10.8c-0.6-2.1-1.5-4.8-2.8-7.2c4.2,4.3,7.3,10.1,7.8,16.1
			c0.6,6.9-2.6,14.1-8.6,17.7c-10.2,6-21.8,0.5-30.3-7.8c-3.6-3.5-5.4-6.9-10.1-9c-2.6-1.2-7.8-3.8-10.2-5
			C322.8,196.6,322.6,179,332.7,175z"/>
	</g>
	<g id="Calque_10">
		<g>
			
				<linearGradient id="SVGID_1_" gradientUnits="userSpaceOnUse" x1="-2225.1758" y1="90.4777" x2="-2099.6257" y2="90.4777" gradientTransform="matrix(-1 0 0 -1 -1698.1257 502)">
				<stop  offset="0" style="stop-color:#662483"/>
				<stop  offset="5.972981e-03" style="stop-color:#672482"/>
				<stop  offset="0.2186" style="stop-color:#8F1B71"/>
				<stop  offset="0.4282" style="stop-color:#AE1464"/>
				<stop  offset="0.6314" style="stop-color:#C40F5A"/>
				<stop  offset="0.8254" style="stop-color:#D10C54"/>
				<stop  offset="1" style="stop-color:#D60B52"/>
			</linearGradient>
			<path class="st11" d="M401.5,454.6c9,11.6,21.6,20.2,36.2,24.4c0.1,0,0.1,0,0.3,0.1c6,1.7,12.3,2.6,18.9,2.6
				c38.7,0,70.2-31.3,70.2-70.2c0-32.4-22.1-59.7-51.9-67.8c-0.3,0-0.6-0.2-0.8-0.2c-5.6-1.5-11.4-2.2-17.4-2.2
				c-12.6,0-24.3,3.3-34.5,9c0.2,0.3,0.3,0.4,0.6,0.8c3,4.2,5.6,8.7,7.6,13.5l0.8,1.8c0.3,0.6,0.4,1.2,0.8,1.8
				c0.4,1.2,0.9,2.4,1.4,3.8c0.8,2.6,1.5,4.9,2.1,7.7c0.3,1.3,0.6,2.6,0.8,3.9l0.4,3.9c0.2,1.3,0.2,2.7,0.3,3.9c0,1.1,0,2.2,0.2,3.3
				c0.3,1.2,0.6,2.2,0.9,3.4c0.3,1.4,0.6,2.6,0.9,3.9c0.4,2.6,0.9,5.2,1.1,7.9c0.4,5.2,0.4,10.8-0.8,16.2
				c-1.1,5.4-3.2,10.8-6.9,15.4c-3.6,4.7-8.7,7.9-13.8,9.9c-5.2,1.9-10.8,2.8-15.9,3.1C402.3,454.4,401.8,454.4,401.5,454.6z"/>
			<g>
				<path class="st12" d="M446.4,397.3l24.1-13.9c1.2-0.6,2.6-0.6,3.8,0l21.2,12.1l2.6,10.8l-23,35.5c-1.2,0.6-2.6,0.6-3.8,0
					l-26.7-16.5v-24.8C444.4,400,445.8,397.7,446.4,397.3L446.4,397.3z"/>
				<path class="st13" d="M495.4,395.5l3.1,1.8c0.6,0.3,1.1,0.8,1.4,1.3l-4.5,5.1V395.5L495.4,395.5z"/>
				<path class="st13" d="M472.5,439.3l2.6,3.9l-2.6,3c-0.6,0-1.3-0.2-1.8-0.4l-24.1-13.9c-1.2-0.6-1.8-1.9-1.8-3.3v-3.3l24.1,13.9
					C469.9,440,471.3,440,472.5,439.3L472.5,439.3z"/>
				<path class="st13" d="M444.4,400.6c0-0.6,0.1-1.3,0.4-1.8c0.3-0.6,0.8-1.1,1.3-1.3l28.1,16.2l21.2-12.2l2.6,25.1
					c0,1.3-0.8,2.6-1.8,3.3l-23.6,9.6v-22.6L444.4,400.6z"/>
				<path class="st14" d="M493.6,427.1c1.2-0.6,1.8-1.9,1.8-3.3v-22.7l4.5-2.6c0.3,0.6,0.4,1.2,0.4,1.8v28.1c0,1.4-0.8,2.6-1.8,3.3
					l-24.2,13.9c-0.6,0.3-1.2,0.4-1.8,0.4v-7.1L493.6,427.1z"/>
			</g>
			<g>
				<path class="st8" d="M415.3,444.2l8.2,4.8c1.9-1.2,3.9-2.6,5.7-4.2H429c-2.2,0-4.1-1.8-4.1-4.1v-2.2c0-0.1,0-0.3,0-0.4
					c-0.3,0.3-0.6,0.6-0.9,0.9c-0.8,0.8-1.7,1.5-2.6,1.9c-1.8,1.3-3.8,2.2-5.9,3.1C415.6,444.1,415.5,444.1,415.3,444.2z"/>
				<path class="st12" d="M413.4,443L413.4,443l1.8,1.2l7.9,4.9l16.9,10.5c0.9,0.6,2.1,0.6,3,0.3c0.3,0,0.4-0.1,0.8-0.3l3.1-4.8
					l18-27.9l1.8-2.7l-2.6-10.8l-2.4-1.4l-18.8-10.8c-1.2-0.8-2.6-0.8-3.8,0l-0.8,0.4l-5.6,3.1l-0.2,0.2l-1.5,0.9
					c0.2,1.2,0.3,2.6,0.4,3.8c0,0.3,0.2,0.8,0.2,1.1c0.4,4.8,0.3,9.4-0.6,13.9l0,0c-0.1,0.9-0.4,1.8-0.6,2.6
					c-0.2,0.4-0.2,0.8-0.3,1.2c-0.9,3-2.4,5.8-4.4,8.2c-0.3,0.3-0.4,0.6-0.8,0.9c-0.1,0.2-0.1,0.2-0.3,0.3l-0.3,0.3l0,0
					c0,0.2,0,0.3,0,0.4v2.2c0,2.2,1.8,4.1,4.1,4.1h0.3c-0.9,0.9-1.9,1.7-3,2.4c-0.4,0.3-0.8,0.6-1.2,0.9s-1.1,0.6-1.5,0.9l-8.2-4.8
					L413.4,443z"/>
				<path class="st13" d="M464.4,413.2l3.1,1.8c0.6,0.3,1.1,0.8,1.4,1.4l-4.5,5.1V413.2L464.4,413.2z"/>
				<path class="st13" d="M413.4,443L413.4,443l1.8,1.2l7.9,4.9c-0.3,0.2-0.8,0.4-1.2,0.6c-1.2,0.6-2.4,1.2-3.6,1.6h-0.1l21,12.2
					c0.6,0.3,1.2,0.4,1.8,0.4l2.6-3l-0.8-1.1l-1.8-2.9c-1.2,0.6-2.6,0.6-3.8,0l-13.9-8.1l-8.2-4.8L413.4,443z"/>
				<path class="st13" d="M430.6,428.2l6.9,4.1l3.8,2.2V457l5.7-2.2l18-7.3c1.2-0.6,1.8-1.9,1.8-3.3l-1.6-17.2l-0.8-7.8l-21.2,12.1
					l-4.5-2.7l-7.1-4.1c-0.1,0.9-0.4,1.8-0.6,2.6C430.8,427.4,430.8,427.9,430.6,428.2z"/>
				<path class="st14" d="M462.4,444.8c1.2-0.6,1.8-1.9,1.8-3.3v-22.7l4.5-2.6c0.3,0.6,0.4,1.2,0.4,1.8v28.1c0,1.4-0.8,2.6-1.8,3.3
					l-24.2,13.9c-0.6,0.3-1.2,0.4-1.8,0.4V457L462.4,444.8z"/>
			</g>
			<g>
				<path class="st12" d="M429.7,397.4c0.3,0.8,0.4,1.6,0.6,2.4c0.3,1.2,0.4,2.4,0.8,3.4v0.2v0.1l1.8,1.2l6.9,4.2l14.4,8.8
					c0.9,0.6,2.1,0.6,3,0.3c0.3,0,0.4-0.1,0.8-0.3l3.9-6l19.1-29.4l-2.6-10.8l-21.1-12.1c-1.2-0.6-2.6-0.6-3.8,0L433,371.3l-1.3,0.8
					l0,0c0.1,0.8,0.3,1.5,0.6,2.2l0,0v0.2c0,0.3,0.2,0.4,0.3,0.8c0,0.1,0.2,0.3,0.2,0.4c0,0.1,0.1,0.3,0.1,0.4
					c0.6,1.6,1.5,3.1,2.7,4.5l0,0c0,0.3,0.2,0.6,0.2,0.9c0,0.2,0,0.3,0.1,0.6c0,0.1,0.2,0.4,0.2,0.6c0,0.3,0.1,0.6,0.1,0.9l0.4,3.9
					c0.2,1.4,0.2,2.7,0.3,3.9c0,1.1,0,2.2,0.2,3.3c0.3,1.1,0.6,1.9,0.8,2.8h-8.1V397.4z"/>
				<path class="st13" d="M478.5,371.6l3.2,1.8c0.6,0.3,1.1,0.8,1.3,1.4l-4.5,5.1V371.6L478.5,371.6z"/>
				<path class="st13" d="M431.2,403.4v0.1c0.2,0.6,0.3,1.4,0.3,1.9c0.2,1.2,0.3,2.6,0.4,3.8l8.2,4.8l13.5,7.8
					c0.6,0.3,1.2,0.4,1.8,0.4l2.6-3l-0.8-1.2l-1.8-2.9c-1.2,0.8-2.6,0.8-3.8,0l-12-6.9l-6.6-3.8L431.2,403.4z"/>
				<path class="st13" d="M457.3,389.6l-22.6-13.1c0.3,1.1,0.6,2.1,0.8,3.2c0,0.3,0.1,0.6,0.1,0.9l0,0c0,0.3,0.2,0.6,0.2,0.9
					l19.6,11.4v22.5l23.7-9.6c1.2-0.8,1.8-1.9,1.8-3.3l-2.6-25.1L457.3,389.6z"/>
				<path class="st8" d="M427.6,376.6c0.1-0.8,1.2-2.6,1.8-3c-0.6,0.3-1.1,0.8-1.2,1.4C427.8,375.4,427.6,376,427.6,376.6z"/>
				<path class="st14" d="M476.7,403.3c1.2-0.6,1.8-1.9,1.8-3.3v-22.5l4.5-2.6c0.3,0.6,0.4,1.2,0.4,1.8v28.1c0,1.3-0.8,2.6-1.8,3.3
					L457.5,422c-0.6,0.3-1.2,0.4-1.8,0.4v-7.1L476.7,403.3z"/>
			</g>
		</g>
	</g>
	<g id="Calque_4">
		<g>
			<g>
				<g>
					<g>
						<path class="st6" d="M547.9,427.7c0.9,3,6.3,10.1,9.5,11.2c0,0-4.3-0.8-7.5,0c-0.6,0.2-1.5-1.5-2.2-1.5c-0.2,0-0.3,0-0.3,0
							c-4.3,0-12.1-4.1-12.4-6.6c0,0,0.4,0,1.3,0c2.7,0,6.5-1.1,9.2-3.9"/>
					</g>
				</g>
			</g>
		</g>
		<g>
			<g>
				<g>
					<g>
						<path class="st6" d="M538.9,418.7c0.9,2.6,3.8,4.9,6.9,5.9c0,0-1.9,1.5-5.1,2.1c-0.6,0.2-1.2,0.2-2,0.2c-0.1,0-0.3,0-0.3,0
							c-4.3,0-12.2-3.4-12.5-5.6c0,0,0.5,0,1.4,0C529.8,421.4,536.1,421.1,538.9,418.7"/>
					</g>
				</g>
			</g>
		</g>
		<g>
			<g>
				<g>
					<g>
						<path class="st6" d="M534.4,408.2c0.9,2.6,3.8,4.9,6.9,5.9c0,0-1.9,1.5-5.1,2.1c-0.6,0.2-1.2,0.2-2,0.2c-0.1,0-0.3,0-0.3,0
							c-4.3,0-12.2-3.4-12.5-5.6c0,0,0.5,0,1.4,0c2.7,0,7.9-2.6,10.6-5"/>
					</g>
				</g>
			</g>
		</g>
		<g>
			<g>
				<path class="st8" d="M550.5,383c-5.7-0.3-11.1,1.2-13.8,6.6c-2.4,5.1-2.1,11.2-7.2,14.7c-2.2,1.5-4.7,2.2-7.2,3.2
					c-2.1,0.8-5,1.5-4.8,4.4c0.3,2.6,3.5,4.5,5.4,5.7c2.4,1.5,5.1,2.7,7.9,3.6c0-1.5,0-2.8,0-4.3c-2.4,0.8-4.8,1.1-7.2,1.1
					c-1.7,0-3,1.9-2,3.4c4.1,5.8,10.1,8.1,16.7,9.8c0.2-1.5,0.5-3,0.6-4.4c-2.1,0-4.3,0-6.4,0c-2.8,0-2.8,4.5,0,4.5
					c2.1,0,4.3,0,6.4,0c2.6,0,3.2-3.8,0.6-4.3c-5.4-1.4-10.7-3-14-7.7c-0.6,1.2-1.3,2.2-1.9,3.4c2.8,0,5.7-0.3,8.4-1.2
					c2.1-0.6,2.1-3.8,0-4.3c-2.2-0.8-4.5-1.7-6.6-2.9c-1-0.6-1.9-1.3-2.8-2.1c-0.3-0.3-0.6-0.4-0.8-0.8c-0.2,0.4-0.2,0.9-0.3,1.3
					c0.2,0,1.2-0.4,1.4-0.4c4-1.3,8.2-2.8,11.4-5.9c3.6-3.4,4.2-8.1,5.7-12.6c0.6-1.9,1.7-3.9,3.4-4.9c2.1-1.2,4.7-1.2,7.1-1.1
					C553.3,387.7,553.3,383.2,550.5,383L550.5,383z"/>
			</g>
		</g>
	</g>
	<g id="Calque_7">
		<g>
			<g>
				<path class="st6" d="M539.7,424L539.7,424c-0.1,0-0.3-0.1-0.4-0.1c0.3,0.1,0.8,0.3,1,0.6C540.1,424.3,540,424.1,539.7,424
					c0.3,0.2,0.3,0.3,0.5,0.3c0.8-1.2,1.5-2.6,2.2-3.8l0,0c0.2,0.2,0.3,0.2,0.6,0.3c-0.4-0.1-0.8-0.4-1.2-0.8
					c0.1,0.2,0.3,0.3,0.4,0.3c-0.3-0.3-0.8-0.6-0.9-0.9c0.2,0.1,0.3,0.3,0.3,0.4c-0.3-0.3-0.5-0.6-0.6-1.1c-0.2-0.3-0.3-0.4-0.6-0.6
					c-0.1-0.1-0.4-0.3-0.8-0.4c-0.3-0.1-0.6-0.1-0.9,0c-0.3,0-0.6,0.2-0.9,0.3c-0.5,0.3-0.9,0.8-1.1,1.4c0,0.1,0,0.4-0.1,0.6
					c0,0.4,0.1,0.8,0.3,1.2c0.2,0.3,0.3,0.6,0.5,0.9c0.3,0.4,0.6,0.9,1,1.2c0.3,0.3,0.8,0.8,1.2,0.9c0.4,0.3,0.9,0.4,1.3,0.8
					c0.2,0,0.4,0,0.6,0.2c0.3,0,0.6,0,0.9-0.2c0.2,0,0.3-0.1,0.4-0.3c0.3-0.1,0.5-0.3,0.6-0.6c0.1-0.2,0.1-0.3,0.3-0.6
					c0-0.1,0-0.4,0.2-0.6c0-0.3,0-0.6-0.2-0.9s-0.3-0.4-0.4-0.8c-0.3-0.3-0.8-0.6-1.2-0.9c-0.4-0.3-0.9-0.4-1.3-0.6
					c-0.3-0.1-0.6-0.1-0.9,0c-0.3,0-0.6,0.2-0.9,0.3c-0.3,0.2-0.4,0.3-0.6,0.6c-0.2,0.1-0.3,0.4-0.4,0.8c-0.2,0.6-0.2,1.2,0.3,1.8
					c0.2,0.1,0.3,0.3,0.3,0.4C538.9,423.7,539.2,424,539.7,424L539.7,424z"/>
			</g>
		</g>
	</g>
	<g id="Calque_6">
		<g>
			<g>
				<path class="st8" d="M531.9,406c0.9,2.4,2.2,4.5,4.2,6.2c0.9,0.8,2,1.5,3.2,2.1c0.6,0.3,1.2,0.6,2,0.8c0.1,0,0.3,0.2,0.3,0.2
					c0.3,0.1,0.3,0.1,0,0c0.2,0.1,0.2,0.1,0,0c-0.4-0.4-0.4-1.1-0.2-1.7c0.2-0.1,0.2-0.1,0,0c-0.1,0.2-0.1,0.2-0.3,0.3
					c-0.2,0.2-0.5,0.4-0.6,0.6c0,0-0.8,0.6-0.5,0.4c-0.3,0.1-0.4,0.3-0.8,0.4c-1,0.8-1.7,1.1-3,1.2c0.5,0-0.4,0-0.4,0
					c-0.2,0-0.9-0.2-0.5,0c-0.6-0.2-1.2-0.3-1.8-0.6c-1.4-0.4-2.6-0.9-4.1-1.1c-1.2-0.1-2.2,1.1-2.2,2.2c0,1.4,1.1,2.1,2.2,2.2
					c0,0,0.5,0,0.2,0c-0.3,0,0.3,0,0.3,0c0.3,0,0.5,0.2,0.8,0.2c0.6,0.1,1.2,0.4,1.7,0.6c1.1,0.4,2.2,0.8,3.5,0.8
					c2.4,0,4.6-0.9,6.6-2.2c0.9-0.8,1.8-1.3,2.5-2.2c1.2-1.3,1.5-3,0.2-4.3c-0.8-0.9-1.9-1.2-3-1.5c-0.4-0.2,0.2,0.1-0.3-0.2
					c-0.2-0.1-0.5-0.1-0.6-0.3c-0.4-0.3-0.9-0.4-1.2-0.8c-0.2-0.1,0,0,0,0c-0.2-0.1-0.3-0.1-0.5-0.3c-0.1-0.1-0.4-0.4-0.6-0.6
					c-0.2-0.1-0.3-0.3-0.4-0.6c-0.2-0.2-0.6-0.6-0.3-0.3c-0.3-0.4-0.6-0.9-0.9-1.4c-0.1-0.1-0.3-0.4-0.3-0.6c0,0-0.2-0.4-0.2-0.2
					c0.2,0.3-0.2-0.3-0.2-0.3c-0.4-1.1-1.5-1.9-2.7-1.5C532.3,403.6,531.4,404.8,531.9,406L531.9,406z"/>
			</g>
		</g>
		<g>
			<g>
				<path class="st8" d="M539.7,416c-0.8,1.5-0.6,3.2,0.6,4.5c0.8,0.9,1.6,1.5,2.5,2.1c0.5,0.3,0.9,0.6,1.3,0.9
					c0.3,0.2,0.5,0.3,0.8,0.6c-0.3-0.3,0,0.1,0.2,0.1c-0.2-0.1-0.3-0.4-0.3-0.8c0.1-0.6,0.3-0.8,0-0.4c0.1-0.1,0.1-0.1,0,0l-0.2,0.2
					c-0.3,0.3-0.6,0.6-1.1,0.9c-0.1,0.2-0.1,0.2,0.2,0c-0.2,0-0.2,0.2-0.3,0.2c-0.2,0.1-0.5,0.3-0.6,0.4c-0.3,0.1-0.8,0.4-1.2,0.6
					c-0.6,0.3,0.4-0.1-0.2,0c-0.3,0.2-0.4,0.2-0.8,0.3c-0.4,0.2-0.9,0.3-1.2,0.3c0,0-0.8,0.2-0.5,0.2c0.3,0-0.3,0-0.4,0
					c-0.5,0-0.9,0-1.4,0c-0.3,0-0.4,0-0.8,0c0.6,0,0,0-0.1,0c-0.5-0.2-0.9-0.2-1.4-0.3c-1-0.3-2.5,0.4-2.7,1.5
					c-0.3,1.2,0.3,2.4,1.5,2.7c4,1.3,8.7,0.4,12.2-1.9c0.9-0.8,1.9-1.5,2.5-2.6c0.9-1.5,0.6-3.3-0.6-4.5c-0.9-0.9-2.1-1.5-3.2-2.2
					c-0.3-0.2-0.4-0.3-0.8-0.6c-0.2-0.1-0.2-0.1,0,0c-0.2-0.1-0.2-0.1-0.3-0.3c-0.2-0.1-0.2-0.1-0.3-0.3c0.2,0.2,0.2,0.2,0,0
					c0.2,0.3,0.2,0.4,0,0.8c0.6-1.1,0.3-2.6-0.8-3.1C541.8,414.7,540.3,415,539.7,416L539.7,416z"/>
			</g>
		</g>
		<g>
			<g>
				<path class="st8" d="M529.5,430.9c4.8,5.7,12,11.8,20.1,11.2c2.1-0.2,4.4-0.8,6.2-1.9c1.3-0.9,3-2.2,2.6-4.1
					c-0.3-1.1-1.2-1.5-2.1-1.9c-1.3-0.8-2.7-1.4-3.9-2.2c-2.2-1.5-4.1-3.6-5-6.2c-0.9-2.7-5.2-1.6-4.3,1.2c1.5,4.7,5.1,7.9,9.2,10.2
					c0.4,0.3,1,0.6,1.5,0.8c0.3,0.2,0.4,0.3,0.8,0.4c0.8,0.3,0.1,0.4-0.5-0.6c-0.2-0.4-0.3-1.4-0.3-1.5c0-0.2,0.3-0.6,0.1-0.3
					c0.5-0.6,0.2-0.2,0,0c-0.1,0-0.1,0.1-0.3,0.1c-0.3,0.3,0.4-0.3,0,0c-0.3,0.2-0.6,0.3-0.8,0.4c-0.2,0.2-0.3,0.2-0.5,0.3
					c-0.4,0.3,0.3,0-0.1,0.2c-0.3,0.1-0.8,0.3-1.1,0.3c-0.2,0-0.4,0.1-0.6,0.1s-0.3,0-0.3,0c-0.6,0.2,0.5,0-0.1,0
					c-2.4,0.3-4.4-0.1-6.6-1.2c-4.2-1.9-7.6-5.2-10.5-8.8c-0.8-0.9-2.4-0.8-3.1,0C528.6,428.6,528.7,429.8,529.5,430.9L529.5,430.9z
					"/>
			</g>
		</g>
	</g>
	<g id="Calque_8">
		<path class="st8" d="M389.2,423.1c0.4,1.6,0.4,3.6,0.2,5.2c0,0.1,0,0.3,0,0.3c-0.3-0.2-0.8-0.3-1.1-0.4c-0.2,0-0.3-0.2-0.4-0.3
			c-0.8-0.4-1.5-0.9-2.1-1.4c-1.8-1.2-3.6-2.4-5.2-3.8l0,0c-0.1-0.1-0.4-0.3-0.8-0.4c-0.4-0.3-1.1-0.3-1.5-0.4
			c-1.5-0.1-3,0.8-3.8,2.1c-0.1,0.4-0.3,0.8-0.4,1.1c-0.1,0.3-0.3,0.8-0.4,1.1c-0.3,0.6-0.4,1.3-0.8,2.1c-0.4,1.4-0.8,2.9-1.1,4.2
			c-0.4,2.9-0.4,6.2,0.4,9.3c0.9,3.2,3.2,6.2,5.7,8.1c2.6,1.9,5.6,3,8.2,3.8c3.8,0.9,7.4,1.2,10.9,1.2c1.2,0,2.4,0,3.6-0.2
			c0.6,0,1.2,0,1.8-0.1c0.4,0,0.9,0,1.5-0.2c0.8,0,1.3-0.1,2.1-0.1c0.2,0,0.3,0,0.4,0c0.3,0,0.6-0.2,0.9-0.2s0.8-0.1,1.1-0.1
			c0.1,0,0.4,0,0.6-0.2c0.4,0,0.9-0.1,1.4-0.3c0.1,0,0.3,0,0.3,0c0.6-0.1,1.1-0.1,1.6-0.3c0.2,0,0.2,0,0.3,0
			c0.6-0.1,1.2-0.3,1.8-0.4c0.2,0,0.2,0,0.3-0.1c0.6-0.2,1.2-0.3,1.7-0.4c0.1,0,0.3-0.2,0.4-0.2c0.4-0.1,0.9-0.3,1.5-0.4l0,0h0.1
			c3.9-1.5,7.7-3.8,10.8-6.6c1.2-1.1,2.2-2.1,3.2-3.3c1.1-1.4,1.9-2.7,2.7-4.1c0.6-1.1,1.2-2.1,1.6-3.2c1.2-2.7,1.9-5.4,2.6-8.1
			c1.1-5.4,1.2-10.9,0.8-16.2c-0.1-2.7-0.6-5.3-1.1-8c-0.3-1.3-0.4-2.6-0.9-3.9c0-0.2-0.2-0.3-0.2-0.6l0,0c-0.3-0.9-0.4-1.8-0.8-2.8
			c0-1.1,0-2.2-0.1-3.3c0-1.4,0-2.7-0.3-3.9l-0.4-3.9c0-0.8-0.3-1.4-0.3-2.1c-0.2-0.3-0.2-0.6-0.2-0.9l0,0c0-0.3-0.1-0.6-0.1-0.9
			c-0.2-1.1-0.4-2.1-0.8-3.1c-0.4-1.5-0.9-3-1.4-4.5c-0.4-1.2-0.9-2.4-1.3-3.8c-0.2-0.4-0.3-1.1-0.6-1.5l0,0c0-0.2,0-0.2-0.1-0.3
			l-0.8-1.8c-2.1-4.8-4.7-9.3-7.7-13.5c-0.3-0.4-0.6-0.9-1.1-1.4c-0.4-0.6-0.9-1.2-1.3-1.8c-0.8-1.1-1.7-1.9-2.6-2.8
			c-1.8-1.8-3.8-3.6-6-4.9c-0.4-0.3-0.9-0.3-1.4,0c-0.6,0.3-0.8,1.2-0.4,1.8l0,0c2.2,3.8,4.5,7.3,6.6,10.9c0.3,0.4,0.6,1.1,0.9,1.5
			c2.4,4.2,4.5,8.6,6.2,13.1l0.6,1.6c0.2,0.6,0.3,1.2,0.6,1.7c0.3,1.2,0.8,2.2,1.1,3.4c0.4,1.8,1.1,3.8,1.3,5.7
			c0.2,0.4,0.2,0.9,0.3,1.3c0.2,1.2,0.4,2.2,0.6,3.4l0.4,3.4c0.1,1.2,0.1,2.4,0.3,3.6c0,1.2,0.1,2.4,0.1,3.6v0.3
			c0,0.3,0,0.6,0.2,0.9c0.1,0.3,0.1,0.6,0.3,0.9l0,0c0.3,0.8,0.4,1.7,0.6,2.4c0.3,1.2,0.6,2.4,0.8,3.4c0.4,2.4,0.8,4.8,1.1,7.1
			c0.4,4.8,0.3,9.4-0.6,13.9c-0.2,0.9-0.4,1.8-0.6,2.7c-0.9,3.4-2.6,6.8-4.6,9.4c-0.3,0.3-0.4,0.6-0.8,0.9c-0.2,0.1-0.2,0.1-0.3,0.3
			l-0.3,0.3l0,0c-0.3,0.3-0.6,0.6-0.9,0.9c-0.8,0.8-1.6,1.5-2.6,1.9c-1.8,1.4-3.8,2.2-5.8,3.2c-1.1,0.3-2.1,0.8-3.3,1.1
			c-1.2,0.3-2.2,0.6-3.3,0.8l-3.4,0.4l-3.6,0.3c-1.1,0-2.2,0.1-3.3,0.1s-2.2,0-3.3,0c-2.6-0.1-4.9-0.3-7.3-0.9
			c-2.1-0.4-4.1-1.4-5.6-2.4c-0.8-0.6-1.4-1.2-1.8-1.8c-0.3-0.3-0.4-0.8-0.6-1.1c-0.1-0.4-0.3-0.8-0.4-1.2c-0.6-1.6-0.6-3.6-0.3-5.7
			c0-0.4,0.2-0.9,0.3-1.3c0.4,0.3,0.9,0.6,1.4,1.1c1.1,0.8,2.1,1.3,3.1,1.9c1.2,0.6,2.2,1.2,4.1,1.8c0.6,0.1,1.4,0.3,2.4,0.3l0,0
			l0,0c0.3,0,0.8,0,1.1-0.2c0.4-0.1,0.9-0.1,1.3-0.4c0.3-0.1,0.4-0.3,0.8-0.4c0.2-0.1,0.3-0.3,0.6-0.4c0.3-0.3,0.6-0.6,0.8-0.9
			c0.1-0.3,0.3-0.4,0.6-0.8c0.6-0.9,0.9-1.8,1.2-2.6c0.3-0.8,0.4-1.5,0.4-2.2c0.4-2.9,0.3-5.7-0.3-8.4c-0.6-2.7-1.8-5.4-3.6-7.8
			c-0.9-1.2-1.9-2.2-3.2-3.1c-0.6-0.4-1.2-0.9-1.8-1.2l-0.9-0.5l-0.8-0.3c-0.4-0.1-0.8-0.4-1.2-0.6c-1.4-0.8-2.7-1.7-3.8-2.7
			c-1.5-1.4-3-2.9-4.2-4.5c-5.2-6.4-8.2-14.6-8.9-22.9c-0.4-8.6,0.8-17.2,2.1-26.2l0,0c0-0.3-0.2-0.6-0.4-0.9
			c-0.2,0-0.2-0.1-0.3-0.1c-0.3,0-0.6,0.1-0.9,0.4c-4.8,7.9-7.3,17.6-7.1,27.1c0.2,4.8,0.9,9.8,2.6,14.4c1.5,4.6,3.9,9.1,6.9,13.1
			c1.5,1.9,3.1,3.9,4.9,5.6c1.9,1.8,4.2,3.3,6.3,4.5l0.8,0.4l0.6,0.3c0.3,0.3,0.8,0.4,1.1,0.8c0.2,0.2,0.4,0.3,0.6,0.6
			c0.3,0.3,0.8,0.8,1.1,1.2C388.2,419.8,388.8,421.3,389.2,423.1z M432.9,376c0-0.2-0.2-0.3-0.2-0.4c0-0.2-0.1-0.3-0.1-0.4
			c-0.2-0.3-0.2-0.6-0.3-0.9c0.1,0.3,0.1,0.6,0.3,0.9C432.7,375.5,432.9,375.8,432.9,376z"/>
		<path class="st8" d="M389.2,423.1c0.4,1.6,0.4,3.6,0.2,5.2c0,0.1,0,0.3,0,0.3c-0.3-0.2-0.8-0.3-1.1-0.4c-0.2,0-0.3-0.2-0.4-0.3
			c-0.8-0.4-1.5-0.9-2.1-1.4c-1.8-1.2-3.6-2.4-5.2-3.8l0,0c-0.1-0.1-0.4-0.3-0.8-0.4c-0.4-0.3-1.1-0.3-1.5-0.4
			c-1.5-0.1-3,0.8-3.8,2.1c-0.3,0.4-0.3,0.8-0.4,1.1c-0.1,0.3-0.3,0.8-0.4,1.1c-0.3,0.6-0.4,1.3-0.8,2.1c-0.4,1.4-0.8,2.9-1.1,4.2
			c-0.4,2.9-0.4,6.2,0.4,9.3c0.9,3.2,3.2,6.2,5.7,8.1c2.6,1.9,5.6,3,8.2,3.8c3.8,0.9,7.4,1.2,10.9,1.2c1.2,0,2.4,0,3.6,0
			c0.6,0,1.2,0,1.8-0.2c0.4,0,0.9-0.1,1.5-0.1c0.8,0,1.3-0.2,2.1-0.2c0.2,0,0.3,0,0.3,0c0.3,0,0.6-0.1,1.1-0.1
			c0.3,0,0.8-0.2,1.1-0.2c0.2,0,0.4,0,0.6-0.1c0.4,0,0.9-0.2,1.5-0.2c0.1,0,0.3,0,0.3-0.1c0.6-0.2,1.1-0.2,1.6-0.3
			c0.2,0,0.2,0,0.3,0c0.6-0.2,1.2-0.3,1.8-0.4c0.2,0,0.2,0,0.3-0.2c0.6-0.1,1.2-0.3,1.7-0.4c0.1,0,0.3-0.1,0.4-0.1
			c0.4-0.2,1.1-0.3,1.5-0.4c0,0,0,0,0.1,0c1.2-0.4,2.4-1.1,3.6-1.7c0.3-0.1,0.8-0.4,1.2-0.6c0.1,0,0.3-0.2,0.3-0.2
			c0.4-0.3,1.1-0.6,1.5-0.9s0.9-0.6,1.2-0.9c1.1-0.8,2.1-1.5,3-2.4c1.2-1.1,2.2-2.1,3.1-3.3c1.1-1.4,1.9-2.7,2.7-4.1
			c0.6-1.1,1.2-2.1,1.7-3.2c0.3-0.6,0.4-1.2,0.8-1.9c0.4-1.2,0.8-2.4,1.2-3.6c0.3-0.9,0.4-1.7,0.6-2.6c0.8-3.9,1.1-7.9,0.9-11.9
			c0-1.5-0.2-2.8-0.3-4.3c0-0.3,0-0.4,0-0.8c0-0.2,0-0.3,0-0.6c-0.3-2.2-0.6-4.4-1.1-6.6c0-0.1,0-0.3,0-0.4
			c-0.3-1.2-0.4-2.4-0.8-3.4c0-0.1-0.2-0.3-0.2-0.6c-0.3-0.9-0.4-1.8-0.8-2.9c0-1.1,0-2.2-0.1-3.3c0-1.3,0-2.7-0.3-3.9l-0.4-3.9
			c0-0.3,0-0.6-0.2-0.9c0-0.3-0.1-0.4-0.1-0.6c0-0.1-0.2-0.3-0.2-0.6c-0.1-0.3-0.1-0.6-0.1-0.9l0,0c0-0.3-0.2-0.6-0.2-0.9
			c-0.1-1.1-0.4-2.1-0.8-3.2c-0.4-1.5-0.9-3-1.3-4.5c-0.2-0.3-0.2-0.6-0.3-0.8c-0.3-0.9-0.8-1.9-1.1-2.8c-0.2-0.4-0.3-1.1-0.6-1.5
			l0,0c0-0.2,0-0.2-0.1-0.3l-0.8-1.8c-2.1-4.8-4.7-9.3-7.7-13.5c-0.3-0.4-0.6-0.9-1.1-1.4c-0.4-0.6-0.9-1.2-1.3-1.8
			c-0.8-1.1-1.7-1.9-2.6-2.8c-1.8-1.8-3.8-3.6-6-4.9c-0.4-0.3-0.9-0.3-1.4,0c-0.6,0.3-0.8,1.2-0.4,1.8l0,0c2.2,3.8,4.5,7.3,6.6,10.9
			c0.3,0.4,0.6,1.1,0.9,1.5c2.4,4.2,4.5,8.6,6.2,13.1l0.6,1.6c0.2,0.6,0.3,1.2,0.6,1.7c0.3,1.2,0.8,2.2,1.1,3.4
			c0.4,1.8,1.1,3.8,1.3,5.7c0.2,0.4,0.2,0.9,0.3,1.3c0.2,1.2,0.4,2.2,0.6,3.4l0.4,3.4c0.1,1.2,0.1,2.4,0.3,3.6
			c0,1.2,0.1,2.4,0.1,3.6v0.3c0,0.3,0,0.6,0.2,0.9c0.1,0.3,0.1,0.6,0.3,0.9c0.3,0.8,0.4,1.7,0.6,2.4c0.3,1.2,0.4,2.4,0.8,3.4v0.1
			v0.2c0.2,0.6,0.3,1.3,0.3,1.9c0.2,1.2,0.3,2.6,0.4,3.8c0,0.3,0.2,0.8,0.2,1.1c0.4,4.8,0.3,9.4-0.6,13.9l0,0
			c-0.1,0.9-0.4,1.8-0.6,2.6c-0.2,0.4-0.2,0.8-0.3,1.2c-0.9,3-2.4,5.9-4.4,8.2c-0.3,0.3-0.4,0.6-0.8,0.9c-0.1,0.1-0.1,0.1-0.3,0.3
			l-0.3,0.3l0,0c-0.3,0.3-0.6,0.6-0.9,0.9c-0.8,0.8-1.7,1.5-2.6,1.9c-1.8,1.4-3.8,2.2-5.9,3.2c-0.1,0-0.3,0.1-0.4,0.1h-0.1
			c-0.9,0.3-1.8,0.6-2.7,0.9c-1.2,0.3-2.2,0.6-3.3,0.8l-3.4,0.4l-3.6,0.3c-1.1,0-2.2,0.1-3.3,0.1s-2.2,0-3.3,0
			c-2.6-0.1-4.9-0.3-7.3-0.9c-2.1-0.4-4.1-1.4-5.6-2.4c-0.8-0.6-1.4-1.2-1.8-1.8c-0.3-0.3-0.4-0.8-0.6-1.1c-0.1-0.4-0.3-0.8-0.4-1.2
			c-0.6-1.6-0.6-3.6-0.3-5.7c0-0.4,0.2-0.9,0.3-1.3c0.4,0.3,0.9,0.6,1.4,1.1c1.1,0.8,2.1,1.3,3.1,1.9c1.2,0.6,2.2,1.2,4.1,1.8
			c0.6,0.1,1.2,0.3,2.1,0.3c0.1,0,0.3,0,0.3,0c0.3,0,0.8,0,1.1-0.2c0.4-0.1,0.9-0.1,1.3-0.4c0.3-0.1,0.4-0.3,0.8-0.4
			c0.2-0.1,0.3-0.3,0.6-0.4c0.3-0.3,0.6-0.6,0.8-0.9c0.1-0.3,0.3-0.4,0.6-0.8c0.6-0.9,0.9-1.8,1.2-2.6c0.3-0.8,0.4-1.5,0.4-2.2
			c0.4-2.9,0.3-5.7-0.3-8.4c-0.6-2.7-1.8-5.4-3.6-7.8c-0.9-1.2-1.9-2.2-3.2-3.1c-0.6-0.4-1.2-0.9-1.8-1.2l-0.9-0.4l-0.8-0.3
			c-0.4-0.1-0.8-0.4-1.2-0.6c-1.4-0.8-2.7-1.7-3.8-2.7c-1.5-1.4-3-2.9-4.2-4.5c-5.2-6.4-8.2-14.6-8.9-22.9
			c-0.4-8.6,0.8-17.2,2.1-26.2l0,0c0-0.3-0.2-0.6-0.4-0.9c-0.2,0-0.2-0.1-0.3-0.1c-0.3,0-0.6,0.1-0.9,0.4
			c-4.8,7.9-7.3,17.6-7.1,27.1c0.2,4.8,0.9,9.8,2.6,14.4c1.5,4.6,3.9,9.1,6.9,13.1c1.5,1.9,3.1,3.9,4.9,5.6c1.9,1.8,4.2,3.3,6.3,4.5
			l0.8,0.4l0.6,0.3c0.3,0.3,0.8,0.4,1.1,0.8c0.3,0.2,0.4,0.3,0.6,0.6c0.3,0.3,0.8,0.8,1.1,1.2C388.2,419.8,388.8,421.3,389.2,423.1z
			 M432.9,376c0-0.2-0.2-0.3-0.2-0.4c0-0.2-0.1-0.3-0.1-0.4c-0.2-0.2-0.2-0.4-0.3-0.8c0,0.3,0.1,0.4,0.3,0.8
			C432.7,375.5,432.9,375.8,432.9,376z"/>
	</g>
</g>
</svg>
