<?xml version="1.0" encoding="utf-8"?>
<!-- Generator: Adobe Illustrator 25.1.0, SVG Export Plug-In . SVG Version: 6.00 Build 0)  -->
<svg version="1.1" id="Calque_1" xmlns="http://www.w3.org/2000/svg" xmlns:xlink="http://www.w3.org/1999/xlink" x="0px" y="0px"
	 viewBox="0 0 500 500" style="enable-background:new 0 0 500 500;" xml:space="preserve">
<style type="text/css">
	.st0{fill:url(#SVGID_1_);}
	.st1{fill:#DADADA;}
	.st2{fill:#F6F6F6;}
	.st3{fill:url(#SVGID_2_);}
	.st4{opacity:0.26;fill:#1D1D1B;}
	.st5{fill:#FFFFFF;}
</style>
<g>
	<linearGradient id="SVGID_1_" gradientUnits="userSpaceOnUse" x1="75" y1="250" x2="425" y2="250">
		<stop  offset="0" style="stop-color:#005A5C"/>
		<stop  offset="0.2221" style="stop-color:#005F5A"/>
		<stop  offset="0.4687" style="stop-color:#006C54"/>
		<stop  offset="0.727" style="stop-color:#00824B"/>
		<stop  offset="0.9919" style="stop-color:#00A13D"/>
		<stop  offset="1" style="stop-color:#00A23D"/>
	</linearGradient>
	<circle class="st0" cx="250" cy="250" r="175"/>
	<g>
		<g>
			<path class="st1" d="M357.1,178.5l7.4-7.4c4-4,6.2-9.3,6.2-15c0-5.7-2.2-11-6.2-15l-5.6-5.6c-4-4-9.3-6.2-15-6.2s-11,2.2-15,6.2
				l-7.4,7.4c-20.5-13.7-45.1-21.7-71.5-21.7c-71,0-128.8,57.8-128.8,128.8S179,378.8,250,378.8S378.8,321,378.8,250
				C378.8,223.6,370.8,199,357.1,178.5L357.1,178.5z"/>
			<circle class="st2" cx="250" cy="250" r="115.4"/>
			<g>
				<linearGradient id="SVGID_2_" gradientUnits="userSpaceOnUse" x1="154.756" y1="250" x2="345.2454" y2="250">
					<stop  offset="0" style="stop-color:#005A5C"/>
					<stop  offset="0.2221" style="stop-color:#005F5A"/>
					<stop  offset="0.4687" style="stop-color:#006C54"/>
					<stop  offset="0.727" style="stop-color:#00824B"/>
					<stop  offset="0.9919" style="stop-color:#00A13D"/>
					<stop  offset="1" style="stop-color:#00A23D"/>
				</linearGradient>
				<circle class="st3" cx="250" cy="250" r="95.2"/>
			</g>
			<path class="st4" d="M190.7,250c0-46.4,33.3-85.1,77.3-93.5c-5.8-1.1-11.9-1.7-18-1.7c-52.5,0-95.2,42.7-95.2,95.2
				s42.7,95.2,95.2,95.2c6.1,0,12.2-0.6,18-1.7C224,335.1,190.7,296.4,190.7,250z"/>
		</g>
		<g>
			<path class="st5" d="M245,308.9v8.5c0,2.8,2.3,5,5,5c2.8,0,5-2.3,5-5v-8.5c10.7-1,21-5.3,29.3-12.3c2.1-1.8,2.4-5,0.6-7.1
				c-1.8-2.1-5-2.4-7.1-0.6c-6.5,5.5-14.4,8.9-22.8,9.9v-79.9c0-2.8-2.3-5-5-5c-2.8,0-5,2.3-5,5v79.9c-21.4-2.5-38.1-20.8-38.1-42.9
				c0-15.9,21.9-43.9,42.3-64.9c0.3-0.3,0.6-0.4,0.8-0.4s0.6,0.1,0.8,0.4c20.5,20.9,42.3,48.9,42.3,64.9c0,6.1-1.2,11.9-3.7,17.5
				c-1.1,2.5,0,5.5,2.6,6.6c2.5,1.1,5.5,0,6.6-2.6c3-6.8,4.6-14.1,4.6-21.6c0-22.4-28.3-54.7-45.2-71.9c-2.1-2.2-5-3.4-8-3.4
				c-3.1,0-5.9,1.2-8,3.4c-5.8,6-17.1,18-26.8,31.2c-12.2,16.6-18.4,30.3-18.4,40.7C196.8,283.6,218,306.4,245,308.9L245,308.9z"/>
			<path class="st5" d="M293.7,195.6c8,6.4,14.6,14.6,19,23.8c0.9,1.8,2.7,2.8,4.5,2.8c0.7,0,1.5-0.2,2.2-0.5
				c2.5-1.2,3.5-4.2,2.3-6.7c-5.1-10.5-12.7-19.9-21.8-27.2c-2.2-1.7-5.3-1.4-7.1,0.8C291.2,190.6,291.5,193.8,293.7,195.6
				L293.7,195.6z"/>
			<path class="st5" d="M178.2,285.1c5.1,10.5,12.7,19.9,21.8,27.2c0.9,0.7,2,1.1,3.2,1.1c1.5,0,2.9-0.6,3.9-1.9
				c1.7-2.2,1.4-5.3-0.8-7.1c-8-6.4-14.6-14.6-19-23.8c-1.2-2.5-4.2-3.5-6.7-2.3C178,279.6,177,282.6,178.2,285.1L178.2,285.1z"/>
		</g>
	</g>
</g>
</svg>
