<?xml version="1.0" encoding="utf-8"?>
<!-- Generator: Adobe Illustrator 25.4.1, SVG Export Plug-In . SVG Version: 6.00 Build 0)  -->
<svg version="1.1" id="Calque_1" xmlns="http://www.w3.org/2000/svg" xmlns:xlink="http://www.w3.org/1999/xlink" x="0px" y="0px"
	 viewBox="0 0 768 768" style="enable-background:new 0 0 768 768;" xml:space="preserve">
<style type="text/css">
	.st0{fill:#00A23D;stroke:#013D3D;stroke-width:6;stroke-miterlimit:10;}
	.st1{fill:#FFC3AB;}
	.st2{fill:#00A23D;}
	.st3{fill:none;stroke:#013D3D;stroke-width:6;stroke-miterlimit:10;}
	.st4{fill:#F5EDF2;}
	.st5{opacity:0.7;}
	.st6{fill:#FFFFFF;}
	.st7{opacity:0.3;}
	.st8{fill:#013D3D;}
	.st9{fill:none;stroke:#000072;stroke-width:10.4446;stroke-linecap:round;stroke-linejoin:round;stroke-miterlimit:10;}
	.st10{opacity:0.29;fill:#FFFFFF;enable-background:new    ;}
	.st11{fill:#F7F9FA;}
	.st12{fill:#DCE6EB;}
	.st13{fill:#B9C3CD;}
	.st14{fill:url(#SVGID_1_);}
	.st15{fill:#FFCB4A;}
	.st16{fill:#FFBB43;}
	.st17{opacity:0.16;}
	.st18{opacity:0.38;}
	.st19{opacity:0.44;}
</style>
<g id="Calque_9">
</g>
<g id="Calque_5">
</g>
<g id="Calque_3">
</g>
<g>
	<g id="Calque_2_00000096055104730070930660000003008872147902983607_">
		<g>
			<path class="st0" d="M737.8,495c0,10.6-4.8,36-48,43.8c-0.8,0.2-1.6,0.2-2.6,0.2c-6.2,0-13-3.2-18.4-6.4s-9.2-6.4-9.4-6.8
				c-0.8-0.8-1.2-2-1-3c0.2-1.2,1.2-2,2.4-2.2c1-0.2,1.8-0.4,2.8-0.4c-1-0.8-1.8-1.8-2.4-2.8c-12.8,4.8-34.4,8.4-53.2,10.8
				c-19.6,2.4-36.2,3.6-36.2,3.6l36.2-44l29.8-36c16-18,47,21,49,11c6-14,24-8.4,24.2-8.4C725,457.4,737.8,476.6,737.8,495z"/>
		</g>
		<g>
			<path class="st1" d="M701.8,454c6.4-1.6,16,6,22.4,12.6c6.6,6.6,23.6,37.4,2.8,50.6c-0.6-5,0.6-10.2,0.6-15.2
				c0.2-10-4-20-10.8-27.2c-7-7.2-16.6-11.6-26.6-12.6c-0.6-2.2-2.8-6.4,3.4-6.2"/>
		</g>
		<path class="st2" d="M737.8,495c0,10.6-4.8,36-48,43.8c-0.8,0.2-1.6,0.2-2.6,0.2c-6.2,0-13-3.2-18.4-6.4s-9.2-6.4-9.4-6.8
			c-0.8-0.8-1.2-2-1-3c0.2-1.2,1.2-2,2.4-2.2c1-0.2,1.8-0.4,2.8-0.4c-1-0.8-1.8-1.8-2.4-2.8c-12.8,4.8-34.4,8.4-53.2,10.8V488
			l29.8-36c16-18,47,21,49,11c6-14,24-8.4,24.2-8.4C725,457.4,737.8,476.6,737.8,495z"/>
		<path class="st3" d="M660.8,520.8c1-0.2,1.8-0.2,2.8-0.4c-1-0.8-1.8-1.8-2.4-2.8c-26,10-89.4,14.4-89.4,14.4l66-80
			c16-18,47,21,49,11c6-14,24-8.4,24.2-8.4c14.2,2.6,27,21.8,27,40.2c0,10.6-4.8,36-48,43.8c-0.8,0.2-1.8,0.2-2.6,0.2l0,0
			c-12.4,0-27.2-12.4-27.8-13c-0.8-0.8-1.2-2-1-3S659.6,521,660.8,520.8z"/>
		<g>
			<g>
				<path class="st1" d="M587.6,529.4c25.8-0.6,51.2-5,75.8-12.8c3.6-1.2,2-7-1.6-5.8c-24,7.8-49,12-74.2,12.6
					C583.8,523.6,583.8,529.6,587.6,529.4L587.6,529.4z"/>
			</g>
		</g>
		<g>
			<g>
				<path class="st1" d="M596.8,524.2c5.2-8.6,16.6-9,25.4-9c11.2,0.2,22.2,0.4,33.4,0.6c-0.2-2-0.6-4-0.8-5.8
					c-15.6,5.8-32,8.4-48.6,7.6c0.2,2,0.6,4,0.8,5.8c10-1.8,20-3.6,30.2-3.6c3.8,0,3.8-6,0-6c-12.8,0-25.8,1.6-38,5.6
					c0.8,1.8,1.6,3.6,2.4,5.4c4.6-2.8,9.6-4.2,15-4.2c3.8,0,3.8-6,0-6c-6.4-0.2-12.6,1.6-18,5c-2.8,1.8-1,6.6,2.4,5.4
					c11.8-3.8,24-5.2,36.4-5.4c0-2,0-4,0-6c-10.8,0-21.2,2-31.8,3.8c-3.4,0.6-2.4,5.8,0.8,5.8c17,0.8,34.2-1.8,50.2-7.8
					c3-1.2,2.8-5.8-0.8-5.8c-12.4-0.2-24.8-0.6-37.2-0.6c-10.2,0.2-21.2,2.6-27,11.8C589.4,524.4,594.6,527.4,596.8,524.2
					L596.8,524.2z"/>
			</g>
		</g>
	</g>
	<g>
		<g>
			<g>
				<g>
					<g>
						<g>
							<g>
								<g>
									<g>
										<g>
											<path class="st2" d="M732.2,244.6c-3.8-124.8-85.4-147.4-85.4-147.4c-50-64-134.8-25.4-136.2-24.8l0,0l0,0
												c-59-32.2-92.8,25.4-92.8,25.4l0,0c-82.8,21-104.6,73.4-100.4,106.8c2,15.6,9.4,27,19.2,29.4c0.4,0.2,0.8,0.2,1.2,0.2
												c-8.6,6.2-14.2,23.4-16,29.8c0,0,5.6,11.6,18,27.6c15.4,20.2,41.4,47.4,79.8,68l-0.4-0.2c-3.4-1.4-24.8-9.2-57-10.6
												c-38-1.6-91.2,6.2-148.2,44.6c-8,5.4-17.4,8.4-27,8.6c-32.4,1.2-105.2-1.6-151.8-45.2c0,0,2.8,90,80,152.8
												c34,27.6,82.4,50,151.4,57h1.6c4.4,8.2,11,15.6,20.8,21c0,0-17.2,63.6,36.4,85.4c-4-17.6,13.8-30,13.8-30
												c12.2,0.4,20.2,5.6,25.2,12.6c0,0,7.8-22.4,28.2-26.6c4-0.8,8.2,0.2,12.2,2.8c0,0,2-3,5.6-6c2.6-2.4,6.2-4.8,10.4-6.4
												L420,617c-6.6-6-13-7.6-18.6-7.8c-7.4-0.2-13,2-15.6,0c-4.4-3.4-10-14.8-10-14.8c4-4,7.8-7.8,11.2-11.6
												c23.2,3.2,44.8,3.2,64.6,0.8c36.6-4.2,67.8-16.4,94-32.4c9.4-5.8,18.2-12,26.4-18.6c6.4-5,12.2-10.4,17.8-15.6
												c5.8-5.6,11.4-11.4,16.4-17.2c13.4-15,24.2-30.2,32.6-43.6c1.4-2.2,2.6-4.2,3.8-6.4c13.6-22.6,19.8-38.8,19.8-38.8
												S736,369.4,732.2,244.6z M434.2,307.4c-12.6-20-14.2-40-14.4-43c0-0.2,0-0.4,0-0.4c2.8,1.4,5.6,2.8,8.8,4.4
												c0.2,0.2,0.6,0.2,0.8,0.4c0.4,0.2,1,0.4,1.4,0.8c1.6,0.8,3.2,1.6,5,2.4c0.6,0.4,1.4,0.6,2,1c0.2,0,0.4,0.2,0.6,0.2
												c2.4,1.2,4.6,2.2,7,3.2h0.2c3.8,1.6,7.6,3.2,11.4,4.6C450.8,300,434.2,307.4,434.2,307.4z M472.6,530
												C472.6,530.2,472.6,530.2,472.6,530c-1,4.2-4,12.8-14.6,16.2c-0.4-0.4-1-0.6-1.4-1l0,0c-10.2-8.8-3.4-24.2-2.2-26.4v-0.2
												l0,0l0,0l0,0c0.6,0.4,8.6,7,14,9c1.8,0.8,3.4,1,4.2,0.4C472.8,528,472.8,528.8,472.6,530z M519.6,320.4
												c-14.8-15.6-16.6-28.2-16.6-28.2c0.4,0,0.8,0.2,1.2,0.2c13.4,1.8,25.2,2,34,1.6C535.2,308.2,519.6,320.4,519.6,320.4z"/>
										</g>
									</g>
								</g>
							</g>
							<g>
								<g>
									<g>
										<path class="st2" d="M552.6,588c-3.6,3.2-5.4,7-6.2,9c-1.6-0.2-2.6-0.2-2.6-0.2C530,606,525,619.6,525,619.6l0,0
											c-18.2,1.2-21.6,22.6-21.6,22.6c-51.8-7.2-51.4-58.6-51.4-58.6l0,0c36.6-4.2,67.8-16.4,94-32.4c0,0-1.8,11.6-7,22
											C539,572.8,550.6,577.4,552.6,588z"/>
									</g>
								</g>
							</g>
						</g>
						<g>
							<g>
								<g>
									<g>
										<path class="st4" d="M472.8,528c0,0-1,13.8-14.8,18.4c-13.2-9.4-3.6-27.8-3.6-27.8S469,530.6,472.8,528z"/>
									</g>
								</g>
							</g>
							<g>
								<g>
									<g>
										<g>
											<g>
												<path class="st4" d="M358.4,705.4c-9.6-16.4-23.4-8.4-31.6-28.2c-0.6-1.4-1-3-1.4-4.4c-4-17.6,13.8-30,13.8-30
													c12.2,0.4,20.2,5.6,25.2,12.6c2.8,4,4.6,8.6,5.6,13.6C374.4,690.4,364.2,715.4,358.4,705.4z"/>
											</g>
										</g>
									</g>
									<g>
										<g>
											<g>
												<path class="st4" d="M418.8,699.6c0,0-12.8-31.6-48.8-30.6c-1-4.8-2.8-9.6-5.6-13.6c0,0,7.8-22.4,28.2-26.6
													c4-0.8,8.2,0.2,12.2,2.8c9.6,5.8,18.6,19.6,21.2,34.6C428.2,677.6,426.4,689.6,418.8,699.6z"/>
											</g>
										</g>
									</g>
									<g>
										<g>
											<g>
												<path class="st4" d="M466.6,650.6c0,0-29.2-2.8-40.6,15.6c-2.6-15-11.6-28.6-21.2-34.6c0,0,6.2-9,16-12.4
													c1.8-0.6,3.8-1.2,6-1.4C440.2,616.8,465.6,637.6,466.6,650.6z"/>
											</g>
										</g>
									</g>
									<g>
										<g>
											<g>
												<path class="st4" d="M605.8,642c0,0-21-8.6-32.2-6.4c-10,2-17.2-3.6-18.6-4.8l-0.2,0.2c-4-3.4-9.2-6.6-15.8-9
													c-5.4-2-10-2.8-14-2.4l0,0c0,0,5.2-13.4,18.8-22.8c0,0,1,0,2.6,0.2c7.4,1,29.2,4.8,44.8,20
													C597.6,623.2,603,631.4,605.8,642z"/>
											</g>
										</g>
									</g>
									<g>
										<g>
											<g>
												<path class="st4" d="M615.6,614.2l-23.4,3.8l-1-1c-15.6-15.4-37.4-19.2-44.8-20c0.8-2,2.6-5.8,6.2-9
													c4.2-3.8,10.8-6.6,21-4.6C596,588,615.6,614.2,615.6,614.2z"/>
											</g>
										</g>
									</g>
									<g>
										<g>
											<g>
												<path class="st4" d="M568.4,658c0,0-17-9.2-26.8-9.6c-19.4-0.6-38.2-6.4-38.2-6.4s3.4-21.4,21.6-22.6
													c4-0.2,8.6,0.4,14,2.4c6.6,2.6,11.8,5.6,15.8,9C569,643,568.4,658,568.4,658z"/>
											</g>
										</g>
									</g>
								</g>
							</g>
						</g>
						<g>
							<g>
								<g>
									<path class="st4" d="M605.8,642c0,0-21-8.6-32.2-6.4c-10,2-17.2-3.6-18.6-4.8l-0.2,0.2c-4-3.4-9.2-6.6-15.8-9
										c-5.4-2-10-2.8-14-2.4l0,0c0,0,5.2-13.4,18.8-22.8c0,0,1,0,2.6,0.2c7.4,1,29.2,4.8,44.8,20
										C597.6,623.2,603,631.4,605.8,642z"/>
								</g>
							</g>
						</g>
						<g>
							<g>
								<g>
									<g>
										<path class="st1" d="M268.2,566.6h-1.6c-69-7-117.4-29.4-151.4-57c26.6,11.2,77.6,26.2,145.6,15
											C261,524.8,259.2,549,268.2,566.6z"/>
									</g>
								</g>
							</g>
							<g>
								<g>
									<g>
										<path class="st1" d="M643.4,449.4c-1.2,2-2.6,4.2-3.8,6.4c-11.6,18.6-27.8,40.4-49.2,60.8c-5.6,5.4-11.6,10.6-17.8,15.6
											c-8.2,6.6-17,12.8-26.4,18.6c-26.2,16-57.4,28.2-94,32.4c-20,2.2-41.4,2.2-64.6-0.8c0,0,44-41.2,27.4-94.2
											c0,0,18.4-0.2,28.6-11.8c0,0,15,21.8,26.2,27.4c10.8,5.6,3.8,24.8,3.2,26.2l0,0l-4-2.6l-14-9l0,0l0,0l0,0v0.2
											c-1,2.4-7,17.6,2.2,26.4l0,0c4,3.8,10.8,6.4,22.2,6.4c40-0.4,64.4-20.4,49.2-75.2c0,0-3.2-36.2-13.2-50
											c0,0,59.4-61.8,103.8-38.8C636.6,396.8,642.6,422.2,643.4,449.4z"/>
									</g>
								</g>
							</g>
						</g>
						<g>
							<g>
								<g>
									<path class="st1" d="M419.6,356.8l-0.4-0.2c-3.4-1.4-24.8-9.2-57-10.6c-38-1.6-91.2,6.2-148.2,44.6c-8,5.4-17.4,8.4-27,8.6
										c-32.4,1.2-105.2-1.6-151.8-45.2c0,0,18.8,59.6,153.4,59c15.8,0,31.2-4.6,44.4-13c3.2-2,6.8-4.2,11-6.4
										c1.8-1,3.8-1.2,5.8-0.8c9,1.8,26.8-0.6,46.4-6.4c22-6.6,39.6-15.8,44.2-22.6c1.4-2,3.6-3.2,6-3.6
										C368,357,392.4,355.6,419.6,356.8z"/>
								</g>
							</g>
						</g>
						<g class="st5">
							<g>
								<g>
									<path class="st1" d="M387.2,451.6c0,0,43.8,64.6-11.2,142.6C376,594.2,465.8,513.6,387.2,451.6z"/>
								</g>
							</g>
						</g>
						<g class="st5">
							<g>
								<g>
									<path class="st6" d="M481,551.4c-1-1.6-2.2-3.2-3.2-5c2.8,0,5.8,0,8.8-0.2l4.8-0.4l4.6-0.6c1.6-0.2,3-0.6,4.4-1
										s2.8-1,4.4-1.4c2.8-1.2,5.4-2.4,7.8-4.2c1.2-0.8,2.2-1.8,3.4-2.6c0.6-0.4,1-1,1.6-1.6c0.4-0.6,1-1,1.4-1.6
										c3.6-4.4,5.8-10,7-16s1.4-12.4,0.8-18.6c-0.2-3.2-0.8-6.4-1.4-9.4c-0.4-1.6-0.6-3.2-1-4.6c-0.4-1.6-0.8-3.2-1.2-4.4
										c-0.2-0.4-0.2-0.8-0.2-1.2v-0.4c0-1.6-0.2-3.2-0.2-4.8s0-3.2-0.4-4.8l-0.6-4.6c-0.2-1.6-0.6-3-0.8-4.6
										c-0.4-3.2-1.4-6.2-2.2-9.2c-0.4-1.6-1-3-1.4-4.6c-0.2-0.8-0.4-1.6-0.8-2.2l-0.8-2.2c-2.2-6-5-11.8-8.2-17.4
										c-0.4-0.6-0.8-1.4-1.2-2c1.4-0.8,2.6-1.8,4-2.6c18.2,26,17.8,57.6,17.8,57.6C544.8,543.4,506,552.2,481,551.4z"/>
								</g>
							</g>
						</g>
						<g>
							<g>
								<g>
									<path class="st1" d="M663.2,410.6c111.4-200.4,6.6-279.4-25-297.6c-5-3-9.6-6.8-13.2-11.4
										c-32.4-40.2-112.8-29.4-114.4-29.2l0,0l0,0c1.4-0.6,86.2-39.2,136.2,24.8c0,0,81.6,22.8,85.4,147.4
										C736,369.4,663.2,410.6,663.2,410.6z"/>
								</g>
							</g>
						</g>
						<g>
							<g>
								<g class="st7">
									<g>
										<g>
											<path class="st8" d="M484,577.4c-10.2,2.6-20.8,4.6-32,6l0,0c0,0-0.4,51.6,51.4,58.6c0,0,3.2-19.6,19.4-22.4
												C496.8,612,487.4,591.4,484,577.4z"/>
										</g>
									</g>
								</g>
								<g>
									<g class="st7">
										<g>
											<g>
												<path class="st8" d="M404.8,631.8c-4-2.4-8.2-3.6-12.2-2.8c-20.4,4.2-28.2,26.6-28.2,26.6c-4.8-7.2-12.8-12.2-25.2-12.6
													c0,0-17.8,12.4-13.8,30c-53.6-21.6-36.4-85.4-36.4-85.4c-10-5.4-16.6-12.8-20.8-21h-1.6c-69-7-117.4-29.4-151.4-57
													c-77.2-62.8-80-152.8-80-152.8S58.8,490,227,531c7.6,1.8,15.6-1.4,19.6-8.2c5-8.2,12.2-18.2,18.8-20.8
													c0,0,2.2,53.2,31.8,74c7,5,10.8,13.2,9.8,21.8c-1,9-0.6,20.4,5.2,31c3,5.2,10,6.4,14.4,2.2c2-1.8,4.2-3.8,6.6-5.2
													c4-2.6,12.2,1.8,18.2,6.2c4.2,3,9.8,2,12.8-2.2c4.8-6.6,13.8-14,27.8-11.2C392.4,619,405.8,622.4,404.8,631.8z"/>
											</g>
										</g>
									</g>
									<g class="st7">
										<g>
											<g>
												<path class="st8" d="M606.8,499.4c-5.2,5.8-10.6,11.4-16.4,17.2c-5.6,5.4-11.6,10.6-17.8,15.6
													c-8.2,6.6-17,12.8-26.4,18.6c-26.2,16-57.4,28.2-94,32.4c-20,2.2-41.4,2.2-64.6-0.8c0,0,70-70.8,0-131
													c1.4,0.6,52.2,22,44.6,90C426.8,588.6,536.8,555.6,606.8,499.4z"/>
											</g>
										</g>
									</g>
									<g class="st7">
										<g>
											<g>
												<path class="st8" d="M444,418.2c0,0-33.2,56.6,7.2,84c0,0,1.4,2.8-2.6,8.8c-3.8,6-7,32.8,13.4,37.8
													c0,0,25.2-18.4,10.8-41.8c0,0-7-8.2-13.2-9.8C453.6,495.6,424,461.2,444,418.2z"/>
											</g>
										</g>
									</g>
									<g class="st7">
										<g>
											<g>
												<path class="st8" d="M485,403.2c-40-1.4-86.2-13.8-122.6-54.4c32.2,1.2,53.6,9.2,57,10.6l0.2,0.2h0.2
													c0,0,37.8,18,55.4,21.4l12.4,3C499,386.8,496.6,403.6,485,403.2z"/>
											</g>
										</g>
									</g>
									<g class="st7">
										<g>
											<g>
												<path class="st8" d="M580.6,288.4c-15.6,1.2-28.4,1.6-36.2,1.8c-29-5.2-101.6-20.6-135-46.4
													c-42.2-32.6-76.4-16.8-77.2-39c-1-22.4-7.2-69.6,104.6-111l-19,4.2c-82.8,21-104.6,73.4-100.4,106.8
													c2,15.6,9.4,27,19.2,29.4l1.2,0.2c-8.6,6.2-14.2,23.4-16,29.8c0,0,5.6,11.6,18,27.6c0-12.2,2.8-25.2,14-27.6
													c17.2-4,39.4,9.8,47.8,15.6c2.2,1.4,3.8,3.4,5.2,5.6c3.8,6.8,13,23,20.4,31.2c2.4,2.6,6,3.6,9.4,2.4
													c5.4-1.8,13.8-6,21-14.8c3.2-4,8.6-5.6,13.6-4.2c5.6,1.6,12.8,3.8,19,5.2c3,0.8,5.8,2.6,7.6,5.2
													c3.4,5,8.8,15.8,16.8,21.8c2.4,1.8,5.6,2,8.2,0.8c4.6-2.4,12.6-7.4,20-17.2c5.4-7.2,13.2-12.2,22-13.8
													c6-1.2,12-2.4,17.8-4C588,296.6,586.6,288,580.6,288.4z M338,234.2c0.2,0,0.2,0,0.4,0C338.2,234.2,338,234.2,338,234.2z
													"/>
											</g>
										</g>
									</g>
									<g class="st7">
										<g>
											<g>
												<circle class="st8" cx="360.6" cy="153.8" r="10"/>
											</g>
										</g>
									</g>
									<g class="st7">
										<g>
											<g>
												<circle class="st8" cx="472" cy="176.8" r="10.8"/>
											</g>
										</g>
									</g>
									<g class="st7">
										<g>
											<g>
												<path class="st8" d="M546.2,178.4c0,0,45.6-20.2,62.8,13.8c0,0-0.8-36.2-25.6-36.2S546.2,178.4,546.2,178.4z"/>
											</g>
										</g>
									</g>
								</g>
							</g>
							<g>
								<g class="st7">
									<g>
										<g>
											<path class="st8" d="M339.6,671.6c-0.6-1.4-1-3-1.4-4.4c-2.2-10,2.6-18.4,7.2-23.6c-1.8-0.4-3.8-0.6-6-0.6
												c0,0-17.8,12.4-13.8,30c0.4,1.4,0.8,2.8,1.4,4.4c8.4,19.8,22,11.8,31.6,28.2c3.2,5.6,7.8,0.4,10.4-9
												C359.4,684.4,347.2,689.8,339.6,671.6z"/>
										</g>
									</g>
								</g>
								<g class="st7">
									<g>
										<g>
											<path class="st8" d="M377,650.2c-1-2.4-2-4.6-3.4-6.6c0,0,1-2.6,3-6.2c-8.6,8-12.2,18-12.2,18c2.8,4,4.6,8.6,5.6,13.6
												c36-1,48.8,30.6,48.8,30.6c3.8-4.8,6-10.2,7.2-15.8c-4.4-7.6-16.4-24.2-39.8-26.4C382,657,378.6,654.2,377,650.2z"/>
										</g>
									</g>
								</g>
								<g>
									<g class="st7">
										<g>
											<g>
												<path class="st8" d="M416.4,625.8c0,0,2.4-3.6,6.8-7.2c-0.8,0.2-1.6,0.4-2.4,0.6c-10,3.6-16,12.4-16,12.4
													c9.6,5.8,18.6,19.6,21.2,34.6c2.8-4.4,6.6-7.6,10.6-10C433.4,643,425.2,631,416.4,625.8z"/>
											</g>
										</g>
									</g>
								</g>
								<g class="st7">
									<g>
										<g>
											<path class="st8" d="M561,641.8c-19.4-0.6-38.2-6.4-38.2-6.4s1.4-9,7.4-15.6c-1.8-0.2-3.6-0.4-5.4-0.2
												c-18.2,1.2-21.6,22.6-21.6,22.6s18.8,5.8,38.2,6.4c10,0.4,26.8,9.6,26.8,9.6s0.2-7.4-4.4-16C563,642,562,641.8,561,641.8
												z"/>
										</g>
									</g>
								</g>
								<g class="st7">
									<g>
										<g>
											<path class="st8" d="M579.2,624c-10,2-17.2-3.6-18.6-4.8l-0.2,0.2c-4-3.4-9.2-6.6-15.8-9c-4.8-1.8-8.8-2.6-12.4-2.6
												c-5,6.4-7,11.6-7,11.6l0,0c4-0.2,8.6,0.4,14,2.4c6.6,2.6,11.8,5.6,15.8,9l0.2-0.2c1.4,1.2,8.6,6.8,18.6,4.8
												c11.2-2.2,32.2,6.4,32.2,6.4c-1.6-6.2-4.2-11.4-7.2-16C592.2,624.4,584.4,622.8,579.2,624z"/>
										</g>
									</g>
								</g>
								<g class="st7">
									<g>
										<g>
											<path class="st8" d="M598.8,608.4l-3.4,0.2c-14.8-14.6-35.2-18.8-43.6-20c-3,3-4.8,6.4-5.4,8.4c7.4,1,29.2,4.8,44.8,20
												l1,1l23.4-3.8c0,0-2.2-3-6.2-7.2L598.8,608.4z"/>
										</g>
									</g>
								</g>
							</g>
						</g>
						<g>
							<g>
								<g>
									<g>
										<g>
											<g>
												<path class="st6" d="M337.8,234.2c-8.6,6.2-14.2,23.4-16,29.8c-0.4,1.4-0.6,2.2-0.6,2.2c-18-24.4-3.8-61.6-3.8-61.6
													C319.4,220.8,327.6,232.6,337.8,234.2z"/>
											</g>
										</g>
									</g>
									<g>
										<g>
											<g>
												<path class="st6" d="M456.8,281c-6.2,19-22.6,26.4-22.6,26.4c-13.6-21.4-14.4-42.6-14.4-43.4c5.6,2.8,11.6,5.8,18.6,9.2
													C444.6,276.2,450.8,278.6,456.8,281z"/>
											</g>
										</g>
									</g>
									<g>
										<g>
											<g>
												<path class="st6" d="M538.2,294c-2.8,14.2-18.6,26.4-18.6,26.4c-14.8-15.6-16.6-28.2-16.6-28.2
													C516.8,294,529,294.4,538.2,294z"/>
											</g>
										</g>
									</g>
								</g>
								<g>
									<g>
										<g class="st7">
											<g>
												<g>
													<path class="st8" d="M327.6,228.6c-6.2,6.2-10.6,18-12.8,24.8c1.4,4.4,3.4,8.8,6.4,12.8c0,0,0.2-0.8,0.6-2.2
														c1.8-6.2,7.4-23.6,16-29.8C334,233.6,330.6,231.6,327.6,228.6z"/>
												</g>
											</g>
										</g>
									</g>
									<g class="st7">
										<g>
											<g>
												<path class="st8" d="M446,276.6c-4.4,11-12.4,17.6-17.2,21c1.6,3.2,3.4,6.6,5.4,9.8c0,0,16.6-7.4,22.6-26.4
													C453.2,279.6,449.6,278.2,446,276.6z"/>
											</g>
										</g>
									</g>
									<g class="st7">
										<g>
											<g>
												<path class="st8" d="M527.2,294c-2.8,8.2-9.4,15.4-13.6,19.4c1.6,2.2,3.6,4.6,5.8,7c0,0,15.6-12.2,18.6-26.4
													C534.8,294.2,531.2,294.2,527.2,294z"/>
											</g>
										</g>
									</g>
								</g>
							</g>
							<g>
								<g class="st5">
									<g>
										<g>
											<path class="st6" d="M369.8,669c-1-4.8-2.8-9.6-5.6-13.6c-4.8-7.2-12.8-12.2-25.2-12.6c0,0-2.4,1.6-5.2,4.6
												c10.4,1.2,17.6,6,22,12.4c2.8,4,4.6,8.6,5.6,13.6c2.4,12,0.4,25-2.8,32.4C364.6,714.6,374.2,690,369.8,669z"/>
										</g>
									</g>
								</g>
								<g class="st5">
									<g>
										<g>
											<path class="st6" d="M426,666.2c-2.6-15-11.6-28.6-21.2-34.6c-4-2.4-8.2-3.6-12.2-2.8c-7.8,1.6-13.8,5.8-18.2,10.4
												c2.8-1.6,6.2-3,9.8-3.8c4-0.8,8.2,0.2,12.2,2.8c9.6,5.8,18.6,19.6,21.2,34.6c1.2,7.4,1,15-1.4,22
												c1.6,2.8,2.4,4.6,2.4,4.6C426.4,689.6,428.2,677.6,426,666.2z"/>
										</g>
									</g>
								</g>
								<g class="st5">
									<g>
										<g>
											<path class="st6" d="M426.8,618c-2.2,0.2-4.2,0.6-6,1.4c-10,3.6-16,12.4-16,12.4c0.4,0.2,1,0.6,1.4,0.8
												c2.4-2,5.6-4,9-5.2c1.8-0.6,3.8-1.2,6-1.4c10.8-1,29.4,12.4,36.6,24.4c5.2-0.4,8.6,0,8.6,0
												C465.6,637.6,440.2,616.8,426.8,618z"/>
										</g>
									</g>
								</g>
								<g class="st5">
									<g>
										<g>
											<path class="st6" d="M554.8,631c-4-3.4-9.2-6.6-15.8-9c-5.4-2-10-2.8-14-2.4c-11,0.8-16.6,9-19.4,15.2
												c3.2-3.6,7.8-6.6,14.2-7.2c4-0.2,8.6,0.4,14,2.4c6.6,2.6,11.8,5.6,15.8,9c5.8,5,9.2,10.4,11.2,15.2
												c4.4,2,7.6,3.8,7.6,3.8S569,643,554.8,631z"/>
										</g>
									</g>
								</g>
								<g class="st5">
									<g>
										<g>
											<path class="st6" d="M538.8,604.8c0,0,1,0,2.6,0.2c7.4,1,29.2,4.8,44.8,20c3.8,3.8,7.4,8.2,10.2,13.6
												c5.6,1.6,9.6,3.4,9.6,3.4c-3-10.6-8.4-18.8-14.6-25c-15.6-15.4-37.4-19.2-44.8-20c-1.6-0.2-2.6-0.2-2.6-0.2
												c-10.4,7-15.8,16.4-17.8,20.6C529,613.2,533.2,608.6,538.8,604.8z"/>
										</g>
									</g>
								</g>
								<g class="st5">
									<g>
										<g>
											<path class="st6" d="M548.6,595.2c4.2-3.8,10.8-6.6,21-4.6c15.6,3.2,29.8,17,37,25l9-1.4c0,0-19.6-26.2-42-30.8
												c-10.2-2.2-16.8,0.8-21,4.6c-3.6,3.2-5.4,7-6.2,9c0.2,0,0.2,0,0.4,0C547.4,596.4,548,595.8,548.6,595.2z"/>
										</g>
									</g>
								</g>
							</g>
						</g>
						<g>
							<g>
								<g>
									<g>
										<circle class="st1" cx="301" cy="424" r="25"/>
									</g>
								</g>
							</g>
							<g>
								<g>
									<g>
										<ellipse class="st1" cx="659" cy="263.9" rx="25" ry="25"/>
									</g>
								</g>
							</g>
							<g>
								<g>
									<g>
										<ellipse class="st1" cx="341.8" cy="406.1" rx="13.8" ry="13.8"/>
									</g>
								</g>
							</g>
							<g>
								<g>
									<g>
										<circle class="st1" cx="672.8" cy="213.6" r="13.8"/>
									</g>
								</g>
							</g>
							<g>
								<g>
									<g>
										<circle class="st1" cx="142.8" cy="437.8" r="13.8"/>
									</g>
								</g>
							</g>
							<g>
								<g>
									<g>
										<ellipse class="st1" cx="341.9" cy="440" rx="9.2" ry="9.2"/>
									</g>
								</g>
							</g>
							<g>
								<g>
									<g>
										<ellipse class="st1" cx="376" cy="558" rx="9.2" ry="9.2"/>
									</g>
								</g>
							</g>
							<g>
								<g>
									<g>
										<circle class="st1" cx="255.6" cy="412.4" r="5.8"/>
									</g>
								</g>
							</g>
							<g>
								<g>
									<g>
										<circle class="st1" cx="162.4" cy="449.2" r="5.8"/>
									</g>
								</g>
							</g>
							<g>
								<g>
									<g>
										<circle class="st1" cx="368.8" cy="577.4" r="5.8"/>
									</g>
								</g>
							</g>
							<g>
								<g>
									<g>
										<circle class="st1" cx="497" cy="443.4" r="5.8"/>
									</g>
								</g>
							</g>
							<g>
								<g>
									<g>
										<circle class="st1" cx="387.2" cy="307.2" r="5.8"/>
									</g>
								</g>
							</g>
						</g>
					</g>
					<g>
						<g>
							<g>
								<g>
									<g>
										<path class="st8" d="M556.8,293.4c-4.6,1.8-9.2,2.8-14,3.8c-2.4,0.4-4.8,0.6-7.2,1c-2.4,0.2-4.8,0.4-7.2,0.6
											c-9.6,0.4-19.2-0.4-28.6-1.6l-7.2-1c-2.4-0.4-4.8-1-7-1.4l-3.6-0.6c-1.2-0.2-2.4-0.6-3.6-0.8l-7-1.8c-2.4-0.6-4.6-1.4-7-2
											l-3.4-1c-1.2-0.4-2.2-0.8-3.4-1.2l-6.8-2.4l-3.4-1.2l-3.4-1.4c-4.4-2-8.8-3.8-13-5.8s-8.4-4-12.8-6.2
											c-8.4-4.2-16.8-8.6-25.2-12.8c-8.2-4.4-16.4-8.8-24.6-11.8c-4-1.4-8.2-2.8-12.4-3.4c-4.2-0.6-8.6-1-13.2-1.2l-3.4-0.2
											c-0.8,0-1.6,0-2.4-0.2s-1.6-0.2-2.4-0.4c-3.2-0.8-6-2.2-8.4-4c-4.8-3.6-8-8.4-10.4-13.4c-4.6-9.8-5.6-20.2-5-30.4
											c0.6-10.2,3.2-20,7.4-29.2c4-9.2,9.6-17.6,16.2-25c13.2-14.8,30-25.6,47.6-33.4c8.8-3.8,18-7,27.2-9.6
											c2.2-0.6,4.6-1.2,7-1.8s4.6-1,7-1.2s4.8-0.4,7.2-0.2s5,0.4,7.4,1.2c0.4,0,0.6,0.4,0.4,0.8c0,0.2-0.2,0.2-0.2,0.4l0,0
											c-2.2,1.6-4.2,2.6-6.4,3.6s-4.4,2-6.6,2.6c-4.4,1.6-8.8,2.6-13.2,4c-8.8,2.6-17.4,5.8-25.6,9.6
											c-16.4,7.6-31.8,18-43.2,31.4c-5.8,6.8-10.6,14.2-14,22.2s-5.6,16.6-6.2,25.2c-0.4,8.6,0.6,17.2,4.2,24.4
											c1.6,3.6,4,6.8,6.6,8.6c1.4,1,2.6,1.6,4,2c0.4,0,0.6,0.2,1,0.2h1.2l3.6,0.2c4.8,0.2,9.8,0.6,14.8,1.4s10,2.2,14.6,4
											c9.4,3.6,17.6,8.2,26,12.6c8.2,4.4,16.6,8.8,24.8,13c4.2,2.2,8.4,4.2,12.4,6.2c4.2,2.2,8.4,4,12.4,5.8l3.2,1.4l3.2,1.2
											l6.4,2.4c1,0.4,2.2,0.8,3.2,1.2l3.2,1c2.2,0.6,4.4,1.4,6.6,2l6.6,1.8c1.2,0.2,2.2,0.6,3.4,0.8l3.4,0.8
											c2.2,0.4,4.4,1,6.8,1.4l6.8,1c18.2,2.6,36.4,3.4,55,4.4l0,0c0.6,0,1.2,0.6,1.2,1.4C557.6,293,557.4,293.4,556.8,293.4z"/>
									</g>
								</g>
							</g>
							<g>
								<g>
									<g>
										<path class="st8" d="M423.6,590.2c-12.6,0-25.4-0.8-38.4-2.6l1.4-10.4c81.6,11.2,152.2-13.4,209.4-73.6
											c43-45.2,62-94.4,62.2-94.8c0.4-1.2,1.2-2,2.4-2.6c0.2,0,17.8-10.4,34.6-35.2c15.6-23,33.8-63.4,31.8-126
											c-1.6-49.4-16.2-89.6-42.2-116.6c-19.6-20.2-39.2-26-39.4-26c-1-0.4-2-1-2.6-1.8c-19.6-25.2-47.4-36.8-82.2-34.6
											C534,67.8,513.2,77.2,513,77.4c-1.4,0.6-3.2,0.6-4.6-0.2C454.6,48,424,98.4,422.6,100.6l-9-5.2c0.4-0.6,36.2-60,97.4-28.6
											c6.6-2.6,25.4-9.6,48.6-11.2C597.2,53,628.4,66,650,92.8c5.6,1.8,23.6,9,41.8,27.8c19.6,20,43.6,57.8,45.6,124
											c2,65.8-17.4,108.6-34,132.8c-15.4,22.4-31,33.6-36,36.8c-3.8,9.2-23.2,54-63.4,96.4c-26.2,27.4-55.6,48.2-87.6,61.6
											C487.2,584.2,456.2,590.2,423.6,590.2z"/>
									</g>
								</g>
							</g>
							<g>
								<g>
									<g>
										<path class="st8" d="M321.2,271.4c-1.6,0-3.2-0.8-4.2-2.2c-19.4-26.4-5-65-4.4-66.6l9.8,3.8l-4.8-1.8l4.8,1.8
											c-0.2,0.2-9.4,25.4-2.4,46.2c3.2-8,8-18,14.8-22.8l6.2,8.4c-7.4,5.2-13,22.8-14.6,29c-0.4,2-2,3.4-4,3.8
											C321.8,271.4,321.6,271.4,321.2,271.4z"/>
									</g>
								</g>
							</g>
							<g>
								<g>
									<g>
										<path class="st8" d="M434.2,312.6c-1.8,0-3.4-0.8-4.4-2.4c-14.4-22.6-15.2-45-15.2-46c0-2.8,2.2-5.2,5-5.4h0.2
											c2.8,0,5.2,2.2,5.2,5c0,0.2,0.8,17.8,11,36.4c4.6-3.2,12.4-9.8,15.8-20.8c0.8-2.8,3.8-4.2,6.6-3.4
											c2.8,0.8,4.2,3.8,3.4,6.6c-6.8,21-24.8,29.2-25.4,29.6C435.6,312.4,435,312.6,434.2,312.6z"/>
									</g>
								</g>
							</g>
							<g>
								<g>
									<g>
										<path class="st8" d="M519.6,325.6c-1.4,0-2.8-0.6-3.8-1.6c-15.6-16.6-18-30.4-18-31l10.4-1.6c0,0.2,1.8,9.4,12,21.6
											c4.4-4.2,11.4-12,13-20.2l10.2,2c-3.2,15.8-19.8,29-20.4,29.6C521.8,325.2,520.6,325.6,519.6,325.6z"/>
									</g>
								</g>
							</g>
							<g>
								<g>
									<g>
										<path class="st8" d="M326,262c1,1.6,2,3.4,3,5s2.2,3.4,3.4,5c2.2,3.4,4.6,6.6,7,9.8c2.4,3.2,5,6.4,7.4,9.6
											c2.6,3.2,5.2,6.2,7.8,9.2c5.4,6,11,11.8,17,17.2l4.4,4c1.4,1.4,3,2.6,4.6,4s3,2.6,4.6,3.8c1.6,1.2,3.2,2.6,4.8,3.8
											c12.8,9.8,26.4,18.6,40.8,25.8l5.4,2.6c1,0.4,1.8,1,2.8,1.4l2.8,1.2l5.4,2.6l5.6,2.6c3.6,1.8,7.4,3.4,11.2,5.2
											c3.8,1.8,7.6,3.4,11.2,5.4l0,0c0.2,0.2,0.2,0.4,0.2,0.6s-0.2,0.2-0.4,0.2c-8.4-0.4-16.8-1.6-25-3.8
											c-8.2-2-16-5.2-23.8-8.6c-15.4-7-30-15.8-43.4-26c-6.8-5-13.2-10.6-19.4-16.4c-6.2-5.8-12-11.8-17.6-18.4
											c-5.6-6.4-10.6-13-15.4-20c-2.4-3.4-4.6-7-6.8-10.8c-1-1.8-2.2-3.6-3.2-5.6s-2-3.8-3-5.8c-1-2.4,0-5,2.2-6
											C322.2,259,324.6,259.8,326,262L326,262z"/>
									</g>
								</g>
							</g>
							<g>
								<g>
									<g>
										<path class="st8" d="M266.6,571.8c-0.2,0-0.4,0-0.6,0c-52.4-5.4-97.2-19.8-133.6-43.2c-29.2-18.8-53-43.2-70.6-72.8
											C31.8,405.6,30,359,30,357c0-2.2,1.2-4,3-5c2-0.8,4.2-0.4,5.8,1c45.8,42.8,118.8,45,148,43.8c8.8-0.4,17.2-3,24.4-7.8
											c58-39.2,112-46.4,147.2-45.6c38.2,0.8,62.4,10.8,63.6,11.4c2.6,1.2,4,4.2,2.8,6.8c-1.2,2.6-4.2,4-6.8,2.8l0,0
											c-0.2,0-23.8-9.8-60.2-10.6c-33.4-0.6-85,6.4-140.6,43.8c-8.8,5.8-19,9.2-29.8,9.6c-28.6,1-97-0.8-145.4-38
											c2.4,17,9.6,48.8,29.2,81.6c38.6,64,104.6,101.2,196.2,110.6c2.8,0.2,5,2.8,4.6,5.8C271.6,569.8,269.4,571.8,266.6,571.8z
											"/>
									</g>
								</g>
							</g>
							<g>
								<g>
									<g>
										<path class="st8" d="M265.8,502.2c-1.2,8-1.8,15.8-2,23.6c0,4,0.2,7.8,0.6,11.6s1,7.6,1.8,11.4c1.8,7.4,4.8,14.2,9,20
											s10,10.4,16.2,14l0,0h0.2c2,1.2,3,3.6,2.4,5.8c-0.2,0.8-0.4,1.8-0.6,2.8s-0.4,2-0.6,3c-0.4,2-0.6,4-0.8,6
											c-0.4,4-0.6,8-0.4,12c0.2,8,1.4,16,4.2,23.4c1.4,3.6,3,7.2,5,10.4s4.4,6.4,7.2,9c2.8,2.8,5.8,5.2,9,7.2
											c3.2,2.2,6.8,3.8,10.4,5.4l0.2,0.2c2.6,1.2,3.8,4.2,2.8,6.8c-1.2,2.6-4.2,3.8-6.8,2.8c-4.2-1.8-8.4-3.8-12.2-6.2
											c-4-2.4-7.6-5.4-10.8-8.6c-3.4-3.2-6.2-7-8.6-10.8c-2.4-4-4.4-8.2-6-12.4c-3.2-8.6-4.6-17.6-4.8-26.6
											c-0.2-4.4,0-9,0.6-13.4c0.2-2.2,0.6-4.4,0.8-6.6c0.2-1.2,0.4-2.2,0.6-3.4s0.4-2.2,0.8-3.4l2.6,6
											c-7.6-4.2-14.4-10.2-19.2-17.6c-2.4-3.6-4.4-7.6-5.8-11.6s-2.4-8.2-3-12.4c-1.2-8.4-1-16.8,0.2-24.8c0.6-4,1.4-8,2.6-12
											s2.4-7.8,4.2-11.4c0-0.2,0.2-0.2,0.4-0.2C265.8,502,265.8,502.2,265.8,502.2L265.8,502.2z"/>
									</g>
								</g>
							</g>
							<g>
								<g>
									<g>
										<path class="st8" d="M389.6,450.6c5.8,4,10.8,9,15.2,14.4c1.2,1.4,2.2,2.8,3.2,4.2s2,3,3,4.4c1,1.6,1.8,3,2.6,4.6l1.2,2.4
											l1.2,2.4c3,6.6,5,13.6,6,20.6c1,7.2,1,14.4,0,21.6c-2,14.4-8,27.8-15.4,39.8c-1.8,3-4,5.8-6,8.8c-2.2,2.8-4.4,5.6-6.6,8.4
											c-2.4,2.6-4.6,5.4-7,8l-7.4,7.6l1-6l0,0c1.8,3.8,4,7.6,6.4,10.8c0.6,0.8,1.2,1.4,1.6,2c0.2,0,0.2,0.2,0.4,0.2
											c0.2,0.2,0,0-0.2,0l-0.2-0.2c-0.4-0.2-0.2,0,0,0c0.4,0,1.4,0,2.4-0.2l3.4-0.4c4.8-0.6,10.2-0.6,15.4,1
											c5.2,1.4,9.8,4.4,13.6,8c2.2,2,2.2,5.2,0.4,7.4c-2,2.2-5.2,2.2-7.4,0.4l0,0c-2.8-2.6-6-4.6-9.6-5.6c-3.4-1-7.2-1-11.4-0.6
											L392,615c-1.2,0.2-2.6,0.2-4.4,0.2c-1-0.2-2-0.2-3.4-0.8c-0.4-0.2-0.6-0.4-1-0.6c-0.4-0.2-0.8-0.4-0.8-0.6l-1-0.8
											c-1.2-1-2-2.2-2.8-3.2c-3-4.2-5.2-8.2-7.4-12.6l0,0c-1-2-0.6-4.6,1-6c9.6-9.4,18.6-19.2,26-30.4c7.2-11,13-23.2,15.4-36
											c1.2-6.4,1.4-13,0.8-19.4c-0.6-6.4-2.2-12.8-4.6-19c-4.8-12.2-12.4-23.8-22-33l0,0c-0.4-0.4-0.4-1.2,0-1.8
											C388.4,450.2,389,450.2,389.6,450.6z"/>
									</g>
								</g>
							</g>
							<g>
								<g>
									<g>
										<path class="st8" d="M361.4,712.8c-2.6,0-5.4-1.2-7.4-4.8c-3.6-6.2-7.6-7.8-12.6-10c-6.6-2.8-14-6.2-19.4-18.6
											c-7.8-18.8,6-34.8,14.2-40.6c1-0.6,2-1,3.2-1c19.8,0.8,33,12.8,36.2,33.2c2.4,16.2-2,38.2-11.4,41.6
											C363.2,712.8,362.4,712.8,361.4,712.8z M340.8,648.2c-4,3.2-14.8,13.8-9.4,27c3.6,8.8,8.2,10.6,13.8,13.2
											c5,2.2,11.2,4.8,16.2,12.4c3-5.6,6.4-20.8,2.2-34.2C360.4,655.4,352.6,649.2,340.8,648.2z"/>
									</g>
								</g>
							</g>
							<g>
								<g>
									<g>
										<path class="st8" d="M418.8,704.8c-0.2,0-0.4,0-0.8,0c-1.8-0.2-3.4-1.4-4.2-3.2c-0.4-1.2-12-28.2-43.8-27.2
											c-3,0-5.2-2.2-5.4-5s2.2-5.2,5-5.4c26.8-0.8,42,15.2,49,25.4c5.6-13.2,2-29.2-5-40.8c-6-9.6-14.2-15.6-20.2-14.4
											c-17.2,3.4-24.2,23-24.4,23.2c-1,2.8-4,4.2-6.6,3.2c-2.8-1-4.2-4-3.2-6.6c0.4-1,9-25.2,32.2-30
											c10.6-2.2,22.4,5.2,31.2,19.2c10.4,16.6,14.4,41.6,0.2,59.8C421.8,704,420.4,704.8,418.8,704.8z"/>
									</g>
								</g>
							</g>
							<g>
								<g>
									<g>
										<path class="st8" d="M426,671.4c-1,0-1.8-0.2-2.8-0.8c-2.4-1.6-3.2-4.8-1.6-7.2c9.2-14.6,27.2-17.8,37.6-18.2
											c-6-10.2-23.2-22.8-32-22.2c-10.6,0.8-18,11.4-18.2,11.6c-1.6,2.4-4.8,3-7.2,1.4s-3-4.8-1.4-7.2c0.4-0.6,10.2-14.8,26-16
											c16-1.4,44,21.8,45.4,37.4c0.2,1.6-0.4,3-1.6,4.2c-1,1-2.6,1.6-4.2,1.4c-0.2,0-26-2.2-35.6,13.2
											C429.6,670.6,427.8,671.4,426,671.4z"/>
									</g>
								</g>
							</g>
							<g>
								<g>
									<g>
										<path class="st8" d="M551.2,551.8c-0.2,1.6-0.4,2.8-0.8,4.2c-0.4,1.4-0.8,2.8-1.2,4c-0.8,2.6-2,5.2-3.2,7.8
											s-2.8,5-4.4,7.2c-1.8,2.2-3.6,4.4-6,6.2c-0.6,0.6-1.6,0.4-2.2-0.2c-0.4-0.4-0.4-1-0.2-1.6l0,0c1-2.4,1.8-4.8,2.6-7.4
											c0.6-2.4,1.4-4.8,2-7.4l1.6-7.4c0.6-2.4,1-5,1.6-7.2v-0.2c0.8-2.8,3.6-4.4,6.4-3.8C549.8,546.8,551.4,549.2,551.2,551.8z"
											/>
									</g>
								</g>
							</g>
							<g>
								<g>
									<g>
										<path class="st8" d="M547.6,589.4c-1.2-7.8-10.4-11.6-10.6-11.6l3.8-9.8c0.6,0.2,15,5.8,17.2,19.8L547.6,589.4z"/>
									</g>
								</g>
							</g>
							<g>
								<g>
									<g>
										<path class="st8" d="M593,623.2l-1.6-10.4l14.2-2.4c-7-7.6-19.8-19.2-33-22c-16.8-3.6-21.2,9.8-21.6,11.2l-10-2.8
											c2.4-8.4,12.4-23.2,33.8-18.6c24,5,44.2,31.6,45,32.8c1,1.4,1.4,3.4,0.6,5c-0.6,1.6-2.2,3-4,3.2L593,623.2z"/>
									</g>
								</g>
							</g>
							<g>
								<g>
									<g>
										<path class="st8" d="M605.8,647.2c-0.6,0-1.4-0.2-2-0.4c-5.4-2.2-21.4-7.6-29.2-6c-13.8,2.8-23.2-6-23.4-6.4l7.2-7.6
											c0.2,0.2,6,5.4,14.2,3.8c7-1.4,16.8,0.6,24.4,2.8c-13.2-25.4-44-30.6-51.6-31.4c-11,8.2-15.4,19-15.4,19.2l-9.8-3.8
											c0.2-0.6,5.8-15,20.8-25.2c1-0.6,2-1,3.2-0.8c0.6,0,54,3.6,66.8,49.2c0.6,2,0,4-1.6,5.2
											C608.4,646.8,607.2,647.2,605.8,647.2z"/>
									</g>
								</g>
							</g>
							<g>
								<g>
									<g>
										<path class="st9" d="M503.4,642"/>
									</g>
								</g>
							</g>
							<g>
								<g>
									<g>
										<path class="st8" d="M568.4,663.2c-0.8,0-1.8-0.2-2.6-0.6c-4.4-2.4-17.4-8.8-24.6-9C522.6,653,505,648,502,647
											c-55.2-7.8-55.6-63.2-55.6-63.8c0-2.8,2.4-5.2,5.2-5.2l0,0c2.8,0,5.2,2.4,5.2,5.2c0,1.8,0.4,44.2,42.4,52.8
											c1.8-5.4,5.8-13.8,13.8-18.4c7.6-4.4,16.8-4.6,27.4-0.6c33.6,12.6,33,40,32.8,41.2c0,1.8-1,3.4-2.6,4.4
											C570.2,663,569.4,663.2,568.4,663.2z M509.8,638.4c6.6,1.6,19.2,4.4,32,4.8c6,0.2,13.6,3,19.6,5.6c-2.6-7-9-16.2-24.2-22
											c-7.6-2.8-13.8-3-18.4-0.2C513.8,629.4,511.2,634.6,509.8,638.4z"/>
									</g>
								</g>
							</g>
							<g>
								<g>
									<g>
										<path class="st8" d="M458,551.6c-2.2,0-4.2-1.4-5-3.6c-1-2.8,0.6-5.6,3.4-6.6c10.2-3.4,11.2-13.4,11.2-13.8
											c0.2-2.8,2.8-5,5.6-4.8s5,2.6,4.8,5.6c0,0.8-1.4,17.4-18.4,23C459.2,551.6,458.6,551.6,458,551.6z"/>
									</g>
								</g>
							</g>
							<g>
								<g>
									<g>
										<path class="st8" d="M543.4,177c0.8-2.2,1.6-4,2.6-6s2-3.8,3.4-5.6c2.4-3.6,5.4-7,9.2-9.8c3.6-2.8,8-5.2,12.8-6.4
											c4.8-1.4,10.2-1.4,15-0.2c1.2,0.4,2.4,0.6,3.6,1c1.2,0.4,2.2,0.8,3.4,1.4c2.2,1,4.4,2.2,6.4,3.8c4,3,7.2,7,9.4,11.2
											s3.4,8.8,3.6,13.2c0.2,2.2,0.2,4.4,0,6.6s-0.6,4.2-1.2,6.4c-0.4,1.4-1.8,2-3.2,1.6c-0.8-0.2-1.4-1-1.6-1.6l-0.2-0.4
											c-0.2-0.8-0.4-1.8-0.8-2.6c-0.2-1-0.4-1.8-0.8-2.8c-0.6-1.8-1.2-3.6-1.8-5.2c-1.4-3.2-3-6.2-5-8.8c-1-1.2-2-2.4-3.2-3.4
											s-2.2-2-3.6-2.6c-1.2-0.8-2.6-1.4-4-2s-3-1-4.4-1.4c-0.8-0.2-1.4-0.4-2.2-0.4l-1-0.2h-1c-1.4,0-2.8,0-4.2,0.4
											c-2.8,0.6-5.8,1.6-8.8,3.2c-5.8,3.2-11.6,8.2-16.8,13.6l-0.2,0.2c-1.2,1.2-3.2,1.4-4.6,0C543.2,179.4,543,178,543.4,177z"
											/>
									</g>
								</g>
							</g>
						</g>
						<g>
							<g>
								<g>
									<path class="st8" d="M478.6,167c2.4,1.2,4.2,3,5.6,5.2c0.8,1.2,1.2,2.4,1.6,4c0.4,1.4,0.4,3.2,0,4.8
										c-0.4,1.6-1.4,3.2-2.4,4.4c-1.2,1.2-2.4,2-3.8,2.6c-1.4,0.6-2.6,0.8-4,0.8c-0.6,0-1.4,0-2-0.2s-1.4-0.4-2-0.6
										c-0.4-0.2-0.6-0.6-0.4-1c0,0,0,0,0-0.2l0,0c1.6-2.2,3.2-3.6,4.4-5c0.6-0.6,1-1.2,1.2-1.6c0.4-0.4,0.6-0.8,0.8-1.4
										c0.4-0.8,0.4-2.4,0.2-4.2c-0.2-1.8-0.8-3.8-1.2-6v-0.2c-0.2-0.8,0.4-1.4,1.2-1.6C478,167,478.4,167,478.6,167z"/>
								</g>
							</g>
						</g>
						<g>
							<g>
								<g>
									<path class="st8" d="M365.4,146.2c-1.8,1.4-3.4,2.8-4.8,4s-2.2,2.4-2.4,3.4c-0.2,0.4-0.2,0.8-0.2,1.4s-0.2,1.2,0,2.2
										c0,1.8,0.4,3.8,0.2,6.6l0,0c0,0.4-0.4,0.8-0.8,0.8h-0.2c-0.8-0.2-1.4-0.4-2-0.8s-1.2-0.6-1.6-1c-1-0.8-2-1.8-2.6-3.2
										c-0.8-1.2-1.2-2.8-1.4-4.4c-0.2-1.6,0.2-3.4,1-5s1.8-2.8,3-3.8s2.4-1.6,3.8-2.2c2.6-1,5.2-1,7.8-0.4c0.8,0.2,1.2,1,1,1.6
										C366,145.6,365.8,145.8,365.4,146.2L365.4,146.2z"/>
								</g>
							</g>
						</g>
					</g>
				</g>
			</g>
		</g>
	</g>
	<circle class="st10" cx="579.8" cy="181" r="51"/>
	<path class="st8" d="M637.8,178.6v-1.8c0-1.8,0-3.6-0.4-5.6c-0.4-4.8-1.6-9.8-3.8-15.6c-1.8-4.8-4.6-9.6-8.4-14.6
		c-3.4-4.2-7.6-8.2-12.6-11.8c-4.6-3.2-10-5.8-16-7.8c-5.4-1.6-11.2-2.6-17.8-2.8l-2.4,0.2c-2,0-4,0.2-6.2,0.6
		c-2.8,0.4-5.4,1-7.8,1.8l-1,0.2c-6,2-11.2,4.6-16,7.8c-5,3.6-9.2,7.6-12.6,11.8c-3.8,5-6.4,9.8-8.4,14.4
		c-3.8,9.6-5.2,20.6-3.6,30.8c1.4,9.4,5,17.8,10.4,25.4c4.6,6.2,10.4,11.6,16.6,15.6c4.8,3,10,5.4,16,7c2.8,0.8,4.8,1.2,6.4,1.4
		c2,0.4,3.6,0.6,4.8,0.6l4,0.2l3.8-0.2l0,0c1.4,0,3.2-0.2,4.8-0.4c1.8-0.2,3.8-0.6,6.4-1.4c6-1.6,11.2-4,16-7
		c3.4-2.2,6.6-4.6,9.6-7.6c6.4-1.2,4,12,10,12c6.4,0,11.6-5.2,11.6-11.6s-12.2-1.2-11.6-11.6c0-0.6,0-1,0-1.4
		c3.8-6.4,6.4-13.6,7.6-21C637.4,183.6,637.8,181.4,637.8,178.6z M629,185.4c-0.6,8-3.2,16-7.4,22.8c-3.4,5.6-8.2,10.6-14.2,14.8
		c-5.4,3.8-10.8,5.6-14.4,6.8c-2.4,0.8-4.2,1-5.8,1.2c-1.8,0.4-3.2,0.6-4.4,0.6l-3.8,0.2l-3.8-0.2c-1,0-2.4-0.2-4.4-0.6
		c-1.4-0.2-3.2-0.6-5.8-1.2c-3.6-1-9-3-14.4-6.8c-6-4.2-10.8-9.2-14.2-14.8c-4.2-6.8-6.8-14.8-7.4-22.6c-0.6-8.8,1-17.8,5-25.8
		s10.6-15.2,18.2-20.2c3.8-2.4,8.2-4.4,12.6-5.8l1.2-0.2c2-0.4,3.8-1,6-1.2c1.2-0.2,3-0.4,4.8-0.4c0.8,0,1.6,0,2.2-0.2
		c5.2,0,9.8,0.8,14,2c4.8,1.6,9.2,3.4,12.8,5.8c7.8,5,14.4,12.2,18.2,20.2c2.2,4.6,3.6,8.8,4.2,12.8c0.4,1.4,0.4,3.2,0.6,4.8
		l0.2,1.6C629,180.8,629,183,629,185.4z"/>
	<g>
		<path class="st8" d="M287.8,201c-4.4-8-3-18.6,2.4-26c4.8-6.6,12.2-10.8,20-13c-3.2,1.8-6.2,4.4-8.2,6.4c-3.6,3.4-5.6,8-6.4,12.8
			c-0.2,1.6-0.4,3.4-0.2,5c0.6,4,3,7.6,6.2,10.2c4.4,3.6,10.6,5.4,16.4,4.6c-4.4-0.2-8.8-1.6-12.4-4.4c-3.4-2.8-5.8-6.8-6-10.8
			c-0.2-3.8,1.6-7.4,4-10.4c0,0.8-0.2,1.4-0.2,2.2c-0.2,8.2,3.2,11.8,11.4,11.2c8.2-0.6,15.8-4,23.4-7.4c14-6.2,28-16.6,43.8-0.8
			c8.6,11.4-3.6,31.4-21.6,30.2c-3.8-0.2-11.4-1-15.2-1.4c-6.6-0.8-11,1.8-17.6,3.4C312.4,216.4,295.4,214.8,287.8,201z"/>
		<path class="st8" d="M394.2,184c21.6-5.4,28.4,10.8,37,23.2c4.6,6.8,9.4,13.6,16.2,18.4c6.6,4.8,11.4,3.4,15.6-3.6
			c0.4-0.6,0.8-1.4,1-2c0.8,3.8,0.2,7.8-1.8,11c-2.4,3.4-6.4,5.6-10.8,6.2c-4.4,0.6-9-0.6-12.8-2.6c4.6,3.6,10.6,5.4,16.4,4.6
			c4.2-0.6,8-2.4,10.6-5.6c1-1.4,1.8-2.8,2.4-4.4c1.8-4.6,2.4-9.6,1.2-14.4c-0.8-2.8-2-6.4-3.8-9.6c5.6,5.8,9.8,13.4,10.4,21.4
			c0.8,9.2-3.4,18.8-11.4,23.6c-13.6,8-29,0.6-40.4-10.4c-4.8-4.6-7.2-9.2-13.4-12c-3.4-1.6-10.4-5-13.6-6.6
			C381,212.8,380.8,189.4,394.2,184z"/>
	</g>
	<g id="Calque_10">
		<g>
			<g>
				<path class="st11" d="M545.8,480.4l32.2-18.6c1.6-0.8,3.4-0.8,5,0l28.2,16.2l3.4,14.4L584,539.8c-1.6,0.8-3.4,0.8-5,0l-35.6-22
					v-33C543.2,484,545,481,545.8,480.4L545.8,480.4z"/>
				<path class="st12" d="M611.2,478l4.2,2.4c0.8,0.4,1.4,1,1.8,1.8l-6,6.8V478L611.2,478z"/>
				<path class="st12" d="M580.6,536.4l3.4,5.2l-3.4,4c-0.8,0-1.8-0.2-2.4-0.6L546,526.4c-1.6-0.8-2.4-2.6-2.4-4.4v-4.4l32.2,18.6
					C577.2,537.4,579,537.4,580.6,536.4L580.6,536.4z"/>
				<path class="st12" d="M543.2,484.8c0-0.8,0.2-1.8,0.6-2.4c0.4-0.8,1-1.4,1.8-1.8l37.4,21.6l28.2-16.2l3.4,33.4
					c0,1.8-1,3.4-2.4,4.4l-31.4,12.8v-30.2L543.2,484.8z"/>
				<path class="st13" d="M608.8,520.2c1.6-0.8,2.4-2.6,2.4-4.4v-30.2l6-3.4c0.4,0.8,0.6,1.6,0.6,2.4V522c0,1.8-1,3.4-2.4,4.4
					L583.2,545c-0.8,0.4-1.6,0.6-2.4,0.6v-9.4L608.8,520.2z"/>
			</g>
			<g>
				<path class="st8" d="M504.4,543l11,6.4c2.6-1.6,5.2-3.4,7.6-5.6h-0.4c-3,0-5.4-2.4-5.4-5.4v-3c0-0.2,0-0.4,0-0.6
					c-0.4,0.4-0.8,0.8-1.2,1.2c-1,1-2.2,2-3.4,2.6c-2.4,1.8-5,3-7.8,4.2C504.8,542.8,504.6,542.8,504.4,543z"/>
				<path class="st11" d="M501.8,541.4L501.8,541.4l2.4,1.6l10.6,6.6l22.6,14c1.2,0.8,2.8,0.8,4,0.4c0.4,0,0.6-0.2,1-0.4l4.2-6.4
					l24-37.2l2.4-3.6l-3.4-14.4l-3.2-1.8l-25-14.4c-1.6-1-3.4-1-5,0l-1,0.6l-7.4,4.2l-0.2,0.2l-2,1.2c0.2,1.6,0.4,3.4,0.6,5
					c0,0.4,0.2,1,0.2,1.4c0.6,6.4,0.4,12.6-0.8,18.6l0,0c-0.2,1.2-0.6,2.4-0.8,3.4c-0.2,0.6-0.2,1-0.4,1.6c-1.2,4-3.2,7.8-5.8,11
					c-0.4,0.4-0.6,0.8-1,1.2c-0.2,0.2-0.2,0.2-0.4,0.4L517,535l0,0c0,0.2,0,0.4,0,0.6v3c0,3,2.4,5.4,5.4,5.4h0.4
					c-1.2,1.2-2.6,2.2-4,3.2c-0.6,0.4-1,0.8-1.6,1.2s-1.4,0.8-2,1.2l-11-6.4L501.8,541.4z"/>
				<path class="st12" d="M569.8,501.6l4.2,2.4c0.8,0.4,1.4,1,1.8,1.8l-6,6.8V501.6L569.8,501.6z"/>
				<path class="st12" d="M501.8,541.4L501.8,541.4l2.4,1.6l10.6,6.6c-0.4,0.2-1,0.6-1.6,0.8c-1.6,0.8-3.2,1.6-4.8,2.2h-0.2l28,16.2
					c0.8,0.4,1.6,0.6,2.4,0.6l3.4-4l-1-1.4l-2.4-3.8c-1.6,0.8-3.4,0.8-5,0L515,549.4l-11-6.4L501.8,541.4z"/>
				<path class="st12" d="M524.8,521.6l9.2,5.4l5,3v30l7.6-3l24-9.8c1.6-0.8,2.4-2.6,2.4-4.4l-2.2-23l-1-10.4l-28.2,16.2l-6-3.6
					l-9.4-5.4c-0.2,1.2-0.6,2.4-0.8,3.4C525,520.6,525,521.2,524.8,521.6z"/>
				<path class="st13" d="M567.2,543.8c1.6-0.8,2.4-2.6,2.4-4.4v-30.2l6-3.4c0.4,0.8,0.6,1.6,0.6,2.4v37.4c0,1.8-1,3.4-2.4,4.4
					l-32.2,18.6c-0.8,0.4-1.6,0.6-2.4,0.6V560L567.2,543.8z"/>
			</g>
			<g>
				<path class="st11" d="M523.6,480.6c0.4,1,0.6,2.2,0.8,3.2c0.4,1.6,0.6,3.2,1,4.6v0.2v0.2l2.4,1.6l9.2,5.6l19.2,11.8
					c1.2,0.8,2.8,0.8,4,0.4c0.4,0,0.6-0.2,1-0.4l5.2-8l25.4-39.2l-3.4-14.4L560.2,430c-1.6-0.8-3.4-0.8-5,0L528,445.8l-1.8,1l0,0
					c0.2,1,0.4,2,0.8,3l0,0v0.2c0,0.4,0.2,0.6,0.4,1c0,0.2,0.2,0.4,0.2,0.6c0,0.2,0.2,0.4,0.2,0.6c0.8,2.2,2,4.2,3.6,6l0,0
					c0,0.4,0.2,0.8,0.2,1.2c0,0.2,0,0.4,0.2,0.8c0,0.2,0.2,0.6,0.2,0.8c0,0.4,0.2,0.8,0.2,1.2l0.6,5.2c0.2,1.8,0.2,3.6,0.4,5.2
					c0,1.4,0,3,0.2,4.4c0.4,1.4,0.8,2.6,1,3.8h-10.8V480.6z"/>
				<path class="st12" d="M588.6,446.2l4.2,2.4c0.8,0.4,1.4,1,1.8,1.8l-6,6.8V446.2L588.6,446.2z"/>
				<path class="st12" d="M525.6,488.6v0.2c0.2,0.8,0.4,1.8,0.4,2.6c0.2,1.6,0.4,3.4,0.6,5l11,6.4l18,10.4c0.8,0.4,1.6,0.6,2.4,0.6
					l3.4-4l-1-1.6l-2.4-3.8c-1.6,1-3.4,1-5,0l-16-9.2l-8.8-5L525.6,488.6z"/>
				<path class="st12" d="M560.4,470.2l-30.2-17.4c0.4,1.4,0.8,2.8,1,4.2c0,0.4,0.2,0.8,0.2,1.2l0,0c0,0.4,0.2,0.8,0.2,1.2
					l26.2,15.2v30l31.6-12.8c1.6-1,2.4-2.6,2.4-4.4l-3.4-33.4L560.4,470.2z"/>
				<path class="st8" d="M520.8,452.8c0.2-1,1.6-3.4,2.4-4c-0.8,0.4-1.4,1-1.6,1.8C521,451.2,520.8,452,520.8,452.8z"/>
				<path class="st13" d="M586.2,488.4c1.6-0.8,2.4-2.6,2.4-4.4v-30l6-3.4c0.4,0.8,0.6,1.6,0.6,2.4v37.4c0,1.8-1,3.4-2.4,4.4
					l-32.2,18.6c-0.8,0.4-1.6,0.6-2.4,0.6v-9.4L586.2,488.4z"/>
			</g>
		</g>
		<g>
			
				<linearGradient id="SVGID_1_" gradientUnits="userSpaceOnUse" x1="491" y1="2.937" x2="652.6" y2="2.937" gradientTransform="matrix(1 0 0 -1 0 502)">
				<stop  offset="0" style="stop-color:#D33B2F"/>
				<stop  offset="0.3659" style="stop-color:#FF4936"/>
				<stop  offset="0.5223" style="stop-color:#FC594C"/>
				<stop  offset="0.6788" style="stop-color:#FF4936"/>
				<stop  offset="1" style="stop-color:#D33B2F"/>
			</linearGradient>
			<path class="st14" d="M561.6,408c-16.8,0-32.4,4.6-46,12.4c3.6,5.2,6.6,10.8,9.2,16.6l1,2.4c0.4,0.8,0.6,1.6,1,2.4
				c0.6,1.6,1.2,3.2,1.8,5c1,3.4,2,6.6,2.8,10.2c0.4,1.8,0.8,3.4,1,5.2l0.6,5.2c0.2,1.8,0.2,3.6,0.4,5.2c0,1.4,0,3,0.2,4.4
				c0.4,1.6,0.8,3,1.2,4.6c0.4,1.8,0.8,3.4,1.2,5.2c0.6,3.4,1.2,7,1.4,10.6c0.6,7,0.6,14.4-1,21.6c-1.4,7.2-4.2,14.4-9.2,20.6
				c-4.8,6.2-11.6,10.6-18.4,13.2c-5.8,2.2-12,3.4-17.8,3.8c16.6,20.6,42.2,33.6,70.6,33.6c50.2,0,91-40.8,91-91
				C652.6,448.8,611.8,408,561.6,408z"/>
			<g>
				<g>
					<path class="st15" d="M593.2,461.6l18.8-0.8c0,0,1.6,16.8-3.8,25.8c-5.4,9.2-22.6,15.4-22.6,15.4l0.4-6.4
						c0,0,14.2-3.4,18.2-11.4c5.2-9.8,2.6-17.6,2.6-17.6l-14.4,1.8L593.2,461.6z"/>
				</g>
				<g>
					<path class="st16" d="M585,541c-1-1.2-2.8-1.8-4.6-2s-3.6-0.2-5.2-0.6c-2.4-0.6-4.2-2.4-5.2-4.4s-1.4-4-1.4-6.2
						c0-2.6,0.6-5.8,3.2-7c1-0.4,2-0.6,2.8-1.2c1.2-1.2,0.6-4-0.6-5.2c-1.8-1.6-5.2-2.4-7.8-2.8c-0.8-0.2-1.8-0.2-2.6-0.2
						s-1.8,0-2.6,0.2c-2.4,0.4-6,1.2-7.8,2.8c-1.2,1-2,4-0.6,5.2c0.6,0.6,1.8,0.8,2.8,1.2c2.8,1.2,3.4,4.4,3.2,7
						c0,2.2-0.4,4.2-1.4,6.2s-2.8,3.6-5.2,4.4c-1.6,0.4-3.6,0.4-5.2,0.6s-3.6,0.8-4.6,2c-0.8,1-0.8,2.4-0.6,3.6
						c3.2,0.4,6.4-0.4,9.6-0.6c4-0.4,8.2,0,12.4,0.2c4.2-0.2,8.2-0.6,12.4-0.2c3.2,0.4,6.4,1.2,9.6,0.6
						C585.8,543.2,585.8,542,585,541z"/>
				</g>
				<g>
					<path class="st15" d="M596,450.6h-34h-34c0,0-1.4,39.8,6,52.2c7.4,12.6,28,15,28,15s20.6-2.6,28-15S596,450.6,596,450.6z"/>
				</g>
				<g>
					<path class="st16" d="M576.4,450.6c0,0.2,0,0.4,0,0.4c0,2.6,2,4.6,3.2,6.6c1.6,2.4,2.6,5,3.4,7.8c1.6,5.8,1.6,12.2-0.4,18.2
						c-3.8,11-14.2,19.4-25.6,21.2c-8.6,1.4-17.4-0.8-24.8-5.6c0.4,1.4,1,2.6,1.6,3.6c7.4,12.6,28,15,28,15s20.6-2.6,28-15
						c7.4-12.6,6-52.2,6-52.2H576.4z"/>
				</g>
				<g>
					<g class="st17">
						<path class="st6" d="M547.2,466.2c1.6,0.4,3,1.6,3.8,2.8c0.8,1.4,1.2,3,1.6,4.6c-0.2-1.6,0-3.2,0.4-4.6c0.6-1.4,1.6-2.8,3-3.6
							c-0.6,0.4-2.6-2.4-2.8-2.8c-0.8-1.2-1.2-2.6-1.2-4c-0.4,1.4-0.4,2.8-1.4,4.2C549.8,464.4,548.6,465.4,547.2,466.2z"/>
					</g>
					<g class="st18">
						<path class="st6" d="M549.8,466.2c0.6,0.2,1.2,0.6,1.6,1.2c0.4,0.6,0.6,1.2,0.8,2c0-0.6,0-1.4,0.2-2s0.6-1.2,1.2-1.6
							c-0.2,0.2-1.2-1-1.2-1.2c-0.4-0.6-0.4-1.2-0.6-1.8c-0.2,0.6-0.2,1.2-0.6,1.8C550.8,465.4,550.4,465.8,549.8,466.2z"/>
					</g>
					<g>
						<path class="st6" d="M550.8,466c0.2,0,0.6,0.2,0.6,0.4c0.2,0.2,0.2,0.6,0.2,0.8c0-0.2,0-0.6,0-0.8s0.2-0.4,0.4-0.6
							c-0.2,0-0.4-0.4-0.4-0.4c-0.2-0.2-0.2-0.4-0.2-0.6c0,0.2,0,0.4-0.2,0.8C551.4,465.8,551.2,466,550.8,466z"/>
					</g>
				</g>
				<g>
					<g class="st17">
						<path class="st6" d="M566.8,484.4c2,0.4,3.6,1.8,4.6,3.6s1.6,3.6,2,5.6c-0.2-2,0-4,0.6-5.8s1.8-3.4,3.6-4.4
							c-0.8,0.4-3.2-3-3.6-3.6c-1-1.4-1.4-3.2-1.4-4.8c-0.6,1.8-0.6,3.6-1.6,5.2C570,482,568.6,483.4,566.8,484.4z"/>
					</g>
					<g class="st18">
						<path class="st6" d="M569.8,484.4c0.8,0.2,1.6,0.8,2,1.6s0.6,1.6,0.8,2.4c0-0.8,0-1.6,0.2-2.4c0.2-0.8,0.8-1.4,1.6-1.8
							c-0.4,0.2-1.4-1.2-1.6-1.6c-0.4-0.6-0.6-1.4-0.6-2.2c-0.2,0.8-0.2,1.6-0.6,2.2C571.2,483.4,570.6,484,569.8,484.4z"/>
					</g>
					<g>
						<path class="st6" d="M571.2,484.2c0.4,0,0.6,0.4,0.8,0.6s0.2,0.6,0.4,1c0-0.4,0-0.6,0-1c0.2-0.4,0.4-0.6,0.6-0.8
							c-0.2,0-0.6-0.6-0.6-0.6c-0.2-0.2-0.2-0.6-0.2-0.8c0,0.4,0,0.6-0.2,1C571.8,483.8,571.6,484,571.2,484.2z"/>
					</g>
				</g>
				<g>
					<g class="st17">
						<path class="st6" d="M543.4,496c1.4,0.2,2.6,1.4,3.4,2.6s1.2,2.6,1.4,4c-0.2-1.4,0-2.8,0.4-4.2s1.4-2.6,2.6-3.2
							c-0.6,0.2-2.4-2.2-2.6-2.6c-0.6-1-1-2.2-1-3.6c-0.4,1.4-0.4,2.6-1.2,3.8C545.8,494.2,544.6,495.2,543.4,496z"/>
					</g>
					<g class="st18">
						<path class="st6" d="M545.6,496c0.6,0.2,1.2,0.6,1.4,1.2c0.4,0.6,0.4,1.2,0.6,1.8c0-0.6,0-1.2,0.2-1.8s0.6-1,1.2-1.4
							c-0.2,0.2-1-1-1-1c-0.2-0.4-0.4-1-0.4-1.6c-0.2,0.6-0.2,1-0.4,1.6C546.6,495.2,546.2,495.6,545.6,496z"/>
					</g>
					<g>
						<path class="st6" d="M546.6,495.8c0.2,0,0.4,0.2,0.6,0.4s0.2,0.4,0.2,0.6c0-0.2,0-0.4,0-0.8c0-0.2,0.2-0.4,0.4-0.6l-0.4-0.4
							c-0.2-0.2-0.2-0.4-0.2-0.6c0,0.2,0,0.4-0.2,0.6C547,495.6,546.8,495.6,546.6,495.8z"/>
					</g>
				</g>
				<g>
					<g>
						<path class="st15" d="M597.6,553.8h-67.8v-2c0-5.2,4.2-9.4,9.4-9.4H588c5.2,0,9.4,4.2,9.4,9.4v2H597.6z"/>
					</g>
					<g>
						<path class="st16" d="M590.6,542.2H579c3.8,0,7,2,7,4.6v7h11.6v-7C597.6,544.2,594.4,542.2,590.6,542.2z"/>
					</g>
				</g>
				<g>
					<g>
						<path class="st15" d="M606.6,559.4h-86.2v-1c0-2.6,2.2-4.8,4.8-4.8H602c2.6,0,4.8,2.2,4.8,4.8v1H606.6z"/>
					</g>
					<g>
						<path class="st16" d="M597.8,553.8h-14.6c4.8,0,8.8,1,8.8,2.2v3.6h14.6V556C606.6,554.4,605.6,553.4,597.8,553.8z"/>
					</g>
				</g>
				<g>
					<path class="st15" d="M597.6,457H527c-1.8,0-3.2-1.4-3.2-3.2l0,0c0-1.8,1.4-3.2,3.2-3.2h70.6c1.8,0,3.2,1.4,3.2,3.2l0,0
						C600.8,455.6,599.2,457,597.6,457z"/>
				</g>
				<g>
					<path class="st16" d="M597.4,450.6h-1c0.2,0.4,0.4,1,0.4,1.6l0,0c0,1.8-1.4,3.2-3.2,3.2H524c0.6,1,1.6,1.6,2.8,1.6h70.6
						c1.8,0,3.2-1.4,3.2-3.2l0,0C600.6,452,599,450.6,597.4,450.6z"/>
				</g>
				<g>
					<path class="st15" d="M528.2,450.6c0,0,11.2-8.8,34-8.8c24.8,0,34,8.8,34,8.8H528.2z"/>
				</g>
				<g>
					<path class="st15" d="M567.4,436c-0.2-1-1-1.6-1.8-2c-1-0.4-5.8-0.4-6.6,0s-1.6,1.2-1.8,2c-0.2,1,0.2,2,1,2.4
						c0.6,0.4,1.6,0.4,2,1c0.2,0.2,0.2,0.6,0.4,1c0,0.8,0.2,1.6,0,2.4c0,1-0.2,2.2,0.6,2.8c0.4,0.2,0.8,0.4,1.4,0.4
						c0.4,0,1,0,1.4-0.4c0.8-0.6,0.6-1.8,0.6-2.8c0-0.8,0-1.6,0-2.4c0-0.4,0.2-0.6,0.4-1c0.4-0.6,1.4-0.6,2-1
						C567.2,438,567.6,436.8,567.4,436z"/>
				</g>
				<g class="st7">
					<path class="st6" d="M561,434.4c-0.6,0-1,0-1.4,0.2s-1,0.4-1.2,0.8c-0.2,0.4-0.2,0.8,0.2,1c0.2,0.2,0.6,0,1,0
						c0.8-0.4,1.8-0.4,2.6-0.6c0.4,0,0.6,0,0.8-0.2s0.4-0.4,0.4-0.8c0-0.2-0.2-0.4-0.4-0.4c-0.4-0.2-1-0.2-1.4,0H561z"/>
				</g>
				<g class="st19">
					<path class="st6" d="M536.8,448.2c-0.6,0.2-1.2,0.8-1,1.2s0.6,0.4,1,0.4c4,0.2,8-0.6,11.6-2c1.6-0.6,3.2-1.4,4.8-2
						c2.8-1.2,5.8-2.2,8.8-2.8c-3.2-1-6.4,0-9.6,0.6c-3.4,0.8-6.8,1.6-10.2,2.8C540.6,446.8,538.6,447.6,536.8,448.2z"/>
				</g>
				<g>
					<polygon class="st6" points="568,491.2 559.4,486.4 550.6,490.6 552.6,481 545.6,474 555.4,472.8 560,464.2 564.2,473.2 
						573.8,474.8 566.6,481.4 					"/>
				</g>
				<g class="st7">
					<path class="st6" d="M535.4,489c0.4,2,1.2,4.4,3,5.6c0.2,0.2,0.6,0.4,1,0.4c0.6,0,1.2-0.6,1.4-1.2s0-1.2,0-1.8
						c-1.2-7-3.2-14.2-1.4-21.2c0.8-2.6,2.2-5.4,0.8-8c-0.8-1.8-3-2.8-4.8-1.6c-2,1.4-1.8,5.2-1.8,7.4c-0.2,3.2-0.2,6.4,0.2,9.6
						C534,481.8,534.6,485.4,535.4,489z"/>
				</g>
			</g>
		</g>
	</g>
	<g id="Calque_4">
		<g>
			<g>
				<g>
					<g>
						<path class="st6" d="M681.2,521c1.2,4,8.4,13.4,12.6,15c0,0-5.8-1-10,0c-0.8,0.2-2-2-3-2c-0.2,0-0.4,0-0.4,0
							c-5.8,0-16.2-5.4-16.6-8.8c0,0,0.6,0,1.8,0c3.6,0,8.6-1.4,12.2-5.2"/>
					</g>
				</g>
			</g>
		</g>
		<g>
			<g>
				<g>
					<g>
						<path class="st6" d="M669.2,509c1.2,3.4,5,6.6,9.2,7.8c0,0-2.6,2-6.8,2.8c-0.8,0.2-1.6,0.2-2.6,0.2c-0.2,0-0.4,0-0.4,0
							c-5.8,0-16.2-4.6-16.6-7.4c0,0,0.6,0,1.8,0C657,512.6,665.4,512.2,669.2,509"/>
					</g>
				</g>
			</g>
		</g>
		<g>
			<g>
				<g>
					<g>
						<path class="st6" d="M663.2,495c1.2,3.4,5,6.6,9.2,7.8c0,0-2.6,2-6.8,2.8c-0.8,0.2-1.6,0.2-2.6,0.2c-0.2,0-0.4,0-0.4,0
							c-5.8,0-16.2-4.6-16.6-7.4c0,0,0.6,0,1.8,0c3.6,0,10.6-3.4,14.2-6.6"/>
					</g>
				</g>
			</g>
		</g>
		<g>
			<g>
				<path class="st8" d="M684.6,461.4c-7.6-0.4-14.8,1.6-18.4,8.8c-3.2,6.8-2.8,15-9.6,19.6c-3,2-6.2,3-9.6,4.2
					c-2.8,1-6.6,2-6.4,5.8c0.4,3.4,4.6,6,7.2,7.6c3.2,2,6.8,3.6,10.6,4.8c0-2,0-3.8,0-5.8c-3.2,1-6.4,1.4-9.6,1.4
					c-2.2,0-4,2.6-2.6,4.6c5.4,7.8,13.4,10.8,22.2,13c0.2-2,0.6-4,0.8-5.8c-2.8,0-5.8,0-8.6,0c-3.8,0-3.8,6,0,6c2.8,0,5.8,0,8.6,0
					c3.4,0,4.2-5,0.8-5.8c-7.2-1.8-14.2-4-18.6-10.2c-0.8,1.6-1.8,3-2.6,4.6c3.8,0,7.6-0.4,11.2-1.6c2.8-0.8,2.8-5,0-5.8
					c-3-1-6-2.2-8.8-3.8c-1.4-0.8-2.6-1.8-3.8-2.8c-0.4-0.4-0.8-0.6-1-1c-0.2,0.6-0.2,1.2-0.4,1.8c0.2,0,1.6-0.6,1.8-0.6
					c5.4-1.8,11-3.8,15.2-7.8c4.8-4.6,5.6-10.8,7.6-16.8c0.8-2.6,2.2-5.2,4.6-6.6c2.8-1.6,6.2-1.6,9.4-1.4
					C688.4,467.6,688.4,461.6,684.6,461.4L684.6,461.4z"/>
			</g>
		</g>
	</g>
	<g id="Calque_7">
		<g>
			<g>
				<path class="st6" d="M670.2,516L670.2,516c-0.2,0-0.4-0.2-0.6-0.2c0.4,0.2,1,0.4,1.4,0.8C670.8,516.4,670.6,516.2,670.2,516
					c0.4,0.2,0.4,0.4,0.6,0.4c1-1.6,2-3.4,3-5l0,0c0.2,0.2,0.4,0.2,0.8,0.4c-0.6-0.2-1-0.6-1.6-1c0.2,0.2,0.4,0.4,0.6,0.4
					c-0.4-0.4-1-0.8-1.2-1.2c0.2,0.2,0.4,0.4,0.4,0.6c-0.4-0.4-0.6-0.8-0.8-1.4c-0.2-0.4-0.4-0.6-0.8-0.8c-0.2-0.2-0.6-0.4-1-0.6
					c-0.4-0.2-0.8-0.2-1.2,0c-0.4,0-0.8,0.2-1.2,0.4c-0.6,0.4-1.2,1-1.4,1.8c0,0.2,0,0.6-0.2,0.8c0,0.6,0.2,1,0.4,1.6
					c0.2,0.4,0.4,0.8,0.6,1.2c0.4,0.6,0.8,1.2,1.4,1.6c0.4,0.4,1,1,1.6,1.2c0.6,0.4,1.2,0.6,1.8,1c0.2,0,0.6,0,0.8,0.2
					c0.4,0,0.8,0,1.2-0.2c0.2,0,0.4-0.2,0.6-0.4c0.4-0.2,0.6-0.4,0.8-0.8c0.2-0.2,0.2-0.4,0.4-0.8c0-0.2,0-0.6,0.2-0.8
					c0-0.4,0-0.8-0.2-1.2s-0.4-0.6-0.6-1c-0.4-0.4-1-0.8-1.6-1.2s-1.2-0.6-1.8-0.8c-0.4-0.2-0.8-0.2-1.2,0c-0.4,0-0.8,0.2-1.2,0.4
					s-0.6,0.4-0.8,0.8c-0.2,0.2-0.4,0.6-0.6,1c-0.2,0.8-0.2,1.6,0.4,2.4c0.2,0.2,0.4,0.4,0.4,0.6C669.2,515.6,669.6,516,670.2,516
					L670.2,516z"/>
			</g>
		</g>
	</g>
	<g id="Calque_6">
		<g>
			<g>
				<path class="st8" d="M659.8,492c1.2,3.2,3,6,5.6,8.2c1.2,1,2.6,2,4.2,2.8c0.8,0.4,1.6,0.8,2.6,1c0.2,0,0.4,0.2,0.4,0.2
					c0.4,0.2,0.4,0.2,0,0c0.2,0.2,0.2,0.2,0,0c-0.6-0.6-0.6-1.4-0.2-2.2c0.2-0.2,0.2-0.2,0,0s-0.2,0.2-0.4,0.4s-0.6,0.6-0.8,0.8
					c0,0-1,0.8-0.6,0.6c-0.4,0.2-0.6,0.4-1,0.6c-1.4,1-2.2,1.4-4,1.6c0.6,0-0.6,0-0.6,0c-0.2,0-1.2-0.2-0.6,0
					c-0.8-0.2-1.6-0.4-2.4-0.8c-1.8-0.6-3.4-1.2-5.4-1.4c-1.6-0.2-3,1.4-3,3c0,1.8,1.4,2.8,3,3c0,0,0.6,0,0.2,0c-0.4,0,0.4,0,0.4,0
					c0.4,0,0.6,0.2,1,0.2c0.8,0.2,1.6,0.6,2.2,0.8c1.4,0.6,3,1,4.6,1c3.2,0,6.2-1.2,8.8-3c1.2-1,2.4-1.8,3.4-3c1.6-1.8,2-4,0.2-5.8
					c-1-1.2-2.6-1.6-4-2c-0.6-0.2,0.2,0.2-0.4-0.2c-0.2-0.2-0.6-0.2-0.8-0.4c-0.6-0.4-1.2-0.6-1.6-1c-0.2-0.2,0,0,0,0
					c-0.2-0.2-0.4-0.2-0.6-0.4c-0.2-0.2-0.6-0.6-0.8-0.8s-0.4-0.4-0.6-0.8c-0.2-0.2-0.8-0.8-0.4-0.4c-0.4-0.6-0.8-1.2-1.2-1.8
					c-0.2-0.2-0.4-0.6-0.4-0.8c0,0-0.2-0.6-0.2-0.2c0.2,0.4-0.2-0.4-0.2-0.4c-0.6-1.4-2-2.6-3.6-2
					C660.4,488.8,659.2,490.4,659.8,492L659.8,492z"/>
			</g>
		</g>
		<g>
			<g>
				<path class="st8" d="M670.2,505.4c-1,2-0.8,4.2,0.8,6c1,1.2,2.2,2,3.4,2.8c0.6,0.4,1.2,0.8,1.8,1.2c0.4,0.2,0.6,0.4,1,0.8
					c-0.4-0.4,0,0.2,0.2,0.2c-0.2-0.2-0.4-0.6-0.4-1c0.2-0.8,0.4-1,0-0.6c0.2-0.2,0.2-0.2,0,0l-0.2,0.2c-0.4,0.4-0.8,0.8-1.4,1.2
					c-0.2,0.2-0.2,0.2,0.2,0c-0.2,0-0.2,0.2-0.4,0.2c-0.2,0.2-0.6,0.4-0.8,0.6c-0.4,0.2-1,0.6-1.6,0.8c-0.8,0.4,0.6-0.2-0.2,0
					c-0.4,0.2-0.6,0.2-1,0.4c-0.6,0.2-1.2,0.4-1.6,0.4c0,0-1,0.2-0.6,0.2s-0.4,0-0.6,0c-0.6,0-1.2,0-1.8,0c-0.4,0-0.6,0-1,0
					c0.8,0,0,0-0.2,0c-0.6-0.2-1.2-0.2-1.8-0.4c-1.4-0.4-3.4,0.6-3.6,2c-0.4,1.6,0.4,3.2,2,3.6c5.4,1.8,11.6,0.6,16.2-2.6
					c1.2-1,2.6-2,3.4-3.4c1.2-2,0.8-4.4-0.8-6c-1.2-1.2-2.8-2-4.2-3c-0.4-0.2-0.6-0.4-1-0.8c-0.2-0.2-0.2-0.2,0,0
					c-0.2-0.2-0.2-0.2-0.4-0.4s-0.2-0.2-0.4-0.4c0.2,0.2,0.2,0.2,0,0c0.2,0.4,0.2,0.6,0,1c0.8-1.4,0.4-3.4-1-4.2
					C673,503.6,671,504,670.2,505.4L670.2,505.4z"/>
			</g>
		</g>
		<g>
			<g>
				<path class="st8" d="M656.6,525.2c6.4,7.6,16,15.8,26.8,15c2.8-0.2,5.8-1,8.2-2.6c1.8-1.2,4-3,3.4-5.4c-0.4-1.4-1.6-2-2.8-2.6
					c-1.8-1-3.6-1.8-5.2-3c-3-2-5.4-4.8-6.6-8.2c-1.2-3.6-7-2.2-5.8,1.6c2,6.2,6.8,10.6,12.2,13.6c0.6,0.4,1.4,0.8,2,1
					c0.4,0.2,0.6,0.4,1,0.6c1,0.4,0.2,0.6-0.6-0.8c-0.2-0.6-0.4-1.8-0.4-2s0.4-0.8,0.2-0.4c0.6-0.8,0.2-0.2,0,0
					c-0.2,0-0.2,0.2-0.4,0.2c-0.4,0.4,0.6-0.4,0,0c-0.4,0.2-0.8,0.4-1,0.6c-0.2,0.2-0.4,0.2-0.6,0.4c-0.6,0.4,0.4,0-0.2,0.2
					c-0.4,0.2-1,0.4-1.4,0.4c-0.2,0-0.6,0.2-0.8,0.2s-0.4,0-0.4,0c-0.8,0.2,0.6,0-0.2,0c-3.2,0.4-5.8-0.2-8.8-1.6
					c-5.6-2.6-10.2-7-14-11.8c-1-1.2-3.2-1-4.2,0C655.4,522.2,655.6,523.8,656.6,525.2L656.6,525.2z"/>
			</g>
		</g>
	</g>
	<g id="Calque_8">
		<path class="st8" d="M469.6,514.8c0.6,2.2,0.6,4.8,0.2,7c0,0.2,0,0.4,0,0.4c-0.4-0.2-1-0.4-1.4-0.6c-0.2,0-0.4-0.2-0.6-0.4
			c-1-0.6-2-1.2-2.8-1.8c-2.4-1.6-4.8-3.2-7-5l0,0c-0.2-0.2-0.6-0.4-1-0.6c-0.6-0.4-1.4-0.4-2-0.6c-2-0.2-4,1-5,2.8
			c-0.2,0.6-0.4,1-0.6,1.4c-0.2,0.4-0.4,1-0.6,1.4c-0.4,0.8-0.6,1.8-1,2.8c-0.6,1.8-1,3.8-1.4,5.6c-0.6,3.8-0.6,8.2,0.6,12.4
			c1.2,4.2,4.2,8.2,7.6,10.8c3.4,2.6,7.4,4,11,5c5,1.2,9.8,1.6,14.6,1.6c1.6,0,3.2,0,4.8-0.2c0.8,0,1.6,0,2.4-0.2c0.6,0,1.2,0,2-0.2
			c1,0,1.8-0.2,2.8-0.2c0.2,0,0.4,0,0.6,0c0.4,0,0.8-0.2,1.2-0.2s1-0.2,1.4-0.2c0.2,0,0.6,0,0.8-0.2c0.6,0,1.2-0.2,1.8-0.4
			c0.2,0,0.4,0,0.4,0c0.8-0.2,1.4-0.2,2.2-0.4c0.2,0,0.2,0,0.4,0c0.8-0.2,1.6-0.4,2.4-0.6c0.2,0,0.2,0,0.4-0.2
			c0.8-0.2,1.6-0.4,2.2-0.6c0.2,0,0.4-0.2,0.6-0.2c0.6-0.2,1.2-0.4,2-0.6l0,0h0.2c5.2-2,10.2-5,14.4-8.8c1.6-1.4,3-2.8,4.2-4.4
			c1.4-1.8,2.6-3.6,3.6-5.4c0.8-1.4,1.6-2.8,2.2-4.2c1.6-3.6,2.6-7.2,3.4-10.8c1.4-7.2,1.6-14.6,1-21.6c-0.2-3.6-0.8-7-1.4-10.6
			c-0.4-1.8-0.6-3.4-1.2-5.2c0-0.2-0.2-0.4-0.2-0.8l0,0c-0.4-1.2-0.6-2.4-1-3.8c0-1.4,0-3-0.2-4.4c0-1.8,0-3.6-0.4-5.2l-0.6-5.2
			c0-1-0.4-1.8-0.4-2.8c-0.2-0.4-0.2-0.8-0.2-1.2l0,0c0-0.4-0.2-0.8-0.2-1.2c-0.2-1.4-0.6-2.8-1-4.2c-0.6-2-1.2-4-1.8-6
			c-0.6-1.6-1.2-3.2-1.8-5c-0.2-0.6-0.4-1.4-0.8-2l0,0c0-0.2,0-0.2-0.2-0.4l-1-2.4c-2.8-6.4-6.2-12.4-10.2-18
			c-0.4-0.6-0.8-1.2-1.4-1.8c-0.6-0.8-1.2-1.6-1.8-2.4c-1-1.4-2.2-2.6-3.4-3.8c-2.4-2.4-5-4.8-8-6.6c-0.6-0.4-1.2-0.4-1.8,0
			c-0.8,0.4-1,1.6-0.6,2.4l0,0c3,5,6,9.8,8.8,14.6c0.4,0.6,0.8,1.4,1.2,2c3.2,5.6,6,11.4,8.2,17.4l0.8,2.2c0.2,0.8,0.4,1.6,0.8,2.2
			c0.4,1.6,1,3,1.4,4.6c0.6,2.4,1.4,5,1.8,7.6c0.2,0.6,0.2,1.2,0.4,1.8c0.2,1.6,0.6,3,0.8,4.6l0.6,4.6c0.2,1.6,0.2,3.2,0.4,4.8
			c0,1.6,0.2,3.2,0.2,4.8v0.4c0,0.4,0,0.8,0.2,1.2s0.2,0.8,0.4,1.2l0,0c0.4,1,0.6,2.2,0.8,3.2c0.4,1.6,0.8,3.2,1,4.6
			c0.6,3.2,1,6.4,1.4,9.4c0.6,6.4,0.4,12.6-0.8,18.6c-0.2,1.2-0.6,2.4-0.8,3.6c-1.2,4.6-3.4,9-6.2,12.6c-0.4,0.4-0.6,0.8-1,1.2
			c-0.2,0.2-0.2,0.2-0.4,0.4l-0.4,0.4l0,0c-0.4,0.4-0.8,0.8-1.2,1.2c-1,1-2.2,2-3.4,2.6c-2.4,1.8-5,3-7.8,4.2
			c-1.4,0.4-2.8,1-4.4,1.4c-1.6,0.4-3,0.8-4.4,1l-4.6,0.6l-4.8,0.4c-1.4,0-3,0.2-4.4,0.2s-3,0-4.4,0c-3.4-0.2-6.6-0.4-9.8-1.2
			c-2.8-0.6-5.4-1.8-7.4-3.2c-1-0.8-1.8-1.6-2.4-2.4c-0.4-0.4-0.6-1-0.8-1.4c-0.2-0.6-0.4-1-0.6-1.6c-0.8-2.2-0.8-4.8-0.4-7.6
			c0-0.6,0.2-1.2,0.4-1.8c0.6,0.4,1.2,0.8,1.8,1.4c1.4,1,2.8,1.8,4.2,2.6c1.6,0.8,3,1.6,5.4,2.4c0.8,0.2,1.8,0.4,3.2,0.4l0,0l0,0
			c0.4,0,1,0,1.4-0.2c0.6-0.2,1.2-0.2,1.8-0.6c0.4-0.2,0.6-0.4,1-0.6c0.2-0.2,0.4-0.4,0.8-0.6c0.4-0.4,0.8-0.8,1-1.2s0.4-0.6,0.8-1
			c0.8-1.2,1.2-2.4,1.6-3.4c0.4-1,0.6-2,0.6-3c0.6-3.8,0.4-7.6-0.4-11.2c-0.8-3.6-2.4-7.2-4.8-10.4c-1.2-1.6-2.6-3-4.2-4.2
			c-0.8-0.6-1.6-1.2-2.4-1.6l-1.2-0.6l-1-0.4c-0.6-0.2-1-0.6-1.6-0.8c-1.8-1-3.6-2.2-5-3.6c-2-1.8-4-3.8-5.6-6
			c-7-8.6-11-19.4-11.8-30.6c-0.6-11.4,1-23,2.8-35l0,0c0-0.4-0.2-0.8-0.6-1.2c-0.2,0-0.2-0.2-0.4-0.2c-0.4,0-0.8,0.2-1.2,0.6
			c-6.4,10.6-9.8,23.4-9.4,36.2c0.2,6.4,1.2,13,3.4,19.2c2,6.2,5.2,12.2,9.2,17.4c2,2.6,4.2,5.2,6.6,7.4c2.6,2.4,5.6,4.4,8.4,6
			l1,0.6l0.8,0.4c0.4,0.4,1,0.6,1.4,1c0.2,0.2,0.6,0.4,0.8,0.8c0.4,0.4,1,1,1.4,1.6C468.2,510.4,469,512.4,469.6,514.8z M527.8,452
			c0-0.2-0.2-0.4-0.2-0.6c0-0.2-0.2-0.4-0.2-0.6c-0.2-0.4-0.2-0.8-0.4-1.2c0.2,0.4,0.2,0.8,0.4,1.2
			C527.6,451.4,527.8,451.8,527.8,452z"/>
		<path class="st8" d="M469.6,514.8c0.6,2.2,0.6,4.8,0.2,7c0,0.2,0,0.4,0,0.4c-0.4-0.2-1-0.4-1.4-0.6c-0.2,0-0.4-0.2-0.6-0.4
			c-1-0.6-2-1.2-2.8-1.8c-2.4-1.6-4.8-3.2-7-5l0,0c-0.2-0.2-0.6-0.4-1-0.6c-0.6-0.4-1.4-0.4-2-0.6c-2-0.2-4,1-5,2.8
			c-0.4,0.6-0.4,1-0.6,1.4c-0.2,0.4-0.4,1-0.6,1.4c-0.4,0.8-0.6,1.8-1,2.8c-0.6,1.8-1,3.8-1.4,5.6c-0.6,3.8-0.6,8.2,0.6,12.4
			c1.2,4.2,4.2,8.2,7.6,10.8c3.4,2.6,7.4,4,11,5c5,1.2,9.8,1.6,14.6,1.6c1.6,0,3.2,0,4.8,0c0.8,0,1.6,0,2.4-0.2c0.6,0,1.2-0.2,2-0.2
			c1,0,1.8-0.2,2.8-0.2c0.2,0,0.4,0,0.4,0c0.4,0,0.8-0.2,1.4-0.2c0.4,0,1-0.2,1.4-0.2c0.2,0,0.6,0,0.8-0.2c0.6,0,1.2-0.2,2-0.2
			c0.2,0,0.4,0,0.4-0.2c0.8-0.2,1.4-0.2,2.2-0.4c0.2,0,0.2,0,0.4,0c0.8-0.2,1.6-0.4,2.4-0.6c0.2,0,0.2,0,0.4-0.2
			c0.8-0.2,1.6-0.4,2.2-0.6c0.2,0,0.4-0.2,0.6-0.2c0.6-0.2,1.4-0.4,2-0.6c0,0,0,0,0.2,0c1.6-0.6,3.2-1.4,4.8-2.2
			c0.4-0.2,1-0.6,1.6-0.8c0.2,0,0.4-0.2,0.4-0.2c0.6-0.4,1.4-0.8,2-1.2s1.2-0.8,1.6-1.2c1.4-1,2.8-2,4-3.2c1.6-1.4,3-2.8,4.2-4.4
			c1.4-1.8,2.6-3.6,3.6-5.4c0.8-1.4,1.6-2.8,2.2-4.2c0.4-0.8,0.6-1.6,1-2.6c0.6-1.6,1-3.2,1.6-4.8c0.4-1.2,0.6-2.2,0.8-3.4
			c1-5.2,1.4-10.6,1.2-15.8c0-2-0.2-3.8-0.4-5.8c0-0.4,0-0.6,0-1c0-0.2,0-0.4,0-0.8c-0.4-3-0.8-5.8-1.4-8.8c0-0.2,0-0.4,0-0.6
			c-0.4-1.6-0.6-3.2-1-4.6c0-0.2-0.2-0.4-0.2-0.8c-0.4-1.2-0.6-2.4-1-3.8c0-1.4,0-3-0.2-4.4c0-1.8,0-3.6-0.4-5.2l-0.6-5.2
			c0-0.4,0-0.8-0.2-1.2c0-0.4-0.2-0.6-0.2-0.8s-0.2-0.4-0.2-0.8c-0.2-0.4-0.2-0.8-0.2-1.2l0,0c0-0.4-0.2-0.8-0.2-1.2
			c-0.2-1.4-0.6-2.8-1-4.2c-0.6-2-1.2-4-1.8-6c-0.2-0.4-0.2-0.8-0.4-1c-0.4-1.2-1-2.6-1.4-3.8c-0.2-0.6-0.4-1.4-0.8-2l0,0
			c0-0.2,0-0.2-0.2-0.4l-1-2.4c-2.8-6.4-6.2-12.4-10.2-18c-0.4-0.6-0.8-1.2-1.4-1.8c-0.6-0.8-1.2-1.6-1.8-2.4
			c-1-1.4-2.2-2.6-3.4-3.8c-2.4-2.4-5-4.8-8-6.6c-0.6-0.4-1.2-0.4-1.8,0c-0.8,0.4-1,1.6-0.6,2.4l0,0c3,5,6,9.8,8.8,14.6
			c0.4,0.6,0.8,1.4,1.2,2c3.2,5.6,6,11.4,8.2,17.4l0.8,2.2c0.2,0.8,0.4,1.6,0.8,2.2c0.4,1.6,1,3,1.4,4.6c0.6,2.4,1.4,5,1.8,7.6
			c0.2,0.6,0.2,1.2,0.4,1.8c0.2,1.6,0.6,3,0.8,4.6l0.6,4.6c0.2,1.6,0.2,3.2,0.4,4.8c0,1.6,0.2,3.2,0.2,4.8v0.4c0,0.4,0,0.8,0.2,1.2
			s0.2,0.8,0.4,1.2c0.4,1,0.6,2.2,0.8,3.2c0.4,1.6,0.6,3.2,1,4.6v0.2v0.2c0.2,0.8,0.4,1.8,0.4,2.6c0.2,1.6,0.4,3.4,0.6,5
			c0,0.4,0.2,1,0.2,1.4c0.6,6.4,0.4,12.6-0.8,18.6l0,0c-0.2,1.2-0.6,2.4-0.8,3.4c-0.2,0.6-0.2,1-0.4,1.6c-1.2,4-3.2,7.8-5.8,11
			c-0.4,0.4-0.6,0.8-1,1.2c-0.2,0.2-0.2,0.2-0.4,0.4l-0.4,0.4l0,0c-0.4,0.4-0.8,0.8-1.2,1.2c-1,1-2.2,2-3.4,2.6
			c-2.4,1.8-5,3-7.8,4.2c-0.2,0-0.4,0.2-0.6,0.2h-0.2c-1.2,0.4-2.4,0.8-3.6,1.2c-1.6,0.4-3,0.8-4.4,1l-4.6,0.6l-4.8,0.4
			c-1.4,0-3,0.2-4.4,0.2s-3,0-4.4,0c-3.4-0.2-6.6-0.4-9.8-1.2c-2.8-0.6-5.4-1.8-7.4-3.2c-1-0.8-1.8-1.6-2.4-2.4
			c-0.4-0.4-0.6-1-0.8-1.4c-0.2-0.6-0.4-1-0.6-1.6c-0.8-2.2-0.8-4.8-0.4-7.6c0-0.6,0.2-1.2,0.4-1.8c0.6,0.4,1.2,0.8,1.8,1.4
			c1.4,1,2.8,1.8,4.2,2.6c1.6,0.8,3,1.6,5.4,2.4c0.8,0.2,1.6,0.4,2.8,0.4c0.2,0,0.4,0,0.4,0c0.4,0,1,0,1.4-0.2
			c0.6-0.2,1.2-0.2,1.8-0.6c0.4-0.2,0.6-0.4,1-0.6c0.2-0.2,0.4-0.4,0.8-0.6c0.4-0.4,0.8-0.8,1-1.2s0.4-0.6,0.8-1
			c0.8-1.2,1.2-2.4,1.6-3.4c0.4-1,0.6-2,0.6-3c0.6-3.8,0.4-7.6-0.4-11.2c-0.8-3.6-2.4-7.2-4.8-10.4c-1.2-1.6-2.6-3-4.2-4.2
			c-0.8-0.6-1.6-1.2-2.4-1.6l-1.2-0.6l-1-0.4c-0.6-0.2-1-0.6-1.6-0.8c-1.8-1-3.6-2.2-5-3.6c-2-1.8-4-3.8-5.6-6
			c-7-8.6-11-19.4-11.8-30.6c-0.6-11.4,1-23,2.8-35l0,0c0-0.4-0.2-0.8-0.6-1.2c-0.2,0-0.2-0.2-0.4-0.2c-0.4,0-0.8,0.2-1.2,0.6
			c-6.4,10.6-9.8,23.4-9.4,36.2c0.2,6.4,1.2,13,3.4,19.2c2,6.2,5.2,12.2,9.2,17.4c2,2.6,4.2,5.2,6.6,7.4c2.6,2.4,5.6,4.4,8.4,6
			l1,0.6l0.8,0.4c0.4,0.4,1,0.6,1.4,1c0.4,0.2,0.6,0.4,0.8,0.8c0.4,0.4,1,1,1.4,1.6C468.2,510.4,469,512.4,469.6,514.8z M527.8,452
			c0-0.2-0.2-0.4-0.2-0.6c0-0.2-0.2-0.4-0.2-0.6c-0.2-0.2-0.2-0.6-0.4-1c0,0.4,0.2,0.6,0.4,1C527.6,451.4,527.8,451.8,527.8,452z"/>
		<g>
			<path class="st8" d="M521.8,463.6l0.4,3.8l8.2,1l-0.6-6.8l-8.4-0.4C521.6,462,521.8,462.8,521.8,463.6z"/>
			<path class="st8" d="M537,495.6L537,495.6c0,0-5.8-1.4-11.2-4.6c0,0.2,0,0.4,0,0.6c0.2,1.6,0.4,3.4,0.6,5c0,0.2,0,0.2,0,0.4
				c5.6,3.2,10.8,5,10.8,5L537,495.6z"/>
		</g>
	</g>
</g>
</svg>
