<?xml version="1.0" encoding="utf-8"?>
<!-- Generator: Adobe Illustrator 25.4.1, SVG Export Plug-In . SVG Version: 6.00 Build 0)  -->
<svg version="1.1" id="Calque_1" xmlns="http://www.w3.org/2000/svg" xmlns:xlink="http://www.w3.org/1999/xlink" x="0px" y="0px"
	 viewBox="0 0 615 615" style="enable-background:new 0 0 615 615;" xml:space="preserve">
<style type="text/css">
	.st0{fill:#00A23D;stroke:#013D3D;stroke-width:4.5;stroke-miterlimit:10;}
	.st1{fill:#FFC3AB;}
	.st2{fill:#00A23D;}
	.st3{fill:none;stroke:#013D3D;stroke-width:4.5;stroke-miterlimit:10;}
	.st4{fill:#F5EDF2;}
	.st5{opacity:0.7;}
	.st6{fill:#FFFFFF;}
	.st7{opacity:0.3;}
	.st8{fill:#013D3D;}
	.st9{fill:none;stroke:#000072;stroke-width:7.8335;stroke-linecap:round;stroke-linejoin:round;stroke-miterlimit:10;}
	.st10{opacity:0.29;fill:#FFFFFF;enable-background:new    ;}
	.st11{fill:#F7F9FA;}
	.st12{fill:#DCE6EB;}
	.st13{fill:#B9C3CD;}
	.st14{fill:url(#SVGID_1_);}
	.st15{fill:#FFCB4A;}
	.st16{fill:#FFBB43;}
	.st17{opacity:0.16;}
	.st18{opacity:0.38;}
	.st19{opacity:0.44;}
</style>
<g id="Calque_9">
</g>
<g id="Calque_5">
</g>
<g id="Calque_3">
</g>
<g>
	<g id="Calque_2_00000096055104730070930660000003008872147902983607_">
		<g>
			<path class="st0" d="M572.9,390.7c0,7.9-3.6,27-36,32.9c-0.6,0.1-1.2,0.1-2,0.1c-4.6,0-9.8-2.4-13.8-4.8
				c-4.1-2.4-6.9-4.8-7.1-5.1c-0.6-0.6-0.9-1.5-0.8-2.2c0.2-0.9,0.9-1.5,1.8-1.7c0.8-0.1,1.3-0.3,2.1-0.3c-0.8-0.6-1.3-1.3-1.8-2.1
				c-9.6,3.6-25.8,6.3-39.9,8.1c-14.7,1.8-27.2,2.7-27.2,2.7l27.2-33l22.3-27c12-13.5,35.2,15.8,36.8,8.2c4.5-10.5,18-6.3,18.2-6.3
				C563.3,362.5,572.9,376.9,572.9,390.7z"/>
		</g>
		<g>
			<path class="st1" d="M545.9,360c4.8-1.2,12,4.5,16.8,9.4c5,4.9,17.7,28.1,2.1,37.9c-0.5-3.8,0.4-7.6,0.4-11.4
				c0.2-7.5-3-15-8.1-20.4c-5.2-5.4-12.5-8.7-20-9.4c-0.4-1.7-2.1-4.8,2.6-4.7"/>
		</g>
		<path class="st2" d="M572.9,390.7c0,7.9-3.6,27-36,32.9c-0.6,0.1-1.2,0.1-2,0.1c-4.6,0-9.8-2.4-13.8-4.8c-4.1-2.4-6.9-4.8-7.1-5.1
			c-0.6-0.6-0.9-1.5-0.8-2.2c0.2-0.9,0.9-1.5,1.8-1.7c0.8-0.1,1.3-0.3,2.1-0.3c-0.8-0.6-1.3-1.3-1.8-2.1c-9.6,3.6-25.8,6.3-39.9,8.1
			v-30.1l22.3-27c12-13.5,35.2,15.8,36.8,8.2c4.5-10.5,18-6.3,18.2-6.3C563.3,362.5,572.9,376.9,572.9,390.7z"/>
		<path class="st3" d="M515.1,410.1c0.8-0.2,1.3-0.2,2.1-0.3c-0.8-0.6-1.3-1.4-1.8-2.1c-19.5,7.5-67.1,10.8-67.1,10.8l49.5-60
			c12-13.5,35.2,15.8,36.8,8.2c4.5-10.5,18-6.3,18.2-6.3c10.7,1.9,20.2,16.3,20.2,30.1c0,8-3.6,27-36,32.9c-0.6,0.2-1.3,0.2-2,0.2
			l0,0c-9.3,0-20.4-9.3-20.8-9.8c-0.6-0.6-0.9-1.5-0.8-2.2S514.2,410.2,515.1,410.1z"/>
		<g>
			<g>
				<path class="st1" d="M460.2,416.5c19.4-0.4,38.4-3.8,56.8-9.6c2.7-0.9,1.5-5.2-1.2-4.4c-18,5.9-36.8,9-55.7,9.4
					C457.4,412.2,457.4,416.7,460.2,416.5L460.2,416.5z"/>
			</g>
		</g>
		<g>
			<g>
				<path class="st1" d="M467.1,412.6c3.9-6.4,12.4-6.8,19.1-6.8c8.4,0.1,16.6,0.3,25.1,0.4c-0.2-1.5-0.4-3-0.6-4.4
					c-11.7,4.4-24,6.3-36.4,5.7c0.2,1.5,0.4,3,0.6,4.4c7.5-1.4,15-2.7,22.6-2.7c2.9,0,2.9-4.5,0-4.5c-9.6,0-19.3,1.2-28.5,4.2
					c0.6,1.3,1.2,2.7,1.8,4.1c3.4-2.1,7.2-3.2,11.2-3.2c2.9,0,2.9-4.5,0-4.5c-4.8-0.1-9.4,1.2-13.5,3.8c-2.1,1.4-0.8,4.9,1.8,4.1
					c8.9-2.8,18-3.9,27.3-4.1c0-1.5,0-3,0-4.5c-8.1,0-15.9,1.5-23.8,2.9c-2.6,0.4-1.8,4.3,0.6,4.3c12.8,0.6,25.7-1.3,37.7-5.8
					c2.2-0.9,2.1-4.4-0.6-4.4c-9.3-0.1-18.6-0.4-27.9-0.4c-7.7,0.2-15.9,1.9-20.2,8.9C461.6,412.8,465.5,415,467.1,412.6
					L467.1,412.6z"/>
			</g>
		</g>
	</g>
	<g>
		<g>
			<g>
				<g>
					<g>
						<g>
							<g>
								<g>
									<g>
										<g>
											<path class="st2" d="M568.7,202.9c-2.8-93.6-64-110.6-64-110.6c-37.5-48-101.1-19-102.2-18.6l0,0l0,0
												c-44.2-24.2-69.6,19-69.6,19l0,0c-62.1,15.8-78.4,55.1-75.3,80.1c1.5,11.7,7,20.2,14.4,22c0.3,0.2,0.6,0.2,0.9,0.2
												c-6.5,4.7-10.6,17.6-12,22.3c0,0,4.2,8.7,13.5,20.7c11.5,15.2,31,35.6,59.9,51l-0.3-0.2c-2.6-1-18.6-6.9-42.8-8
												c-28.5-1.2-68.4,4.7-111.2,33.5c-6,4-13,6.3-20.2,6.5c-24.3,0.9-78.9-1.2-113.9-33.9c0,0,2.1,67.5,60,114.6
												c25.5,20.7,61.8,37.5,113.5,42.8h1.2c3.3,6.2,8.2,11.7,15.6,15.8c0,0-12.9,47.7,27.3,64.1c-3-13.2,10.4-22.5,10.4-22.5
												c9.1,0.3,15.1,4.2,18.9,9.4c0,0,5.9-16.8,21.2-19.9c3-0.6,6.1,0.2,9.1,2.1c0,0,1.5-2.2,4.2-4.5c1.9-1.8,4.7-3.6,7.8-4.8
												l-0.6-1.8c-4.9-4.5-9.8-5.7-13.9-5.9c-5.5-0.1-9.8,1.5-11.7,0c-3.3-2.6-7.5-11.1-7.5-11.1c3-3,5.9-5.9,8.4-8.7
												c17.4,2.4,33.6,2.4,48.5,0.6c27.4-3.1,50.8-12.3,70.5-24.3c7.1-4.3,13.6-9,19.8-13.9c4.8-3.8,9.1-7.8,13.3-11.7
												c4.4-4.2,8.6-8.6,12.3-12.9c10.1-11.3,18.2-22.7,24.4-32.7c1.1-1.6,1.9-3.1,2.9-4.8c10.2-16.9,14.8-29.1,14.8-29.1
												S571.5,296.5,568.7,202.9z M345.2,250c-9.5-15-10.7-30-10.8-32.2c0-0.2,0-0.3,0-0.3c2.1,1.1,4.2,2.1,6.6,3.3
												c0.2,0.2,0.4,0.2,0.6,0.3c0.3,0.2,0.8,0.3,1.1,0.6c1.2,0.6,2.4,1.2,3.8,1.8c0.4,0.3,1.1,0.4,1.5,0.8
												c0.1,0,0.3,0.2,0.4,0.2c1.8,0.9,3.4,1.7,5.2,2.4h0.1c2.9,1.2,5.7,2.4,8.6,3.4C357.6,244.5,345.2,250,345.2,250z M374,417
												C374,417.1,374,417.1,374,417c-0.8,3.2-3,9.6-10.9,12.2c-0.3-0.3-0.8-0.4-1.1-0.8l0,0c-7.6-6.6-2.6-18.2-1.6-19.8v-0.2
												l0,0l0,0l0,0c0.4,0.3,6.4,5.2,10.5,6.8c1.3,0.6,2.6,0.8,3.1,0.3C374.1,415.5,374.1,416.1,374,417z M409.2,259.8
												c-11.1-11.7-12.4-21.2-12.4-21.2c0.3,0,0.6,0.2,0.9,0.2c10.1,1.3,18.9,1.5,25.5,1.2C420.9,250.6,409.2,259.8,409.2,259.8
												z"/>
										</g>
									</g>
								</g>
							</g>
							<g>
								<g>
									<g>
										<path class="st2" d="M434,460.5c-2.7,2.4-4.1,5.2-4.6,6.8c-1.2-0.1-1.9-0.1-1.9-0.1c-10.4,6.9-14.1,17.1-14.1,17.1l0,0
											c-13.6,0.9-16.2,16.9-16.2,16.9c-38.8-5.4-38.6-43.9-38.6-43.9l0,0c27.4-3.1,50.9-12.3,70.5-24.3c0,0-1.3,8.7-5.2,16.5
											C423.8,449.1,432.5,452.5,434,460.5z"/>
									</g>
								</g>
							</g>
						</g>
						<g>
							<g>
								<g>
									<g>
										<path class="st4" d="M374.1,415.5c0,0-0.8,10.4-11.1,13.8c-9.9-7.1-2.7-20.8-2.7-20.8S371.3,417.4,374.1,415.5z"/>
									</g>
								</g>
							</g>
							<g>
								<g>
									<g>
										<g>
											<g>
												<path class="st4" d="M288.3,548.5c-7.2-12.3-17.5-6.3-23.7-21.2c-0.4-1-0.8-2.2-1-3.3c-3-13.2,10.4-22.5,10.4-22.5
													c9.1,0.3,15.1,4.2,18.9,9.4c2.1,3,3.5,6.4,4.2,10.2C300.3,537.3,292.7,556,288.3,548.5z"/>
											</g>
										</g>
									</g>
									<g>
										<g>
											<g>
												<path class="st4" d="M333.6,544.2c0,0-9.6-23.7-36.6-22.9c-0.8-3.6-2.1-7.2-4.2-10.2c0,0,5.9-16.8,21.2-19.9
													c3-0.6,6.1,0.2,9.1,2.1c7.2,4.3,14,14.7,15.9,25.9C340.7,527.7,339.3,536.7,333.6,544.2z"/>
											</g>
										</g>
									</g>
									<g>
										<g>
											<g>
												<path class="st4" d="M369.5,507.4c0,0-21.9-2.1-30.4,11.7c-1.9-11.3-8.7-21.5-15.9-26c0,0,4.7-6.8,12-9.3
													c1.4-0.4,2.9-0.9,4.5-1.1C349.7,482.1,368.7,497.7,369.5,507.4z"/>
											</g>
										</g>
									</g>
									<g>
										<g>
											<g>
												<path class="st4" d="M473.9,501c0,0-15.8-6.4-24.2-4.8c-7.5,1.5-12.9-2.7-13.9-3.6l-0.1,0.1c-3-2.6-6.9-4.9-11.9-6.8
													c-4.1-1.5-7.5-2.1-10.5-1.8l0,0c0,0,3.9-10.1,14.1-17.1c0,0,0.8,0,1.9,0.1c5.6,0.8,21.9,3.6,33.6,15
													C467.7,486.9,471.8,493,473.9,501z"/>
											</g>
										</g>
									</g>
									<g>
										<g>
											<g>
												<path class="st4" d="M481.2,480.1l-17.6,2.8l-0.8-0.8c-11.7-11.6-28.1-14.4-33.6-15c0.6-1.5,1.9-4.3,4.6-6.8
													c3.2-2.8,8.1-4.9,15.8-3.4C466.5,460.5,481.2,480.1,481.2,480.1z"/>
											</g>
										</g>
									</g>
									<g>
										<g>
											<g>
												<path class="st4" d="M445.8,513c0,0-12.8-6.9-20.1-7.2c-14.6-0.4-28.7-4.8-28.7-4.8s2.6-16.1,16.2-16.9
													c3-0.1,6.4,0.3,10.5,1.8c4.9,1.9,8.9,4.2,11.9,6.8C446.3,501.7,445.8,513,445.8,513z"/>
											</g>
										</g>
									</g>
								</g>
							</g>
						</g>
						<g>
							<g>
								<g>
									<path class="st4" d="M473.9,501c0,0-15.8-6.4-24.2-4.8c-7.5,1.5-12.9-2.7-13.9-3.6l-0.1,0.1c-3-2.6-6.9-4.9-11.9-6.8
										c-4.1-1.5-7.5-2.1-10.5-1.8l0,0c0,0,3.9-10.1,14.1-17.1c0,0,0.8,0,1.9,0.1c5.6,0.8,21.9,3.6,33.6,15
										C467.7,486.9,471.8,493,473.9,501z"/>
								</g>
							</g>
						</g>
						<g>
							<g>
								<g>
									<g>
										<path class="st1" d="M220.7,444.4h-1.2c-51.8-5.2-88.1-22.1-113.6-42.8c20,8.4,58.2,19.7,109.2,11.2
											C215.3,413.1,213.9,431.2,220.7,444.4z"/>
									</g>
								</g>
							</g>
							<g>
								<g>
									<g>
										<path class="st1" d="M502.1,356.5c-0.9,1.5-1.9,3.1-2.8,4.8c-8.7,13.9-20.9,30.3-36.9,45.6c-4.2,4.1-8.7,7.9-13.3,11.7
											c-6.2,4.9-12.8,9.6-19.8,13.9c-19.7,12-43.1,21.1-70.5,24.3c-15,1.6-31.1,1.6-48.5-0.6c0,0,33-30.9,20.5-70.7
											c0,0,13.8-0.1,21.4-8.8c0,0,11.2,16.4,19.7,20.6c8.1,4.2,2.8,18.6,2.4,19.7l0,0l-3-1.9l-10.5-6.8l0,0l0,0l0,0v0.1
											c-0.8,1.8-5.2,13.2,1.7,19.8l0,0c3,2.9,8.1,4.8,16.6,4.8c30-0.3,48.3-15.3,36.9-56.4c0,0-2.4-27.1-9.9-37.5
											c0,0,44.6-46.3,77.9-29.1C497,317.1,501.5,336.1,502.1,356.5z"/>
									</g>
								</g>
							</g>
						</g>
						<g>
							<g>
								<g>
									<path class="st1" d="M334.2,287.1l-0.3-0.1c-2.6-1-18.6-6.9-42.8-8c-28.5-1.2-68.4,4.7-111.2,33.5c-6,4-13,6.3-20.2,6.4
										c-24.3,0.9-78.9-1.2-113.9-33.9c0,0,14.1,44.7,115,44.2c11.8,0,23.4-3.4,33.3-9.8c2.4-1.5,5.1-3.1,8.2-4.8
										c1.3-0.8,2.8-0.9,4.3-0.6c6.8,1.3,20.1-0.5,34.8-4.8c16.5-4.9,29.7-11.8,33.2-16.9c1-1.5,2.7-2.4,4.5-2.7
										C295.5,287.2,313.8,286.2,334.2,287.1z"/>
								</g>
							</g>
						</g>
						<g class="st5">
							<g>
								<g>
									<path class="st1" d="M309.9,358.2c0,0,32.9,48.4-8.4,106.9C301.5,465.1,368.9,404.7,309.9,358.2z"/>
								</g>
							</g>
						</g>
						<g class="st5">
							<g>
								<g>
									<path class="st6" d="M380.3,433c-0.8-1.2-1.6-2.4-2.4-3.8c2.1,0,4.3,0,6.6-0.1l3.6-0.3l3.4-0.4c1.2-0.2,2.2-0.4,3.3-0.8
										s2.1-0.8,3.3-1.1c2.1-0.9,4.1-1.8,5.8-3.2c0.9-0.6,1.7-1.3,2.6-1.9c0.4-0.3,0.8-0.8,1.2-1.2c0.3-0.4,0.8-0.8,1.1-1.2
										c2.7-3.3,4.4-7.5,5.2-12c0.9-4.5,1.1-9.3,0.6-13.9c-0.2-2.4-0.6-4.8-1.1-7.1c-0.3-1.2-0.4-2.4-0.8-3.4
										c-0.3-1.2-0.6-2.4-0.9-3.3c-0.1-0.3-0.1-0.6-0.1-0.9v-0.3c0-1.2-0.2-2.4-0.2-3.6s0-2.4-0.3-3.6l-0.4-3.4
										c-0.1-1.2-0.4-2.2-0.6-3.4c-0.3-2.4-1.1-4.6-1.7-6.9c-0.3-1.2-0.8-2.2-1.1-3.4c-0.1-0.6-0.3-1.2-0.6-1.7l-0.6-1.6
										c-1.6-4.5-3.8-8.9-6.1-13.1c-0.3-0.4-0.6-1.1-0.9-1.5c1.1-0.6,1.9-1.4,3-1.9c13.7,19.5,13.4,43.2,13.4,43.2
										C428.1,427,399,433.6,380.3,433z"/>
								</g>
							</g>
						</g>
						<g>
							<g>
								<g>
									<path class="st1" d="M516.9,327.4c83.6-150.3,5-209.6-18.7-223.2c-3.8-2.2-7.2-5.1-9.9-8.6c-24.3-30.1-84.6-22-85.8-21.9
										l0,0l0,0c1.1-0.5,64.7-29.4,102.2,18.6c0,0,61.2,17.1,64,110.6C571.5,296.5,516.9,327.4,516.9,327.4z"/>
								</g>
							</g>
						</g>
						<g>
							<g>
								<g class="st7">
									<g>
										<g>
											<path class="st8" d="M382.5,452.5c-7.6,1.9-15.6,3.4-24,4.5l0,0c0,0-0.3,38.7,38.6,43.9c0,0,2.4-14.7,14.6-16.8
												C392.1,478.5,385.1,463,382.5,452.5z"/>
										</g>
									</g>
								</g>
								<g>
									<g class="st7">
										<g>
											<g>
												<path class="st8" d="M323.1,493.3c-3-1.8-6.1-2.7-9.1-2.1c-15.3,3.2-21.2,19.9-21.2,19.9c-3.6-5.4-9.6-9.1-18.9-9.4
													c0,0-13.4,9.3-10.4,22.5c-40.2-16.2-27.3-64.1-27.3-64.1c-7.5-4.1-12.4-9.6-15.6-15.8h-1.2
													c-51.8-5.2-88.1-22.1-113.6-42.8c-57.9-47.1-60-114.6-60-114.6S63.6,387,189.8,417.7c5.7,1.4,11.7-1.1,14.7-6.1
													c3.8-6.2,9.2-13.7,14.1-15.6c0,0,1.7,39.9,23.8,55.5c5.2,3.8,8.1,9.9,7.3,16.4c-0.8,6.8-0.4,15.3,3.9,23.2
													c2.2,3.9,7.5,4.8,10.8,1.6c1.5-1.3,3.1-2.8,5-3.9c3-1.9,9.1,1.3,13.6,4.6c3.2,2.2,7.4,1.5,9.6-1.6
													c3.6-4.9,10.3-10.5,20.8-8.4C313.8,483.7,323.9,486.3,323.1,493.3z"/>
											</g>
										</g>
									</g>
									<g class="st7">
										<g>
											<g>
												<path class="st8" d="M474.6,394c-3.9,4.4-7.9,8.6-12.3,12.9c-4.2,4.1-8.7,7.9-13.4,11.7c-6.1,4.9-12.8,9.6-19.8,13.9
													c-19.6,12-43.1,21.1-70.5,24.3c-15,1.6-31.1,1.6-48.5-0.6c0,0,52.5-53.1,0-98.2c1,0.4,39.1,16.5,33.5,67.5
													C339.6,460.9,422.1,436.2,474.6,394z"/>
											</g>
										</g>
									</g>
									<g class="st7">
										<g>
											<g>
												<path class="st8" d="M352.5,333.1c0,0-24.9,42.4,5.4,63c0,0,1.1,2.1-1.9,6.6c-2.9,4.5-5.2,24.6,10.1,28.4
													c0,0,18.9-13.8,8.1-31.4c0,0-5.2-6.1-9.9-7.3C359.7,391.2,337.5,365.4,352.5,333.1z"/>
											</g>
										</g>
									</g>
									<g class="st7">
										<g>
											<g>
												<path class="st8" d="M383.3,321.9c-30-1.1-64.7-10.3-92-40.8c24.2,0.9,40.2,6.9,42.8,8l0.1,0.1h0.2
													c0,0,28.4,13.5,41.6,16.1l9.3,2.2C393.8,309.6,392,322.2,383.3,321.9z"/>
											</g>
										</g>
									</g>
									<g class="st7">
										<g>
											<g>
												<path class="st8" d="M455,235.8c-11.7,0.9-21.3,1.2-27.1,1.3c-21.8-3.9-76.2-15.5-101.3-34.8
													c-31.6-24.4-57.3-12.6-57.9-29.2c-0.8-16.8-5.4-52.2,78.4-83.3L332.8,93c-62.1,15.8-78.5,55.1-75.3,80.1
													c1.5,11.7,7,20.2,14.4,22.1l0.9,0.2c-6.5,4.7-10.7,17.5-12,22.3c0,0,4.2,8.7,13.5,20.7c0-9.2,2.1-18.9,10.5-20.7
													c12.9-3,29.5,7.3,35.9,11.7c1.6,1.1,2.8,2.6,3.9,4.2c2.9,5.1,9.8,17.2,15.3,23.4c1.8,2,4.5,2.7,7.1,1.8
													c4.1-1.4,10.3-4.5,15.8-11.1c2.4-3,6.4-4.2,10.2-3.2c4.2,1.2,9.6,2.8,14.2,3.9c2.2,0.6,4.3,2,5.7,3.9
													c2.6,3.8,6.6,11.8,12.6,16.3c1.8,1.4,4.2,1.5,6.2,0.6c3.4-1.8,9.4-5.6,15-12.9c4.1-5.4,9.9-9.2,16.5-10.3
													c4.5-0.9,9-1.8,13.3-3C460.5,241.9,459.5,235.5,455,235.8z M273,195.1c0.1,0,0.1,0,0.3,0
													C273.2,195.1,273,195.1,273,195.1z"/>
											</g>
										</g>
									</g>
									<g class="st7">
										<g>
											<g>
												<circle class="st8" cx="290" cy="134.8" r="7.5"/>
											</g>
										</g>
									</g>
									<g class="st7">
										<g>
											<g>
												<circle class="st8" cx="373.5" cy="152.1" r="8.1"/>
											</g>
										</g>
									</g>
									<g class="st7">
										<g>
											<g>
												<path class="st8" d="M429.2,153.3c0,0,34.2-15.2,47.1,10.4c0,0-0.6-27.2-19.2-27.2C438.5,136.5,429.2,153.3,429.2,153.3
													z"/>
											</g>
										</g>
									</g>
								</g>
							</g>
							<g>
								<g class="st7">
									<g>
										<g>
											<path class="st8" d="M274.2,523.2c-0.5-1-0.8-2.2-1.1-3.3c-1.6-7.5,2-13.8,5.4-17.7c-1.4-0.3-2.9-0.4-4.5-0.4
												c0,0-13.4,9.3-10.4,22.5c0.3,1,0.6,2.1,1.1,3.3c6.3,14.8,16.5,8.8,23.7,21.2c2.4,4.2,5.9,0.3,7.8-6.8
												C289.1,532.8,279.9,536.8,274.2,523.2z"/>
										</g>
									</g>
								</g>
								<g class="st7">
									<g>
										<g>
											<path class="st8" d="M302.3,507.1c-0.8-1.8-1.5-3.4-2.5-4.9c0,0,0.8-1.9,2.2-4.7c-6.5,6-9.2,13.5-9.2,13.5
												c2.1,3,3.5,6.5,4.2,10.2c27-0.8,36.6,22.9,36.6,22.9c2.9-3.6,4.5-7.7,5.4-11.8c-3.3-5.7-12.3-18.2-29.9-19.8
												C306,512.2,303.5,510.1,302.3,507.1z"/>
										</g>
									</g>
								</g>
								<g>
									<g class="st7">
										<g>
											<g>
												<path class="st8" d="M331.8,488.8c0,0,1.8-2.7,5.1-5.4c-0.6,0.2-1.2,0.3-1.8,0.4c-7.5,2.7-12,9.3-12,9.3
													c7.2,4.4,14,14.7,15.9,26c2.1-3.3,4.9-5.7,7.9-7.5C344.6,501.7,338.4,492.7,331.8,488.8z"/>
											</g>
										</g>
									</g>
								</g>
								<g class="st7">
									<g>
										<g>
											<path class="st8" d="M440.3,500.8c-14.6-0.4-28.6-4.8-28.6-4.8s1.1-6.8,5.6-11.7c-1.4-0.2-2.7-0.3-4.1-0.2
												c-13.7,0.9-16.2,16.9-16.2,16.9s14.1,4.4,28.6,4.8c7.5,0.3,20.1,7.2,20.1,7.2s0.1-5.6-3.3-12
												C441.8,501,441,500.8,440.3,500.8z"/>
										</g>
									</g>
								</g>
								<g class="st7">
									<g>
										<g>
											<path class="st8" d="M453.9,487.5c-7.5,1.5-12.9-2.7-13.9-3.6l-0.2,0.1c-3-2.6-6.9-4.9-11.8-6.8
												c-3.6-1.3-6.6-1.9-9.3-1.9c-3.8,4.8-5.2,8.7-5.2,8.7l0,0c3-0.1,6.4,0.3,10.5,1.8c4.9,1.9,8.8,4.2,11.8,6.8l0.2-0.1
												c1.1,0.9,6.4,5.1,13.9,3.6c8.4-1.6,24.1,4.8,24.1,4.8c-1.2-4.6-3.1-8.6-5.4-12C463.7,487.8,457.8,486.6,453.9,487.5z"/>
										</g>
									</g>
								</g>
								<g class="st7">
									<g>
										<g>
											<path class="st8" d="M468.6,475.8l-2.6,0.2c-11.1-10.9-26.4-14.1-32.7-15c-2.2,2.2-3.6,4.8-4.1,6.3
												c5.6,0.8,21.9,3.6,33.6,15l0.8,0.8l17.6-2.9c0,0-1.6-2.2-4.6-5.4L468.6,475.8z"/>
										</g>
									</g>
								</g>
							</g>
						</g>
						<g>
							<g>
								<g>
									<g>
										<g>
											<g>
												<path class="st6" d="M272.9,195.1c-6.4,4.7-10.6,17.6-12,22.3c-0.3,1.1-0.4,1.7-0.4,1.7c-13.5-18.3-2.9-46.2-2.9-46.2
													C259.1,185.1,265.2,193.9,272.9,195.1z"/>
											</g>
										</g>
									</g>
									<g>
										<g>
											<g>
												<path class="st6" d="M362.1,230.2c-4.7,14.2-16.9,19.8-16.9,19.8c-10.2-16.1-10.8-32-10.8-32.6c4.2,2.1,8.7,4.3,14,6.9
													C353,226.6,357.6,228.4,362.1,230.2z"/>
											</g>
										</g>
									</g>
									<g>
										<g>
											<g>
												<path class="st6" d="M423.2,240c-2.1,10.7-13.9,19.8-13.9,19.8c-11.1-11.7-12.4-21.2-12.4-21.2
													C407.1,240,416.3,240.3,423.2,240z"/>
											</g>
										</g>
									</g>
								</g>
								<g>
									<g>
										<g class="st7">
											<g>
												<g>
													<path class="st8" d="M265.2,190.9c-4.7,4.7-8,13.5-9.6,18.6c1,3.3,2.5,6.6,4.8,9.6c0,0,0.2-0.6,0.5-1.7
														c1.4-4.7,5.5-17.7,12-22.3C270,194.7,267.5,193.2,265.2,190.9z"/>
												</g>
											</g>
										</g>
									</g>
									<g class="st7">
										<g>
											<g>
												<path class="st8" d="M354,226.9c-3.3,8.2-9.3,13.2-12.9,15.8c1.2,2.4,2.6,4.9,4.1,7.3c0,0,12.4-5.6,16.9-19.8
													C359.4,229.2,356.7,228.1,354,226.9z"/>
											</g>
										</g>
									</g>
									<g class="st7">
										<g>
											<g>
												<path class="st8" d="M414.9,240c-2.1,6.2-7.1,11.6-10.2,14.6c1.2,1.6,2.7,3.5,4.3,5.2c0,0,11.7-9.2,13.9-19.8
													C420.6,240.1,417.9,240.1,414.9,240z"/>
											</g>
										</g>
									</g>
								</g>
							</g>
							<g>
								<g class="st5">
									<g>
										<g>
											<path class="st6" d="M296.9,521.2c-0.8-3.6-2.1-7.2-4.2-10.2c-3.6-5.4-9.6-9.1-18.9-9.4c0,0-1.8,1.2-3.9,3.4
												c7.8,0.9,13.2,4.5,16.5,9.3c2.1,3,3.4,6.4,4.2,10.2c1.8,9,0.3,18.8-2.1,24.3C293,555.4,300.2,537,296.9,521.2z"/>
										</g>
									</g>
								</g>
								<g class="st5">
									<g>
										<g>
											<path class="st6" d="M339,519.1c-1.9-11.2-8.7-21.4-15.9-25.9c-3-1.8-6.1-2.7-9.1-2.1c-5.9,1.2-10.4,4.4-13.7,7.8
												c2.1-1.2,4.7-2.2,7.4-2.8c3-0.6,6.1,0.1,9.1,2.1c7.2,4.4,13.9,14.7,15.9,26c0.9,5.5,0.8,11.2-1.1,16.5
												c1.2,2.1,1.8,3.4,1.8,3.4C339.3,536.7,340.7,527.7,339,519.1z"/>
										</g>
									</g>
								</g>
								<g class="st5">
									<g>
										<g>
											<path class="st6" d="M339.6,483c-1.7,0.2-3.2,0.4-4.5,1.1c-7.5,2.7-12,9.3-12,9.3c0.3,0.2,0.8,0.4,1.1,0.6
												c1.8-1.5,4.2-3,6.8-3.9c1.4-0.4,2.9-0.9,4.5-1.1c8.1-0.8,22.1,9.3,27.5,18.3c3.9-0.3,6.4,0,6.4,0
												C368.7,497.7,349.7,482.1,339.6,483z"/>
										</g>
									</g>
								</g>
								<g class="st5">
									<g>
										<g>
											<path class="st6" d="M435.6,492.7c-3-2.6-6.9-4.9-11.9-6.8c-4.1-1.5-7.5-2.1-10.5-1.8c-8.2,0.6-12.4,6.8-14.6,11.4
												c2.4-2.7,5.9-4.9,10.7-5.4c3-0.1,6.4,0.3,10.5,1.8c4.9,1.9,8.8,4.2,11.8,6.8c4.4,3.8,6.9,7.8,8.4,11.4
												c3.3,1.5,5.7,2.9,5.7,2.9S446.3,501.7,435.6,492.7z"/>
										</g>
									</g>
								</g>
								<g class="st5">
									<g>
										<g>
											<path class="st6" d="M423.6,473.1c0,0,0.8,0,1.9,0.1c5.6,0.8,21.9,3.6,33.6,15c2.9,2.9,5.6,6.2,7.7,10.2
												c4.2,1.2,7.2,2.6,7.2,2.6c-2.2-7.9-6.3-14.1-10.9-18.8c-11.7-11.6-28.1-14.4-33.6-15c-1.2-0.1-1.9-0.1-1.9-0.1
												c-7.8,5.2-11.8,12.3-13.3,15.4C416.3,479.4,419.4,475.9,423.6,473.1z"/>
										</g>
									</g>
								</g>
								<g class="st5">
									<g>
										<g>
											<path class="st6" d="M431,465.9c3.2-2.9,8.1-4.9,15.8-3.4c11.7,2.4,22.4,12.8,27.8,18.8l6.8-1.1c0,0-14.7-19.7-31.5-23.1
												c-7.6-1.6-12.6,0.6-15.8,3.4c-2.7,2.4-4.1,5.2-4.6,6.8c0.1,0,0.1,0,0.3,0C430.1,466.8,430.5,466.3,431,465.9z"/>
										</g>
									</g>
								</g>
							</g>
						</g>
						<g>
							<g>
								<g>
									<g>
										<circle class="st1" cx="245.3" cy="337.5" r="18.8"/>
									</g>
								</g>
							</g>
							<g>
								<g>
									<g>
										<ellipse class="st1" cx="513.7" cy="217.4" rx="18.8" ry="18.8"/>
									</g>
								</g>
							</g>
							<g>
								<g>
									<g>
										<ellipse class="st1" cx="275.8" cy="324.1" rx="10.3" ry="10.3"/>
									</g>
								</g>
							</g>
							<g>
								<g>
									<g>
										<circle class="st1" cx="524.1" cy="179.7" r="10.3"/>
									</g>
								</g>
							</g>
							<g>
								<g>
									<g>
										<circle class="st1" cx="126.6" cy="347.8" r="10.3"/>
									</g>
								</g>
							</g>
							<g>
								<g>
									<g>
										<ellipse class="st1" cx="275.9" cy="349.5" rx="6.9" ry="6.9"/>
									</g>
								</g>
							</g>
							<g>
								<g>
									<g>
										<ellipse class="st1" cx="301.5" cy="438" rx="6.9" ry="6.9"/>
									</g>
								</g>
							</g>
							<g>
								<g>
									<g>
										<circle class="st1" cx="211.2" cy="328.8" r="4.3"/>
									</g>
								</g>
							</g>
							<g>
								<g>
									<g>
										<circle class="st1" cx="141.3" cy="356.4" r="4.3"/>
									</g>
								</g>
							</g>
							<g>
								<g>
									<g>
										<circle class="st1" cx="296.1" cy="452.5" r="4.3"/>
									</g>
								</g>
							</g>
							<g>
								<g>
									<g>
										<circle class="st1" cx="392.3" cy="352" r="4.3"/>
									</g>
								</g>
							</g>
							<g>
								<g>
									<g>
										<circle class="st1" cx="309.9" cy="249.9" r="4.3"/>
									</g>
								</g>
							</g>
						</g>
					</g>
					<g>
						<g>
							<g>
								<g>
									<g>
										<path class="st8" d="M437.1,239.5c-3.4,1.3-6.9,2.1-10.5,2.8c-1.8,0.3-3.6,0.4-5.4,0.8c-1.8,0.2-3.6,0.3-5.4,0.4
											c-7.2,0.3-14.4-0.3-21.4-1.2l-5.4-0.8c-1.8-0.3-3.6-0.8-5.2-1.1l-2.7-0.4c-0.9-0.2-1.8-0.5-2.7-0.6l-5.2-1.3
											c-1.8-0.5-3.4-1.1-5.2-1.5l-2.6-0.8c-0.9-0.3-1.6-0.6-2.6-0.9l-5.1-1.8l-2.6-0.9l-2.6-1c-3.3-1.5-6.6-2.8-9.8-4.3
											c-3.2-1.5-6.3-3-9.6-4.7c-6.3-3.2-12.6-6.5-18.9-9.6c-6.1-3.3-12.3-6.6-18.4-8.8c-3-1.1-6.2-2.1-9.3-2.6
											c-3.1-0.4-6.4-0.8-9.9-0.9l-2.5-0.2c-0.6,0-1.2,0-1.8-0.2c-0.6-0.2-1.2-0.2-1.8-0.3c-2.4-0.6-4.5-1.7-6.3-3
											c-3.6-2.7-6-6.3-7.8-10.1c-3.5-7.3-4.2-15.2-3.8-22.8c0.5-7.7,2.4-15,5.6-21.9c3-6.9,7.2-13.2,12.1-18.7
											c9.9-11.1,22.5-19.2,35.7-25c6.6-2.9,13.5-5.3,20.4-7.2c1.6-0.5,3.4-0.9,5.2-1.3s3.4-0.8,5.2-0.9c1.8-0.1,3.6-0.3,5.4-0.1
											c1.8,0.1,3.8,0.3,5.6,0.9c0.3,0,0.4,0.3,0.3,0.6c0,0.1-0.2,0.1-0.2,0.3l0,0c-1.6,1.2-3.1,2-4.8,2.7
											c-1.6,0.8-3.3,1.5-4.9,2c-3.3,1.2-6.6,2-9.9,3c-6.6,2-13,4.4-19.2,7.2c-12.3,5.7-23.9,13.5-32.4,23.6
											c-4.3,5.1-8,10.7-10.5,16.7s-4.2,12.5-4.6,18.9c-0.3,6.4,0.4,12.9,3.1,18.3c1.2,2.7,3,5.1,5,6.5c1,0.8,2,1.2,3,1.5
											c0.3,0,0.5,0.2,0.8,0.2h0.9l2.7,0.2c3.6,0.2,7.4,0.4,11.1,1s7.5,1.7,10.9,3c7.1,2.7,13.2,6.2,19.5,9.5
											c6.2,3.3,12.4,6.6,18.6,9.8c3.2,1.7,6.3,3.2,9.3,4.7c3.2,1.7,6.3,3,9.3,4.3l2.4,1l2.4,0.9l4.8,1.8
											c0.8,0.3,1.7,0.6,2.4,0.9l2.4,0.8c1.7,0.4,3.3,1,4.9,1.5l4.9,1.3c0.9,0.2,1.7,0.4,2.6,0.6l2.6,0.6c1.7,0.3,3.3,0.8,5.1,1
											l5.1,0.8c13.7,2,27.3,2.6,41.2,3.3l0,0c0.4,0,0.9,0.4,0.9,1C437.7,239.2,437.6,239.5,437.1,239.5z"/>
									</g>
								</g>
							</g>
							<g>
								<g>
									<g>
										<path class="st8" d="M337.2,462.1c-9.4,0-19.1-0.6-28.8-1.9l1-7.8c61.2,8.4,114.2-10.1,157.1-55.2
											c32.2-33.9,46.5-70.8,46.6-71.1c0.3-0.9,0.9-1.5,1.8-1.9c0.2,0,13.3-7.8,25.9-26.4c11.7-17.2,25.4-47.5,23.9-94.5
											c-1.2-37-12.2-67.2-31.7-87.5c-14.7-15.2-29.4-19.5-29.6-19.5c-0.8-0.3-1.5-0.8-1.9-1.4C486.9,76,466.1,67.3,440,69
											c-19.9,1.4-35.6,8.4-35.7,8.5c-1.1,0.5-2.4,0.5-3.4-0.1c-40.3-21.9-63.3,15.9-64.4,17.5l-6.8-3.9
											c0.3-0.5,27.2-45,73.1-21.5c4.9-2,19.1-7.2,36.4-8.4c28.2-2,51.6,7.8,67.8,27.9c4.2,1.4,17.7,6.8,31.4,20.9
											c14.7,15,32.7,43.3,34.2,93c1.5,49.3-13,81.5-25.5,99.6c-11.5,16.8-23.2,25.2-27,27.6c-2.8,6.9-17.4,40.5-47.6,72.3
											c-19.6,20.6-41.7,36.1-65.7,46.2C384.9,457.6,361.7,462.1,337.2,462.1z"/>
									</g>
								</g>
							</g>
							<g>
								<g>
									<g>
										<path class="st8" d="M260.4,223c-1.2,0-2.4-0.6-3.1-1.7c-14.6-19.8-3.8-48.8-3.3-50l7.3,2.8l-3.6-1.3l3.6,1.3
											c-0.1,0.2-7,19.1-1.8,34.7c2.4-6,6-13.5,11.1-17.1l4.7,6.3c-5.5,3.9-9.8,17.1-11,21.8c-0.3,1.5-1.5,2.5-3,2.8
											C260.9,223,260.7,223,260.4,223z"/>
									</g>
								</g>
							</g>
							<g>
								<g>
									<g>
										<path class="st8" d="M345.2,253.9c-1.4,0-2.6-0.6-3.3-1.8c-10.8-16.9-11.4-33.8-11.4-34.5c0-2.1,1.6-3.9,3.8-4h0.1
											c2.1,0,3.9,1.7,3.9,3.8c0,0.2,0.6,13.3,8.2,27.3c3.4-2.4,9.3-7.3,11.9-15.6c0.6-2.1,2.8-3.2,4.9-2.5
											c2.1,0.6,3.1,2.8,2.6,4.9c-5.1,15.8-18.6,21.9-19.1,22.2C346.2,253.8,345.8,253.9,345.2,253.9z"/>
									</g>
								</g>
							</g>
							<g>
								<g>
									<g>
										<path class="st8" d="M409.2,263.7c-1.1,0-2.1-0.4-2.8-1.2c-11.7-12.5-13.5-22.8-13.5-23.3l7.8-1.2c0,0.2,1.3,7,9,16.2
											c3.3-3.2,8.6-9,9.8-15.2l7.6,1.5c-2.4,11.8-14.8,21.8-15.3,22.2C410.9,263.4,410,263.7,409.2,263.7z"/>
									</g>
								</g>
							</g>
							<g>
								<g>
									<g>
										<path class="st8" d="M264,216c0.8,1.2,1.5,2.6,2.2,3.8c0.8,1.2,1.6,2.6,2.5,3.8c1.7,2.6,3.5,5,5.2,7.3
											c1.8,2.4,3.8,4.8,5.5,7.2c2,2.4,3.9,4.7,5.9,6.9c4,4.5,8.2,8.8,12.8,12.9l3.3,3c1,1,2.2,2,3.5,3s2.2,2,3.5,2.8
											c1.2,0.9,2.4,2,3.6,2.9c9.6,7.4,19.8,14,30.6,19.4l4.1,1.9c0.8,0.3,1.3,0.8,2.1,1.1l2.1,0.9l4.1,2l4.2,2
											c2.7,1.3,5.6,2.5,8.4,3.9c2.9,1.4,5.7,2.5,8.4,4l0,0c0.1,0.2,0.1,0.3,0.1,0.5c0,0.2-0.1,0.2-0.3,0.2
											c-6.3-0.3-12.6-1.2-18.8-2.9c-6.1-1.5-12-3.9-17.8-6.5c-11.6-5.2-22.5-11.8-32.6-19.5c-5.1-3.8-9.9-8-14.5-12.3
											c-4.7-4.4-9-8.8-13.2-13.8c-4.2-4.8-8-9.8-11.5-15c-1.8-2.5-3.5-5.2-5.1-8.1c-0.8-1.3-1.6-2.7-2.4-4.2s-1.5-2.8-2.2-4.3
											c-0.8-1.8,0-3.8,1.6-4.5C261.2,213.7,263,214.3,264,216L264,216z"/>
									</g>
								</g>
							</g>
							<g>
								<g>
									<g>
										<path class="st8" d="M219.5,448.3c-0.2,0-0.3,0-0.4,0c-39.3-4.1-72.9-14.9-100.2-32.4c-21.9-14.1-39.8-32.4-53-54.6
											C43.4,323.7,42,288.7,42,287.2c0-1.7,0.9-3,2.2-3.8c1.5-0.6,3.1-0.3,4.4,0.8c34.4,32.1,89.1,33.8,111,32.8
											c6.6-0.3,12.9-2.2,18.3-5.8c43.5-29.4,84-34.8,110.4-34.2c28.7,0.6,46.8,8.1,47.7,8.5c2,0.9,3,3.2,2.1,5.1
											c-0.9,2-3.2,3-5.1,2.1l0,0c-0.1,0-17.8-7.3-45.1-7.9c-25-0.5-63.8,4.8-105.5,32.9c-6.6,4.3-14.2,6.9-22.3,7.2
											c-21.5,0.8-72.8-0.6-109.1-28.5c1.8,12.8,7.2,36.6,21.9,61.2c28.9,48,78.4,75.9,147.2,82.9c2.1,0.2,3.8,2.1,3.5,4.4
											C223.2,446.8,221.6,448.3,219.5,448.3z"/>
									</g>
								</g>
							</g>
							<g>
								<g>
									<g>
										<path class="st8" d="M218.9,396.1c-0.9,6-1.3,11.8-1.5,17.7c0,3,0.2,5.8,0.5,8.7c0.3,2.8,0.8,5.7,1.3,8.6
											c1.3,5.6,3.6,10.6,6.8,15c3.2,4.3,7.5,7.8,12.2,10.5l0,0h0.2c1.5,0.9,2.2,2.7,1.8,4.3c-0.2,0.6-0.3,1.4-0.5,2.1
											s-0.3,1.5-0.4,2.2c-0.3,1.5-0.5,3-0.6,4.5c-0.3,3-0.5,6-0.3,9c0.2,6,1.1,12,3.2,17.6c1.1,2.7,2.2,5.4,3.8,7.8
											c1.5,2.4,3.3,4.8,5.4,6.8c2.1,2.1,4.3,3.9,6.8,5.4c2.4,1.7,5.1,2.8,7.8,4.1l0.1,0.1c2,0.9,2.9,3.2,2.1,5.1
											c-0.9,1.9-3.2,2.8-5.1,2.1c-3.1-1.3-6.3-2.8-9.1-4.7c-3-1.8-5.7-4-8.1-6.4c-2.6-2.4-4.7-5.3-6.5-8.1
											c-1.8-3-3.3-6.2-4.5-9.3c-2.4-6.4-3.4-13.2-3.6-19.9c-0.2-3.3,0-6.8,0.5-10.1c0.2-1.7,0.4-3.3,0.6-4.9
											c0.2-0.9,0.3-1.7,0.4-2.6c0.2-0.9,0.3-1.7,0.6-2.6l2,4.5c-5.7-3.2-10.8-7.7-14.4-13.2c-1.8-2.7-3.3-5.7-4.4-8.7
											c-1-3-1.8-6.2-2.2-9.3c-0.9-6.3-0.8-12.6,0.2-18.6c0.5-3,1.1-6,2-9s1.8-5.8,3.2-8.6c0-0.1,0.2-0.1,0.3-0.1
											C218.9,396,218.9,396.1,218.9,396.1L218.9,396.1z"/>
									</g>
								</g>
							</g>
							<g>
								<g>
									<g>
										<path class="st8" d="M311.7,357.4c4.3,3,8.1,6.8,11.4,10.8c0.9,1.1,1.7,2.1,2.4,3.1s1.5,2.2,2.2,3.3
											c0.8,1.2,1.3,2.2,1.9,3.4l0.9,1.8l0.9,1.8c2.2,4.9,3.8,10.2,4.5,15.5c0.8,5.4,0.8,10.8,0,16.2c-1.5,10.8-6,20.8-11.6,29.8
											c-1.4,2.2-3,4.4-4.5,6.6c-1.7,2.1-3.3,4.2-5,6.3c-1.8,1.9-3.5,4.1-5.2,6l-5.5,5.7l0.8-4.5l0,0c1.3,2.8,3,5.7,4.8,8.1
											c0.5,0.6,0.9,1.1,1.2,1.5c0.1,0,0.1,0.2,0.3,0.2c0.2,0.1,0,0-0.1,0l-0.2-0.2c-0.3-0.1-0.1,0,0,0c0.3,0,1,0,1.8-0.1
											l2.6-0.3c3.6-0.4,7.6-0.4,11.5,0.8c3.9,1.1,7.3,3.3,10.2,6c1.7,1.5,1.7,3.9,0.3,5.6c-1.5,1.6-3.9,1.6-5.6,0.3l0,0
											c-2.1-1.9-4.5-3.4-7.2-4.2c-2.6-0.8-5.4-0.8-8.5-0.4l-2.6,0.3c-0.9,0.1-1.9,0.1-3.3,0.1c-0.8-0.1-1.5-0.1-2.5-0.6
											c-0.3-0.2-0.5-0.3-0.8-0.4c-0.3-0.2-0.6-0.3-0.6-0.4l-0.8-0.6c-0.9-0.8-1.5-1.6-2.1-2.4c-2.2-3.2-3.9-6.2-5.5-9.4l0,0
											c-0.8-1.5-0.5-3.4,0.8-4.5c7.2-7.1,13.9-14.4,19.5-22.8c5.4-8.2,9.8-17.4,11.6-27c0.9-4.8,1.1-9.8,0.6-14.6
											c-0.4-4.8-1.6-9.6-3.4-14.3c-3.6-9.1-9.3-17.8-16.5-24.8l0,0c-0.3-0.3-0.3-0.9,0-1.3C310.8,357.1,311.3,357.1,311.7,357.4
											z"/>
									</g>
								</g>
							</g>
							<g>
								<g>
									<g>
										<path class="st8" d="M290.6,554.1c-2,0-4-0.9-5.5-3.6c-2.7-4.7-5.7-5.9-9.5-7.5c-5-2.1-10.5-4.7-14.5-14
											c-5.8-14.1,4.5-26.1,10.6-30.4c0.8-0.4,1.5-0.8,2.4-0.8c14.8,0.6,24.8,9.6,27.1,24.9c1.8,12.2-1.5,28.7-8.5,31.2
											C291.9,554.1,291.3,554.1,290.6,554.1z M275.1,505.6c-3,2.4-11.1,10.4-7,20.2c2.7,6.6,6.2,8,10.4,9.9
											c3.8,1.7,8.4,3.6,12.1,9.3c2.2-4.2,4.8-15.6,1.7-25.7C289.8,511,284,506.4,275.1,505.6z"/>
									</g>
								</g>
							</g>
							<g>
								<g>
									<g>
										<path class="st8" d="M333.6,548.1c-0.1,0-0.3,0-0.6,0c-1.4-0.2-2.6-1.1-3.2-2.4c-0.3-0.9-9-21.2-32.8-20.4
											c-2.2,0-3.9-1.6-4-3.8c-0.1-2.1,1.6-3.9,3.8-4c20.1-0.6,31.5,11.4,36.7,19c4.2-9.9,1.5-21.9-3.8-30.6
											c-4.5-7.2-10.7-11.7-15.2-10.8c-12.9,2.6-18.1,17.3-18.3,17.4c-0.8,2.1-3,3.2-5,2.4c-2.1-0.8-3.1-3-2.4-4.9
											c0.3-0.8,6.8-18.9,24.1-22.5c7.9-1.6,16.8,3.9,23.4,14.4c7.8,12.4,10.8,31.2,0.1,44.9
											C335.9,547.5,334.8,548.1,333.6,548.1z"/>
									</g>
								</g>
							</g>
							<g>
								<g>
									<g>
										<path class="st8" d="M339,523c-0.8,0-1.3-0.2-2.1-0.6c-1.8-1.2-2.4-3.6-1.2-5.4c6.9-10.9,20.4-13.3,28.2-13.6
											c-4.5-7.7-17.4-17.1-24-16.7c-8,0.6-13.5,8.6-13.7,8.7c-1.2,1.8-3.6,2.2-5.4,1.1s-2.2-3.6-1.1-5.4
											c0.3-0.4,7.7-11.1,19.5-12c12-1.1,33,16.3,34.1,28.1c0.1,1.2-0.3,2.2-1.2,3.1c-0.8,0.8-1.9,1.2-3.2,1.1
											c-0.1,0-19.5-1.6-26.7,9.9C341.7,522.4,340.4,523,339,523z"/>
									</g>
								</g>
							</g>
							<g>
								<g>
									<g>
										<path class="st8" d="M432.9,433.3c-0.2,1.2-0.3,2.1-0.6,3.1c-0.3,1.1-0.6,2.1-0.9,3c-0.6,1.9-1.5,3.9-2.4,5.9
											c-0.9,1.9-2.1,3.8-3.3,5.4c-1.3,1.7-2.7,3.3-4.5,4.7c-0.4,0.4-1.2,0.3-1.6-0.2c-0.3-0.3-0.3-0.8-0.2-1.2l0,0
											c0.8-1.8,1.4-3.6,1.9-5.6c0.4-1.8,1.1-3.6,1.5-5.6l1.2-5.6c0.4-1.8,0.8-3.8,1.2-5.4v-0.2c0.6-2.1,2.7-3.3,4.8-2.8
											C431.9,429.6,433.1,431.4,432.9,433.3z"/>
									</g>
								</g>
							</g>
							<g>
								<g>
									<g>
										<path class="st8" d="M430.2,461.5c-0.9-5.8-7.8-8.7-7.9-8.7l2.9-7.3c0.4,0.1,11.2,4.3,12.9,14.8L430.2,461.5z"/>
									</g>
								</g>
							</g>
							<g>
								<g>
									<g>
										<path class="st8" d="M464.3,486.9l-1.2-7.8l10.7-1.8c-5.2-5.7-14.9-14.4-24.8-16.5c-12.6-2.7-15.9,7.3-16.2,8.4l-7.5-2.1
											c1.8-6.3,9.3-17.4,25.3-13.9c18,3.8,33.2,23.7,33.8,24.6c0.8,1.1,1.1,2.6,0.4,3.8c-0.4,1.2-1.6,2.2-3,2.4L464.3,486.9z"/>
									</g>
								</g>
							</g>
							<g>
								<g>
									<g>
										<path class="st8" d="M473.9,504.9c-0.4,0-1.1-0.2-1.5-0.3c-4.1-1.7-16.1-5.7-21.9-4.5c-10.3,2.1-17.4-4.5-17.6-4.8
											l5.4-5.7c0.1,0.1,4.5,4.1,10.6,2.8c5.2-1.1,12.6,0.4,18.3,2.1c-9.9-19.1-33-22.9-38.7-23.6c-8.2,6.1-11.6,14.2-11.6,14.4
											l-7.3-2.8c0.1-0.4,4.3-11.2,15.6-18.9c0.8-0.4,1.5-0.8,2.4-0.6c0.4,0,40.5,2.7,50.1,36.9c0.4,1.5,0,3-1.2,3.9
											C475.8,504.6,474.9,504.9,473.9,504.9z"/>
									</g>
								</g>
							</g>
							<g>
								<g>
									<g>
										<path class="st9" d="M397.1,501"/>
									</g>
								</g>
							</g>
							<g>
								<g>
									<g>
										<path class="st8" d="M445.8,516.9c-0.6,0-1.3-0.1-1.9-0.4c-3.3-1.8-13.1-6.6-18.4-6.8c-13.9-0.4-27.1-4.2-29.4-4.9
											c-41.4-5.9-41.7-47.4-41.7-47.9c0-2.1,1.8-3.9,3.9-3.9l0,0c2.1,0,3.9,1.8,3.9,3.9c0,1.4,0.3,33.2,31.8,39.6
											c1.3-4.1,4.3-10.4,10.3-13.8c5.7-3.3,12.6-3.4,20.6-0.4c25.2,9.4,24.8,30,24.6,30.9c0,1.3-0.8,2.6-1.9,3.3
											C447.2,516.7,446.6,516.9,445.8,516.9z M401.9,498.3c4.9,1.2,14.4,3.3,24,3.6c4.5,0.1,10.2,2.2,14.7,4.2
											c-1.9-5.2-6.8-12.2-18.2-16.5c-5.7-2.1-10.3-2.2-13.8-0.2C404.9,491.5,402.9,495.4,401.9,498.3z"/>
									</g>
								</g>
							</g>
							<g>
								<g>
									<g>
										<path class="st8" d="M363,433.2c-1.6,0-3.1-1.1-3.8-2.7c-0.8-2.1,0.4-4.2,2.6-4.9c7.7-2.6,8.4-10.1,8.4-10.3
											c0.1-2.1,2.1-3.8,4.2-3.6c2.1,0.2,3.8,1.9,3.6,4.2c0,0.6-1.1,13.1-13.8,17.2C363.9,433.2,363.5,433.2,363,433.2z"/>
									</g>
								</g>
							</g>
							<g>
								<g>
									<g>
										<path class="st8" d="M427.1,152.2c0.6-1.7,1.2-3,1.9-4.5s1.5-2.8,2.6-4.2c1.8-2.7,4.1-5.2,6.9-7.3c2.7-2.1,6-3.9,9.6-4.8
											c3.6-1.1,7.7-1.1,11.2-0.2c0.9,0.3,1.8,0.4,2.7,0.8c0.9,0.3,1.7,0.6,2.6,1c1.7,0.8,3.3,1.7,4.8,2.8c3,2.2,5.4,5.2,7.1,8.4
											c1.7,3.2,2.6,6.6,2.7,9.9c0.2,1.7,0.2,3.3,0,5c-0.1,1.7-0.4,3.2-0.9,4.8c-0.3,1-1.4,1.5-2.4,1.2c-0.6-0.2-1.1-0.8-1.2-1.2
											l-0.1-0.3c-0.2-0.6-0.3-1.3-0.6-1.9c-0.1-0.8-0.3-1.3-0.6-2.1c-0.4-1.3-0.9-2.7-1.4-3.9c-1.1-2.4-2.2-4.7-3.8-6.6
											c-0.8-0.9-1.5-1.8-2.4-2.5c-0.9-0.8-1.7-1.5-2.7-2c-0.9-0.6-1.9-1-3-1.5c-1.1-0.4-2.2-0.8-3.3-1c-0.6-0.2-1.1-0.3-1.7-0.3
											l-0.8-0.2h-0.8c-1.1,0-2.1,0-3.1,0.3c-2.1,0.4-4.4,1.2-6.6,2.4c-4.3,2.4-8.7,6.2-12.6,10.2l-0.2,0.2
											c-0.9,0.9-2.4,1.1-3.4,0C426.9,154,426.8,153,427.1,152.2z"/>
									</g>
								</g>
							</g>
						</g>
						<g>
							<g>
								<g>
									<path class="st8" d="M378.5,144.7c1.8,0.9,3.2,2.2,4.2,3.9c0.6,0.9,0.9,1.8,1.2,3c0.3,1,0.3,2.4,0,3.6
										c-0.3,1.2-1.1,2.4-1.8,3.3c-0.9,0.9-1.8,1.5-2.8,1.9c-1.1,0.5-1.9,0.6-3,0.6c-0.4,0-1.1,0-1.5-0.2s-1.1-0.3-1.5-0.4
										c-0.3-0.2-0.4-0.5-0.3-0.8c0,0,0,0,0-0.2l0,0c1.2-1.7,2.4-2.7,3.3-3.8c0.4-0.5,0.8-0.9,0.9-1.2c0.3-0.3,0.4-0.6,0.6-1.1
										c0.3-0.6,0.3-1.8,0.1-3.2c-0.1-1.3-0.6-2.8-0.9-4.5v-0.2c-0.2-0.6,0.3-1,0.9-1.2C378,144.7,378.3,144.7,378.5,144.7z"/>
								</g>
							</g>
						</g>
						<g>
							<g>
								<g>
									<path class="st8" d="M293.6,129.1c-1.3,1-2.5,2.1-3.6,3c-1.1,0.9-1.7,1.8-1.8,2.5c-0.1,0.3-0.1,0.6-0.1,1.1
										c0,0.4-0.2,0.9,0,1.7c0,1.3,0.3,2.8,0.1,4.9l0,0c0,0.3-0.3,0.6-0.6,0.6h-0.2c-0.6-0.2-1-0.3-1.5-0.6
										c-0.4-0.3-0.9-0.4-1.2-0.8c-0.8-0.6-1.5-1.3-2-2.4c-0.6-0.9-0.9-2.1-1-3.3c-0.2-1.2,0.1-2.6,0.8-3.8
										c0.6-1.2,1.3-2.1,2.2-2.8c0.9-0.8,1.8-1.2,2.8-1.7c2-0.8,3.9-0.8,5.9-0.3c0.6,0.2,0.9,0.7,0.8,1.2
										C294,128.7,293.9,128.8,293.6,129.1L293.6,129.1z"/>
								</g>
							</g>
						</g>
					</g>
				</g>
			</g>
		</g>
	</g>
	<circle class="st10" cx="454.4" cy="155.2" r="38.3"/>
	<path class="st8" d="M497.9,153.4v-1.3c0-1.3,0-2.7-0.3-4.2c-0.3-3.6-1.2-7.3-2.9-11.7c-1.3-3.6-3.4-7.2-6.3-10.9
		c-2.6-3.2-5.7-6.2-9.4-8.9c-3.4-2.4-7.5-4.3-12-5.8c-4.1-1.2-8.4-2-13.3-2.1l-1.8,0.2c-1.5,0-3,0.1-4.7,0.5
		c-2.1,0.3-4.1,0.8-5.8,1.3l-0.8,0.2c-4.5,1.5-8.4,3.5-12,5.8c-3.8,2.7-6.9,5.7-9.4,8.9c-2.9,3.8-4.8,7.3-6.3,10.8
		c-2.9,7.2-3.9,15.5-2.7,23.1c1.1,7,3.8,13.3,7.8,19c3.4,4.7,7.8,8.7,12.4,11.7c3.6,2.2,7.5,4,12,5.2c2.1,0.6,3.6,0.9,4.8,1
		c1.5,0.3,2.7,0.5,3.6,0.5l3,0.2l2.9-0.2l0,0c1.1,0,2.4-0.2,3.6-0.3c1.4-0.2,2.9-0.4,4.8-1c4.5-1.2,8.4-3,12-5.2
		c2.6-1.7,4.9-3.5,7.2-5.7c4.8-0.9,3,9,7.5,9c4.8,0,8.7-3.9,8.7-8.7c0-4.8-9.1-0.9-8.7-8.7c0-0.4,0-0.8,0-1
		c2.9-4.8,4.8-10.2,5.7-15.8C497.6,157.2,497.9,155.5,497.9,153.4z M491.3,158.5c-0.4,6-2.4,12-5.6,17.1c-2.6,4.2-6.1,7.9-10.6,11.1
		c-4.1,2.8-8.1,4.2-10.8,5.1c-1.8,0.6-3.2,0.8-4.4,0.9c-1.3,0.3-2.4,0.4-3.3,0.4l-2.8,0.2l-2.9-0.2c-0.8,0-1.8-0.2-3.3-0.4
		c-1.1-0.2-2.4-0.5-4.3-0.9c-2.7-0.8-6.8-2.2-10.8-5.1c-4.5-3.2-8.1-6.9-10.7-11.1c-3.1-5.1-5.1-11.1-5.6-17
		c-0.4-6.6,0.8-13.3,3.8-19.3s7.9-11.4,13.7-15.2c2.8-1.8,6.1-3.3,9.4-4.3l0.9-0.2c1.5-0.3,2.9-0.8,4.5-0.9c0.9-0.2,2.2-0.3,3.6-0.3
		c0.6,0,1.2,0,1.6-0.2c3.9,0,7.4,0.6,10.5,1.5c3.6,1.2,6.9,2.5,9.6,4.4c5.8,3.8,10.8,9.2,13.6,15.2c1.7,3.5,2.7,6.6,3.2,9.6
		c0.3,1.1,0.3,2.4,0.4,3.6l0.1,1.2C491.3,155.1,491.3,156.7,491.3,158.5z"/>
	<g>
		<path class="st8" d="M235.4,170.2c-3.3-6-2.2-13.9,1.8-19.5c3.6-5,9.2-8.1,15-9.8c-2.4,1.3-4.7,3.3-6.2,4.8
			c-2.7,2.6-4.2,6-4.8,9.6c-0.2,1.2-0.3,2.5-0.2,3.8c0.4,3,2.2,5.7,4.7,7.7c3.3,2.7,7.9,4,12.3,3.4c-3.3-0.2-6.6-1.2-9.3-3.3
			c-2.6-2.1-4.3-5.1-4.5-8.1c-0.2-2.8,1.2-5.6,3-7.8c0,0.6-0.2,1-0.2,1.7c-0.2,6.2,2.4,8.8,8.5,8.4c6.2-0.4,11.8-3,17.6-5.5
			c10.5-4.7,21-12.5,32.8-0.6c6.5,8.6-2.7,23.6-16.2,22.7c-2.9-0.2-8.6-0.8-11.4-1.1c-5-0.6-8.2,1.3-13.2,2.6
			C253.8,181.8,241.1,180.6,235.4,170.2z"/>
		<path class="st8" d="M315.2,157.5c16.2-4.1,21.3,8.1,27.8,17.4c3.4,5.1,7.1,10.2,12.1,13.8c4.9,3.6,8.6,2.5,11.7-2.7
			c0.3-0.4,0.6-1,0.8-1.5c0.6,2.8,0.2,5.8-1.3,8.2c-1.8,2.6-4.8,4.2-8.1,4.7c-3.3,0.5-6.8-0.4-9.6-1.9c3.4,2.7,7.9,4,12.3,3.4
			c3.1-0.4,6-1.8,7.9-4.2c0.8-1.1,1.3-2.1,1.8-3.3c1.3-3.4,1.8-7.2,0.9-10.8c-0.6-2.1-1.5-4.8-2.8-7.2c4.2,4.3,7.3,10.1,7.8,16.1
			c0.6,6.9-2.6,14.1-8.6,17.7c-10.2,6-21.8,0.5-30.3-7.8c-3.6-3.5-5.4-6.9-10.1-9c-2.6-1.2-7.8-3.8-10.2-5
			C305.3,179.1,305.1,161.5,315.2,157.5z"/>
	</g>
	<g id="Calque_10">
		<g>
			<g>
				<path class="st11" d="M428.9,379.8l24.1-13.9c1.2-0.6,2.6-0.6,3.8,0l21.2,12.1l2.6,10.8l-23,35.5c-1.2,0.6-2.6,0.6-3.8,0
					l-26.7-16.5v-24.8C426.9,382.5,428.3,380.2,428.9,379.8L428.9,379.8z"/>
				<path class="st12" d="M477.9,378l3.1,1.8c0.6,0.3,1.1,0.8,1.4,1.3l-4.5,5.1V378L477.9,378z"/>
				<path class="st12" d="M455,421.8l2.6,3.9l-2.6,3c-0.6,0-1.3-0.2-1.8-0.4L429,414.3c-1.2-0.6-1.8-1.9-1.8-3.3v-3.3l24.1,13.9
					C452.4,422.5,453.8,422.5,455,421.8L455,421.8z"/>
				<path class="st12" d="M426.9,383.1c0-0.6,0.1-1.3,0.4-1.8c0.3-0.6,0.8-1.1,1.3-1.3l28.1,16.2l21.2-12.2l2.6,25.1
					c0,1.3-0.8,2.6-1.8,3.3l-23.6,9.6v-22.6L426.9,383.1z"/>
				<path class="st13" d="M476.1,409.6c1.2-0.6,1.8-1.9,1.8-3.3v-22.7l4.5-2.6c0.3,0.6,0.4,1.2,0.4,1.8V411c0,1.4-0.8,2.6-1.8,3.3
					l-24.2,13.9c-0.6,0.3-1.2,0.4-1.8,0.4v-7.1L476.1,409.6z"/>
			</g>
			<g>
				<path class="st8" d="M397.8,426.7l8.2,4.8c1.9-1.2,3.9-2.6,5.7-4.2h-0.3c-2.2,0-4.1-1.8-4.1-4.1V421c0-0.1,0-0.3,0-0.4
					c-0.3,0.3-0.6,0.6-0.9,0.9c-0.8,0.8-1.7,1.5-2.6,1.9c-1.8,1.3-3.8,2.2-5.9,3.1C398.1,426.6,398,426.6,397.8,426.7z"/>
				<path class="st11" d="M395.9,425.5L395.9,425.5l1.8,1.2l7.9,4.9l16.9,10.5c0.9,0.6,2.1,0.6,3,0.3c0.3,0,0.4-0.1,0.8-0.3l3.1-4.8
					l18-27.9l1.8-2.7l-2.6-10.8l-2.4-1.4l-18.8-10.8c-1.2-0.8-2.6-0.8-3.8,0l-0.8,0.4l-5.6,3.1l-0.2,0.2l-1.5,0.9
					c0.2,1.2,0.3,2.6,0.4,3.8c0,0.3,0.2,0.8,0.2,1.1c0.4,4.8,0.3,9.4-0.6,13.9l0,0c-0.1,0.9-0.4,1.8-0.6,2.6
					c-0.2,0.4-0.2,0.8-0.3,1.2c-0.9,3-2.4,5.8-4.4,8.2c-0.3,0.3-0.4,0.6-0.8,0.9c-0.1,0.2-0.1,0.2-0.3,0.3l-0.3,0.3l0,0
					c0,0.2,0,0.3,0,0.4v2.2c0,2.2,1.8,4.1,4.1,4.1h0.3c-0.9,0.9-1.9,1.7-3,2.4c-0.4,0.3-0.8,0.6-1.2,0.9s-1.1,0.6-1.5,0.9l-8.2-4.8
					L395.9,425.5z"/>
				<path class="st12" d="M446.9,395.7l3.1,1.8c0.6,0.3,1.1,0.8,1.4,1.4l-4.5,5.1V395.7L446.9,395.7z"/>
				<path class="st12" d="M395.9,425.5L395.9,425.5l1.8,1.2l7.9,4.9c-0.3,0.2-0.8,0.4-1.2,0.6c-1.2,0.6-2.4,1.2-3.6,1.6h-0.1
					l21,12.2c0.6,0.3,1.2,0.4,1.8,0.4l2.6-3l-0.8-1.1l-1.8-2.9c-1.2,0.6-2.6,0.6-3.8,0l-13.9-8.1l-8.2-4.8L395.9,425.5z"/>
				<path class="st12" d="M413.1,410.7l6.9,4.1l3.8,2.2v22.5l5.7-2.2l18-7.3c1.2-0.6,1.8-1.9,1.8-3.3l-1.6-17.2l-0.8-7.8l-21.2,12.1
					l-4.5-2.7l-7.1-4.1c-0.1,0.9-0.4,1.8-0.6,2.6C413.3,409.9,413.3,410.4,413.1,410.7z"/>
				<path class="st13" d="M444.9,427.3c1.2-0.6,1.8-1.9,1.8-3.3v-22.7l4.5-2.6c0.3,0.6,0.4,1.2,0.4,1.8v28.1c0,1.4-0.8,2.6-1.8,3.3
					l-24.2,13.9c-0.6,0.3-1.2,0.4-1.8,0.4v-6.9L444.9,427.3z"/>
			</g>
			<g>
				<path class="st11" d="M412.2,379.9c0.3,0.8,0.4,1.6,0.6,2.4c0.3,1.2,0.4,2.4,0.8,3.4v0.2v0.1l1.8,1.2l6.9,4.2l14.4,8.8
					c0.9,0.6,2.1,0.6,3,0.3c0.3,0,0.4-0.1,0.8-0.3l3.9-6l19.1-29.4l-2.6-10.8L439.7,342c-1.2-0.6-2.6-0.6-3.8,0l-20.4,11.8l-1.3,0.8
					l0,0c0.1,0.8,0.3,1.5,0.6,2.2l0,0v0.2c0,0.3,0.2,0.4,0.3,0.8c0,0.1,0.2,0.3,0.2,0.4c0,0.1,0.1,0.3,0.1,0.4
					c0.6,1.6,1.5,3.1,2.7,4.5l0,0c0,0.3,0.2,0.6,0.2,0.9c0,0.2,0,0.3,0.1,0.6c0,0.1,0.2,0.4,0.2,0.6c0,0.3,0.1,0.6,0.1,0.9l0.4,3.9
					c0.2,1.4,0.2,2.7,0.3,3.9c0,1.1,0,2.2,0.2,3.3c0.3,1.1,0.6,1.9,0.8,2.8h-8.1V379.9z"/>
				<path class="st12" d="M461,354.1l3.2,1.8c0.6,0.3,1.1,0.8,1.3,1.4l-4.5,5.1V354.1L461,354.1z"/>
				<path class="st12" d="M413.7,385.9v0.1c0.2,0.6,0.3,1.4,0.3,1.9c0.2,1.2,0.3,2.6,0.4,3.8l8.2,4.8l13.5,7.8
					c0.6,0.3,1.2,0.4,1.8,0.4l2.6-3l-0.8-1.2l-1.8-2.9c-1.2,0.8-2.6,0.8-3.8,0l-12-6.9l-6.6-3.8L413.7,385.9z"/>
				<path class="st12" d="M439.8,372.1l-22.6-13.1c0.3,1.1,0.6,2.1,0.8,3.2c0,0.3,0.1,0.6,0.1,0.9l0,0c0,0.3,0.2,0.6,0.2,0.9
					l19.6,11.4v22.5l23.7-9.6c1.2-0.8,1.8-1.9,1.8-3.3l-2.6-25.1L439.8,372.1z"/>
				<path class="st8" d="M410.1,359.1c0.1-0.8,1.2-2.6,1.8-3c-0.6,0.3-1.1,0.8-1.2,1.4C410.3,357.9,410.1,358.5,410.1,359.1z"/>
				<path class="st13" d="M459.2,385.8c1.2-0.6,1.8-1.9,1.8-3.3V360l4.5-2.6c0.3,0.6,0.4,1.2,0.4,1.8v28.1c0,1.3-0.8,2.6-1.8,3.3
					L440,404.5c-0.6,0.3-1.2,0.4-1.8,0.4v-7.1L459.2,385.8z"/>
			</g>
		</g>
		<g>
			
				<linearGradient id="SVGID_1_" gradientUnits="userSpaceOnUse" x1="387.75" y1="108.2027" x2="508.95" y2="108.2027" gradientTransform="matrix(1 0 0 -1 0 502)">
				<stop  offset="0" style="stop-color:#D33B2F"/>
				<stop  offset="0.3659" style="stop-color:#FF4936"/>
				<stop  offset="0.5223" style="stop-color:#FC594C"/>
				<stop  offset="0.6788" style="stop-color:#FF4936"/>
				<stop  offset="1" style="stop-color:#D33B2F"/>
			</linearGradient>
			<path class="st14" d="M440.7,325.5c-12.6,0-24.3,3.4-34.5,9.3c2.7,3.9,4.9,8.1,6.9,12.4l0.8,1.8c0.3,0.6,0.4,1.2,0.8,1.8
				c0.4,1.2,0.9,2.4,1.3,3.8c0.8,2.6,1.5,4.9,2.1,7.6c0.3,1.4,0.6,2.6,0.8,3.9l0.4,3.9c0.1,1.4,0.1,2.7,0.3,3.9c0,1.1,0,2.2,0.1,3.3
				c0.3,1.2,0.6,2.2,0.9,3.4c0.3,1.3,0.6,2.6,0.9,3.9c0.4,2.6,0.9,5.2,1.1,8c0.4,5.2,0.4,10.8-0.8,16.2c-1.1,5.4-3.1,10.8-6.9,15.4
				c-3.6,4.6-8.7,7.9-13.8,9.9c-4.4,1.7-9,2.6-13.4,2.9c12.4,15.4,31.7,25.2,52.9,25.2c37.7,0,68.2-30.6,68.2-68.2
				C509,356.1,478.4,325.5,440.7,325.5z"/>
			<g>
				<g>
					<path class="st15" d="M464.4,365.7l14.1-0.6c0,0,1.2,12.6-2.8,19.4c-4.1,6.9-16.9,11.6-16.9,11.6l0.3-4.8
						c0,0,10.6-2.6,13.6-8.6c3.9-7.4,1.9-13.2,1.9-13.2l-10.8,1.3L464.4,365.7z"/>
				</g>
				<g>
					<path class="st16" d="M458.3,425.2c-0.8-0.9-2.1-1.3-3.4-1.5c-1.3-0.1-2.7-0.1-3.9-0.4c-1.8-0.4-3.2-1.8-3.9-3.3
						s-1.1-3-1.1-4.6c0-1.9,0.4-4.4,2.4-5.2c0.8-0.3,1.5-0.4,2.1-0.9c0.9-0.9,0.4-3-0.4-3.9c-1.3-1.2-3.9-1.8-5.8-2.1
						c-0.6-0.1-1.4-0.1-1.9-0.1c-0.6,0-1.4,0-1.9,0.1c-1.8,0.3-4.5,0.9-5.9,2.1c-0.9,0.8-1.5,3-0.4,3.9c0.4,0.4,1.4,0.6,2.1,0.9
						c2.1,0.9,2.6,3.3,2.4,5.2c0,1.6-0.3,3.1-1.1,4.6s-2.1,2.7-3.9,3.3c-1.2,0.3-2.7,0.3-3.9,0.4c-1.2,0.1-2.7,0.6-3.4,1.5
						c-0.6,0.8-0.6,1.8-0.4,2.7c2.4,0.3,4.8-0.3,7.2-0.4c3-0.3,6.2,0,9.3,0.2c3.2-0.2,6.2-0.4,9.3-0.2c2.4,0.3,4.8,0.9,7.2,0.4
						C458.9,426.9,458.9,426,458.3,425.2z"/>
				</g>
				<g>
					<path class="st15" d="M466.5,357.4H441h-25.5c0,0-1.1,29.8,4.5,39.2c5.6,9.4,21,11.2,21,11.2s15.4-1.9,21-11.2
						C467.6,387.3,466.5,357.4,466.5,357.4z"/>
				</g>
				<g>
					<path class="st16" d="M451.8,357.4c0,0.1,0,0.3,0,0.3c0,1.9,1.5,3.4,2.4,4.9c1.2,1.8,1.9,3.8,2.6,5.8c1.2,4.4,1.2,9.2-0.3,13.7
						c-2.9,8.2-10.7,14.6-19.2,15.9c-6.4,1.1-13.1-0.6-18.6-4.2c0.3,1.1,0.8,1.9,1.2,2.7c5.6,9.4,21,11.2,21,11.2s15.4-1.9,21-11.2
						c5.6-9.5,4.5-39.2,4.5-39.2H451.8z"/>
				</g>
				<g>
					<g class="st17">
						<path class="st6" d="M429.9,369.1c1.2,0.3,2.2,1.2,2.8,2.1c0.6,1.1,0.9,2.2,1.2,3.4c-0.1-1.2,0-2.4,0.3-3.4
							c0.4-1.1,1.2-2.1,2.2-2.7c-0.4,0.3-1.9-1.8-2.1-2.1c-0.6-0.9-0.9-1.9-0.9-3c-0.3,1.1-0.3,2.1-1.1,3.2
							C431.9,367.8,431,368.5,429.9,369.1z"/>
					</g>
					<g class="st18">
						<path class="st6" d="M431.9,369.1c0.4,0.2,0.9,0.4,1.2,0.9c0.3,0.4,0.4,0.9,0.6,1.5c0-0.4,0-1.1,0.2-1.5
							c0.1-0.4,0.4-0.9,0.9-1.2c-0.1,0.1-0.9-0.8-0.9-0.9c-0.3-0.4-0.3-0.9-0.4-1.3c-0.2,0.4-0.2,0.9-0.4,1.3
							C432.6,368.5,432.3,368.8,431.9,369.1z"/>
					</g>
					<g>
						<path class="st6" d="M432.6,369c0.1,0,0.4,0.1,0.4,0.3c0.1,0.1,0.1,0.4,0.1,0.6c0-0.1,0-0.4,0-0.6c0-0.2,0.2-0.3,0.3-0.4
							c-0.1,0-0.3-0.3-0.3-0.3c-0.1-0.2-0.1-0.3-0.1-0.4c0,0.1,0,0.3-0.2,0.6C433.1,368.8,432.9,369,432.6,369z"/>
					</g>
				</g>
				<g>
					<g class="st17">
						<path class="st6" d="M444.6,382.8c1.5,0.3,2.7,1.3,3.4,2.7c0.8,1.3,1.2,2.7,1.5,4.2c-0.2-1.5,0-3,0.4-4.4
							c0.4-1.3,1.3-2.6,2.7-3.3c-0.6,0.3-2.4-2.2-2.7-2.7c-0.8-1.1-1.1-2.4-1.1-3.6c-0.4,1.3-0.4,2.7-1.2,3.9
							C447,381,446,382,444.6,382.8z"/>
					</g>
					<g class="st18">
						<path class="st6" d="M446.9,382.8c0.6,0.1,1.2,0.6,1.5,1.2c0.3,0.6,0.4,1.2,0.6,1.8c0-0.6,0-1.2,0.2-1.8
							c0.1-0.6,0.6-1.1,1.2-1.4c-0.3,0.2-1.1-0.9-1.2-1.2c-0.3-0.4-0.4-1.1-0.4-1.6c-0.2,0.6-0.2,1.2-0.4,1.6
							C447.9,382,447.5,382.5,446.9,382.8z"/>
					</g>
					<g>
						<path class="st6" d="M447.9,382.6c0.3,0,0.4,0.3,0.6,0.4c0.2,0.1,0.2,0.4,0.3,0.8c0-0.3,0-0.4,0-0.8c0.2-0.3,0.3-0.4,0.4-0.6
							c-0.1,0-0.4-0.4-0.4-0.4c-0.1-0.2-0.1-0.4-0.1-0.6c0,0.3,0,0.4-0.2,0.8C448.4,382.3,448.2,382.5,447.9,382.6z"/>
					</g>
				</g>
				<g>
					<g class="st17">
						<path class="st6" d="M427.1,391.5c1.1,0.2,1.9,1.1,2.6,1.9s0.9,1.9,1.1,3c-0.1-1.1,0-2.1,0.3-3.1s1.1-1.9,1.9-2.4
							c-0.4,0.1-1.8-1.7-1.9-1.9c-0.4-0.8-0.8-1.7-0.8-2.7c-0.3,1.1-0.3,1.9-0.9,2.8C428.9,390.1,428,390.9,427.1,391.5z"/>
					</g>
					<g class="st18">
						<path class="st6" d="M428.7,391.5c0.4,0.2,0.9,0.4,1.1,0.9c0.3,0.4,0.3,0.9,0.4,1.3c0-0.4,0-0.9,0.2-1.3
							c0.1-0.4,0.4-0.8,0.9-1.1c-0.1,0.1-0.8-0.8-0.8-0.8c-0.1-0.3-0.3-0.8-0.3-1.2c-0.1,0.4-0.1,0.8-0.3,1.2
							C429.5,390.9,429.2,391.2,428.7,391.5z"/>
					</g>
					<g>
						<path class="st6" d="M429.5,391.3c0.2,0,0.3,0.1,0.4,0.3c0.1,0.1,0.2,0.3,0.2,0.4c0-0.2,0-0.3,0-0.6c0-0.1,0.1-0.3,0.3-0.4
							l-0.3-0.3c-0.2-0.2-0.2-0.3-0.2-0.4c0,0.1,0,0.3-0.1,0.4C429.8,391.2,429.6,391.2,429.5,391.3z"/>
					</g>
				</g>
				<g>
					<g>
						<path class="st15" d="M467.7,434.8h-50.8v-1.5c0-3.9,3.1-7.1,7.1-7.1h36.6c3.9,0,7.1,3.1,7.1,7.1v1.5H467.7z"/>
					</g>
					<g>
						<path class="st16" d="M462.5,426.1h-8.7c2.9,0,5.2,1.5,5.2,3.4v5.2h8.7v-5.2C467.7,427.6,465.3,426.1,462.5,426.1z"/>
					</g>
				</g>
				<g>
					<g>
						<path class="st15" d="M474.5,439h-64.6v-0.8c0-1.9,1.6-3.6,3.6-3.6H471c1.9,0,3.6,1.6,3.6,3.6v0.8H474.5z"/>
					</g>
					<g>
						<path class="st16" d="M467.9,434.8h-10.9c3.6,0,6.6,0.8,6.6,1.6v2.7h10.9v-2.7C474.5,435.3,473.7,434.5,467.9,434.8z"/>
					</g>
				</g>
				<g>
					<path class="st15" d="M467.7,362.2h-52.9c-1.3,0-2.4-1.1-2.4-2.4l0,0c0-1.3,1.1-2.4,2.4-2.4h52.9c1.4,0,2.4,1.1,2.4,2.4l0,0
						C470.1,361.2,468.9,362.2,467.7,362.2z"/>
				</g>
				<g>
					<path class="st16" d="M467.6,357.4h-0.8c0.2,0.3,0.3,0.8,0.3,1.2l0,0c0,1.3-1.1,2.4-2.4,2.4h-52.2c0.4,0.8,1.2,1.2,2.1,1.2
						h52.9c1.4,0,2.4-1.1,2.4-2.4l0,0C470,358.5,468.8,357.4,467.6,357.4z"/>
				</g>
				<g>
					<path class="st15" d="M415.7,357.4c0,0,8.4-6.6,25.5-6.6c18.6,0,25.5,6.6,25.5,6.6H415.7z"/>
				</g>
				<g>
					<path class="st15" d="M445.1,346.5c-0.1-0.8-0.8-1.2-1.3-1.5c-0.8-0.3-4.4-0.3-4.9,0c-0.6,0.3-1.2,0.9-1.4,1.5
						c-0.1,0.8,0.2,1.5,0.8,1.8c0.4,0.3,1.2,0.3,1.5,0.8c0.2,0.1,0.2,0.4,0.3,0.8c0,0.6,0.2,1.2,0,1.8c0,0.8-0.1,1.6,0.4,2.1
						c0.3,0.2,0.6,0.3,1.1,0.3c0.3,0,0.8,0,1.1-0.3c0.6-0.4,0.4-1.3,0.4-2.1c0-0.6,0-1.2,0-1.8c0-0.3,0.2-0.4,0.3-0.8
						c0.3-0.4,1.1-0.4,1.5-0.8C444.9,348,445.2,347.1,445.1,346.5z"/>
				</g>
				<g class="st7">
					<path class="st6" d="M440.3,345.3c-0.4,0-0.8,0-1.1,0.1c-0.3,0.2-0.8,0.3-0.9,0.6c-0.2,0.3-0.2,0.6,0.1,0.8
						c0.2,0.1,0.4,0,0.8,0c0.6-0.3,1.4-0.3,1.9-0.4c0.3,0,0.4,0,0.6-0.2c0.1-0.1,0.3-0.3,0.3-0.6c0-0.2-0.2-0.3-0.3-0.3
						c-0.3-0.2-0.8-0.2-1.1,0H440.3z"/>
				</g>
				<g class="st19">
					<path class="st6" d="M422.1,355.6c-0.4,0.2-0.9,0.6-0.8,0.9c0.1,0.3,0.4,0.3,0.8,0.3c3,0.1,6-0.4,8.7-1.5
						c1.2-0.4,2.4-1.1,3.6-1.5c2.1-0.9,4.4-1.7,6.6-2.1c-2.4-0.8-4.8,0-7.2,0.4c-2.6,0.6-5.1,1.2-7.7,2.1
						C425,354.6,423.5,355.2,422.1,355.6z"/>
				</g>
				<g>
					<polygon class="st6" points="445.5,387.9 439.1,384.3 432.5,387.4 434,380.2 428.7,375 436.1,374.1 439.5,367.6 442.7,374.4 
						449.9,375.6 444.5,380.5 					"/>
				</g>
				<g class="st7">
					<path class="st6" d="M421.1,386.2c0.3,1.5,0.9,3.3,2.2,4.2c0.2,0.1,0.4,0.3,0.8,0.3c0.4,0,0.9-0.4,1.1-0.9c0.2-0.5,0-0.9,0-1.3
						c-0.9-5.2-2.4-10.7-1.1-15.9c0.6-1.9,1.7-4.1,0.6-6c-0.6-1.3-2.2-2.1-3.6-1.2c-1.5,1.1-1.3,3.9-1.3,5.6
						c-0.2,2.4-0.2,4.8,0.1,7.2C420,380.8,420.5,383.5,421.1,386.2z"/>
				</g>
			</g>
		</g>
	</g>
	<g id="Calque_4">
		<g>
			<g>
				<g>
					<g>
						<path class="st6" d="M530.4,410.2c0.9,3,6.3,10.1,9.5,11.2c0,0-4.3-0.8-7.5,0c-0.6,0.2-1.5-1.5-2.2-1.5c-0.2,0-0.3,0-0.3,0
							c-4.3,0-12.1-4.1-12.4-6.6c0,0,0.4,0,1.3,0c2.7,0,6.5-1.1,9.2-3.9"/>
					</g>
				</g>
			</g>
		</g>
		<g>
			<g>
				<g>
					<g>
						<path class="st6" d="M521.4,401.2c0.9,2.6,3.8,4.9,6.9,5.9c0,0-1.9,1.5-5.1,2.1c-0.6,0.2-1.2,0.2-2,0.2c-0.1,0-0.3,0-0.3,0
							c-4.3,0-12.2-3.4-12.4-5.6c0,0,0.4,0,1.3,0C512.3,403.9,518.6,403.6,521.4,401.2"/>
					</g>
				</g>
			</g>
		</g>
		<g>
			<g>
				<g>
					<g>
						<path class="st6" d="M516.9,390.7c0.9,2.6,3.8,4.9,6.9,5.9c0,0-1.9,1.5-5.1,2.1c-0.6,0.2-1.2,0.2-2,0.2c-0.1,0-0.3,0-0.3,0
							c-4.3,0-12.2-3.4-12.4-5.6c0,0,0.4,0,1.3,0c2.7,0,7.9-2.6,10.6-5"/>
					</g>
				</g>
			</g>
		</g>
		<g>
			<g>
				<path class="st8" d="M533,365.5c-5.7-0.3-11.1,1.2-13.8,6.6c-2.4,5.1-2.1,11.2-7.2,14.7c-2.2,1.5-4.6,2.2-7.2,3.2
					c-2.1,0.8-4.9,1.5-4.8,4.4c0.3,2.6,3.4,4.5,5.4,5.7c2.4,1.5,5.1,2.7,7.9,3.6c0-1.5,0-2.8,0-4.3c-2.4,0.8-4.8,1.1-7.2,1.1
					c-1.7,0-3,1.9-1.9,3.4c4.1,5.8,10.1,8.1,16.6,9.8c0.2-1.5,0.5-3,0.6-4.4c-2.1,0-4.3,0-6.4,0c-2.8,0-2.8,4.5,0,4.5
					c2.1,0,4.3,0,6.4,0c2.6,0,3.2-3.8,0.6-4.3c-5.4-1.4-10.7-3-14-7.7c-0.6,1.2-1.3,2.2-1.9,3.4c2.9,0,5.7-0.3,8.4-1.2
					c2.1-0.6,2.1-3.8,0-4.3c-2.2-0.8-4.5-1.7-6.6-2.9c-1.1-0.6-1.9-1.3-2.8-2.1c-0.3-0.3-0.6-0.4-0.8-0.8c-0.2,0.4-0.2,0.9-0.3,1.3
					c0.1,0,1.2-0.4,1.3-0.4c4.1-1.3,8.3-2.8,11.4-5.9c3.6-3.4,4.2-8.1,5.7-12.6c0.6-1.9,1.7-3.9,3.4-4.9c2.1-1.2,4.7-1.2,7.1-1.1
					C535.8,370.2,535.8,365.7,533,365.5L533,365.5z"/>
			</g>
		</g>
	</g>
	<g id="Calque_7">
		<g>
			<g>
				<path class="st6" d="M522.2,406.5L522.2,406.5c-0.1,0-0.3-0.1-0.4-0.1c0.3,0.1,0.8,0.3,1,0.6
					C522.6,406.8,522.5,406.6,522.2,406.5c0.3,0.2,0.3,0.3,0.5,0.3c0.8-1.2,1.5-2.6,2.2-3.8l0,0c0.2,0.2,0.3,0.2,0.6,0.3
					c-0.4-0.1-0.8-0.4-1.2-0.8c0.1,0.2,0.3,0.3,0.4,0.3c-0.3-0.3-0.8-0.6-0.9-0.9c0.2,0.1,0.3,0.3,0.3,0.4c-0.3-0.3-0.5-0.6-0.6-1.1
					c-0.2-0.3-0.3-0.4-0.6-0.6c-0.1-0.1-0.4-0.3-0.8-0.4c-0.3-0.1-0.6-0.1-0.9,0c-0.3,0-0.6,0.2-0.9,0.3c-0.5,0.3-0.9,0.8-1.1,1.4
					c0,0.1,0,0.4-0.1,0.6c0,0.4,0.1,0.8,0.3,1.2c0.2,0.3,0.3,0.6,0.5,0.9c0.3,0.4,0.6,0.9,1,1.2c0.3,0.3,0.8,0.8,1.2,0.9
					c0.4,0.3,0.9,0.4,1.3,0.8c0.2,0,0.4,0,0.6,0.2c0.3,0,0.6,0,0.9-0.2c0.2,0,0.3-0.1,0.4-0.3c0.3-0.1,0.5-0.3,0.6-0.6
					c0.1-0.2,0.1-0.3,0.3-0.6c0-0.1,0-0.4,0.2-0.6c0-0.3,0-0.6-0.2-0.9s-0.3-0.4-0.4-0.8c-0.3-0.3-0.8-0.6-1.2-0.9
					c-0.4-0.3-0.9-0.4-1.3-0.6c-0.3-0.1-0.6-0.1-0.9,0c-0.3,0-0.6,0.2-0.9,0.3c-0.3,0.2-0.4,0.3-0.6,0.6c-0.2,0.1-0.3,0.4-0.4,0.8
					c-0.2,0.6-0.2,1.2,0.3,1.8c0.2,0.1,0.3,0.3,0.3,0.4C521.4,406.2,521.7,406.5,522.2,406.5L522.2,406.5z"/>
			</g>
		</g>
	</g>
	<g id="Calque_6">
		<g>
			<g>
				<path class="st8" d="M514.4,388.5c0.9,2.4,2.2,4.5,4.2,6.2c0.9,0.8,2,1.5,3.2,2.1c0.6,0.3,1.2,0.6,2,0.8c0.1,0,0.3,0.2,0.3,0.2
					c0.3,0.1,0.3,0.1,0,0c0.2,0.1,0.2,0.1,0,0c-0.4-0.4-0.4-1.1-0.2-1.7c0.2-0.1,0.2-0.1,0,0c-0.1,0.2-0.1,0.2-0.3,0.3
					c-0.2,0.2-0.5,0.4-0.6,0.6c0,0-0.8,0.6-0.5,0.4c-0.3,0.1-0.4,0.3-0.8,0.4c-1,0.8-1.7,1.1-3,1.2c0.5,0-0.4,0-0.4,0
					c-0.2,0-0.9-0.2-0.5,0c-0.6-0.2-1.2-0.3-1.8-0.6c-1.4-0.4-2.6-0.9-4.1-1.1c-1.2-0.1-2.2,1.1-2.2,2.2c0,1.4,1.1,2.1,2.2,2.2
					c0,0,0.5,0,0.2,0c-0.3,0,0.3,0,0.3,0c0.3,0,0.5,0.2,0.8,0.2c0.6,0.1,1.2,0.4,1.7,0.6c1.1,0.4,2.2,0.8,3.5,0.8
					c2.4,0,4.6-0.9,6.6-2.2c0.9-0.8,1.8-1.3,2.5-2.2c1.2-1.3,1.5-3,0.2-4.3c-0.8-0.9-1.9-1.2-3-1.5c-0.4-0.2,0.2,0.1-0.3-0.2
					c-0.2-0.1-0.5-0.1-0.6-0.3c-0.4-0.3-0.9-0.4-1.2-0.8c-0.2-0.1,0,0,0,0c-0.2-0.1-0.3-0.1-0.5-0.3c-0.1-0.1-0.4-0.4-0.6-0.6
					c-0.2-0.1-0.3-0.3-0.4-0.6c-0.2-0.2-0.6-0.6-0.3-0.3c-0.3-0.4-0.6-0.9-0.9-1.4c-0.1-0.1-0.3-0.4-0.3-0.6c0,0-0.2-0.4-0.2-0.2
					c0.2,0.3-0.2-0.3-0.2-0.3c-0.4-1.1-1.5-1.9-2.7-1.5C514.8,386.1,513.9,387.3,514.4,388.5L514.4,388.5z"/>
			</g>
		</g>
		<g>
			<g>
				<path class="st8" d="M522.2,398.5c-0.8,1.5-0.6,3.2,0.6,4.5c0.8,0.9,1.6,1.5,2.5,2.1c0.5,0.3,0.9,0.6,1.3,0.9
					c0.3,0.2,0.5,0.3,0.8,0.6c-0.3-0.3,0,0.1,0.2,0.1c-0.2-0.1-0.3-0.4-0.3-0.8c0.1-0.6,0.3-0.8,0-0.4c0.1-0.1,0.1-0.1,0,0l-0.2,0.2
					c-0.3,0.3-0.6,0.6-1.1,0.9c-0.1,0.2-0.1,0.2,0.2,0c-0.2,0-0.2,0.2-0.3,0.2c-0.2,0.1-0.5,0.3-0.6,0.4c-0.3,0.1-0.8,0.4-1.2,0.6
					c-0.6,0.3,0.4-0.1-0.2,0c-0.3,0.2-0.4,0.2-0.8,0.3c-0.4,0.2-0.9,0.3-1.2,0.3c0,0-0.8,0.2-0.5,0.2c0.3,0-0.3,0-0.4,0
					c-0.5,0-0.9,0-1.4,0c-0.3,0-0.4,0-0.8,0c0.6,0,0,0-0.1,0c-0.5-0.2-0.9-0.2-1.4-0.3c-1-0.3-2.5,0.4-2.7,1.5
					c-0.3,1.2,0.3,2.4,1.5,2.7c4,1.3,8.7,0.4,12.2-1.9c0.9-0.8,1.9-1.5,2.5-2.6c0.9-1.5,0.6-3.3-0.6-4.5c-0.9-0.9-2.1-1.5-3.2-2.2
					c-0.3-0.2-0.4-0.3-0.8-0.6c-0.2-0.1-0.2-0.1,0,0c-0.2-0.1-0.2-0.1-0.3-0.3c-0.2-0.1-0.2-0.1-0.3-0.3c0.2,0.2,0.2,0.2,0,0
					c0.2,0.3,0.2,0.4,0,0.8c0.6-1.1,0.3-2.6-0.8-3.1C524.3,397.2,522.8,397.5,522.2,398.5L522.2,398.5z"/>
			</g>
		</g>
		<g>
			<g>
				<path class="st8" d="M512,413.4c4.8,5.7,12,11.8,20.1,11.2c2.1-0.2,4.4-0.8,6.2-1.9c1.3-0.9,3-2.2,2.6-4.1
					c-0.3-1.1-1.2-1.5-2.1-1.9c-1.3-0.8-2.7-1.4-3.9-2.2c-2.2-1.5-4.1-3.6-5-6.2c-0.9-2.7-5.2-1.6-4.3,1.2c1.5,4.7,5.1,7.9,9.2,10.2
					c0.4,0.3,1,0.6,1.5,0.8c0.3,0.2,0.4,0.3,0.8,0.4c0.8,0.3,0.1,0.4-0.5-0.6c-0.2-0.4-0.3-1.4-0.3-1.5c0-0.2,0.3-0.6,0.1-0.3
					c0.5-0.6,0.2-0.2,0,0c-0.1,0-0.1,0.1-0.3,0.1c-0.3,0.3,0.4-0.3,0,0c-0.3,0.2-0.6,0.3-0.8,0.4c-0.2,0.2-0.3,0.2-0.5,0.3
					c-0.4,0.3,0.3,0-0.1,0.2c-0.3,0.1-0.8,0.3-1.1,0.3c-0.2,0-0.4,0.1-0.6,0.1s-0.3,0-0.3,0c-0.6,0.2,0.5,0-0.1,0
					c-2.4,0.3-4.4-0.1-6.6-1.2c-4.2-1.9-7.6-5.2-10.5-8.8c-0.8-0.9-2.4-0.8-3.1,0C511.1,411.1,511.2,412.3,512,413.4L512,413.4z"/>
			</g>
		</g>
	</g>
	<g id="Calque_8">
		<path class="st8" d="M371.7,405.6c0.4,1.6,0.4,3.6,0.2,5.2c0,0.1,0,0.3,0,0.3c-0.3-0.2-0.8-0.3-1.1-0.4c-0.2,0-0.3-0.2-0.4-0.3
			c-0.8-0.4-1.5-0.9-2.1-1.4c-1.8-1.2-3.6-2.4-5.2-3.8l0,0c-0.1-0.1-0.4-0.3-0.8-0.4c-0.4-0.3-1.1-0.3-1.5-0.4
			c-1.5-0.1-3,0.8-3.8,2.1c-0.1,0.4-0.3,0.8-0.4,1.1c-0.1,0.3-0.3,0.8-0.4,1.1c-0.3,0.6-0.4,1.3-0.8,2.1c-0.4,1.4-0.8,2.9-1.1,4.2
			c-0.4,2.9-0.4,6.2,0.4,9.3c0.9,3.2,3.2,6.2,5.7,8.1c2.6,1.9,5.6,3,8.2,3.8c3.8,0.9,7.4,1.2,10.9,1.2c1.2,0,2.4,0,3.6-0.2
			c0.6,0,1.2,0,1.8-0.1c0.4,0,0.9,0,1.5-0.2c0.8,0,1.3-0.1,2.1-0.1c0.2,0,0.3,0,0.4,0c0.3,0,0.6-0.2,0.9-0.2s0.8-0.1,1.1-0.1
			c0.1,0,0.4,0,0.6-0.2c0.4,0,0.9-0.1,1.4-0.3c0.1,0,0.3,0,0.3,0c0.6-0.1,1.1-0.1,1.6-0.3c0.2,0,0.2,0,0.3,0
			c0.6-0.1,1.2-0.3,1.8-0.4c0.2,0,0.2,0,0.3-0.1c0.6-0.2,1.2-0.3,1.7-0.4c0.1,0,0.3-0.2,0.4-0.2c0.4-0.1,0.9-0.3,1.5-0.4l0,0h0.1
			c3.9-1.5,7.7-3.8,10.8-6.6c1.2-1.1,2.2-2.1,3.2-3.3c1.1-1.4,1.9-2.7,2.7-4.1c0.6-1.1,1.2-2.1,1.6-3.2c1.2-2.7,1.9-5.4,2.6-8.1
			c1.1-5.4,1.2-10.9,0.8-16.2c-0.1-2.7-0.6-5.3-1.1-8c-0.3-1.3-0.4-2.6-0.9-3.9c0-0.2-0.2-0.3-0.2-0.6l0,0c-0.3-0.9-0.4-1.8-0.8-2.8
			c0-1.1,0-2.2-0.1-3.3c0-1.4,0-2.7-0.3-3.9l-0.4-3.9c0-0.8-0.3-1.4-0.3-2.1c-0.2-0.3-0.2-0.6-0.2-0.9l0,0c0-0.3-0.1-0.6-0.1-0.9
			c-0.2-1.1-0.4-2.1-0.8-3.1c-0.4-1.5-0.9-3-1.4-4.5c-0.4-1.2-0.9-2.4-1.3-3.8c-0.2-0.4-0.3-1.1-0.6-1.5l0,0c0-0.2,0-0.2-0.1-0.3
			l-0.8-1.8c-2.1-4.8-4.7-9.3-7.7-13.5c-0.3-0.4-0.6-0.9-1.1-1.4c-0.4-0.6-0.9-1.2-1.3-1.8c-0.8-1.1-1.7-1.9-2.6-2.8
			c-1.8-1.8-3.8-3.6-6-4.9c-0.4-0.3-0.9-0.3-1.4,0c-0.6,0.3-0.8,1.2-0.4,1.8l0,0c2.2,3.8,4.5,7.3,6.6,10.9c0.3,0.4,0.6,1.1,0.9,1.5
			c2.4,4.2,4.5,8.6,6.2,13.1l0.6,1.6c0.2,0.6,0.3,1.2,0.6,1.7c0.3,1.2,0.8,2.2,1.1,3.4c0.4,1.8,1.1,3.8,1.3,5.7
			c0.2,0.4,0.2,0.9,0.3,1.3c0.2,1.2,0.4,2.2,0.6,3.4l0.4,3.4c0.1,1.2,0.1,2.4,0.3,3.6c0,1.2,0.1,2.4,0.1,3.6v0.3
			c0,0.3,0,0.6,0.2,0.9c0.1,0.3,0.1,0.6,0.3,0.9l0,0c0.3,0.8,0.4,1.7,0.6,2.4c0.3,1.2,0.6,2.4,0.8,3.4c0.4,2.4,0.8,4.8,1.1,7.1
			c0.4,4.8,0.3,9.4-0.6,13.9c-0.2,0.9-0.4,1.8-0.6,2.7c-0.9,3.4-2.6,6.8-4.6,9.4c-0.3,0.3-0.4,0.6-0.8,0.9c-0.2,0.1-0.2,0.1-0.3,0.3
			l-0.3,0.3l0,0c-0.3,0.3-0.6,0.6-0.9,0.9c-0.8,0.8-1.6,1.5-2.6,1.9c-1.8,1.4-3.8,2.2-5.8,3.2c-1.1,0.3-2.1,0.8-3.3,1.1
			c-1.2,0.3-2.2,0.6-3.3,0.8l-3.4,0.4l-3.6,0.3c-1.1,0-2.2,0.1-3.3,0.1s-2.2,0-3.3,0c-2.6-0.1-4.9-0.3-7.3-0.9
			c-2.1-0.4-4.1-1.4-5.6-2.4c-0.8-0.6-1.4-1.2-1.8-1.8c-0.3-0.3-0.4-0.8-0.6-1.1c-0.1-0.4-0.3-0.8-0.4-1.2c-0.6-1.6-0.6-3.6-0.3-5.7
			c0-0.4,0.2-0.9,0.3-1.3c0.4,0.3,0.9,0.6,1.4,1.1c1.1,0.8,2.1,1.3,3.1,1.9c1.2,0.6,2.2,1.2,4.1,1.8c0.6,0.1,1.4,0.3,2.4,0.3l0,0
			l0,0c0.3,0,0.8,0,1.1-0.2c0.4-0.1,0.9-0.1,1.3-0.4c0.3-0.1,0.4-0.3,0.8-0.4c0.2-0.1,0.3-0.3,0.6-0.4c0.3-0.3,0.6-0.6,0.8-0.9
			c0.1-0.3,0.3-0.4,0.6-0.8c0.6-0.9,0.9-1.8,1.2-2.6c0.3-0.8,0.4-1.5,0.4-2.2c0.4-2.9,0.3-5.7-0.3-8.4c-0.6-2.7-1.8-5.4-3.6-7.8
			c-0.9-1.2-1.9-2.2-3.2-3.1c-0.6-0.4-1.2-0.9-1.8-1.2l-0.9-0.5l-0.8-0.3c-0.4-0.1-0.8-0.4-1.2-0.6c-1.4-0.8-2.7-1.7-3.8-2.7
			c-1.5-1.4-3-2.9-4.2-4.5c-5.2-6.4-8.2-14.6-8.9-22.9c-0.4-8.6,0.8-17.2,2.1-26.2l0,0c0-0.3-0.2-0.6-0.4-0.9
			c-0.2,0-0.2-0.1-0.3-0.1c-0.3,0-0.6,0.1-0.9,0.4c-4.8,7.9-7.3,17.6-7.1,27.1c0.2,4.8,0.9,9.8,2.6,14.4c1.5,4.6,3.9,9.1,6.9,13.1
			c1.5,1.9,3.1,3.9,4.9,5.6c1.9,1.8,4.2,3.3,6.3,4.5l0.8,0.4l0.6,0.3c0.3,0.3,0.8,0.4,1.1,0.8c0.2,0.2,0.4,0.3,0.6,0.6
			c0.3,0.3,0.8,0.8,1.1,1.2C370.7,402.3,371.3,403.8,371.7,405.6z M415.4,358.5c0-0.2-0.2-0.3-0.2-0.4c0-0.2-0.1-0.3-0.1-0.4
			c-0.2-0.3-0.2-0.6-0.3-0.9c0.1,0.3,0.1,0.6,0.3,0.9C415.2,358,415.4,358.3,415.4,358.5z"/>
		<path class="st8" d="M371.7,405.6c0.4,1.6,0.4,3.6,0.2,5.2c0,0.1,0,0.3,0,0.3c-0.3-0.2-0.8-0.3-1.1-0.4c-0.2,0-0.3-0.2-0.4-0.3
			c-0.8-0.4-1.5-0.9-2.1-1.4c-1.8-1.2-3.6-2.4-5.2-3.8l0,0c-0.1-0.1-0.4-0.3-0.8-0.4c-0.4-0.3-1.1-0.3-1.5-0.4
			c-1.5-0.1-3,0.8-3.8,2.1c-0.3,0.4-0.3,0.8-0.4,1.1c-0.1,0.3-0.3,0.8-0.4,1.1c-0.3,0.6-0.4,1.3-0.8,2.1c-0.4,1.4-0.8,2.9-1.1,4.2
			c-0.4,2.9-0.4,6.2,0.4,9.3c0.9,3.2,3.2,6.2,5.7,8.1c2.6,1.9,5.6,3,8.2,3.8c3.8,0.9,7.4,1.2,10.9,1.2c1.2,0,2.4,0,3.6,0
			c0.6,0,1.2,0,1.8-0.2c0.4,0,0.9-0.1,1.5-0.1c0.8,0,1.3-0.2,2.1-0.2c0.2,0,0.3,0,0.3,0c0.3,0,0.6-0.1,1.1-0.1
			c0.3,0,0.8-0.2,1.1-0.2c0.2,0,0.4,0,0.6-0.1c0.4,0,0.9-0.2,1.5-0.2c0.1,0,0.3,0,0.3-0.1c0.6-0.2,1.1-0.2,1.6-0.3
			c0.2,0,0.2,0,0.3,0c0.6-0.2,1.2-0.3,1.8-0.4c0.2,0,0.2,0,0.3-0.2c0.6-0.1,1.2-0.3,1.7-0.4c0.1,0,0.3-0.1,0.4-0.1
			c0.4-0.2,1.1-0.3,1.5-0.4c0,0,0,0,0.1,0c1.2-0.4,2.4-1.1,3.6-1.7c0.3-0.1,0.8-0.4,1.2-0.6c0.1,0,0.3-0.2,0.3-0.2
			c0.4-0.3,1.1-0.6,1.5-0.9s0.9-0.6,1.2-0.9c1.1-0.8,2.1-1.5,3-2.4c1.2-1.1,2.2-2.1,3.1-3.3c1.1-1.4,1.9-2.7,2.7-4.1
			c0.6-1.1,1.2-2.1,1.7-3.2c0.3-0.6,0.4-1.2,0.8-1.9c0.4-1.2,0.8-2.4,1.2-3.6c0.3-0.9,0.4-1.7,0.6-2.6c0.8-3.9,1.1-7.9,0.9-11.9
			c0-1.5-0.2-2.8-0.3-4.3c0-0.3,0-0.4,0-0.8c0-0.2,0-0.3,0-0.6c-0.3-2.2-0.6-4.4-1.1-6.6c0-0.1,0-0.3,0-0.4
			c-0.3-1.2-0.4-2.4-0.8-3.4c0-0.1-0.2-0.3-0.2-0.6c-0.3-0.9-0.4-1.8-0.8-2.9c0-1.1,0-2.2-0.1-3.3c0-1.3,0-2.7-0.3-3.9l-0.4-3.9
			c0-0.3,0-0.6-0.2-0.9c0-0.3-0.1-0.4-0.1-0.6c0-0.1-0.2-0.3-0.2-0.6c-0.1-0.3-0.1-0.6-0.1-0.9l0,0c0-0.3-0.2-0.6-0.2-0.9
			c-0.1-1.1-0.4-2.1-0.8-3.2c-0.4-1.5-0.9-3-1.3-4.5c-0.2-0.3-0.2-0.6-0.3-0.8c-0.3-0.9-0.8-1.9-1.1-2.8c-0.2-0.4-0.3-1.1-0.6-1.5
			l0,0c0-0.2,0-0.2-0.1-0.3l-0.8-1.8c-2.1-4.8-4.7-9.3-7.7-13.5c-0.3-0.4-0.6-0.9-1.1-1.4c-0.4-0.6-0.9-1.2-1.3-1.8
			c-0.8-1.1-1.7-1.9-2.6-2.8c-1.8-1.8-3.8-3.6-6-4.9c-0.4-0.3-0.9-0.3-1.4,0c-0.6,0.3-0.8,1.2-0.4,1.8l0,0c2.2,3.8,4.5,7.3,6.6,10.9
			c0.3,0.4,0.6,1.1,0.9,1.5c2.4,4.2,4.5,8.6,6.2,13.1l0.6,1.6c0.2,0.6,0.3,1.2,0.6,1.7c0.3,1.2,0.8,2.2,1.1,3.4
			c0.4,1.8,1.1,3.8,1.3,5.7c0.2,0.4,0.2,0.9,0.3,1.3c0.2,1.2,0.4,2.2,0.6,3.4l0.4,3.4c0.1,1.2,0.1,2.4,0.3,3.6
			c0,1.2,0.1,2.4,0.1,3.6v0.3c0,0.3,0,0.6,0.2,0.9c0.1,0.3,0.1,0.6,0.3,0.9c0.3,0.8,0.4,1.7,0.6,2.4c0.3,1.2,0.4,2.4,0.8,3.4v0.1
			v0.2c0.2,0.6,0.3,1.3,0.3,1.9c0.2,1.2,0.3,2.6,0.4,3.8c0,0.3,0.2,0.8,0.2,1.1c0.4,4.8,0.3,9.4-0.6,13.9l0,0
			c-0.1,0.9-0.4,1.8-0.6,2.6c-0.2,0.4-0.2,0.8-0.3,1.2c-0.9,3-2.4,5.9-4.4,8.2c-0.3,0.3-0.4,0.6-0.8,0.9c-0.1,0.1-0.1,0.1-0.3,0.3
			l-0.3,0.3l0,0c-0.3,0.3-0.6,0.6-0.9,0.9c-0.8,0.8-1.7,1.5-2.6,1.9c-1.8,1.4-3.8,2.2-5.9,3.2c-0.1,0-0.3,0.1-0.4,0.1h-0.1
			c-0.9,0.3-1.8,0.6-2.7,0.9c-1.2,0.3-2.2,0.6-3.3,0.8l-3.4,0.4l-3.6,0.3c-1.1,0-2.2,0.1-3.3,0.1s-2.2,0-3.3,0
			c-2.6-0.1-4.9-0.3-7.3-0.9c-2.1-0.4-4.1-1.4-5.6-2.4c-0.8-0.6-1.4-1.2-1.8-1.8c-0.3-0.3-0.4-0.8-0.6-1.1c-0.1-0.4-0.3-0.8-0.4-1.2
			c-0.6-1.6-0.6-3.6-0.3-5.7c0-0.4,0.2-0.9,0.3-1.3c0.4,0.3,0.9,0.6,1.4,1.1c1.1,0.8,2.1,1.3,3.1,1.9c1.2,0.6,2.2,1.2,4.1,1.8
			c0.6,0.1,1.2,0.3,2.1,0.3c0.1,0,0.3,0,0.3,0c0.3,0,0.8,0,1.1-0.2c0.4-0.1,0.9-0.1,1.3-0.4c0.3-0.1,0.4-0.3,0.8-0.4
			c0.2-0.1,0.3-0.3,0.6-0.4c0.3-0.3,0.6-0.6,0.8-0.9c0.1-0.3,0.3-0.4,0.6-0.8c0.6-0.9,0.9-1.8,1.2-2.6c0.3-0.8,0.4-1.5,0.4-2.2
			c0.4-2.9,0.3-5.7-0.3-8.4c-0.6-2.7-1.8-5.4-3.6-7.8c-0.9-1.2-1.9-2.2-3.2-3.1c-0.6-0.4-1.2-0.9-1.8-1.2l-0.9-0.4l-0.8-0.3
			c-0.4-0.1-0.8-0.4-1.2-0.6c-1.4-0.8-2.7-1.7-3.8-2.7c-1.5-1.4-3-2.9-4.2-4.5c-5.2-6.4-8.2-14.6-8.9-22.9
			c-0.4-8.6,0.8-17.2,2.1-26.2l0,0c0-0.3-0.2-0.6-0.4-0.9c-0.2,0-0.2-0.1-0.3-0.1c-0.3,0-0.6,0.1-0.9,0.4
			c-4.8,7.9-7.3,17.6-7.1,27.1c0.2,4.8,0.9,9.8,2.6,14.4c1.5,4.6,3.9,9.1,6.9,13.1c1.5,1.9,3.1,3.9,4.9,5.6c1.9,1.8,4.2,3.3,6.3,4.5
			l0.8,0.4l0.6,0.3c0.3,0.3,0.8,0.4,1.1,0.8c0.3,0.2,0.4,0.3,0.6,0.6c0.3,0.3,0.8,0.8,1.1,1.2C370.7,402.3,371.3,403.8,371.7,405.6z
			 M415.4,358.5c0-0.2-0.2-0.3-0.2-0.4c0-0.2-0.1-0.3-0.1-0.4c-0.2-0.2-0.2-0.4-0.3-0.8c0,0.3,0.1,0.4,0.3,0.8
			C415.2,358,415.4,358.3,415.4,358.5z"/>
		<g>
			<path class="st8" d="M410.9,367.2l0.3,2.8l6.1,0.8l-0.4-5.1l-6.3-0.3C410.7,366,410.9,366.6,410.9,367.2z"/>
			<path class="st8" d="M422.3,391.2L422.3,391.2c0,0-4.3-1.1-8.4-3.4c0,0.1,0,0.3,0,0.4c0.1,1.2,0.3,2.6,0.4,3.8c0,0.2,0,0.2,0,0.3
				c4.2,2.4,8.1,3.8,8.1,3.8L422.3,391.2z"/>
		</g>
	</g>
</g>
</svg>
