<?xml version="1.0" encoding="utf-8"?>
<!-- Generator: Adobe Illustrator 25.3.1, SVG Export Plug-In . SVG Version: 6.00 Build 0)  -->
<svg version="1.1" xmlns="http://www.w3.org/2000/svg" xmlns:xlink="http://www.w3.org/1999/xlink" x="0px" y="0px"
	 viewBox="0 0 500 500" style="enable-background:new 0 0 500 500;" xml:space="preserve">
<style type="text/css">
	.st0{fill:#00A23D;stroke:#013D3D;stroke-width:3;stroke-miterlimit:10;}
	.st1{fill:#FFC3AB;}
	.st2{fill:#00A23D;}
	.st3{fill:none;stroke:#013D3D;stroke-width:3;stroke-miterlimit:10;}
	.st4{fill:#F5EDF2;}
	.st5{opacity:0.7;}
	.st6{fill:#FFFFFF;}
	.st7{opacity:0.3;}
	.st8{fill:#013D3D;}
	.st9{fill:none;stroke:#000072;stroke-width:5.2223;stroke-linecap:round;stroke-linejoin:round;stroke-miterlimit:10;}
	.st10{opacity:0.29;fill:#FFFFFF;}
	.st11{fill:#F7F9FA;}
	.st12{fill:#DCE6EB;}
	.st13{fill:#B9C3CD;}
	.st14{fill:url(#SVGID_1_);}
	.st15{fill:#FFCB4A;}
	.st16{fill:#FFBB43;}
	.st17{opacity:0.16;}
	.st18{opacity:0.38;}
	.st19{opacity:0.44;}
</style>
<g id="Calque_2">
	<g>
		<path class="st0" d="M426.9,305.5c0,5.3-2.4,18-24,21.9c-0.4,0.1-0.8,0.1-1.3,0.1c-3.1,0-6.5-1.6-9.2-3.2
			c-2.7-1.6-4.6-3.2-4.7-3.4c-0.4-0.4-0.6-1-0.5-1.5c0.1-0.6,0.6-1,1.2-1.1c0.5-0.1,0.9-0.2,1.4-0.2c-0.5-0.4-0.9-0.9-1.2-1.4
			c-6.4,2.4-17.2,4.2-26.6,5.4c-9.8,1.2-18.1,1.8-18.1,1.8l18.1-22l14.9-18c8-9,23.5,10.5,24.5,5.5c3-7,12-4.2,12.1-4.2
			C420.5,286.7,426.9,296.3,426.9,305.5z"/>
	</g>
	<g>
		<path class="st1" d="M408.9,285c3.2-0.8,8,3,11.2,6.3c3.3,3.3,11.8,18.7,1.4,25.3c-0.3-2.5,0.3-5.1,0.3-7.6c0.1-5-2-10-5.4-13.6
			c-3.5-3.6-8.3-5.8-13.3-6.3c-0.3-1.1-1.4-3.2,1.7-3.1"/>
	</g>
	<path class="st2" d="M426.9,305.5c0,5.3-2.4,18-24,21.9c-0.4,0.1-0.8,0.1-1.3,0.1c-3.1,0-6.5-1.6-9.2-3.2c-2.7-1.6-4.6-3.2-4.7-3.4
		c-0.4-0.4-0.6-1-0.5-1.5c0.1-0.6,0.6-1,1.2-1.1c0.5-0.1,0.9-0.2,1.4-0.2c-0.5-0.4-0.9-0.9-1.2-1.4c-6.4,2.4-17.2,4.2-26.6,5.4V302
		l14.9-18c8-9,23.5,10.5,24.5,5.5c3-7,12-4.2,12.1-4.2C420.5,286.7,426.9,296.3,426.9,305.5z"/>
	<path class="st3" d="M388.4,318.4c0.5-0.1,0.9-0.1,1.4-0.2c-0.5-0.4-0.9-0.9-1.2-1.4c-13,5-44.7,7.2-44.7,7.2l33-40
		c8-9,23.5,10.5,24.5,5.5c3-7,12-4.2,12.1-4.2c7.1,1.3,13.5,10.9,13.5,20.1c0,5.3-2.4,18-24,21.9c-0.4,0.1-0.9,0.1-1.3,0.1
		c0,0,0,0,0,0c-6.2,0-13.6-6.2-13.9-6.5c-0.4-0.4-0.6-1-0.5-1.5C387.4,318.9,387.8,318.5,388.4,318.4z"/>
	<g>
		<g>
			<path class="st1" d="M351.8,322.7c12.9-0.3,25.6-2.5,37.9-6.4c1.8-0.6,1-3.5-0.8-2.9c-12,3.9-24.5,6-37.1,6.3
				C349.9,319.8,349.9,322.8,351.8,322.7L351.8,322.7z"/>
		</g>
	</g>
	<g>
		<g>
			<path class="st1" d="M356.4,320.1c2.6-4.3,8.3-4.5,12.7-4.5c5.6,0.1,11.1,0.2,16.7,0.3c-0.1-1-0.3-2-0.4-2.9
				c-7.8,2.9-16,4.2-24.3,3.8c0.1,1,0.3,2,0.4,2.9c5-0.9,10-1.8,15.1-1.8c1.9,0,1.9-3,0-3c-6.4,0-12.9,0.8-19,2.8
				c0.4,0.9,0.8,1.8,1.2,2.7c2.3-1.4,4.8-2.1,7.5-2.1c1.9,0,1.9-3,0-3c-3.2-0.1-6.3,0.8-9,2.5c-1.4,0.9-0.5,3.3,1.2,2.7
				c5.9-1.9,12-2.6,18.2-2.7c0-1,0-2,0-3c-5.4,0-10.6,1-15.9,1.9c-1.7,0.3-1.2,2.9,0.4,2.9c8.5,0.4,17.1-0.9,25.1-3.9
				c1.5-0.6,1.4-2.9-0.4-2.9c-6.2-0.1-12.4-0.3-18.6-0.3c-5.1,0.1-10.6,1.3-13.5,5.9C352.7,320.2,355.3,321.7,356.4,320.1
				L356.4,320.1z"/>
		</g>
	</g>
</g>
<g id="Calque_1">
	<g>
		
			<image style="overflow:visible;opacity:0.5;" width="462" height="437" xlink:href="19590C8A.png"  transform="matrix(1 0 0 1 21.573 33.573)">
		</image>
		<g>
			<g>
				<g>
					<g>
						<g>
							<g>
								<g>
									<g>
										<g>
											<g>
												<path class="st2" d="M424.1,180.3c-1.9-62.4-42.7-73.7-42.7-73.7c-25-32-67.4-12.7-68.1-12.4v0c0,0,0,0,0,0
													c-29.5-16.1-46.4,12.7-46.4,12.7v0c-41.4,10.5-52.3,36.7-50.2,53.4c1,7.8,4.7,13.5,9.6,14.7c0.2,0.1,0.4,0.1,0.6,0.1
													c-4.3,3.1-7.1,11.7-8,14.9c0,0,2.8,5.8,9,13.8c7.7,10.1,20.7,23.7,39.9,34l-0.2-0.1c-1.7-0.7-12.4-4.6-28.5-5.3
													c-19-0.8-45.6,3.1-74.1,22.3c-4,2.7-8.7,4.2-13.5,4.3c-16.2,0.6-52.6-0.8-75.9-22.6c0,0,1.4,45,40,76.4
													c17,13.8,41.2,25,75.7,28.5l0.8,0c2.2,4.1,5.5,7.8,10.4,10.5c0,0-8.6,31.8,18.2,42.7c-2-8.8,6.9-15,6.9-15
													c6.1,0.2,10.1,2.8,12.6,6.3c0,0,3.9-11.2,14.1-13.3c2-0.4,4.1,0.1,6.1,1.4c0,0,1-1.5,2.8-3c1.3-1.2,3.1-2.4,5.2-3.2
													l-0.4-1.2c-3.3-3-6.5-3.8-9.3-3.9c-3.7-0.1-6.5,1-7.8,0c-2.2-1.7-5-7.4-5-7.4c2-2,3.9-3.9,5.6-5.8
													c11.6,1.6,22.4,1.6,32.3,0.4c18.3-2.1,33.9-8.2,47-16.2c4.7-2.9,9.1-6,13.2-9.3c3.2-2.5,6.1-5.2,8.9-7.8
													c2.9-2.8,5.7-5.7,8.2-8.6c6.7-7.5,12.1-15.1,16.3-21.8c0.7-1.1,1.3-2.1,1.9-3.2c6.8-11.3,9.9-19.4,9.9-19.4
													S426,242.7,424.1,180.3z M275.1,211.7c-6.3-10-7.1-20-7.2-21.5c0-0.1,0-0.2,0-0.2c1.4,0.7,2.8,1.4,4.4,2.2
													c0.1,0.1,0.3,0.1,0.4,0.2c0.2,0.1,0.5,0.2,0.7,0.4c0.8,0.4,1.6,0.8,2.5,1.2c0.3,0.2,0.7,0.3,1,0.5
													c0.1,0,0.2,0.1,0.3,0.1c1.2,0.6,2.3,1.1,3.5,1.6c0,0,0.1,0,0.1,0c1.9,0.8,3.8,1.6,5.7,2.3
													C283.4,208,275.1,211.7,275.1,211.7z M294.3,323C294.3,323.1,294.3,323.1,294.3,323c-0.5,2.1-2,6.4-7.3,8.1
													c-0.2-0.2-0.5-0.3-0.7-0.5c0,0,0,0,0,0c-5.1-4.4-1.7-12.1-1.1-13.2c0,0,0-0.1,0-0.1c0,0,0,0,0,0c0,0,0,0,0,0l0,0
													c0.3,0.2,4.3,3.5,7,4.5c0.9,0.4,1.7,0.5,2.1,0.2C294.4,322,294.4,322.4,294.3,323z M317.8,218.2
													c-7.4-7.8-8.3-14.1-8.3-14.1c0.2,0,0.4,0.1,0.6,0.1c6.7,0.9,12.6,1,17,0.8C325.6,212.1,317.8,218.2,317.8,218.2z"/>
											</g>
										</g>
									</g>
								</g>
								<g>
									<g>
										<g>
											<path class="st2" d="M334.3,352c-1.8,1.6-2.7,3.5-3.1,4.5c-0.8-0.1-1.3-0.1-1.3-0.1c-6.9,4.6-9.4,11.4-9.4,11.4v0
												c-9.1,0.6-10.8,11.3-10.8,11.3c-25.9-3.6-25.7-29.3-25.7-29.3v0c18.3-2.1,33.9-8.2,47-16.2c0,0-0.9,5.8-3.5,11
												C327.5,344.4,333.3,346.7,334.3,352z"/>
										</g>
									</g>
								</g>
							</g>
							<g>
								<g>
									<g>
										<g>
											<path class="st4" d="M294.4,322c0,0-0.5,6.9-7.4,9.2c-6.6-4.7-1.8-13.9-1.8-13.9S292.5,323.3,294.4,322z"/>
										</g>
									</g>
								</g>
								<g>
									<g>
										<g>
											<g>
												<g>
													<path class="st4" d="M237.2,410.7c-4.8-8.2-11.7-4.2-15.8-14.1c-0.3-0.7-0.5-1.5-0.7-2.2c-2-8.8,6.9-15,6.9-15
														c6.1,0.2,10.1,2.8,12.6,6.3c1.4,2,2.3,4.3,2.8,6.8C245.2,403.2,240.1,415.7,237.2,410.7z"/>
												</g>
											</g>
										</g>
										<g>
											<g>
												<g>
													<path class="st4" d="M267.4,407.8c0,0-6.4-15.8-24.4-15.3c-0.5-2.4-1.4-4.8-2.8-6.8c0,0,3.9-11.2,14.1-13.3
														c2-0.4,4.1,0.1,6.1,1.4c4.8,2.9,9.3,9.8,10.6,17.3C272.1,396.8,271.2,402.8,267.4,407.8z"/>
												</g>
											</g>
										</g>
										<g>
											<g>
												<g>
													<path class="st4" d="M291.3,383.3c0,0-14.6-1.4-20.3,7.8c-1.3-7.5-5.8-14.3-10.6-17.3c0,0,3.1-4.5,8-6.2
														c0.9-0.3,1.9-0.6,3-0.7C278.1,366.4,290.8,376.8,291.3,383.3z"/>
												</g>
											</g>
										</g>
										<g>
											<g>
												<g>
													<path class="st4" d="M360.9,379c0,0-10.5-4.3-16.1-3.2c-5,1-8.6-1.8-9.3-2.4l-0.1,0.1c-2-1.7-4.6-3.3-7.9-4.5
														c-2.7-1-5-1.4-7-1.2v0c0,0,2.6-6.7,9.4-11.4c0,0,0.5,0,1.3,0.1c3.7,0.5,14.6,2.4,22.4,10
														C356.8,369.6,359.5,373.7,360.9,379z"/>
												</g>
											</g>
										</g>
										<g>
											<g>
												<g>
													<path class="st4" d="M365.8,365.1l-11.7,1.9l-0.5-0.5c-7.8-7.7-18.7-9.6-22.4-10c0.4-1,1.3-2.9,3.1-4.5
														c2.1-1.9,5.4-3.3,10.5-2.3C356,352,365.8,365.1,365.8,365.1z"/>
												</g>
											</g>
										</g>
										<g>
											<g>
												<g>
													<path class="st4" d="M342.2,387c0,0-8.5-4.6-13.4-4.8c-9.7-0.3-19.1-3.2-19.1-3.2s1.7-10.7,10.8-11.3
														c2-0.1,4.3,0.2,7,1.2c3.3,1.3,5.9,2.8,7.9,4.5C342.5,379.5,342.2,387,342.2,387z"/>
												</g>
											</g>
										</g>
									</g>
								</g>
							</g>
							<g>
								<g>
									<g>
										<path class="st4" d="M360.9,379c0,0-10.5-4.3-16.1-3.2c-5,1-8.6-1.8-9.3-2.4l-0.1,0.1c-2-1.7-4.6-3.3-7.9-4.5
											c-2.7-1-5-1.4-7-1.2v0c0,0,2.6-6.7,9.4-11.4c0,0,0.5,0,1.3,0.1c3.7,0.5,14.6,2.4,22.4,10
											C356.8,369.6,359.5,373.7,360.9,379z"/>
									</g>
								</g>
							</g>
							<g>
								<g>
									<g>
										<g>
											<path class="st1" d="M192.1,341.3l-0.8,0c-34.5-3.5-58.7-14.7-75.7-28.5c13.3,5.6,38.8,13.1,72.8,7.5
												C188.5,320.4,187.6,332.5,192.1,341.3z"/>
										</g>
									</g>
								</g>
								<g>
									<g>
										<g>
											<path class="st1" d="M379.7,282.7c-0.6,1-1.3,2.1-1.9,3.2c-5.8,9.3-13.9,20.2-24.6,30.4c-2.8,2.7-5.8,5.3-8.9,7.8
												c-4.1,3.3-8.5,6.4-13.2,9.3c-13.1,8-28.7,14.1-47,16.2c-10,1.1-20.7,1.1-32.3-0.4c0,0,22-20.6,13.7-47.1
												c0,0,9.2-0.1,14.3-5.9c0,0,7.5,10.9,13.1,13.7c5.4,2.8,1.9,12.4,1.6,13.1c0,0,0,0,0,0l-2-1.3l-7-4.5l0,0c0,0,0,0,0,0
												c0,0,0,0,0,0c0,0,0,0.1,0,0.1c-0.5,1.2-3.5,8.8,1.1,13.2c0,0,0,0,0,0c2,1.9,5.4,3.2,11.1,3.2c20-0.2,32.2-10.2,24.6-37.6
												c0,0-1.6-18.1-6.6-25c0,0,29.7-30.9,51.9-19.4C376.3,256.4,379.3,269.1,379.7,282.7z"/>
										</g>
									</g>
								</g>
							</g>
							<g>
								<g>
									<g>
										<path class="st1" d="M267.8,236.4l-0.2-0.1c-1.7-0.7-12.4-4.6-28.5-5.3c-19-0.8-45.6,3.1-74.1,22.3
											c-4,2.7-8.7,4.2-13.5,4.3c-16.2,0.6-52.6-0.8-75.9-22.6c0,0,9.4,29.8,76.7,29.5c7.9,0,15.6-2.3,22.2-6.5
											c1.6-1,3.4-2.1,5.5-3.2c0.9-0.5,1.9-0.6,2.9-0.4c4.5,0.9,13.4-0.3,23.2-3.2c11-3.3,19.8-7.9,22.1-11.3
											c0.7-1,1.8-1.6,3-1.8C242,236.5,254.2,235.8,267.8,236.4z"/>
									</g>
								</g>
							</g>
							<g class="st5">
								<g>
									<g>
										<path class="st1" d="M251.6,283.8c0,0,21.9,32.3-5.6,71.3C246,355.1,290.9,314.8,251.6,283.8z"/>
									</g>
								</g>
							</g>
							<g class="st5">
								<g>
									<g>
										<path class="st6" d="M298.5,333.7c-0.5-0.8-1.1-1.6-1.6-2.5c1.4,0,2.9,0,4.4-0.1l2.4-0.2l2.3-0.3c0.8-0.1,1.5-0.3,2.2-0.5
											c0.7-0.2,1.4-0.5,2.2-0.7c1.4-0.6,2.7-1.2,3.9-2.1c0.6-0.4,1.1-0.9,1.7-1.3c0.3-0.2,0.5-0.5,0.8-0.8
											c0.2-0.3,0.5-0.5,0.7-0.8c1.8-2.2,2.9-5,3.5-8c0.6-3,0.7-6.2,0.4-9.3c-0.1-1.6-0.4-3.2-0.7-4.7c-0.2-0.8-0.3-1.6-0.5-2.3
											c-0.2-0.8-0.4-1.6-0.6-2.2c-0.1-0.2-0.1-0.4-0.1-0.6l0-0.2c0-0.8-0.1-1.6-0.1-2.4c0-0.8,0-1.6-0.2-2.4l-0.3-2.3
											c-0.1-0.8-0.3-1.5-0.4-2.3c-0.2-1.6-0.7-3.1-1.1-4.6c-0.2-0.8-0.5-1.5-0.7-2.3c-0.1-0.4-0.2-0.8-0.4-1.1l-0.4-1.1
											c-1.1-3-2.5-5.9-4.1-8.7c-0.2-0.3-0.4-0.7-0.6-1c0.7-0.4,1.3-0.9,2-1.3c9.1,13,8.9,28.8,8.9,28.8
											C330.4,329.7,311,334.1,298.5,333.7z"/>
									</g>
								</g>
							</g>
							<g>
								<g>
									<g>
										<path class="st1" d="M389.6,263.3c55.7-100.2,3.3-139.7-12.5-148.8c-2.5-1.5-4.8-3.4-6.6-5.7
											c-16.2-20.1-56.4-14.7-57.2-14.6c0,0,0,0,0,0l0,0c0.7-0.3,43.1-19.6,68.1,12.4c0,0,40.8,11.4,42.7,73.7
											C426,242.7,389.6,263.3,389.6,263.3z"/>
									</g>
								</g>
							</g>
							<g>
								<g>
									<g class="st7">
										<g>
											<g>
												<path class="st8" d="M300,346.7c-5.1,1.3-10.4,2.3-16,3v0c0,0-0.2,25.8,25.7,29.3c0,0,1.6-9.8,9.7-11.2
													C306.4,364,301.7,353.7,300,346.7z"/>
											</g>
										</g>
									</g>
									<g>
										<g class="st7">
											<g>
												<g>
													<path class="st8" d="M260.4,373.9c-2-1.2-4.1-1.8-6.1-1.4c-10.2,2.1-14.1,13.3-14.1,13.3c-2.4-3.6-6.4-6.1-12.6-6.3
														c0,0-8.9,6.2-6.9,15c-26.8-10.8-18.2-42.7-18.2-42.7c-5-2.7-8.3-6.4-10.4-10.5l-0.8,0c-34.5-3.5-58.7-14.7-75.7-28.5
														c-38.6-31.4-40-76.4-40-76.4s11.8,66.6,95.9,87.1c3.8,0.9,7.8-0.7,9.8-4.1c2.5-4.1,6.1-9.1,9.4-10.4
														c0,0,1.1,26.6,15.9,37c3.5,2.5,5.4,6.6,4.9,10.9c-0.5,4.5-0.3,10.2,2.6,15.5c1.5,2.6,5,3.2,7.2,1.1
														c1-0.9,2.1-1.9,3.3-2.6c2-1.3,6.1,0.9,9.1,3.1c2.1,1.5,4.9,1,6.4-1.1c2.4-3.3,6.9-7,13.9-5.6
														C254.2,367.5,260.9,369.2,260.4,373.9z"/>
												</g>
											</g>
										</g>
										<g class="st7">
											<g>
												<g>
													<path class="st8" d="M361.4,307.7c-2.6,2.9-5.3,5.7-8.2,8.6c-2.8,2.7-5.8,5.3-8.9,7.8c-4.1,3.3-8.5,6.4-13.2,9.3
														c-13.1,8-28.7,14.1-47,16.2c-10,1.1-20.7,1.1-32.3-0.4c0,0,35-35.4,0-65.5c0.7,0.3,26.1,11,22.3,45
														C271.4,352.3,326.4,335.8,361.4,307.7z"/>
												</g>
											</g>
										</g>
										<g class="st7">
											<g>
												<g>
													<path class="st8" d="M280,267.1c0,0-16.6,28.3,3.6,42c0,0,0.7,1.4-1.3,4.4c-1.9,3-3.5,16.4,6.7,18.9
														c0,0,12.6-9.2,5.4-20.9c0,0-3.5-4.1-6.6-4.9C284.8,305.8,270,288.6,280,267.1z"/>
												</g>
											</g>
										</g>
										<g class="st7">
											<g>
												<g>
													<path class="st8" d="M300.5,259.6c-20-0.7-43.1-6.9-61.3-27.2c16.1,0.6,26.8,4.6,28.5,5.3l0.1,0.1l0.1,0
														c0,0,18.9,9,27.7,10.7l6.2,1.5C307.5,251.4,306.3,259.8,300.5,259.6z"/>
												</g>
											</g>
										</g>
										<g class="st7">
											<g>
												<g>
													<path class="st8" d="M348.3,202.2c-7.8,0.6-14.2,0.8-18.1,0.9c-14.5-2.6-50.8-10.3-67.5-23.2
														c-21.1-16.3-38.2-8.4-38.6-19.5c-0.5-11.2-3.6-34.8,52.3-55.5l-9.5,2.1c-41.4,10.5-52.3,36.7-50.2,53.4
														c1,7.8,4.7,13.5,9.6,14.7l0.6,0.1c-4.3,3.1-7.1,11.7-8,14.9c0,0,2.8,5.8,9,13.8c0-6.1,1.4-12.6,7-13.8
														c8.6-2,19.7,4.9,23.9,7.8c1.1,0.7,1.9,1.7,2.6,2.8c1.9,3.4,6.5,11.5,10.2,15.6c1.2,1.3,3,1.8,4.7,1.2
														c2.7-0.9,6.9-3,10.5-7.4c1.6-2,4.3-2.8,6.8-2.1c2.8,0.8,6.4,1.9,9.5,2.6c1.5,0.4,2.9,1.3,3.8,2.6
														c1.7,2.5,4.4,7.9,8.4,10.9c1.2,0.9,2.8,1,4.1,0.4c2.3-1.2,6.3-3.7,10-8.6c2.7-3.6,6.6-6.1,11-6.9c3-0.6,6-1.2,8.9-2
														C352,206.3,351.3,202,348.3,202.2z M227,175.1c0.1,0,0.1,0,0.2,0C227.1,175.1,227,175.1,227,175.1z"/>
												</g>
											</g>
										</g>
										<g class="st7">
											<g>
												<g>
													<circle class="st8" cx="238.3" cy="134.9" r="5"/>
												</g>
											</g>
										</g>
										<g class="st7">
											<g>
												<g>
													<circle class="st8" cx="294" cy="146.4" r="5.4"/>
												</g>
											</g>
										</g>
										<g class="st7">
											<g>
												<g>
													<path class="st8" d="M331.1,147.2c0,0,22.8-10.1,31.4,6.9c0,0-0.4-18.1-12.8-18.1S331.1,147.2,331.1,147.2z"/>
												</g>
											</g>
										</g>
									</g>
								</g>
								<g>
									<g class="st7">
										<g>
											<g>
												<path class="st8" d="M227.8,393.8c-0.3-0.7-0.5-1.5-0.7-2.2c-1.1-5,1.3-9.2,3.6-11.8c-0.9-0.2-1.9-0.3-3-0.3
													c0,0-8.9,6.2-6.9,15c0.2,0.7,0.4,1.4,0.7,2.2c4.2,9.9,11,5.9,15.8,14.1c1.6,2.8,3.9,0.2,5.2-4.5
													C237.7,400.2,231.6,402.9,227.8,393.8z"/>
											</g>
										</g>
									</g>
									<g class="st7">
										<g>
											<g>
												<path class="st8" d="M246.5,383.1c-0.5-1.2-1-2.3-1.7-3.3c0,0,0.5-1.3,1.5-3.1c-4.3,4-6.1,9-6.1,9
													c1.4,2,2.3,4.3,2.8,6.8c18-0.5,24.4,15.3,24.4,15.3c1.9-2.4,3-5.1,3.6-7.9c-2.2-3.8-8.2-12.1-19.9-13.2
													C249,386.5,247.3,385.1,246.5,383.1z"/>
											</g>
										</g>
									</g>
									<g>
										<g class="st7">
											<g>
												<g>
													<path class="st8" d="M266.2,370.9c0,0,1.2-1.8,3.4-3.6c-0.4,0.1-0.8,0.2-1.2,0.3c-5,1.8-8,6.2-8,6.2
														c4.8,2.9,9.3,9.8,10.6,17.3c1.4-2.2,3.3-3.8,5.3-5C274.7,379.5,270.6,373.5,266.2,370.9z"/>
												</g>
											</g>
										</g>
									</g>
									<g class="st7">
										<g>
											<g>
												<path class="st8" d="M338.5,378.9c-9.7-0.3-19.1-3.2-19.1-3.2s0.7-4.5,3.7-7.8c-0.9-0.1-1.8-0.2-2.7-0.1
													c-9.1,0.6-10.8,11.3-10.8,11.3s9.4,2.9,19.1,3.2c5,0.2,13.4,4.8,13.4,4.8s0.1-3.7-2.2-8
													C339.5,379,339,378.9,338.5,378.9z"/>
											</g>
										</g>
									</g>
									<g class="st7">
										<g>
											<g>
												<path class="st8" d="M347.6,370c-5,1-8.6-1.8-9.3-2.4l-0.1,0.1c-2-1.7-4.6-3.3-7.9-4.5c-2.4-0.9-4.4-1.3-6.2-1.3
													c-2.5,3.2-3.5,5.8-3.5,5.8v0c2-0.1,4.3,0.2,7,1.2c3.3,1.3,5.9,2.8,7.9,4.5l0.1-0.1c0.7,0.6,4.3,3.4,9.3,2.4
													c5.6-1.1,16.1,3.2,16.1,3.2c-0.8-3.1-2.1-5.7-3.6-8C354.1,370.2,350.2,369.4,347.6,370z"/>
											</g>
										</g>
									</g>
									<g class="st7">
										<g>
											<g>
												<path class="st8" d="M357.4,362.2l-1.7,0.1c-7.4-7.3-17.6-9.4-21.8-10c-1.5,1.5-2.4,3.2-2.7,4.2
													c3.7,0.5,14.6,2.4,22.4,10l0.5,0.5l11.7-1.9c0,0-1.1-1.5-3.1-3.6L357.4,362.2z"/>
											</g>
										</g>
									</g>
								</g>
							</g>
							<g>
								<g>
									<g>
										<g>
											<g>
												<g>
													<path class="st6" d="M226.9,175.1c-4.3,3.1-7.1,11.7-8,14.9c-0.2,0.7-0.3,1.1-0.3,1.1c-9-12.2-1.9-30.8-1.9-30.8
														C217.7,168.4,221.8,174.3,226.9,175.1z"/>
												</g>
											</g>
										</g>
										<g>
											<g>
												<g>
													<path class="st6" d="M286.4,198.5c-3.1,9.5-11.3,13.2-11.3,13.2c-6.8-10.7-7.2-21.3-7.2-21.7c2.8,1.4,5.8,2.9,9.3,4.6
														C280.3,196.1,283.4,197.3,286.4,198.5z"/>
												</g>
											</g>
										</g>
										<g>
											<g>
												<g>
													<path class="st6" d="M327.1,205c-1.4,7.1-9.3,13.2-9.3,13.2c-7.4-7.8-8.3-14.1-8.3-14.1
														C316.4,205,322.5,205.2,327.1,205z"/>
												</g>
											</g>
										</g>
									</g>
									<g>
										<g>
											<g class="st7">
												<g>
													<g>
														<path class="st8" d="M221.8,172.3c-3.1,3.1-5.3,9-6.4,12.4c0.7,2.2,1.7,4.4,3.2,6.4c0,0,0.1-0.4,0.3-1.1
															c0.9-3.1,3.7-11.8,8-14.9C225,174.8,223.3,173.8,221.8,172.3z"/>
													</g>
												</g>
											</g>
										</g>
										<g class="st7">
											<g>
												<g>
													<path class="st8" d="M281,196.3c-2.2,5.5-6.2,8.8-8.6,10.5c0.8,1.6,1.7,3.3,2.7,4.9c0,0,8.3-3.7,11.3-13.2
														C284.6,197.8,282.8,197.1,281,196.3z"/>
												</g>
											</g>
										</g>
										<g class="st7">
											<g>
												<g>
													<path class="st8" d="M321.6,205c-1.4,4.1-4.7,7.7-6.8,9.7c0.8,1.1,1.8,2.3,2.9,3.5c0,0,7.8-6.1,9.3-13.2
														C325.4,205.1,323.6,205.1,321.6,205z"/>
												</g>
											</g>
										</g>
									</g>
								</g>
								<g>
									<g class="st5">
										<g>
											<g>
												<path class="st6" d="M242.9,392.5c-0.5-2.4-1.4-4.8-2.8-6.8c-2.4-3.6-6.4-6.1-12.6-6.3c0,0-1.2,0.8-2.6,2.3
													c5.2,0.6,8.8,3,11,6.2c1.4,2,2.3,4.3,2.8,6.8c1.2,6,0.2,12.5-1.4,16.2C240.3,415.3,245.1,403,242.9,392.5z"/>
											</g>
										</g>
									</g>
									<g class="st5">
										<g>
											<g>
												<path class="st6" d="M271,391.1c-1.3-7.5-5.8-14.3-10.6-17.3c-2-1.2-4.1-1.8-6.1-1.4c-3.9,0.8-6.9,2.9-9.1,5.2
													c1.4-0.8,3.1-1.5,4.9-1.9c2-0.4,4.1,0.1,6.1,1.4c4.8,2.9,9.3,9.8,10.6,17.3c0.6,3.7,0.5,7.5-0.7,11
													c0.8,1.4,1.2,2.3,1.2,2.3C271.2,402.8,272.1,396.8,271,391.1z"/>
											</g>
										</g>
									</g>
									<g class="st5">
										<g>
											<g>
												<path class="st6" d="M271.4,367c-1.1,0.1-2.1,0.3-3,0.7c-5,1.8-8,6.2-8,6.2c0.2,0.1,0.5,0.3,0.7,0.4
													c1.2-1,2.8-2,4.5-2.6c0.9-0.3,1.9-0.6,3-0.7c5.4-0.5,14.7,6.2,18.3,12.2c2.6-0.2,4.3,0,4.3,0
													C290.8,376.8,278.1,366.4,271.4,367z"/>
											</g>
										</g>
									</g>
									<g class="st5">
										<g>
											<g>
												<path class="st6" d="M335.4,373.5c-2-1.7-4.6-3.3-7.9-4.5c-2.7-1-5-1.4-7-1.2c-5.5,0.4-8.3,4.5-9.7,7.6
													c1.6-1.8,3.9-3.3,7.1-3.6c2-0.1,4.3,0.2,7,1.2c3.3,1.3,5.9,2.8,7.9,4.5c2.9,2.5,4.6,5.2,5.6,7.6c2.2,1,3.8,1.9,3.8,1.9
													S342.5,379.5,335.4,373.5z"/>
											</g>
										</g>
									</g>
									<g class="st5">
										<g>
											<g>
												<path class="st6" d="M327.4,360.4c0,0,0.5,0,1.3,0.1c3.7,0.5,14.6,2.4,22.4,10c1.9,1.9,3.7,4.1,5.1,6.8
													c2.8,0.8,4.8,1.7,4.8,1.7c-1.5-5.3-4.2-9.4-7.3-12.5c-7.8-7.7-18.7-9.6-22.4-10c-0.8-0.1-1.3-0.1-1.3-0.1
													c-5.2,3.5-7.9,8.2-8.9,10.3C322.5,364.6,324.6,362.3,327.4,360.4z"/>
											</g>
										</g>
									</g>
									<g class="st5">
										<g>
											<g>
												<path class="st6" d="M332.3,355.6c2.1-1.9,5.4-3.3,10.5-2.3c7.8,1.6,14.9,8.5,18.5,12.5l4.5-0.7c0,0-9.8-13.1-21-15.4
													c-5.1-1.1-8.4,0.4-10.5,2.3c-1.8,1.6-2.7,3.5-3.1,4.5c0.1,0,0.1,0,0.2,0C331.7,356.2,332,355.9,332.3,355.6z"/>
											</g>
										</g>
									</g>
								</g>
							</g>
							<g>
								<g>
									<g>
										<g>
											<circle class="st1" cx="208.5" cy="270" r="12.5"/>
										</g>
									</g>
								</g>
								<g>
									<g>
										<g>
											
												<ellipse transform="matrix(0.1602 -0.9871 0.9871 0.1602 137.8613 542.0106)" class="st1" cx="387.5" cy="190" rx="12.5" ry="12.5"/>
										</g>
									</g>
								</g>
								<g>
									<g>
										<g>
											
												<ellipse transform="matrix(0.2298 -0.9732 0.9732 0.2298 -77.7174 423.8413)" class="st1" cx="228.9" cy="261" rx="6.9" ry="6.9"/>
										</g>
									</g>
								</g>
								<g>
									<g>
										<g>
											<circle class="st1" cx="394.4" cy="164.8" r="6.9"/>
										</g>
									</g>
								</g>
								<g>
									<g>
										<g>
											<circle class="st1" cx="129.4" cy="276.9" r="6.9"/>
										</g>
									</g>
								</g>
								<g>
									<g>
										<g>
											
												<ellipse transform="matrix(0.2298 -0.9732 0.9732 0.2298 -94.2187 436.9006)" class="st1" cx="228.9" cy="278" rx="4.6" ry="4.6"/>
										</g>
									</g>
								</g>
								<g>
									<g>
										<g>
											
												<ellipse transform="matrix(0.2298 -0.9732 0.9732 0.2298 -138.4873 498.9805)" class="st1" cx="246" cy="337" rx="4.6" ry="4.6"/>
										</g>
									</g>
								</g>
								<g>
									<g>
										<g>
											<circle class="st1" cx="185.8" cy="264.2" r="2.9"/>
										</g>
									</g>
								</g>
								<g>
									<g>
										<g>
											<circle class="st1" cx="139.2" cy="282.6" r="2.9"/>
										</g>
									</g>
								</g>
								<g>
									<g>
										<g>
											<circle class="st1" cx="242.4" cy="346.7" r="2.9"/>
										</g>
									</g>
								</g>
								<g>
									<g>
										<g>
											<circle class="st1" cx="306.5" cy="279.7" r="2.9"/>
										</g>
									</g>
								</g>
								<g>
									<g>
										<g>
											<circle class="st1" cx="251.6" cy="211.6" r="2.9"/>
										</g>
									</g>
								</g>
							</g>
						</g>
						<g>
							<g>
								<g>
									<g>
										<g>
											<path class="st8" d="M336.4,204.7c-2.3,0.9-4.6,1.4-7,1.9c-1.2,0.2-2.4,0.3-3.6,0.5c-1.2,0.1-2.4,0.2-3.6,0.3
												c-4.8,0.2-9.6-0.2-14.3-0.8l-3.6-0.5c-1.2-0.2-2.4-0.5-3.5-0.7l-1.8-0.3c-0.6-0.1-1.2-0.3-1.8-0.4l-3.5-0.9
												c-1.2-0.3-2.3-0.7-3.5-1l-1.7-0.5c-0.6-0.2-1.1-0.4-1.7-0.6l-3.4-1.2l-1.7-0.6l-1.7-0.7c-2.2-1-4.4-1.9-6.5-2.9
												c-2.1-1-4.2-2-6.4-3.1c-4.2-2.1-8.4-4.3-12.6-6.4c-4.1-2.2-8.2-4.4-12.3-5.9c-2-0.7-4.1-1.4-6.2-1.7
												c-2.1-0.3-4.3-0.5-6.6-0.6l-1.7-0.1c-0.4,0-0.8,0-1.2-0.1c-0.4-0.1-0.8-0.1-1.2-0.2c-1.6-0.4-3-1.1-4.2-2
												c-2.4-1.8-4-4.2-5.2-6.7c-2.3-4.9-2.8-10.1-2.5-15.2c0.3-5.1,1.6-10,3.7-14.6c2-4.6,4.8-8.8,8.1-12.5
												c6.6-7.4,15-12.8,23.8-16.7c4.4-1.9,9-3.5,13.6-4.8c1.1-0.3,2.3-0.6,3.5-0.9c1.2-0.3,2.3-0.5,3.5-0.6
												c1.2-0.1,2.4-0.2,3.6-0.1c1.2,0.1,2.5,0.2,3.7,0.6c0.2,0,0.3,0.2,0.2,0.4c0,0.1-0.1,0.1-0.1,0.2l0,0
												c-1.1,0.8-2.1,1.3-3.2,1.8c-1.1,0.5-2.2,1-3.3,1.3c-2.2,0.8-4.4,1.3-6.6,2c-4.4,1.3-8.7,2.9-12.8,4.8
												c-8.2,3.8-15.9,9-21.6,15.7c-2.9,3.4-5.3,7.1-7,11.1c-1.7,4-2.8,8.3-3.1,12.6c-0.2,4.3,0.3,8.6,2.1,12.2
												c0.8,1.8,2,3.4,3.3,4.3c0.7,0.5,1.3,0.8,2,1c0.2,0,0.3,0.1,0.5,0.1l0.6,0l1.8,0.1c2.4,0.1,4.9,0.3,7.4,0.7
												c2.5,0.4,5,1.1,7.3,2c4.7,1.8,8.8,4.1,13,6.3c4.1,2.2,8.3,4.4,12.4,6.5c2.1,1.1,4.2,2.1,6.2,3.1c2.1,1.1,4.2,2,6.2,2.9
												l1.6,0.7l1.6,0.6l3.2,1.2c0.5,0.2,1.1,0.4,1.6,0.6l1.6,0.5c1.1,0.3,2.2,0.7,3.3,1l3.3,0.9c0.6,0.1,1.1,0.3,1.7,0.4
												l1.7,0.4c1.1,0.2,2.2,0.5,3.4,0.7l3.4,0.5c9.1,1.3,18.2,1.7,27.5,2.2l0,0c0.3,0,0.6,0.3,0.6,0.7
												C336.8,204.5,336.7,204.7,336.4,204.7z"/>
										</g>
									</g>
								</g>
								<g>
									<g>
										<g>
											<path class="st8" d="M269.8,353.1c-6.3,0-12.7-0.4-19.2-1.3l0.7-5.2c40.8,5.6,76.1-6.7,104.7-36.8
												c21.5-22.6,31-47.2,31.1-47.4c0.2-0.6,0.6-1,1.2-1.3c0.1,0,8.9-5.2,17.3-17.6c7.8-11.5,16.9-31.7,15.9-63
												c-0.8-24.7-8.1-44.8-21.1-58.3c-9.8-10.1-19.6-13-19.7-13c-0.5-0.2-1-0.5-1.3-0.9c-9.8-12.6-23.7-18.4-41.1-17.3
												c-13.3,0.9-23.7,5.6-23.8,5.7c-0.7,0.3-1.6,0.3-2.3-0.1c-26.9-14.6-42.2,10.6-42.9,11.7l-4.5-2.6
												c0.2-0.3,18.1-30,48.7-14.3c3.3-1.3,12.7-4.8,24.3-5.6c18.8-1.3,34.4,5.2,45.2,18.6c2.8,0.9,11.8,4.5,20.9,13.9
												c9.8,10,21.8,28.9,22.8,62c1,32.9-8.7,54.3-17,66.4c-7.7,11.2-15.5,16.8-18,18.4c-1.9,4.6-11.6,27-31.7,48.2
												c-13.1,13.7-27.8,24.1-43.8,30.8C301.6,350.1,286.1,353.1,269.8,353.1z"/>
										</g>
									</g>
								</g>
								<g>
									<g>
										<g>
											<path class="st8" d="M218.6,193.7c-0.8,0-1.6-0.4-2.1-1.1c-9.7-13.2-2.5-32.5-2.2-33.3l4.9,1.9l-2.4-0.9l2.4,0.9
												c-0.1,0.1-4.7,12.7-1.2,23.1c1.6-4,4-9,7.4-11.4l3.1,4.2c-3.7,2.6-6.5,11.4-7.3,14.5c-0.2,1-1,1.7-2,1.9
												C218.9,193.7,218.8,193.7,218.6,193.7z"/>
										</g>
									</g>
								</g>
								<g>
									<g>
										<g>
											<path class="st8" d="M275.1,214.3c-0.9,0-1.7-0.4-2.2-1.2c-7.2-11.3-7.6-22.5-7.6-23c0-1.4,1.1-2.6,2.5-2.7
												c0,0,0.1,0,0.1,0c1.4,0,2.6,1.1,2.6,2.5c0,0.1,0.4,8.9,5.5,18.2c2.3-1.6,6.2-4.9,7.9-10.4c0.4-1.4,1.9-2.1,3.3-1.7
												c1.4,0.4,2.1,1.9,1.7,3.3c-3.4,10.5-12.4,14.6-12.7,14.8C275.8,214.2,275.5,214.3,275.1,214.3z"/>
										</g>
									</g>
								</g>
								<g>
									<g>
										<g>
											<path class="st8" d="M317.8,220.8c-0.7,0-1.4-0.3-1.9-0.8c-7.8-8.3-9-15.2-9-15.5l5.2-0.8c0,0.1,0.9,4.7,6,10.8
												c2.2-2.1,5.7-6,6.5-10.1l5.1,1c-1.6,7.9-9.9,14.5-10.2,14.8C318.9,220.6,318.3,220.8,317.8,220.8z"/>
										</g>
									</g>
								</g>
								<g>
									<g>
										<g>
											<path class="st8" d="M221,189c0.5,0.8,1,1.7,1.5,2.5c0.5,0.8,1.1,1.7,1.7,2.5c1.1,1.7,2.3,3.3,3.5,4.9
												c1.2,1.6,2.5,3.2,3.7,4.8c1.3,1.6,2.6,3.1,3.9,4.6c2.7,3,5.5,5.9,8.5,8.6l2.2,2c0.7,0.7,1.5,1.3,2.3,2
												c0.8,0.7,1.5,1.3,2.3,1.9c0.8,0.6,1.6,1.3,2.4,1.9c6.4,4.9,13.2,9.3,20.4,12.9l2.7,1.3c0.5,0.2,0.9,0.5,1.4,0.7l1.4,0.6
												l2.7,1.3l2.8,1.3c1.8,0.9,3.7,1.7,5.6,2.6c1.9,0.9,3.8,1.7,5.6,2.7l0,0c0.1,0.1,0.1,0.2,0.1,0.3c0,0.1-0.1,0.1-0.2,0.1
												c-4.2-0.2-8.4-0.8-12.5-1.9c-4.1-1-8-2.6-11.9-4.3c-7.7-3.5-15-7.9-21.7-13c-3.4-2.5-6.6-5.3-9.7-8.2
												c-3.1-2.9-6-5.9-8.8-9.2c-2.8-3.2-5.3-6.5-7.7-10c-1.2-1.7-2.3-3.5-3.4-5.4c-0.5-0.9-1.1-1.8-1.6-2.8
												c-0.5-1-1-1.9-1.5-2.9c-0.5-1.2,0-2.5,1.1-3C219.1,187.5,220.3,187.9,221,189L221,189z"/>
										</g>
									</g>
								</g>
								<g>
									<g>
										<g>
											<path class="st8" d="M191.3,343.9c-0.1,0-0.2,0-0.3,0c-26.2-2.7-48.6-9.9-66.8-21.6c-14.6-9.4-26.5-21.6-35.3-36.4
												c-15-25.1-15.9-48.4-15.9-49.4c0-1.1,0.6-2,1.5-2.5c1-0.4,2.1-0.2,2.9,0.5c22.9,21.4,59.4,22.5,74,21.9
												c4.4-0.2,8.6-1.5,12.2-3.9c29-19.6,56-23.2,73.6-22.8c19.1,0.4,31.2,5.4,31.8,5.7c1.3,0.6,2,2.1,1.4,3.4
												c-0.6,1.3-2.1,2-3.4,1.4l0,0c-0.1,0-11.9-4.9-30.1-5.3c-16.7-0.3-42.5,3.2-70.3,21.9c-4.4,2.9-9.5,4.6-14.9,4.8
												c-14.3,0.5-48.5-0.4-72.7-19c1.2,8.5,4.8,24.4,14.6,40.8c19.3,32,52.3,50.6,98.1,55.3c1.4,0.1,2.5,1.4,2.3,2.9
												C193.8,342.9,192.7,343.9,191.3,343.9z"/>
										</g>
									</g>
								</g>
								<g>
									<g>
										<g>
											<path class="st8" d="M190.9,309.1c-0.6,4-0.9,7.9-1,11.8c0,2,0.1,3.9,0.3,5.8c0.2,1.9,0.5,3.8,0.9,5.7
												c0.9,3.7,2.4,7.1,4.5,10c2.1,2.9,5,5.2,8.1,7v0l0.1,0c1,0.6,1.5,1.8,1.2,2.9c-0.1,0.4-0.2,0.9-0.3,1.4
												c-0.1,0.5-0.2,1-0.3,1.5c-0.2,1-0.3,2-0.4,3c-0.2,2-0.3,4-0.2,6c0.1,4,0.7,8,2.1,11.7c0.7,1.8,1.5,3.6,2.5,5.2
												c1,1.6,2.2,3.2,3.6,4.5c1.4,1.4,2.9,2.6,4.5,3.6c1.6,1.1,3.4,1.9,5.2,2.7l0.1,0.1c1.3,0.6,1.9,2.1,1.4,3.4
												c-0.6,1.3-2.1,1.9-3.4,1.4c-2.1-0.9-4.2-1.9-6.1-3.1c-2-1.2-3.8-2.7-5.4-4.3c-1.7-1.6-3.1-3.5-4.3-5.4
												c-1.2-2-2.2-4.1-3-6.2c-1.6-4.3-2.3-8.8-2.4-13.3c-0.1-2.2,0-4.5,0.3-6.7c0.1-1.1,0.3-2.2,0.4-3.3
												c0.1-0.6,0.2-1.1,0.3-1.7c0.1-0.6,0.2-1.1,0.4-1.7l1.3,3c-3.8-2.1-7.2-5.1-9.6-8.8c-1.2-1.8-2.2-3.8-2.9-5.8
												c-0.7-2-1.2-4.1-1.5-6.2c-0.6-4.2-0.5-8.4,0.1-12.4c0.3-2,0.7-4,1.3-6c0.6-2,1.2-3.9,2.1-5.7c0-0.1,0.1-0.1,0.2-0.1
												C190.9,309,190.9,309.1,190.9,309.1L190.9,309.1z"/>
										</g>
									</g>
								</g>
								<g>
									<g>
										<g>
											<path class="st8" d="M252.8,283.3c2.9,2,5.4,4.5,7.6,7.2c0.6,0.7,1.1,1.4,1.6,2.1c0.5,0.7,1,1.5,1.5,2.2
												c0.5,0.8,0.9,1.5,1.3,2.3l0.6,1.2l0.6,1.2c1.5,3.3,2.5,6.8,3,10.3c0.5,3.6,0.5,7.2,0,10.8c-1,7.2-4,13.9-7.7,19.9
												c-0.9,1.5-2,2.9-3,4.4c-1.1,1.4-2.2,2.8-3.3,4.2c-1.2,1.3-2.3,2.7-3.5,4l-3.7,3.8l0.5-3l0,0c0.9,1.9,2,3.8,3.2,5.4
												c0.3,0.4,0.6,0.7,0.8,1c0.1,0,0.1,0.1,0.2,0.1c0.1,0.1,0,0-0.1,0l-0.1-0.1c-0.2-0.1-0.1,0,0,0c0.2,0,0.7,0,1.2-0.1
												l1.7-0.2c2.4-0.3,5.1-0.3,7.7,0.5c2.6,0.7,4.9,2.2,6.8,4c1.1,1,1.1,2.6,0.2,3.7c-1,1.1-2.6,1.1-3.7,0.2l0,0
												c-1.4-1.3-3-2.3-4.8-2.8c-1.7-0.5-3.6-0.5-5.7-0.3l-1.7,0.2c-0.6,0.1-1.3,0.1-2.2,0.1c-0.5-0.1-1-0.1-1.7-0.4
												c-0.2-0.1-0.3-0.2-0.5-0.3c-0.2-0.1-0.4-0.2-0.4-0.3l-0.5-0.4c-0.6-0.5-1-1.1-1.4-1.6c-1.5-2.1-2.6-4.1-3.7-6.3l0,0
												c-0.5-1-0.3-2.3,0.5-3c4.8-4.7,9.3-9.6,13-15.2c3.6-5.5,6.5-11.6,7.7-18c0.6-3.2,0.7-6.5,0.4-9.7
												c-0.3-3.2-1.1-6.4-2.3-9.5c-2.4-6.1-6.2-11.9-11-16.5l0,0c-0.2-0.2-0.2-0.6,0-0.9C252.2,283.1,252.5,283.1,252.8,283.3z"
												/>
										</g>
									</g>
								</g>
								<g>
									<g>
										<g>
											<path class="st8" d="M238.7,414.4c-1.3,0-2.7-0.6-3.7-2.4c-1.8-3.1-3.8-3.9-6.3-5c-3.3-1.4-7-3.1-9.7-9.3
												c-3.9-9.4,3-17.4,7.1-20.3c0.5-0.3,1-0.5,1.6-0.5c9.9,0.4,16.5,6.4,18.1,16.6c1.2,8.1-1,19.1-5.7,20.8
												C239.6,414.4,239.2,414.4,238.7,414.4z M228.4,382.1c-2,1.6-7.4,6.9-4.7,13.5c1.8,4.4,4.1,5.3,6.9,6.6
												c2.5,1.1,5.6,2.4,8.1,6.2c1.5-2.8,3.2-10.4,1.1-17.1C238.2,385.7,234.3,382.6,228.4,382.1z"/>
										</g>
									</g>
								</g>
								<g>
									<g>
										<g>
											<path class="st8" d="M267.4,410.4c-0.1,0-0.2,0-0.4,0c-0.9-0.1-1.7-0.7-2.1-1.6c-0.2-0.6-6-14.1-21.9-13.6
												c-1.5,0-2.6-1.1-2.7-2.5s1.1-2.6,2.5-2.7c13.4-0.4,21,7.6,24.5,12.7c2.8-6.6,1-14.6-2.5-20.4c-3-4.8-7.1-7.8-10.1-7.2
												c-8.6,1.7-12.1,11.5-12.2,11.6c-0.5,1.4-2,2.1-3.3,1.6c-1.4-0.5-2.1-2-1.6-3.3c0.2-0.5,4.5-12.6,16.1-15
												c5.3-1.1,11.2,2.6,15.6,9.6c5.2,8.3,7.2,20.8,0.1,29.9C268.9,410,268.2,410.4,267.4,410.4z"/>
										</g>
									</g>
								</g>
								<g>
									<g>
										<g>
											<path class="st8" d="M271,393.7c-0.5,0-0.9-0.1-1.4-0.4c-1.2-0.8-1.6-2.4-0.8-3.6c4.6-7.3,13.6-8.9,18.8-9.1
												c-3-5.1-11.6-11.4-16-11.1c-5.3,0.4-9,5.7-9.1,5.8c-0.8,1.2-2.4,1.5-3.6,0.7c-1.2-0.8-1.5-2.4-0.7-3.6
												c0.2-0.3,5.1-7.4,13-8c8-0.7,22,10.9,22.7,18.7c0.1,0.8-0.2,1.5-0.8,2.1c-0.5,0.5-1.3,0.8-2.1,0.7
												c-0.1,0-13-1.1-17.8,6.6C272.8,393.3,271.9,393.7,271,393.7z"/>
										</g>
									</g>
								</g>
								<g>
									<g>
										<g>
											<path class="st8" d="M333.6,333.9c-0.1,0.8-0.2,1.4-0.4,2.1c-0.2,0.7-0.4,1.4-0.6,2c-0.4,1.3-1,2.6-1.6,3.9
												c-0.6,1.3-1.4,2.5-2.2,3.6c-0.9,1.1-1.8,2.2-3,3.1c-0.3,0.3-0.8,0.2-1.1-0.1c-0.2-0.2-0.2-0.5-0.1-0.8l0,0
												c0.5-1.2,0.9-2.4,1.3-3.7c0.3-1.2,0.7-2.4,1-3.7l0.8-3.7c0.3-1.2,0.5-2.5,0.8-3.6l0-0.1c0.4-1.4,1.8-2.2,3.2-1.9
												C332.9,331.4,333.7,332.6,333.6,333.9z"/>
										</g>
									</g>
								</g>
								<g>
									<g>
										<g>
											<path class="st8" d="M331.8,352.7c-0.6-3.9-5.2-5.8-5.3-5.8l1.9-4.9c0.3,0.1,7.5,2.9,8.6,9.9L331.8,352.7z"/>
										</g>
									</g>
								</g>
								<g>
									<g>
										<g>
											<path class="st8" d="M354.5,369.6l-0.8-5.2l7.1-1.2c-3.5-3.8-9.9-9.6-16.5-11c-8.4-1.8-10.6,4.9-10.8,5.6l-5-1.4
												c1.2-4.2,6.2-11.6,16.9-9.3c12,2.5,22.1,15.8,22.5,16.4c0.5,0.7,0.7,1.7,0.3,2.5c-0.3,0.8-1.1,1.5-2,1.6L354.5,369.6z"/>
										</g>
									</g>
								</g>
								<g>
									<g>
										<g>
											<path class="st8" d="M360.9,381.6c-0.3,0-0.7-0.1-1-0.2c-2.7-1.1-10.7-3.8-14.6-3c-6.9,1.4-11.6-3-11.7-3.2l3.6-3.8
												c0.1,0.1,3,2.7,7.1,1.9c3.5-0.7,8.4,0.3,12.2,1.4c-6.6-12.7-22-15.3-25.8-15.7c-5.5,4.1-7.7,9.5-7.7,9.6l-4.9-1.9
												c0.1-0.3,2.9-7.5,10.4-12.6c0.5-0.3,1-0.5,1.6-0.4c0.3,0,27,1.8,33.4,24.6c0.3,1,0,2-0.8,2.6
												C362.2,381.4,361.6,381.6,360.9,381.6z"/>
										</g>
									</g>
								</g>
								<g>
									<g>
										<g>
											<path class="st9" d="M309.7,379"/>
										</g>
									</g>
								</g>
								<g>
									<g>
										<g>
											<path class="st8" d="M342.2,389.6c-0.4,0-0.9-0.1-1.3-0.3c-2.2-1.2-8.7-4.4-12.3-4.5c-9.3-0.3-18.1-2.8-19.6-3.3
												c-27.6-3.9-27.8-31.6-27.8-31.9c0-1.4,1.2-2.6,2.6-2.6c0,0,0,0,0,0c1.4,0,2.6,1.2,2.6,2.6c0,0.9,0.2,22.1,21.2,26.4
												c0.9-2.7,2.9-6.9,6.9-9.2c3.8-2.2,8.4-2.3,13.7-0.3c16.8,6.3,16.5,20,16.4,20.6c0,0.9-0.5,1.7-1.3,2.2
												C343.1,389.5,342.7,389.6,342.2,389.6z M312.9,377.2c3.3,0.8,9.6,2.2,16,2.4c3,0.1,6.8,1.5,9.8,2.8
												c-1.3-3.5-4.5-8.1-12.1-11c-3.8-1.4-6.9-1.5-9.2-0.1C314.9,372.7,313.6,375.3,312.9,377.2z"/>
										</g>
									</g>
								</g>
								<g>
									<g>
										<g>
											<path class="st8" d="M287,333.8c-1.1,0-2.1-0.7-2.5-1.8c-0.5-1.4,0.3-2.8,1.7-3.3c5.1-1.7,5.6-6.7,5.6-6.9
												c0.1-1.4,1.4-2.5,2.8-2.4c1.4,0.1,2.5,1.3,2.4,2.8c0,0.4-0.7,8.7-9.2,11.5C287.6,333.8,287.3,333.8,287,333.8z"/>
										</g>
									</g>
								</g>
								<g>
									<g>
										<g>
											<path class="st8" d="M329.7,146.5c0.4-1.1,0.8-2,1.3-3c0.5-1,1-1.9,1.7-2.8c1.2-1.8,2.7-3.5,4.6-4.9
												c1.8-1.4,4-2.6,6.4-3.2c2.4-0.7,5.1-0.7,7.5-0.1c0.6,0.2,1.2,0.3,1.8,0.5c0.6,0.2,1.1,0.4,1.7,0.7
												c1.1,0.5,2.2,1.1,3.2,1.9c2,1.5,3.6,3.5,4.7,5.6c1.1,2.1,1.7,4.4,1.8,6.6c0.1,1.1,0.1,2.2,0,3.3
												c-0.1,1.1-0.3,2.1-0.6,3.2c-0.2,0.7-0.9,1-1.6,0.8c-0.4-0.1-0.7-0.5-0.8-0.8l-0.1-0.2c-0.1-0.4-0.2-0.9-0.4-1.3
												c-0.1-0.5-0.2-0.9-0.4-1.4c-0.3-0.9-0.6-1.8-0.9-2.6c-0.7-1.6-1.5-3.1-2.5-4.4c-0.5-0.6-1-1.2-1.6-1.7
												c-0.6-0.5-1.1-1-1.8-1.3c-0.6-0.4-1.3-0.7-2-1c-0.7-0.3-1.5-0.5-2.2-0.7c-0.4-0.1-0.7-0.2-1.1-0.2l-0.5-0.1l-0.5,0
												c-0.7,0-1.4,0-2.1,0.2c-1.4,0.3-2.9,0.8-4.4,1.6c-2.9,1.6-5.8,4.1-8.4,6.8l-0.1,0.1c-0.6,0.6-1.6,0.7-2.3,0
												C329.6,147.7,329.5,147,329.7,146.5z"/>
										</g>
									</g>
								</g>
							</g>
							<g>
								<g>
									<g>
										<path class="st8" d="M297.3,141.5c1.2,0.6,2.1,1.5,2.8,2.6c0.4,0.6,0.6,1.2,0.8,2c0.2,0.7,0.2,1.6,0,2.4
											c-0.2,0.8-0.7,1.6-1.2,2.2c-0.6,0.6-1.2,1-1.9,1.3c-0.7,0.3-1.3,0.4-2,0.4c-0.3,0-0.7,0-1-0.1c-0.3-0.1-0.7-0.2-1-0.3
											c-0.2-0.1-0.3-0.3-0.2-0.5c0,0,0,0,0-0.1l0,0c0.8-1.1,1.6-1.8,2.2-2.5c0.3-0.3,0.5-0.6,0.6-0.8c0.2-0.2,0.3-0.4,0.4-0.7
											c0.2-0.4,0.2-1.2,0.1-2.1c-0.1-0.9-0.4-1.9-0.6-3l0-0.1c-0.1-0.4,0.2-0.7,0.6-0.8C297,141.5,297.2,141.5,297.3,141.5z"/>
									</g>
								</g>
							</g>
							<g>
								<g>
									<g>
										<path class="st8" d="M240.7,131.1c-0.9,0.7-1.7,1.4-2.4,2c-0.7,0.6-1.1,1.2-1.2,1.7c-0.1,0.2-0.1,0.4-0.1,0.7
											c0,0.3-0.1,0.6,0,1.1c0,0.9,0.2,1.9,0.1,3.3l0,0c0,0.2-0.2,0.4-0.4,0.4c0,0-0.1,0-0.1,0c-0.4-0.1-0.7-0.2-1-0.4
											c-0.3-0.2-0.6-0.3-0.8-0.5c-0.5-0.4-1-0.9-1.3-1.6c-0.4-0.6-0.6-1.4-0.7-2.2c-0.1-0.8,0.1-1.7,0.5-2.5
											c0.4-0.8,0.9-1.4,1.5-1.9c0.6-0.5,1.2-0.8,1.9-1.1c1.3-0.5,2.6-0.5,3.9-0.2c0.4,0.1,0.6,0.5,0.5,0.8
											C241,130.8,240.9,130.9,240.7,131.1L240.7,131.1z"/>
									</g>
								</g>
							</g>
						</g>
					</g>
				</g>
			</g>
		</g>
	</g>
	<circle class="st10" cx="347.9" cy="148.5" r="25.5"/>
	<path class="st8" d="M376.9,147.3l0-0.9c0-0.9,0-1.8-0.2-2.8c-0.2-2.4-0.8-4.9-1.9-7.8c-0.9-2.4-2.3-4.8-4.2-7.3
		c-1.7-2.1-3.8-4.1-6.3-5.9c-2.3-1.6-5-2.9-8-3.9c-2.7-0.8-5.6-1.3-8.9-1.4l-1.2,0.1c-1,0-2,0.1-3.1,0.3c-1.4,0.2-2.7,0.5-3.9,0.9
		l-0.5,0.1c-3,1-5.6,2.3-8,3.9c-2.5,1.8-4.6,3.8-6.3,5.9c-1.9,2.5-3.2,4.9-4.2,7.2c-1.9,4.8-2.6,10.3-1.8,15.4
		c0.7,4.7,2.5,8.9,5.2,12.7c2.3,3.1,5.2,5.8,8.3,7.8c2.4,1.5,5,2.7,8,3.5c1.4,0.4,2.4,0.6,3.2,0.7c1,0.2,1.8,0.3,2.4,0.3l2,0.1
		l1.9-0.1c0,0,0,0,0,0c0.7,0,1.6-0.1,2.4-0.2c0.9-0.1,1.9-0.3,3.2-0.7c3-0.8,5.6-2,8-3.5c1.7-1.1,3.3-2.3,4.8-3.8c3.2-0.6,2,6,5,6
		c3.2,0,5.8-2.6,5.8-5.8c0-3.2-6.1-0.6-5.8-5.8c0-0.3,0-0.5,0-0.7c1.9-3.2,3.2-6.8,3.8-10.5C376.7,149.8,376.9,148.7,376.9,147.3z
		 M372.5,150.7c-0.3,4-1.6,8-3.7,11.4c-1.7,2.8-4.1,5.3-7.1,7.4c-2.7,1.9-5.4,2.8-7.2,3.4c-1.2,0.4-2.1,0.5-2.9,0.6
		c-0.9,0.2-1.6,0.3-2.2,0.3l-1.9,0.1l-1.9-0.1c-0.5,0-1.2-0.1-2.2-0.3c-0.7-0.1-1.6-0.3-2.9-0.6c-1.8-0.5-4.5-1.5-7.2-3.4
		c-3-2.1-5.4-4.6-7.1-7.4c-2.1-3.4-3.4-7.4-3.7-11.3c-0.3-4.4,0.5-8.9,2.5-12.9c2-4,5.3-7.6,9.1-10.1c1.9-1.2,4.1-2.2,6.3-2.9
		l0.6-0.1c1-0.2,1.9-0.5,3-0.6c0.6-0.1,1.5-0.2,2.4-0.2c0.4,0,0.8,0,1.1-0.1c2.6,0,4.9,0.4,7,1c2.4,0.8,4.6,1.7,6.4,2.9
		c3.9,2.5,7.2,6.1,9.1,10.1c1.1,2.3,1.8,4.4,2.1,6.4c0.2,0.7,0.2,1.6,0.3,2.4l0.1,0.8C372.5,148.4,372.5,149.5,372.5,150.7z"/>
	<g>
		<path class="st8" d="M201.9,158.5c-2.2-4-1.5-9.3,1.2-13c2.4-3.3,6.1-5.4,10-6.5c-1.6,0.9-3.1,2.2-4.1,3.2c-1.8,1.7-2.8,4-3.2,6.4
			c-0.1,0.8-0.2,1.7-0.1,2.5c0.3,2,1.5,3.8,3.1,5.1c2.2,1.8,5.3,2.7,8.2,2.3c-2.2-0.1-4.4-0.8-6.2-2.2c-1.7-1.4-2.9-3.4-3-5.4
			c-0.1-1.9,0.8-3.7,2-5.2c0,0.4-0.1,0.7-0.1,1.1c-0.1,4.1,1.6,5.9,5.7,5.6c4.1-0.3,7.9-2,11.7-3.7c7-3.1,14-8.3,21.9-0.4
			c4.3,5.7-1.8,15.7-10.8,15.1c-1.9-0.1-5.7-0.5-7.6-0.7c-3.3-0.4-5.5,0.9-8.8,1.7C214.2,166.2,205.7,165.4,201.9,158.5z"/>
		<path class="st8" d="M255.1,150c10.8-2.7,14.2,5.4,18.5,11.6c2.3,3.4,4.7,6.8,8.1,9.2c3.3,2.4,5.7,1.7,7.8-1.8
			c0.2-0.3,0.4-0.7,0.5-1c0.4,1.9,0.1,3.9-0.9,5.5c-1.2,1.7-3.2,2.8-5.4,3.1c-2.2,0.3-4.5-0.3-6.4-1.3c2.3,1.8,5.3,2.7,8.2,2.3
			c2.1-0.3,4-1.2,5.3-2.8c0.5-0.7,0.9-1.4,1.2-2.2c0.9-2.3,1.2-4.8,0.6-7.2c-0.4-1.4-1-3.2-1.9-4.8c2.8,2.9,4.9,6.7,5.2,10.7
			c0.4,4.6-1.7,9.4-5.7,11.8c-6.8,4-14.5,0.3-20.2-5.2c-2.4-2.3-3.6-4.6-6.7-6c-1.7-0.8-5.2-2.5-6.8-3.3
			C248.5,164.4,248.4,152.7,255.1,150z"/>
	</g>
</g>
<g id="Calque_9">
</g>
<g id="Calque_5">
</g>
<g id="Calque_3">
</g>
<g id="Calque_10">
	<g>
		<g>
			<path class="st11" d="M330.9,298.2l16.1-9.3c0.8-0.4,1.7-0.4,2.5,0l14.1,8.1l1.7,7.2L350,327.9c-0.8,0.4-1.7,0.4-2.5,0l-17.8-11
				v-16.5C329.6,300,330.5,298.5,330.9,298.2L330.9,298.2z"/>
			<path class="st12" d="M363.6,297l2.1,1.2c0.4,0.2,0.7,0.5,0.9,0.9l-3,3.4V297L363.6,297z"/>
			<path class="st12" d="M348.3,326.2l1.7,2.6l-1.7,2c-0.4,0-0.9-0.1-1.2-0.3l-16.1-9.3c-0.8-0.4-1.2-1.3-1.2-2.2v-2.2l16.1,9.3
				C346.6,326.7,347.5,326.7,348.3,326.2L348.3,326.2z"/>
			<path class="st12" d="M329.6,300.4c0-0.4,0.1-0.9,0.3-1.2c0.2-0.4,0.5-0.7,0.9-0.9l18.7,10.8l14.1-8.1l1.7,16.7
				c0,0.9-0.5,1.7-1.2,2.2l-15.7,6.4v-15.1L329.6,300.4z"/>
			<path class="st13" d="M362.4,318.1c0.8-0.4,1.2-1.3,1.2-2.2v-15.1l3-1.7c0.2,0.4,0.3,0.8,0.3,1.2V319c0,0.9-0.5,1.7-1.2,2.2
				l-16.1,9.3c-0.4,0.2-0.8,0.3-1.2,0.3v-4.7L362.4,318.1z"/>
		</g>
		<g>
			<path class="st8" d="M310.2,329.5l5.5,3.2c1.3-0.8,2.6-1.7,3.8-2.8h-0.2c-1.5,0-2.7-1.2-2.7-2.7v-1.5c0-0.1,0-0.2,0-0.3
				c-0.2,0.2-0.4,0.4-0.6,0.6c-0.5,0.5-1.1,1-1.7,1.3c-1.2,0.9-2.5,1.5-3.9,2.1C310.4,329.4,310.3,329.4,310.2,329.5z"/>
			<path class="st11" d="M308.9,328.7L308.9,328.7l1.2,0.8l5.3,3.3l11.3,7c0.6,0.4,1.4,0.4,2,0.2c0.2,0,0.3-0.1,0.5-0.2l2.1-3.2
				l12-18.6l1.2-1.8l-1.7-7.2l-1.6-0.9l-12.5-7.2c-0.8-0.5-1.7-0.5-2.5,0l-0.5,0.3l-3.7,2.1l-0.1,0.1l-1,0.6
				c0.1,0.8,0.2,1.7,0.3,2.5c0,0.2,0.1,0.5,0.1,0.7c0.3,3.2,0.2,6.3-0.4,9.3c0,0,0,0,0,0c-0.1,0.6-0.3,1.2-0.4,1.7
				c-0.1,0.3-0.1,0.5-0.2,0.8c-0.6,2-1.6,3.9-2.9,5.5c-0.2,0.2-0.3,0.4-0.5,0.6c-0.1,0.1-0.1,0.1-0.2,0.2l-0.2,0.2c0,0,0,0,0,0
				c0,0.1,0,0.2,0,0.3v1.5c0,1.5,1.2,2.7,2.7,2.7h0.2c-0.6,0.6-1.3,1.1-2,1.6c-0.3,0.2-0.5,0.4-0.8,0.6c-0.3,0.2-0.7,0.4-1,0.6
				l-5.5-3.2L308.9,328.7z"/>
			<path class="st12" d="M342.9,308.8l2.1,1.2c0.4,0.2,0.7,0.5,0.9,0.9l-3,3.4L342.9,308.8L342.9,308.8z"/>
			<path class="st12" d="M308.9,328.7L308.9,328.7l1.2,0.8l5.3,3.3c-0.2,0.1-0.5,0.3-0.8,0.4c-0.8,0.4-1.6,0.8-2.4,1.1
				c0,0-0.1,0-0.1,0l14,8.1c0.4,0.2,0.8,0.3,1.2,0.3l1.7-2l-0.5-0.7l-1.2-1.9c-0.8,0.4-1.7,0.4-2.5,0l-9.3-5.4l-5.5-3.2L308.9,328.7
				z"/>
			<path class="st12" d="M320.4,318.8l4.6,2.7l2.5,1.5V338l3.8-1.5l12-4.9c0.8-0.4,1.2-1.3,1.2-2.2l-1.1-11.5l-0.5-5.2l-14.1,8.1
				l-3-1.8l-4.7-2.7c-0.1,0.6-0.3,1.2-0.4,1.7C320.5,318.3,320.5,318.6,320.4,318.8z"/>
			<path class="st13" d="M341.6,329.9c0.8-0.4,1.2-1.3,1.2-2.2v-15.1l3-1.7c0.2,0.4,0.3,0.8,0.3,1.2v18.7c0,0.9-0.5,1.7-1.2,2.2
				l-16.1,9.3c-0.4,0.2-0.8,0.3-1.2,0.3V338L341.6,329.9z"/>
		</g>
		<g>
			<path class="st11" d="M319.8,298.3c0.2,0.5,0.3,1.1,0.4,1.6c0.2,0.8,0.3,1.6,0.5,2.3c0,0,0,0.1,0,0.1c0,0,0,0.1,0,0.1l1.2,0.8
				l4.6,2.8l9.6,5.9c0.6,0.4,1.4,0.4,2,0.2c0.2,0,0.3-0.1,0.5-0.2l2.6-4l12.7-19.6l-1.7-7.2l-14.1-8.1c-0.8-0.4-1.7-0.4-2.5,0
				l-13.6,7.9l-0.9,0.5c0,0,0,0,0,0c0.1,0.5,0.2,1,0.4,1.5v0c0,0,0,0.1,0,0.1c0,0.2,0.1,0.3,0.2,0.5c0,0.1,0.1,0.2,0.1,0.3
				c0,0.1,0.1,0.2,0.1,0.3c0.4,1.1,1,2.1,1.8,3l0,0c0,0.2,0.1,0.4,0.1,0.6c0,0.1,0,0.2,0.1,0.4c0,0.1,0.1,0.3,0.1,0.4
				c0,0.2,0.1,0.4,0.1,0.6l0.3,2.6c0.1,0.9,0.1,1.8,0.2,2.6c0,0.7,0,1.5,0.1,2.2c0.2,0.7,0.4,1.3,0.5,1.9H319.8z"/>
			<path class="st12" d="M352.3,281.1l2.1,1.2c0.4,0.2,0.7,0.5,0.9,0.9l-3,3.4V281.1L352.3,281.1z"/>
			<path class="st12" d="M320.8,302.3c0,0,0,0.1,0,0.1c0.1,0.4,0.2,0.9,0.2,1.3c0.1,0.8,0.2,1.7,0.3,2.5l5.5,3.2l9,5.2
				c0.4,0.2,0.8,0.3,1.2,0.3l1.7-2l-0.5-0.8l-1.2-1.9c-0.8,0.5-1.7,0.5-2.5,0l-8-4.6l-4.4-2.5L320.8,302.3z"/>
			<path class="st12" d="M338.2,293.1l-15.1-8.7c0.2,0.7,0.4,1.4,0.5,2.1c0,0.2,0.1,0.4,0.1,0.6l0,0c0,0.2,0.1,0.4,0.1,0.6l13.1,7.6
				v15l15.8-6.4c0.8-0.5,1.2-1.3,1.2-2.2l-1.7-16.7L338.2,293.1z"/>
			<path class="st8" d="M318.4,284.4c0.1-0.5,0.8-1.7,1.2-2c-0.4,0.2-0.7,0.5-0.8,0.9C318.5,283.6,318.4,284,318.4,284.4z"/>
			<path class="st13" d="M351.1,302.2c0.8-0.4,1.2-1.3,1.2-2.2V285l3-1.7c0.2,0.4,0.3,0.8,0.3,1.2v18.7c0,0.9-0.5,1.7-1.2,2.2
				l-16.1,9.3c-0.4,0.2-0.8,0.3-1.2,0.3v-4.7L351.1,302.2z"/>
		</g>
	</g>
	<g>
		<linearGradient id="SVGID_1_" gradientUnits="userSpaceOnUse" x1="303.434" y1="307.5" x2="384.2521" y2="307.5">
			<stop  offset="0" style="stop-color:#D33B2F"/>
			<stop  offset="0.3659" style="stop-color:#FF4936"/>
			<stop  offset="0.5223" style="stop-color:#FC594C"/>
			<stop  offset="0.6788" style="stop-color:#FF4936"/>
			<stop  offset="1" style="stop-color:#D33B2F"/>
		</linearGradient>
		<path class="st14" d="M338.8,262c-8.4,0-16.2,2.3-23,6.2c1.8,2.6,3.3,5.4,4.6,8.3l0.5,1.2c0.2,0.4,0.3,0.8,0.5,1.2
			c0.3,0.8,0.6,1.6,0.9,2.5c0.5,1.7,1,3.3,1.4,5.1c0.2,0.9,0.4,1.7,0.5,2.6l0.3,2.6c0.1,0.9,0.1,1.8,0.2,2.6c0,0.7,0,1.5,0.1,2.2
			c0.2,0.8,0.4,1.5,0.6,2.3c0.2,0.9,0.4,1.7,0.6,2.6c0.3,1.7,0.6,3.5,0.7,5.3c0.3,3.5,0.3,7.2-0.5,10.8c-0.7,3.6-2.1,7.2-4.6,10.3
			c-2.4,3.1-5.8,5.3-9.2,6.6c-2.9,1.1-6,1.7-8.9,1.9c8.3,10.3,21.1,16.8,35.3,16.8c25.1,0,45.5-20.4,45.5-45.5
			C384.3,282.4,363.9,262,338.8,262z"/>
		<g>
			<g>
				<path class="st15" d="M354.6,288.8l9.4-0.4c0,0,0.8,8.4-1.9,12.9c-2.7,4.6-11.3,7.7-11.3,7.7l0.2-3.2c0,0,7.1-1.7,9.1-5.7
					c2.6-4.9,1.3-8.8,1.3-8.8l-7.2,0.9L354.6,288.8z"/>
			</g>
			<g>
				<path class="st16" d="M350.5,328.5c-0.5-0.6-1.4-0.9-2.3-1s-1.8-0.1-2.6-0.3c-1.2-0.3-2.1-1.2-2.6-2.2c-0.5-1-0.7-2-0.7-3.1
					c0-1.3,0.3-2.9,1.6-3.5c0.5-0.2,1-0.3,1.4-0.6c0.6-0.6,0.3-2-0.3-2.6c-0.9-0.8-2.6-1.2-3.9-1.4c-0.4-0.1-0.9-0.1-1.3-0.1
					c-0.4,0-0.9,0-1.3,0.1c-1.2,0.2-3,0.6-3.9,1.4c-0.6,0.5-1,2-0.3,2.6c0.3,0.3,0.9,0.4,1.4,0.6c1.4,0.6,1.7,2.2,1.6,3.5
					c0,1.1-0.2,2.1-0.7,3.1c-0.5,1-1.4,1.8-2.6,2.2c-0.8,0.2-1.8,0.2-2.6,0.3s-1.8,0.4-2.3,1c-0.4,0.5-0.4,1.2-0.3,1.8
					c1.6,0.2,3.2-0.2,4.8-0.3c2-0.2,4.1,0,6.2,0.1c2.1-0.1,4.1-0.3,6.2-0.1c1.6,0.2,3.2,0.6,4.8,0.3
					C350.9,329.6,350.9,329,350.5,328.5z"/>
			</g>
			<g>
				<path class="st15" d="M356,283.3h-17h-17c0,0-0.7,19.9,3,26.1c3.7,6.3,14,7.5,14,7.5s10.3-1.3,14-7.5S356,283.3,356,283.3z"/>
			</g>
			<g>
				<path class="st16" d="M346.2,283.3c0,0.1,0,0.2,0,0.2c0,1.3,1,2.3,1.6,3.3c0.8,1.2,1.3,2.5,1.7,3.9c0.8,2.9,0.8,6.1-0.2,9.1
					c-1.9,5.5-7.1,9.7-12.8,10.6c-4.3,0.7-8.7-0.4-12.4-2.8c0.2,0.7,0.5,1.3,0.8,1.8c3.7,6.3,14,7.5,14,7.5s10.3-1.3,14-7.5
					c3.7-6.3,3-26.1,3-26.1H346.2z"/>
			</g>
			<g>
				<g class="st17">
					<path class="st6" d="M331.6,291.1c0.8,0.2,1.5,0.8,1.9,1.4c0.4,0.7,0.6,1.5,0.8,2.3c-0.1-0.8,0-1.6,0.2-2.3
						c0.3-0.7,0.8-1.4,1.5-1.8c-0.3,0.2-1.3-1.2-1.4-1.4c-0.4-0.6-0.6-1.3-0.6-2c-0.2,0.7-0.2,1.4-0.7,2.1
						C332.9,290.2,332.3,290.7,331.6,291.1z"/>
				</g>
				<g class="st18">
					<path class="st6" d="M332.9,291.1c0.3,0.1,0.6,0.3,0.8,0.6c0.2,0.3,0.3,0.6,0.4,1c0-0.3,0-0.7,0.1-1c0.1-0.3,0.3-0.6,0.6-0.8
						c-0.1,0.1-0.6-0.5-0.6-0.6c-0.2-0.3-0.2-0.6-0.3-0.9c-0.1,0.3-0.1,0.6-0.3,0.9C333.4,290.7,333.2,290.9,332.9,291.1z"/>
				</g>
				<g>
					<path class="st6" d="M333.4,291c0.1,0,0.3,0.1,0.3,0.2c0.1,0.1,0.1,0.3,0.1,0.4c0-0.1,0-0.3,0-0.4c0-0.1,0.1-0.2,0.2-0.3
						c-0.1,0-0.2-0.2-0.2-0.2c-0.1-0.1-0.1-0.2-0.1-0.3c0,0.1,0,0.2-0.1,0.4C333.7,290.9,333.6,291,333.4,291z"/>
				</g>
			</g>
			<g>
				<g class="st17">
					<path class="st6" d="M341.4,300.2c1,0.2,1.8,0.9,2.3,1.8c0.5,0.9,0.8,1.8,1,2.8c-0.1-1,0-2,0.3-2.9s0.9-1.7,1.8-2.2
						c-0.4,0.2-1.6-1.5-1.8-1.8c-0.5-0.7-0.7-1.6-0.7-2.4c-0.3,0.9-0.3,1.8-0.8,2.6C343,299,342.3,299.7,341.4,300.2z"/>
				</g>
				<g class="st18">
					<path class="st6" d="M342.9,300.2c0.4,0.1,0.8,0.4,1,0.8c0.2,0.4,0.3,0.8,0.4,1.2c0-0.4,0-0.8,0.1-1.2c0.1-0.4,0.4-0.7,0.8-0.9
						c-0.2,0.1-0.7-0.6-0.8-0.8c-0.2-0.3-0.3-0.7-0.3-1.1c-0.1,0.4-0.1,0.8-0.3,1.1C343.6,299.7,343.3,300,342.9,300.2z"/>
				</g>
				<g>
					<path class="st6" d="M343.6,300.1c0.2,0,0.3,0.2,0.4,0.3s0.1,0.3,0.2,0.5c0-0.2,0-0.3,0-0.5c0.1-0.2,0.2-0.3,0.3-0.4
						c-0.1,0-0.3-0.3-0.3-0.3c-0.1-0.1-0.1-0.3-0.1-0.4c0,0.2,0,0.3-0.1,0.5C343.9,299.9,343.8,300,343.6,300.1z"/>
				</g>
			</g>
			<g>
				<g class="st17">
					<path class="st6" d="M329.7,306c0.7,0.1,1.3,0.7,1.7,1.3s0.6,1.3,0.7,2c-0.1-0.7,0-1.4,0.2-2.1c0.2-0.7,0.7-1.3,1.3-1.6
						c-0.3,0.1-1.2-1.1-1.3-1.3c-0.3-0.5-0.5-1.1-0.5-1.8c-0.2,0.7-0.2,1.3-0.6,1.9C330.9,305.1,330.3,305.6,329.7,306z"/>
				</g>
				<g class="st18">
					<path class="st6" d="M330.8,306c0.3,0.1,0.6,0.3,0.7,0.6c0.2,0.3,0.2,0.6,0.3,0.9c0-0.3,0-0.6,0.1-0.9c0.1-0.3,0.3-0.5,0.6-0.7
						c-0.1,0.1-0.5-0.5-0.5-0.5c-0.1-0.2-0.2-0.5-0.2-0.8c-0.1,0.3-0.1,0.5-0.2,0.8C331.3,305.6,331.1,305.8,330.8,306z"/>
				</g>
				<g>
					<path class="st6" d="M331.3,305.9c0.1,0,0.2,0.1,0.3,0.2s0.1,0.2,0.1,0.3c0-0.1,0-0.2,0-0.4c0-0.1,0.1-0.2,0.2-0.3
						c0,0-0.2-0.2-0.2-0.2c-0.1-0.1-0.1-0.2-0.1-0.3c0,0.1,0,0.2-0.1,0.3C331.5,305.8,331.4,305.8,331.3,305.9z"/>
				</g>
			</g>
			<g>
				<g>
					<path class="st15" d="M356.8,334.9h-33.9v-1c0-2.6,2.1-4.7,4.7-4.7H352c2.6,0,4.7,2.1,4.7,4.7V334.9z"/>
				</g>
				<g>
					<path class="st16" d="M353.3,329.1h-5.8c1.9,0,3.5,1,3.5,2.3v3.5h5.8v-3.5C356.8,330.1,355.2,329.1,353.3,329.1z"/>
				</g>
			</g>
			<g>
				<g>
					<path class="st15" d="M361.3,337.7h-43.1v-0.5c0-1.3,1.1-2.4,2.4-2.4H359c1.3,0,2.4,1.1,2.4,2.4V337.7z"/>
				</g>
				<g>
					<path class="st16" d="M356.9,334.9h-7.3c2.4,0,4.4,0.5,4.4,1.1v1.8h7.3V336C361.3,335.2,360.8,334.7,356.9,334.9z"/>
				</g>
			</g>
			<g>
				<path class="st15" d="M356.8,286.5h-35.3c-0.9,0-1.6-0.7-1.6-1.6l0,0c0-0.9,0.7-1.6,1.6-1.6h35.3c0.9,0,1.6,0.7,1.6,1.6l0,0
					C358.4,285.8,357.6,286.5,356.8,286.5z"/>
			</g>
			<g>
				<path class="st16" d="M356.7,283.3h-0.5c0.1,0.2,0.2,0.5,0.2,0.8l0,0c0,0.9-0.7,1.6-1.6,1.6h-34.8c0.3,0.5,0.8,0.8,1.4,0.8h35.3
					c0.9,0,1.6-0.7,1.6-1.6l0,0C358.3,284,357.5,283.3,356.7,283.3z"/>
			</g>
			<g>
				<path class="st15" d="M322.1,283.3c0,0,5.6-4.4,17-4.4c12.4,0,17,4.4,17,4.4H322.1z"/>
			</g>
			<g>
				<path class="st15" d="M341.7,276c-0.1-0.5-0.5-0.8-0.9-1c-0.5-0.2-2.9-0.2-3.3,0c-0.4,0.2-0.8,0.6-0.9,1c-0.1,0.5,0.1,1,0.5,1.2
					c0.3,0.2,0.8,0.2,1,0.5c0.1,0.1,0.1,0.3,0.2,0.5c0,0.4,0.1,0.8,0,1.2c0,0.5-0.1,1.1,0.3,1.4c0.2,0.1,0.4,0.2,0.7,0.2
					c0.2,0,0.5,0,0.7-0.2c0.4-0.3,0.3-0.9,0.3-1.4c0-0.4,0-0.8,0-1.2c0-0.2,0.1-0.3,0.2-0.5c0.2-0.3,0.7-0.3,1-0.5
					C341.6,277,341.8,276.4,341.7,276z"/>
			</g>
			<g class="st7">
				<path class="st6" d="M338.5,275.2c-0.3,0-0.5,0-0.7,0.1c-0.2,0.1-0.5,0.2-0.6,0.4c-0.1,0.2-0.1,0.4,0.1,0.5c0.1,0.1,0.3,0,0.5,0
					c0.4-0.2,0.9-0.2,1.3-0.3c0.2,0,0.3,0,0.4-0.1c0.1-0.1,0.2-0.2,0.2-0.4c0-0.1-0.1-0.2-0.2-0.2c-0.2-0.1-0.5-0.1-0.7,0
					L338.5,275.2z"/>
			</g>
			<g class="st19">
				<path class="st6" d="M326.4,282.1c-0.3,0.1-0.6,0.4-0.5,0.6c0.1,0.2,0.3,0.2,0.5,0.2c2,0.1,4-0.3,5.8-1c0.8-0.3,1.6-0.7,2.4-1
					c1.4-0.6,2.9-1.1,4.4-1.4c-1.6-0.5-3.2,0-4.8,0.3c-1.7,0.4-3.4,0.8-5.1,1.4C328.3,281.4,327.3,281.8,326.4,282.1z"/>
			</g>
			<g>
				<polygon class="st6" points="342,303.6 337.7,301.2 333.3,303.3 334.3,298.5 330.8,295 335.7,294.4 338,290.1 340.1,294.6 
					344.9,295.4 341.3,298.7 				"/>
			</g>
			<g class="st7">
				<path class="st6" d="M325.7,302.5c0.2,1,0.6,2.2,1.5,2.8c0.1,0.1,0.3,0.2,0.5,0.2c0.3,0,0.6-0.3,0.7-0.6s0-0.6,0-0.9
					c-0.6-3.5-1.6-7.1-0.7-10.6c0.4-1.3,1.1-2.7,0.4-4c-0.4-0.9-1.5-1.4-2.4-0.8c-1,0.7-0.9,2.6-0.9,3.7c-0.1,1.6-0.1,3.2,0.1,4.8
					C325,298.9,325.3,300.7,325.7,302.5z"/>
			</g>
		</g>
	</g>
</g>
<g id="Calque_4">
	<g>
		<g>
			<g>
				<g>
					<path class="st6" d="M398.6,318.5c0.6,2,4.2,6.7,6.3,7.5c0,0-2.9-0.5-5,0c-0.4,0.1-1-1-1.5-1c-0.1,0-0.2,0-0.2,0
						c-2.9,0-8.1-2.7-8.3-4.4c0,0,0.3,0,0.9,0c1.8,0,4.3-0.7,6.1-2.6"/>
				</g>
			</g>
		</g>
	</g>
	<g>
		<g>
			<g>
				<g>
					<path class="st6" d="M392.6,312.5c0.6,1.7,2.5,3.3,4.6,3.9c0,0-1.3,1-3.4,1.4c-0.4,0.1-0.8,0.1-1.3,0.1c-0.1,0-0.2,0-0.2,0
						c-2.9,0-8.1-2.3-8.3-3.7c0,0,0.3,0,0.9,0C386.5,314.3,390.7,314.1,392.6,312.5"/>
				</g>
			</g>
		</g>
	</g>
	<g>
		<g>
			<g>
				<g>
					<path class="st6" d="M389.6,305.5c0.6,1.7,2.5,3.3,4.6,3.9c0,0-1.3,1-3.4,1.4c-0.4,0.1-0.8,0.1-1.3,0.1c-0.1,0-0.2,0-0.2,0
						c-2.9,0-8.1-2.3-8.3-3.7c0,0,0.3,0,0.9,0c1.8,0,5.3-1.7,7.1-3.3"/>
				</g>
			</g>
		</g>
	</g>
	<g>
		<g>
			<path class="st8" d="M400.3,288.7c-3.8-0.2-7.4,0.8-9.2,4.4c-1.6,3.4-1.4,7.5-4.8,9.8c-1.5,1-3.1,1.5-4.8,2.1
				c-1.4,0.5-3.3,1-3.2,2.9c0.2,1.7,2.3,3,3.6,3.8c1.6,1,3.4,1.8,5.3,2.4c0-1,0-1.9,0-2.9c-1.6,0.5-3.2,0.7-4.8,0.7
				c-1.1,0-2,1.3-1.3,2.3c2.7,3.9,6.7,5.4,11.1,6.5c0.1-1,0.3-2,0.4-2.9c-1.4,0-2.9,0-4.3,0c-1.9,0-1.9,3,0,3c1.4,0,2.9,0,4.3,0
				c1.7,0,2.1-2.5,0.4-2.9c-3.6-0.9-7.1-2-9.3-5.1c-0.4,0.8-0.9,1.5-1.3,2.3c1.9,0,3.8-0.2,5.6-0.8c1.4-0.4,1.4-2.5,0-2.9
				c-1.5-0.5-3-1.1-4.4-1.9c-0.7-0.4-1.3-0.9-1.9-1.4c-0.2-0.2-0.4-0.3-0.5-0.5c-0.1,0.3-0.1,0.6-0.2,0.9c0.1,0,0.8-0.3,0.9-0.3
				c2.7-0.9,5.5-1.9,7.6-3.9c2.4-2.3,2.8-5.4,3.8-8.4c0.4-1.3,1.1-2.6,2.3-3.3c1.4-0.8,3.1-0.8,4.7-0.7
				C402.2,291.8,402.2,288.8,400.3,288.7L400.3,288.7z"/>
		</g>
	</g>
</g>
<g id="Calque_7">
	<g>
		<g>
			<path class="st6" d="M393.1,316C393.1,316,393.1,316,393.1,316c-0.1,0-0.2-0.1-0.3-0.1c0.2,0.1,0.5,0.2,0.7,0.4
				C393.4,316.2,393.3,316.1,393.1,316c0.2,0.1,0.2,0.2,0.3,0.2c0.5-0.8,1-1.7,1.5-2.5c0,0,0,0,0,0c0.1,0.1,0.2,0.1,0.4,0.2
				c-0.3-0.1-0.5-0.3-0.8-0.5c0.1,0.1,0.2,0.2,0.3,0.2c-0.2-0.2-0.5-0.4-0.6-0.6c0.1,0.1,0.2,0.2,0.2,0.3c-0.2-0.2-0.3-0.4-0.4-0.7
				c-0.1-0.2-0.2-0.3-0.4-0.4c-0.1-0.1-0.3-0.2-0.5-0.3c-0.2-0.1-0.4-0.1-0.6,0c-0.2,0-0.4,0.1-0.6,0.2c-0.3,0.2-0.6,0.5-0.7,0.9
				c0,0.1,0,0.3-0.1,0.4c0,0.3,0.1,0.5,0.2,0.8c0.1,0.2,0.2,0.4,0.3,0.6c0.2,0.3,0.4,0.6,0.7,0.8c0.2,0.2,0.5,0.5,0.8,0.6
				c0.3,0.2,0.6,0.3,0.9,0.5c0.1,0,0.3,0,0.4,0.1c0.2,0,0.4,0,0.6-0.1c0.1,0,0.2-0.1,0.3-0.2c0.2-0.1,0.3-0.2,0.4-0.4
				c0.1-0.1,0.1-0.2,0.2-0.4c0-0.1,0-0.3,0.1-0.4c0-0.2,0-0.4-0.1-0.6c-0.1-0.2-0.2-0.3-0.3-0.5c-0.2-0.2-0.5-0.4-0.8-0.6
				c-0.3-0.2-0.6-0.3-0.9-0.4c-0.2-0.1-0.4-0.1-0.6,0c-0.2,0-0.4,0.1-0.6,0.2c-0.2,0.1-0.3,0.2-0.4,0.4c-0.1,0.1-0.2,0.3-0.3,0.5
				c-0.1,0.4-0.1,0.8,0.2,1.2c0.1,0.1,0.2,0.2,0.2,0.3C392.6,315.8,392.8,316,393.1,316L393.1,316z"/>
		</g>
	</g>
</g>
<g id="Calque_6">
	<g>
		<g>
			<path class="st8" d="M387.9,304c0.6,1.6,1.5,3,2.8,4.1c0.6,0.5,1.3,1,2.1,1.4c0.4,0.2,0.8,0.4,1.3,0.5c0.1,0,0.2,0.1,0.2,0.1
				c0.2,0.1,0.2,0.1,0,0c0.1,0.1,0.1,0.1,0,0c-0.3-0.3-0.3-0.7-0.1-1.1c0.1-0.1,0.1-0.1,0,0c-0.1,0.1-0.1,0.1-0.2,0.2
				c-0.1,0.1-0.3,0.3-0.4,0.4c0,0-0.5,0.4-0.3,0.3c-0.2,0.1-0.3,0.2-0.5,0.3c-0.7,0.5-1.1,0.7-2,0.8c0.3,0-0.3,0-0.3,0
				c-0.1,0-0.6-0.1-0.3,0c-0.4-0.1-0.8-0.2-1.2-0.4c-0.9-0.3-1.7-0.6-2.7-0.7c-0.8-0.1-1.5,0.7-1.5,1.5c0,0.9,0.7,1.4,1.5,1.5
				c0,0,0.3,0,0.1,0c-0.2,0,0.2,0,0.2,0c0.2,0,0.3,0.1,0.5,0.1c0.4,0.1,0.8,0.3,1.1,0.4c0.7,0.3,1.5,0.5,2.3,0.5
				c1.6,0,3.1-0.6,4.4-1.5c0.6-0.5,1.2-0.9,1.7-1.5c0.8-0.9,1-2,0.1-2.9c-0.5-0.6-1.3-0.8-2-1c-0.3-0.1,0.1,0.1-0.2-0.1
				c-0.1-0.1-0.3-0.1-0.4-0.2c-0.3-0.2-0.6-0.3-0.8-0.5c-0.1-0.1,0,0,0,0c-0.1-0.1-0.2-0.1-0.3-0.2c-0.1-0.1-0.3-0.3-0.4-0.4
				c-0.1-0.1-0.2-0.2-0.3-0.4c-0.1-0.1-0.4-0.4-0.2-0.2c-0.2-0.3-0.4-0.6-0.6-0.9c-0.1-0.1-0.2-0.3-0.2-0.4c0,0-0.1-0.3-0.1-0.1
				c0.1,0.2-0.1-0.2-0.1-0.2c-0.3-0.7-1-1.3-1.8-1C388.2,302.4,387.6,303.2,387.9,304L387.9,304z"/>
		</g>
	</g>
	<g>
		<g>
			<path class="st8" d="M393.1,310.7c-0.5,1-0.4,2.1,0.4,3c0.5,0.6,1.1,1,1.7,1.4c0.3,0.2,0.6,0.4,0.9,0.6c0.2,0.1,0.3,0.2,0.5,0.4
				c-0.2-0.2,0,0.1,0.1,0.1c-0.1-0.1-0.2-0.3-0.2-0.5c0.1-0.4,0.2-0.5,0-0.3c0.1-0.1,0.1-0.1,0,0c0,0-0.1,0.1-0.1,0.1
				c-0.2,0.2-0.4,0.4-0.7,0.6c-0.1,0.1-0.1,0.1,0.1,0c-0.1,0-0.1,0.1-0.2,0.1c-0.1,0.1-0.3,0.2-0.4,0.3c-0.2,0.1-0.5,0.3-0.8,0.4
				c-0.4,0.2,0.3-0.1-0.1,0c-0.2,0.1-0.3,0.1-0.5,0.2c-0.3,0.1-0.6,0.2-0.8,0.2c0,0-0.5,0.1-0.3,0.1c0.2,0-0.2,0-0.3,0
				c-0.3,0-0.6,0-0.9,0c-0.2,0-0.3,0-0.5,0c0.4,0,0,0-0.1,0c-0.3-0.1-0.6-0.1-0.9-0.2c-0.7-0.2-1.7,0.3-1.8,1
				c-0.2,0.8,0.2,1.6,1,1.8c2.7,0.9,5.8,0.3,8.1-1.3c0.6-0.5,1.3-1,1.7-1.7c0.6-1,0.4-2.2-0.4-3c-0.6-0.6-1.4-1-2.1-1.5
				c-0.2-0.1-0.3-0.2-0.5-0.4c-0.1-0.1-0.1-0.1,0,0c-0.1-0.1-0.1-0.1-0.2-0.2c-0.1-0.1-0.1-0.1-0.2-0.2c0.1,0.1,0.1,0.1,0,0
				c0.1,0.2,0.1,0.3,0,0.5c0.4-0.7,0.2-1.7-0.5-2.1C394.5,309.8,393.5,310,393.1,310.7L393.1,310.7z"/>
		</g>
	</g>
	<g>
		<g>
			<path class="st8" d="M386.3,320.6c3.2,3.8,8,7.9,13.4,7.5c1.4-0.1,2.9-0.5,4.1-1.3c0.9-0.6,2-1.5,1.7-2.7c-0.2-0.7-0.8-1-1.4-1.3
				c-0.9-0.5-1.8-0.9-2.6-1.5c-1.5-1-2.7-2.4-3.3-4.1c-0.6-1.8-3.5-1.1-2.9,0.8c1,3.1,3.4,5.3,6.1,6.8c0.3,0.2,0.7,0.4,1,0.5
				c0.2,0.1,0.3,0.2,0.5,0.3c0.5,0.2,0.1,0.3-0.3-0.4c-0.1-0.3-0.2-0.9-0.2-1c0-0.1,0.2-0.4,0.1-0.2c0.3-0.4,0.1-0.1,0,0
				c-0.1,0-0.1,0.1-0.2,0.1c-0.2,0.2,0.3-0.2,0,0c-0.2,0.1-0.4,0.2-0.5,0.3c-0.1,0.1-0.2,0.1-0.3,0.2c-0.3,0.2,0.2,0-0.1,0.1
				c-0.2,0.1-0.5,0.2-0.7,0.2c-0.1,0-0.3,0.1-0.4,0.1c-0.1,0-0.2,0-0.2,0c-0.4,0.1,0.3,0-0.1,0c-1.6,0.2-2.9-0.1-4.4-0.8
				c-2.8-1.3-5.1-3.5-7-5.9c-0.5-0.6-1.6-0.5-2.1,0C385.7,319.1,385.8,319.9,386.3,320.6L386.3,320.6z"/>
		</g>
	</g>
</g>
<g id="Calque_8">
	<path class="st8" d="M292.8,315.4c0.3,1.1,0.3,2.4,0.1,3.5c0,0.1,0,0.2,0,0.2c-0.2-0.1-0.5-0.2-0.7-0.3c-0.1,0-0.2-0.1-0.3-0.2
		c-0.5-0.3-1-0.6-1.4-0.9c-1.2-0.8-2.4-1.6-3.5-2.5l0,0c-0.1-0.1-0.3-0.2-0.5-0.3c-0.3-0.2-0.7-0.2-1-0.3c-1-0.1-2,0.5-2.5,1.4
		c-0.1,0.3-0.2,0.5-0.3,0.7c-0.1,0.2-0.2,0.5-0.3,0.7c-0.2,0.4-0.3,0.9-0.5,1.4c-0.3,0.9-0.5,1.9-0.7,2.8c-0.3,1.9-0.3,4.1,0.3,6.2
		c0.6,2.1,2.1,4.1,3.8,5.4c1.7,1.3,3.7,2,5.5,2.5c2.5,0.6,4.9,0.8,7.3,0.8c0.8,0,1.6,0,2.4-0.1c0.4,0,0.8,0,1.2-0.1
		c0.3,0,0.6,0,1-0.1c0.5,0,0.9-0.1,1.4-0.1c0.1,0,0.2,0,0.3,0c0.2,0,0.4-0.1,0.6-0.1c0.2,0,0.5-0.1,0.7-0.1c0.1,0,0.3,0,0.4-0.1
		c0.3,0,0.6-0.1,0.9-0.2c0.1,0,0.2,0,0.2,0c0.4-0.1,0.7-0.1,1.1-0.2c0.1,0,0.1,0,0.2,0c0.4-0.1,0.8-0.2,1.2-0.3c0.1,0,0.1,0,0.2-0.1
		c0.4-0.1,0.8-0.2,1.1-0.3c0.1,0,0.2-0.1,0.3-0.1c0.3-0.1,0.6-0.2,1-0.3l0,0c0,0,0.1,0,0.1,0c2.6-1,5.1-2.5,7.2-4.4
		c0.8-0.7,1.5-1.4,2.1-2.2c0.7-0.9,1.3-1.8,1.8-2.7c0.4-0.7,0.8-1.4,1.1-2.1c0.8-1.8,1.3-3.6,1.7-5.4c0.7-3.6,0.8-7.3,0.5-10.8
		c-0.1-1.8-0.4-3.5-0.7-5.3c-0.2-0.9-0.3-1.7-0.6-2.6c0-0.1-0.1-0.2-0.1-0.4h0c-0.2-0.6-0.3-1.2-0.5-1.9c0-0.7,0-1.5-0.1-2.2
		c0-0.9,0-1.8-0.2-2.6l-0.3-2.6c0-0.5-0.2-0.9-0.2-1.4c-0.1-0.2-0.1-0.4-0.1-0.6l0,0c0-0.2-0.1-0.4-0.1-0.6
		c-0.1-0.7-0.3-1.4-0.5-2.1c-0.3-1-0.6-2-0.9-3c-0.3-0.8-0.6-1.6-0.9-2.5c-0.1-0.3-0.2-0.7-0.4-1v0c0-0.1,0-0.1-0.1-0.2l-0.5-1.2
		c-1.4-3.2-3.1-6.2-5.1-9c-0.2-0.3-0.4-0.6-0.7-0.9c-0.3-0.4-0.6-0.8-0.9-1.2c-0.5-0.7-1.1-1.3-1.7-1.9c-1.2-1.2-2.5-2.4-4-3.3
		c-0.3-0.2-0.6-0.2-0.9,0c-0.4,0.2-0.5,0.8-0.3,1.2l0,0c1.5,2.5,3,4.9,4.4,7.3c0.2,0.3,0.4,0.7,0.6,1c1.6,2.8,3,5.7,4.1,8.7l0.4,1.1
		c0.1,0.4,0.2,0.8,0.4,1.1c0.2,0.8,0.5,1.5,0.7,2.3c0.3,1.2,0.7,2.5,0.9,3.8c0.1,0.3,0.1,0.6,0.2,0.9c0.1,0.8,0.3,1.5,0.4,2.3
		l0.3,2.3c0.1,0.8,0.1,1.6,0.2,2.4c0,0.8,0.1,1.6,0.1,2.4l0,0.2c0,0.2,0,0.4,0.1,0.6c0.1,0.2,0.1,0.4,0.2,0.6h0
		c0.2,0.5,0.3,1.1,0.4,1.6c0.2,0.8,0.4,1.6,0.5,2.3c0.3,1.6,0.5,3.2,0.7,4.7c0.3,3.2,0.2,6.3-0.4,9.3c-0.1,0.6-0.3,1.2-0.4,1.8
		c-0.6,2.3-1.7,4.5-3.1,6.3c-0.2,0.2-0.3,0.4-0.5,0.6c-0.1,0.1-0.1,0.1-0.2,0.2l-0.2,0.2c0,0,0,0,0,0c-0.2,0.2-0.4,0.4-0.6,0.6
		c-0.5,0.5-1.1,1-1.7,1.3c-1.2,0.9-2.5,1.5-3.9,2.1c-0.7,0.2-1.4,0.5-2.2,0.7c-0.8,0.2-1.5,0.4-2.2,0.5l-2.3,0.3l-2.4,0.2
		c-0.7,0-1.5,0.1-2.2,0.1c-0.7,0-1.5,0-2.2,0c-1.7-0.1-3.3-0.2-4.9-0.6c-1.4-0.3-2.7-0.9-3.7-1.6c-0.5-0.4-0.9-0.8-1.2-1.2
		c-0.2-0.2-0.3-0.5-0.4-0.7c-0.1-0.3-0.2-0.5-0.3-0.8c-0.4-1.1-0.4-2.4-0.2-3.8c0-0.3,0.1-0.6,0.2-0.9c0.3,0.2,0.6,0.4,0.9,0.7
		c0.7,0.5,1.4,0.9,2.1,1.3c0.8,0.4,1.5,0.8,2.7,1.2c0.4,0.1,0.9,0.2,1.6,0.2h0c0,0,0,0,0,0c0.2,0,0.5,0,0.7-0.1
		c0.3-0.1,0.6-0.1,0.9-0.3c0.2-0.1,0.3-0.2,0.5-0.3c0.1-0.1,0.2-0.2,0.4-0.3c0.2-0.2,0.4-0.4,0.5-0.6c0.1-0.2,0.2-0.3,0.4-0.5
		c0.4-0.6,0.6-1.2,0.8-1.7c0.2-0.5,0.3-1,0.3-1.5c0.3-1.9,0.2-3.8-0.2-5.6c-0.4-1.8-1.2-3.6-2.4-5.2c-0.6-0.8-1.3-1.5-2.1-2.1
		c-0.4-0.3-0.8-0.6-1.2-0.8l-0.6-0.3l-0.5-0.2c-0.3-0.1-0.5-0.3-0.8-0.4c-0.9-0.5-1.8-1.1-2.5-1.8c-1-0.9-2-1.9-2.8-3
		c-3.5-4.3-5.5-9.7-5.9-15.3c-0.3-5.7,0.5-11.5,1.4-17.5v0c0-0.2-0.1-0.4-0.3-0.6c-0.1,0-0.1-0.1-0.2-0.1c-0.2,0-0.4,0.1-0.6,0.3
		c-3.2,5.3-4.9,11.7-4.7,18.1c0.1,3.2,0.6,6.5,1.7,9.6c1,3.1,2.6,6.1,4.6,8.7c1,1.3,2.1,2.6,3.3,3.7c1.3,1.2,2.8,2.2,4.2,3l0.5,0.3
		l0.4,0.2c0.2,0.2,0.5,0.3,0.7,0.5c0.1,0.1,0.3,0.2,0.4,0.4c0.2,0.2,0.5,0.5,0.7,0.8C292.1,313.2,292.5,314.2,292.8,315.4z
		 M321.9,284c0-0.1-0.1-0.2-0.1-0.3c0-0.1-0.1-0.2-0.1-0.3c-0.1-0.2-0.1-0.4-0.2-0.6c0.1,0.2,0.1,0.4,0.2,0.6
		C321.8,283.7,321.9,283.9,321.9,284z"/>
	<path class="st8" d="M292.8,315.4c0.3,1.1,0.3,2.4,0.1,3.5c0,0.1,0,0.2,0,0.2c-0.2-0.1-0.5-0.2-0.7-0.3c-0.1,0-0.2-0.1-0.3-0.2
		c-0.5-0.3-1-0.6-1.4-0.9c-1.2-0.8-2.4-1.6-3.5-2.5l0,0c-0.1-0.1-0.3-0.2-0.5-0.3c-0.3-0.2-0.7-0.2-1-0.3c-1-0.1-2,0.5-2.5,1.4
		c-0.2,0.3-0.2,0.5-0.3,0.7c-0.1,0.2-0.2,0.5-0.3,0.7c-0.2,0.4-0.3,0.9-0.5,1.4c-0.3,0.9-0.5,1.9-0.7,2.8c-0.3,1.9-0.3,4.1,0.3,6.2
		c0.6,2.1,2.1,4.1,3.8,5.4c1.7,1.3,3.7,2,5.5,2.5c2.5,0.6,4.9,0.8,7.3,0.8c0.8,0,1.6,0,2.4,0c0.4,0,0.8,0,1.2-0.1
		c0.3,0,0.6-0.1,1-0.1c0.5,0,0.9-0.1,1.4-0.1c0.1,0,0.2,0,0.2,0c0.2,0,0.4-0.1,0.7-0.1c0.2,0,0.5-0.1,0.7-0.1c0.1,0,0.3,0,0.4-0.1
		c0.3,0,0.6-0.1,1-0.1c0.1,0,0.2,0,0.2-0.1c0.4-0.1,0.7-0.1,1.1-0.2c0.1,0,0.1,0,0.2,0c0.4-0.1,0.8-0.2,1.2-0.3c0.1,0,0.1,0,0.2-0.1
		c0.4-0.1,0.8-0.2,1.1-0.3c0.1,0,0.2-0.1,0.3-0.1c0.3-0.1,0.7-0.2,1-0.3c0,0,0,0,0.1,0c0.8-0.3,1.6-0.7,2.4-1.1
		c0.2-0.1,0.5-0.3,0.8-0.4c0.1,0,0.2-0.1,0.2-0.1c0.3-0.2,0.7-0.4,1-0.6c0.3-0.2,0.6-0.4,0.8-0.6c0.7-0.5,1.4-1,2-1.6
		c0.8-0.7,1.5-1.4,2.1-2.2c0.7-0.9,1.3-1.8,1.8-2.7c0.4-0.7,0.8-1.4,1.1-2.1c0.2-0.4,0.3-0.8,0.5-1.3c0.3-0.8,0.5-1.6,0.8-2.4
		c0.2-0.6,0.3-1.1,0.4-1.7c0.5-2.6,0.7-5.3,0.6-7.9c0-1-0.1-1.9-0.2-2.9c0-0.2,0-0.3,0-0.5c0-0.1,0-0.2,0-0.4
		c-0.2-1.5-0.4-2.9-0.7-4.4c0-0.1,0-0.2,0-0.3c-0.2-0.8-0.3-1.6-0.5-2.3c0-0.1-0.1-0.2-0.1-0.4c-0.2-0.6-0.3-1.2-0.5-1.9
		c0-0.7,0-1.5-0.1-2.2c0-0.9,0-1.8-0.2-2.6l-0.3-2.6c0-0.2,0-0.4-0.1-0.6c0-0.2-0.1-0.3-0.1-0.4c0-0.1-0.1-0.2-0.1-0.4
		c-0.1-0.2-0.1-0.4-0.1-0.6l0,0c0-0.2-0.1-0.4-0.1-0.6c-0.1-0.7-0.3-1.4-0.5-2.1c-0.3-1-0.6-2-0.9-3c-0.1-0.2-0.1-0.4-0.2-0.5
		c-0.2-0.6-0.5-1.3-0.7-1.9c-0.1-0.3-0.2-0.7-0.4-1v0c0-0.1,0-0.1-0.1-0.2l-0.5-1.2c-1.4-3.2-3.1-6.2-5.1-9
		c-0.2-0.3-0.4-0.6-0.7-0.9c-0.3-0.4-0.6-0.8-0.9-1.2c-0.5-0.7-1.1-1.3-1.7-1.9c-1.2-1.2-2.5-2.4-4-3.3c-0.3-0.2-0.6-0.2-0.9,0
		c-0.4,0.2-0.5,0.8-0.3,1.2l0,0c1.5,2.5,3,4.9,4.4,7.3c0.2,0.3,0.4,0.7,0.6,1c1.6,2.8,3,5.7,4.1,8.7l0.4,1.1
		c0.1,0.4,0.2,0.8,0.4,1.1c0.2,0.8,0.5,1.5,0.7,2.3c0.3,1.2,0.7,2.5,0.9,3.8c0.1,0.3,0.1,0.6,0.2,0.9c0.1,0.8,0.3,1.5,0.4,2.3
		l0.3,2.3c0.1,0.8,0.1,1.6,0.2,2.4c0,0.8,0.1,1.6,0.1,2.4l0,0.2c0,0.2,0,0.4,0.1,0.6c0.1,0.2,0.1,0.4,0.2,0.6
		c0.2,0.5,0.3,1.1,0.4,1.6c0.2,0.8,0.3,1.6,0.5,2.3c0,0,0,0.1,0,0.1c0,0,0,0.1,0,0.1c0.1,0.4,0.2,0.9,0.2,1.3
		c0.1,0.8,0.2,1.7,0.3,2.5c0,0.2,0.1,0.5,0.1,0.7c0.3,3.2,0.2,6.3-0.4,9.3c0,0,0,0,0,0c-0.1,0.6-0.3,1.2-0.4,1.7
		c-0.1,0.3-0.1,0.5-0.2,0.8c-0.6,2-1.6,3.9-2.9,5.5c-0.2,0.2-0.3,0.4-0.5,0.6c-0.1,0.1-0.1,0.1-0.2,0.2l-0.2,0.2c0,0,0,0,0,0
		c-0.2,0.2-0.4,0.4-0.6,0.6c-0.5,0.5-1.1,1-1.7,1.3c-1.2,0.9-2.5,1.5-3.9,2.1c-0.1,0-0.2,0.1-0.3,0.1c0,0-0.1,0-0.1,0
		c-0.6,0.2-1.2,0.4-1.8,0.6c-0.8,0.2-1.5,0.4-2.2,0.5l-2.3,0.3l-2.4,0.2c-0.7,0-1.5,0.1-2.2,0.1c-0.7,0-1.5,0-2.2,0
		c-1.7-0.1-3.3-0.2-4.9-0.6c-1.4-0.3-2.7-0.9-3.7-1.6c-0.5-0.4-0.9-0.8-1.2-1.2c-0.2-0.2-0.3-0.5-0.4-0.7c-0.1-0.3-0.2-0.5-0.3-0.8
		c-0.4-1.1-0.4-2.4-0.2-3.8c0-0.3,0.1-0.6,0.2-0.9c0.3,0.2,0.6,0.4,0.9,0.7c0.7,0.5,1.4,0.9,2.1,1.3c0.8,0.4,1.5,0.8,2.7,1.2
		c0.4,0.1,0.8,0.2,1.4,0.2c0.1,0,0.2,0,0.2,0c0.2,0,0.5,0,0.7-0.1c0.3-0.1,0.6-0.1,0.9-0.3c0.2-0.1,0.3-0.2,0.5-0.3
		c0.1-0.1,0.2-0.2,0.4-0.3c0.2-0.2,0.4-0.4,0.5-0.6c0.1-0.2,0.2-0.3,0.4-0.5c0.4-0.6,0.6-1.2,0.8-1.7c0.2-0.5,0.3-1,0.3-1.5
		c0.3-1.9,0.2-3.8-0.2-5.6c-0.4-1.8-1.2-3.6-2.4-5.2c-0.6-0.8-1.3-1.5-2.1-2.1c-0.4-0.3-0.8-0.6-1.2-0.8l-0.6-0.3l-0.5-0.2
		c-0.3-0.1-0.5-0.3-0.8-0.4c-0.9-0.5-1.8-1.1-2.5-1.8c-1-0.9-2-1.9-2.8-3c-3.5-4.3-5.5-9.7-5.9-15.3c-0.3-5.7,0.5-11.5,1.4-17.5v0
		c0-0.2-0.1-0.4-0.3-0.6c-0.1,0-0.1-0.1-0.2-0.1c-0.2,0-0.4,0.1-0.6,0.3c-3.2,5.3-4.9,11.7-4.7,18.1c0.1,3.2,0.6,6.5,1.7,9.6
		c1,3.1,2.6,6.1,4.6,8.7c1,1.3,2.1,2.6,3.3,3.7c1.3,1.2,2.8,2.2,4.2,3l0.5,0.3l0.4,0.2c0.2,0.2,0.5,0.3,0.7,0.5
		c0.2,0.1,0.3,0.2,0.4,0.4c0.2,0.2,0.5,0.5,0.7,0.8C292.1,313.2,292.5,314.2,292.8,315.4z M321.9,284c0-0.1-0.1-0.2-0.1-0.3
		c0-0.1-0.1-0.2-0.1-0.3c-0.1-0.1-0.1-0.3-0.2-0.5c0,0.2,0.1,0.3,0.2,0.5C321.8,283.7,321.9,283.9,321.9,284z"/>
	<g>
		<path class="st8" d="M318.9,289.8l0.2,1.9l4.1,0.5l-0.3-3.4l-4.2-0.2C318.8,289,318.9,289.4,318.9,289.8z"/>
		<path class="st8" d="M326.5,305.8C326.5,305.8,326.5,305.8,326.5,305.8c0,0-2.9-0.7-5.6-2.3c0,0.1,0,0.2,0,0.3
			c0.1,0.8,0.2,1.7,0.3,2.5c0,0.1,0,0.1,0,0.2c2.8,1.6,5.4,2.5,5.4,2.5L326.5,305.8z"/>
	</g>
</g>
</svg>
