<?xml version="1.0" encoding="utf-8"?>
<!-- Generator: Adobe Illustrator 25.4.1, SVG Export Plug-In . SVG Version: 6.00 Build 0)  -->
<svg version="1.1" id="Calque_1" xmlns="http://www.w3.org/2000/svg" xmlns:xlink="http://www.w3.org/1999/xlink" x="0px" y="0px"
	 viewBox="0 0 500 500" style="enable-background:new 0 0 500 500;" xml:space="preserve">
<style type="text/css">
	.st0{fill:url(#SVGID_1_);}
	.st1{fill:#EDEDED;}
	.st2{fill:#FFFFFF;}
	.st3{fill:#D38451;}
</style>
<g>
	
		<linearGradient id="SVGID_1_" gradientUnits="userSpaceOnUse" x1="62.0663" y1="252.236" x2="437.8663" y2="252.236" gradientTransform="matrix(1 0 0 -1 0 502)">
		<stop  offset="0" style="stop-color:#F0B774"/>
		<stop  offset="0.3059" style="stop-color:#D38451"/>
		<stop  offset="0.6454" style="stop-color:#D38451"/>
		<stop  offset="1" style="stop-color:#F0B774"/>
	</linearGradient>
	<circle class="st0" cx="250" cy="249.8" r="187.9"/>
	<g>
		<path class="st1" d="M321.3,172.2c-1.7-12-12-21.3-24.5-21.3h-24.8L321.6,349h17.6c3.8,0,6.7-3.3,6.1-7.1L321.3,172.2z"/>
		<path class="st2" d="M296.6,172.2c-1.7-12-12-21.3-24.5-21.3h-68.9c-12.5,0-22.8,9.2-24.5,21.3l-24,169.7
			c-0.5,3.7,2.4,7.1,6.1,7.1h160.8L296.6,172.2z"/>
		<circle class="st3" cx="250" cy="299.5" r="6.2"/>
		<circle class="st3" cx="274.8" cy="324.3" r="6.2"/>
		<circle class="st3" cx="250" cy="175.7" r="6.2"/>
		<circle class="st3" cx="190.8" cy="324.3" r="6.2"/>
	</g>
</g>
</svg>
