<?xml version="1.0" encoding="iso-8859-1"?>
<!-- Generator: Adobe Illustrator 19.0.0, SVG Export Plug-In . SVG Version: 6.00 Build 0)  -->
<svg version="1.1" id="Layer_1" xmlns="http://www.w3.org/2000/svg" xmlns:xlink="http://www.w3.org/1999/xlink" x="0px" y="0px"
	 viewBox="0 0 512 512" style="enable-background:new 0 0 512 512;" xml:space="preserve">
<path style="fill:#F7BE15;" d="M256,512L256,512C115.2,512,0,396.8,0,256l0,0C0,115.2,115.2,0,256,0l0,0c140.8,0,256,115.2,256,256
	l0,0C512,396.8,396.8,512,256,512z"/>
<path style="fill:#DB8E1F;" d="M512,256L512,256c0-16.892-1.7-33.4-4.86-49.4l-122.576-47.864l-63.6-17.528l-66.128,17.528
	l-65.72-16.992l-64.052,16.992V361.26v13.592l117.588,136.56c4.892,0.308,9.816,0.504,14.776,0.548
	C397.572,511.184,512,396.324,512,256z"/>
<g>
	<polyline style="fill:#DACEB6;" points="187.5,355.692 124.86,372.104 124.86,158.072 187.5,141.66 	"/>
	<g>
		<polyline style="fill:#F4EDDD;" points="250.5,158.072 187.864,141.66 187.864,173.968 187.864,197.22 187.864,355.692 
			250.5,372.104 		"/>
		<polyline style="fill:#F4EDDD;" points="313.912,206.964 313.912,141.66 376.552,158.072 376.552,372.104 313.912,355.692 
			313.912,300.644 		"/>
	</g>
	<polygon style="fill:#DACEB6;" points="313.912,203.888 313.912,296.372 313.912,355.692 251.272,372.104 251.272,289.536 
		251.272,245.94 251.272,158.072 313.912,141.66 	"/>
	<g>
		<g>
			<path style="fill:#474341;" d="M125.596,375.94l-3.648-2.812V159.1l2.172-2.812l62.64-16.412c1.58-0.4,3.148,0.528,3.552,2.076
				c0.408,1.552-0.52,3.144-2.076,3.548l-60.468,15.844V369.36l58.996-15.456c1.58-0.408,3.148,0.524,3.552,2.076
				c0.408,1.556-0.52,3.144-2.076,3.548L125.596,375.94z"/>
			<path style="fill:#474341;" d="M250.5,376.036c-0.24,0-0.488-0.032-0.736-0.096l-62.64-16.412l-2.172-2.812V198.248
				c0-1.608,1.304-2.908,2.908-2.908s2.908,1.3,2.908,2.908v156.228l60.468,15.844c1.556,0.408,2.484,1.996,2.076,3.552
				C252.972,375.172,251.792,376.036,250.5,376.036"/>
			<path style="fill:#474341;" d="M187.86,177.9c-1.608,0-2.908-1.3-2.908-2.908v-32.304l3.648-2.816l62.64,16.412
				c1.552,0.408,2.484,1.996,2.076,3.552c-0.404,1.548-1.96,2.484-3.552,2.076l-58.992-15.456v28.536
				C190.768,176.6,189.468,177.9,187.86,177.9"/>
			<path style="fill:#474341;" d="M251.268,249.872c-1.608,0-2.908-1.3-2.908-2.908V159.1l2.172-2.812l62.64-16.412l3.648,2.816
				v62.228c0,1.608-1.304,2.908-2.908,2.908s-2.908-1.3-2.908-2.908v-58.464l-56.824,14.888v85.624
				C254.18,248.572,252.876,249.872,251.268,249.872"/>
			<path style="fill:#474341;" d="M252.008,375.94l-3.648-2.812V290.56c0-1.604,1.304-2.904,2.908-2.904
				c1.608,0,2.908,1.3,2.908,2.904v78.8L311,354.472v-57.076c0-1.608,1.3-2.908,2.908-2.908s2.908,1.3,2.908,2.908v59.32
				l-2.172,2.812L252.008,375.94z"/>
			<path style="fill:#474341;" d="M375.812,375.94l-62.64-16.412L311,356.716v-55.044c0-1.608,1.304-2.904,2.908-2.904
				c1.608,0,2.908,1.3,2.908,2.904v52.8l56.824,14.888V161.344l-56.824-14.888v61.536c0,1.608-1.3,2.908-2.908,2.908
				S311,209.6,311,207.992v-65.304l3.648-2.816l62.64,16.412l2.172,2.812v214.032L375.812,375.94z"/>
		</g>
		<g>
			<path style="fill:#E9495B;" d="M326.676,291.668c10.048,11.116,20.096,22.232,30.144,33.348c2.512,2.784,6.616-1.34,4.112-4.112
				c-10.048-11.116-20.096-22.232-30.144-33.348C328.272,284.772,324.168,288.896,326.676,291.668"/>
			<path style="fill:#E9495B;" d="M332.196,324.004c9.368-11.012,18.736-22.028,28.104-33.04c2.412-2.832-1.684-6.968-4.112-4.112
				c-9.368,11.012-18.736,22.028-28.104,33.04C325.672,322.728,329.764,326.86,332.196,324.004"/>
		</g>
		<path style="fill:#8B7A5C;" d="M209.536,310.268c-2.484,0-4.784-0.644-6.64-1.868c-0.948-0.62-1.208-1.892-0.588-2.84
			c0.628-0.948,1.904-1.208,2.84-0.584c1.168,0.772,2.728,1.192,4.392,1.192h0.008c0.888,0,1.768-0.116,2.62-0.344
			c0.74-0.2,1.448-0.464,2.14-0.78c1.02-0.472,2.248-0.024,2.72,1.004c0.472,1.028,0.024,2.248-1.004,2.72
			c-0.9,0.412-1.832,0.756-2.796,1.016c-1.196,0.32-2.432,0.48-3.676,0.48h-0.016V310.268z M221.884,304.404
			c-0.58,0-1.16-0.248-1.564-0.728c-0.736-0.864-0.624-2.16,0.24-2.892l1.328,1.568l-1.044-1.808
			c2.692-2.304,5.324-4.78,8.056-7.576c0.788-0.808,2.088-0.824,2.9-0.032c0.808,0.792,0.824,2.092,0.032,2.9
			c-2.82,2.884-5.536,5.44-8.308,7.816l-0.312,0.268C222.828,304.24,222.356,304.404,221.884,304.404 M200.196,301.832
			c-0.984,0-1.852-0.712-2.02-1.716c-0.092-0.544-0.16-1.088-0.22-1.624c-0.208-1.916-0.312-3.884-0.312-5.852
			c-0.004-1.548,0.064-3.088,0.188-4.628c0.088-1.128,1.1-1.968,2.208-1.88c1.128,0.092,1.968,1.08,1.88,2.212
			c-0.116,1.42-0.176,2.852-0.172,4.288c0,1.828,0.096,3.644,0.288,5.408c0.052,0.46,0.112,0.932,0.188,1.4
			c0.184,1.116-0.568,2.176-1.688,2.36C200.42,301.824,200.308,301.832,200.196,301.832 M235.9,290.496
			c-0.484,0-0.972-0.172-1.364-0.52c-0.852-0.752-0.928-2.048-0.172-2.896c2.556-2.872,5.036-5.82,7.48-8.804
			c0.728-0.876,2.02-1,2.888-0.28c0.872,0.716,1,2.012,0.284,2.884c-2.484,3.02-4.996,6.012-7.584,8.924
			C237.024,290.26,236.464,290.496,235.9,290.496 M307.496,290.444c-0.34,0-0.688-0.024-1.04-0.08
			c-3.248-0.504-5.588-3.292-6.256-7.452c-0.184-1.116,0.576-2.172,1.696-2.352c1.124-0.192,2.176,0.58,2.352,1.7
			c0.18,1.112,0.816,3.736,2.84,4.048c0.744,0.12,1.488-0.064,2.492-0.52c1.02-0.46,2.248-0.012,2.712,1.02
			c0.468,1.032,0.012,2.248-1.02,2.716C309.908,290.144,308.672,290.444,307.496,290.444 M317.524,285.736
			c-0.708,0-1.404-0.372-1.78-1.032c-0.564-0.98-0.224-2.236,0.76-2.8l10.092-5.776c0.972-0.556,2.232-0.228,2.796,0.76
			c0.564,0.984,0.224,2.24-0.76,2.804l-10.092,5.776C318.22,285.648,317.872,285.736,317.524,285.736 M201.08,282.192
			c-0.144,0-0.284-0.012-0.432-0.044c-1.104-0.236-1.816-1.324-1.58-2.428c0.768-3.648,1.852-7.388,3.3-11.436
			c0.38-1.064,1.556-1.624,2.624-1.24c1.064,0.384,1.62,1.556,1.24,2.624c-1.392,3.868-2.42,7.436-3.148,10.892
			C202.876,281.532,202.024,282.192,201.08,282.192 M352.244,281.988c-0.372,0-0.748-0.1-1.084-0.312
			c-0.96-0.596-1.256-1.864-0.652-2.824c0.264-0.424,0.392-0.872,0.392-1.364c0.004-0.572-0.172-1.192-0.508-1.808
			c-0.544-0.992-0.18-2.244,0.816-2.788c0.98-0.544,2.236-0.176,2.78,0.82c0.668,1.224,1.016,2.528,1.012,3.784
			c0,1.26-0.34,2.444-1.016,3.528C353.596,281.644,352.928,281.988,352.244,281.988 M302.984,276.592
			c-0.172,0-0.348-0.02-0.524-0.068c-1.1-0.292-1.748-1.412-1.46-2.508c0.96-3.62,2.572-7.264,4.916-11.136
			c0.588-0.968,1.856-1.268,2.816-0.692c0.968,0.588,1.28,1.848,0.692,2.82c-2.14,3.532-3.596,6.824-4.46,10.06
			C304.72,275.988,303.892,276.592,302.984,276.592 M334.684,275.916c-0.716,0-1.416-0.376-1.792-1.048
			c-0.552-0.988-0.2-2.24,0.788-2.792c3.712-2.08,7.712-4,12.108-3.668c1.128,0.088,1.972,1.08,1.88,2.208
			c-0.088,1.132-1.076,1.984-2.208,1.88c-3.076-0.248-6.108,1.1-9.776,3.156C335.368,275.832,335.024,275.916,334.684,275.916
			 M248.556,275.304c-0.452,0-0.904-0.148-1.288-0.456c-0.88-0.708-1.02-2-0.312-2.88l0.788-0.98
			c2.172-2.704,4.344-5.404,6.552-8.08c0.72-0.876,2.012-0.992,2.888-0.276c0.872,0.72,0.996,2.016,0.276,2.888
			c-2.196,2.66-4.36,5.352-6.52,8.036l-0.784,0.976C249.752,275.04,249.156,275.304,248.556,275.304 M207.312,263.464
			c-0.272,0-0.548-0.056-0.812-0.168c-1.04-0.452-1.52-1.656-1.068-2.696c1.368-3.156,2.944-6.536,4.976-10.628
			c0.508-1.016,1.74-1.428,2.748-0.928c1.016,0.5,1.432,1.732,0.932,2.748c-2,4.028-3.552,7.344-4.888,10.432
			C208.86,263,208.108,263.464,207.312,263.464 M261.132,260.044c-0.48,0-0.956-0.164-1.352-0.504
			c-0.852-0.744-0.94-2.04-0.196-2.896l0.904-1.032c2.388-2.708,4.776-5.256,7.108-7.588c0.8-0.8,2.1-0.8,2.9,0
			c0.804,0.8,0.804,2.1,0,2.9c-2.272,2.272-4.6,4.76-6.924,7.392l-0.896,1.024C262.276,259.808,261.708,260.044,261.132,260.044
			 M312.284,259.288c-0.432,0-0.868-0.136-1.24-0.416c-0.904-0.684-1.08-1.972-0.396-2.876c1.88-2.484,3.868-4.916,5.844-7.324
			l1.48-1.808c0.716-0.88,2.012-1.012,2.888-0.292c0.88,0.716,1.004,2.008,0.292,2.884l-1.484,1.816
			c-1.94,2.368-3.9,4.756-5.748,7.2C313.516,259.008,312.904,259.288,312.284,259.288 M274.976,245.944
			c-0.568,0-1.132-0.236-1.536-0.692c-0.748-0.852-0.668-2.148,0.18-2.896c3.088-2.72,6.212-5.192,9.296-7.356
			c0.932-0.644,2.208-0.428,2.856,0.504c0.652,0.928,0.428,2.204-0.5,2.856c-2.96,2.072-5.972,4.452-8.936,7.072
			C275.944,245.776,275.464,245.944,274.976,245.944 M215.924,245.664c-0.316,0-0.632-0.072-0.936-0.224
			c-1.008-0.512-1.408-1.752-0.896-2.76l0.392-0.768c1.112-2.18,2.216-4.348,3.296-6.508c0.504-1.004,1-2.024,1.48-3.06
			c0.476-1.028,1.696-1.48,2.724-0.996c1.028,0.472,1.472,1.696,1,2.724c-0.5,1.076-1.012,2.136-1.54,3.176
			c-1.08,2.164-2.196,4.344-3.308,6.532l-0.392,0.768C217.388,245.256,216.668,245.664,215.924,245.664 M324.264,243.584
			c-0.336,0-0.672-0.08-0.984-0.252c-0.992-0.548-1.36-1.792-0.812-2.788c1.512-2.752,2.312-5.332,2.312-7.46
			c0.004-0.748-0.092-1.444-0.288-2.072c-0.336-1.084,0.272-2.232,1.356-2.564c1.084-0.332,2.232,0.272,2.564,1.356
			c0.32,1.028,0.476,2.136,0.472,3.292c0,2.844-0.948,6.024-2.816,9.424C325.688,243.2,324.984,243.584,324.264,243.584
			 M290.968,234.384c-0.712,0-1.412-0.376-1.788-1.044c-0.556-0.984-0.208-2.236,0.78-2.796c3.58-2.02,7.232-3.708,10.852-5.016
			c1.072-0.384,2.24,0.164,2.628,1.232c0.384,1.064-0.168,2.244-1.236,2.628c-3.404,1.228-6.848,2.82-10.228,4.728
			C291.656,234.296,291.312,234.384,290.968,234.384 M224.236,227.74c-0.228,0-0.464-0.036-0.692-0.12
			c-1.064-0.384-1.62-1.556-1.236-2.624c1.392-3.876,2.316-7.52,2.748-10.828c0.148-1.128,1.192-1.92,2.304-1.768
			c1.124,0.148,1.912,1.18,1.768,2.3c-0.476,3.604-1.472,7.532-2.956,11.684C225.868,227.22,225.08,227.74,224.236,227.74
			 M309.324,227.268c-0.944,0-1.8-0.66-2.004-1.624c-0.236-1.112,0.472-2.2,1.584-2.436c0.876-0.184,1.764-0.352,2.648-0.5
			c3.88-0.644,7.232-0.544,9.896,0.312c1.08,0.348,1.676,1.5,1.332,2.58c-0.348,1.076-1.504,1.668-2.58,1.324
			c-2.04-0.648-4.764-0.704-7.968-0.168c-0.828,0.136-1.656,0.296-2.476,0.468C309.612,227.256,309.468,227.268,309.324,227.268
			 M135.412,214.972c-0.56,0-1.116-0.228-1.52-0.676c-0.756-0.84-0.692-2.136,0.148-2.896c2.892-2.62,5.976-5.14,9.152-7.492
			c0.908-0.672,2.188-0.484,2.868,0.432c0.672,0.912,0.48,2.196-0.432,2.868c-3.068,2.272-6.044,4.704-8.84,7.232
			C136.396,214.8,135.908,214.972,135.412,214.972 M227.216,208.372c-1.024,0-1.916-0.772-2.036-1.82
			c-0.42-3.676-1.636-6.992-3.608-9.848l3.38-2.324c0.048,0.068,0.1,0.164,0.14,0.24c2.212,3.172,3.664,7.112,4.164,11.468
			c0.128,1.124-0.68,2.14-1.808,2.268C227.376,208.368,227.296,208.372,227.216,208.372 M151.116,203
			c-0.672,0-1.34-0.336-1.732-0.948c-0.608-0.952-0.328-2.224,0.624-2.832c3.32-2.12,6.772-4.1,10.256-5.88
			c1.008-0.508,2.24-0.112,2.76,0.896c0.516,1.008,0.116,2.244-0.896,2.76c-3.368,1.72-6.7,3.636-9.912,5.684
			C151.876,202.896,151.496,203,151.116,203 M168.572,193.76c-0.796,0-1.552-0.464-1.888-1.244c-0.444-1.04,0.036-2.248,1.076-2.692
			c3.464-1.484,7.04-2.824,10.632-3.984l0.444-0.144c1.092-0.352,2.236,0.252,2.58,1.328c0.344,1.08-0.252,2.236-1.332,2.58
			l-0.436,0.14c-3.468,1.12-6.928,2.416-10.272,3.852C169.116,193.708,168.844,193.76,168.572,193.76 M217.508,191.852
			c-0.412,0-0.824-0.124-1.184-0.376c-2.788-1.972-6.204-3.468-9.864-4.32c-1.108-0.256-1.792-1.36-1.536-2.464
			c0.256-1.1,1.356-1.8,2.464-1.532c4.176,0.972,8.084,2.688,11.308,4.968c0.924,0.652,1.14,1.932,0.488,2.856
			C218.784,191.548,218.152,191.852,217.508,191.852 M187.324,187.58c-0.944,0-1.8-0.656-2.004-1.62
			c-0.24-1.104,0.46-2.196,1.572-2.436c4.168-0.9,7.972-1.34,11.644-1.34l0.32,2.052l-0.04,2.052h-0.02
			c-3.648,0-7.168,0.408-11.04,1.244C187.612,187.568,187.464,187.58,187.324,187.58"/>
		<g>
			<path style="fill:#92BE33;" d="M272.244,187.036c1.716-1.48,3.384-3.008,5.008-4.592h-2.9c1.144,1.084,2.288,2.164,3.432,3.248
				c1.916,1.816,4.824-1.08,2.9-2.9l-3.428-3.248c-0.812-0.772-2.088-0.792-2.9,0c-1.624,1.58-3.292,3.108-5.008,4.588
				C267.34,185.864,270.252,188.756,272.244,187.036"/>
			<path style="fill:#92BE33;" d="M340.156,246.112c2.248-2.516,4.42-5.092,6.512-7.736h-2.9c1.484,1.824,2.972,3.648,4.46,5.472
				c1.668,2.048,4.556-0.872,2.9-2.9l-4.46-5.472c-0.644-0.792-2.26-0.808-2.9,0c-2.096,2.644-4.264,5.22-6.516,7.736
				C335.5,245.176,338.392,248.084,340.156,246.112"/>
			<path style="fill:#92BE33;" d="M328.764,190.904c2.248-2.516,4.42-5.092,6.512-7.736h-2.9l4.46,5.472
				c1.668,2.048,4.556-0.872,2.9-2.9l-4.46-5.472c-0.644-0.792-2.26-0.808-2.9,0c-2.096,2.644-4.264,5.22-6.516,7.736
				C324.108,189.968,327,192.876,328.764,190.904"/>
			<path style="fill:#92BE33;" d="M285.948,209.532c2.248-2.516,4.42-5.092,6.512-7.736h-2.9c1.484,1.824,2.972,3.648,4.46,5.472
				c1.668,2.048,4.556-0.872,2.9-2.9c-1.484-1.824-2.972-3.648-4.46-5.472c-0.644-0.792-2.26-0.808-2.9,0
				c-2.096,2.644-4.264,5.22-6.516,7.736C281.288,208.592,284.18,211.504,285.948,209.532"/>
			<path style="fill:#92BE33;" d="M272.244,276.996c1.716-1.48,3.384-3.008,5.008-4.592h-2.9c1.144,1.084,2.288,2.164,3.432,3.248
				c1.916,1.816,4.824-1.08,2.9-2.9l-3.428-3.248c-0.812-0.772-2.088-0.792-2.9,0c-1.624,1.58-3.292,3.108-5.008,4.588
				C267.34,275.824,270.252,278.716,272.244,276.996"/>
			<path style="fill:#92BE33;" d="M291.432,317.596c1.716-1.48,3.384-3.008,5.008-4.592h-2.9c1.144,1.084,2.288,2.164,3.432,3.248
				c1.916,1.816,4.824-1.08,2.9-2.9c-1.144-1.08-2.288-2.164-3.428-3.248c-0.812-0.772-2.088-0.792-2.9,0
				c-1.624,1.58-3.292,3.108-5.008,4.588C286.532,316.424,289.444,319.316,291.432,317.596"/>
			<path style="fill:#92BE33;" d="M220.904,329c1.716-1.48,3.384-3.008,5.008-4.592h-2.9c1.144,1.084,2.288,2.164,3.432,3.248
				c1.916,1.816,4.824-1.08,2.9-2.9c-1.144-1.08-2.288-2.164-3.428-3.248c-0.812-0.772-2.088-0.792-2.9,0
				c-1.624,1.58-3.292,3.108-5.008,4.588C216.004,327.828,218.916,330.72,220.904,329"/>
			<path style="fill:#92BE33;" d="M265.488,351.496c2.248-2.516,4.42-5.092,6.512-7.736h-2.9c1.484,1.824,2.972,3.648,4.46,5.472
				c1.668,2.048,4.556-0.872,2.9-2.9c-1.484-1.824-2.972-3.648-4.46-5.472c-0.644-0.792-2.26-0.808-2.9,0
				c-2.096,2.644-4.264,5.22-6.516,7.736C260.832,350.556,263.724,353.468,265.488,351.496"/>
			<path style="fill:#92BE33;" d="M167.336,226.904c1.716-1.48,3.384-3.008,5.008-4.592h-2.9l3.432,3.248
				c1.916,1.816,4.824-1.08,2.9-2.9c-1.144-1.08-2.288-2.164-3.428-3.248c-0.812-0.772-2.088-0.792-2.9,0
				c-1.624,1.58-3.292,3.108-5.008,4.588C162.436,225.732,165.348,228.624,167.336,226.904"/>
			<path style="fill:#92BE33;" d="M139.324,263.228c2.248-2.516,4.42-5.092,6.512-7.736h-2.9c1.484,1.824,2.972,3.648,4.46,5.472
				c1.668,2.048,4.556-0.872,2.9-2.9c-1.484-1.824-2.972-3.648-4.46-5.472c-0.644-0.792-2.26-0.808-2.9,0
				c-2.096,2.644-4.264,5.22-6.516,7.736C134.668,262.288,137.56,265.2,139.324,263.228"/>
			<path style="fill:#92BE33;" d="M157.632,174.264c2.248-2.516,4.42-5.092,6.512-7.736h-2.9l4.46,5.472
				c1.668,2.048,4.556-0.872,2.9-2.9c-1.484-1.824-2.972-3.648-4.46-5.472c-0.644-0.792-2.26-0.808-2.9,0
				c-2.096,2.644-4.264,5.22-6.516,7.736C152.976,173.328,155.868,176.24,157.632,174.264"/>
			<path style="fill:#92BE33;" d="M219.636,278.568c2.248-2.516,4.42-5.092,6.512-7.736h-2.9c1.484,1.824,2.972,3.648,4.46,5.472
				c1.668,2.048,4.556-0.872,2.9-2.9c-1.484-1.824-2.972-3.648-4.46-5.472c-0.644-0.792-2.26-0.808-2.9,0
				c-2.096,2.644-4.264,5.22-6.516,7.736C214.98,277.628,217.872,280.54,219.636,278.568"/>
			<path style="fill:#92BE33;" d="M163.12,308.544c2.248-2.516,4.42-5.092,6.512-7.736h-2.9c1.484,1.824,2.972,3.648,4.46,5.472
				c1.668,2.048,4.556-0.872,2.9-2.9c-1.484-1.824-2.972-3.648-4.46-5.472c-0.644-0.792-2.26-0.808-2.9,0
				c-2.096,2.644-4.264,5.22-6.516,7.736C158.464,307.604,161.352,310.516,163.12,308.544"/>
			<path style="fill:#92BE33;" d="M230.612,179.152c1.716-1.48,3.384-3.008,5.008-4.592h-2.9c1.144,1.084,2.288,2.164,3.432,3.248
				c1.916,1.816,4.824-1.08,2.9-2.9c-1.144-1.08-2.288-2.164-3.428-3.248c-0.812-0.772-2.088-0.792-2.9,0
				c-1.624,1.58-3.292,3.108-5.008,4.588C225.708,177.984,228.62,180.872,230.612,179.152"/>
		</g>
		<g>
			<path style="fill:#DACEB6;" d="M366.412,219.256c-1.124,0-2.036-0.912-2.036-2.036v-13.012c0-1.124,0.912-2.036,2.036-2.036
				s2.036,0.912,2.036,2.036v13.012C368.448,218.344,367.54,219.256,366.412,219.256"/>
			<path style="fill:#DACEB6;" d="M366.412,194.012c-1.124,0-2.036-0.912-2.036-2.036v-21.572l-28.304-9.636
				c-1.06-0.364-1.632-1.52-1.272-2.584c0.364-1.064,1.504-1.644,2.584-1.272l29.68,10.108l1.38,1.928v23.028
				C368.448,193.1,367.54,194.012,366.412,194.012"/>
		</g>
		<g style="opacity:0.63;">
			<g>
				<g>
					<path style="fill:#8B7A5C;" d="M135.412,358.768c-1.132,0-2.052-0.92-2.052-2.052V346.04c0-1.132,0.92-2.052,2.052-2.052
						s2.052,0.92,2.052,2.052v10.676C137.464,357.852,136.548,358.768,135.412,358.768"/>
				</g>
			</g>
		</g>
		<g style="opacity:0.63;">
			<g>
				<g>
					<path style="fill:#8B7A5C;" d="M135.412,336.772c-1.132,0-2.052-0.92-2.052-2.052v-36.98c0-1.132,0.92-2.052,2.052-2.052
						s2.052,0.92,2.052,2.052v36.98C137.464,335.852,136.548,336.772,135.412,336.772"/>
				</g>
			</g>
		</g>
	</g>
</g>
<g>
</g>
<g>
</g>
<g>
</g>
<g>
</g>
<g>
</g>
<g>
</g>
<g>
</g>
<g>
</g>
<g>
</g>
<g>
</g>
<g>
</g>
<g>
</g>
<g>
</g>
<g>
</g>
<g>
</g>
</svg>
