<?xml version="1.0" standalone="no"?>
<!DOCTYPE svg PUBLIC "-//W3C//DTD SVG 20010904//EN"
 "http://www.w3.org/TR/2001/REC-SVG-20010904/DTD/svg10.dtd">
<svg version="1.0" xmlns="http://www.w3.org/2000/svg"
 width="1095.000000pt" height="1280.000000pt" viewBox="0 0 1095.000000 1280.000000"
 preserveAspectRatio="xMidYMid meet">

<g transform="translate(0.000000,1280.000000) scale(0.100000,-0.100000)"
fill="#000000" stroke="none">
<path d="M6330 10835 c-188 -54 -378 -160 -517 -288 l-43 -40 -68 24 c-59 20
-84 23 -212 22 -125 -1 -153 -4 -205 -24 -70 -26 -174 -105 -242 -185 -26 -31
-60 -70 -75 -86 -16 -17 -28 -36 -28 -43 0 -8 -21 -15 -57 -20 -83 -10 -200
-42 -258 -69 -173 -82 -228 -113 -290 -162 -38 -31 -75 -59 -81 -62 -10 -6
-64 -79 -86 -116 -4 -6 -29 -59 -57 -118 -41 -88 -53 -126 -66 -215 -9 -59
-28 -145 -42 -191 -23 -72 -25 -93 -20 -170 3 -48 11 -103 18 -122 27 -80 83
-189 104 -200 22 -12 65 -85 65 -110 0 -7 12 -34 28 -59 15 -25 36 -62 47 -83
56 -102 159 -240 231 -309 l80 -76 -33 -43 c-40 -52 -58 -65 -98 -74 -16 -3
-238 -8 -492 -11 -396 -4 -463 -2 -473 10 -7 8 -17 15 -22 15 -8 0 -66 37 -78
50 -3 3 -32 27 -65 52 -60 45 -110 96 -235 237 -36 40 -70 78 -75 84 -60 66
-235 367 -235 404 0 7 -21 61 -46 120 -62 146 -71 171 -84 222 -7 24 -31 83
-55 130 -24 47 -55 111 -70 141 -14 30 -45 83 -68 117 -42 61 -90 138 -136
217 -78 136 -120 198 -167 253 -30 33 -54 66 -54 71 0 17 -50 72 -65 72 -24 0
-25 -16 -9 -92 11 -48 17 -129 18 -238 1 -205 -15 -324 -78 -560 -55 -211
-117 -550 -137 -765 -12 -122 -5 -462 11 -565 6 -36 17 -119 26 -185 l15 -120
-75 -70 c-69 -64 -151 -171 -170 -220 -25 -64 -46 -174 -45 -228 1 -34 -2
-199 -6 -367 -7 -316 5 -536 40 -715 7 -38 16 -88 20 -109 7 -42 72 -250 125
-402 l32 -91 -36 -75 c-20 -41 -36 -78 -36 -81 0 -3 -15 -31 -33 -64 -68 -121
-166 -365 -186 -465 -6 -29 -15 -102 -21 -163 -16 -169 17 -317 116 -516 59
-119 228 -312 301 -344 24 -10 43 -22 43 -27 0 -4 8 -8 18 -8 10 0 22 -4 27
-9 6 -5 46 -14 90 -21 44 -6 109 -16 145 -21 77 -12 225 2 273 26 37 19 34 21
105 -93 55 -88 60 -102 37 -102 -14 0 -42 -34 -128 -158 -49 -70 -64 -91 -103
-140 -12 -15 -42 -57 -67 -94 -46 -65 -47 -68 -56 -175 -6 -59 -11 -254 -13
-433 -2 -293 -1 -328 15 -358 34 -62 111 -97 382 -172 82 -23 172 -51 199 -62
72 -28 204 -58 256 -58 83 0 111 15 165 87 57 74 53 69 89 143 14 30 51 96 81
145 31 50 68 115 82 145 14 30 45 96 69 147 41 85 44 97 45 182 2 100 2 101
69 80 35 -10 202 -33 363 -49 49 -5 91 -11 93 -13 3 -3 7 -60 8 -128 2 -68 7
-147 11 -174 6 -41 -1 -180 -20 -394 -3 -40 18 -96 48 -129 27 -29 85 -62 230
-127 65 -30 137 -66 160 -80 174 -109 330 -171 402 -161 24 4 47 11 50 17 4 5
23 9 43 9 24 0 46 8 63 23 35 29 122 159 191 282 30 55 86 154 124 220 l68
120 -3 128 c-2 98 1 128 11 131 63 20 65 19 72 -40 3 -30 17 -72 29 -92 39
-62 207 -413 207 -431 0 -4 15 -39 34 -78 41 -85 76 -112 154 -123 61 -8 63
-7 177 45 39 18 102 45 140 60 39 14 84 33 102 41 17 8 35 14 40 14 24 0 143
43 143 52 0 5 10 6 21 3 13 -5 19 -3 15 3 -3 5 1 13 10 16 10 4 13 2 7 -7 -4
-6 7 -1 25 13 17 14 44 35 60 46 82 64 109 216 115 639 l2 200 -61 115 c-98
184 -127 233 -151 260 -13 14 -23 27 -23 31 0 3 15 20 33 37 17 17 37 38 44
46 218 264 223 269 258 256 15 -6 58 -17 96 -26 101 -23 149 -14 439 84 58 19
110 39 116 43 6 5 55 25 110 44 54 20 103 40 109 45 5 4 33 15 60 23 28 8 70
24 95 35 25 12 83 35 130 52 47 18 103 40 125 50 22 9 58 24 80 31 35 12 102
45 210 103 34 18 87 40 200 86 123 48 172 74 209 109 12 11 26 21 29 21 4 0
42 29 85 64 42 35 109 84 148 109 74 48 102 76 200 202 71 90 214 357 214 398
0 11 6 28 14 36 23 27 123 446 131 546 3 50 12 128 20 175 41 248 53 483 27
525 -4 6 -7 12 -7 15 -11 68 -41 152 -97 267 -55 112 -77 148 -111 176 -23 19
-71 63 -107 97 -107 102 -203 157 -377 217 -105 35 -113 37 -278 40 -118 3
-200 -1 -270 -11 -135 -20 -265 -49 -292 -64 -12 -6 -34 -12 -48 -12 -15 0
-53 -6 -84 -14 -31 -8 -77 -16 -102 -19 l-46 -4 -5 162 -4 163 -40 42 c-103
110 -315 271 -411 314 -24 11 -43 21 -43 24 0 2 23 27 50 54 112 111 297 339
345 425 8 15 20 35 25 43 5 8 37 67 70 130 96 182 168 438 171 610 1 81 -14
276 -25 330 -17 79 -30 126 -42 149 -8 14 -14 35 -14 47 0 25 -29 115 -41 129
-5 5 -9 17 -9 27 0 34 -141 322 -197 400 -18 27 -49 72 -69 101 -20 28 -52 67
-70 86 -19 19 -34 37 -34 41 0 12 -79 60 -98 60 -19 0 -52 29 -52 45 0 23
-129 149 -228 222 -175 130 -334 201 -497 223 -105 14 -421 11 -475 -5z m362
-110 c108 -4 162 -11 204 -25 31 -11 65 -20 76 -20 10 0 18 -4 18 -10 0 -5 8
-10 18 -10 43 0 262 -144 355 -233 31 -30 97 -112 97 -121 0 -12 28 -36 42
-36 7 0 19 -9 26 -20 7 -11 17 -20 23 -20 25 0 161 -170 226 -280 92 -158 171
-325 197 -415 50 -171 55 -190 70 -295 18 -131 20 -246 6 -352 -26 -204 -86
-367 -222 -606 -27 -46 -48 -88 -48 -93 0 -5 -14 -24 -31 -42 -17 -17 -42 -49
-56 -70 -13 -21 -29 -40 -36 -43 -7 -2 -33 -29 -57 -60 -24 -31 -46 -52 -48
-46 -1 5 18 42 43 83 25 40 45 77 45 82 0 4 11 25 25 45 14 20 25 44 25 53 0
9 7 22 15 29 34 28 115 223 118 285 1 18 5 31 9 29 11 -7 27 56 34 136 4 41
10 80 15 86 16 20 23 336 10 421 -42 258 -52 305 -76 364 -31 74 -111 226
-131 250 -8 8 -14 20 -14 26 0 15 -104 158 -167 230 -30 35 -78 77 -107 95
-39 24 -67 54 -107 112 -81 119 -171 210 -281 282 -163 108 -266 150 -431 175
-47 7 -83 17 -81 21 3 4 15 6 27 4 12 -3 88 -8 169 -11z m-312 -51 c0 -2 -7
-4 -15 -4 -8 0 -15 4 -15 10 0 5 7 7 15 4 8 -4 15 -8 15 -10z m160 2 c0 -2 -7
-7 -16 -10 -8 -3 -12 -2 -9 4 6 10 25 14 25 6z m40 -6 c-8 -5 -19 -10 -25 -10
-5 0 -3 5 5 10 8 5 20 10 25 10 6 0 3 -5 -5 -10z m30 -14 c0 -2 -7 -7 -16 -10
-8 -3 -12 -2 -9 4 6 10 25 14 25 6z m-73 -12 c-3 -3 -12 -4 -19 -1 -8 3 -5 6
6 6 11 1 17 -2 13 -5z m-488 -59 c-12 -11 -79 -34 -79 -27 0 4 12 13 28 19 28
11 59 16 51 8z m36 -15 c-3 -5 -12 -10 -18 -10 -7 0 -6 4 3 10 19 12 23 12 15
0z m-218 -136 c-3 -3 -12 -4 -19 -1 -8 3 -5 6 6 6 11 1 17 -2 13 -5z m-172
-74 c3 -5 1 -10 -4 -10 -6 0 -11 5 -11 10 0 6 2 10 4 10 3 0 8 -4 11 -10z
m-455 -20 c0 -5 -7 -10 -16 -10 -8 0 -12 5 -9 10 3 6 10 10 16 10 5 0 9 -4 9
-10z m-50 -50 c0 -5 -2 -10 -4 -10 -3 0 -8 5 -11 10 -3 6 -1 10 4 10 6 0 11
-4 11 -10z m0 -60 c0 -5 -4 -10 -10 -10 -5 0 -10 5 -10 10 0 6 5 10 10 10 6 0
10 -4 10 -10z m-73 -6 c-3 -3 -12 -4 -19 -1 -8 3 -5 6 6 6 11 1 17 -2 13 -5z
m11 -108 c-7 -8 -15 -12 -17 -11 -5 6 10 25 20 25 5 0 4 -6 -3 -14z m62 -6 c0
-5 -7 -10 -16 -10 -8 0 -12 5 -9 10 3 6 10 10 16 10 5 0 9 -4 9 -10z m2205
-28 c-3 -3 -11 0 -18 7 -9 10 -8 11 6 5 10 -3 15 -9 12 -12z m-2650 -42 c-3
-5 -13 -10 -21 -10 -8 0 -12 5 -9 10 3 6 13 10 21 10 8 0 12 -4 9 -10z m2713
-31 c-3 -8 -7 -3 -11 10 -4 17 -3 21 5 13 5 -5 8 -16 6 -23z m-811 -15 c-3 -3
-12 -4 -19 -1 -8 3 -5 6 6 6 11 1 17 -2 13 -5z m356 -1 c-7 -2 -19 -2 -25 0
-7 3 -2 5 12 5 14 0 19 -2 13 -5z m-419 -37 c-10 -8 -21 -12 -24 -10 -5 6 21
24 34 24 6 0 1 -6 -10 -14z m976 -20 c0 -2 3 -13 6 -23 6 -17 6 -17 -8 1 -8
10 -20 16 -26 12 -7 -4 -12 -2 -12 3 0 6 9 11 20 11 11 0 20 -2 20 -4z m-3100
-46 c0 -5 -5 -10 -11 -10 -5 0 -7 5 -4 10 3 6 8 10 11 10 2 0 4 -4 4 -10z m17
-36 c-3 -3 -12 -4 -19 -1 -8 3 -5 6 6 6 11 1 17 -2 13 -5z m2460 -10 c-3 -3
-12 -4 -19 -1 -8 3 -5 6 6 6 11 1 17 -2 13 -5z m-479 -13 c16 12 16 12 0 -5
-17 -19 -48 -16 -48 5 0 8 4 8 15 -1 12 -10 18 -10 33 1z m1149 -33 c-3 -8 -6
-5 -6 6 -1 11 2 17 5 13 3 -3 4 -12 1 -19z m-3170 -26 c-20 -20 -27 -23 -27
-10 0 15 41 50 49 42 3 -3 -7 -17 -22 -32z m-2267 6 c0 -9 4 -8 11 2 9 13 10
13 6 0 -5 -21 -37 -26 -37 -6 0 9 5 16 10 16 6 0 10 -6 10 -12z m2190 -12 c0
-3 -4 -8 -10 -11 -5 -3 -10 -1 -10 4 0 6 5 11 10 11 6 0 10 -2 10 -4z m-32
-41 c0 -14 -3 -27 -7 -29 -3 -2 -6 11 -6 29 0 18 3 31 6 29 4 -2 7 -15 7 -29z
m2949 -7 c-3 -8 -6 -5 -6 6 -1 11 2 17 5 13 3 -3 4 -12 1 -19z m-2826 -21
c-10 -9 -11 -8 -5 6 3 10 9 15 12 12 3 -3 0 -11 -7 -18z m31 1 c-7 -7 -12 -8
-12 -2 0 14 12 26 19 19 2 -3 -1 -11 -7 -17z m2776 -63 l-1 -40 -4 38 c-2 20
-8 37 -13 37 -5 0 -7 7 -3 16 10 26 23 -5 21 -51z m451 33 c-5 -10 -12 -18
-14 -18 -3 0 -5 8 -5 18 0 10 7 19 14 19 11 0 13 -5 5 -19z m-2872 -50 c-2
-13 -4 -5 -4 17 -1 22 1 32 4 23 2 -10 2 -28 0 -40z m-2689 7 c-2 -19 1 -37 7
-39 5 -2 3 -5 -6 -5 -18 -1 -30 19 -28 47 1 10 4 7 9 -8 8 -24 8 -23 9 8 1 17
4 32 7 32 3 0 4 -16 2 -35z m2787 8 c-8 -31 -13 -39 -20 -31 -9 9 6 58 17 58
6 0 7 -11 3 -27z m2225 -75 c0 -20 -3 -39 -7 -41 -5 -3 -8 16 -9 41 0 26 -4
58 -7 72 -6 20 -4 19 7 -5 9 -16 15 -47 16 -67z m-2928 50 c-7 -7 -12 -8 -12
-2 0 14 12 26 19 19 2 -3 -1 -11 -7 -17z m775 0 c-3 -8 -6 -5 -6 6 -1 11 2 17
5 13 3 -3 4 -12 1 -19z m-2717 -18 c0 -5 -2 -10 -4 -10 -3 0 -8 5 -11 10 -3 6
-1 10 4 10 6 0 11 -4 11 -10z m4970 -25 c0 -8 -4 -15 -10 -15 -5 0 -10 7 -10
15 0 8 5 15 10 15 6 0 10 -7 10 -15z m-5110 -16 c0 -5 -4 -9 -10 -9 -5 0 -10
7 -10 16 0 8 5 12 10 9 6 -3 10 -10 10 -16z m-29 -384 c-13 -205 -14 -396 -1
-565 22 -282 24 -362 9 -360 -20 3 -32 1 -48 -9 -11 -7 -10 -13 3 -33 34 -53
75 -189 81 -271 3 -45 8 -104 10 -131 4 -37 -1 -62 -21 -110 -48 -114 -73
-184 -67 -190 4 -3 2 -6 -3 -6 -5 0 -28 34 -52 75 -35 59 -46 92 -58 162 -7
49 -21 123 -30 166 -37 185 -40 696 -5 899 11 62 27 154 35 203 9 50 30 142
47 205 17 63 40 151 50 195 11 44 22 91 26 105 4 18 10 -2 21 -70 12 -79 13
-123 3 -265z m39 345 c0 -5 -2 -10 -4 -10 -3 0 -8 5 -11 10 -3 6 -1 10 4 10 6
0 11 -4 11 -10z m5617 -22 c-3 -8 -6 -5 -6 6 -1 11 2 17 5 13 3 -3 4 -12 1
-19z m-3570 -10 c-3 -8 -6 -5 -6 6 -1 11 2 17 5 13 3 -3 4 -12 1 -19z m-30
-40 c-3 -7 -5 -2 -5 12 0 14 2 19 5 13 2 -7 2 -19 0 -25z m3603 4 c-6 -2 -10
-11 -10 -19 0 -9 -2 -14 -5 -11 -4 3 -3 18 1 33 5 20 9 23 15 13 5 -7 4 -14
-1 -16z m-658 -31 c2 -17 1 -28 -4 -25 -8 5 -12 54 -4 54 2 0 6 -13 8 -29z
m-2882 -40 c0 -5 10 -12 23 -14 15 -4 13 -5 -7 -4 -27 2 -52 27 -27 27 6 0 11
-4 11 -9z m3483 -29 c-3 -7 -9 -10 -12 -5 -3 4 -10 11 -15 15 -4 4 1 6 12 5
12 -1 18 -6 15 -15z m-5276 -34 c-3 -7 -5 -2 -5 12 0 14 2 19 5 13 2 -7 2 -19
0 -25z m5248 -9 c37 -14 75 -65 75 -102 0 -14 -11 -39 -24 -54 -21 -24 -32
-28 -74 -28 -63 0 -95 18 -111 62 -35 96 33 158 134 122z m-3505 -28 c19 -11
45 -24 57 -30 11 -5 24 -15 28 -20 3 -6 14 -11 23 -11 9 -1 30 -6 46 -13 l29
-12 -49 -52 c-73 -76 -104 -119 -149 -206 -11 -21 -26 -36 -34 -35 -22 4 -71
154 -71 217 0 29 10 82 22 117 25 72 38 78 98 45z m268 2 c-10 -2 -26 -2 -35
0 -10 3 -2 5 17 5 19 0 27 -2 18 -5z m3339 -35 c-3 -8 -6 -5 -6 6 -1 11 2 17
5 13 3 -3 4 -12 1 -19z m30 -10 c-3 -8 -6 -5 -6 6 -1 11 2 17 5 13 3 -3 4 -12
1 -19z m-9 -43 c-3 -3 -9 2 -12 12 -6 14 -5 15 5 6 7 -7 10 -15 7 -18z m-21
-27 c-3 -8 -6 -5 -6 6 -1 11 2 17 5 13 3 -3 4 -12 1 -19z m-3320 -20 c-3 -8
-6 -5 -6 6 -1 11 2 17 5 13 3 -3 4 -12 1 -19z m3396 -23 c-3 -9 -8 -14 -10
-11 -3 3 -2 9 2 15 9 16 15 13 8 -4z m-5343 -5 c0 -5 -2 -10 -4 -10 -3 0 -8 5
-11 10 -3 6 -1 10 4 10 6 0 11 -4 11 -10z m2583 3 c-7 -2 -21 -2 -30 0 -10 3
-4 5 12 5 17 0 24 -2 18 -5z m1952 -3 c-3 -5 -10 -10 -16 -10 -5 0 -9 5 -9 10
0 6 7 10 16 10 8 0 12 -4 9 -10z m282 -6 c-3 -3 -12 -4 -19 -1 -8 3 -5 6 6 6
11 1 17 -2 13 -5z m-2247 -14 c0 -5 -2 -10 -4 -10 -3 0 -8 5 -11 10 -3 6 -1
10 4 10 6 0 11 -4 11 -10z m2465 0 c-28 -12 -37 -12 -30 0 3 6 16 10 28 9 21
0 21 -1 2 -9z m-3173 -22 c-7 -7 -12 -8 -12 -2 0 14 12 26 19 19 2 -3 -1 -11
-7 -17z m2838 12 c0 -5 -5 -10 -11 -10 -5 0 -7 5 -4 10 3 6 8 10 11 10 2 0 4
-4 4 -10z m510 -15 c-7 -8 -16 -15 -21 -15 -5 0 -1 9 8 20 9 11 19 17 21 15 3
-3 -1 -11 -8 -20z m-2853 4 c-14 -8 -22 -8 -30 0 -8 8 -3 11 19 11 25 -1 27
-2 11 -11z m314 -46 c13 -17 13 -17 -6 -3 -11 8 -22 16 -24 17 -2 2 0 3 6 3 6
0 17 -8 24 -17z m2206 -2 c99 -30 176 -107 202 -203 33 -119 -43 -281 -151
-325 -21 -8 -38 -19 -38 -24 0 -17 -106 -9 -167 12 -156 52 -240 247 -167 385
14 27 32 56 40 65 8 8 14 20 14 26 0 13 60 59 92 73 38 15 109 11 175 -9z
m113 9 c0 -5 -2 -10 -4 -10 -3 0 -8 5 -11 10 -3 6 -1 10 4 10 6 0 11 -4 11
-10z m70 -20 c0 -5 -5 -10 -11 -10 -5 0 -7 5 -4 10 3 6 8 10 11 10 2 0 4 -4 4
-10z m-5433 -42 c-3 -8 -6 -5 -6 6 -1 11 2 17 5 13 3 -3 4 -12 1 -19z m417 6
c3 -8 2 -12 -4 -9 -6 3 -10 10 -10 16 0 14 7 11 14 -7z m2771 -30 c-9 -9 -19
-13 -23 -10 -3 4 0 11 8 16 24 15 33 11 15 -6z m1753 -2 c2 -7 -1 -12 -8 -12
-6 0 -9 4 -6 9 4 5 1 12 -4 14 -6 3 -5 4 2 3 6 -1 14 -8 16 -14z m-1830 -12
c7 -11 11 -20 9 -20 -2 0 -12 9 -22 20 -10 11 -14 20 -9 20 5 0 15 -9 22 -20z
m2325 -5 c-3 -9 -8 -14 -10 -11 -3 3 -2 9 2 15 9 16 15 13 8 -4z m84 -47 c-3
-8 -6 -5 -6 6 -1 11 2 17 5 13 3 -3 4 -12 1 -19z m-2250 -15 c4 -12 -25 -26
-38 -17 -5 3 -9 10 -9 15 0 6 5 7 10 4 6 -3 10 -1 10 5 0 14 22 8 27 -7z
m-212 -23 c3 -5 1 -10 -4 -10 -6 0 -11 5 -11 10 0 6 2 10 4 10 3 0 8 -4 11
-10z m2455 -10 c0 -5 -4 -10 -10 -10 -5 0 -10 5 -10 10 0 6 5 10 10 10 6 0 10
-4 10 -10z m-2373 -26 c-3 -3 -12 -4 -19 -1 -8 3 -5 6 6 6 11 1 17 -2 13 -5z
m2376 -9 c-3 -9 -8 -14 -10 -11 -3 3 -2 9 2 15 9 16 15 13 8 -4z m-2309 -53
c2 -4 -4 -8 -14 -8 -10 0 -16 4 -14 8 3 4 9 8 14 8 5 0 11 -4 14 -8z m43 2
c-3 -3 -12 -4 -19 -1 -8 3 -5 6 6 6 11 1 17 -2 13 -5z m-2737 -55 c0 -5 -4 -9
-10 -9 -5 0 -10 7 -10 16 0 8 5 12 10 9 6 -3 10 -10 10 -16z m2960 2 c36 -10
97 -35 137 -55 68 -35 72 -38 63 -61 -40 -106 -125 -197 -231 -250 -92 -46
-102 -46 -83 0 7 19 14 52 14 74 0 22 5 52 11 67 11 32 15 189 5 222 -9 27 -1
28 84 3z m-3483 -43 c-3 -7 -5 -2 -5 12 0 14 2 19 5 13 2 -7 2 -19 0 -25z
m5511 5 c-2 -9 -10 -18 -18 -20 -12 -4 -13 -3 -1 5 7 5 10 15 7 21 -4 6 -2 11
4 11 6 0 10 -8 8 -17z m-1031 -35 c-3 -8 -6 -5 -6 6 -1 11 2 17 5 13 3 -3 4
-12 1 -19z m-342 -8 c-3 -5 4 -11 17 -11 13 -1 17 -3 7 -6 -8 -2 -31 3 -50 11
l-34 15 33 1 c20 0 31 -4 27 -10z m1530 -39 c2 -11 -1 -21 -7 -21 -6 0 -7 -8
-3 -17 4 -12 3 -14 -3 -8 -6 6 -8 25 -5 43 6 36 11 37 18 3z m-1313 -123 c-16
-24 -54 -65 -83 -93 l-54 -50 -6 95 c-4 52 -10 104 -13 115 -7 19 -1 22 71 34
43 8 85 17 93 22 12 6 16 -1 18 -37 2 -35 -3 -52 -26 -86z m564 120 c4 -6 3
-8 -4 -4 -5 3 -13 0 -15 -6 -3 -8 -6 -6 -6 5 -1 19 14 23 25 5z m517 -60 c-10
-21 -10 -21 -9 9 1 19 5 28 10 23 6 -6 5 -18 -1 -32z m-2126 -5 c-3 -10 -5 -4
-5 12 0 17 2 24 5 18 2 -7 2 -21 0 -30z m460 15 c-3 -8 -6 -5 -6 6 -1 11 2 17
5 13 3 -3 4 -12 1 -19z m330 -21 c2 -12 0 -17 -4 -11 -5 7 -17 14 -28 17 -18
4 -17 5 3 6 16 1 21 5 16 14 -4 6 -3 9 1 4 5 -4 10 -18 12 -30z m-227 13 c0
-5 -4 -10 -10 -10 -5 0 -10 5 -10 10 0 6 5 10 10 10 6 0 10 -4 10 -10z m103 3
c-7 -2 -21 -2 -30 0 -10 3 -4 5 12 5 17 0 24 -2 18 -5z m504 -25 c-3 -7 -5 -2
-5 12 0 14 2 19 5 13 2 -7 2 -19 0 -25z m503 -3 c0 -5 -5 -3 -10 5 -5 8 -10
20 -10 25 0 6 5 3 10 -5 5 -8 10 -19 10 -25z m-2735 15 c3 -5 1 -10 -4 -10 -6
0 -11 5 -11 10 0 6 2 10 4 10 3 0 8 -4 11 -10z m3127 -26 c-8 -14 -10 -14 -15
5 -3 12 -1 19 4 15 5 -3 9 1 10 8 0 9 2 10 5 1 3 -7 1 -20 -4 -29z m275 4 c-3
-8 -6 -5 -6 6 -1 11 2 17 5 13 3 -3 4 -12 1 -19z m-310 -14 c-3 -3 -12 -4 -19
-1 -8 3 -5 6 6 6 11 1 17 -2 13 -5z m-1220 -101 c-3 -10 -5 -4 -5 12 0 17 2
24 5 18 2 -7 2 -21 0 -30z m-1782 7 c3 -5 1 -10 -4 -10 -6 0 -11 5 -11 10 0 6
2 10 4 10 3 0 8 -4 11 -10z m972 -12 c-3 -8 -6 -5 -6 6 -1 11 2 17 5 13 3 -3
4 -12 1 -19z m-2512 -18 c3 -5 1 -10 -4 -10 -6 0 -11 5 -11 10 0 6 2 10 4 10
3 0 8 -4 11 -10z m2816 1 c7 11 9 10 9 -4 0 -20 -22 -19 -26 1 -2 9 -1 9 3 1
4 -8 8 -7 14 2z m799 -11 c0 -5 -5 -10 -11 -10 -5 0 -7 5 -4 10 3 6 8 10 11
10 2 0 4 -4 4 -10z m-283 -72 c-2 -13 -4 -3 -4 22 0 25 2 35 4 23 2 -13 2 -33
0 -45z m-1677 38 c0 -3 -4 -8 -10 -11 -5 -3 -10 -1 -10 4 0 6 5 11 10 11 6 0
10 -2 10 -4z m3100 -16 c0 -5 -2 -10 -4 -10 -3 0 -8 5 -11 10 -3 6 -1 10 4 10
6 0 11 -4 11 -10z m-2240 -30 c0 -5 -2 -10 -4 -10 -3 0 -8 5 -11 10 -3 6 -1
10 4 10 6 0 11 -4 11 -10z m150 0 c0 -5 -2 -10 -4 -10 -3 0 -8 5 -11 10 -3 6
-1 10 4 10 6 0 11 -4 11 -10z m40 0 c0 -5 -2 -10 -4 -10 -3 0 -8 5 -11 10 -3
6 -1 10 4 10 6 0 11 -4 11 -10z m695 -58 c15 -8 16 -11 5 -12 -18 0 -40 19
-40 35 0 7 3 6 8 -1 4 -6 16 -16 27 -22z m-3290 8 c3 -5 1 -10 -4 -10 -6 0
-11 5 -11 10 0 6 2 10 4 10 3 0 8 -4 11 -10z m45 -34 c0 -2 -7 -6 -15 -10 -8
-3 -15 -1 -15 4 0 6 7 10 15 10 8 0 15 -2 15 -4z m4519 -29 c-7 -12 -13 -24
-15 -26 -2 -2 2 41 5 57 1 2 6 0 11 -3 7 -4 6 -14 -1 -28z m-4712 17 c-3 -3
-12 -4 -19 -1 -8 3 -5 6 6 6 11 1 17 -2 13 -5z m1960 0 c-3 -3 -12 -4 -19 -1
-8 3 -5 6 6 6 11 1 17 -2 13 -5z m-2489 -78 c80 -48 116 -84 186 -189 52 -79
56 -88 50 -126 -4 -23 -11 -41 -16 -41 -24 0 -47 23 -59 57 -26 83 -75 160
-145 229 -66 66 -97 87 -167 113 -16 6 -26 15 -23 20 8 13 102 -21 174 -63z
m502 9 c0 -8 -2 -15 -4 -15 -2 0 -6 7 -10 15 -3 8 -1 15 4 15 6 0 10 -7 10
-15z m50 -11 c0 -8 -4 -14 -8 -14 -4 0 -8 9 -8 19 0 11 4 17 8 15 4 -3 8 -12
8 -20z m2110 -24 c0 -5 -5 -10 -11 -10 -5 0 -7 5 -4 10 3 6 8 10 11 10 2 0 4
-4 4 -10z m2491 -13 c-10 -9 -11 -8 -5 6 3 10 9 15 12 12 3 -3 0 -11 -7 -18z
m-4697 -52 c31 -21 70 -54 86 -74 93 -114 110 -136 110 -144 0 -4 11 -12 25
-17 23 -9 25 -14 25 -75 0 -37 -4 -65 -10 -65 -5 0 -10 6 -10 13 0 7 -20 31
-45 53 -25 21 -45 43 -45 47 0 20 -74 126 -123 177 -62 64 -137 120 -160 120
-10 0 -17 6 -17 14 0 24 99 -5 164 -49z m1893 30 c0 -17 -13 -20 -21 -6 -4 5
0 12 6 14 7 3 13 6 14 6 0 1 1 -6 1 -14z m-2127 -26 c0 -6 -4 -7 -10 -4 -5 3
-10 11 -10 16 0 6 5 7 10 4 6 -3 10 -11 10 -16z m4950 -14 c0 -5 -5 -3 -10 5
-5 8 -10 20 -10 25 0 6 5 3 10 -5 5 -8 10 -19 10 -25z m-4380 -14 c67 -48 160
-124 160 -131 0 -4 11 -19 24 -33 31 -33 116 -170 116 -187 0 -7 -14 2 -32 19
-17 17 -35 31 -39 31 -4 0 -15 21 -25 47 -12 30 -44 75 -88 120 -70 75 -181
157 -197 147 -5 -3 -9 2 -9 11 0 21 42 10 90 -24z m1624 10 c3 -5 -1 -11 -9
-14 -9 -4 -12 -1 -8 9 6 16 10 17 17 5z m353 3 c-3 -3 -12 -4 -19 -1 -8 3 -5
6 6 6 11 1 17 -2 13 -5z m-317 -97 c0 -13 -25 16 -33 38 -6 16 -3 15 13 -5 11
-14 20 -29 20 -33z m2637 27 c-3 -3 -12 -4 -19 -1 -8 3 -5 6 6 6 11 1 17 -2
13 -5z m-2402 -52 c-3 -3 -11 0 -18 7 -9 10 -8 11 6 5 10 -3 15 -9 12 -12z
m-180 -12 c3 -5 1 -10 -4 -10 -6 0 -11 5 -11 10 0 6 2 10 4 10 3 0 8 -4 11
-10z m345 -70 c0 -5 -7 -7 -15 -4 -8 4 -15 8 -15 10 0 2 7 4 15 4 8 0 15 -4
15 -10z m1163 -27 c-7 -2 -19 -2 -25 0 -7 3 -2 5 12 5 14 0 19 -2 13 -5z
m-293 -23 c0 -5 -5 -10 -11 -10 -5 0 -7 5 -4 10 3 6 8 10 11 10 2 0 4 -4 4
-10z m-560 -10 c12 -8 11 -10 -7 -10 -13 0 -23 5 -23 10 0 13 11 13 30 0z
m255 0 c-3 -5 -14 -10 -23 -10 -15 0 -15 2 -2 10 20 13 33 13 25 0z m-3385
-10 c18 -12 2 -12 -25 0 -13 6 -15 9 -5 9 8 0 22 -4 30 -9z m3340 -5 c14 -16
10 -18 -14 -9 -9 3 -16 10 -16 15 0 14 16 11 30 -6z m-513 -21 c-3 -3 -12 -4
-19 -1 -8 3 -5 6 6 6 11 1 17 -2 13 -5z m-1600 -10 c-3 -3 -12 -4 -19 -1 -8 3
-5 6 6 6 11 1 17 -2 13 -5z m528 -15 c295 -3 534 -14 680 -33 41 -5 55 -12 75
-39 13 -17 42 -48 62 -68 42 -40 47 -60 20 -87 -57 -57 -58 -83 -6 -141 23
-26 140 -91 164 -91 4 0 42 -16 83 -35 41 -19 82 -35 91 -35 10 0 15 -4 12 -8
-3 -5 -108 -10 -233 -12 -561 -7 -634 -5 -878 18 -132 13 -279 26 -327 29 -49
3 -88 9 -88 12 0 3 15 12 33 20 115 49 218 104 227 122 10 17 7 24 -21 47 -85
71 -269 281 -269 307 0 4 10 5 23 2 12 -3 171 -7 352 -8z m1819 -4 c-4 -8 -13
-15 -22 -15 -13 0 -12 3 4 15 24 18 25 18 18 0z m-578 -42 c-7 -7 -26 7 -26
19 0 6 6 6 15 -2 9 -7 13 -15 11 -17z m801 21 c-3 -3 -12 -4 -19 -1 -8 3 -5 6
6 6 11 1 17 -2 13 -5z m1213 -34 c0 -5 -4 -10 -10 -10 -5 0 -10 5 -10 10 0 6
5 10 10 10 6 0 10 -4 10 -10z m-4045 -10 c3 -5 1 -10 -4 -10 -6 0 -11 5 -11
10 0 6 2 10 4 10 3 0 8 -4 11 -10z m-1158 -62 c-2 -13 -4 -5 -4 17 -1 22 1 32
4 23 2 -10 2 -28 0 -40z m962 3 c-6 -2 -15 3 -20 10 -15 24 -10 29 11 11 12
-10 16 -18 9 -21z m-479 8 c0 -6 -4 -7 -10 -4 -5 3 -10 11 -10 16 0 6 5 7 10
4 6 -3 10 -11 10 -16z m-150 -19 c0 -5 -4 -10 -10 -10 -5 0 -10 5 -10 10 0 6
5 10 10 10 6 0 10 -4 10 -10z m3130 -22 c0 -5 -11 -8 -25 -8 -14 0 -25 4 -25
9 0 5 11 8 25 7 14 0 25 -4 25 -8z m-2518 -58 c-2 -22 -6 -40 -8 -40 -2 0 -4
18 -4 40 0 22 3 40 8 40 4 0 6 -18 4 -40z m2048 20 c0 -5 -7 -7 -15 -4 -8 4
-15 8 -15 10 0 2 7 4 15 4 8 0 15 -4 15 -10z m2270 -6 c0 -2 -7 -4 -15 -4 -8
0 -15 4 -15 10 0 5 7 7 15 4 8 -4 15 -8 15 -10z m-3953 -16 c-3 -8 -6 -5 -6 6
-1 11 2 17 5 13 3 -3 4 -12 1 -19z m-1703 4 c3 -5 -1 -9 -9 -9 -8 0 -12 4 -9
9 3 4 7 8 9 8 2 0 6 -4 9 -8z m1176 -12 c0 -11 -4 -20 -9 -20 -5 0 -7 9 -4 20
3 11 7 20 9 20 2 0 4 -9 4 -20z m2560 16 c0 -2 -7 -7 -16 -10 -8 -3 -12 -2 -9
4 6 10 25 14 25 6z m-3774 -32 c-6 -16 41 -94 56 -94 5 0 7 -4 4 -9 -3 -5 1
-12 10 -15 16 -6 10 -26 -8 -26 -6 0 -8 3 -5 7 4 3 0 15 -10 25 -9 10 -21 28
-28 41 -7 14 -20 22 -38 22 -15 0 -26 5 -24 10 1 6 10 10 20 9 9 0 17 1 17 2
0 1 -8 11 -17 20 -17 17 -17 18 1 11 14 -6 17 -4 12 8 -3 10 -2 13 5 10 6 -4
8 -14 5 -21z m764 -34 c0 -5 -4 -10 -10 -10 -5 0 -10 5 -10 10 0 6 5 10 10 10
6 0 10 -4 10 -10z m1020 0 c0 -5 -7 -10 -16 -10 -8 0 -12 5 -9 10 3 6 10 10
16 10 5 0 9 -4 9 -10z m237 -16 c-3 -3 -12 -4 -19 -1 -8 3 -5 6 6 6 11 1 17
-2 13 -5z m3530 -10 c-3 -3 -12 -4 -19 -1 -8 3 -5 6 6 6 11 1 17 -2 13 -5z
m-5573 -25 c9 -14 19 -18 28 -13 11 6 11 5 0 -9 -13 -15 -16 -14 -37 8 -26 29
-35 31 -35 10 0 -8 7 -15 16 -15 8 0 12 -5 8 -11 -10 -16 -38 16 -31 35 9 22
33 20 51 -5z m2206 -11 c0 -5 -9 -3 -20 4 -11 7 -20 16 -20 20 0 5 9 3 20 -4
11 -7 20 -16 20 -20z m3859 -18 c0 -9 -4 -8 -9 5 -5 11 -9 27 -9 35 0 9 4 8 9
-5 5 -11 9 -27 9 -35z m22 27 c-10 -9 -11 -8 -5 6 3 10 9 15 12 12 3 -3 0 -11
-7 -18z m-566 -7 c3 -5 1 -10 -4 -10 -6 0 -11 5 -11 10 0 6 2 10 4 10 3 0 8
-4 11 -10z m-1677 -14 c-7 -8 -15 -12 -17 -11 -5 6 10 25 20 25 5 0 4 -6 -3
-14z m2272 4 c0 -5 -4 -10 -10 -10 -5 0 -10 5 -10 10 0 6 5 10 10 10 6 0 10
-4 10 -10z m-4032 -31 c-11 -7 -10 -9 1 -9 8 0 12 -3 8 -6 -3 -3 -14 -1 -24 5
-11 6 -13 11 -5 11 7 0 10 4 7 10 -3 6 1 7 10 3 13 -5 14 -7 3 -14z m-2108
-33 c0 -5 -6 -3 -13 3 -8 6 -17 8 -20 4 -4 -3 -7 0 -7 9 0 24 12 29 26 10 7
-9 14 -21 14 -26z m146 8 c-11 -8 -27 -14 -35 -13 -14 0 -14 1 -1 6 18 8 40
29 36 36 -2 2 2 0 8 -5 8 -7 5 -14 -8 -24z m814 26 c0 -5 -2 -10 -4 -10 -3 0
-8 5 -11 10 -3 6 -1 10 4 10 6 0 11 -4 11 -10z m877 -12 c-3 -8 -6 -5 -6 6 -1
11 2 17 5 13 3 -3 4 -12 1 -19z m4293 11 c0 -5 -4 -7 -10 -4 -5 3 -10 1 -10
-4 0 -6 -8 -11 -17 -11 -15 0 -14 2 3 15 23 17 34 19 34 4z m-2480 -19 c0 -5
-4 -10 -10 -10 -5 0 -10 5 -10 10 0 6 5 10 10 10 6 0 10 -4 10 -10z m2504 -22
c2 -15 -2 -25 -11 -25 -15 0 -15 3 -7 35 8 27 15 23 18 -10z m-5949 13 c-18
-8 -16 -10 15 -19 33 -11 32 -11 -14 -5 -35 4 -47 3 -42 -6 4 -6 2 -11 -3 -11
-16 0 -14 11 6 32 9 10 26 18 37 17 21 0 21 -1 1 -8z m785 3 c0 -8 -19 -13
-24 -6 -3 5 1 9 9 9 8 0 15 -2 15 -3z m2540 -4 c0 -5 -5 -10 -11 -10 -5 0 -7
5 -4 10 3 6 8 10 11 10 2 0 4 -4 4 -10z m2600 0 c0 -5 -5 -10 -11 -10 -5 0 -7
5 -4 10 3 6 8 10 11 10 2 0 4 -4 4 -10z m-10 -68 c0 -54 -12 -49 -14 5 -1 35
-3 38 -28 36 -16 -1 -28 2 -28 7 0 14 24 18 48 7 18 -8 22 -18 22 -55z m-6103
36 c-3 -8 -6 -5 -6 6 -1 11 2 17 5 13 3 -3 4 -12 1 -19z m-37 2 c12 -8 11 -10
-7 -10 -13 0 -23 5 -23 10 0 13 11 13 30 0z m150 0 c0 -5 -8 -10 -17 -10 -15
0 -16 2 -3 10 19 12 20 12 20 0z m167 -6 c-3 -3 -12 -4 -19 -1 -8 3 -5 6 6 6
11 1 17 -2 13 -5z m276 -9 c-3 -9 -8 -14 -10 -11 -3 3 -2 9 2 15 9 16 15 13 8
-4z m1284 0 c0 -8 -4 -15 -9 -15 -10 0 -11 14 -1 23 9 10 10 9 10 -8z m3056
-10 c-7 -21 -13 -19 -13 6 0 11 4 18 10 14 5 -3 7 -12 3 -20z m1187 13 c0 -5
-3 -8 -7 -9 -43 -4 -71 -13 -84 -25 -29 -26 -31 -14 -2 14 20 21 37 28 60 28
18 -1 33 -4 33 -8z m-5709 -31 c17 3 29 1 29 -5 0 -6 -10 -12 -22 -14 -20 -3
-24 -11 -29 -58 l-6 -55 -1 62 c-1 34 -7 63 -13 65 -6 2 -7 11 -2 23 7 19 8
19 11 -2 3 -19 8 -21 33 -16z m912 8 c-3 -9 -8 -14 -10 -11 -3 3 -2 9 2 15 9
16 15 13 8 -4z m4657 -1 c0 -2 -7 -4 -15 -4 -8 0 -15 4 -15 10 0 5 7 7 15 4 8
-4 15 -8 15 -10z m-5542 -86 l-2 -53 -5 50 -5 50 -6 -50 -7 -50 -1 53 c-2 40
1 52 13 52 12 0 15 -12 13 -52z m5602 42 c0 -4 -11 -7 -25 -5 -37 4 -40 12 -5
13 16 0 30 -3 30 -8z m-1175 -29 c-3 -6 -11 -11 -17 -11 -6 0 -6 6 2 15 14 17
26 13 15 -4z m1073 -5 c-16 -12 -16 -14 -1 -29 9 -9 14 -19 10 -23 -3 -3 -13
1 -22 10 -21 20 -55 21 -55 1 0 -13 -2 -14 -14 -3 -14 13 -11 32 4 23 4 -3 10
-2 12 2 4 11 72 42 78 36 3 -3 -3 -10 -12 -17z m211 -30 c6 -22 6 -35 1 -30
-4 5 -11 27 -14 49 -7 45 -2 38 13 -19z m-462 18 c-3 -3 -12 -4 -19 -1 -8 3
-5 6 6 6 11 1 17 -2 13 -5z m-5151 -259 c-12 -503 -27 -937 -36 -1022 -6 -50
-10 -141 -10 -202 0 -110 -7 -134 -30 -106 -9 11 -10 66 -5 227 4 117 9 258
10 313 2 55 8 217 14 360 6 143 11 356 11 474 l0 214 26 -24 26 -24 -6 -210z
m5641 223 c-3 -7 -5 -2 -5 12 0 14 2 19 5 13 2 -7 2 -19 0 -25z m-154 15 c-13
-2 -33 -2 -45 0 -13 2 -3 4 22 4 25 0 35 -2 23 -4z m-6066 -35 c-3 -7 -5 -2
-5 12 0 14 2 19 5 13 2 -7 2 -19 0 -25z m2040 26 c-3 -3 -12 -4 -19 -1 -8 3
-5 6 6 6 11 1 17 -2 13 -5z m3839 -6 c4 -7 3 -8 -5 -4 -6 4 -18 3 -25 -3 -7
-6 -22 -8 -32 -4 -17 6 -16 7 2 14 29 11 52 10 60 -3z m-2134 -25 c-3 -16 -7
-22 -10 -15 -4 13 4 42 11 42 2 0 2 -12 -1 -27z m2429 -85 l-9 -83 2 97 c0 53
4 90 9 83 4 -7 3 -51 -2 -97z m-5764 70 c-3 -7 -5 -2 -5 12 0 14 2 19 5 13 2
-7 2 -19 0 -25z m5393 12 c0 -5 -7 -10 -16 -10 -8 0 -12 5 -9 10 3 6 10 10 16
10 5 0 9 -4 9 -10z m-65 -16 c-11 -8 -20 -19 -20 -24 0 -16 -13 -22 -34 -15
-29 9 -27 35 3 35 14 0 28 5 31 10 3 6 14 10 23 10 15 -1 14 -3 -3 -16z m1400
6 l20 -9 -20 0 c-13 -1 -16 -4 -8 -9 6 -4 -9 -7 -32 -7 -48 0 -48 11 0 18 25
3 23 4 -11 6 -26 0 -46 -5 -54 -14 -10 -12 -10 -15 1 -16 8 0 3 -5 -10 -10
-13 -5 -26 -7 -29 -4 -3 3 0 5 7 5 7 0 9 5 6 10 -3 6 -15 10 -26 10 -11 0 -18
-4 -15 -9 3 -4 -7 -6 -22 -4 -21 4 -24 2 -12 -6 17 -12 10 -14 -14 -5 -23 9
-9 24 20 24 14 0 23 3 20 8 -2 4 14 6 37 5 38 -2 39 -1 12 6 -24 7 -15 9 40 9
39 0 79 -3 90 -8z m149 -1 c-5 -9 1 -10 22 -5 21 5 25 4 14 -4 -13 -9 -13 -11
-1 -19 11 -7 6 -11 -21 -16 -20 -4 -44 -5 -55 -2 -10 3 -1 5 20 6 21 0 36 5
33 10 -3 5 -14 7 -24 5 -9 -3 -28 0 -42 6 -22 9 -21 10 13 5 20 -3 37 -2 36 2
-2 13 1 23 7 23 3 0 2 -5 -2 -11z m-1067 -21 c-3 -8 -6 -5 -6 6 -1 11 2 17 5
13 3 -3 4 -12 1 -19z m-5534 -33 c-3 -8 -11 -15 -19 -15 -16 0 -19 16 -4 23 6
3 5 4 -2 3 -7 -2 -13 -12 -13 -23 0 -12 -3 -25 -8 -29 -4 -4 -7 13 -6 38 l2
45 28 -14 c18 -9 26 -19 22 -28z m6214 39 c-3 -3 -12 -4 -19 -1 -8 3 -5 6 6 6
11 1 17 -2 13 -5z m468 -4 c-4 -7 3 -9 22 -5 25 5 25 5 -6 -10 -19 -8 -36 -13
-39 -10 -3 3 0 5 8 5 10 0 10 3 0 15 -10 12 -9 15 4 15 10 0 14 -5 11 -10z
m-6887 -80 c1 -51 -1 -70 -7 -60 -6 8 -7 34 -4 57 4 34 2 44 -11 49 -22 8 -21
36 2 32 14 -3 17 -16 20 -78z m5162 76 c0 -2 -7 -6 -15 -10 -8 -3 -15 -1 -15
4 0 6 7 10 15 10 8 0 15 -2 15 -4z m1180 -9 c-25 -6 -49 -16 -53 -24 -5 -9
-27 -12 -65 -11 -43 1 -48 2 -19 5 24 3 35 8 31 15 -4 6 -3 9 2 5 5 -3 32 1
59 8 28 8 59 13 70 13 11 0 0 -5 -25 -11z m395 -5 c-3 -3 -11 0 -18 7 -9 10
-8 11 6 5 10 -3 15 -9 12 -12z m-6311 -6 c-10 -8 -21 -12 -24 -10 -5 6 21 24
34 24 6 0 1 -6 -10 -14z m119 -22 c44 4 78 2 117 -10 30 -9 67 -18 82 -21 15
-3 25 -9 22 -14 -8 -14 -50 -10 -64 6 -7 8 -21 15 -31 15 -10 0 -29 5 -43 11
-19 9 -40 9 -83 0 -39 -8 -59 -8 -61 -1 -2 6 -10 17 -18 24 -11 11 -11 15 -1
19 6 2 14 -5 15 -16 3 -17 9 -19 65 -13z m4575 6 c2 -23 -1 -28 -14 -23 -11 4
-12 8 -4 13 8 5 3 10 -12 14 -22 7 -22 7 -3 16 30 13 31 12 33 -20z m172 20
c-8 -5 -22 -9 -30 -9 -10 0 -8 3 5 9 27 12 43 12 25 0z m65 0 c3 -5 -1 -10 -9
-10 -9 0 -16 5 -16 10 0 6 4 10 9 10 6 0 13 -4 16 -10z m1050 0 c3 -5 1 -10
-4 -10 -6 0 -11 5 -11 10 0 6 2 10 4 10 3 0 8 -4 11 -10z m-6115 -21 c34 -7
33 -7 -9 -6 -28 1 -46 7 -49 16 -3 9 0 11 9 5 7 -4 29 -11 49 -15z m5438 -52
l-1 -62 -7 65 c-6 61 -7 62 -10 20 -3 -41 -4 -42 -7 -12 -5 40 3 66 17 57 5
-3 9 -34 8 -68z m910 66 c-10 -2 -26 -2 -35 0 -10 3 -2 5 17 5 19 0 27 -2 18
-5z m59 1 c-3 -3 -12 -4 -19 -1 -8 3 -5 6 6 6 11 1 17 -2 13 -5z m273 -9 c-8
-10 -6 -15 7 -18 14 -4 13 -5 -4 -6 -14 -1 -23 5 -23 13 0 8 -6 16 -12 19 -7
2 -1 4 15 4 21 0 25 -2 17 -12z m-7458 -35 c2 -22 0 -40 -4 -40 -5 0 -8 18 -8
40 0 22 2 40 4 40 2 0 6 -18 8 -40z m5266 15 c-3 -3 -9 2 -12 12 -6 14 -5 15
5 6 7 -7 10 -15 7 -18z m291 9 c10 -10 -8 -13 -43 -7 -26 4 -33 9 -24 15 12 7
57 2 67 -8z m678 -46 c-2 -13 -4 -3 -4 22 0 25 2 35 4 23 2 -13 2 -33 0 -45z
m1298 39 c4 5 5 2 1 -4 -5 -10 3 -13 29 -13 20 0 52 -10 74 -25 49 -30 59 -45
31 -45 -16 0 -20 5 -16 15 3 9 0 15 -8 15 -7 0 -19 7 -26 15 -8 10 -28 14 -61
13 -27 -1 -43 -6 -36 -10 7 -4 26 -6 42 -3 26 4 27 4 8 -5 -25 -10 -123 8
-123 23 0 5 11 6 24 3 25 -6 44 8 26 19 -5 3 -10 11 -10 17 0 6 8 4 18 -5 10
-10 22 -14 27 -10z m-6725 -23 c0 -2 -17 -4 -37 -3 -29 0 -33 2 -18 8 18 7 55
4 55 -5z m140 1 c0 -8 -9 -15 -20 -15 -11 0 -20 7 -20 15 0 8 9 15 20 15 11 0
20 -7 20 -15z m4497 9 c-3 -3 -12 -4 -19 -1 -8 3 -5 6 6 6 11 1 17 -2 13 -5z
m1123 -14 c-8 -6 -24 -10 -35 -9 -15 0 -13 3 10 13 32 14 49 11 25 -4z m86 2
c-23 -3 -26 -6 -15 -14 11 -8 10 -9 -4 -4 -10 3 -26 6 -35 7 -9 0 -1 6 18 13
19 7 42 10 50 7 9 -4 4 -7 -14 -9z m-5487 -8 c14 -13 -11 -12 -40 1 l-34 16
35 -7 c19 -3 37 -8 39 -10z m3741 12 c0 -2 -7 -7 -16 -10 -8 -3 -12 -2 -9 4 6
10 25 14 25 6z m483 -3 c-7 -2 -19 -2 -25 0 -7 3 -2 5 12 5 14 0 19 -2 13 -5z
m144 0 c-9 -2 -15 -9 -12 -14 4 -5 0 -9 -8 -9 -7 0 -14 7 -14 15 0 10 9 15 26
14 17 -1 20 -3 8 -6z m1190 1 c-3 -3 -12 -4 -19 -1 -8 3 -5 6 6 6 11 1 17 -2
13 -5z m673 -15 c0 -11 -4 -18 -10 -14 -5 3 -7 12 -3 20 7 21 13 19 13 -6z
m-6655 -7 c-3 -3 -11 0 -18 7 -9 10 -8 11 6 5 10 -3 15 -9 12 -12z m550 -1
c-3 -6 -11 -11 -16 -11 -5 0 -4 6 3 14 14 16 24 13 13 -3z m167 9 c22 -10 22
-10 -4 -5 -18 3 -28 1 -28 -7 0 -9 -3 -9 -12 0 -7 7 -21 12 -32 12 -14 0 -17
-3 -9 -8 6 -4 -7 -8 -30 -8 -23 0 -33 1 -23 4 11 2 14 7 8 11 -17 11 105 12
130 1z m3843 0 c-18 -8 -18 -9 5 -10 14 -1 19 -4 12 -7 -18 -7 -44 5 -37 17 3
5 14 10 23 9 14 0 13 -2 -3 -9z m-4645 -8 c0 -5 -7 -17 -16 -28 -8 -10 -14
-14 -11 -9 2 6 7 18 10 28 7 17 17 23 17 9z m53 2 c9 -9 -4 -35 -14 -28 -5 3
-9 12 -9 20 0 14 12 19 23 8z m97 -4 c0 -5 -2 -10 -4 -10 -3 0 -8 5 -11 10 -3
6 -1 10 4 10 6 0 11 -4 11 -10z m319 -6 c2 -2 -12 -4 -32 -4 -20 0 -39 5 -42
11 -5 7 5 8 32 3 21 -4 40 -8 42 -10z m4134 9 c3 -5 -6 -9 -19 -9 -13 -1 -21
2 -18 7 6 11 31 12 37 2z m147 -3 c0 -5 -9 -10 -19 -10 -11 0 -23 5 -26 10 -4
6 5 10 19 10 14 0 26 -4 26 -10z m1095 0 c-3 -5 -14 -10 -23 -10 -15 0 -15 2
-2 10 20 13 33 13 25 0z m90 0 c18 -8 17 -9 -7 -9 -16 -1 -28 4 -28 9 0 12 8
12 35 0z m123 3 c-10 -2 -28 -2 -40 0 -13 2 -5 4 17 4 22 1 32 -1 23 -4z
m-5083 -22 c47 -8 44 -9 -37 -10 -49 0 -88 3 -88 8 0 12 29 19 55 14 11 -2 43
-8 70 -12z m2125 -19 c0 -15 -4 -32 -8 -39 -4 -7 -7 8 -7 32 0 23 3 41 8 38 4
-2 7 -16 7 -31z m2636 23 c-3 -8 -1 -15 4 -15 6 0 10 -5 10 -11 0 -8 -4 -8
-12 -1 -7 5 -22 12 -33 14 -18 5 -18 6 5 16 33 14 33 14 26 -3z m51 9 c-3 -3
-12 -4 -19 -1 -8 3 -5 6 6 6 11 1 17 -2 13 -5z m1036 -1 c-7 -2 -19 -2 -25 0
-7 3 -2 5 12 5 14 0 19 -2 13 -5z m157 -18 c0 -12 -29 -3 -34 10 -4 13 -2 14
14 5 11 -6 20 -13 20 -15z m-2455 5 c3 -5 -1 -10 -10 -10 -9 0 -13 5 -10 10 3
6 8 10 10 10 2 0 7 -4 10 -10z m-45 -10 c8 -5 11 -10 5 -11 -5 0 1 -5 15 -9
l25 -8 -27 -1 c-16 -1 -28 4 -28 9 0 6 -12 10 -27 10 -22 0 -25 2 -13 10 8 5
20 10 25 10 6 0 17 -5 25 -10z m-5133 -37 c-3 -10 -5 -4 -5 12 0 17 2 24 5 18
2 -7 2 -21 0 -30z m4968 27 c-3 -5 -25 -11 -48 -11 -31 -2 -35 -3 -14 -6 34
-5 31 -27 -4 -30 l-24 -2 25 8 c23 7 22 8 -14 15 -28 5 -42 4 -48 -6 -7 -9
-11 -10 -14 -1 -3 7 -18 10 -42 6 -20 -3 -35 -3 -32 0 3 3 28 8 55 12 53 6
158 22 163 24 2 0 0 -3 -3 -9z m72 4 c-3 -3 -12 -4 -19 -1 -8 3 -5 6 6 6 11 1
17 -2 13 -5z m-3352 -19 c0 -5 -20 -11 -45 -11 l-45 -2 45 7 45 7 -40 6 -40 5
40 -1 c22 0 40 -5 40 -11z m45 5 c0 -5 -4 -10 -10 -10 -5 0 -10 5 -10 10 0 6
5 10 10 10 6 0 10 -4 10 -10z m120 3 c0 -5 -19 -7 -41 -5 -28 3 -39 1 -35 -7
8 -12 -36 -26 -56 -18 -7 3 0 6 16 6 19 1 27 5 23 14 -4 10 8 14 44 16 27 1
49 -2 49 -6z m5865 -4 c11 -17 -1 -21 -15 -4 -8 9 -8 15 -2 15 6 0 14 -5 17
-11z m-7055 -5 c0 -3 -7 -12 -15 -20 -16 -17 -18 -14 -9 10 6 15 24 23 24 10z
m36 -21 c-10 -10 -19 5 -10 18 6 11 8 11 12 0 2 -7 1 -15 -2 -18z m1222 12
c-2 -5 -7 -9 -12 -7 -4 1 -15 -3 -22 -9 -11 -9 -18 -9 -26 -1 -9 9 -7 12 10
12 12 0 22 5 22 11 0 6 7 9 16 7 8 -2 14 -7 12 -13z m3120 8 c-10 -2 -28 -2
-40 0 -13 2 -5 4 17 4 22 1 32 -1 23 -4z m69 -8 c0 -8 -9 -15 -19 -15 -16 0
-17 2 -6 15 17 19 25 19 25 0z m1080 -17 c-3 -7 -5 -2 -5 12 0 14 2 19 5 13 2
-7 2 -19 0 -25z m178 22 c7 -12 -12 -12 -40 0 -18 8 -17 9 7 9 15 1 30 -3 33
-9z m1270 0 c-3 -5 -13 -10 -21 -10 -8 0 -14 5 -14 10 0 6 9 10 21 10 11 0 17
-4 14 -10z m80 -28 c-2 -2 -12 1 -23 7 -15 8 -22 8 -25 -2 -2 -6 -8 -9 -12 -5
-4 4 -2 14 5 22 11 14 15 13 35 -2 13 -9 22 -18 20 -20z m-5885 24 c0 -11 -19
-15 -25 -6 -3 5 1 10 9 10 9 0 16 -2 16 -4z m160 -8 c0 -7 -12 -14 -27 -15
-26 -1 -27 0 -8 13 23 17 35 18 35 2z m68 -7 c7 -4 -4 -7 -24 -7 -20 0 -31 2
-24 4 9 3 9 6 -1 14 -15 10 26 1 49 -11z m3166 13 c23 -9 20 -24 -4 -24 -11 0
-20 7 -20 15 0 17 2 18 24 9z m-3764 -14 c0 -5 -4 -10 -10 -10 -5 0 -10 5 -10
10 0 6 5 10 10 10 6 0 10 -4 10 -10z m635 0 c-4 -6 5 -10 19 -10 14 0 26 -4
26 -10 0 -5 -6 -10 -14 -10 -8 0 -22 -10 -30 -22 -16 -22 -16 -21 -14 20 1 23
5 42 10 42 5 0 6 -4 3 -10z m2615 -11 c-14 -12 -18 -19 -10 -16 12 4 16 -4 17
-30 0 -20 -2 -31 -6 -27 -5 8 -56 34 -66 34 -2 0 -2 -8 0 -17 1 -10 0 -12 -2
-5 -3 7 -9 9 -15 6 -6 -4 -5 2 1 15 11 20 14 20 34 6 32 -23 58 -19 28 4 l-24
19 29 15 c39 22 44 21 14 -4z m323 14 c-7 -2 -19 -2 -25 0 -7 3 -2 5 12 5 14
0 19 -2 13 -5z m1189 -7 c7 4 8 2 4 -5 -4 -6 -2 -18 4 -26 8 -10 9 -15 2 -15
-13 0 -32 33 -31 52 0 10 2 10 6 0 2 -6 10 -9 15 -6z m106 -1 c9 1 11 0 5 -2
-7 -3 -13 -10 -13 -16 0 -7 -4 -6 -10 3 -5 8 -9 20 -9 25 0 6 3 5 5 -1 3 -7
13 -11 22 -9z m-5900 -53 c2 -29 -1 -52 -6 -52 -13 0 -22 26 -21 58 1 23 3 22
9 -8 l7 -35 2 42 c0 23 -4 44 -9 46 -6 3 -5 4 2 3 8 -2 14 -22 16 -54z m1245
51 c-7 -2 -19 -2 -25 0 -7 3 -2 5 12 5 14 0 19 -2 13 -5z m3474 1 c-3 -3 -12
-4 -19 -1 -8 3 -5 6 6 6 11 1 17 -2 13 -5z m-5150 -36 c-3 -7 -5 -2 -5 12 0
14 2 19 5 13 2 -7 2 -19 0 -25z m463 -10 c0 -24 3 -54 6 -68 5 -19 4 -22 -5
-14 -14 13 -24 124 -10 124 5 0 9 -19 9 -42z m17 -20 c-2 -13 -4 -3 -4 22 0
25 2 35 4 23 2 -13 2 -33 0 -45z m240 40 c-3 -8 -6 -5 -6 6 -1 11 2 17 5 13 3
-3 4 -12 1 -19z m1618 0 c7 -6 1 -8 -15 -4 -14 3 -54 8 -89 11 -36 3 -67 8
-70 11 -10 10 163 -7 174 -18z m-1655 2 c0 -5 -4 -10 -10 -10 -5 0 -10 5 -10
10 0 6 5 10 10 10 6 0 10 -4 10 -10z m7130 -33 c23 -26 23 -29 5 -25 -22 3
-55 28 -55 41 0 4 5 5 10 2 6 -3 10 -1 10 6 0 7 1 10 3 8 1 -2 13 -17 27 -32z
m-5522 16 c-10 -2 -26 -2 -35 0 -10 3 -2 5 17 5 19 0 27 -2 18 -5z m112 -3 c0
-5 19 -11 43 -12 l42 -1 -45 -4 c-26 -3 -39 -8 -32 -12 7 -4 -7 -8 -33 -8 -54
0 -60 14 -7 19 36 4 36 4 12 15 -24 11 -24 12 -2 12 12 1 22 -3 22 -9z m88 3
c-10 -2 -26 -2 -35 0 -10 3 -2 5 17 5 19 0 27 -2 18 -5z m67 -3 c8 -13 -5 -13
-25 0 -13 8 -13 10 2 10 9 0 20 -4 23 -10z m169 -10 c5 -5 -1 -6 -14 -3 -16 4
-21 3 -16 -5 4 -7 1 -12 -9 -12 -9 0 -13 5 -10 10 3 6 -3 10 -14 10 -15 0 -19
-5 -15 -17 4 -11 3 -14 -3 -7 -11 15 -44 21 -61 10 -17 -10 -24 -3 -17 15 4
11 23 13 78 11 39 -2 76 -7 81 -12z m3593 -2 c-3 -8 -6 -5 -6 6 -1 11 2 17 5
13 3 -3 4 -12 1 -19z m-4157 -10 c0 -19 -2 -20 -10 -8 -13 19 -13 30 0 30 6 0
10 -10 10 -22z m-2167 -91 c-3 -105 -5 -118 -12 -62 -7 61 -1 177 8 152 4 -10
6 -51 4 -90z m657 36 c0 -25 5 -43 11 -43 8 0 8 -5 -1 -15 -21 -26 -25 -17
-26 55 0 38 3 64 8 57 4 -6 8 -31 8 -54z m1658 60 c-10 -2 -28 -2 -40 0 -13 2
-5 4 17 4 22 1 32 -1 23 -4z m217 -2 c-3 -5 3 -12 12 -14 14 -4 14 -5 2 -6 -8
0 -24 6 -35 14 -18 14 -18 14 4 15 13 0 21 -4 17 -9z m285 -1 c0 -5 8 -10 18
-11 11 0 12 -2 4 -6 -7 -3 -19 1 -27 7 -12 10 -15 10 -15 -1 0 -12 -2 -12 -9
0 -5 7 -13 11 -19 7 -6 -3 -13 -2 -17 4 -4 6 8 10 29 10 20 0 36 -4 36 -10z
m80 0 c0 -13 -20 -13 -40 0 -12 8 -9 10 13 10 15 0 27 -4 27 -10z m76 -5 c14
-13 13 -15 -5 -15 -12 0 -21 4 -21 9 0 5 -8 12 -17 14 -13 3 -12 5 5 6 13 0
30 -6 38 -14z m31 9 c-3 -3 -12 -4 -19 -1 -8 3 -5 6 6 6 11 1 17 -2 13 -5z
m50 -9 c2 -6 -6 -11 -17 -11 -11 0 -20 6 -20 14 0 15 32 13 37 -3z m37 -1 c5
-14 4 -15 -9 -4 -17 14 -19 20 -6 20 5 0 12 -7 15 -16z m33 10 c-3 -3 -12 -4
-19 -1 -8 3 -5 6 6 6 11 1 17 -2 13 -5z m1425 -6 c20 -16 30 -49 20 -64 -15
-23 -116 -66 -189 -80 -93 -18 -100 -17 -107 1 -23 61 108 144 245 154 8 0 22
-5 31 -11z m1755 -10 c-3 -8 -6 -5 -6 6 -1 11 2 17 5 13 3 -3 4 -12 1 -19z
m-5597 2 c0 -5 -5 -10 -11 -10 -5 0 -7 5 -4 10 3 6 8 10 11 10 2 0 4 -4 4 -10z
m2510 0 c0 -5 -12 -10 -27 -9 l-28 1 25 8 c14 4 26 8 28 9 1 1 2 -3 2 -9z m60
0 c0 -5 -4 -10 -10 -10 -5 0 -10 5 -10 10 0 6 5 10 10 10 6 0 10 -4 10 -10z
m60 0 c0 -5 -4 -10 -10 -10 -5 0 -10 5 -10 10 0 6 5 10 10 10 6 0 10 -4 10
-10z m100 -4 c8 -2 -9 -4 -37 -5 -29 0 -53 3 -53 7 0 7 52 6 90 -2z m200 -1
c0 -8 -2 -15 -4 -15 -2 0 -6 7 -10 15 -3 8 -1 15 4 15 6 0 10 -7 10 -15z
m-1013 -1 c-3 -3 -12 -4 -19 -1 -8 3 -5 6 6 6 11 1 17 -2 13 -5z m520 0 c-3
-3 -12 -4 -19 -1 -8 3 -5 6 6 6 11 1 17 -2 13 -5z m376 -1 c-7 -2 -21 -2 -30
0 -10 3 -4 5 12 5 17 0 24 -2 18 -5z m74 1 c-3 -3 -12 -4 -19 -1 -8 3 -5 6 6
6 11 1 17 -2 13 -5z m2640 0 c-3 -3 -12 -4 -19 -1 -8 3 -5 6 6 6 11 1 17 -2
13 -5z m786 -11 c-7 -2 -19 -2 -25 0 -7 3 -2 5 12 5 14 0 19 -2 13 -5z m187
-3 c0 -5 -19 -9 -42 -9 l-43 2 35 7 c19 4 38 8 43 9 4 0 7 -3 7 -9z m99 -6
c10 -9 -45 -3 -59 6 -11 7 -5 8 20 4 19 -4 37 -8 39 -10z m124 7 c17 -6 16 -8
-9 -20 -28 -12 -28 -13 -9 -27 10 -8 14 -14 9 -14 -6 0 -14 3 -18 8 -4 4 -31
12 -59 18 l-52 11 35 10 c38 11 53 7 30 -7 -22 -14 4 -12 35 2 24 11 25 13 8
19 -12 5 -13 8 -3 8 8 0 23 -4 33 -8z m-346 -7 c-3 -3 -12 -4 -19 -1 -8 3 -5
6 6 6 11 1 17 -2 13 -5z m-2441 -30 c-4 -9 -9 -15 -11 -12 -3 3 -3 13 1 22 4
9 9 15 11 12 3 -3 3 -13 -1 -22z m2184 16 c0 -5 -5 -10 -11 -10 -5 0 -7 5 -4
10 3 6 8 10 11 10 2 0 4 -4 4 -10z m80 0 c0 -5 -4 -10 -10 -10 -5 0 -10 5 -10
10 0 6 5 10 10 10 6 0 10 -4 10 -10z m265 -5 c6 -2 -19 -3 -55 -4 -36 0 -74 4
-85 8 -19 8 118 4 140 -4z m81 3 c5 -7 0 -9 -14 -6 -12 3 -23 1 -25 -6 -2 -6
-8 -7 -13 -3 -9 9 13 27 33 27 6 0 15 -5 19 -12z m649 -19 c19 -17 34 -38 34
-48 -1 -14 -2 -14 -6 0 -2 8 -21 26 -43 40 -22 13 -40 27 -40 32 0 15 20 6 55
-24z m-4237 -59 c0 -22 -1 -22 -8 5 l-8 30 -1 -34 c-1 -43 -6 -38 -14 14 -4
27 -3 35 3 25 8 -12 10 -8 11 15 l1 30 8 -30 c4 -16 8 -41 8 -55z m-3251 38
c-3 -7 -5 -2 -5 12 0 14 2 19 5 13 2 -7 2 -19 0 -25z m3350 0 c-3 -7 -5 -2 -5
12 0 14 2 19 5 13 2 -7 2 -19 0 -25z m3241 25 c-10 -2 -28 -2 -40 0 -13 2 -5
4 17 4 22 1 32 -1 23 -4z m130 -10 c-10 -2 -28 -2 -40 0 -13 2 -5 4 17 4 22 1
32 -1 23 -4z m-6680 -68 l-1 -40 -7 45 c-4 25 -8 39 -8 31 -1 -8 -4 -12 -7 -9
-3 3 -2 13 1 22 11 28 24 -2 22 -49z m6435 51 c4 -10 -9 -15 -49 -20 -30 -3
-65 -4 -78 0 -13 3 -27 1 -31 -6 -4 -7 -11 -8 -18 -2 -7 6 -21 12 -32 15 -11
2 12 3 50 1 47 -2 78 2 95 11 32 18 56 19 63 1z m125 7 c-10 -2 -26 -2 -35 0
-10 3 -2 5 17 5 19 0 27 -2 18 -5z m867 -3 c8 -13 -5 -13 -25 0 -13 8 -13 10
2 10 9 0 20 -4 23 -10z m-7406 -117 c-1 -72 -4 -97 -9 -76 -7 29 -2 183 6 183
2 0 4 -48 3 -107z m7049 86 c3 -11 2 -11 -7 1 -10 13 -12 13 -21 0 -5 -8 -10
-21 -10 -29 0 -11 -4 -10 -14 4 -12 17 -11 21 8 31 26 14 38 12 44 -7z m-7111
-41 c-2 -13 -4 -5 -4 17 -1 22 1 32 4 23 2 -10 2 -28 0 -40z m3068 6 c9 -14
15 -15 32 -6 17 9 22 9 26 -3 4 -9 -3 -15 -21 -18 -35 -6 -92 -6 -69 0 18 5
24 33 7 33 -5 0 -10 10 -10 23 1 20 2 20 13 5 7 -9 17 -24 22 -34z m145 11 c0
-33 -15 -33 -16 0 -1 14 2 25 7 25 5 0 9 -11 9 -25z m970 15 c0 -5 -5 -10 -11
-10 -5 0 -7 5 -4 10 3 6 8 10 11 10 2 0 4 -4 4 -10z m44 -6 c3 -8 2 -12 -3 -9
-5 3 -12 1 -16 -5 -3 -5 -10 -10 -16 -10 -5 0 -4 9 3 20 15 24 24 25 32 4z
m-79 -16 c-1 -12 -8 -24 -16 -26 -11 -3 -11 -1 1 7 13 9 13 11 -2 11 -10 0
-18 -4 -18 -10 0 -5 -6 -10 -12 -10 -9 1 38 49 48 50 0 0 0 -10 -1 -22z
m-3920 2 c3 -5 1 -10 -4 -10 -6 0 -11 5 -11 10 0 6 2 10 4 10 3 0 8 -4 11 -10z
m2942 -12 c-3 -8 -6 -5 -6 6 -1 11 2 17 5 13 3 -3 4 -12 1 -19z m3124 6 c-34
-14 -61 -13 -61 3 0 4 21 9 48 10 l47 2 -34 -15z m814 6 c3 -5 1 -10 -4 -10
-6 0 -11 5 -11 10 0 6 2 10 4 10 3 0 8 -4 11 -10z m432 -20 c-3 -11 3 -29 14
-41 21 -25 24 -35 9 -44 -6 -3 -7 1 -4 9 3 9 1 16 -5 16 -6 0 -11 -4 -11 -9 0
-5 -8 -12 -17 -15 -15 -6 -15 -4 2 14 10 11 15 23 11 27 -4 4 -11 1 -17 -7 -7
-11 -8 -7 -3 13 5 21 3 27 -10 27 -9 0 -16 5 -16 11 0 6 9 8 20 4 11 -4 20 -2
20 4 0 6 3 11 6 11 4 0 4 -9 1 -20z m-7307 -15 c0 -8 -2 -15 -4 -15 -2 0 -6 7
-10 15 -3 8 -1 15 4 15 6 0 10 -7 10 -15z m3997 9 c-3 -3 -12 -4 -19 -1 -8 3
-5 6 6 6 11 1 17 -2 13 -5z m2673 -20 c51 -17 168 -119 188 -164 6 -14 23 -52
38 -85 36 -80 42 -186 19 -315 -10 -52 -21 -126 -25 -165 -4 -38 -16 -122 -28
-185 -11 -63 -25 -158 -31 -211 -11 -98 -37 -172 -108 -304 -60 -113 -145
-204 -280 -302 -36 -27 -85 -63 -109 -80 -46 -34 -161 -95 -204 -108 -14 -4
-38 -13 -55 -21 -16 -8 -75 -30 -130 -50 -55 -20 -117 -42 -138 -50 -44 -16
-197 -96 -302 -157 -43 -26 -91 -45 -125 -50 -90 -14 -212 -19 -222 -9 -11 11
19 137 43 172 9 14 25 45 37 70 44 97 75 167 89 200 23 52 52 171 53 208 0 43
42 168 85 253 35 70 67 177 85 289 6 36 22 99 35 140 12 41 26 95 29 120 11
72 26 199 33 271 5 57 9 68 29 78 13 5 34 27 48 48 33 51 147 167 226 229 151
118 185 135 334 166 64 13 306 36 325 31 8 -2 36 -11 61 -19z m205 8 c-3 -3
-11 0 -18 7 -9 10 -8 11 6 5 10 -3 15 -9 12 -12z m-4217 -6 c35 -8 44 -26 12
-26 -11 0 -20 5 -20 10 0 13 -81 13 -100 0 -11 -8 -7 -9 15 -4 17 4 27 3 22
-1 -15 -16 -74 -31 -93 -24 -17 7 -17 8 4 8 13 1 21 5 18 10 -3 5 6 12 19 15
14 4 24 10 21 14 -5 9 58 8 102 -2z m123 -3 c6 -6 -9 -7 -41 -3 -65 8 -76 20
-15 16 25 -2 51 -8 56 -13z m1050 10 c-11 -4 -11 -7 0 -14 7 -4 10 -11 6 -16
-5 -4 -12 -1 -16 6 -5 8 -14 10 -21 6 -9 -6 -9 -9 1 -16 10 -6 8 -9 -8 -9 -16
0 -21 4 -16 16 6 15 37 33 58 33 6 -1 4 -3 -4 -6z m2093 -8 c-4 -8 -2 -15 4
-15 6 0 12 4 14 8 2 5 17 12 33 16 28 6 28 5 -9 -17 -34 -21 -42 -23 -54 -11
-7 8 -18 14 -23 14 -5 0 -9 5 -9 10 0 6 11 10 25 10 18 0 23 -4 19 -15z m993
9 c-3 -3 -12 -4 -19 -1 -8 3 -5 6 6 6 11 1 17 -2 13 -5z m29 -31 c-11 -11 -19
6 -11 24 8 17 8 17 12 0 3 -10 2 -21 -1 -24z m-4436 17 c-8 -5 -19 -10 -25
-10 -5 0 -3 5 5 10 8 5 20 10 25 10 6 0 3 -5 -5 -10z m579 -28 c5 -10 11 -31
13 -47 3 -26 -2 -32 -37 -48 -22 -11 -41 -23 -43 -28 -2 -5 -8 -9 -14 -9 -16
0 -107 -99 -140 -152 -16 -27 -33 -48 -37 -48 -3 0 -28 -18 -55 -41 -63 -51
-175 -106 -246 -119 -84 -16 -195 2 -240 39 -34 28 -35 30 -34 98 1 42 8 81
18 101 21 41 130 131 167 139 16 3 32 10 35 14 3 5 13 9 22 9 9 0 30 7 46 15
32 17 163 35 294 41 59 3 101 11 140 28 70 29 98 31 111 8z m3854 -45 c-3 -6
-17 3 -30 19 -33 41 -29 53 7 19 16 -15 26 -33 23 -38z m-7132 -61 c5 -6 9
-39 8 -75 -1 -57 -2 -61 -9 -32 -5 19 -6 49 -3 68 6 37 -13 47 -20 11 -2 -13
-3 -7 -1 12 2 19 5 55 6 80 l2 45 3 -50 c2 -27 8 -54 14 -59z m3999 79 c0 -2
-17 -1 -37 1 -31 5 -35 3 -23 -6 13 -10 12 -11 -3 -6 -10 3 -21 6 -25 6 -3 0
3 6 13 14 14 10 26 11 47 4 15 -6 28 -11 28 -13z m30 5 c0 -5 -2 -10 -4 -10
-3 0 -8 5 -11 10 -3 6 -1 10 4 10 6 0 11 -4 11 -10z m-1490 -25 c0 -8 -4 -15
-9 -15 -5 0 -11 7 -15 15 -3 9 0 15 9 15 8 0 15 -7 15 -15z m65 5 c-3 -5 -1
-10 4 -10 6 0 11 5 11 12 0 6 3 8 6 5 8 -7 -14 -37 -26 -37 -5 0 -7 8 -5 18 5
23 4 22 11 22 3 0 2 -4 -1 -10z m3469 -5 c-4 -8 -11 -15 -16 -15 -6 0 -5 6 2
15 7 8 14 15 16 15 2 0 1 -7 -2 -15z m1096 -24 c0 -47 -14 -60 -31 -30 -8 16
-8 23 1 29 6 4 11 10 11 14 -3 18 0 26 9 26 6 0 10 -18 10 -39z m-6980 25 c0
-3 -4 -8 -10 -11 -5 -3 -10 -1 -10 4 0 6 5 11 10 11 6 0 10 -2 10 -4z m3728
-16 c10 -17 10 -20 -5 -20 -9 0 -13 3 -10 7 4 3 -1 12 -11 19 -14 11 -14 13
-2 14 8 0 21 -9 28 -20z m3678 -151 c8 -47 14 -103 11 -125 -3 -37 -4 -36 -6
11 -1 28 -7 59 -12 70 -6 14 -8 0 -6 -47 2 -39 -1 -64 -6 -61 -6 3 -7 42 -4
92 4 59 2 102 -7 136 -8 28 -15 44 -15 38 -1 -7 -5 -13 -11 -13 -9 0 -8 5 6
48 8 24 29 -40 50 -149z m-8047 96 l0 -20 -9 20 c-5 11 -9 29 -9 40 l0 20 9
-20 c5 -11 9 -29 9 -40z m3031 50 c0 -5 -55 -35 -65 -35 -16 0 -1 18 23 27 32
13 42 15 42 8z m-2392 -54 c0 -27 -3 -53 -7 -59 -5 -9 -7 57 -3 96 4 30 10 8
10 -37z m3666 25 c-3 -9 -15 -16 -26 -16 -19 0 -19 1 3 19 27 22 32 21 23 -3z
m36 14 c0 -5 -4 -10 -10 -10 -5 0 -10 5 -10 10 0 6 5 10 10 10 6 0 10 -4 10
-10z m2160 0 c0 -5 -4 -10 -10 -10 -5 0 -10 5 -10 10 0 6 5 10 10 10 6 0 10
-4 10 -10z m-2110 -20 c0 -5 -5 -10 -11 -10 -5 0 -7 5 -4 10 3 6 8 10 11 10 2
0 4 -4 4 -10z m1808 -30 c8 0 13 -3 9 -6 -10 -10 -48 7 -40 19 5 8 8 8 11 -1
2 -7 11 -12 20 -12z m36 11 c4 -5 -3 -7 -14 -4 -23 6 -26 13 -6 13 8 0 17 -4
20 -9z m120 -6 c8 -8 19 -15 25 -15 15 0 14 17 -1 23 -7 2 3 4 22 4 23 1 29
-1 17 -6 -10 -4 -17 -10 -15 -13 5 -11 -73 -89 -83 -83 -12 8 -2 25 15 25 8 0
19 7 26 16 11 12 10 18 -4 32 -15 15 -18 15 -26 2 -7 -11 -9 -10 -7 8 2 26 10
28 31 7z m116 11 c0 -2 -7 -6 -15 -10 -8 -3 -15 -1 -15 4 0 6 7 10 15 10 8 0
15 -2 15 -4z m-3535 -16 c-3 -5 -10 -10 -16 -10 -5 0 -9 5 -9 10 0 6 7 10 16
10 8 0 12 -4 9 -10z m1301 -8 c0 -14 -6 -17 -30 -14 l-29 5 29 13 c16 7 29 13
29 13 1 1 1 -7 1 -17z m3441 -19 c-3 -10 -5 -4 -5 12 0 17 2 24 5 18 2 -7 2
-21 0 -30z m-47 6 c0 -13 4 -18 12 -13 8 5 9 2 5 -9 -3 -10 -3 -17 2 -17 4 0
6 -13 3 -30 -2 -16 -8 -28 -12 -25 -5 3 -6 13 -3 23 2 10 -3 31 -11 47 -18 35
-20 45 -6 45 6 0 10 -9 10 -21z m-1382 -5 c-2 -8 -6 -15 -10 -15 -5 1 -20 1
-35 1 -41 0 -10 22 40 29 5 0 7 -6 5 -15z m-2428 -1 c-8 -3 -18 -11 -22 -17
-4 -6 -26 -11 -48 -12 -28 0 -36 2 -25 8 8 5 24 6 35 3 14 -5 20 -2 20 9 0 11
9 16 28 15 16 0 21 -3 12 -6z m345 -3 c-3 -5 0 -10 7 -10 9 0 9 -3 -2 -10 -8
-5 -22 -9 -30 -9 -10 0 -8 3 5 9 18 8 18 9 -5 10 l-25 2 25 8 c14 4 26 8 28 9
2 1 0 -3 -3 -9z m3854 -35 l0 -20 -9 20 c-5 11 -9 27 -9 35 -1 13 0 13 9 0 5
-8 9 -24 9 -35z m-5138 -12 c-8 -15 -9 -12 -7 12 5 39 7 44 13 23 2 -10 0 -25
-6 -35z m1005 32 c19 -14 19 -14 -3 -15 -12 0 -25 5 -28 10 -5 8 -11 7 -21 -1
-9 -7 -14 -8 -14 -1 0 10 16 20 36 21 5 1 19 -6 30 -14z m324 11 c0 -3 -4 -8
-10 -11 -5 -3 -10 -1 -10 4 0 6 5 11 10 11 6 0 10 -2 10 -4z m-3771 -46 c0
-10 -3 -8 -9 5 -12 27 -12 43 0 25 5 -8 9 -22 9 -30z m2417 -28 c-11 -10 -15
4 -8 28 l7 25 3 -23 c2 -13 1 -26 -2 -30z m3316 -39 c-5 -10 -7 -43 -6 -73 4
-67 -5 -160 -15 -160 -11 0 -1 233 10 245 5 5 10 25 11 45 l1 35 4 -37 c2 -20
0 -45 -5 -55z m1497 43 c-9 -8 -10 -7 -5 7 3 10 7 24 7 30 1 7 3 4 6 -7 3 -10
-1 -23 -8 -30z m-1359 6 c0 -15 -52 -83 -58 -77 -10 9 -10 95 -1 95 11 0 19
-29 10 -34 -9 -6 -12 -56 -4 -56 2 0 9 14 14 30 6 17 16 30 22 30 5 0 2 10 -9
21 -19 22 -19 22 4 10 12 -6 22 -15 22 -19z m-2636 2 c9 -22 8 -23 -14 -17
-11 3 -20 0 -20 -6 0 -6 -5 -11 -10 -11 -11 0 20 49 31 50 4 0 10 -7 13 -16z
m-3255 -34 c0 -10 -3 -8 -9 5 -12 27 -12 43 0 25 5 -8 9 -22 9 -30z m2411 23
c0 -7 -4 -13 -9 -13 -5 0 -11 6 -14 13 -3 8 1 14 9 14 8 0 14 -6 14 -14z
m-2376 -35 c8 -6 8 -8 -1 -8 -6 0 -13 -8 -16 -17 -2 -10 -4 0 -4 22 0 22 2 33
5 25 3 -8 10 -18 16 -22z m2382 0 c5 -7 3 -8 -6 -3 -9 5 -11 0 -8 -21 3 -16 3
-23 1 -16 -3 6 -9 12 -14 12 -6 0 -5 8 1 20 12 23 16 24 26 8z m-2814 -23 l5
20 -1 -20 c-1 -29 -21 -25 -23 5 l-2 25 8 -25 c7 -23 8 -23 13 -5z m40 -7 c-9
-9 -12 -7 -12 12 0 19 3 21 12 12 9 -9 9 -15 0 -24z m6031 -22 c3 -30 1 -43
-4 -35 -8 13 -13 97 -5 88 2 -2 6 -26 9 -53z m36 -28 c-2 -78 -2 -80 -9 -33
-12 72 -11 115 0 115 6 0 9 -33 9 -82z m1525 67 c3 -8 1 -15 -4 -15 -6 0 -10
7 -10 15 0 8 2 15 4 15 2 0 6 -7 10 -15z m-4036 -15 c13 0 13 -3 4 -12 -10
-10 -15 -10 -22 2 -5 8 -9 20 -9 25 0 6 3 4 6 -2 2 -7 12 -13 21 -13z m4389
-32 c-2 -13 -4 -5 -4 17 -1 22 1 32 4 23 2 -10 2 -28 0 -40z m-4424 2 c-3 -11
-9 -18 -13 -15 -5 3 -6 14 -3 25 3 11 9 18 13 15 5 -3 6 -14 3 -25z m-776 -2
c-3 -8 -6 -5 -6 6 -1 11 2 17 5 13 3 -3 4 -12 1 -19z m-2727 2 c0 -5 -4 -10
-10 -10 -5 0 -10 5 -10 10 0 6 5 10 10 10 6 0 10 -4 10 -10z m560 -2 c0 -4 -7
-8 -15 -8 -8 0 -15 4 -15 8 0 5 7 9 15 9 8 0 15 -4 15 -9z m7039 -48 c1 -13 0
-13 -9 0 -5 8 -9 26 -9 40 l1 25 8 -25 c4 -14 8 -32 9 -40z m-7639 19 c0 -14
-17 -10 -23 5 -4 10 -1 13 9 9 7 -3 14 -9 14 -14z m30 -83 c-6 -6 -11 -21 -11
-35 -2 -23 -2 -24 -6 -4 -2 12 0 30 5 40 5 10 6 29 1 43 l-7 25 -1 -24 c-1
-13 -4 -22 -7 -18 -3 3 -2 21 2 39 l7 33 14 -45 c8 -29 10 -47 3 -54z m337 47
c-3 -10 -5 -2 -5 17 0 19 2 27 5 18 2 -10 2 -26 0 -35z m213 -25 c0 -51 -3
-68 -10 -58 -16 24 -11 130 6 130 2 0 4 -33 4 -72z m2212 22 c3 -17 1 -30 -3
-30 -5 0 -13 -15 -19 -32 -10 -34 -8 -17 6 50 4 17 2 23 -4 14 -6 -9 -9 -4 -9
17 0 39 23 24 29 -19z m728 36 c0 -3 -4 -8 -10 -11 -5 -3 -10 -1 -10 4 0 6 5
11 10 11 6 0 10 -2 10 -4z m40 -6 c0 -5 -4 -10 -10 -10 -5 0 -10 5 -10 10 0 6
5 10 10 10 6 0 10 -4 10 -10z m4407 -12 c-3 -8 -6 -5 -6 6 -1 11 2 17 5 13 3
-3 4 -12 1 -19z m-7569 -158 c0 -88 -12 -228 -17 -195 -1 6 -6 3 -12 -5 -9
-12 -9 -11 -3 5 10 29 17 152 7 138 -5 -7 -9 28 -9 80 -1 101 2 102 16 6 9
-60 9 -58 6 36 -2 56 0 87 4 70 4 -16 8 -77 8 -135z m7610 135 c2 -10 0 -15
-6 -11 -6 4 -15 -2 -21 -11 -12 -20 -14 -9 -5 25 7 26 27 24 32 -3z m-4543
-16 c-20 -18 -39 -28 -43 -24 -9 9 44 55 64 55 9 0 0 -13 -21 -31z m85 27 c0
-3 -4 -8 -10 -11 -5 -3 -10 -1 -10 4 0 6 5 11 10 11 6 0 10 -2 10 -4z m4103
-94 c7 -9 7 -16 0 -20 -5 -4 -13 -14 -16 -22 -3 -8 -5 17 -5 55 1 39 3 54 5
35 3 -19 10 -41 16 -48z m-7656 36 c-3 -8 -6 -5 -6 6 -1 11 2 17 5 13 3 -3 4
-12 1 -19z m3473 -3 c-7 -9 -15 -13 -17 -11 -6 6 20 36 26 30 2 -2 -2 -10 -9
-19z m4247 3 c-3 -8 -6 -5 -6 6 -1 11 2 17 5 13 3 -3 4 -12 1 -19z m287 -77
c-4 -52 -10 -87 -15 -80 -4 7 -5 17 -3 21 3 5 -2 16 -11 25 -10 9 -14 24 -11
37 3 12 6 31 6 44 0 14 4 20 10 17 7 -4 9 -26 6 -53 -4 -37 -3 -40 3 -17 5 17
9 48 10 69 0 22 3 37 6 34 3 -3 3 -47 -1 -97z m-5190 63 c4 -9 4 -19 1 -22 -3
-3 -5 1 -5 9 0 11 -2 11 -10 -1 -8 -12 -10 -11 -10 8 0 26 15 29 24 6z m611
-4 c10 -11 15 -23 11 -27 -3 -4 -13 3 -22 15 -8 12 -20 19 -26 16 -7 -4 -8 -2
-4 4 10 17 20 15 41 -8z m-3388 -32 c-3 -7 -5 -2 -5 12 0 14 2 19 5 13 2 -7 2
-19 0 -25z m7663 7 c0 -8 -4 -15 -10 -15 -5 0 -10 7 -10 15 0 8 5 15 10 15 6
0 10 -7 10 -15z m-4326 -7 c-3 -4 -19 -8 -35 -8 -17 0 -44 -7 -61 -16 -21 -11
-33 -12 -39 -5 -5 6 -7 9 -3 7 3 -2 23 4 45 13 40 18 102 24 93 9z m-3344 -55
c0 -44 -5 -41 -14 10 -5 27 -4 37 3 32 6 -3 11 -22 11 -42z m2845 27 c-28 -12
-37 -12 -30 0 3 6 16 10 28 9 21 0 21 -1 2 -9z m345 -10 c0 -5 -8 -10 -17 -10
-15 0 -16 2 -3 10 19 12 20 12 20 0z m2902 -56 c-6 -11 -11 -13 -16 -5 -4 6
-2 11 3 11 6 0 12 15 12 33 2 29 2 30 6 5 2 -15 0 -35 -5 -44z m-5532 31 c0
-14 -4 -25 -10 -25 -5 0 -10 11 -10 25 0 14 5 25 10 25 6 0 10 -11 10 -25z
m2377 10 c0 -9 -10 -15 -24 -15 -17 0 -22 -4 -17 -12 4 -7 3 -10 -1 -5 -20 18
-11 43 15 45 18 1 27 -3 27 -13z m42 6 c9 -6 11 -16 7 -27 -6 -15 -9 -16 -16
-4 -5 8 -7 17 -4 21 2 4 -2 10 -8 12 -7 3 -8 6 -3 6 6 0 16 -3 24 -8z m306 -1
c-3 -5 -16 -10 -28 -10 -18 0 -19 2 -7 10 20 13 43 13 35 0z m-440 -23 c16 -5
15 -5 -4 -4 -14 1 -26 9 -28 17 -3 10 -2 11 4 4 4 -7 17 -14 28 -17z m297 16
c-6 -2 -9 -10 -6 -15 4 -7 2 -8 -4 -4 -18 11 -14 26 6 25 10 0 12 -3 4 -6z
m88 3 c0 -2 -6 -9 -13 -15 -10 -8 -14 -7 -14 4 0 8 6 15 14 15 7 0 13 -2 13
-4z m-132 -13 c-10 -2 -26 -2 -35 0 -10 3 -2 5 17 5 19 0 27 -2 18 -5z m89 1
c-3 -3 -12 -4 -19 -1 -8 3 -5 6 6 6 11 1 17 -2 13 -5z m-70 -20 c-3 -3 -12 -4
-19 -1 -8 3 -5 6 6 6 11 1 17 -2 13 -5z m146 -1 c-7 -2 -21 -2 -30 0 -10 3 -4
5 12 5 17 0 24 -2 18 -5z m2791 -48 c-5 -21 -9 -24 -15 -13 -11 19 1 62 13 50
5 -5 6 -22 2 -37z m1523 -32 c-2 -16 -4 -3 -4 27 0 30 2 43 4 28 2 -16 2 -40
0 -55z m-7019 -6 c1 -29 8 -66 16 -82 16 -31 9 -45 -26 -45 -15 0 -18 8 -17
48 1 38 2 42 9 22 7 -21 8 -18 9 18 1 26 -3 41 -9 37 -5 -3 -10 3 -10 15 0 12
5 18 10 15 6 -3 10 1 10 9 0 9 1 16 3 16 2 0 4 -24 5 -53z m-478 39 c0 -3 -4
-8 -10 -11 -5 -3 -10 -1 -10 4 0 6 5 11 10 11 6 0 10 -2 10 -4z m7882 -11 c0
-5 -5 -11 -11 -13 -6 -2 -11 4 -11 13 0 9 5 15 11 13 6 -2 11 -8 11 -13z
m-7904 -63 c2 -29 -1 -52 -5 -52 -5 0 -9 8 -10 18 -1 9 -4 34 -9 56 -6 31 -4
38 7 34 9 -3 15 -23 17 -56z m6020 -2 c-5 -30 -12 -74 -15 -97 -3 -24 -9 -40
-14 -37 -5 3 -6 10 -3 16 5 7 1 9 -9 5 -22 -8 -21 2 3 33 11 14 20 34 20 45 0
23 20 99 24 93 2 -1 -1 -28 -6 -58z m-31 8 c-3 -7 -5 -2 -5 12 0 14 2 19 5 13
2 -7 2 -19 0 -25z m1904 -1 c-6 -6 -12 -25 -12 -41 -1 -26 -3 -27 -6 -8 -5 26
18 93 25 73 2 -7 -1 -18 -7 -24z m-7868 3 c-3 -11 -7 -20 -9 -20 -2 0 -4 9 -4
20 0 11 4 20 9 20 5 0 7 -9 4 -20z m7484 -22 c-3 -8 -6 -5 -6 6 -1 11 2 17 5
13 3 -3 4 -12 1 -19z m41 -13 c-3 -3 -9 2 -12 12 -6 14 -5 15 5 6 7 -7 10 -15
7 -18z m347 -47 c-4 -24 -12 -47 -18 -53 -7 -7 -8 -5 -4 7 3 9 9 33 13 52 9
51 17 45 9 -6z m-7646 16 c9 -8 -55 -2 -74 6 -13 6 -5 7 25 3 25 -3 47 -7 49
-9z m311 6 c0 -5 -4 -10 -10 -10 -5 0 -10 5 -10 10 0 6 5 10 10 10 6 0 10 -4
10 -10z m30 0 c0 -5 -5 -10 -11 -10 -5 0 -7 5 -4 10 3 6 8 10 11 10 2 0 4 -4
4 -10z m6922 -32 c-2 -29 0 -38 6 -30 6 9 7 -5 4 -39 -3 -37 -2 -50 7 -45 14
9 14 1 1 -25 -8 -13 -7 -25 0 -39 7 -14 7 -20 0 -20 -5 0 -10 3 -11 8 0 4 -2
38 -5 77 -6 84 -14 98 -14 25 0 -29 -3 -51 -6 -47 -8 8 6 177 15 177 3 0 5
-19 3 -42z m-7358 23 c3 -5 -1 -14 -9 -21 -13 -10 -15 -9 -15 9 0 21 14 28 24
12z m5803 -13 c-3 -8 -6 -5 -6 6 -1 11 2 17 5 13 3 -3 4 -12 1 -19z m1580 -10
c-3 -8 -6 -5 -6 6 -1 11 2 17 5 13 3 -3 4 -12 1 -19z m-7247 -8 c0 -11 -4 -20
-8 -20 -4 0 -8 9 -8 20 0 11 4 20 8 20 4 0 8 -9 8 -20z m290 10 c0 -5 -4 -10
-9 -10 -6 0 -13 5 -16 10 -3 6 1 10 9 10 9 0 16 -4 16 -10z m-375 -9 c-16 -7
-17 -9 -5 -13 8 -3 5 -3 -7 -1 -24 4 -32 -12 -10 -20 6 -3 8 -6 2 -6 -5 0 -17
4 -25 9 -13 9 -12 12 4 25 11 8 29 15 40 14 21 0 21 -1 1 -8z m-165 -17 c0 -2
-7 -4 -15 -4 -8 0 -15 4 -15 10 0 5 7 7 15 4 8 -4 15 -8 15 -10z m567 -10 c-9
-9 -28 6 -21 18 4 6 10 6 17 -1 6 -6 8 -13 4 -17z m53 7 c7 -14 7 -22 0 -26
-19 -12 -39 3 -33 24 7 26 19 27 33 2z m-512 -21 c12 0 10 -4 -8 -13 -27 -15
-44 -12 -20 3 10 7 11 10 3 10 -7 0 -13 8 -13 18 1 16 1 16 11 0 5 -10 18 -18
27 -18z m409 24 c-3 -3 -12 -4 -19 -1 -8 3 -5 6 6 6 11 1 17 -2 13 -5z m-510
-20 c-3 -3 -12 -4 -19 -1 -8 3 -5 6 6 6 11 1 17 -2 13 -5z m43 -60 c-17 -31
-41 -28 -51 8 -5 21 -3 27 12 31 12 3 19 0 19 -9 0 -8 5 -14 11 -14 7 0 9 11
5 28 -5 26 -5 26 6 4 9 -17 8 -28 -2 -48z m7771 -14 c5 0 9 -8 9 -17 -1 -16
-2 -16 -15 1 -9 11 -14 38 -13 60 l1 41 4 -42 c2 -24 8 -43 14 -43z m-7165 46
c10 -8 16 -17 12 -21 -7 -7 -48 16 -48 27 0 12 14 9 36 -6z m6851 -8 c-3 -8
-6 -5 -6 6 -1 11 2 17 5 13 3 -3 4 -12 1 -19z m-1567 -58 c0 -51 -21 -135 -27
-108 -3 9 1 26 6 37 7 13 8 28 2 45 -7 17 -7 26 2 30 9 3 9 7 -2 14 -8 6 -11
17 -6 32 11 34 25 5 25 -50z m-5232 35 c-1 -14 -6 -24 -11 -22 -5 1 -8 6 -8
10 1 4 1 14 1 22 0 8 4 15 10 15 5 0 9 -11 8 -25z m-482 -23 c6 -4 14 -23 18
-43 10 -54 49 -122 80 -139 26 -15 28 -14 62 22 18 21 34 47 34 57 0 11 5 23
10 26 6 3 10 18 10 33 0 46 12 55 60 47 42 -7 79 -33 141 -100 46 -50 70 -91
170 -290 72 -143 103 -216 124 -295 15 -58 34 -122 42 -142 12 -29 14 -69 10
-190 -8 -244 -33 -408 -71 -461 -8 -12 -29 -41 -46 -65 -16 -23 -30 -45 -30
-49 0 -15 -148 -145 -196 -173 -82 -46 -185 -62 -327 -50 -62 6 -125 15 -142
22 -32 13 -136 80 -165 107 -9 9 -34 29 -54 44 -20 16 -47 45 -60 65 -13 20
-35 49 -48 63 -14 15 -35 53 -47 85 -13 33 -27 68 -31 79 -9 21 -19 65 -46
185 -12 59 -14 103 -9 205 6 123 9 137 57 270 28 77 60 158 72 182 70 139 126
254 126 261 0 5 8 17 18 28 10 10 33 45 51 77 58 102 145 167 187 139z m539
-22 c-16 -16 -31 -27 -34 -24 -5 5 47 54 57 54 3 0 -7 -13 -23 -30z m25 -40
c21 -21 27 -35 10 -25 -5 3 -10 1 -10 -5 0 -6 -10 -3 -23 7 -18 13 -21 20 -13
30 14 16 13 16 36 -7z m72 -52 c2 -58 1 -63 -6 -94 -4 -14 -3 -23 2 -20 12 7
49 -20 39 -30 -4 -4 -14 1 -22 12 -15 19 -15 19 -8 -1 4 -11 17 -29 30 -40 24
-21 30 -49 14 -59 -5 -4 -12 7 -16 24 -4 16 -11 30 -16 30 -19 0 -33 57 -33
137 -1 84 13 119 16 41z m6918 17 c-7 -8 -17 -15 -22 -15 -6 0 -5 7 2 15 7 8
17 15 22 15 6 0 5 -7 -2 -15z m-6940 -25 c0 -16 -4 -30 -9 -30 -5 0 -7 -10 -5
-22 4 -22 4 -22 -6 1 -7 17 -7 27 1 37 6 8 9 21 5 29 -3 8 -1 15 4 15 6 0 10
-13 10 -30z m6972 12 c-7 -2 -12 -11 -12 -20 0 -12 -3 -13 -11 -5 -13 13 10
45 26 35 5 -3 4 -7 -3 -10z m-385 -24 c-3 -8 -6 -5 -6 6 -1 11 2 17 5 13 3 -3
4 -12 1 -19z m3 -64 c0 -24 -4 -44 -9 -44 -4 0 -6 11 -4 24 3 13 0 27 -6 30
-17 11 -14 46 4 40 10 -4 15 -20 15 -50z m361 42 c5 3 9 -4 9 -15 0 -11 -4
-23 -10 -26 -5 -3 -10 3 -10 14 0 12 -5 21 -11 21 -5 0 -7 5 -3 12 6 9 9 9 12
0 2 -7 8 -10 13 -6z m-1941 -46 c-6 -12 -14 -19 -17 -17 -2 3 1 15 7 27 6 12
14 19 17 17 2 -3 -1 -15 -7 -27z m37 8 c-3 -8 -6 -5 -6 6 -1 11 2 17 5 13 3
-3 4 -12 1 -19z m-7 -34 c0 -8 -4 -12 -10 -9 -5 3 -10 10 -10 16 0 5 5 9 10 9
6 0 10 -7 10 -16z m-30 -94 c-10 -23 -10 -22 -5 9 3 18 6 43 7 55 1 12 3 9 5
-9 2 -17 -1 -42 -7 -55z m1911 34 c-5 -21 -9 -30 -10 -19 -1 24 10 67 15 62 3
-2 0 -22 -5 -43z m-6811 17 c0 -5 -7 -11 -15 -15 -9 -3 -15 0 -15 9 0 8 7 15
15 15 8 0 15 -4 15 -9z m6462 -13 c-7 -7 -12 -8 -12 -2 0 14 12 26 19 19 2 -3
-1 -11 -7 -17z m-6465 -40 c-3 -8 -6 -5 -6 6 -1 11 2 17 5 13 3 -3 4 -12 1
-19z m6463 8 c0 -8 -4 -16 -9 -18 -13 -5 -24 -48 -12 -48 5 0 12 8 14 18 4 13
5 11 6 -5 1 -17 -5 -23 -20 -23 -19 0 -21 4 -15 33 4 17 11 34 16 35 6 2 8 8
4 13 -3 5 0 9 5 9 6 0 11 -6 11 -14z m300 0 c0 -3 -4 -8 -10 -11 -5 -3 -10 -1
-10 4 0 6 5 11 10 11 6 0 10 -2 10 -4z m36 -20 c6 -24 -21 -86 -38 -86 -12 0
-10 18 3 26 6 3 9 14 6 24 -3 13 0 17 9 13 17 -6 19 18 2 35 -9 9 -9 12 0 12
6 0 14 -11 18 -24z m-6809 -28 c-7 -25 7 -55 37 -80 12 -9 16 -17 10 -18 -26
0 -68 71 -59 100 9 27 19 25 12 -2z m6740 -30 c-3 -8 -6 -5 -6 6 -1 11 2 17 5
13 3 -3 4 -12 1 -19z m33 12 c0 -5 -4 -10 -10 -10 -5 0 -10 5 -10 10 0 6 5 10
10 10 6 0 10 -4 10 -10z m-1880 -21 c0 -6 -4 -7 -10 -4 -6 4 -10 -6 -10 -22 0
-54 -10 -73 -39 -72 -23 2 -24 2 -4 6 14 3 25 14 29 29 8 29 -3 45 -16 24 -8
-13 -10 -12 -10 3 0 10 5 24 12 30 14 16 48 20 48 6z m-4800 -29 c0 -5 -7 -10
-15 -10 -8 0 -15 5 -15 10 0 6 7 10 15 10 8 0 15 -4 15 -10z m6314 -48 c-7
-20 -13 -45 -14 -54 0 -10 -4 -18 -9 -18 -16 0 -23 19 -16 41 6 17 9 19 17 8
7 -10 8 -8 5 8 -3 13 -1 26 4 29 5 3 9 15 9 27 0 16 3 18 9 9 5 -8 3 -29 -5
-50z m356 28 c0 -26 -10 -50 -21 -50 -6 0 -5 9 1 20 6 12 8 30 4 42 -4 14 -2
18 5 14 6 -4 11 -16 11 -26z m-6687 -28 c-17 -12 -20 -21 -13 -32 8 -12 10
-12 11 5 1 17 2 16 9 -5 4 -14 8 -32 9 -40 1 -13 0 -13 -9 0 -8 13 -10 13 -10
-2 0 -9 5 -20 10 -23 6 -3 10 -16 10 -28 0 -16 -5 -11 -19 18 -29 65 -33 92
-15 109 8 9 21 16 27 16 7 0 2 -8 -10 -18z m4770 -39 c-7 -2 -19 -2 -25 0 -7
3 -2 5 12 5 14 0 19 -2 13 -5z m1886 -26 c-7 -15 -16 -24 -21 -21 -5 3 -16 0
-24 -7 -8 -6 -17 -9 -20 -7 -3 3 10 16 28 29 18 13 35 27 37 32 1 4 5 6 7 4 3
-2 -1 -16 -7 -30z m-322 1 c-3 -8 -6 -5 -6 6 -1 11 2 17 5 13 3 -3 4 -12 1
-19z m-1577 0 c0 -9 4 -8 10 2 14 21 12 10 -6 -44 -19 -55 -27 -57 -15 -4 6
23 5 40 -2 47 -8 8 -8 11 1 11 7 0 12 -6 12 -12z m1497 -64 c-1 -20 -3 -32 -5
-25 -7 20 -19 12 -36 -24 -9 -19 -21 -35 -26 -35 -16 0 -12 9 25 57 19 25 35
50 35 54 0 5 2 9 4 9 2 0 4 -16 3 -36z m374 17 c-7 -5 -10 -14 -7 -20 4 -6 2
-11 -4 -11 -6 0 -9 -4 -6 -8 2 -4 0 -14 -6 -22 -8 -12 -9 -12 -4 3 3 10 0 17
-7 17 -8 0 -8 3 2 9 7 5 11 13 7 19 -6 10 8 20 29 21 6 0 4 -3 -4 -8z m-294
-37 c-3 -3 -12 -4 -19 -1 -8 3 -5 6 6 6 11 1 17 -2 13 -5z m-6268 -37 c0 -21
-1 -21 -9 -2 -12 28 -12 37 0 30 6 -3 10 -16 9 -28z m23 8 c-2 -14 -6 -25 -8
-25 -2 0 -4 11 -4 25 0 14 4 25 9 25 4 0 6 -11 3 -25z m4588 15 c0 -5 -2 -10
-4 -10 -3 0 -8 5 -11 10 -3 6 -1 10 4 10 6 0 11 -4 11 -10z m25 -20 c-4 -12
-9 -19 -12 -17 -3 3 -2 15 2 27 4 12 9 19 12 17 3 -3 2 -15 -2 -27z m30 20 c3
-5 1 -10 -4 -10 -6 0 -11 5 -11 10 0 6 2 10 4 10 3 0 8 -4 11 -10z m-55 -30
c0 -5 -4 -10 -10 -10 -5 0 -10 5 -10 10 0 6 5 10 10 10 6 0 10 -4 10 -10z
m1560 3 c-1 -14 -30 -47 -36 -41 -3 3 3 16 13 27 19 23 23 25 23 14z m-1519
-34 c-9 -22 -10 -22 -10 -3 -1 11 2 24 6 27 12 12 14 0 4 -24z m-4645 -26 c-3
-4 -6 -1 -6 5 0 7 -4 12 -8 12 -5 0 -7 -15 -5 -32 l3 -33 -11 28 c-8 21 -8 31
2 43 11 14 13 14 22 -1 5 -9 6 -19 3 -22z m4624 23 c0 -9 -9 -14 -21 -13 -19
1 -19 2 -3 14 22 16 24 16 24 -1z m1478 -20 c-2 -10 -7 -13 -17 -7 -8 6 -11
16 -7 27 8 21 30 4 24 -20z m362 10 c0 -2 -9 -6 -20 -9 -11 -3 -20 -1 -20 4 0
5 9 9 20 9 11 0 20 -2 20 -4z m22 -18 c-7 -7 -12 -8 -12 -2 0 14 12 26 19 19
2 -3 -1 -11 -7 -17z m-6465 -30 c-3 -7 -5 -2 -5 12 0 14 2 19 5 13 2 -7 2 -19
0 -25z m4573 -5 c-11 -17 -11 -17 -6 0 3 10 6 24 7 30 0 9 2 9 5 0 3 -7 0 -20
-6 -30z m20 -10 c-11 -17 -11 -17 -6 0 3 10 7 26 7 35 1 15 2 15 6 0 2 -10 -1
-25 -7 -35z m1450 32 c0 -8 -7 -15 -16 -15 -14 0 -14 3 -4 15 7 8 14 15 16 15
2 0 4 -7 4 -15z m406 -13 c1 -7 0 -8 -3 -2 -8 16 -26 12 -19 -5 7 -20 -13 -65
-30 -65 -17 0 -27 17 -14 25 5 3 10 1 10 -5 0 -6 5 -8 11 -5 6 4 8 14 5 22 -3
8 -1 11 4 8 6 -3 10 -2 10 4 0 5 -5 13 -10 16 -15 9 -1 27 18 23 8 -2 17 -9
18 -16z m-446 -37 c-6 -7 -7 -21 -3 -31 7 -18 6 -18 -12 -1 -18 18 -19 18 -34
-1 -18 -23 -60 -46 -68 -38 -3 3 5 10 18 15 14 5 30 20 38 34 14 26 50 48 64
40 4 -3 3 -11 -3 -18z m-6006 -112 c3 -57 -10 -46 -17 14 -4 27 -9 62 -12 78
-4 24 -2 22 10 -10 9 -22 17 -59 19 -82z m4 81 c-3 -14 -5 -12 -10 9 -3 19 -2
25 4 19 6 -6 8 -18 6 -28z m6370 -11 c15 -33 15 -43 1 -43 -5 0 -8 3 -5 8 2 4
-2 16 -10 27 -13 17 -16 18 -24 5 -8 -13 -10 -13 -10 2 0 14 11 24 30 27 3 1
11 -11 18 -26z m-1804 -18 c-4 -17 -10 -23 -16 -17 -6 6 -5 17 3 30 17 27 22
22 13 -13z m1419 1 c4 -10 0 -12 -14 -9 -22 6 -26 23 -5 23 8 0 16 -6 19 -14z
m367 -16 c0 -5 -4 -10 -10 -10 -5 0 -10 5 -10 10 0 6 5 10 10 10 6 0 10 -4 10
-10z m-1863 -32 c-3 -8 -6 -5 -6 6 -1 11 2 17 5 13 3 -3 4 -12 1 -19z m1393
12 c0 -5 -5 -10 -11 -10 -5 0 -8 -4 -5 -9 3 -5 -3 -11 -14 -14 -11 -3 -20 -1
-20 4 0 6 -6 4 -14 -3 -8 -7 -12 -16 -9 -20 2 -5 -6 -8 -19 -8 -23 1 -22 1 6
26 16 14 34 23 41 20 8 -3 16 2 19 10 6 16 26 19 26 4z m485 -10 c-3 -5 -11
-10 -16 -10 -6 0 -7 5 -4 10 3 6 11 10 16 10 6 0 7 -4 4 -10z m-1835 -33 c0
-5 -4 -5 -10 -2 -5 3 -10 14 -10 23 0 15 2 15 10 2 5 -8 10 -19 10 -23z m1380
-9 c0 -5 -4 -8 -10 -8 -5 0 -10 10 -10 23 0 18 2 19 10 7 5 -8 10 -18 10 -22z
m-1400 -13 c4 3 4 -11 0 -31 -8 -35 -20 -57 -20 -36 0 5 -3 19 -6 29 -5 15 -4
15 5 3 9 -13 11 -13 11 2 0 9 -4 19 -10 23 -5 3 -6 13 -2 23 6 16 7 16 10 -1
2 -9 7 -15 12 -12z m1357 9 c-3 -3 -12 -4 -19 -1 -8 3 -5 6 6 6 11 1 17 -2 13
-5z m443 -19 c0 -10 -66 -75 -76 -75 -4 0 -3 5 3 11 6 6 9 18 6 25 -3 9 2 14
16 14 12 0 21 6 21 15 0 8 7 15 15 15 8 0 15 -2 15 -5z m-554 -29 c-1 -22 -2
-22 -23 -8 -26 16 -30 27 -8 18 8 -3 15 -1 15 4 0 6 4 10 9 10 5 0 8 -11 7
-24z m-5754 -16 c3 -17 1 -33 -4 -36 -4 -3 -8 11 -8 30 0 44 6 47 12 6z m5714
-7 c-7 -7 -26 7 -26 19 0 6 6 6 15 -2 9 -7 13 -15 11 -17z m-32 -15 c-3 -4
-11 -8 -19 -8 -7 0 -20 -6 -27 -12 -27 -26 -52 -43 -44 -30 5 8 0 12 -16 12
-22 1 -22 1 -3 12 11 7 29 13 39 13 11 1 22 7 24 13 2 7 14 11 27 10 13 -1 21
-6 19 -10z m-1262 -10 c-7 -7 -12 -21 -12 -32 0 -10 -3 -17 -6 -13 -10 10 5
57 18 57 9 0 9 -3 0 -12z m1770 -10 c-7 -7 -12 -8 -12 -2 0 14 12 26 19 19 2
-3 -1 -11 -7 -17z m-6178 -50 c-11 -17 -24 -6 -24 19 0 26 1 26 14 8 8 -11 12
-23 10 -27z m4466 32 c0 -5 -4 -10 -10 -10 -5 0 -10 5 -10 10 0 6 5 10 10 10
6 0 10 -4 10 -10z m1710 -4 c0 -2 -7 -9 -15 -16 -12 -10 -15 -10 -15 4 0 9 7
16 15 16 8 0 15 -2 15 -4z m-660 -16 c-14 -4 -19 -8 -11 -9 8 -1 12 -3 10 -6
-3 -2 -16 -1 -29 2 -22 6 -23 7 -4 14 10 4 28 7 39 7 16 0 15 -2 -5 -8z m60
-10 c12 -8 11 -10 -7 -10 -13 0 -23 5 -23 10 0 13 11 13 30 0z m-1130 -6 c0
-8 -19 -13 -24 -6 -3 5 1 9 9 9 8 0 15 -2 15 -3z m1193 -1 c-7 -2 -19 -2 -25
0 -7 3 -2 5 12 5 14 0 19 -2 13 -5z m-213 -8 c0 -2 -12 -11 -27 -20 l-28 -16
28 6 c15 3 27 1 27 -5 0 -11 -24 -13 -57 -4 -33 9 -28 21 15 32 20 5 38 10 40
11 1 1 2 -1 2 -4z m676 -2 c-15 -4 -16 -7 -5 -14 10 -6 5 -12 -21 -23 -19 -8
-46 -26 -59 -40 -14 -14 -30 -26 -36 -26 -7 0 -24 -11 -39 -25 -15 -14 -28
-25 -30 -25 -8 0 -3 51 5 56 5 3 7 10 4 15 -4 5 2 9 11 9 14 0 15 -3 6 -12
-16 -16 -15 -28 2 -28 7 0 16 10 19 21 4 14 11 20 21 16 9 -4 21 4 30 19 11
15 26 24 44 24 l27 1 -23 12 c-29 17 -21 24 26 24 20 0 28 -2 18 -4z m-6116
-13 c0 -5 -2 -10 -4 -10 -3 0 -8 5 -11 10 -3 6 -1 10 4 10 6 0 11 -4 11 -10z
m4430 -29 c-6 -12 -15 -21 -20 -21 -14 0 -12 7 7 30 21 24 29 19 13 -9z
m-4430 -1 c0 -5 -4 -10 -10 -10 -5 0 -10 5 -10 10 0 6 5 10 10 10 6 0 10 -4
10 -10z m5370 -11 c12 -8 10 -9 -9 -4 -16 5 -21 4 -17 -4 4 -6 0 -11 -8 -11
-9 0 -16 7 -16 15 0 17 28 20 50 4z m-85 -7 c6 -4 2 -15 -12 -29 -22 -21 -23
-21 -23 -3 0 11 -4 20 -10 20 -5 0 -10 -12 -10 -27 -1 -24 -2 -26 -11 -10 -10
17 -12 17 -40 0 -35 -21 -37 -33 -6 -34 17 -1 18 -2 4 -6 -29 -7 -46 4 -40 26
3 12 17 22 34 26 16 4 29 10 29 14 0 7 46 28 65 30 6 0 15 -3 20 -7z m-5285
-12 c0 -5 -4 -10 -9 -10 -6 0 -13 5 -16 10 -3 6 1 10 9 10 9 0 16 -4 16 -10z
m4348 -12 c15 -15 16 -38 2 -38 -5 0 -10 9 -10 19 0 11 -6 22 -12 24 -7 3 -8
6 -2 6 5 1 15 -4 22 -11z m55 5 c-7 -2 -13 -12 -13 -22 0 -9 -4 -21 -9 -26 -5
-6 -11 -19 -14 -30 -3 -11 -5 0 -4 25 2 43 13 59 42 59 6 -1 4 -3 -2 -6z
m-4403 -55 c0 -5 -4 -7 -9 -3 -5 3 -12 1 -16 -5 -3 -5 -1 -10 4 -10 6 0 11 -4
11 -10 0 -5 -7 -10 -16 -10 -12 0 -15 6 -10 23 3 12 6 28 6 36 0 11 3 11 15 1
8 -7 15 -17 15 -22z m4327 10 c-3 -8 -6 -5 -6 6 -1 11 2 17 5 13 3 -3 4 -12 1
-19z m790 -12 c0 -8 -10 -13 -24 -12 -29 1 -29 4 0 16 12 5 22 9 23 9 0 1 1
-5 1 -13z m-775 -33 c-6 -3 -10 -9 -6 -14 3 -5 0 -9 -5 -9 -15 0 -14 27 2 33
6 2 14 2 17 -1 3 -2 -1 -7 -8 -9z m694 1 c-4 -9 -1 -24 6 -33 10 -13 10 -14
-2 -3 -8 6 -25 12 -39 13 l-26 1 28 11 c15 6 27 14 27 19 0 4 3 8 6 8 3 0 3
-7 0 -16z m807 9 c-7 -2 -21 -2 -30 0 -10 3 -4 5 12 5 17 0 24 -2 18 -5z m57
0 c0 -5 -15 -18 -33 -29 -30 -19 -33 -20 -33 -4 0 10 6 16 13 13 7 -3 13 0 13
5 0 6 8 13 18 15 9 3 18 5 20 6 1 0 2 -2 2 -6z m-92 -34 c-11 -8 -11 -10 0
-18 9 -5 3 -8 -18 -7 l-31 1 23 19 c22 18 22 19 2 14 -13 -3 -21 0 -21 7 0 10
7 10 30 3 21 -8 25 -13 15 -19z m-5815 -28 c3 8 6 9 6 2 1 -19 -19 -26 -25 -9
-3 9 -10 13 -15 10 -11 -6 -11 -1 -2 22 6 16 9 14 19 -10 8 -20 13 -25 17 -15z
m4377 35 c0 -3 -4 -8 -10 -11 -5 -3 -10 -1 -10 4 0 6 5 11 10 11 6 0 10 -2 10
-4z m625 -35 c-8 -7 -56 10 -50 18 3 5 16 4 29 -2 14 -7 23 -14 21 -16z m-656
-13 c-17 -34 -19 -34 -19 -5 0 18 5 27 15 27 13 0 14 -4 4 -22z m1446 2 c-4
-6 -28 -20 -53 -32 -26 -12 -50 -23 -54 -25 -5 -2 -8 0 -8 5 0 5 18 15 40 22
22 7 40 17 40 21 0 4 8 10 18 12 9 3 18 5 20 6 2 0 0 -4 -3 -9z m-5834 -41
c-6 -16 -10 -18 -10 -7 -1 22 12 55 16 42 2 -6 -1 -22 -6 -35z m5609 37 c0 -2
-9 -6 -20 -9 -11 -3 -20 -1 -20 4 0 5 9 9 20 9 11 0 20 -2 20 -4z m90 -6 c8
-5 11 -10 5 -10 -5 0 -17 5 -25 10 -8 5 -10 10 -5 10 6 0 17 -5 25 -10z m40 0
c0 -5 -2 -10 -4 -10 -3 0 -8 5 -11 10 -3 6 -1 10 4 10 6 0 11 -4 11 -10z m-77
-26 c-17 -13 -17 -15 0 -28 17 -14 17 -15 -5 -21 -36 -10 -99 -35 -139 -56
-38 -20 -66 -23 -93 -13 -23 9 -20 24 4 24 11 0 20 -4 20 -10 0 -16 33 -11 63
9 20 13 25 20 15 24 -7 4 0 3 16 0 19 -4 27 -2 22 5 -3 6 -2 13 4 17 5 3 10 2
10 -3 0 -5 17 -5 41 2 l41 11 -22 17 c-17 14 -19 18 -6 18 9 0 16 7 16 15 0 9
6 12 15 9 14 -6 13 -8 -2 -20z m-743 6 c8 -5 11 -10 5 -10 -5 0 -17 5 -25 10
-8 5 -10 10 -5 10 6 0 17 -5 25 -10z m-4890 -15 c0 -8 -4 -15 -10 -15 -5 0
-10 7 -10 15 0 8 5 15 10 15 6 0 10 -7 10 -15z m4473 8 c-7 -2 -21 -2 -30 0
-10 3 -4 5 12 5 17 0 24 -2 18 -5z m382 -3 c23 -10 14 -13 -32 -10 -20 1 -33
-3 -33 -10 0 -8 10 -10 28 -6 24 5 25 4 6 -5 -16 -8 -29 -7 -50 4 l-29 15 35
10 c43 13 50 13 75 2z m-245 -19 c30 0 51 -3 47 -7 -8 -9 -147 -12 -141 -3 2
4 -15 6 -37 6 -28 0 -37 -3 -27 -9 9 -6 6 -7 -9 -3 -15 4 -23 1 -26 -12 -4
-15 -5 -14 -6 4 -1 28 13 33 84 28 33 -3 85 -4 115 -4z m124 1 c3 -5 -8 -6
-25 -4 -16 2 -29 6 -29 8 0 8 49 4 54 -4z m936 -2 c8 -5 11 -10 5 -10 -5 0
-17 5 -25 10 -8 5 -10 10 -5 10 6 0 17 -5 25 -10z m-957 -17 c-7 -2 -21 -2
-30 0 -10 3 -4 5 12 5 17 0 24 -2 18 -5z m-4716 -9 c-3 -3 -12 -4 -19 -1 -8 3
-5 6 6 6 11 1 17 -2 13 -5z m5473 -4 c0 -5 -10 -10 -22 -9 -22 0 -22 1 -3 9
11 5 21 9 23 9 1 1 2 -3 2 -9z m-2847 -7 c-7 -2 -21 -2 -30 0 -10 3 -4 5 12 5
17 0 24 -2 18 -5z m1774 -25 c-3 -7 -5 -2 -5 12 0 14 2 19 5 13 2 -7 2 -19 0
-25z m-4464 -6 c-3 -12 -9 -22 -14 -22 -5 0 -3 11 3 25 13 30 20 28 11 -3z
m2888 18 c10 -6 19 -16 19 -22 0 -9 -3 -9 -12 0 -7 7 -20 12 -30 12 -10 0 -18
5 -18 10 0 13 16 13 41 0z m-168 -7 c-7 -2 -19 -2 -25 0 -7 3 -2 5 12 5 14 0
19 -2 13 -5z m102 -3 c-3 -6 1 -13 9 -16 9 -3 16 -11 16 -16 0 -6 -7 -5 -15 2
-11 9 -36 11 -86 6 -40 -3 -68 -2 -65 3 3 4 32 9 63 10 32 0 60 6 61 11 2 6 8
10 13 10 6 0 7 -5 4 -10z m1605 -27 c-11 -17 -11 -17 -6 0 3 10 6 24 7 30 0 9
2 9 5 0 3 -7 0 -20 -6 -30z m1110 27 c-8 -5 -22 -9 -30 -9 -10 0 -8 3 5 9 27
12 43 12 25 0z m-2930 -31 c0 -3 -12 -11 -26 -17 -14 -7 -23 -8 -19 -2 3 5 1
10 -5 10 -6 0 -8 5 -4 11 4 8 9 7 15 -2 7 -11 11 -8 15 9 5 18 9 20 15 10 5
-7 9 -16 9 -19z m53 10 c5 -3 2 -9 -7 -12 -12 -5 -16 0 -16 15 0 12 3 17 8 12
4 -5 11 -12 15 -15z m-2598 -9 c3 -5 -1 -10 -10 -10 -9 0 -13 5 -10 10 3 6 8
10 10 10 2 0 7 -4 10 -10z m2822 -9 c-1 -12 -6 -17 -16 -13 -10 4 -11 7 -3 10
7 2 10 8 6 13 -3 5 -1 9 5 9 5 0 9 -9 8 -19z m-2914 -16 c-3 -9 -8 -14 -10
-11 -3 3 -2 9 2 15 9 16 15 13 8 -4z m2270 8 c-7 -2 -19 -2 -25 0 -7 3 -2 5
12 5 14 0 19 -2 13 -5z m107 -3 c20 -6 21 -8 5 -8 -11 0 -33 4 -50 8 -27 7
-27 8 -5 8 14 0 36 -4 50 -8z m123 -10 c7 0 6 4 -3 10 -20 13 -4 13 21 -1 15
-8 24 -7 36 3 14 11 15 11 11 -2 -4 -14 -18 -17 -83 -22 -11 -1 -22 -4 -25 -8
-7 -8 -120 0 -120 9 0 4 25 6 57 3 48 -4 55 -3 50 11 -5 14 -2 15 19 7 14 -6
31 -10 37 -10z m2932 10 c15 -6 10 -8 -20 -8 -22 0 -53 -2 -70 -6 -28 -6 -27
-5 5 8 40 17 57 18 85 6z m-5395 -15 c0 -8 -2 -15 -4 -15 -2 0 -6 7 -10 15 -3
8 -1 15 4 15 6 0 10 -7 10 -15z m2939 -12 c1 -1 0 -7 -4 -13 -5 -8 -13 -6 -26
6 -26 24 -24 37 4 22 12 -7 24 -14 26 -15z m2516 17 c-3 -5 -10 -10 -16 -10
-5 0 -9 5 -9 10 0 6 7 10 16 10 8 0 12 -4 9 -10z m-3230 -9 c11 -5 25 -4 32 1
7 6 18 8 25 6 9 -3 6 -8 -7 -15 -23 -12 -95 -5 -95 8 0 11 18 11 45 0z m-2255
-20 c-5 -11 -15 -23 -22 -27 -7 -5 -8 -2 -3 7 21 37 44 55 25 20z m5435 9
c-28 -12 -37 -12 -30 0 3 6 16 10 28 9 21 0 21 -1 2 -9z m-2630 -10 c36 -14
71 -50 151 -155 37 -49 71 -92 74 -95 9 -7 121 -169 120 -172 -1 -2 17 -23 40
-47 l42 -44 -7 -88 c-4 -48 -8 -155 -10 -236 -3 -166 -20 -362 -35 -408 -6
-17 -22 -38 -38 -47 -35 -21 -230 -79 -357 -107 -106 -23 -140 -32 -304 -80
-176 -52 -189 -47 -253 92 -26 56 -55 122 -65 146 -10 25 -47 106 -82 180
l-64 136 -1 320 c-1 176 0 344 3 372 3 50 6 54 50 81 43 27 95 41 261 71 30 6
98 20 150 32 98 22 266 56 287 58 6 1 23 -3 38 -9z m2558 -4 c4 -10 1 -13 -9
-9 -15 6 -19 23 -5 23 5 0 11 -7 14 -14z m-5340 -9 c3 -8 -1 -14 -8 -14 -7 0
-11 6 -8 14 3 7 6 13 8 13 2 0 5 -6 8 -13z m2197 3 c0 -5 -7 -10 -15 -10 -8 0
-15 5 -15 10 0 6 7 10 15 10 8 0 15 -4 15 -10z m130 -5 c-46 -18 -59 -18 -36
0 11 8 31 15 45 14 24 0 23 -2 -9 -14z m2973 0 c4 -8 2 -17 -3 -20 -6 -4 -10
3 -10 14 0 25 6 27 13 6z m-3038 -5 c3 -5 -3 -10 -14 -10 -12 0 -21 5 -21 10
0 6 6 10 14 10 8 0 18 -4 21 -10z m695 -11 c0 -5 5 -7 10 -4 6 3 10 2 10 -4 0
-19 -16 -19 -28 0 -7 11 -8 19 -2 19 5 0 10 -5 10 -11z m-1006 -14 c-4 -8 -10
-12 -15 -9 -11 6 -2 24 11 24 5 0 7 -7 4 -15z m196 2 c0 -5 -13 -7 -29 -4 -19
4 -43 -2 -77 -20 -32 -17 -44 -20 -36 -10 8 9 22 19 33 22 11 4 17 10 14 15
-3 4 18 7 45 7 28 -1 50 -5 50 -10z m916 -67 c8 0 14 -5 14 -11 0 -6 -7 -9
-15 -5 -8 3 -15 1 -15 -4 0 -6 4 -10 9 -10 5 0 14 -12 19 -27 l10 -28 1 30 c1
32 16 63 26 54 3 -4 0 -18 -6 -32 -8 -18 -9 -31 -2 -39 5 -7 6 -24 2 -38 -4
-14 -7 -20 -8 -15 -1 6 -14 24 -29 40 -29 32 -92 120 -92 129 0 18 18 0 34
-34 13 -27 22 -36 27 -28 4 7 4 15 0 18 -10 6 -41 65 -41 77 0 4 12 -11 26
-34 14 -24 32 -43 40 -43z m-18 49 c-3 -8 -7 -3 -11 10 -4 17 -3 21 5 13 5 -5
8 -16 6 -23z m-3121 -13 c-2 -19 -7 -39 -11 -43 -5 -4 -6 -3 -2 5 4 6 3 12 -3
12 -18 0 -20 -15 -5 -40 11 -21 13 -22 14 -6 0 11 2 17 5 14 4 -3 3 -18 -1
-33 l-7 -28 -15 28 -15 29 -24 -42 c-17 -28 -32 -42 -46 -42 -20 0 -20 -1 -4
-17 16 -16 19 -16 27 -3 8 12 9 9 7 -9 -2 -14 -10 -27 -18 -29 -8 -3 -11 -1
-7 3 4 4 -5 17 -19 29 l-26 22 28 22 c15 12 32 19 38 15 6 -4 8 0 4 10 -3 10
-2 17 3 17 8 0 26 27 65 101 13 26 14 24 12 -15z m5069 -2 c-3 -8 -10 -13 -16
-9 -6 4 -5 13 3 26 13 21 23 8 13 -17z m184 15 c25 -1 25 -1 -5 -14 -36 -17
-79 -19 -70 -5 4 6 15 8 26 5 11 -4 19 -2 19 4 0 6 -4 11 -10 11 -5 0 -10 5
-10 12 0 9 3 9 12 0 7 -7 23 -12 38 -13z m65 11 c-27 -12 -43 -12 -25 0 8 5
22 9 30 9 10 0 8 -3 -5 -9z m-3245 -9 c0 -5 -9 -11 -20 -14 -22 -6 -28 8 -7
16 19 8 27 8 27 -2z m3070 -11 c0 -5 -4 -10 -10 -10 -5 0 -10 5 -10 10 0 6 5
10 10 10 6 0 10 -4 10 -10z m-3112 -55 c-3 -3 -9 2 -12 12 -6 14 -5 15 5 6 7
-7 10 -15 7 -18z m3142 21 c0 -9 -30 -14 -35 -6 -4 6 3 10 14 10 12 0 21 -2
21 -4z m-139 -16 c0 -3 2 -13 4 -22 2 -14 -4 -17 -36 -15 -21 1 -39 4 -39 8 0
4 -9 11 -20 14 -39 12 -19 25 35 22 30 -1 55 -4 56 -7z m61 -1 c-14 -5 -20
-14 -16 -20 4 -7 2 -10 -5 -8 -7 3 -12 8 -11 13 1 5 -3 12 -9 15 -6 4 6 7 27
8 32 1 34 -1 14 -8z m-3089 -24 c-3 -9 -8 -14 -10 -11 -3 3 -2 9 2 15 9 16 15
13 8 -4z m1194 -27 c-3 -8 -6 -5 -6 6 -1 11 2 17 5 13 3 -3 4 -12 1 -19z
m1763 -20 c-30 -11 -67 -26 -82 -32 -35 -16 -91 -9 -84 10 3 7 0 15 -7 17 -7
2 4 4 23 4 30 1 32 0 13 -8 -32 -12 -29 -15 20 -16 31 -1 37 1 22 7 -22 10
-18 11 43 14 23 1 47 7 54 14 7 7 21 12 33 11 11 0 -5 -10 -35 -21z m-3000 -8
c0 -5 -4 -10 -10 -10 -5 0 -10 5 -10 10 0 6 5 10 10 10 6 0 10 -4 10 -10z m20
-10 c0 -11 -4 -20 -9 -20 -5 0 -7 9 -4 20 3 11 7 20 9 20 2 0 4 -9 4 -20z
m2265 10 c3 -5 1 -10 -4 -10 -6 0 -11 5 -11 10 0 6 2 10 4 10 3 0 8 -4 11 -10z
m49 -5 c3 -8 1 -15 -4 -15 -6 0 -10 7 -10 15 0 8 2 15 4 15 2 0 6 -7 10 -15z
m-99 -15 c-19 -21 -7 -28 13 -8 7 7 12 8 12 2 0 -11 -21 -34 -31 -34 -4 0 -10
7 -13 16 -7 18 10 44 27 44 5 0 2 -9 -8 -20z m-2245 -16 c0 -3 -7 -12 -15 -20
-16 -17 -18 -14 -9 10 6 15 24 23 24 10z m2370 -32 c0 -2 -7 -2 -15 2 -10 3
-15 -1 -15 -14 0 -19 -32 -36 -50 -25 -6 4 -9 -3 -7 -17 1 -15 -3 -23 -13 -23
-8 0 -22 -5 -30 -10 -13 -7 -13 -6 -2 7 8 9 20 14 28 11 8 -3 14 -1 14 5 0 6
-5 12 -11 14 -7 2 5 22 26 44 36 38 40 40 57 25 10 -8 18 -17 18 -19z m489 27
c24 -1 24 -2 -7 -12 -24 -7 -36 -7 -40 0 -4 6 -14 13 -22 16 -8 2 -2 3 14 1
16 -2 40 -4 55 -5z m-4970 -15 c4 3 13 0 21 -6 12 -8 12 -9 -2 -4 -12 3 -18 0
-18 -10 0 -8 -5 -12 -10 -9 -6 4 -8 11 -5 16 4 5 1 9 -5 9 -6 0 -8 5 -4 12 6
9 9 9 12 0 2 -7 7 -10 11 -8z m2131 -19 c0 -8 -5 -15 -11 -15 -7 0 -10 -12 -7
-30 3 -16 1 -30 -4 -30 -9 0 -11 51 -2 74 8 20 24 21 24 1z m2196 -12 c-4 -4
-12 -1 -19 7 -9 10 -9 11 1 6 7 -4 12 -2 13 6 0 11 2 11 6 0 3 -7 2 -16 -1
-19z m583 18 c11 -7 9 -12 -10 -22 -22 -11 -23 -11 -10 4 8 10 9 17 3 17 -6 0
-14 -5 -18 -11 -4 -6 -20 -9 -39 -6 -23 4 -32 1 -32 -9 0 -11 9 -13 36 -9 35
5 35 5 6 -5 -20 -7 -40 -7 -59 0 -15 5 -33 7 -40 3 -6 -5 1 -10 19 -14 27 -6
28 -7 5 -8 -29 -1 -58 15 -47 25 4 5 24 8 45 7 20 0 31 2 23 4 -25 10 10 22
44 16 19 -3 35 0 39 6 9 13 16 14 35 2z m-1488 -21 c0 -10 3 -8 9 5 6 15 7 11
7 -17 -1 -20 -5 -34 -10 -31 -5 3 -7 0 -5 -8 3 -9 18 -13 43 -12 l39 2 -24
-16 c-17 -12 -25 -13 -28 -5 -2 7 -7 10 -12 7 -5 -3 -18 8 -30 25 -12 16 -17
30 -12 30 6 0 13 -6 16 -12 3 -7 4 -4 3 7 -2 12 -10 19 -20 19 -9 -1 -17 2
-17 8 0 5 -5 6 -12 2 -6 -4 -9 -3 -5 2 9 15 57 10 58 -6z m859 10 c0 -5 -2
-10 -4 -10 -3 0 -8 5 -11 10 -3 6 -1 10 4 10 6 0 11 -4 11 -10z m455 0 c3 -5
1 -10 -4 -10 -6 0 -11 5 -11 10 0 6 2 10 4 10 3 0 8 -4 11 -10z m-4673 -58 c3
-21 0 -28 -13 -28 -13 0 -15 4 -8 13 8 9 6 22 -5 44 -16 31 -16 32 3 15 10 -9
21 -29 23 -44z m4209 26 c8 -16 8 -19 -1 -13 -7 4 -15 2 -19 -4 -4 -7 -8 2 -8
18 0 32 10 32 28 -1z m-4257 -4 c18 -17 22 -39 6 -29 -11 7 -33 45 -26 45 2 0
12 -7 20 -16z m4462 -29 c-4 -10 1 -15 15 -15 11 0 17 -4 14 -10 -4 -6 6 -11
22 -11 23 -1 24 -3 6 -6 -12 -2 -31 0 -42 6 -12 7 -21 7 -23 1 -2 -6 -18 -4
-42 4 l-38 13 41 7 c23 3 41 11 41 16 0 6 3 10 6 10 3 0 4 -7 0 -15z m-232
-19 c-3 -8 -19 -19 -36 -25 -38 -13 -38 -13 -38 -1 0 6 9 10 20 10 10 0 25 7
32 15 17 18 29 19 22 1z m421 4 c-11 -5 -36 -7 -55 -4 -25 3 -30 2 -15 -4 18
-8 17 -9 -7 -14 -17 -3 -26 -1 -25 6 4 20 21 26 72 25 37 0 45 -3 30 -9z
m-2552 -20 c3 -11 1 -23 -4 -26 -5 -3 -9 6 -9 20 0 31 6 34 13 6z m1397 -5
c11 -13 10 -14 -5 -9 -16 6 -16 5 -1 -24 25 -48 18 -62 -9 -18 -18 30 -21 43
-13 53 13 16 13 16 28 -2z m-3446 -11 c3 -8 2 -12 -4 -9 -6 3 -10 10 -10 16 0
14 7 11 14 -7z m2056 -69 c-7 -45 -7 -46 -9 -13 -1 32 8 74 14 66 1 -2 -1 -25
-5 -53z m2080 45 c0 -5 -2 -10 -4 -10 -2 0 -12 -3 -22 -7 -16 -6 -17 -5 -4 10
17 19 30 22 30 7z m-4080 -20 c0 -5 8 -10 18 -10 10 0 22 -4 28 -9 11 -11 74
-25 74 -17 0 3 -15 10 -32 16 -31 9 -32 10 -3 4 17 -3 48 -9 70 -13 l40 -7
-54 -7 c-40 -5 -63 -2 -84 8 -17 8 -41 15 -54 15 -14 0 -23 6 -23 15 0 8 5 15
10 15 6 0 10 -4 10 -10z m147 4 c-3 -3 -12 -4 -19 -1 -8 3 -5 6 6 6 11 1 17
-2 13 -5z m73 -34 c0 -39 0 -39 -32 -33 -43 8 -48 13 -15 13 44 0 34 30 -10
32 l-38 1 38 4 c20 2 37 8 37 14 0 5 5 9 10 9 6 0 10 -18 10 -40z m3810 10 c0
-39 -15 -39 -16 0 -1 17 3 30 7 30 5 0 9 -13 9 -30z m-30 -15 c0 -24 -1 -24
-18 -7 -12 11 -14 20 -8 24 19 13 26 9 26 -17z m-3725 -45 c-3 -5 -13 -10 -21
-10 -8 0 -12 5 -9 10 3 6 13 10 21 10 8 0 12 -4 9 -10z m90 -6 l-30 -14 28 5
c20 4 26 2 22 -5 -5 -8 5 -10 32 -6 21 3 32 3 25 0 -6 -3 -9 -10 -6 -16 4 -6
-4 -8 -22 -4 -16 4 -39 8 -51 11 -28 5 -63 24 -45 25 7 0 11 4 8 8 -3 4 12 9
32 9 l37 1 -30 -14z m3065 6 c0 -5 -2 -10 -4 -10 -3 0 -8 5 -11 10 -3 6 -1 10
4 10 6 0 11 -4 11 -10z m44 2 c6 13 0 -30 -14 -92 -7 -32 -8 -33 -9 -7 -1 16
-5 26 -11 22 -5 -3 -10 -1 -10 4 0 6 7 11 16 11 15 0 14 9 -4 60 -5 13 -3 13
10 2 13 -10 17 -10 22 0z m-2977 -8 c-3 -3 -12 -4 -19 -1 -8 3 -5 6 6 6 11 1
17 -2 13 -5z m1490 -31 c-3 -10 -5 -4 -5 12 0 17 2 24 5 18 2 -7 2 -21 0 -30z
m20 15 c-3 -8 -6 -5 -6 6 -1 11 2 17 5 13 3 -3 4 -12 1 -19z m1973 3 c0 -4 -6
-8 -14 -8 -8 0 -12 6 -9 14 5 13 23 9 23 -6z m-3460 -10 c0 -9 -52 -22 -59
-15 -4 3 37 22 52 23 4 1 7 -3 7 -8z m3419 5 c-12 -10 -59 -15 -59 -6 0 5 14
10 32 10 17 0 29 -2 27 -4z m-499 -16 c0 -5 -4 -10 -10 -10 -5 0 -10 5 -10 10
0 6 5 10 10 10 6 0 10 -4 10 -10z m520 -10 c0 -5 -12 -11 -27 -11 -17 -1 -21
-3 -10 -6 9 -2 17 -8 17 -13 0 -5 -7 -6 -17 -3 -11 4 -14 3 -9 -5 4 -7 2 -12
-3 -12 -6 0 -11 -7 -11 -15 0 -26 -41 -45 -80 -35 -34 8 -34 8 14 9 64 1 55
10 -12 12 -28 1 -49 6 -46 11 7 10 73 8 97 -4 10 -5 17 -5 17 1 0 6 -8 15 -17
20 -11 6 -13 11 -5 11 7 0 10 4 7 10 -3 5 9 16 27 24 40 17 58 19 58 6z
m-3846 -21 c138 -23 506 -125 506 -140 0 -5 12 -14 28 -20 88 -32 89 -34 97
-138 5 -53 10 -109 11 -126 2 -16 6 -101 9 -189 5 -157 -1 -202 -34 -263 -6
-10 -24 -49 -42 -88 -18 -38 -44 -88 -58 -110 -14 -22 -37 -62 -52 -90 -53
-103 -84 -152 -138 -224 l-56 -73 -70 6 c-38 4 -115 20 -170 37 -55 17 -165
48 -245 69 -177 47 -297 100 -306 135 -8 34 2 715 12 740 4 11 29 56 56 100
45 73 77 120 158 230 16 22 42 61 57 87 23 39 34 48 65 53 21 4 41 11 44 17 4
6 20 7 38 3 17 -3 58 -11 90 -16z m421 1 c19 -8 19 -9 -2 -9 -12 -1 -25 4 -28
9 -7 12 2 12 30 0z m58 -14 c4 -10 0 -12 -14 -9 -10 3 -16 9 -13 14 8 13 21
11 27 -5z m110 7 c-7 -2 -21 -2 -30 0 -10 3 -4 5 12 5 17 0 24 -2 18 -5z
m2891 -15 c17 -9 17 -11 -5 -22 -13 -7 -28 -10 -34 -7 -5 3 -2 7 8 9 25 5 21
22 -5 22 -13 0 -30 5 -38 11 -19 13 46 2 74 -13z m23 16 c-3 -3 -12 -4 -19 -1
-8 3 -5 6 6 6 11 1 17 -2 13 -5z m137 -6 c-2 -4 0 -9 6 -13 5 -3 10 1 10 9 0
18 11 21 26 7 5 -5 20 -11 34 -14 17 -3 14 -5 -10 -4 -20 0 -41 -3 -48 -7 -7
-4 -18 -3 -25 2 -19 15 -85 24 -92 12 -3 -5 -14 -10 -23 -10 -15 1 -15 2 2 15
19 14 128 17 120 3z m-3114 -9 c0 -6 9 -9 20 -6 12 3 23 -1 29 -10 5 -10 21
-16 40 -15 17 0 31 -3 31 -8 0 -11 -49 -19 -56 -8 -3 5 -12 7 -20 4 -8 -3 -23
3 -34 14 -11 11 -25 20 -31 20 -5 0 -7 5 -4 10 8 13 25 13 25 -1z m1355 4
c-11 -3 -23 -10 -27 -17 -5 -7 -8 -5 -8 7 0 12 7 17 28 16 21 -1 22 -2 7 -6z
m1490 -3 c-3 -6 6 -11 22 -11 l28 -2 -27 -4 c-30 -5 -39 -23 -11 -23 22 0 11
-10 -17 -15 -16 -3 -20 0 -16 11 3 9 6 24 6 35 0 10 5 19 11 19 5 0 7 -4 4
-10z m-2745 -10 c0 -5 -4 -10 -10 -10 -5 0 -10 5 -10 10 0 6 5 10 10 10 6 0
10 -4 10 -10z m2695 -39 c2 -17 0 -31 -4 -31 -4 0 -7 16 -8 36 -1 42 6 40 12
-5z m-1448 3 c-3 -3 -12 -4 -19 -1 -8 3 -5 6 6 6 11 1 17 -2 13 -5z m33 -36
c0 -49 -5 -47 -13 5 -3 20 -2 37 4 37 5 0 9 -19 9 -42z m-1240 1 c0 -11 -3
-11 -24 -3 -23 9 -20 23 4 17 11 -3 20 -9 20 -14z m1200 -9 c0 -5 -4 -10 -10
-10 -5 0 -10 5 -10 10 0 6 5 10 10 10 6 0 10 -4 10 -10z m-1155 -38 c-6 -7
-35 18 -35 31 0 5 9 2 20 -8 11 -10 18 -20 15 -23z m15 28 c0 -5 -2 -10 -4
-10 -3 0 -8 5 -11 10 -3 6 -1 10 4 10 6 0 11 -4 11 -10z m1157 -22 c-3 -8 -6
-5 -6 6 -1 11 2 17 5 13 3 -3 4 -12 1 -19z m1756 -50 c37 -40 98 -122 134
-183 66 -109 136 -263 126 -278 -7 -11 -80 -47 -97 -47 -8 0 -18 -5 -22 -11
-7 -12 72 -8 115 6 l24 8 -6 -204 c-6 -195 -27 -362 -48 -384 -5 -5 -9 -24 -9
-41 0 -26 -8 -40 -38 -65 -38 -32 -122 -69 -156 -69 -32 0 -151 -41 -254 -86
-29 -13 -55 -24 -58 -24 -3 0 -31 -12 -62 -26 -31 -15 -75 -29 -98 -31 -38 -5
-42 -3 -65 33 -13 22 -25 44 -27 49 -11 28 -187 379 -219 435 -32 57 -37 75
-41 146 l-4 82 68 22 c142 45 120 46 163 -10 15 -19 22 -22 31 -14 9 9 8 20
-5 44 -9 17 -15 33 -13 34 2 1 18 8 36 16 18 7 37 21 43 31 5 11 15 19 22 20
20 0 55 52 61 89 5 36 21 193 34 340 7 84 7 84 42 102 58 29 214 87 235 88 12
0 46 -28 88 -72z m-1746 9 c7 -4 13 -18 12 -30 0 -21 0 -21 -9 -2 -4 12 -15
27 -24 34 -9 7 -16 21 -16 30 1 13 3 12 12 -4 6 -11 17 -24 25 -28z m-1167 -3
c0 -8 -5 -12 -10 -9 -6 4 -8 11 -5 16 9 14 15 11 15 -7z m1160 -51 c0 -7 -5
-13 -11 -13 -5 0 -8 4 -5 9 3 5 -1 14 -9 21 -8 7 -12 17 -9 22 7 10 33 -20 34
-39z m-1163 5 c-3 -8 -6 -5 -6 6 -1 11 2 17 5 13 3 -3 4 -12 1 -19z m29 -23
c-7 -20 23 -33 34 -14 5 7 12 11 15 8 3 -4 -5 -16 -17 -28 -19 -19 -22 -30
-18 -69 l4 -47 7 45 7 45 -2 -45 c-1 -55 -20 -60 -24 -6 -3 30 -6 36 -13 25
-7 -9 -8 -3 -3 22 3 22 1 39 -5 43 -12 8 -3 36 11 36 6 0 7 -7 4 -15z m964 5
c0 -5 -7 -10 -16 -10 -8 0 -12 5 -9 10 3 6 10 10 16 10 5 0 9 -4 9 -10z m48
-2 c-2 -7 4 -13 12 -13 8 0 14 5 13 12 -2 6 6 11 17 10 26 -2 14 -19 -37 -56
-51 -37 -94 -42 -86 -11 5 18 7 19 22 6 14 -13 19 -12 38 3 20 17 21 20 7 40
-14 19 -13 21 0 21 9 0 15 -6 14 -12z m142 -3 c0 -8 -4 -15 -10 -15 -5 0 -7 7
-4 15 4 8 8 15 10 15 2 0 4 -7 4 -15z m-50 -5 c0 -5 -4 -10 -10 -10 -5 0 -10
5 -10 10 0 6 5 10 10 10 6 0 10 -4 10 -10z m-120 -20 c0 -5 -4 -10 -10 -10 -5
0 -10 5 -10 10 0 6 5 10 10 10 6 0 10 -4 10 -10z m-166 -84 c-19 -40 -39 -49
-28 -13 7 24 35 60 41 53 2 -2 -4 -20 -13 -40z m81 34 c-3 -5 -13 -10 -21 -10
-8 0 -12 5 -9 10 3 6 13 10 21 10 8 0 12 -4 9 -10z m15 -30 c-19 -13 -30 -13
-30 0 0 6 10 10 23 10 18 0 19 -2 7 -10z m255 -27 c5 -13 15 -23 21 -23 10 0
74 -117 74 -135 0 -5 13 -36 30 -71 16 -34 32 -75 36 -91 4 -15 29 -72 56
-125 26 -54 48 -102 48 -108 0 -5 13 -23 30 -40 36 -36 80 -39 173 -11 144 43
167 49 171 43 2 -4 7 -52 11 -107 8 -119 6 -124 -121 -351 -46 -83 -84 -154
-84 -158 0 -8 -38 -62 -58 -84 -7 -8 -28 -37 -46 -66 -18 -28 -43 -60 -55 -70
-24 -22 -123 -35 -143 -18 -7 5 -29 13 -48 17 -19 4 -57 19 -85 34 -27 15 -86
42 -130 60 -134 56 -168 72 -199 96 -17 12 -55 34 -85 49 -138 68 -140 75
-141 419 0 149 -1 284 0 298 l0 27 41 -15 c65 -22 67 6 2 33 -32 14 -33 17
-28 52 15 92 15 92 73 129 60 38 83 54 221 154 103 75 134 89 186 86 31 -1 42
-7 50 -24z m-295 8 c0 -5 -7 -11 -15 -15 -9 -3 -15 0 -15 9 0 8 7 15 15 15 8
0 15 -4 15 -9z m-130 -32 c-12 -9 -11 -10 8 -6 26 6 30 -8 5 -18 -10 -3 -19
-1 -21 4 -2 6 -11 11 -20 12 -14 0 -13 2 3 9 28 12 43 12 25 -1z m-690 -9 c0
-5 -4 -10 -10 -10 -5 0 -10 5 -10 10 0 6 5 10 10 10 6 0 10 -4 10 -10z m770 6
c0 -2 -7 -7 -16 -10 -8 -3 -12 -2 -9 4 6 10 25 14 25 6z m-820 -36 c0 -5 -2
-10 -4 -10 -3 0 -8 5 -11 10 -3 6 -1 10 4 10 6 0 11 -4 11 -10z m735 0 c3 -5
2 -10 -4 -10 -5 0 -17 -3 -27 -7 -16 -6 -17 -5 -4 10 17 19 26 21 35 7z m-710
-10 c3 -5 1 -10 -4 -10 -6 0 -11 5 -11 10 0 6 2 10 4 10 3 0 8 -4 11 -10z
m-19 -34 c2 -14 1 -14 -3 1 -5 16 -6 16 -14 -2 -7 -19 -8 -18 -8 3 -1 27 23
25 25 -2z m74 8 c0 -2 -9 -4 -20 -4 -11 0 -20 4 -20 9 0 5 9 7 20 4 11 -3 20
-7 20 -9z m39 -10 c-12 -15 -11 -16 11 -10 l25 7 -25 -15 c-14 -9 -21 -15 -16
-16 5 0 7 -2 4 -5 -3 -3 -12 -3 -20 0 -20 8 -12 42 11 48 9 3 18 5 20 6 2 0
-3 -6 -10 -15z m75 10 c9 -3 16 -11 16 -16 0 -7 -4 -7 -12 0 -7 5 -22 12 -33
15 -15 3 -16 5 -3 6 9 0 23 -2 32 -5z m496 -8 c-6 -6 -18 -5 -32 1 -21 10 -21
10 9 9 19 -1 28 -5 23 -10z m-52 -27 c-21 -14 -48 -10 -48 6 0 18 12 19 29 3
10 -11 11 -9 5 7 -7 18 -6 19 10 6 13 -11 14 -16 4 -22z m-580 3 c4 -14 0 -15
-22 -6 -9 3 -16 10 -16 14 0 12 33 5 38 -8z m295 1 c-13 -2 -33 -2 -45 0 -13
2 -3 4 22 4 25 0 35 -2 23 -4z m215 -60 c-14 -17 -32 -17 -21 0 4 6 8 15 9 20
1 4 2 10 3 15 1 4 5 0 11 -8 5 -9 5 -19 -2 -27z m-126 4 c10 -1 14 -4 10 -8
-8 -8 -123 8 -132 18 -3 3 20 2 50 -2 30 -4 63 -8 72 -8z m55 7 c-3 -3 -12 -4
-19 -1 -8 3 -5 6 6 6 11 1 17 -2 13 -5z m25 -14 c-21 -20 -52 -27 -52 -12 0 7
15 13 69 31 3 0 -5 -8 -17 -19z"/>
<path d="M7355 6980 c3 -5 13 -10 21 -10 8 0 12 5 9 10 -3 6 -13 10 -21 10 -8
0 -12 -4 -9 -10z"/>
<path d="M5090 6375 c0 -8 4 -15 10 -15 16 0 22 -45 11 -86 -13 -47 -63 -91
-147 -131 -50 -23 -72 -28 -147 -28 -82 0 -90 2 -108 24 -21 25 -18 53 7 82
16 18 18 29 4 29 -12 0 -36 -45 -44 -85 -10 -47 10 -64 85 -76 56 -9 77 -7
140 9 107 28 139 44 192 93 42 38 48 50 53 94 5 42 2 55 -16 78 -24 30 -40 35
-40 12z"/>
<path d="M2303 5745 c-17 -19 -16 -25 2 -25 8 0 15 9 15 20 0 23 -1 24 -17 5z"/>
<path d="M1791 5824 c0 -11 3 -14 6 -6 3 7 2 16 -1 19 -3 4 -6 -2 -5 -13z"/>
<path d="M1860 5621 c0 -12 5 -21 10 -21 6 0 10 6 10 14 0 8 -4 18 -10 21 -5
3 -10 -3 -10 -14z"/>
<path d="M2139 5257 c-38 -32 -74 -90 -186 -302 -123 -232 -148 -310 -140
-436 4 -68 12 -100 37 -152 54 -114 185 -205 298 -206 l42 -1 0 -54 c0 -70 7
-86 35 -86 31 0 36 9 41 77 3 32 7 60 9 64 3 3 22 9 44 13 35 5 89 33 128 66
21 17 38 89 25 102 -9 9 -17 7 -34 -8 -40 -35 -107 -74 -137 -80 -22 -5 -31
-2 -39 12 -5 11 -12 161 -16 334 -7 324 -10 365 -28 387 -16 20 -26 16 -42
-16 -13 -25 -15 -81 -12 -364 2 -184 7 -340 10 -346 10 -15 -18 -14 -59 3 -92
39 -157 106 -206 214 -17 37 -20 58 -16 107 9 90 32 153 120 333 86 176 144
252 191 252 41 0 99 -71 176 -218 89 -170 122 -274 126 -402 1 -52 6 -96 11
-97 20 -7 35 19 46 80 9 56 8 81 -7 159 -10 51 -31 122 -47 157 -16 35 -29 70
-29 79 0 8 -12 30 -26 49 -14 18 -40 64 -59 101 -18 38 -41 74 -49 81 -9 8
-16 19 -16 26 0 7 -19 31 -41 54 -35 35 -47 41 -83 41 -27 -1 -49 -8 -67 -23z"/>
<path d="M2460 5230 c0 -14 28 -62 104 -175 37 -55 69 -110 72 -122 4 -13 13
-23 21 -23 42 0 -34 189 -108 273 -46 51 -89 74 -89 47z"/>
<path d="M1693 4321 c12 -116 133 -277 191 -255 11 4 -2 27 -55 97 -38 50 -79
118 -92 151 -32 84 -52 88 -44 7z"/>
<path d="M2615 5520 c3 -5 8 -10 11 -10 2 0 4 5 4 10 0 6 -5 10 -11 10 -5 0
-7 -4 -4 -10z"/>
<path d="M9161 5064 c0 -11 3 -14 6 -6 3 7 2 16 -1 19 -3 4 -6 -2 -5 -13z"/>
<path d="M4968 3584 c-4 -3 8 -33 26 -67 18 -34 56 -115 85 -179 29 -65 59
-122 66 -128 17 -14 321 61 344 85 15 16 12 17 -44 10 -33 -4 -109 -20 -168
-37 -60 -16 -110 -28 -112 -26 -2 2 -15 32 -30 68 -43 105 -56 131 -99 208
-37 66 -53 82 -68 66z"/>
<path d="M5970 3484 c-144 -41 -160 -47 -160 -56 0 -10 2 -10 53 1 23 5 70 15
105 22 34 6 62 16 62 20 0 5 9 9 20 9 11 0 20 7 20 15 0 18 5 19 -100 -11z"/>
<path d="M5164 3138 c3 -18 9 -68 12 -111 7 -83 16 -100 34 -66 12 21 8 178
-5 199 -3 5 -15 10 -27 10 -17 0 -19 -4 -14 -32z"/>
<path d="M5167 2803 c-8 -120 -7 -142 4 -149 5 -3 17 0 25 7 22 18 16 212 -7
217 -14 3 -18 -10 -22 -75z"/>
<path d="M7793 3893 c9 -2 23 -2 30 0 6 3 -1 5 -18 5 -16 0 -22 -2 -12 -5z"/>
<path d="M3386 3106 c-25 -36 -46 -68 -46 -73 0 -4 -13 -21 -28 -38 -57 -62
-87 -132 -36 -84 29 27 84 105 84 120 0 5 4 9 8 9 10 0 66 76 75 102 15 42
-15 23 -57 -36z"/>
<path d="M2430 2924 c0 -23 79 -54 180 -70 25 -3 58 -13 75 -22 33 -17 172
-62 193 -62 61 -1 -83 57 -288 115 -52 15 -105 31 -118 36 -26 10 -42 12 -42
3z"/>
<path d="M3130 2690 c-7 -16 -17 -30 -22 -30 -13 0 -6 -83 8 -87 9 -3 64 117
64 140 0 4 -8 7 -19 7 -11 0 -23 -12 -31 -30z"/>
<path d="M3110 2465 c-8 -319 -9 -385 -4 -385 3 0 12 16 20 35 20 50 20 343
-1 371 -13 18 -14 16 -15 -21z"/>
<path d="M6290 2589 c-63 -27 -137 -60 -165 -73 -27 -13 -61 -27 -75 -31 -27
-8 -42 -24 -34 -37 10 -16 46 -7 115 28 39 19 106 48 149 64 43 16 87 33 97
39 10 5 26 12 36 15 19 6 20 37 2 42 -5 1 -62 -20 -125 -47z"/>
<path d="M6025 2268 c-7 -24 -12 -378 -5 -378 19 0 29 63 36 219 6 156 5 171
-10 171 -9 0 -18 -6 -21 -12z"/>
<path d="M4516 2522 c-5 -8 28 -27 104 -60 25 -11 67 -30 94 -42 56 -25 124
-50 137 -50 45 0 -75 66 -206 113 -38 14 -82 30 -97 36 -15 5 -29 7 -32 3z"/>
<path d="M4988 2358 c-57 -68 -61 -75 -43 -82 15 -5 30 7 93 78 32 35 35 56 8
56 -8 0 -34 -24 -58 -52z"/>
<path d="M4900 2361 c0 -13 37 -24 51 -15 8 4 7 9 -2 15 -19 12 -49 11 -49 0z"/>
<path d="M4961 1998 c-1 -18 4 -102 10 -185 8 -109 15 -153 24 -153 7 0 15 8
17 18 6 25 -17 325 -26 340 -13 21 -23 13 -25 -20z"/>
</g>
</svg>
