<?xml version="1.0" encoding="utf-8"?>
<!-- Generator: Adobe Illustrator 25.3.1, SVG Export Plug-In . SVG Version: 6.00 Build 0)  -->
<svg version="1.1" xmlns="http://www.w3.org/2000/svg" xmlns:xlink="http://www.w3.org/1999/xlink" x="0px" y="0px"
	 viewBox="0 0 500 500" style="enable-background:new 0 0 500 500;" xml:space="preserve">
<style type="text/css">
	.st0{fill:#00A23D;stroke:#013D3D;stroke-width:4.1232;stroke-miterlimit:10;}
	.st1{fill:#FFC3AB;}
	.st2{fill:none;stroke:#013D3D;stroke-width:4.1232;stroke-miterlimit:10;}
	.st3{fill:#00A23D;}
	.st4{fill:#F5EDF2;}
	.st5{opacity:0.7;}
	.st6{fill:#FFFFFF;}
	.st7{opacity:0.3;}
	.st8{fill:#013D3D;}
	.st9{fill:none;stroke:#000072;stroke-width:7.1775;stroke-linecap:round;stroke-linejoin:round;stroke-miterlimit:10;}
	.st10{opacity:0.29;fill:#FFFFFF;}
	.st11{opacity:0.15;fill:#FFFFFF;}
	.st12{fill:#CCCCCC;}
	.st13{fill:#E6E6E6;}
	.st14{fill:#B3B3B3;}
	.st15{fill:url(#SVGID_1_);}
	.st16{fill:#DADADA;}
	.st17{fill:#F6F6F6;}
	.st18{fill:url(#SVGID_2_);}
	.st19{opacity:0.26;fill:#1D1D1B;}
</style>
<g id="Calque_2">
</g>
<g id="Calque_1">
</g>
<g id="Calque_9">
</g>
<g id="Calque_5">
</g>
<g id="Calque_3">
</g>
<g id="Calque_4">
</g>
<g id="Calque_7">
</g>
<g id="Calque_6">
	<g>
		<g>
			<path class="st0" d="M59.7,344c-0.6-0.1-1.3-0.2-1.9-0.3c0.7-0.6,1.2-1.2,1.7-1.9c17.8,6.8,61.4,9.9,61.4,9.9l-45.4-55
				c-11-12.4-32.3,14.4-33.7,7.6c-4.1-9.6-16.5-5.7-16.6-5.7c-9.7,1.8-18.5,15-18.5,27.6c0,7.3,3.3,24.7,33,30.2
				c0.6,0.1,1.2,0.1,1.8,0.1c0,0,0,0,0,0c8.5,0,18.7-8.6,19.1-9c0.6-0.5,0.9-1.3,0.6-2.1C61.1,344.7,60.5,344.1,59.7,344z"/>
		</g>
		<g>
			<path class="st1" d="M31.6,298.1c-4.4-1.2-11,4.1-15.4,8.6c-4.5,4.6-16.2,25.7-1.9,34.8c0.4-3.5-0.4-7-0.5-10.5
				c-0.1-6.9,2.7-13.7,7.5-18.6s11.4-8,18.2-8.7c0.4-1.5,1.9-4.4-2.4-4.3"/>
		</g>
		<path class="st2" d="M59.7,344c-0.6-0.1-1.3-0.2-1.9-0.3c0.7-0.6,1.2-1.2,1.7-1.9c17.8,6.8,61.4,9.9,61.4,9.9l-45.4-55
			c-11-12.4-32.3,14.4-33.7,7.6c-4.1-9.6-16.5-5.7-16.6-5.7c-9.7,1.8-18.5,15-18.5,27.6c0,7.3,3.3,24.7,33,30.2
			c0.6,0.1,1.2,0.1,1.8,0.1c0,0,0,0,0,0c8.5,0,18.7-8.6,19.1-9c0.6-0.5,0.9-1.3,0.6-2.1C61.1,344.7,60.5,344.1,59.7,344z"/>
		<g>
			<g>
				<path class="st1" d="M110,345.9c-17.3-0.4-34.5-3.4-51-8.7c-2.5-0.8-3.6,3.2-1.1,4c16.8,5.4,34.4,8.4,52,8.8
					C112.6,350,112.6,345.9,110,345.9L110,345.9z"/>
			</g>
		</g>
		<g>
			<g>
				<path class="st1" d="M107.3,344.3c-4-6.6-11.9-8.1-19-8.2c-8.3-0.1-16.7,0.2-25,0.4c-2.4,0-2.7,3.3-0.5,4
					c11,4.1,22.8,5.9,34.5,5.4c2.2-0.1,2.9-3.6,0.5-4c-7.2-1.3-14.5-2.6-21.8-2.7c-2.7,0-2.7,4.1,0,4.1c8.5,0,16.9,1,25,3.7
					c2.3,0.7,3.5-2.6,1.6-3.8c-3.7-2.3-8-3.5-12.4-3.4c-2.6,0.1-2.7,4.2,0,4.1c3.7-0.1,7.2,0.9,10.3,2.8c0.5-1.3,1.1-2.5,1.6-3.8
					c-8.4-2.8-17.3-3.8-26.1-3.8c0,1.4,0,2.7,0,4.1c7,0,13.9,1.3,20.7,2.5c0.2-1.3,0.4-2.7,0.5-4c-11.4,0.5-22.7-1.2-33.4-5.2
					c-0.2,1.3-0.4,2.7-0.5,4c7.7-0.1,15.4-0.3,23.1-0.3c6.1-0.1,13.8,0.3,17.4,6.1C105.1,348.6,108.7,346.5,107.3,344.3L107.3,344.3
					z"/>
			</g>
		</g>
		<g>
			
				<image style="overflow:visible;opacity:0.5;" width="634" height="600" xlink:href="69B89C52.png"  transform="matrix(1 0 0 1 -63.4296 -46.4296)">
			</image>
			<g>
				<g>
					<g>
						<g>
							<g>
								<g>
									<g>
										<g>
											<g>
												<g>
													<path class="st3" d="M58.1,268.3c0,0,4.2,11.2,13.5,26.7c0.8,1.4,1.7,2.9,2.7,4.4c5.8,9.2,13.2,19.6,22.4,30
														c3.5,3.9,7.3,7.9,11.3,11.8c3.8,3.7,7.9,7.3,12.3,10.8c5.6,4.5,11.7,8.9,18.2,12.8c18.1,11,39.5,19.4,64.6,22.3
														c13.7,1.6,28.5,1.5,44.4-0.6c2.3,2.6,4.9,5.3,7.7,8c0,0-3.8,7.9-6.8,10.2c-1.7,1.3-5.6-0.2-10.7,0
														c-3.8,0.1-8.2,1.3-12.7,5.4l-0.6,1.7c2.9,1,5.4,2.8,7.2,4.4c2.5,2.2,3.8,4.2,3.8,4.2c2.8-1.7,5.7-2.4,8.4-1.9
														c14.1,2.9,19.4,18.2,19.4,18.2c3.4-4.9,8.8-8.4,17.3-8.7c0,0,12.2,8.6,9.5,20.6c36.8-14.9,25-58.6,25-58.6
														c6.8-3.8,11.4-8.8,14.3-14.4l1,0c47.4-4.8,80.7-20.2,104.1-39.2c53.1-43.1,55-105,55-105
														c-32.1,30.1-82.1,31.9-104.3,31.1c-6.6-0.2-13.1-2.3-18.6-6c-39.2-26.4-75.7-31.7-101.8-30.7
														c-22.2,0.9-36.8,6.3-39.2,7.3l-0.3,0.1c26.4-14.1,44.2-32.8,54.8-46.7c8.5-11.1,12.4-19,12.4-19
														c-1.2-4.3-5.1-16.2-11-20.4c0.3,0,0.6-0.1,0.8-0.2c6.6-1.6,11.8-9.5,13.1-20.2c2.8-23-12.2-59-69-73.4v0
														c0,0-23.2-39.5-63.7-17.4c0,0,0,0,0,0v0c-1-0.5-59.3-26.9-93.6,17c0,0-56,15.6-58.7,101.3
														C8,239.9,58.1,268.3,58.1,268.3z M199.9,179.2c2.6-0.9,5.2-2,7.8-3.1c0,0,0.1,0,0.1,0c1.6-0.7,3.2-1.4,4.8-2.2
														c0.1-0.1,0.2-0.1,0.3-0.2c0.5-0.2,0.9-0.4,1.4-0.7c1.2-0.6,2.3-1.1,3.4-1.6c0.3-0.2,0.7-0.3,1-0.5
														c0.2-0.1,0.4-0.2,0.6-0.3c2.1-1,4.1-2.1,6-3c0,0,0,0.1,0,0.2c-0.1,2.1-1.2,15.8-9.9,29.6
														C215.4,197.3,204.1,192.2,199.9,179.2z M188.8,348.9c0.6,0.4,1.7,0.3,2.9-0.2c3.8-1.5,9.3-5.9,9.7-6.2l0,0
														c0,0,0,0,0,0.1c0,0,0,0,0,0c0,0,0,0.1,0.1,0.1c0.8,1.6,5.4,12.1-1.6,18.2c0,0,0,0,0,0c-0.3,0.3-0.6,0.5-0.9,0.7
														c-7.2-2.4-9.3-8.3-10-11.1c0,0,0,0,0-0.1C188.9,349.5,188.8,348.9,188.8,348.9z M144,188.1c6.1,0.2,14.1,0.1,23.4-1.1
														c0.3,0,0.5-0.1,0.8-0.1c0,0-1.3,8.6-11.5,19.4C156.8,206.3,146,197.9,144,188.1z"/>
												</g>
											</g>
										</g>
									</g>
									<g>
										<g>
											<g>
												<path class="st3" d="M134,390.1c2.5,2.2,3.7,4.8,4.3,6.2c1.1-0.1,1.8-0.2,1.8-0.2c9.4,6.4,13,15.6,13,15.6v0.1
													c12.5,0.9,14.8,15.5,14.8,15.5c35.6-4.9,35.4-40.3,35.4-40.3v0c-25.1-2.9-46.6-11.2-64.6-22.3c0,0,1.3,8,4.8,15.1
													C143.4,379.8,135.4,382.9,134,390.1z"/>
											</g>
										</g>
									</g>
								</g>
								<g>
									<g>
										<g>
											<g>
												<path class="st4" d="M188.8,348.9c0,0,0.6,9.5,10.2,12.7c9-6.4,2.4-19.1,2.4-19.1S191.5,350.7,188.8,348.9z"/>
											</g>
										</g>
									</g>
									<g>
										<g>
											<g>
												<g>
													<g>
														<path class="st4" d="M267.5,470.9c6.6-11.2,16-5.7,21.8-19.3c0.4-1,0.7-2,1-3c2.7-12.1-9.5-20.6-9.5-20.6
															c-8.4,0.3-13.9,3.8-17.3,8.7c-1.9,2.8-3.1,6-3.8,9.3C256.5,460.5,263.5,477.7,267.5,470.9z"/>
													</g>
												</g>
											</g>
											<g>
												<g>
													<g>
														<path class="st4" d="M226,466.8c0,0,8.8-21.7,33.6-21c0.7-3.3,1.9-6.5,3.8-9.3c0,0-5.4-15.4-19.4-18.2
															c-2.7-0.6-5.6,0.2-8.4,1.9c-6.7,4-12.8,13.5-14.6,23.7C219.6,451.8,220.7,460.1,226,466.8z"/>
													</g>
												</g>
											</g>
											<g>
												<g>
													<g>
														<path class="st4" d="M193.1,433.2c0,0,20-1.9,27.9,10.8c1.8-10.3,7.9-19.7,14.6-23.7c0,0-4.2-6.2-11-8.6
															c-1.3-0.5-2.7-0.8-4.1-0.9C211.2,410,193.9,424.3,193.1,433.2z"/>
													</g>
												</g>
											</g>
											<g>
												<g>
													<g>
														<path class="st4" d="M97.4,427.3c0,0,14.5-5.9,22.2-4.4c6.9,1.4,11.8-2.5,12.8-3.4l0.1,0.1c2.7-2.3,6.3-4.5,10.9-6.2
															c3.7-1.4,6.9-1.9,9.6-1.7v-0.1c0,0-3.5-9.2-13-15.6c0,0-0.6,0-1.8,0.2c-5.1,0.6-20,3.3-30.7,13.8
															C103.1,414.4,99.5,420,97.4,427.3z"/>
													</g>
												</g>
											</g>
											<g>
												<g>
													<g>
														<path class="st4" d="M90.7,408.2l16.1,2.6l0.7-0.7c10.7-10.5,25.6-13.2,30.7-13.8c-0.5-1.4-1.8-4-4.3-6.2
															c-2.9-2.6-7.5-4.6-14.4-3.1C104.2,390.2,90.7,408.2,90.7,408.2z"/>
													</g>
												</g>
											</g>
											<g>
												<g>
													<g>
														<path class="st4" d="M123.1,438.3c0,0,11.6-6.4,18.5-6.6c13.4-0.4,26.3-4.4,26.3-4.4s-2.4-14.7-14.8-15.5
															c-2.7-0.2-5.9,0.3-9.6,1.7c-4.6,1.7-8.2,3.9-10.9,6.2C122.7,428,123.1,438.3,123.1,438.3z"/>
													</g>
												</g>
											</g>
										</g>
									</g>
								</g>
								<g>
									<g>
										<g>
											<path class="st4" d="M97.4,427.3c0,0,14.5-5.9,22.2-4.4c6.9,1.4,11.8-2.5,12.8-3.4l0.1,0.1c2.7-2.3,6.3-4.5,10.9-6.2
												c3.7-1.4,6.9-1.9,9.6-1.7v-0.1c0,0-3.5-9.2-13-15.6c0,0-0.6,0-1.8,0.2c-5.1,0.6-20,3.3-30.7,13.8
												C103.1,414.4,99.5,420,97.4,427.3z"/>
										</g>
									</g>
								</g>
								<g>
									<g>
										<g>
											<g>
												<path class="st1" d="M329.5,375.5l1,0c47.4-4.8,80.7-20.2,104.1-39.2c-18.2,7.7-53.4,18.1-100.1,10.4
													C334.5,346.7,335.6,363.3,329.5,375.5z"/>
											</g>
										</g>
									</g>
									<g>
										<g>
											<g>
												<path class="st1" d="M71.6,295c0.8,1.4,1.7,2.9,2.7,4.4c8,12.7,19.1,27.7,33.8,41.8c3.8,3.7,7.9,7.3,12.3,10.8
													c5.6,4.5,11.7,8.9,18.2,12.8c18.1,11,39.5,19.4,64.6,22.3c13.7,1.6,28.5,1.5,44.4-0.6c0,0-30.2-28.3-18.8-64.8
													c0,0-12.6-0.1-19.6-8.1c0,0-10.3,14.9-18,18.9c-7.4,3.8-2.6,17-2.2,18c0,0,0,0.1,0,0.1l2.7-1.7l9.7-6.2l0,0
													c0,0,0,0,0,0.1c0,0,0,0,0,0c0,0,0,0.1,0.1,0.1c0.7,1.6,4.8,12.1-1.6,18.2c0,0,0,0,0,0c-2.8,2.6-7.5,4.4-15.3,4.4
													c-27.5-0.3-44.3-14-33.8-51.7c0,0,2.2-24.8,9.1-34.4c0,0-40.8-42.5-71.3-26.7C76.4,258.8,72.2,276.3,71.6,295z"/>
											</g>
										</g>
									</g>
								</g>
								<g>
									<g>
										<g>
											<path class="st1" d="M225.4,231.3l0.3-0.1c2.4-0.9,17-6.4,39.2-7.3c26.1-1,62.6,4.2,101.8,30.7c5.5,3.7,12,5.7,18.6,6
												c22.2,0.8,72.3-1.1,104.3-31.1c0,0-12.9,41-105.4,40.5c-10.8-0.1-21.4-3.2-30.5-8.9c-2.2-1.4-4.7-2.9-7.5-4.4
												c-1.2-0.7-2.7-0.9-4-0.6c-6.1,1.2-18.4-0.4-31.9-4.4c-15.2-4.6-27.2-10.9-30.4-15.5c-0.9-1.4-2.4-2.2-4.1-2.5
												C260.9,231.5,244.1,230.4,225.4,231.3z"/>
										</g>
									</g>
								</g>
								<g class="st5">
									<g>
										<g>
											<path class="st1" d="M247.7,296.4c0,0-30,44.4,7.8,98C255.4,394.4,193.8,339.1,247.7,296.4z"/>
										</g>
									</g>
								</g>
								<g class="st5">
									<g>
										<g>
											<path class="st6" d="M171,264.8c0,0-10.9,24.4-9.8,44.5c0.2,3.6-0.3,7.2-1.5,10.7c-4.1,11.3-8.7,38.2,36.6,43.3
												c0,0-61.8,16.3-45.5-49.7C150.8,313.5,150.5,283.3,171,264.8z"/>
										</g>
									</g>
								</g>
								<g>
									<g>
										<g>
											<path class="st1" d="M58.1,268.3c-76.6-137.7-4.5-192,17.2-204.5c3.5-2,6.5-4.7,9.1-7.9c22.2-27.6,77.5-20.2,78.6-20
												c0,0,0,0,0,0l0,0c-1-0.5-59.3-26.9-93.6,17c0,0-56,15.6-58.7,101.3C8,239.9,58.1,268.3,58.1,268.3z"/>
										</g>
									</g>
								</g>
								<g>
									<g>
										<g class="st7">
											<g>
												<g>
													<path class="st8" d="M181.2,382.9c7,1.8,14.3,3.2,22,4.1v0c0,0,0.2,35.4-35.4,40.3c0,0-2.2-13.5-13.4-15.4
														C172.4,406.7,178.9,392.6,181.2,382.9z"/>
												</g>
											</g>
										</g>
										<g>
											<g class="st7">
												<g>
													<g>
														<path class="st8" d="M235.6,420.2c2.8-1.7,5.7-2.4,8.4-1.9c14.1,2.9,19.4,18.2,19.4,18.2c3.4-4.9,8.8-8.4,17.3-8.7
															c0,0,12.2,8.6,9.5,20.6c36.8-14.9,25-58.6,25-58.6c6.8-3.8,11.4-8.8,14.3-14.4l1,0c47.4-4.8,80.7-20.2,104.1-39.2
															c53.1-43.1,55-105,55-105s-16.3,91.5-131.8,119.7c-5.2,1.3-10.7-1-13.5-5.6c-3.4-5.6-8.4-12.4-13-14.2
															c0,0-1.5,36.6-21.8,50.9c-4.8,3.4-7.4,9.1-6.7,15c0.7,6.1,0.4,14.1-3.6,21.3c-2,3.6-6.9,4.4-9.9,1.5
															c-1.4-1.3-2.9-2.6-4.5-3.6c-2.8-1.8-8.3,1.3-12.6,4.3c-2.9,2-6.8,1.4-8.8-1.5c-3.3-4.5-9.4-9.7-19.2-7.7
															C244.2,411.5,235,413.9,235.6,420.2z"/>
													</g>
												</g>
											</g>
											<g class="st7">
												<g>
													<g>
														<path class="st8" d="M96.8,329.3c3.5,3.9,7.3,7.9,11.3,11.8c3.8,3.7,7.9,7.3,12.3,10.8c5.6,4.5,11.7,8.9,18.2,12.8
															c18.1,11,39.5,19.4,64.6,22.3c13.7,1.6,28.5,1.5,44.4-0.6c0,0-48.2-48.7,0-90c-1,0.4-35.9,15.1-30.7,61.8
															C220.5,390.5,144.9,368,96.8,329.3z"/>
													</g>
												</g>
											</g>
											<g class="st7">
												<g>
													<g>
														<path class="st8" d="M208.7,273.6c0,0,22.8,38.9-4.9,57.7c0,0-0.9,1.9,1.7,6c2.6,4.2,4.8,22.5-9.2,26
															c0,0-17.4-12.6-7.5-28.7c0,0,4.8-5.6,9-6.7C202,326.7,222.5,303,208.7,273.6z"/>
													</g>
												</g>
											</g>
											<g class="st7">
												<g>
													<g>
														<path class="st8" d="M180.6,263.2c27.4-1,59.3-9.5,84.3-37.3c-22.2,0.9-36.8,6.3-39.2,7.3l-0.2,0.1l-0.1,0
															c0,0-26,12.4-38.1,14.6l-8.5,2.1C170.9,251.9,172.5,263.4,180.6,263.2z"/>
													</g>
												</g>
											</g>
											<g class="st7">
												<g>
													<g>
														<path class="st8" d="M113.7,190.9c4,1,8.1,1.9,12.2,2.7c6,1.1,11.4,4.6,15.1,9.5c5.1,6.7,10.6,10.2,13.8,11.8
															c1.8,0.9,4,0.7,5.6-0.5c5.5-4,9.1-11.5,11.5-14.9c1.2-1.8,3.1-3,5.2-3.5c4.3-1,9.3-2.4,13.1-3.5
															c3.4-1,7.1,0.1,9.4,2.8c4.9,6.1,10.7,8.9,14.4,10.2c2.3,0.8,4.9,0.1,6.5-1.7c5.1-5.6,11.4-16.8,14-21.5
															c0.9-1.6,2.1-2.9,3.5-3.9c5.7-4,21-13.5,32.8-10.8c7.6,1.7,9.5,10.7,9.6,19c8.5-11.1,12.4-19,12.4-19
															c-1.2-4.3-5.1-16.2-11-20.4l0.8-0.2c6.6-1.6,11.8-9.5,13.1-20.2c2.8-23-12.2-59-69-73.4l-13-2.9
															c76.9,28.5,72.6,61,71.9,76.3c-0.7,15.3-24.1,4.4-53.1,26.8c-23,17.7-72.9,28.3-92.7,31.9c-5.4-0.1-14.3-0.4-24.9-1.2
															C110.7,184,109.7,189.9,113.7,190.9z M281.3,147.1c0.1,0,0.2,0,0.3,0C281.5,147.1,281.4,147.1,281.3,147.1z"/>
													</g>
												</g>
											</g>
											<g class="st7">
												<g>
													<g>
														<circle class="st8" cx="266" cy="91.8" r="6.9"/>
													</g>
												</g>
											</g>
											<g class="st7">
												<g>
													<g>
														<circle class="st8" cx="189.4" cy="107.6" r="7.4"/>
													</g>
												</g>
											</g>
											<g class="st7">
												<g>
													<g>
														<path class="st8" d="M138.5,108.8c0,0-31.3-13.9-43.1,9.5c0,0,0.5-24.9,17.6-24.9S138.5,108.8,138.5,108.8z"/>
													</g>
												</g>
											</g>
										</g>
									</g>
									<g>
										<g class="st7">
											<g>
												<g>
													<path class="st8" d="M280.5,447.6c0.4-1,0.7-2,1-3c1.5-6.9-1.8-12.6-4.9-16.3c1.3-0.2,2.7-0.4,4.1-0.4
														c0,0,12.2,8.6,9.5,20.6c-0.2,1-0.5,2-1,3c-5.7,13.6-15.2,8.1-21.8,19.3c-2.2,3.8-5.4,0.2-7.2-6.2
														C266.8,456.5,275.2,460.2,280.5,447.6z"/>
												</g>
											</g>
										</g>
										<g class="st7">
											<g>
												<g>
													<path class="st8" d="M254.7,433c0.6-1.6,1.4-3.1,2.4-4.6c0,0-0.6-1.8-2-4.2c5.9,5.4,8.3,12.4,8.3,12.4
														c-1.9,2.8-3.1,6-3.8,9.3c-24.8-0.7-33.6,21-33.6,21c-2.6-3.3-4.2-7-5-10.9c3-5.3,11.3-16.6,27.3-18.1
														C251.2,437.6,253.6,435.6,254.7,433z"/>
												</g>
											</g>
										</g>
										<g>
											<g class="st7">
												<g>
													<g>
														<path class="st8" d="M227.7,416.1c0,0-1.7-2.5-4.7-4.9c0.5,0.1,1.1,0.3,1.6,0.5c6.8,2.4,11,8.6,11,8.6
															c-6.7,4-12.8,13.5-14.6,23.7c-1.9-3-4.5-5.2-7.3-6.8C216,427.9,221.6,419.8,227.7,416.1z"/>
													</g>
												</g>
											</g>
										</g>
										<g class="st7">
											<g>
												<g>
													<path class="st8" d="M128.2,427.1c13.4-0.4,26.3-4.4,26.3-4.4s-1-6.2-5.1-10.8c1.3-0.2,2.5-0.2,3.7-0.2
														c12.5,0.9,14.8,15.5,14.8,15.5s-12.9,4-26.3,4.4c-6.8,0.2-18.5,6.6-18.5,6.6s-0.2-5.1,3.1-11
														C126.9,427.2,127.6,427.2,128.2,427.1z"/>
												</g>
											</g>
										</g>
										<g class="st7">
											<g>
												<g>
													<path class="st8" d="M115.8,414.9c6.9,1.4,11.8-2.5,12.8-3.4l0.1,0.1c2.7-2.3,6.3-4.5,10.9-6.2
														c3.3-1.2,6.1-1.7,8.5-1.7c3.4,4.3,4.9,8,4.9,8v0.1c-2.7-0.2-5.9,0.3-9.6,1.7c-4.6,1.7-8.2,3.9-10.9,6.2l-0.1-0.1
														c-1,0.9-5.9,4.7-12.8,3.4c-7.7-1.5-22.2,4.4-22.2,4.4c1.2-4.2,2.9-7.8,5-11C106.9,415.2,112.1,414.2,115.8,414.9z"/>
												</g>
											</g>
										</g>
										<g class="st7">
											<g>
												<g>
													<path class="st8" d="M102.3,404.2l2.3,0.1c10.2-10,24.2-12.9,29.9-13.7c2.1,2.1,3.3,4.4,3.8,5.7
														c-5.1,0.6-20,3.3-30.7,13.8l-0.7,0.7l-16.1-2.6c0,0,1.6-2.1,4.2-4.9L102.3,404.2z"/>
												</g>
											</g>
										</g>
									</g>
								</g>
								<g>
									<g>
										<g>
											<g>
												<g>
													<g>
														<path class="st6" d="M281.7,147.1c5.9,4.2,9.7,16.1,11,20.4c0.3,1,0.4,1.6,0.4,1.6c12.4-16.8,2.6-42.3,2.6-42.3
															C294.3,137.9,288.7,146,281.7,147.1z"/>
													</g>
												</g>
											</g>
											<g>
												<g>
													<g>
														<path class="st6" d="M199.9,179.2c4.2,13.1,15.6,18.2,15.6,18.2c9.3-14.7,9.9-29.3,9.9-29.8c-3.8,1.9-8,4-12.8,6.3
															C208.3,175.9,204,177.6,199.9,179.2z"/>
													</g>
												</g>
											</g>
											<g>
												<g>
													<g>
														<path class="st6" d="M144,188.1c2,9.7,12.7,18.2,12.7,18.2c10.1-10.8,11.5-19.4,11.5-19.4
															C158.6,188.2,150.3,188.4,144,188.1z"/>
													</g>
												</g>
											</g>
										</g>
										<g>
											<g>
												<g class="st7">
													<g>
														<g>
															<path class="st8" d="M288.7,143.2c4.3,4.3,7.3,12.4,8.8,17c-1,3.1-2.4,6.1-4.4,8.8c0,0-0.1-0.6-0.4-1.6
																c-1.2-4.3-5.1-16.2-11-20.4C284.3,146.7,286.7,145.3,288.7,143.2z"/>
														</g>
													</g>
												</g>
											</g>
											<g class="st7">
												<g>
													<g>
														<path class="st8" d="M207.3,176.2c3.1,7.6,8.5,12.1,11.9,14.4c-1.1,2.2-2.3,4.5-3.7,6.8c0,0-11.4-5.1-15.6-18.2
															C202.3,178.3,204.8,177.3,207.3,176.2z"/>
													</g>
												</g>
											</g>
											<g class="st7">
												<g>
													<g>
														<path class="st8" d="M151.5,188.2c1.9,5.6,6.4,10.5,9.3,13.4c-1.2,1.5-2.5,3.1-4,4.8c0,0-10.8-8.4-12.7-18.2
															C146.2,188.2,148.7,188.3,151.5,188.2z"/>
													</g>
												</g>
											</g>
										</g>
									</g>
									<g>
										<g class="st5">
											<g>
												<g>
													<path class="st6" d="M259.6,445.9c0.7-3.3,1.9-6.5,3.8-9.3c3.4-4.9,8.8-8.4,17.3-8.7c0,0,1.6,1.1,3.5,3.1
														c-7.2,0.8-12,4.1-15.1,8.5c-1.9,2.8-3.1,6-3.8,9.3c-1.7,8.2-0.3,17.2,2,22.3C263.2,477.1,256.6,460.3,259.6,445.9z"/>
												</g>
											</g>
										</g>
										<g class="st5">
											<g>
												<g>
													<path class="st6" d="M221,444c1.8-10.3,7.9-19.7,14.6-23.7c2.8-1.7,5.7-2.4,8.4-1.9c5.4,1.1,9.5,4,12.5,7.2
														c-2-1.2-4.2-2.1-6.7-2.6c-2.7-0.6-5.6,0.2-8.4,1.9c-6.7,4-12.8,13.5-14.6,23.7c-0.9,5-0.7,10.3,0.9,15.2
														c-1.1,1.9-1.6,3.1-1.6,3.1C220.7,460.1,219.6,451.8,221,444z"/>
												</g>
											</g>
										</g>
										<g class="st5">
											<g>
												<g>
													<path class="st6" d="M220.4,410.8c1.5,0.1,2.8,0.5,4.1,0.9c6.8,2.4,11,8.6,11,8.6c-0.3,0.2-0.6,0.4-0.9,0.6
														c-1.7-1.4-3.8-2.7-6.2-3.6c-1.3-0.5-2.7-0.8-4.1-0.9c-7.4-0.6-20.2,8.6-25.2,16.8c-3.5-0.2-6,0-6,0
														C193.9,424.3,211.2,410,220.4,410.8z"/>
												</g>
											</g>
										</g>
										<g class="st5">
											<g>
												<g>
													<path class="st6" d="M132.5,419.7c2.7-2.3,6.3-4.5,10.9-6.2c3.7-1.4,6.9-1.9,9.6-1.7c7.6,0.5,11.4,6.1,13.3,10.5
														c-2.2-2.5-5.4-4.6-9.8-4.9c-2.7-0.2-5.9,0.3-9.6,1.7c-4.6,1.7-8.2,3.9-10.9,6.2c-4,3.4-6.3,7.2-7.6,10.4
														c-3,1.4-5.2,2.6-5.2,2.6S122.7,428,132.5,419.7z"/>
												</g>
											</g>
										</g>
										<g class="st5">
											<g>
												<g>
													<path class="st6" d="M143.5,401.8c0,0-0.6,0-1.8,0.2c-5.1,0.6-20,3.3-30.7,13.8c-2.6,2.6-5,5.7-7,9.3
														c-3.8,1.2-6.6,2.3-6.6,2.3c2-7.3,5.7-12.9,10.1-17.2c10.7-10.5,25.6-13.2,30.7-13.8c1.1-0.1,1.8-0.2,1.8-0.2
														c7.1,4.8,10.9,11.2,12.3,14.1C150.3,407.5,147.4,404.4,143.5,401.8z"/>
												</g>
											</g>
										</g>
										<g class="st5">
											<g>
												<g>
													<path class="st6" d="M136.8,395.2c-2.9-2.6-7.5-4.6-14.4-3.1c-10.7,2.2-20.5,11.7-25.5,17.2l-6.2-1
														c0,0,13.5-18,28.8-21.2c7-1.5,11.5,0.5,14.4,3.1c2.5,2.2,3.7,4.8,4.3,6.2c-0.1,0-0.2,0-0.2,0
														C137.7,396,137.3,395.6,136.8,395.2z"/>
												</g>
											</g>
										</g>
									</g>
								</g>
								<g>
									<g>
										<g>
											<g>
												<circle class="st1" cx="306.9" cy="277.5" r="17.2"/>
											</g>
										</g>
									</g>
									<g>
										<g>
											<g>
												
													<ellipse transform="matrix(0.9871 -0.1602 0.1602 0.9871 -26.046 11.9327)" class="st1" cx="61" cy="167.5" rx="17.2" ry="17.2"/>
											</g>
										</g>
									</g>
									<g>
										<g>
											<g>
												
													<ellipse transform="matrix(0.9732 -0.2298 0.2298 0.9732 -53.4575 71.1694)" class="st1" cx="278.9" cy="265.1" rx="9.5" ry="9.5"/>
											</g>
										</g>
									</g>
									<g>
										<g>
											<g>
												<circle class="st1" cx="51.5" cy="132.9" r="9.5"/>
											</g>
										</g>
									</g>
									<g>
										<g>
											<g>
												<circle class="st1" cx="415.7" cy="287" r="9.5"/>
											</g>
										</g>
									</g>
									<g>
										<g>
											<g>
												
													<ellipse transform="matrix(0.9732 -0.2298 0.2298 0.9732 -58.8114 71.7929)" class="st1" cx="278.9" cy="288.4" rx="6.3" ry="6.3"/>
											</g>
										</g>
									</g>
									<g>
										<g>
											<g>
												
													<ellipse transform="matrix(0.9732 -0.2298 0.2298 0.9732 -78.0724 68.5669)" class="st1" cx="255.4" cy="369.5" rx="6.3" ry="6.3"/>
											</g>
										</g>
									</g>
									<g>
										<g>
											<g>
												<circle class="st1" cx="338.1" cy="269.6" r="4"/>
											</g>
										</g>
									</g>
									<g>
										<g>
											<g>
												<circle class="st1" cx="402.2" cy="294.7" r="4"/>
											</g>
										</g>
									</g>
									<g>
										<g>
											<g>
												<circle class="st1" cx="260.3" cy="382.9" r="4"/>
											</g>
										</g>
									</g>
									<g>
										<g>
											<g>
												<circle class="st1" cx="172.2" cy="290.8" r="4"/>
											</g>
										</g>
									</g>
									<g>
										<g>
											<g>
												<circle class="st1" cx="247.7" cy="197.2" r="4"/>
											</g>
										</g>
									</g>
								</g>
							</g>
							<g>
								<g>
									<g>
										<g>
											<g>
												<path class="st8" d="M131.1,187.8c3.1,1.2,6.4,2,9.6,2.6c1.6,0.3,3.3,0.5,4.9,0.7c1.6,0.1,3.3,0.3,4.9,0.4
													c6.6,0.3,13.2-0.3,19.7-1.1l4.9-0.7c1.6-0.3,3.2-0.6,4.9-0.9l2.4-0.5c0.8-0.2,1.6-0.4,2.4-0.6l4.8-1.2
													c1.6-0.4,3.2-0.9,4.7-1.4l2.4-0.7c0.8-0.2,1.6-0.5,2.4-0.8l4.7-1.7l2.3-0.9l2.3-1c3-1.3,6.1-2.6,9-4
													c2.9-1.4,5.8-2.8,8.7-4.2c5.8-2.8,11.6-5.9,17.3-8.9c5.7-3,11.3-6,16.9-8.2c2.8-1,5.6-1.9,8.5-2.3
													c2.9-0.5,6-0.7,9.1-0.8l2.3-0.1c0.5,0,1.1-0.1,1.6-0.1c0.6-0.1,1.1-0.2,1.7-0.3c2.2-0.5,4.2-1.5,5.8-2.8
													c3.3-2.5,5.5-5.8,7.1-9.2c3.1-6.7,3.9-13.9,3.5-20.9c-0.4-7-2.3-13.7-5.1-20c-2.8-6.3-6.6-12.1-11.1-17.1
													c-9-10.2-20.6-17.6-32.7-23c-6.1-2.7-12.3-4.8-18.7-6.6c-1.6-0.5-3.2-0.8-4.8-1.2c-1.6-0.4-3.2-0.6-4.9-0.9
													c-1.6-0.2-3.3-0.2-5-0.2c-1.7,0.1-3.4,0.3-5.1,0.8c-0.2,0.1-0.4,0.3-0.3,0.6c0,0.1,0.1,0.2,0.2,0.2l0,0
													c1.4,1.1,2.9,1.8,4.4,2.5c1.5,0.7,3,1.3,4.5,1.8c3,1.1,6.1,1.8,9.1,2.7c6,1.8,12,4,17.6,6.6
													c11.3,5.2,21.8,12.3,29.7,21.6c3.9,4.6,7.3,9.8,9.7,15.3c2.4,5.5,3.9,11.4,4.2,17.3c0.3,5.9-0.5,11.9-2.8,16.8
													c-1.2,2.5-2.8,4.6-4.6,6c-0.9,0.7-1.9,1.1-2.8,1.4c-0.2,0.1-0.5,0.1-0.7,0.1l-0.8,0.1l-2.5,0.1c-3.3,0.1-6.7,0.4-10.1,1
													c-3.4,0.5-6.8,1.6-10.1,2.8c-6.5,2.5-12.1,5.7-17.8,8.7c-5.7,3-11.4,6-17.1,8.9c-2.8,1.5-5.7,2.9-8.6,4.3
													c-2.9,1.5-5.7,2.7-8.6,4l-2.1,1l-2.2,0.8l-4.4,1.7c-0.7,0.3-1.5,0.5-2.2,0.8l-2.2,0.7c-1.5,0.5-3,1-4.5,1.4l-4.6,1.2
													c-0.8,0.2-1.5,0.4-2.3,0.6l-2.3,0.5c-1.5,0.3-3.1,0.7-4.6,1l-4.7,0.8c-12.5,1.8-25,2.4-37.8,3.1l0,0
													c-0.5,0-0.8,0.4-0.8,0.9C130.6,187.4,130.8,187.7,131.1,187.8z"/>
											</g>
										</g>
									</g>
									<g>
										<g>
											<g>
												<path class="st8" d="M222.7,391.7c8.6,0,17.4-0.6,26.4-1.9l-1-7.1c-56.1,7.8-104.5-9.3-143.9-50.6
													c-29.5-31-42.6-64.8-42.8-65.1c-0.3-0.8-0.9-1.4-1.6-1.8c-0.1-0.1-12.2-7.1-23.8-24.1c-10.7-15.8-23.2-43.6-21.9-86.7
													c1-33.9,11.1-61.6,29-80.1c13.5-13.9,26.9-17.9,27.1-17.9c0.7-0.2,1.4-0.6,1.9-1.2c13.5-17.3,32.5-25.3,56.5-23.8
													c18.2,1.2,32.6,7.8,32.8,7.8c1,0.5,2.2,0.4,3.2-0.1c36.9-20.1,58,14.6,58.9,16.1l6.2-3.6c-0.2-0.4-24.8-41.2-67-19.6
													c-4.5-1.8-17.4-6.6-33.4-7.7c-25.8-1.7-47.3,7.1-62.2,25.6c-3.8,1.3-16.2,6.2-28.8,19.1C24.9,82.7,8.5,108.7,7.1,154.1
													c-1.4,45.2,11.9,74.6,23.4,91.3c10.5,15.4,21.3,23.1,24.8,25.3c2.6,6.4,15.9,37.1,43.6,66.2
													c18,18.9,38.2,33.1,60.2,42.3C178.9,387.5,200.3,391.7,222.7,391.7z"/>
											</g>
										</g>
									</g>
									<g>
										<g>
											<g>
												<path class="st8" d="M293.1,172.7c1.1,0,2.2-0.5,2.9-1.5c13.4-18.2,3.4-44.6,3-45.8l-6.7,2.6l3.4-1.3l-3.4,1.3
													c0.1,0.2,6.5,17.4,1.6,31.8c-2.1-5.5-5.5-12.3-10.1-15.7l-4.2,5.8c5,3.6,8.9,15.6,10,20c0.3,1.3,1.4,2.4,2.8,2.6
													C292.6,172.6,292.9,172.7,293.1,172.7z"/>
											</g>
										</g>
									</g>
									<g>
										<g>
											<g>
												<path class="st8" d="M215.4,200.9c1.2,0,2.4-0.6,3-1.7c9.9-15.6,10.5-31,10.5-31.6c0.1-2-1.5-3.6-3.5-3.7
													c0,0-0.1,0-0.1,0c-1.9,0-3.5,1.5-3.6,3.5c0,0.2-0.5,12.2-7.6,25c-3.2-2.2-8.5-6.8-10.9-14.3c-0.6-1.9-2.6-2.9-4.5-2.3
													c-1.9,0.6-2.9,2.6-2.3,4.5c4.6,14.4,17,20.1,17.5,20.3C214.4,200.8,214.9,200.9,215.4,200.9z"/>
											</g>
										</g>
									</g>
									<g>
										<g>
											<g>
												<path class="st8" d="M156.8,209.9c1,0,1.9-0.4,2.6-1.1c10.7-11.4,12.3-20.9,12.4-21.3l-7.1-1.1c0,0.1-1.2,6.5-8.2,14.9
													c-3-2.9-7.8-8.2-8.9-13.8l-7,1.4c2.2,10.9,13.6,19.9,14.1,20.3C155.2,209.7,156,209.9,156.8,209.9z"/>
											</g>
										</g>
									</g>
									<g>
										<g>
											<g>
												<path class="st8" d="M289.8,166.1c-0.6,1.1-1.4,2.3-2.1,3.4c-0.7,1.2-1.5,2.3-2.3,3.5c-1.5,2.3-3.2,4.5-4.8,6.8
													c-1.7,2.2-3.4,4.4-5.2,6.5c-1.8,2.1-3.6,4.3-5.4,6.3c-3.7,4.1-7.6,8.1-11.6,11.9l-3.1,2.8c-1,0.9-2.1,1.8-3.1,2.7
													c-1,0.9-2.1,1.8-3.2,2.7c-1.1,0.9-2.1,1.8-3.2,2.6c-8.8,6.8-18.2,12.7-28.1,17.8l-3.7,1.8c-0.6,0.3-1.2,0.6-1.9,0.9
													l-1.9,0.9l-3.8,1.8l-3.8,1.8c-2.5,1.2-5.1,2.3-7.7,3.6c-2.6,1.2-5.2,2.3-7.7,3.7l0,0c-0.1,0.1-0.2,0.2-0.1,0.4
													c0.1,0.1,0.2,0.2,0.3,0.1c5.8-0.2,11.6-1.2,17.1-2.7c5.6-1.4,11-3.5,16.3-5.9c10.5-4.9,20.6-10.8,29.8-17.9
													c4.6-3.5,9.1-7.2,13.3-11.2c4.2-4,8.3-8.2,12-12.6c3.8-4.4,7.3-9,10.6-13.8c1.6-2.4,3.2-4.9,4.7-7.4
													c0.7-1.3,1.5-2.5,2.1-3.8c0.7-1.3,1.3-2.6,2-4c0.7-1.6,0-3.4-1.6-4.2c-1.5-0.7-3.2-0.1-4,1.3L289.8,166.1z"/>
											</g>
										</g>
									</g>
									<g>
										<g>
											<g>
												<path class="st8" d="M330.5,379.1c0.1,0,0.2,0,0.4,0c35.9-3.7,66.9-13.7,91.9-29.7c20.1-12.9,36.4-29.7,48.6-50
													c20.6-34.5,21.8-66.5,21.9-67.9c0-1.4-0.8-2.8-2.1-3.4c-1.3-0.6-2.9-0.3-3.9,0.7c-31.4,29.5-81.6,30.9-101.7,30.1
													c-6.1-0.2-11.8-2.1-16.7-5.4c-39.8-26.9-77-31.9-101.1-31.4c-26.3,0.6-42.9,7.5-43.6,7.8c-1.8,0.8-2.7,2.9-1.9,4.7
													c0.8,1.8,2.9,2.7,4.7,1.9l0,0c0.2-0.1,16.4-6.7,41.4-7.2c23-0.4,58.5,4.4,96.6,30.2c6,4,13.1,6.3,20.5,6.6
													c19.6,0.7,66.6-0.6,100-26.2c-1.7,11.6-6.6,33.5-20.1,56.1c-26.5,44-71.8,69.6-134.8,76c-2,0.2-3.4,2-3.2,3.9
													C327.2,377.7,328.7,379.1,330.5,379.1z"/>
											</g>
										</g>
									</g>
									<g>
										<g>
											<g>
												<path class="st8" d="M331.2,331.3c0.8,5.4,1.3,10.9,1.3,16.3c0,2.7-0.1,5.4-0.4,8c-0.3,2.6-0.7,5.2-1.3,7.8
													c-1.2,5-3.3,9.8-6.2,13.8c-2.9,4-6.8,7.2-11.2,9.6v0l-0.1,0.1c-1.4,0.9-2,2.5-1.6,4c0.1,0.5,0.3,1.3,0.4,1.9
													c0.1,0.7,0.3,1.3,0.4,2c0.2,1.4,0.4,2.7,0.5,4.1c0.3,2.8,0.4,5.5,0.3,8.3c-0.1,5.5-1,11-2.8,16c-0.9,2.5-2,5-3.5,7.2
													c-1.4,2.2-3,4.4-4.9,6.2c-1.9,1.9-3.9,3.6-6.2,5c-2.2,1.5-4.7,2.6-7.2,3.7l-0.2,0.1c-1.8,0.8-2.7,2.9-1.9,4.7
													c0.8,1.8,2.9,2.7,4.7,1.9c2.9-1.2,5.7-2.6,8.4-4.3c2.7-1.7,5.2-3.7,7.4-5.9c2.3-2.2,4.2-4.8,5.9-7.5
													c1.7-2.7,3.1-5.6,4.1-8.5c2.1-5.9,3.1-12.1,3.2-18.3c0.1-3.1-0.1-6.1-0.4-9.2c-0.2-1.5-0.4-3-0.6-4.6
													c-0.1-0.8-0.3-1.5-0.4-2.3c-0.2-0.8-0.3-1.5-0.5-2.4l-1.7,4.1c5.2-2.9,9.9-7.1,13.2-12.2c1.6-2.5,3-5.2,4-8
													c1-2.8,1.7-5.6,2.1-8.5c0.8-5.7,0.7-11.5-0.1-17.1c-0.4-2.8-1-5.5-1.8-8.2c-0.8-2.7-1.7-5.3-2.9-7.9
													c0-0.1-0.1-0.1-0.2-0.1C331.2,331.1,331.2,331.2,331.2,331.3L331.2,331.3z"/>
											</g>
										</g>
									</g>
									<g>
										<g>
											<g>
												<path class="st8" d="M246.1,295.7c-4,2.8-7.4,6.2-10.5,10c-0.8,0.9-1.5,1.9-2.2,2.9c-0.7,1-1.4,2-2,3
													c-0.6,1-1.3,2.1-1.8,3.2l-0.9,1.6l-0.8,1.7c-2,4.5-3.4,9.3-4.1,14.2c-0.7,4.9-0.6,9.9,0,14.8
													c1.3,9.9,5.4,19.1,10.6,27.4c1.3,2.1,2.7,4.1,4.1,6.1c1.5,1.9,3,3.9,4.5,5.7c1.6,1.8,3.2,3.7,4.8,5.4l5.1,5.2l-0.7-4.2
													l0,0c-1.3,2.6-2.8,5.3-4.4,7.4c-0.4,0.5-0.8,1-1.1,1.3c-0.1,0.1-0.1,0.1-0.2,0.2c-0.1,0.1,0,0,0.1-0.1l0.2-0.1
													c0.2-0.1,0.2-0.1,0.1,0c-0.3,0-0.9,0-1.6-0.1l-2.3-0.3c-3.3-0.4-7-0.4-10.6,0.7c-3.6,1-6.8,3.1-9.4,5.4
													c-1.5,1.3-1.6,3.6-0.2,5.1c1.3,1.5,3.6,1.6,5.1,0.2l0,0c2-1.8,4.2-3.2,6.6-3.9c2.4-0.7,5-0.8,7.9-0.4l2.3,0.3
													c0.8,0.1,1.8,0.2,3,0.1c0.6-0.1,1.4-0.2,2.3-0.6c0.2-0.1,0.5-0.2,0.7-0.4c0.2-0.1,0.5-0.3,0.5-0.4l0.7-0.6
													c0.8-0.7,1.4-1.5,1.9-2.2c2.1-2.9,3.6-5.6,5.1-8.6l0,0c0.7-1.4,0.3-3.1-0.7-4.2c-6.6-6.4-12.8-13.3-17.9-20.8
													c-5-7.6-8.9-15.9-10.6-24.7c-0.8-4.4-1-8.9-0.6-13.4c0.4-4.5,1.5-8.9,3.1-13.1c3.2-8.4,8.5-16.3,15.1-22.7l0,0
													c0.3-0.3,0.3-0.8,0-1.2C246.9,295.5,246.4,295.5,246.1,295.7z"/>
											</g>
										</g>
									</g>
									<g>
										<g>
											<g>
												<path class="st8" d="M263.6,475.7c-6.5-2.3-9.6-17.5-7.9-28.6c2.2-14,11.2-22.3,24.8-22.8c0.8,0,1.5,0.2,2.2,0.6
													c5.8,4,15.2,15.1,9.8,27.9c-3.6,8.6-8.7,10.9-13.3,12.8c-3.5,1.5-6.2,2.7-8.7,6.9c-1.4,2.4-3.4,3.3-5.1,3.3
													C264.8,476,264.2,475.9,263.6,475.7z M263.8,444.1c-2.9,9.3-0.5,19.7,1.5,23.5c3.5-5.1,7.7-7,11.1-8.5
													c3.9-1.7,7-3.1,9.5-9c3.8-9.1-3.7-16.3-6.4-18.6C271.5,432.2,266.1,436.4,263.8,444.1z"/>
											</g>
										</g>
									</g>
									<g>
										<g>
											<g>
												<path class="st8" d="M226,470.4c0.2,0,0.3,0,0.5,0c1.3-0.2,2.3-1,2.8-2.2c0.3-0.8,8.3-19.3,30.2-18.7
													c2,0.1,3.6-1.5,3.7-3.5c0.1-2-1.5-3.6-3.5-3.7c-18.4-0.5-28.9,10.4-33.7,17.5c-3.9-9.1-1.4-20.1,3.5-28
													c4.1-6.7,9.8-10.7,13.8-9.9c11.8,2.4,16.7,15.8,16.7,15.9c0.7,1.9,2.7,2.8,4.6,2.2c1.9-0.7,2.9-2.7,2.2-4.6
													c-0.2-0.7-6.2-17.4-22.1-20.6c-7.2-1.5-15.4,3.6-21.4,13.2c-7.1,11.4-9.9,28.6-0.1,41.1
													C223.9,469.9,224.9,470.4,226,470.4z"/>
											</g>
										</g>
									</g>
									<g>
										<g>
											<g>
												<path class="st8" d="M221,447.5c0.6,0,1.3-0.2,1.9-0.5c1.7-1,2.2-3.3,1.2-4.9c-6.3-10.1-18.7-12.2-25.9-12.5
													c4.1-7,15.9-15.7,22-15.2c7.3,0.6,12.4,7.8,12.5,7.9c1.1,1.6,3.4,2.1,5,0.9c1.6-1.1,2.1-3.4,0.9-5
													c-0.3-0.4-7-10.1-17.8-11c-11-0.9-30.3,14.9-31.2,25.7c-0.1,1.1,0.3,2.1,1,2.9c0.8,0.8,1.8,1.1,2.9,1
													c0.2,0,17.9-1.5,24.5,9.1C218.6,446.9,219.8,447.5,221,447.5z"/>
											</g>
										</g>
									</g>
									<g>
										<g>
											<g>
												<path class="st8" d="M135,365.3c0.1,1.1,0.3,2,0.5,2.9c0.2,0.9,0.5,1.9,0.8,2.8c0.6,1.8,1.4,3.6,2.2,5.4
													c0.9,1.7,1.9,3.4,3.1,5c1.2,1.6,2.5,3,4.1,4.2c0.5,0.4,1.2,0.3,1.5-0.2c0.2-0.3,0.3-0.7,0.2-1.1l0-0.1
													c-0.6-1.7-1.2-3.4-1.7-5c-0.5-1.7-0.9-3.4-1.3-5.1l-1.1-5.1c-0.4-1.7-0.7-3.4-1.1-5l0-0.1c-0.5-1.9-2.5-3.1-4.4-2.6
													C136,361.9,134.9,363.6,135,365.3z"/>
											</g>
										</g>
									</g>
									<g>
										<g>
											<g>
												<path class="st8" d="M137.5,391.1c0.8-5.4,7.2-7.9,7.3-8l-2.6-6.7c-0.4,0.2-10.3,4-11.8,13.6L137.5,391.1z"/>
											</g>
										</g>
									</g>
									<g>
										<g>
											<g>
												<path class="st8" d="M106.2,414.4l1.2-7.1l-9.8-1.6c4.9-5.2,13.6-13.2,22.7-15.2c11.5-2.4,14.5,6.7,14.8,7.7l6.9-1.9
													c-1.6-5.8-8.5-15.9-23.2-12.8c-16.5,3.5-30.4,21.8-31,22.5c-0.8,1-0.9,2.3-0.5,3.5c0.5,1.2,1.5,2,2.7,2.2L106.2,414.4z"
													/>
											</g>
										</g>
									</g>
									<g>
										<g>
											<g>
												<path class="st8" d="M97.4,430.9c0.5,0,0.9-0.1,1.4-0.3c3.8-1.5,14.7-5.3,20.1-4.2c9.4,1.9,15.9-4.2,16.1-4.4l-5-5.2
													c-0.1,0.1-4.1,3.7-9.8,2.6c-4.9-1-11.6,0.5-16.7,2c9.1-17.5,30.2-21,35.5-21.6c7.6,5.6,10.6,13.1,10.6,13.2l6.7-2.6
													c-0.2-0.4-4-10.4-14.3-17.3c-0.7-0.4-1.4-0.6-2.2-0.6c-0.4,0-37.2,2.5-45.9,33.8c-0.4,1.3,0,2.7,1.1,3.6
													C95.7,430.6,96.6,430.9,97.4,430.9z"/>
											</g>
										</g>
									</g>
									<g>
										<g>
											<g>
												<path class="st9" d="M167.9,427.3"/>
											</g>
										</g>
									</g>
									<g>
										<g>
											<g>
												<path class="st8" d="M121.4,441.5c-1.1-0.6-1.8-1.7-1.8-3c0-0.8-0.5-19.6,22.6-28.3c7.3-2.8,13.6-2.6,18.8,0.4
													c5.6,3.2,8.3,9,9.5,12.7c28.9-5.9,29.2-35,29.2-36.2c0-2,1.6-3.6,3.6-3.6c0,0,0,0,0,0c2,0,3.6,1.6,3.6,3.6
													c0,0.4-0.2,38.5-38.2,43.9c-2,0.6-14.2,4.1-26.9,4.5c-4.9,0.2-13.8,4.5-16.9,6.2c-0.5,0.3-1.1,0.4-1.7,0.4
													C122.5,441.9,121.9,441.8,121.4,441.5z M157.4,416.8c-3.2-1.9-7.5-1.8-12.7,0.1c-10.5,4-14.9,10.4-16.7,15.1
													c4.1-1.8,9.4-3.7,13.5-3.8c8.7-0.3,17.4-2.2,22-3.3C162.5,422.2,160.7,418.7,157.4,416.8z"/>
											</g>
										</g>
									</g>
									<g>
										<g>
											<g>
												<path class="st8" d="M170.2,263.9c-2.1,1.3-3.9,2.9-5.5,4.6c-0.8,0.9-1.6,1.8-2.4,2.7c-0.7,0.9-1.5,1.9-2.1,2.8
													c-2.7,3.9-5.1,8-7,12.4l-0.7,1.6c-0.2,0.5-0.4,1.1-0.7,1.7c-0.4,1.1-0.9,2.2-1.2,3.4c-0.7,2.3-1.4,4.6-1.9,7
													c-0.2,1.2-0.5,2.3-0.7,3.5l-0.4,3.6c-0.2,1.2-0.2,2.4-0.3,3.6c-0.1,1.2-0.1,2.4-0.1,3.6l0.2-1.1l0,0
													c-0.4,1.3-0.7,2.4-1,3.6c-0.3,1.2-0.5,2.4-0.8,3.6c-0.5,2.4-0.8,4.8-1,7.2c-0.4,4.9-0.3,9.9,0.6,14.8
													c1,5,2.9,10,6.3,14.1c3.3,4.2,7.9,7.2,12.7,9.1c4.8,1.8,9.9,2.6,14.6,2.9c4.8,0.3,9.8,0.3,14.9-0.9
													c2.5-0.6,5.2-1.6,7.6-3.4c2.4-1.8,4.4-4.4,5.3-7.3c0.9-2.9,0.9-5.8,0.5-8.5c-0.2-1.3-0.5-2.6-0.9-3.9
													c-0.2-0.6-0.4-1.3-0.7-1.9c-0.1-0.3-0.2-0.6-0.4-0.9c-0.1-0.3-0.3-0.6-0.5-1c-0.9-1.8-3-2.5-4.8-1.6
													c-0.2,0.1-0.4,0.3-0.6,0.4l-0.1,0.1l0,0c-1.5,1.2-3.2,2.3-4.8,3.4c-0.8,0.5-1.6,1-2.4,1.4c-0.8,0.4-1.6,0.8-2.1,0.9
													c-0.2,0.1-0.4,0,0.2,0.1c0.2,0,0.3,0.1,0.6,0.2c0.1,0,0.2,0.1,0.3,0.2c0.1,0,0.1,0.1,0.2,0.1c0.1,0.1,0.1,0.1,0.2,0.2
													c0,0,0,0,0,0c0,0-0.1-0.3-0.2-0.6c-0.1-0.3-0.2-0.6-0.2-1c-0.2-1.5-0.2-3.2,0.2-4.7c0.4-1.6,1-3,1.9-4.2
													c0.4-0.6,1-1.1,1.5-1.6c0.3-0.2,0.6-0.4,0.9-0.6l0.5-0.3l0.7-0.4c1.9-1.1,4-2.4,5.8-4.1c1.7-1.6,3.2-3.3,4.6-5.1
													c2.7-3.6,4.9-7.7,6.3-12c1.4-4.3,2.2-8.8,2.3-13.2c0.2-8.9-2.1-17.6-6.5-24.9c-0.2-0.4-0.7-0.5-1.1-0.3
													c-0.3,0.2-0.4,0.5-0.4,0.8l0,0c1.2,8.3,2.4,16.2,1.9,24.1c-0.6,7.8-3.4,15.2-8.1,21.1c-1.2,1.4-2.5,2.8-3.9,4.1
													c-1.3,1.1-2.8,2.1-4.5,3l-0.6,0.3l-0.9,0.5c-0.6,0.3-1.1,0.7-1.7,1.1c-1.1,0.8-2,1.8-2.9,2.8c-1.7,2.1-2.7,4.6-3.3,7.1
													c-0.6,2.5-0.7,5-0.3,7.7c0.1,0.7,0.3,1.3,0.5,2c0.2,0.7,0.5,1.4,1,2.3c0.2,0.2,0.3,0.5,0.5,0.7c0.2,0.3,0.4,0.5,0.7,0.8
													c0.2,0.1,0.3,0.3,0.5,0.4c0.2,0.1,0.4,0.3,0.6,0.4c0.5,0.2,0.9,0.3,1.3,0.4c1.6,0.3,2.5,0,3.3-0.2
													c1.5-0.4,2.6-1,3.7-1.6c1-0.6,2-1.2,2.9-1.8c1.9-1.3,3.5-2.6,5.3-4l0,0l-5.5-1.1l0.3,0.6l0.3,0.7
													c0.2,0.5,0.3,0.9,0.5,1.4c0.3,0.9,0.5,1.9,0.7,2.9c0.3,1.9,0.3,3.7-0.2,5.2c-0.1,0.4-0.3,0.7-0.4,1.1
													c-0.2,0.3-0.3,0.7-0.6,1c-0.4,0.6-1,1.2-1.7,1.7c-1.3,1-3.1,1.7-5,2.2c-3.9,0.9-8.3,1-12.7,0.7l-3.3-0.3l-3.2-0.5
													c-1-0.2-2.1-0.5-3.1-0.7c-1-0.3-2-0.6-3-1c-1.9-0.8-3.7-1.6-5.3-2.8c-0.8-0.5-1.6-1.2-2.3-1.9c-0.4-0.3-0.7-0.7-1-1.1
													c-0.3-0.4-0.7-0.7-1-1.1c-2.5-3.1-4-6.9-4.9-11c-0.8-4.1-0.9-8.5-0.5-12.8c0.2-2.2,0.5-4.4,0.9-6.5
													c0.2-1.1,0.4-2.2,0.7-3.2c0.3-1,0.6-2.2,0.8-3.1l0,0c0.1-0.3,0.2-0.6,0.2-0.8l0-0.3c0.1-1.1,0.1-2.2,0.2-3.2
													c0-1.1,0.1-2.2,0.2-3.2l0.4-3.2c0.1-1.1,0.4-2.1,0.6-3.2c0.3-2.1,1-4.2,1.5-6.3c0.3-1,0.7-2.1,1-3.1
													c0.2-0.5,0.3-1,0.5-1.6l0.6-1.5c1.5-4.1,3.4-8.1,5.6-11.9c2.2-3.8,4.6-7.6,6.9-11.5l0-0.1c0.3-0.6,0.1-1.3-0.4-1.6
													C171.1,263.7,170.6,263.7,170.2,263.9z"/>
											</g>
										</g>
									</g>
									<g>
										<g>
											<g>
												<path class="st8" d="M199,365.2c1.5,0,2.9-1,3.4-2.5c0.6-1.9-0.4-3.9-2.3-4.5c-7.1-2.3-7.7-9.2-7.7-9.5
													c-0.2-2-1.9-3.5-3.8-3.3c-2,0.1-3.4,1.8-3.3,3.8c0,0.5,0.9,12,12.7,15.8C198.3,365.1,198.7,365.2,199,365.2z"/>
											</g>
										</g>
									</g>
									<g>
										<g>
											<g>
												<path class="st8" d="M140.4,107.7c-0.5-1.5-1-2.8-1.7-4.2c-0.7-1.3-1.4-2.6-2.3-3.8c-1.7-2.5-3.8-4.8-6.3-6.8
													c-2.5-2-5.5-3.6-8.8-4.5c-3.3-0.9-7-0.9-10.3-0.2c-0.8,0.2-1.7,0.4-2.5,0.7c-0.8,0.3-1.6,0.6-2.3,0.9
													c-1.5,0.7-3,1.6-4.4,2.6c-2.7,2.1-5,4.8-6.5,7.7c-1.5,3-2.3,6.1-2.5,9.1c-0.1,1.5-0.1,3,0,4.5c0.2,1.5,0.4,2.9,0.9,4.5
													c0.3,0.9,1.3,1.4,2.2,1.1c0.6-0.2,1-0.6,1.1-1.2l0.1-0.3c0.2-0.6,0.3-1.2,0.5-1.9c0.2-0.6,0.3-1.2,0.5-1.9
													c0.4-1.2,0.8-2.4,1.3-3.5c0.9-2.3,2.1-4.3,3.4-6c0.7-0.9,1.4-1.6,2.2-2.3c0.8-0.7,1.6-1.3,2.4-1.8
													c0.9-0.5,1.8-1,2.7-1.4c1-0.4,2-0.7,3-0.9c0.5-0.1,1-0.2,1.5-0.2l0.7-0.1l0.7,0c1,0,2,0,2.9,0.2c2,0.3,4,1.1,6,2.2
													c4,2.2,7.9,5.7,11.5,9.4l0.1,0.1c0.9,0.9,2.3,0.9,3.1,0C140.5,109.4,140.7,108.5,140.4,107.7z"/>
											</g>
										</g>
									</g>
								</g>
								<g>
									<g>
										<g>
											<path class="st8" d="M184.9,100.9c-1.7,0.8-2.9,2-3.9,3.6c-0.5,0.8-0.9,1.7-1.1,2.8c-0.2,1-0.2,2.2,0.1,3.4
												c0.3,1.2,0.9,2.3,1.7,3.1c0.8,0.8,1.7,1.4,2.6,1.8c0.9,0.4,1.8,0.5,2.8,0.5c0.5,0,0.9-0.1,1.4-0.1
												c0.5-0.1,0.9-0.2,1.4-0.4c0.3-0.1,0.4-0.4,0.3-0.7c0,0,0-0.1-0.1-0.1l0,0c-1.1-1.5-2.2-2.5-3-3.4
												c-0.4-0.4-0.7-0.8-0.9-1.2c-0.2-0.3-0.4-0.6-0.5-0.9c-0.2-0.6-0.3-1.6-0.1-2.8c0.2-1.2,0.5-2.7,0.8-4.2l0-0.1
												c0.1-0.5-0.2-1-0.8-1.1C185.3,100.8,185.1,100.8,184.9,100.9z"/>
										</g>
									</g>
								</g>
								<g>
									<g>
										<g>
											<path class="st8" d="M262.7,86.5c1.2,1,2.4,1.9,3.3,2.8c0.9,0.9,1.5,1.7,1.7,2.3c0.1,0.3,0.2,0.6,0.2,1
												c0,0.4,0.1,0.9,0,1.5c0,1.2-0.2,2.6-0.2,4.5l0,0c0,0.3,0.3,0.5,0.6,0.5c0,0,0.1,0,0.1,0c0.5-0.1,0.9-0.3,1.3-0.5
												c0.4-0.2,0.8-0.5,1.2-0.7c0.7-0.6,1.3-1.3,1.8-2.1c0.5-0.8,0.8-1.9,0.9-3c0.1-1.1-0.1-2.4-0.7-3.4
												c-0.5-1.1-1.3-2-2.1-2.7c-0.8-0.7-1.7-1.1-2.6-1.5c-1.8-0.6-3.5-0.8-5.3-0.3c-0.5,0.1-0.8,0.6-0.7,1.1
												c0,0.2,0.2,0.4,0.3,0.5L262.7,86.5z"/>
										</g>
									</g>
								</g>
							</g>
						</g>
					</g>
				</g>
			</g>
		</g>
		<path class="st10" d="M150.4,110.5c0,19.4-15.7,35-35,35c-3,0-5.8-0.4-8.6-1.1c-8.9-2.2-16.5-7.9-21.2-15.5
			c-3.3-5.4-5.3-11.7-5.3-18.5c0-19.4,15.7-35,35-35c0.4,0,0.8,0,1.1,0c9.4,0.3,17.9,4.3,24,10.6C146.7,92.4,150.4,101,150.4,110.5z
			"/>
		<path class="st8" d="M76,114.1c0.8,5.2,2.6,10.1,5.2,14.5c-0.1,0.3-0.1,0.5-0.1,0.9c0.4,7.1-7.9,3.6-7.9,7.9
			c0,4.4,3.6,7.9,7.9,7.9c4.1,0,2.4-9.1,6.8-8.3c2.1,2,4.3,3.7,6.6,5.2c3.3,2.1,6.9,3.6,11,4.8c1.9,0.5,3.3,0.8,4.5,0.9
			c1.1,0.2,2.3,0.3,3.3,0.3c0,0,0,0,0,0l2.6,0.1l2.7-0.1c0.9,0,1.9-0.1,3.3-0.4c1.1-0.1,2.5-0.4,4.4-0.9c4.2-1.2,7.8-2.7,11-4.8
			c4.3-2.7,8.3-6.4,11.4-10.7c3.7-5.2,6.1-11.1,7.1-17.5c1.1-7,0.2-14.5-2.5-21.1c-1.3-3.3-3.1-6.5-5.7-10c-2.3-2.9-5.3-5.7-8.7-8.1
			c-3.2-2.2-6.9-4-10.9-5.3l-0.7-0.2c-1.7-0.5-3.5-0.9-5.4-1.2c-1.6-0.3-2.9-0.4-4.3-0.4l-1.6-0.1c-4.5,0.1-8.6,0.8-12.2,1.9
			c-4,1.3-7.7,3.1-10.9,5.4c-3.5,2.5-6.4,5.3-8.7,8.1c-2.6,3.5-4.5,6.7-5.7,10c-1.5,4.1-2.4,7.5-2.7,10.8c-0.2,1.3-0.2,2.6-0.2,3.8
			l0,1.3C75.6,110.7,75.7,112.3,76,114.1z M81.6,109.1l0.1-1.2c0.1-1.1,0.2-2.3,0.4-3.3c0.4-2.7,1.4-5.6,2.9-8.8
			c2.7-5.5,7.2-10.5,12.6-13.9c2.5-1.6,5.5-2.9,8.8-4c2.9-0.8,6-1.3,9.6-1.3c0.3,0,0.9,0.1,1.5,0.1c1.1,0,2.4,0.1,3.3,0.3
			c1.4,0.1,2.7,0.5,4.1,0.8l0.8,0.2c3.1,1,6.1,2.3,8.7,4c5.3,3.4,9.8,8.4,12.6,13.9c2.7,5.4,3.8,11.6,3.4,17.7
			c-0.4,5.4-2.2,11-5,15.6c-2.4,3.9-5.7,7.4-9.8,10.2c-3.7,2.7-7.5,3.9-10,4.7c-1.7,0.5-2.9,0.8-3.9,0.9c-1.3,0.2-2.2,0.4-3,0.4
			l-2.6,0.2l-2.5-0.1c-0.8,0-1.7-0.1-3-0.4c-1.1-0.1-2.3-0.4-4-0.9c-2.5-0.7-6.2-2-9.9-4.6c-4.1-2.9-7.4-6.3-9.8-10.2
			c-2.9-4.7-4.6-10.1-5.1-15.7C81.5,111.8,81.5,110.3,81.6,109.1z"/>
		<g>
			<path class="st8" d="M316,124.2c3-5.5,2-12.7-1.7-17.9c-3.3-4.5-8.3-7.5-13.8-8.9c2.2,1.2,4.2,3,5.6,4.3c2.5,2.3,3.9,5.5,4.4,8.8
				c0.2,1.1,0.3,2.3,0.1,3.5c-0.3,2.7-2,5.2-4.2,7c-3.1,2.5-7.3,3.7-11.3,3.2c3-0.2,6.1-1.2,8.5-3c2.4-1.9,4-4.6,4.1-7.5
				c0.1-2.6-1-5.1-2.8-7.1c0,0.5,0.1,1,0.1,1.5c0.2,5.6-2.2,8.1-7.8,7.7c-5.6-0.4-10.9-2.8-16-5.1c-9.6-4.3-19.3-11.4-30-0.5
				c-5.9,7.9,2.5,21.6,14.9,20.8c2.6-0.2,7.8-0.6,10.4-0.9c4.6-0.5,7.6,1.3,12.1,2.3C299.2,134.9,310.8,133.8,316,124.2z"/>
			<path class="st8" d="M243,112.6c-14.8-3.7-19.5,7.4-25.4,16c-3.2,4.6-6.5,9.4-11.1,12.7c-4.6,3.3-7.9,2.4-10.7-2.5
				c-0.3-0.5-0.5-0.9-0.7-1.3c-0.5,2.6-0.2,5.4,1.3,7.6c1.6,2.4,4.4,3.9,7.4,4.3c3,0.4,6.1-0.4,8.8-1.8c-3.1,2.5-7.4,3.6-11.3,3.1
				c-2.8-0.4-5.6-1.7-7.3-3.8c-0.7-0.9-1.2-2-1.7-3c-1.2-3.1-1.7-6.6-0.8-9.9c0.5-1.9,1.3-4.4,2.5-6.6c-3.9,4-6.7,9.2-7.2,14.7
				c-0.5,6.3,2.3,13,7.8,16.2c9.4,5.5,19.9,0.4,27.7-7.1c3.3-3.2,5-6.3,9.2-8.2c2.4-1.1,7.1-3.4,9.4-4.6
				C252,132.3,252,116.3,243,112.6z"/>
		</g>
		<path class="st11" d="M140.5,86.1l-33.7,58.4c-8.9-2.2-16.5-7.9-21.2-15.5l30.9-53.5C126,75.8,134.4,79.8,140.5,86.1z"/>
		<g>
			<g>
				<path class="st12" d="M100.2,364.9c-12.2-2.2-24.3-4.4-36.5-6.6c-1.2-2-2.3-3.9-3.5-5.9c0.1-4.8,0-9.5-4.7-12.5
					c-0.3-5.7,2.2-10.6,2.6-16.4c0.9-2.7,0.4-5.7-1.7-8.3c0.6-4,0.2-4.7,3.7-4.1c19.4,3.7,38.8,7.2,58.3,10.7
					c7.3,1.3,7.4,1.4,5.3,8.7c-0.5,1.8-1.3,3.6-2,5.3c-3.3,8.4-8.2,15.9-13.7,23.1C105.2,360.9,102.7,362.9,100.2,364.9z"/>
				<path class="st13" d="M100.2,364.9c-12.2-2.2-24.3-4.4-36.5-6.6c-2.8-0.5-5.6-1.5-8.4-2.2c-3.6-0.9-7.1-3.1-11.1-2.4
					c4.2,4.6,10.3,6.3,15.5,9.2c13.8,3.8,27.8,6.6,42,7.7c6.6-1,13.6-0.4,19.8-3.7C114.5,365.7,107.2,366.6,100.2,364.9z"/>
				<path class="st6" d="M95.4,314.3c4.8-3.9,5.9-8.2,5.4-13c-0.3-2.4-0.8-4.8-1.5-7.1c-2.4-7.8-2.6-15.3,3.1-22.9
					c-6.8,2.7-10.3,9.4-10.1,17.9c0.1,2.5,0.4,5.1,1.4,7.6C96.3,303.7,96.2,303.8,95.4,314.3z"/>
				<path class="st6" d="M89.4,277.5c-4.8,1.5-6.5,4.9-7.6,9.2c-1.1,4.2-0.6,8.2,0.9,12.2c1.4,3.9,5.4,6.6,4.5,11.7
					c2.9-1,3.7-2.7,3.6-4.8c-0.1-1.5-0.1-3.2-0.8-4.6C86.4,293.5,85.8,285.7,89.4,277.5z"/>
				<path class="st14" d="M100.2,364.9c7,1.7,14.3,0.9,21.4,2c2.5-0.8,3.7-2,0.4-3.2c-4.7-1.8-9.5-3.2-14.2-4.7
					C105.2,360.9,102.7,362.9,100.2,364.9z"/>
				<path class="st14" d="M44.3,353.7c4-0.7,7.4,1.5,11.1,2.4c2.8,0.7,5.5,1.6,8.4,2.2c-1.2-2-2.3-3.9-3.5-5.9
					c-1.9-1.5-4-2.7-6.4-3.3c-4.1,1.5-8.5-1.2-12.7,0.9C41.2,352.1,42.7,352.9,44.3,353.7z"/>
				<path class="st12" d="M101.8,370.6c-14.3-1.1-28.2-3.9-42-7.7C72.9,370,87,372.5,101.8,370.6z"/>
			</g>
			<g id="Logo_TeaSwap">
				
					<linearGradient id="SVGID_1_" gradientUnits="userSpaceOnUse" x1="77.1987" y1="346.175" x2="108.7024" y2="346.175" gradientTransform="matrix(0.9837 0.1796 -0.1796 0.9837 55.5378 -19.0582)">
					<stop  offset="0" style="stop-color:#005A5C"/>
					<stop  offset="0.2221" style="stop-color:#005F5A"/>
					<stop  offset="0.4687" style="stop-color:#006C54"/>
					<stop  offset="0.727" style="stop-color:#00824B"/>
					<stop  offset="0.9919" style="stop-color:#00A13D"/>
					<stop  offset="1" style="stop-color:#00A23D"/>
				</linearGradient>
				<circle class="st15" cx="84.8" cy="338.2" r="15.8"/>
				<g>
					<g>
						<path class="st16" d="M95.4,333.6l0.8-0.5c0.4-0.3,0.7-0.7,0.8-1.2c0.1-0.5,0-1-0.3-1.4l-0.4-0.6c-0.3-0.4-0.7-0.7-1.2-0.8
							c-0.5-0.1-1,0-1.4,0.3l-0.8,0.5c-1.6-1.5-3.6-2.7-6-3.1c-6.3-1.1-12.3,3-13.5,9.3c-1.1,6.3,3,12.3,9.3,13.5
							c6.3,1.1,12.3-3,13.5-9.3C96.6,337.9,96.3,335.6,95.4,333.6L95.4,333.6z"/>
						<circle class="st17" cx="84.8" cy="338.2" r="10.4"/>
						<g>
							
								<linearGradient id="SVGID_2_" gradientUnits="userSpaceOnUse" x1="84.3776" y1="346.175" x2="101.5236" y2="346.175" gradientTransform="matrix(0.9837 0.1796 -0.1796 0.9837 55.5378 -19.0582)">
								<stop  offset="0" style="stop-color:#005A5C"/>
								<stop  offset="0.2221" style="stop-color:#005F5A"/>
								<stop  offset="0.4687" style="stop-color:#006C54"/>
								<stop  offset="0.727" style="stop-color:#00824B"/>
								<stop  offset="0.9919" style="stop-color:#00A13D"/>
								<stop  offset="1" style="stop-color:#00A23D"/>
							</linearGradient>
							<circle class="st18" cx="84.8" cy="338.2" r="8.6"/>
						</g>
						<path class="st19" d="M79.6,337.2c0.7-4.1,4.3-7,8.4-7c-0.5-0.2-1-0.3-1.6-0.4c-4.7-0.8-9.1,2.2-10,6.9
							c-0.8,4.7,2.2,9.1,6.9,10c0.5,0.1,1.1,0.1,1.6,0.1C81.1,345.3,78.8,341.3,79.6,337.2z"/>
					</g>
					<g>
						<path class="st6" d="M83.4,343.3l-0.1,0.8c0,0.2,0.1,0.5,0.4,0.5c0.2,0,0.5-0.1,0.5-0.4l0.1-0.8c1,0.1,1.9-0.1,2.8-0.6
							c0.2-0.1,0.3-0.4,0.2-0.6c-0.1-0.2-0.4-0.3-0.6-0.2c-0.7,0.4-1.4,0.6-2.2,0.5l1.3-7.1c0-0.2-0.1-0.5-0.4-0.5
							c-0.2,0-0.5,0.1-0.5,0.4l-1.3,7.1c-1.9-0.6-3-2.5-2.7-4.4c0.3-1.4,2.6-3.5,4.8-5.1c0,0,0.1,0,0.1,0c0,0,0,0,0.1,0
							c1.5,2.2,3,5,2.7,6.4c-0.1,0.5-0.3,1-0.6,1.5c-0.1,0.2-0.1,0.5,0.1,0.6c0.2,0.1,0.5,0.1,0.6-0.1c0.4-0.6,0.6-1.2,0.8-1.8
							c0.4-2-1.6-5.3-2.8-7.1c-0.2-0.2-0.4-0.4-0.7-0.4s-0.5,0-0.8,0.2c-0.6,0.4-1.8,1.3-2.9,2.3c-1.3,1.3-2.1,2.4-2.3,3.3
							C79.5,340.3,81.1,342.7,83.4,343.3L83.4,343.3z"/>
						<path class="st6" d="M89.6,334.1c0.6,0.7,1.1,1.5,1.3,2.4c0,0.2,0.2,0.3,0.4,0.3c0.1,0,0.1,0,0.2,0c0.2-0.1,0.4-0.3,0.3-0.6
							c-0.3-1-0.8-2-1.5-2.8c-0.2-0.2-0.5-0.2-0.6,0C89.4,333.6,89.4,333.9,89.6,334.1L89.6,334.1z"/>
						<path class="st6" d="M77.9,340.1c0.3,1,0.8,2,1.5,2.8c0.1,0.1,0.2,0.1,0.3,0.1c0.1,0,0.3,0,0.4-0.1c0.2-0.2,0.2-0.5,0-0.6
							c-0.6-0.7-1.1-1.5-1.3-2.4c-0.1-0.2-0.3-0.4-0.6-0.3C78,339.6,77.8,339.9,77.9,340.1L77.9,340.1z"/>
					</g>
				</g>
			</g>
		</g>
		<g>
			<g>
				<g>
					<g>
						<path class="st6" d="M48.1,343.5c2.6,2.6,6,3.6,8.5,3.6c0.7,0,1.2,0,1.2,0c-0.3,2.3-7.4,6-11.4,6c-0.1,0-0.2,0-0.3,0
							c-0.6,0-1.5,1.5-2,1.4c-2.9-0.6-6.9,0-6.9,0c2.9-1.1,7.9-7.5,8.7-10.3"/>
					</g>
				</g>
			</g>
		</g>
		<g>
			<g>
				<g>
					<g>
						<path class="st6" d="M54,335.9c2.6,2.2,8.3,2.5,10.8,2.5c0.7,0,1.2,0,1.2,0c-0.3,2-7.4,5.1-11.4,5.1c-0.1,0-0.2,0-0.3,0
							c-0.6,0-1.2-0.1-1.8-0.2c-2.9-0.5-4.7-1.9-4.7-1.9C50.6,340.4,53.2,338.3,54,335.9"/>
					</g>
				</g>
			</g>
		</g>
		<g>
			<g>
				<g>
					<g>
						<path class="st6" d="M59,324.2c2.6,2.2,7.4,4.6,9.8,4.6c0.7,0,1.2,0,1.2,0c-0.3,2-7.4,5.1-11.4,5.1c-0.1,0-0.2,0-0.3,0
							c-0.6,0-1.2-0.1-1.8-0.2c-2.9-0.5-4.7-1.9-4.7-1.9c2.9-0.9,5.5-3,6.3-5.4"/>
					</g>
				</g>
			</g>
		</g>
		<g>
			<g>
				<path class="st8" d="M43.3,307.4c2-0.1,4.2-0.1,6,0.7c1.8,0.8,2.9,2.6,3.5,4.4c1.5,4.1,1.8,8.5,5.1,11.7
					c2.8,2.8,6.6,4.2,10.2,5.4c0.3,0.1,1.1,0.5,1.4,0.5c0.4,0.2,0.4-0.2,0-1.1c-0.2,0.2-0.4,0.4-0.6,0.5c-0.8,0.7-1.7,1.4-2.6,1.9
					c-1.9,1.2-3.9,2.1-6.1,2.7c-2,0.6-2,3.4,0,4c2.5,0.7,5.1,1.1,7.7,1.1c-0.6-1-1.2-2.1-1.8-3.1c-3,4.4-8,5.8-12.8,7
					c-2.3,0.6-1.8,4.1,0.5,4c2,0,4,0,6,0c2.7,0,2.7-4.1,0-4.1c-2,0-4,0-6,0c0.2,1.3,0.4,2.7,0.5,4c3-0.8,6-1.6,8.8-3.1
					c2.6-1.4,4.8-3.4,6.5-5.9c0.9-1.3-0.3-3.1-1.8-3.1c-2.3,0-4.5-0.3-6.6-0.9c0,1.3,0,2.7,0,4c3.9-1.2,7.8-3.1,10.8-6
					c1.5-1.4,2-3.6,0.3-5.1c-1.3-1.2-3.5-1.5-5.1-2.1c-3.2-1.2-6.4-2.7-8.1-5.9c-1.8-3.5-1.8-7.7-4-11c-2.7-4.2-7.3-5.1-12-4.9
					C40.7,303.4,40.7,307.5,43.3,307.4L43.3,307.4z"/>
			</g>
		</g>
		<g>
			<g>
				<path class="st6" d="M52.1,336.8c-0.4,0.2-0.8,0.3-1.2,0.6c-0.4,0.2-0.7,0.5-1.1,0.8c-0.1,0.1-0.2,0.3-0.3,0.4
					c-0.2,0.2-0.2,0.5-0.2,0.8c0,0.2,0,0.4,0,0.5c0,0.3,0.1,0.5,0.2,0.8c0.2,0.3,0.4,0.5,0.7,0.7c0.2,0.2,0.5,0.2,0.8,0.2
					c0.3,0.1,0.5,0,0.8,0c0.4-0.2,0.9-0.4,1.3-0.6c0.4-0.3,0.8-0.6,1.1-0.9c0.3-0.3,0.6-0.7,0.9-1.1c0.2-0.3,0.3-0.5,0.5-0.8
					c0.2-0.2,0.2-0.5,0.2-0.8c0.1-0.3,0-0.5,0-0.8c-0.1-0.3-0.2-0.5-0.4-0.7c-0.1-0.2-0.3-0.4-0.6-0.5c-0.5-0.3-1.1-0.4-1.6-0.2
					c-0.2,0.1-0.3,0.1-0.5,0.2c-0.3,0.2-0.6,0.4-0.7,0.7c-0.2,0.3-0.3,0.6-0.6,0.9c0.1-0.1,0.2-0.3,0.3-0.4
					c-0.3,0.3-0.6,0.6-0.9,0.9c0.1-0.1,0.3-0.2,0.4-0.3c-0.3,0.3-0.7,0.5-1.1,0.6c0.2-0.1,0.3-0.1,0.5-0.2c0,0,0,0,0,0
					c0.7,1.1,1.3,2.3,2,3.4c0.1-0.1,0.2-0.2,0.3-0.3c-0.1,0.1-0.3,0.2-0.4,0.3c0.3-0.2,0.6-0.4,0.9-0.5c-0.2,0.1-0.3,0.1-0.5,0.2
					c0,0,0.1,0,0.1,0c0.3-0.1,0.5-0.2,0.7-0.4c0.2-0.1,0.4-0.3,0.5-0.6c0.2-0.2,0.2-0.5,0.2-0.8c0.1-0.3,0-0.5,0-0.8
					c-0.2-0.5-0.5-1-0.9-1.2c-0.2-0.1-0.3-0.1-0.5-0.2C52.9,336.7,52.5,336.7,52.1,336.8L52.1,336.8z"/>
			</g>
		</g>
		<g>
			<g>
				<path class="st8" d="M56.4,323.1c0,0.1-0.1,0.2-0.1,0.3c-0.1,0.3,0.1-0.3,0,0c-0.1,0.2-0.2,0.4-0.3,0.5
					c-0.2,0.4-0.5,0.8-0.8,1.2c-0.1,0.1-0.3,0.5-0.1,0.2c-0.1,0.2-0.3,0.3-0.4,0.5c-0.3,0.3-0.6,0.7-1,0.9c-0.1,0.1-0.5,0.4-0.3,0.2
					c-0.2,0.1-0.4,0.3-0.6,0.4c-0.4,0.2-0.8,0.5-1.2,0.7c-0.1,0-0.2,0.1-0.3,0.1c0.1,0,0.3-0.1,0,0c-0.2,0.1-0.4,0.1-0.5,0.2
					c-0.5,0.2-1.1,0.3-1.5,0.6c-1.3,0.8-1.9,2.4-1.1,3.8c0.5,0.9,1.4,1.7,2.2,2.3c1.8,1.4,3.7,2.4,6,2.7c1.2,0.1,2.4-0.1,3.6-0.5
					c0.6-0.2,1.1-0.4,1.7-0.6c0.2-0.1,0.5-0.2,0.7-0.2c0.1,0,0.3-0.1,0.4-0.1c0.4-0.1-0.5,0,0.2,0c1.1-0.1,2.1-0.9,2.1-2.1
					c0-1-0.9-2.2-2.1-2.1c-1.3,0.1-2.5,0.5-3.7,1c-0.6,0.2-1.1,0.4-1.7,0.5c0.4-0.1-0.4,0-0.5,0c-0.1,0-0.9-0.1-0.5,0
					c-1.2-0.2-1.7-0.5-2.7-1.1c-0.2-0.2-0.5-0.3-0.7-0.5c0.2,0.2-0.3-0.3-0.4-0.3c-0.2-0.2-0.4-0.4-0.6-0.6
					c-0.1-0.1-0.2-0.2-0.3-0.3c-0.2-0.2-0.2-0.2,0,0c0.2,0.6,0.2,1.1-0.2,1.5c-0.2,0.2-0.2,0.2,0,0.1c-0.2,0.1-0.2,0.1,0,0
					c0.1,0,0.2-0.1,0.3-0.1c0.6-0.2,1.2-0.4,1.8-0.7c1-0.5,2-1.2,2.9-1.9c1.8-1.5,3-3.5,3.8-5.6c0.4-1-0.4-2.3-1.4-2.5
					C57.8,321.4,56.8,322,56.4,323.1L56.4,323.1z"/>
			</g>
		</g>
		<g>
			<g>
				<path class="st8" d="M49.6,335.5c-0.1-0.3-0.1-0.5,0-0.7c-0.1,0.2-0.1,0.2,0,0c-0.1,0.1-0.2,0.2-0.2,0.3
					c-0.1,0.1-0.2,0.2-0.3,0.2c0.2-0.1,0.2-0.1,0,0c-0.2,0.2-0.5,0.3-0.7,0.5c-0.9,0.7-1.9,1.3-2.8,2.1c-1.2,1.1-1.5,2.7-0.6,4.1
					c0.6,1,1.5,1.7,2.4,2.4c3.1,2.3,7.4,3.1,11.1,1.9c1-0.3,1.8-1.4,1.4-2.5c-0.3-1-1.4-1.8-2.5-1.4c-0.4,0.1-0.8,0.2-1.2,0.3
					c-0.1,0-0.7,0.1-0.2,0c-0.2,0-0.4,0-0.7,0.1c-0.4,0-0.8,0-1.2,0c-0.2,0-0.3,0-0.5,0c0.5,0.1-0.2,0-0.3-0.1
					c-0.4-0.1-0.8-0.2-1.1-0.3c-0.2-0.1-0.4-0.1-0.6-0.2c-0.4-0.1,0.3,0.2-0.1-0.1c-0.4-0.2-0.7-0.3-1-0.6c-0.2-0.1-0.4-0.2-0.6-0.4
					c-0.1-0.1-0.2-0.1-0.3-0.2c0.2,0.1,0.2,0.2,0.1,0.1c-0.3-0.3-0.6-0.5-0.9-0.9c0,0-0.1-0.1-0.1-0.1c-0.2-0.2-0.2-0.2,0,0
					c-0.2-0.3-0.2-0.2,0,0.4c0,0.3-0.1,0.5-0.3,0.7c0,0,0.5-0.4,0.1-0.1c0.2-0.2,0.5-0.3,0.7-0.5c0.4-0.3,0.8-0.6,1.2-0.9
					c0.8-0.6,1.7-1.1,2.3-1.9c1-1.2,1.3-2.7,0.5-4.1c-0.5-1-1.9-1.3-2.8-0.7C49.4,333.3,49.1,334.5,49.6,335.5L49.6,335.5z"/>
			</g>
		</g>
		<g>
			<g>
				<path class="st8" d="M59.6,344.1c-2.5,3-5.3,5.7-8.7,7.6c-1.1,0.6-2.2,1-3.5,1.3c-0.6,0.1-1,0.2-1.3,0.2c-0.5,0-1.1,0.1-1.6,0
					c-0.2,0-0.5,0-0.7-0.1c-0.4,0,0.3,0.1-0.3,0c-0.4-0.1-0.8-0.2-1.3-0.3c-0.2-0.1-0.3-0.1-0.5-0.2c-0.5-0.2,0.2,0.1-0.1,0
					c-0.3-0.2-0.6-0.3-0.9-0.5c-0.1-0.1-0.2-0.2-0.3-0.2c-0.4-0.2,0.2,0.2,0,0c-0.1-0.1-0.3-0.3-0.5-0.4c-0.4-0.3,0.2,0.4,0,0
					c0.2,0.3,0.2,0.5,0.2,0.9c-0.1,0.3-0.2,0.7-0.3,1c-0.2,0.2-0.5,0.5-0.7,0.7c0,0,1-0.5,1-0.5c4.3-2.2,8.2-5.4,9.8-10.2
					c0.8-2.5-3.2-3.6-4-1.1c-0.7,2.1-2.1,3.8-3.8,5.2c-0.9,0.7-1.9,1.3-2.8,1.8c-0.8,0.5-2,0.8-2.7,1.5c-1.6,1.6,0,3.5,1.4,4.5
					c3.7,2.7,8.8,2.5,12.9,0.8c4.6-1.9,8.3-5.3,11.5-9.1c0.7-0.9,0.8-2.1,0-2.9C61.8,343.3,60.4,343.2,59.6,344.1L59.6,344.1z"/>
			</g>
		</g>
	</g>
</g>
<g id="Calque_8">
</g>
</svg>
